<svg width="1650" height="600" viewBox="0 0 1650 600" fill="none" xmlns="http://www.w3.org/2000/svg">
<path d="M0 300C0 465.685 134.315 600 300 600C465.685 600 600 465.685 600 300C600 134.315 465.685 0 300 0C134.315 0 0 134.315 0 300Z" fill="url(#paint0_linear_38_16)"/>
<path d="M409.695 258.873L476.283 163H392.799L300 298.211H374.625L300 436L488 258.873H409.695Z" fill="#F7F6FA" stroke="black"/>
<path d="M312.863 423.187L468.367 259.584H486.021L312.863 423.187Z" fill="#2B3232" stroke="black"/>
<mask id="mask0_38_16" style="mask-type:luminance" maskUnits="userSpaceOnUse" x="112" y="163" width="188" height="273">
<path d="M112 163H300V436H112V163Z" fill="white"/>
</mask>
<g mask="url(#mask0_38_16)">
<path fill-rule="evenodd" clip-rule="evenodd" d="M284.416 377.614C290.107 397.409 297.798 416.205 300 436L292.045 435.022C279.485 382.68 268.165 347.488 243.619 303.477C225.197 270.507 205.209 244.269 179.577 223.43C165.931 212.321 148.456 200.169 132.732 197.103C128.437 196.259 124.08 196.014 119.614 196.57C168.304 212.543 206.853 249.534 237.649 304.988C250.224 327.604 261.156 352.731 271.205 379.214L252.69 384.057L260.397 378.57L232.826 372.282C243.06 367.106 253.171 368.839 256.411 363.262C228.035 361.418 204.713 352.643 188.338 335.602C194.432 334.38 201.457 333.292 205.116 330.781C177.685 317.496 161.822 293.613 141.695 272.418C167.854 280.282 192.06 278.994 199.069 271.862C152.906 276.772 123.087 258.488 112.868 212.388C111.985 207.411 111.736 202.39 112.295 197.325C115.877 164.377 156.581 153.247 169.824 180.262C172.475 185.661 176.212 190.615 179.298 196.881L166.691 163C200.619 179.418 203.41 197.525 220.964 252.067C219.568 235.471 216.358 220.43 212.187 206.234C254.582 229.673 268.708 288.68 270.972 338.868C272.197 321.361 269.933 299.367 265.56 274.662C277.934 292.435 286.354 313.297 283.346 343.067L289.006 339.446L286.029 355.42L294.495 349.666L284.416 377.614Z" fill="#F7F6FA"/>
<path d="M256.5 363C228.38 356.538 213.539 350.385 188.5 335.5C197.426 343.619 202.747 347.321 212.5 353C229.666 359.457 239.278 362.512 256.5 363Z" fill="#2B3232" stroke="black"/>
<path d="M205 330.5L142 272.5L173.5 307.5C185.384 318.737 192.272 323.689 205 330.5Z" fill="#2B3232" stroke="black"/>
<path d="M198.5 271.5C153.475 261.76 131.85 254.594 112 201.5C112.488 222.972 116.895 230.04 130 250C156.748 277.963 174.653 272.963 198.5 271.5Z" fill="#2B3232" stroke="black"/>
</g>
<path d="M756.2 372.2C745.933 372.2 736.333 371.267 727.4 369.4C718.6 367.667 711.2 365.333 705.2 362.4C699.2 359.467 694.267 356.667 690.4 354C686.667 351.333 683.533 348.667 681 346L686 297.4C691.467 304.733 698.8 311.133 708 316.6C717.2 321.933 727.133 324.6 737.8 324.6C748.467 324.6 756.133 323.467 760.8 321.2C765.6 318.933 768 314.8 768 308.8C768 302.4 765.267 296.933 759.8 292.4C754.467 287.867 745.2 282.4 732 276C727.2 273.6 723.133 271.467 719.8 269.6C716.467 267.6 712 264.4 706.4 260C700.933 255.467 696.467 250.8 693 246C689.533 241.067 686.467 234.8 683.8 227.2C681.133 219.467 679.8 211.2 679.8 202.4C679.8 154.8 706.667 131 760.4 131C768.933 131 776.933 131.933 784.4 133.8C792 135.533 797.933 137.467 802.2 139.6C806.467 141.733 810.333 144.267 813.8 147.2C817.4 150 819.667 152 820.6 153.2C821.533 154.267 822.2 155.133 822.6 155.8L812.6 194.4C807.4 188.267 800.867 183.733 793 180.8C785.267 177.733 777.867 176.2 770.8 176.2C753.733 176.2 745.2 181.533 745.2 192.2C745.2 195 745.733 197.533 746.8 199.8C747.867 202.067 749.6 204.133 752 206C754.4 207.867 756.6 209.467 758.6 210.8C760.733 212.133 763.6 213.8 767.2 215.8C770.933 217.667 773.733 219.2 775.6 220.4C795.067 228.667 809.333 238.467 818.4 249.8C827.6 261.133 832.2 274.933 832.2 291.2C832.2 317.6 825.667 337.733 812.6 351.6C799.667 365.333 780.867 372.2 756.2 372.2ZM945.392 264.6C945.392 247.667 944.526 235.667 942.792 228.6C941.059 221.533 937.859 218 933.192 218C929.192 218 925.926 218.733 923.392 220.2C920.859 221.533 918.992 223.733 917.792 226.8C916.592 229.733 915.792 232.8 915.392 236C915.126 239.067 914.992 243 914.992 247.8V264.6H945.392ZM929.392 372.2C914.459 372.2 901.459 369.933 890.392 365.4C879.459 360.867 870.792 354.533 864.392 346.4C858.126 338.267 853.526 329.133 850.592 319C847.659 308.733 846.192 297.333 846.192 284.8C846.192 254.933 853.792 232.333 868.992 217C884.192 201.667 905.459 194 932.792 194C959.059 194 977.859 200.2 989.192 212.6C1000.53 224.867 1006.19 244.667 1006.19 272V294.2H914.792V298C914.792 305.867 915.592 312.333 917.192 317.4C918.926 322.467 921.392 326.2 924.592 328.6C927.792 331 931.059 332.6 934.392 333.4C937.726 334.2 941.792 334.6 946.592 334.6C951.259 334.6 956.259 334 961.592 332.8C967.059 331.6 972.526 329.733 977.992 327.2C983.592 324.667 988.259 321.667 991.992 318.2L1003.79 338.4C998.859 346.4 991.592 353.133 981.992 358.6C972.526 363.933 963.392 367.533 954.592 369.4C945.792 371.267 937.392 372.2 929.392 372.2ZM1092.46 368H1027.86V238.6L1015.86 231.2V208.6L1058.86 198H1075.06L1080.86 245.6C1086.32 212.933 1103.86 196.6 1133.46 196.6C1136.79 196.6 1140.26 197.2 1143.86 198.4L1137.06 269.6C1134.26 267.067 1128.12 265.8 1118.66 265.8C1105.06 265.8 1096.32 269.4 1092.46 276.6V368ZM1198.49 368L1139.69 198H1211.49L1224.29 259.4L1233.49 312.4L1243.69 259.4L1258.49 198H1312.49L1261.49 368H1198.49ZM1457.56 351.4L1455.76 353.6C1454.56 354.933 1452.42 356.667 1449.36 358.8C1446.42 360.8 1442.82 362.867 1438.56 365C1434.42 367 1428.82 368.667 1421.76 370C1414.82 371.467 1407.36 372.2 1399.36 372.2C1372.29 372.2 1351.56 364.267 1337.16 348.4C1322.89 332.533 1315.76 311.533 1315.76 285.4C1315.76 271.267 1317.96 258.4 1322.36 246.8C1326.76 235.2 1332.76 225.6 1340.36 218C1348.09 210.267 1357.09 204.333 1367.36 200.2C1377.76 195.933 1388.96 193.8 1400.96 193.8C1424.16 193.8 1442.16 199.333 1454.96 210.4C1457.76 213.2 1459.16 214.6 1459.16 214.6L1456.16 261.6L1427.76 261.8L1416.36 231.2C1415.29 230.933 1413.82 230.8 1411.96 230.8C1399.82 230.8 1391.42 235 1386.76 243.4C1382.22 251.667 1379.96 266.067 1379.96 286.6C1379.96 295.533 1380.69 303.2 1382.16 309.6C1383.62 315.867 1385.29 320.6 1387.16 323.8C1389.02 326.867 1391.49 329.267 1394.56 331C1397.76 332.733 1400.36 333.733 1402.36 334C1404.36 334.267 1406.82 334.4 1409.76 334.4C1416.42 334.4 1423.22 333.6 1430.16 332C1437.22 330.4 1443.02 327.8 1447.56 324.2L1457.56 351.4ZM1561.03 436.8C1547.3 436.8 1534.36 434.8 1522.23 430.8C1510.1 426.8 1501.23 421.4 1495.63 414.6L1506.03 393C1513.76 397.4 1526.03 399.6 1542.83 399.6C1548.16 399.6 1552.76 399 1556.63 397.8C1560.5 396.6 1563.96 394.467 1567.03 391.4C1570.1 388.467 1572.43 384.267 1574.03 378.8C1575.63 373.333 1576.5 366.6 1576.63 358.6V341.4L1574.63 344.6C1573.3 346.733 1571.23 349.333 1568.43 352.4C1565.76 355.333 1562.7 358.333 1559.23 361.4C1555.76 364.333 1551.5 366.867 1546.43 369C1541.5 371.133 1536.43 372.2 1531.23 372.2C1511.36 372.2 1497.36 366.667 1489.23 355.6C1481.1 344.4 1477.03 325.6 1477.03 299.2V228.2L1469.83 221V198H1542.63V311.8C1542.63 317.933 1543.56 322.467 1545.43 325.4C1547.43 328.2 1551.36 329.6 1557.23 329.6C1558.96 329.6 1560.7 329.333 1562.43 328.8C1564.16 328.133 1565.83 327.267 1567.43 326.2C1569.16 325.133 1570.96 323.8 1572.83 322.2V228.2L1561.83 221V198H1638.03V344.6C1638.03 374.067 1631.76 396.8 1619.23 412.8C1606.7 428.8 1587.3 436.8 1561.03 436.8Z" fill="white"/>
<defs>
<linearGradient id="paint0_linear_38_16" x1="300" y1="0" x2="300" y2="600" gradientUnits="userSpaceOnUse">
<stop stop-color="#5BA959"/>
<stop offset="1" stop-color="#032123"/>
</linearGradient>
</defs>
</svg>
