<svg width="600" height="600" viewBox="0 0 600 600" fill="none" xmlns="http://www.w3.org/2000/svg">
<path d="M0 300C0 465.685 134.315 600 300 600C465.685 600 600 465.685 600 300C600 134.315 465.685 0 300 0C134.315 0 0 134.315 0 300Z" fill="url(#paint0_linear_259_2)"/>
<path d="M409.695 258.873L476.283 163H392.799L300 298.211H374.625L300 436L488 258.873H409.695Z" fill="#F7F6FA" stroke="black"/>
<path d="M312.863 423.187L468.367 259.584H486.021L312.863 423.187Z" fill="#2B3232" stroke="black"/>
<g clip-path="url(#clip0_259_2)">
<path fill-rule="evenodd" clip-rule="evenodd" d="M284.416 377.614C290.107 397.409 297.798 416.205 300 436L292.045 435.022C279.485 382.68 268.165 347.488 243.619 303.477C225.197 270.507 205.209 244.269 179.577 223.43C165.931 212.321 148.456 200.169 132.732 197.103C128.437 196.259 124.08 196.014 119.614 196.57C168.304 212.543 206.853 249.534 237.649 304.988C250.224 327.604 261.156 352.731 271.205 379.214L252.69 384.057L260.397 378.57L232.826 372.282C243.06 367.106 253.171 368.839 256.411 363.262C228.035 361.418 204.713 352.643 188.338 335.602C194.432 334.38 201.457 333.292 205.116 330.781C177.685 317.496 161.822 293.613 141.695 272.418C167.854 280.282 192.06 278.994 199.069 271.862C152.906 276.772 123.087 258.488 112.868 212.388C111.985 207.411 111.736 202.39 112.295 197.325C115.877 164.377 156.581 153.247 169.824 180.262C172.475 185.661 176.212 190.615 179.298 196.881L166.691 163C200.619 179.418 203.41 197.525 220.964 252.067C219.568 235.471 216.358 220.43 212.187 206.234C254.582 229.673 268.708 288.68 270.972 338.868C272.197 321.361 269.933 299.367 265.56 274.662C277.934 292.435 286.354 313.297 283.346 343.067L289.006 339.446L286.029 355.42L294.495 349.666L284.416 377.614Z" fill="#F7F6FA"/>
<path d="M256.5 363C228.38 356.538 213.539 350.385 188.5 335.5C197.426 343.619 202.747 347.321 212.5 353C229.666 359.457 239.278 362.512 256.5 363Z" fill="#2B3232" stroke="black"/>
<path d="M205 330.5L142 272.5L173.5 307.5C185.384 318.737 192.272 323.689 205 330.5Z" fill="#2B3232" stroke="black"/>
<path d="M198.5 271.5C153.475 261.76 131.85 254.594 112 201.5C112.488 222.972 116.895 230.04 130 250C156.748 277.963 174.653 272.963 198.5 271.5Z" fill="#2B3232" stroke="black"/>
</g>
<defs>
<linearGradient id="paint0_linear_259_2" x1="300" y1="0" x2="300" y2="600" gradientUnits="userSpaceOnUse">
<stop stop-color="#5BA959"/>
<stop offset="1" stop-color="#032123"/>
</linearGradient>
<clipPath id="clip0_259_2">
<rect width="188" height="273" fill="white" transform="matrix(-1 0 0 1 300 163)"/>
</clipPath>
</defs>
</svg>
