<svg width="304" height="182" viewBox="0 0 304 182" fill="none" xmlns="http://www.w3.org/2000/svg">
<path d="M86.4016 66.3996C86.4016 70.0996 86.8016 73.0996 87.5016 75.2996C88.3016 77.4996 89.3016 79.8996 90.7016 82.4996C91.2016 83.2996 91.4016 84.0996 91.4016 84.7996C91.4016 85.7996 90.8016 86.7996 89.5016 87.7996L83.2016 91.9996C82.3016 92.5996 81.4016 92.8996 80.6016 92.8996C79.6016 92.8996 78.6016 92.3996 77.6016 91.4996C76.2016 89.9996 75.0016 88.3996 74.0016 86.7996C73.0016 85.0996 72.0016 83.1996 70.9016 80.8996C63.1016 90.0996 53.3016 94.6996 41.5016 94.6996C33.1016 94.6996 26.4016 92.2996 21.5016 87.4996C16.6016 82.6996 14.1016 76.2996 14.1016 68.2996C14.1016 59.7996 17.1016 52.8996 23.2016 47.6996C29.3016 42.4996 37.4016 39.8996 47.7016 39.8996C51.1016 39.8996 54.6016 40.1996 58.3016 40.6996C62.0016 41.1996 65.8016 41.9996 69.8016 42.8996V35.5996C69.8016 27.9996 68.2016 22.6996 65.1016 19.5996C61.9016 16.4996 56.5016 14.9996 48.8016 14.9996C45.3016 14.9996 41.7016 15.3996 38.0016 16.2996C34.3016 17.1996 30.7016 18.2996 27.2016 19.6996C25.6016 20.3996 24.4016 20.7996 23.7016 20.9996C23.0016 21.1996 22.5016 21.2996 22.1016 21.2996C20.7016 21.2996 20.0016 20.2996 20.0016 18.1996V13.2996C20.0016 11.6996 20.2016 10.4996 20.7016 9.79961C21.2016 9.09961 22.1016 8.39961 23.5016 7.69961C27.0016 5.89961 31.2016 4.39961 36.1016 3.19961C41.0016 1.89961 46.2016 1.29961 51.7016 1.29961C63.6016 1.29961 72.3016 3.99961 77.9016 9.39961C83.4016 14.7996 86.2016 22.9996 86.2016 33.9996V66.3996H86.4016ZM45.8016 81.5996C49.1016 81.5996 52.5016 80.9996 56.1016 79.7996C59.7016 78.5996 62.9016 76.3996 65.6016 73.3996C67.2016 71.4996 68.4016 69.3996 69.0016 66.9996C69.6016 64.5996 70.0016 61.6996 70.0016 58.2996V54.0996C67.1016 53.3996 64.0016 52.7996 60.8016 52.3996C57.6016 51.9996 54.5016 51.7996 51.4016 51.7996C44.7016 51.7996 39.8016 53.0996 36.5016 55.7996C33.2016 58.4996 31.6016 62.2996 31.6016 67.2996C31.6016 71.9996 32.8016 75.4996 35.3016 77.8996C37.7016 80.3996 41.2016 81.5996 45.8016 81.5996ZM126.102 92.3996C124.302 92.3996 123.102 92.0996 122.302 91.3996C121.502 90.7996 120.802 89.3996 120.202 87.4996L96.7016 10.1996C96.1016 8.19961 95.8016 6.89961 95.8016 6.19961C95.8016 4.59961 96.6016 3.69961 98.2016 3.69961H108.002C109.902 3.69961 111.202 3.99961 111.902 4.69961C112.702 5.29961 113.302 6.69961 113.902 8.59961L130.702 74.7996L146.302 8.59961C146.802 6.59961 147.402 5.29961 148.202 4.69961C149.002 4.09961 150.402 3.69961 152.202 3.69961H160.202C162.102 3.69961 163.402 3.99961 164.202 4.69961C165.002 5.29961 165.702 6.69961 166.102 8.59961L181.902 75.5996L199.202 8.59961C199.802 6.59961 200.502 5.29961 201.202 4.69961C202.002 4.09961 203.302 3.69961 205.102 3.69961H214.402C216.002 3.69961 216.902 4.49961 216.902 6.19961C216.902 6.69961 216.802 7.19961 216.702 7.79961C216.602 8.39961 216.402 9.19961 216.002 10.2996L191.902 87.5996C191.302 89.5996 190.602 90.8996 189.802 91.4996C189.002 92.0996 187.702 92.4996 186.002 92.4996H177.402C175.502 92.4996 174.202 92.1996 173.402 91.4996C172.602 90.7996 171.902 89.4996 171.502 87.4996L156.002 22.9996L140.602 87.3996C140.102 89.3996 139.502 90.6996 138.702 91.3996C137.902 92.0996 136.502 92.3996 134.702 92.3996H126.102ZM254.602 95.0996C249.402 95.0996 244.202 94.4996 239.202 93.2996C234.202 92.0996 230.302 90.7996 227.702 89.2996C226.102 88.3996 225.002 87.3996 224.602 86.4996C224.202 85.5996 224.002 84.5996 224.002 83.6996V78.5996C224.002 76.4996 224.802 75.4996 226.302 75.4996C226.902 75.4996 227.502 75.5996 228.102 75.7996C228.702 75.9996 229.602 76.3996 230.602 76.7996C234.002 78.2996 237.702 79.4996 241.602 80.2996C245.602 81.0996 249.502 81.4996 253.502 81.4996C259.802 81.4996 264.702 80.3996 268.102 78.1996C271.502 75.9996 273.302 72.7996 273.302 68.6996C273.302 65.8996 272.402 63.5996 270.602 61.6996C268.802 59.7996 265.402 58.0996 260.502 56.4996L246.002 51.9996C238.702 49.6996 233.302 46.2996 230.002 41.7996C226.702 37.3996 225.002 32.4996 225.002 27.2996C225.002 23.0996 225.902 19.3996 227.702 16.1996C229.502 12.9996 231.902 10.1996 234.902 7.99961C237.902 5.69961 241.302 3.99961 245.302 2.79961C249.302 1.59961 253.502 1.09961 257.902 1.09961C260.102 1.09961 262.402 1.19961 264.602 1.49961C266.902 1.79961 269.002 2.19961 271.102 2.59961C273.102 3.09961 275.002 3.59961 276.802 4.19961C278.602 4.79961 280.002 5.39961 281.002 5.99961C282.402 6.79961 283.402 7.59961 284.002 8.49961C284.602 9.29961 284.902 10.3996 284.902 11.7996V16.4996C284.902 18.5996 284.102 19.6996 282.602 19.6996C281.802 19.6996 280.502 19.2996 278.802 18.4996C273.102 15.8996 266.702 14.5996 259.602 14.5996C253.902 14.5996 249.402 15.4996 246.302 17.3996C243.202 19.2996 241.602 22.1996 241.602 26.2996C241.602 29.0996 242.602 31.4996 244.602 33.3996C246.602 35.2996 250.302 37.1996 255.602 38.8996L269.802 43.3996C277.002 45.6996 282.202 48.8996 285.302 52.9996C288.402 57.0996 289.902 61.7996 289.902 66.9996C289.902 71.2996 289.002 75.1996 287.302 78.5996C285.502 81.9996 283.102 84.9996 280.002 87.3996C276.902 89.8996 273.202 91.6996 268.902 92.9996C264.402 94.3996 259.702 95.0996 254.602 95.0996Z" fill="#F7F6FA"/>
<path fill-rule="evenodd" clip-rule="evenodd" d="M273.5 143.7C240.6 168 192.8 180.9 151.7 180.9C94.1 180.9 42.2 159.6 2.99999 124.2C-0.100014 121.4 2.69999 117.6 6.39999 119.8C48.8 144.4 101.1 159.3 155.2 159.3C191.7 159.3 231.8 151.7 268.7 136.1C274.2 133.6 278.9 139.7 273.5 143.7Z" fill="#F7F6FA"/>
<path fill-rule="evenodd" clip-rule="evenodd" d="M287.202 128.099C283.002 122.699 259.402 125.499 248.702 126.799C245.502 127.199 245.002 124.399 247.902 122.299C266.702 109.099 297.602 112.899 301.202 117.299C304.802 121.799 300.202 152.699 282.602 167.499C279.902 169.799 277.302 168.599 278.502 165.599C282.502 155.699 291.402 133.399 287.202 128.099Z" fill="#F7F6FA"/>
</svg>
