<svg width="82" height="83" viewBox="0 0 82 83" fill="none" xmlns="http://www.w3.org/2000/svg">
<path d="M40.9686 80.6269C62.5078 80.6269 79.9372 63.0081 79.9372 41.3134C79.9372 19.6188 62.5078 2 40.9686 2C19.4294 2 2 19.6188 2 41.3134C2 63.0081 19.4294 80.6269 40.9686 80.6269Z" fill="#FBE200" stroke="#032123" stroke-width="4"/>
<path d="M11.3764 26.6184C12.8205 26.7399 14.0841 26.8127 15.1671 26.837C16.2743 26.8613 17.2129 26.8734 17.9831 26.8734C18.8736 26.8734 19.6438 26.8491 20.2936 26.8005C20.9676 26.7277 21.846 26.6305 22.9291 26.509C23.8436 26.3875 25.023 26.2297 26.4671 26.0353C27.9111 25.8167 29.6681 25.5373 31.738 25.1972C31.4733 25.6102 31.2446 26.0475 31.0521 26.509C30.8836 26.9463 30.7392 27.3472 30.6189 27.7115C30.4985 28.1488 30.3902 28.5739 30.2939 28.9869C30.2217 29.4484 30.1375 30.0193 30.0412 30.6995C29.9449 31.2825 29.8246 32.0234 29.6802 32.9223C29.5599 33.7968 29.4034 34.8414 29.2109 36.0561C28.4888 34.1612 27.7548 32.7037 27.0086 31.6834C26.2866 30.6631 25.6127 29.91 24.9869 29.4242C24.2649 28.8655 23.5789 28.5496 22.9291 28.4767C21.9904 28.4767 21.2203 28.659 20.6186 29.0233C20.0169 29.3877 19.5234 29.8614 19.1384 30.4444C18.7773 31.0031 18.5006 31.6226 18.308 32.3028C18.1154 32.9587 17.9831 33.6025 17.9109 34.2341C17.8387 34.8414 17.7906 35.388 17.7665 35.8738C17.7424 36.3354 17.7183 36.6512 17.6943 36.8213C18.5367 36.7727 19.2467 36.7119 19.8243 36.639C20.4019 36.5662 20.8592 36.4933 21.1962 36.4205C21.6053 36.3233 21.9303 36.2261 22.171 36.1289C22.532 35.9346 22.893 35.7038 23.254 35.4366C23.5669 35.1937 23.8918 34.9022 24.2288 34.562C24.5898 34.2219 24.9026 33.809 25.1674 33.3231C25.023 34.1976 24.8907 34.9264 24.7703 35.5095C24.674 36.0925 24.5898 36.554 24.5176 36.8941C24.4213 37.3071 24.3611 37.6229 24.3371 37.8416C24.289 38.0602 24.2288 38.3638 24.1565 38.7525C24.0844 39.0926 24.0001 39.5299 23.9038 40.0643C23.8076 40.5987 23.6992 41.2668 23.5789 42.0684C23.2901 41.5583 22.9892 41.1453 22.6764 40.8296C22.3635 40.4894 22.0747 40.2222 21.8099 40.0278C21.497 39.8093 21.1962 39.6392 20.9074 39.5178C20.5945 39.4205 20.2575 39.3234 19.8965 39.2262C19.5836 39.1534 19.2106 39.0805 18.7773 39.0076C18.3682 38.9104 17.9229 38.8254 17.4416 38.7525C17.4897 40.0643 17.5619 41.1939 17.6582 42.1413C17.7545 43.0645 17.8387 43.8418 17.9109 44.4734C18.0072 45.2022 18.1035 45.8095 18.1997 46.2954C18.32 46.7812 18.5126 47.3035 18.7773 47.8622C18.994 48.3481 19.2948 48.9068 19.6799 49.5384C20.089 50.1458 20.6065 50.8017 21.2323 51.5061C20.7509 51.3846 20.2455 51.2996 19.716 51.2511C19.1865 51.2025 18.7171 51.1661 18.308 51.1417C17.8026 51.1175 17.3212 51.1175 16.8639 51.1417C16.3826 51.1661 15.853 51.2146 15.2754 51.2875C14.7941 51.336 14.2405 51.409 13.6147 51.5061C12.989 51.6033 12.3271 51.7126 11.6292 51.8341C12.0382 51.4211 12.3753 51.0081 12.6399 50.5952C12.9047 50.1822 13.0972 49.8178 13.2176 49.502C13.362 49.1376 13.4583 48.7854 13.5064 48.4452C13.5305 48.1537 13.5425 47.5222 13.5425 46.5505C13.5425 45.5544 13.5305 44.4005 13.5064 43.0887C13.4824 41.7526 13.4462 40.3437 13.3981 38.8618C13.35 37.38 13.3018 35.9953 13.2537 34.7078C13.2056 33.396 13.1454 32.2785 13.0732 31.3554C13.0251 30.4323 12.9649 29.8736 12.8927 29.6793C12.7964 29.4363 12.6882 29.157 12.5678 28.8411C12.3753 28.331 11.9781 27.5901 11.3764 26.6184ZM28.9943 25.1608C30.6068 25.3552 32.0028 25.5009 33.1821 25.5981C34.3614 25.671 35.3362 25.7317 36.1063 25.7802C36.9969 25.8289 37.743 25.841 38.3447 25.8167C38.9704 25.7924 39.8249 25.7317 40.908 25.6345C41.8225 25.5617 43.026 25.4645 44.5182 25.343C46.0104 25.1972 47.8757 25.0029 50.114 24.76C50.1381 25.3187 50.1501 25.8653 50.1501 26.3997C50.1741 26.9099 50.1982 27.3593 50.2223 27.748C50.2464 28.2096 50.2584 28.6346 50.2584 29.0233C50.2584 29.4363 50.2343 29.9586 50.1862 30.5902C50.1381 31.1246 50.0538 31.8049 49.9335 32.6308C49.8372 33.4325 49.6808 34.392 49.4641 35.5095C49.1272 34.1976 48.8023 33.1409 48.4894 32.3393C48.1765 31.5133 47.8877 30.8574 47.6229 30.3716C47.3341 29.8128 47.0453 29.3877 46.7565 29.0962C46.4436 28.8775 46.0706 28.6954 45.6374 28.5496C45.2522 28.4281 44.7588 28.331 44.1571 28.2581C43.5795 28.1852 42.8936 28.1974 42.0993 28.2946C41.9789 31.5012 41.8947 34.1005 41.8466 36.0925C41.7985 38.0845 41.7624 39.6392 41.7383 40.7566C41.7143 42.0928 41.7022 43.0523 41.7022 43.6353C41.7262 44.4613 41.8587 45.2751 42.0993 46.0767C42.2919 46.7569 42.6048 47.4614 43.038 48.1902C43.4712 48.919 44.097 49.5627 44.9153 50.1214H40.5109C40.1017 50.1214 39.5963 50.1458 38.9945 50.1943C38.4891 50.2429 37.8393 50.2915 37.045 50.3401C36.2748 50.3887 35.3723 50.4737 34.3373 50.5952C34.6984 49.9635 34.9872 49.3927 35.2038 48.8825C35.4204 48.3724 35.5889 47.9351 35.7092 47.5708C35.8536 47.1334 35.9619 46.7448 36.0342 46.4047C36.0582 45.9188 36.1184 44.935 36.2147 43.4531C36.2388 42.8458 36.2628 42.0928 36.2869 41.1939C36.335 40.2951 36.3832 39.2262 36.4313 37.9873C36.5035 36.7484 36.5636 35.3272 36.6118 33.724C36.684 32.0964 36.7562 30.2622 36.8284 28.2217C36.3952 28.1002 35.986 28.1123 35.6009 28.2581C35.2158 28.3796 34.8789 28.5375 34.59 28.7318C34.2531 28.9747 33.9282 29.2663 33.6153 29.6064C33.3024 30.0193 32.9534 30.5537 32.5684 31.2096C32.2314 31.7684 31.8463 32.5093 31.4131 33.4325C30.9798 34.3313 30.4865 35.4487 29.9329 36.7848C29.8126 35.3758 29.7283 34.2219 29.6802 33.3231C29.632 32.4 29.596 31.6834 29.5718 31.1732C29.5478 30.5659 29.5358 30.1165 29.5358 29.825C29.5358 29.5578 29.5117 29.2055 29.4636 28.7683C29.4154 28.4039 29.3553 27.9302 29.2831 27.3472C29.2109 26.7399 29.1145 26.0111 28.9943 25.1608ZM48.0561 25.8896C48.8986 25.9867 49.6085 26.0596 50.1862 26.1082C50.7638 26.1325 51.2211 26.1568 51.5581 26.1811C51.9673 26.2054 52.2921 26.2175 52.5328 26.2175C52.942 26.2175 53.4113 26.2054 53.9408 26.1811C54.3981 26.1568 54.9276 26.1204 55.5293 26.0718C56.1551 25.9989 56.829 25.8896 57.551 25.7438C57.2141 26.1082 56.9373 26.4605 56.7207 26.8005C56.5041 27.1164 56.3356 27.4078 56.2153 27.6751C56.0709 27.9666 55.9505 28.2338 55.8542 28.4767C55.7579 28.7925 55.6496 29.2784 55.5293 29.9343C55.409 30.4931 55.2766 31.2825 55.1321 32.3028C55.0118 33.3231 54.8554 34.6592 54.6629 36.3111C55.4812 36.3354 56.1911 36.3475 56.7928 36.3475C57.3945 36.3233 57.9 36.3111 58.3092 36.3111H59.5006C59.8375 36.2868 60.2226 36.2625 60.6558 36.2382C61.3778 36.214 62.4729 36.1411 63.9411 36.0196C64.0615 34.9022 64.1216 33.9425 64.1216 33.1409C64.1457 32.315 64.1336 31.6226 64.0855 31.0639C64.0374 30.4323 63.9652 29.8978 63.8689 29.4606C63.7967 29.2177 63.6884 28.9261 63.544 28.5861C63.4236 28.2946 63.2552 27.9423 63.0385 27.5293C62.846 27.0921 62.5812 26.5698 62.2443 25.9625C62.87 26.0596 63.4236 26.1325 63.905 26.1811C64.4104 26.2054 64.8316 26.2297 65.1686 26.254C65.5537 26.2783 65.8786 26.2904 66.1433 26.2904C66.4081 26.2904 66.7571 26.2783 67.1903 26.254C67.5513 26.2297 67.9965 26.2175 68.5261 26.2175C69.0555 26.1932 69.7054 26.1568 70.4756 26.1082C70.2831 26.4483 70.1145 26.8005 69.9701 27.1649C69.8257 27.5293 69.7054 27.8573 69.6091 28.1488C69.5128 28.4889 69.4166 28.829 69.3203 29.1691C69.1999 29.6793 69.0917 30.4202 68.9954 31.3919C68.9232 32.3636 68.851 33.4446 68.7788 34.6349C68.7307 35.8252 68.6825 37.0642 68.6344 38.3517C68.6103 39.6392 68.5863 40.8538 68.5622 41.9956C68.5622 43.1373 68.5742 44.1576 68.5982 45.0564C68.6223 45.931 68.6705 46.5505 68.7427 46.9149C68.8149 47.3521 68.9352 47.8015 69.1037 48.2631C69.2481 48.6761 69.4407 49.1255 69.6813 49.6113C69.922 50.0728 70.2349 50.5102 70.62 50.9231L61.9194 51.579C62.2804 51.2389 62.5692 50.911 62.7858 50.5952C63.0025 50.2551 63.1709 49.9635 63.2913 49.7206C63.4116 49.4534 63.4958 49.1984 63.544 48.9554C63.5681 48.6639 63.6042 48.1537 63.6523 47.425C63.7004 46.8177 63.7486 45.9553 63.7967 44.8378C63.8448 43.7204 63.893 42.2385 63.9411 40.3922C63.6042 40.3922 63.195 40.4044 62.7137 40.4287C62.2564 40.4287 61.8231 40.4408 61.4139 40.4652C60.9326 40.4894 60.4272 40.5016 59.8977 40.5016C59.3682 40.5259 58.8146 40.5502 58.237 40.5745C57.7556 40.6231 57.2141 40.6717 56.6124 40.7202C56.0348 40.7445 55.4571 40.781 54.8795 40.8296C54.8313 41.8499 54.8313 42.7487 54.8795 43.526C54.9276 44.2791 54.9998 44.9228 55.0961 45.4572C55.1923 46.0889 55.3127 46.6355 55.4571 47.097C55.6015 47.5343 55.7579 47.9716 55.9265 48.4088C56.0709 48.7975 56.2393 49.2105 56.4319 49.6478C56.6484 50.085 56.8651 50.4737 57.0817 50.8138C56.6244 50.7652 56.2032 50.7287 55.8181 50.7045C55.4331 50.6559 55.0961 50.6073 54.8073 50.5587C54.4703 50.5344 54.1454 50.5102 53.8325 50.4858C53.5197 50.4858 53.1466 50.4737 52.7134 50.4494C52.3282 50.4251 51.8469 50.413 51.2692 50.413C50.6916 50.3887 50.0177 50.3765 49.2476 50.3765C49.7049 49.9149 50.0658 49.4655 50.3306 49.0283C50.6194 48.5667 50.824 48.1537 50.9443 47.7893C51.0887 47.3521 51.185 46.9513 51.2331 46.5869C51.2572 46.2711 51.2692 45.6759 51.2692 44.8013C51.2933 43.9269 51.2933 42.9308 51.2692 41.8134C51.2692 40.6716 51.2572 39.4813 51.2331 38.2424C51.2091 36.9792 51.173 35.801 51.1248 34.7078C51.1008 33.6146 51.0646 32.6793 51.0165 31.902C50.9925 31.1004 50.9684 30.6023 50.9443 30.408C50.824 29.9708 50.6435 29.497 50.4028 28.9869C50.1862 28.5739 49.8974 28.1002 49.5364 27.5658C49.1753 27.007 48.6819 26.4483 48.0561 25.8896Z" fill="#3E83DE"/>
<path d="M22.4236 55.1691C22.7606 55.1691 23.0639 55.2274 23.3334 55.344C23.6125 55.4509 23.8677 55.5724 24.0988 55.7084C24.3394 55.8445 24.5657 55.9708 24.7775 56.0874C24.9893 56.1943 25.2059 56.2477 25.4273 56.2477C25.6006 56.238 25.798 56.2137 26.0193 56.1749C26.212 56.136 26.4333 56.0777 26.6837 55.9999C26.9436 55.9125 27.2324 55.7861 27.5501 55.621C27.2324 55.9319 26.9725 56.1943 26.7703 56.4081C26.5778 56.6121 26.4285 56.7822 26.3226 56.9182C26.1975 57.0737 26.106 57.1951 26.0483 57.2826C25.9905 57.3895 25.9039 57.5498 25.7884 57.7636C25.6824 57.9579 25.538 58.2202 25.3551 58.5507C25.1722 58.8713 24.9411 59.294 24.6619 59.8187C24.6619 59.1482 24.5946 58.6284 24.4598 58.2591C24.3346 57.8899 24.195 57.6081 24.041 57.4137C23.8581 57.1902 23.6511 57.0493 23.42 56.9911C23.2083 56.962 22.9964 57.0008 22.7846 57.1077C22.5728 57.2049 22.361 57.3506 22.1493 57.5449C21.947 57.7393 21.7497 57.9725 21.5572 58.2446C21.3742 58.507 21.2057 58.7839 21.0517 59.0754C20.9073 59.3669 20.787 59.6632 20.6907 59.9645C20.5944 60.256 20.5319 60.5281 20.503 60.7807C20.4741 61.0042 20.4693 61.2666 20.4886 61.5678C20.5078 61.8593 20.5511 62.1605 20.6185 62.4715C20.6859 62.7727 20.7725 63.069 20.8784 63.3606C20.9844 63.6521 21.1143 63.9145 21.2684 64.1477C21.432 64.3711 21.6149 64.5558 21.8171 64.7015C22.0193 64.8376 22.2503 64.9008 22.5103 64.8911C22.7991 64.8716 23.0831 64.7841 23.3623 64.6287C23.6029 64.5023 23.8485 64.308 24.0988 64.0456C24.349 63.7736 24.5657 63.3897 24.7486 62.8942L26.8858 63.2877C26.2697 64.0456 25.668 64.6141 25.0807 64.9931C24.5031 65.372 23.9832 65.6393 23.5211 65.7947C22.982 65.9696 22.4718 66.0522 21.9904 66.0425C21.3839 65.9745 20.8159 65.7899 20.2863 65.4886C19.7569 65.1874 19.2996 64.823 18.9145 64.3955C18.5391 63.9582 18.2454 63.482 18.0336 62.967C17.8218 62.452 17.7303 61.9467 17.7592 61.4512C17.7785 61.1208 17.8459 60.737 17.9614 60.2997C18.0769 59.8527 18.231 59.3961 18.4235 58.9296C18.6256 58.4632 18.8664 58.0065 19.1456 57.5595C19.4247 57.1126 19.7328 56.7141 20.0698 56.3643C20.4067 56.0048 20.7725 55.7182 21.1673 55.5043C21.5716 55.2808 21.9904 55.1691 22.4236 55.1691ZM28.1133 60.0373C28.1615 59.979 28.1903 59.8722 28.2 59.7167C28.2192 59.5515 28.2577 59.3669 28.3155 59.1629C28.3829 58.9587 28.4936 58.745 28.6476 58.5215C28.8017 58.298 29.052 58.0891 29.3986 57.8948C29.7355 57.7004 30.0628 57.5838 30.3805 57.5449C30.6982 57.5061 31.0015 57.5206 31.2903 57.5887C31.5791 57.6567 31.8487 57.7636 32.099 57.9093C32.3589 58.0551 32.5948 58.2154 32.8066 58.3903C32.951 58.507 33.0665 58.677 33.1532 58.9005C33.2398 59.1143 33.3072 59.3572 33.3553 59.6293C33.4034 59.9014 33.4372 60.188 33.4564 60.4892C33.4853 60.7807 33.5045 61.0674 33.5142 61.3492C33.5238 61.6212 33.5286 61.8739 33.5286 62.1071C33.5382 62.3306 33.5575 62.5152 33.5864 62.661C33.6249 62.8747 33.6923 63.0593 33.7886 63.2149C33.8849 63.3606 33.9907 63.4869 34.1063 63.5938C34.2218 63.691 34.3373 63.7687 34.4528 63.827C34.5684 63.8853 34.6695 63.929 34.7561 63.9582C34.8139 63.9873 34.8668 64.0068 34.9149 64.0165C35.0112 64.0554 35.0786 64.0554 35.1171 64.0165C35.0593 64.1526 35.0064 64.2691 34.9583 64.3663C34.9101 64.4634 34.8716 64.5461 34.8427 64.6141C34.8043 64.6918 34.7705 64.755 34.7416 64.8036C34.7128 64.8619 34.6791 64.9153 34.6406 64.9639C34.6117 65.0125 34.5732 65.0659 34.5251 65.1242C34.4769 65.1826 34.4287 65.2457 34.3806 65.3137C34.2555 65.2652 34.1351 65.2068 34.0196 65.1388C33.9137 65.0708 33.8174 65.0076 33.7308 64.9493C33.6249 64.8813 33.5286 64.8133 33.442 64.7452C33.3553 64.6773 33.2735 64.5995 33.1965 64.512C33.1291 64.4343 33.0569 64.3517 32.9799 64.2643C32.9125 64.1768 32.8547 64.0796 32.8066 63.9728C32.7488 64.0991 32.6092 64.2788 32.3878 64.512C32.176 64.7452 31.8968 64.959 31.5502 65.1534C31.2037 65.338 30.7993 65.4692 30.3372 65.547C29.8847 65.6246 29.3841 65.5712 28.8353 65.3866C28.5947 65.3088 28.3684 65.1971 28.1566 65.0514C27.9448 64.8959 27.7619 64.7113 27.6079 64.4975C27.4635 64.2837 27.3575 64.0408 27.2902 63.7687C27.2324 63.4869 27.2372 63.176 27.3046 62.8358C27.372 62.4958 27.4923 62.2091 27.6656 61.9759C27.8389 61.7427 28.0459 61.5532 28.2866 61.4075C28.5273 61.2617 28.7969 61.1499 29.0953 61.0723C29.3938 60.9945 29.7018 60.9411 30.0195 60.9119C30.2698 60.9022 30.5201 60.9167 30.7704 60.9556C30.9822 60.9945 31.2037 61.0674 31.4347 61.1743C31.6658 61.2714 31.8631 61.422 32.0267 61.6261C32.0171 61.1111 31.9979 60.703 31.969 60.4017C31.9498 60.0908 31.9305 59.8527 31.9113 59.6876C31.8727 59.4932 31.839 59.3572 31.8102 59.2794C31.762 59.2114 31.7091 59.1337 31.6513 59.0462C31.6032 58.9587 31.5406 58.8811 31.4636 58.813C31.3866 58.7353 31.2903 58.6721 31.1748 58.6235C31.0593 58.5749 30.9245 58.5555 30.7704 58.5652C30.6068 58.5749 30.4768 58.6187 30.3805 58.6964C30.2843 58.7741 30.2072 58.8664 30.1495 58.9734C30.1013 59.0705 30.0724 59.1774 30.0628 59.294C30.0532 59.4106 30.058 59.5126 30.0772 59.6001C30.0965 59.6584 30.1254 59.7216 30.1639 59.7896C30.2024 59.8478 30.2554 59.9111 30.3228 59.979C30.3901 60.0471 30.4816 60.1054 30.5972 60.154C30.3757 60.1832 30.1783 60.2074 30.0051 60.2269C29.8318 60.2366 29.6826 60.2511 29.5574 60.2705C29.413 60.29 29.2878 60.3046 29.1819 60.3143C29.0761 60.324 28.9509 60.3434 28.8065 60.3726C28.6813 60.392 28.5273 60.4164 28.3444 60.4455C28.1615 60.4746 27.9496 60.5135 27.709 60.5621C27.7667 60.494 27.8196 60.4309 27.8678 60.3726C27.916 60.3046 27.9592 60.2463 27.9978 60.1977C28.0363 60.1394 28.0748 60.0859 28.1133 60.0373ZM30.2795 61.7719C30.1061 61.7816 29.9328 61.8253 29.7595 61.903C29.5863 61.9711 29.4322 62.0731 29.2974 62.2091C29.1627 62.3355 29.0471 62.4861 28.9509 62.661C28.8642 62.8261 28.8209 63.0108 28.8209 63.2149C28.8209 63.4189 28.869 63.5987 28.9653 63.7541C29.0712 63.8999 29.206 64.0214 29.3697 64.1185C29.543 64.2157 29.7259 64.274 29.9184 64.2934C30.1206 64.3129 30.318 64.2934 30.5105 64.2351C30.6934 64.1671 30.8667 64.0602 31.0304 63.9145C31.194 63.759 31.3337 63.5938 31.4491 63.4189C31.5646 63.2343 31.6465 63.0545 31.6946 62.8796C31.7427 62.6949 31.7476 62.5443 31.7091 62.4278C31.6321 62.1751 31.4588 62.0002 31.1892 61.903C30.9197 61.7961 30.6164 61.7524 30.2795 61.7719ZM34.5395 59.1482C34.8476 59.0996 35.0979 59.0608 35.2904 59.0317C35.4926 58.9928 35.6562 58.9636 35.7814 58.9442C35.9258 58.915 36.0365 58.8908 36.1135 58.8713C36.1906 58.8519 36.3013 58.8227 36.4457 58.7839C36.5708 58.745 36.7345 58.7013 36.9367 58.6527C37.1388 58.5943 37.394 58.5167 37.702 58.4195C37.625 58.5167 37.5624 58.6041 37.5143 58.6818C37.4758 58.7499 37.4373 58.8081 37.3988 58.8567C37.3603 58.915 37.3266 58.9685 37.2977 59.0171C37.2688 59.0657 37.2399 59.1385 37.2111 59.2357C37.1918 59.3134 37.1677 59.4252 37.1388 59.5709C37.1099 59.707 37.0859 59.8867 37.0667 60.1102C37.5865 59.7799 38.063 59.5321 38.4962 59.3669C38.9391 59.2017 39.3242 59.0851 39.6516 59.0171C40.0366 58.9393 40.3832 58.9102 40.6913 58.9296C41.0764 58.9587 41.4326 59.0462 41.7599 59.192C42.0968 59.328 42.4001 59.4932 42.6697 59.6876C42.9393 59.8819 43.1751 60.0957 43.3773 60.3289C43.5794 60.5621 43.7383 60.7953 43.8538 61.0285C43.9308 61.184 43.979 61.4075 43.9983 61.699C44.0271 61.9905 43.9983 62.3014 43.9116 62.6318C43.825 62.9622 43.6709 63.2877 43.4495 63.6084C43.2377 63.9193 42.9345 64.1671 42.5397 64.3517C41.8562 64.6627 41.1775 64.8376 40.5036 64.8764C40.2148 64.8959 39.9163 64.8861 39.6083 64.8473C39.3098 64.8084 39.0066 64.7258 38.6985 64.5995C38.4 64.4732 38.1112 64.2934 37.832 64.0602C37.5528 63.8173 37.2977 63.5064 37.0667 63.1274C36.9896 63.6229 36.9319 64.0554 36.8934 64.4246C36.8644 64.7841 36.8452 65.0854 36.8356 65.3283C36.8259 65.6101 36.8259 65.8482 36.8356 66.0425C36.8548 66.2368 36.8934 66.4458 36.9511 66.6693C36.9992 66.8636 37.0667 67.0871 37.1532 67.3397C37.2496 67.6021 37.3699 67.8741 37.5143 68.156C37.4565 68.1365 37.3747 68.122 37.2688 68.1123C37.1725 68.1123 37.0715 68.122 36.9655 68.1414C36.85 68.1608 36.7201 68.1802 36.5757 68.1996C36.4409 68.2288 36.2917 68.2629 36.128 68.3017C35.9932 68.3308 35.8344 68.3649 35.6514 68.4037C35.4781 68.4523 35.3 68.5058 35.1171 68.564C35.223 68.4378 35.3048 68.292 35.3626 68.1268C35.43 67.9714 35.4829 67.8255 35.5215 67.6896C35.56 67.5243 35.5937 67.3591 35.6225 67.194C35.6322 67.0482 35.6466 66.7713 35.6659 66.3631C35.6948 65.9648 35.7188 65.5032 35.7381 64.9784C35.7573 64.444 35.7718 63.8853 35.7814 63.3023C35.8006 62.7193 35.8103 62.1799 35.8103 61.6844C35.8199 61.1791 35.8199 60.7516 35.8103 60.4017C35.8006 60.052 35.7814 59.8478 35.7525 59.7896C35.714 59.7216 35.6418 59.6487 35.5359 59.5709C35.4493 59.5029 35.3241 59.4349 35.1604 59.3669C35.0064 59.2989 34.7994 59.226 34.5395 59.1482ZM37.9764 61.801C37.909 62.0245 37.8945 62.2432 37.9331 62.4569C37.9716 62.6707 38.0678 62.8699 38.2219 63.0545C38.3856 63.2391 38.6118 63.4043 38.9006 63.5501C39.1991 63.6861 39.5697 63.7882 40.0125 63.8561C40.4554 63.9242 40.7924 63.9145 41.0234 63.827C41.2545 63.7396 41.423 63.6035 41.5288 63.4189C41.6444 63.2246 41.7214 63.0011 41.7599 62.7484C41.7984 62.4861 41.8466 62.214 41.9043 61.9322C41.9621 61.6601 41.9524 61.3832 41.8755 61.1014C41.7984 60.8099 41.6877 60.5475 41.5433 60.3143C41.4086 60.0811 41.2545 59.8916 41.0812 59.7458C40.9175 59.5904 40.7731 59.5126 40.648 59.5126C40.3495 59.5126 40.0559 59.5904 39.7671 59.7458C39.4783 59.9014 39.2135 60.0957 38.9728 60.3289C38.7322 60.5621 38.5203 60.8147 38.3374 61.0868C38.1641 61.3492 38.0438 61.5873 37.9764 61.801ZM44.5903 59.4252L47.2474 59.4543C47.0934 60.0471 46.9779 60.5523 46.9008 60.9702C46.8335 61.388 46.7901 61.7379 46.7709 62.0196C46.7324 62.3403 46.7228 62.6124 46.742 62.8358C46.7709 63.0399 46.8191 63.2585 46.8864 63.4918C46.9442 63.6861 47.0308 63.9096 47.1464 64.1623C47.2619 64.4149 47.4159 64.6676 47.6085 64.9202C47.4929 64.8813 47.3677 64.8522 47.233 64.8327C47.0982 64.8133 46.9731 64.7987 46.8575 64.789C46.7228 64.7793 46.588 64.7793 46.4532 64.789C46.3184 64.7987 46.1692 64.8133 46.0055 64.8327C45.8707 64.8522 45.7071 64.8764 45.5145 64.9056C45.322 64.9347 45.1198 64.9736 44.908 65.0222C45.0524 64.5849 45.1632 64.206 45.2401 63.8853C45.3268 63.5646 45.3894 63.2974 45.4279 63.0837C45.4664 62.831 45.4905 62.627 45.5001 62.4715C45.5001 62.2771 45.5001 62.0585 45.5001 61.8156C45.5001 61.5629 45.5001 61.32 45.5001 61.0868C45.5001 60.8536 45.4953 60.6496 45.4857 60.4746C45.4761 60.29 45.4568 60.1734 45.4279 60.1248L45.2835 59.979C45.2257 59.9305 45.1391 59.8625 45.0236 59.775C44.9176 59.6778 44.7732 59.5612 44.5903 59.4252ZM45.6156 57.1805C45.8178 57.0737 46.0199 57.0445 46.2222 57.0931C46.4339 57.1417 46.5976 57.234 46.7131 57.37C46.8287 57.5061 46.8672 57.6664 46.8287 57.8511C46.7998 58.0357 46.6457 58.2154 46.3666 58.3903C46.0874 58.5555 45.8418 58.6138 45.6301 58.5652C45.4182 58.5167 45.269 58.4146 45.1824 58.2591C45.0957 58.1037 45.0813 57.9239 45.1391 57.7199C45.1969 57.5061 45.3557 57.3263 45.6156 57.1805ZM47.955 56.7578C48.2438 56.787 48.4846 56.8113 48.6771 56.8308C48.8792 56.8502 49.0429 56.8647 49.168 56.8745C49.3125 56.8842 49.428 56.889 49.5147 56.889C49.6013 56.8987 49.7168 56.8987 49.8612 56.889C49.9864 56.8793 50.1501 56.8696 50.3522 56.8599C50.5544 56.8405 50.8095 56.8113 51.1176 56.7724C51.0502 56.8696 50.9972 56.957 50.9587 57.0348C50.9202 57.1029 50.8866 57.166 50.8576 57.2243L50.771 57.3992C50.7518 57.4575 50.7325 57.5158 50.7132 57.5741C50.6939 57.6227 50.6747 57.681 50.6555 57.749C50.6458 57.817 50.6362 57.8899 50.6266 57.9676H52.8505L52.6483 59.1482L50.6122 59.0317C50.564 59.5272 50.5303 59.9111 50.511 60.1832C50.4918 60.4552 50.4726 60.6544 50.4533 60.7807L50.4244 61.0431C50.3955 61.4123 50.3666 61.8156 50.3378 62.2529C50.3089 62.6804 50.2993 63.0788 50.3089 63.4481C50.3185 63.8173 50.3522 64.1282 50.41 64.3809C50.4678 64.6238 50.5688 64.7452 50.7132 64.7452C50.8576 64.7452 50.9924 64.7064 51.1176 64.6287C51.2427 64.5509 51.3487 64.4586 51.4352 64.3517C51.5316 64.2449 51.6037 64.1379 51.6519 64.0311C51.7 63.9145 51.7241 63.827 51.7241 63.7687C51.7241 63.7104 51.7096 63.6424 51.6808 63.5646C51.6327 63.4189 51.546 63.2343 51.4208 63.0108C51.7 63.0788 51.9456 63.1468 52.1573 63.2149C52.2632 63.2537 52.3595 63.2926 52.4461 63.3314C52.5424 63.3703 52.6531 63.414 52.7783 63.4626C52.8842 63.5112 53.019 63.5695 53.1826 63.6376C53.3463 63.7055 53.5388 63.7882 53.7603 63.8853C53.5484 63.9242 53.3944 63.9873 53.2982 64.0748C53.2404 64.1137 53.1971 64.1574 53.1682 64.206C53.1008 64.3128 53.0238 64.4586 52.9371 64.6432C52.8505 64.8182 52.7205 64.9931 52.5473 65.1679C52.374 65.3428 52.1381 65.4984 51.8396 65.6343C51.5508 65.7704 51.1609 65.8481 50.6699 65.8676C50.1597 65.887 49.7697 65.7996 49.5002 65.6052C49.2403 65.4109 49.0477 65.1874 48.9226 64.9347C48.8071 64.6724 48.7396 64.4149 48.7204 64.1623C48.7011 63.9096 48.6867 63.7396 48.6771 63.6521C48.6675 63.5646 48.6675 63.346 48.6771 62.9962C48.6867 62.6464 48.7011 62.2626 48.7204 61.8447C48.7396 61.4172 48.7589 61.009 48.7782 60.6204C48.7974 60.222 48.8071 59.9305 48.8071 59.7458C48.8071 59.6487 48.8119 59.5467 48.8215 59.4398C48.8215 59.3523 48.8215 59.26 48.8215 59.1629C48.8311 59.0559 48.8359 58.9539 48.8359 58.8567L46.742 58.8422L46.6554 58.0114L48.7637 58.0696C48.7444 57.9628 48.7204 57.8656 48.6915 57.7781C48.6723 57.681 48.653 57.6032 48.6338 57.5449C48.6049 57.477 48.576 57.4186 48.5471 57.37C48.5086 57.3214 48.4653 57.268 48.4171 57.2097C48.369 57.1611 48.3064 57.0979 48.2294 57.0202C48.1524 56.9425 48.0609 56.855 47.955 56.7578ZM54.2512 60.0373C54.2993 59.979 54.3283 59.8722 54.3379 59.7167C54.3572 59.5515 54.3957 59.3669 54.4534 59.1629C54.5208 58.9587 54.6315 58.745 54.7856 58.5215C54.9396 58.298 55.1899 58.0891 55.5365 57.8948C55.8735 57.7004 56.2008 57.5838 56.5184 57.5449C56.8361 57.5061 57.1394 57.5206 57.4282 57.5887C57.717 57.6567 57.9866 57.7636 58.2369 57.9093C58.4968 58.0551 58.7327 58.2154 58.9445 58.3903C59.0889 58.507 59.2045 58.677 59.2911 58.9005C59.3777 59.1143 59.4452 59.3572 59.4933 59.6293C59.5414 59.9014 59.5751 60.188 59.5944 60.4892C59.6233 60.7807 59.6425 61.0674 59.6521 61.3492C59.6618 61.6212 59.6666 61.8739 59.6666 62.1071C59.6762 62.3306 59.6954 62.5152 59.7243 62.661C59.7629 62.8747 59.8302 63.0593 59.9265 63.2149C60.0228 63.3606 60.1287 63.4869 60.2442 63.5938C60.3598 63.691 60.4752 63.7687 60.5908 63.827C60.7063 63.8853 60.8074 63.929 60.894 63.9582C60.9518 63.9873 61.0048 64.0068 61.0529 64.0165C61.1492 64.0554 61.2165 64.0554 61.2551 64.0165C61.1973 64.1526 61.1444 64.2691 61.0962 64.3663C61.0481 64.4634 61.0096 64.5461 60.9807 64.6141C60.9422 64.6918 60.9085 64.755 60.8796 64.8036C60.8507 64.8619 60.8171 64.9153 60.7785 64.9639C60.7496 65.0125 60.7111 65.0659 60.663 65.1242C60.6148 65.1826 60.5667 65.2457 60.5186 65.3137C60.3934 65.2652 60.2731 65.2068 60.1575 65.1388C60.0517 65.0708 59.9554 65.0076 59.8687 64.9493C59.7629 64.8813 59.6666 64.8133 59.5799 64.7452C59.4933 64.6773 59.4114 64.5995 59.3344 64.512C59.267 64.4343 59.1948 64.3517 59.1178 64.2643C59.0504 64.1768 58.9927 64.0796 58.9445 63.9728C58.8868 64.0991 58.7472 64.2788 58.5257 64.512C58.3139 64.7452 58.0347 64.959 57.6882 65.1534C57.3416 65.338 56.9373 65.4692 56.4752 65.547C56.0227 65.6246 55.522 65.5712 54.9733 65.3866C54.7326 65.3088 54.5064 65.1971 54.2945 65.0514C54.0828 64.8959 53.8999 64.7113 53.7458 64.4975C53.6014 64.2837 53.4955 64.0408 53.4281 63.7687C53.3703 63.4869 53.3751 63.176 53.4426 62.8358C53.5099 62.4958 53.6303 62.2091 53.8036 61.9759C53.9769 61.7427 54.1839 61.5532 54.4245 61.4075C54.6652 61.2617 54.9348 61.1499 55.2332 61.0723C55.5317 60.9945 55.8398 60.9411 56.1575 60.9119C56.4077 60.9022 56.6581 60.9167 56.9084 60.9556C57.1202 60.9945 57.3416 61.0674 57.5726 61.1743C57.8037 61.2714 58.0011 61.422 58.1647 61.6261C58.1551 61.1111 58.1359 60.703 58.107 60.4017C58.0877 60.0908 58.0684 59.8527 58.0492 59.6876C58.0107 59.4932 57.977 59.3572 57.9481 59.2794C57.8999 59.2114 57.847 59.1337 57.7893 59.0462C57.7411 58.9587 57.6786 58.8811 57.6015 58.813C57.5245 58.7353 57.4282 58.6721 57.3127 58.6235C57.1972 58.5749 57.0624 58.5555 56.9084 58.5652C56.7447 58.5749 56.6148 58.6187 56.5184 58.6964C56.4222 58.7741 56.3452 58.8664 56.2874 58.9734C56.2392 59.0705 56.2104 59.1774 56.2008 59.294C56.1911 59.4106 56.196 59.5126 56.2152 59.6001C56.2344 59.6584 56.2633 59.7216 56.3019 59.7896C56.3404 59.8478 56.3933 59.9111 56.4607 59.979C56.5281 60.0471 56.6196 60.1054 56.7351 60.154C56.5136 60.1832 56.3163 60.2074 56.143 60.2269C55.9697 60.2366 55.8205 60.2511 55.6954 60.2705C55.551 60.29 55.4258 60.3046 55.3199 60.3143C55.214 60.324 55.0888 60.3434 54.9444 60.3726C54.8193 60.392 54.6652 60.4164 54.4823 60.4455C54.2993 60.4746 54.0876 60.5135 53.8469 60.5621C53.9047 60.494 53.9576 60.4309 54.0057 60.3726C54.0539 60.3046 54.0972 60.2463 54.1357 60.1977C54.1742 60.1394 54.2128 60.0859 54.2512 60.0373ZM56.4174 61.7719C56.2441 61.7816 56.0708 61.8253 55.8975 61.903C55.7242 61.9711 55.5702 62.0731 55.4354 62.2091C55.3006 62.3355 55.1851 62.4861 55.0889 62.661C55.0022 62.8261 54.9589 63.0108 54.9589 63.2149C54.9589 63.4189 55.007 63.5987 55.1033 63.7541C55.2091 63.8999 55.3439 64.0214 55.5076 64.1185C55.6809 64.2157 55.8638 64.274 56.0563 64.2934C56.2585 64.3129 56.4559 64.2934 56.6484 64.2351C56.8313 64.1671 57.0046 64.0602 57.1683 63.9145C57.332 63.759 57.4715 63.5938 57.5871 63.4189C57.7026 63.2343 57.7845 63.0545 57.8326 62.8796C57.8807 62.6949 57.8855 62.5443 57.847 62.4278C57.77 62.1751 57.5967 62.0002 57.3271 61.903C57.0576 61.7961 56.7544 61.7524 56.4174 61.7719ZM61.4428 66.3486C61.5391 66.2028 61.6161 66.0668 61.6738 65.9405C61.7316 65.8141 61.7797 65.7073 61.8182 65.6198C61.8568 65.5129 61.8857 65.4158 61.9049 65.3283C61.9145 65.27 61.9193 65.0999 61.9193 64.8182C61.9193 64.5364 61.9097 64.1817 61.8905 63.7541C61.8809 63.3266 61.8664 62.8456 61.8471 62.3111C61.8375 61.7767 61.8182 61.2326 61.7894 60.6787C61.7701 60.1248 61.7461 59.5855 61.7172 59.0608C61.6979 58.5361 61.6786 58.0648 61.6594 57.647C61.6401 57.2194 61.6209 56.8696 61.6016 56.5976C61.5824 56.3255 61.568 56.17 61.5584 56.1311C61.5391 56.0728 61.5053 56.0145 61.4572 55.9562C61.3609 55.8396 61.1973 55.7278 60.9663 55.621C61.4572 55.4946 61.8327 55.3926 62.0926 55.3149C62.2466 55.276 62.3814 55.2372 62.497 55.1983C62.6029 55.1594 62.7087 55.1205 62.8147 55.0817C62.9013 55.0428 62.9976 54.999 63.1035 54.9505C63.2094 54.8922 63.3056 54.829 63.3923 54.761C63.3442 55.0428 63.3056 55.3149 63.2768 55.5773C63.2479 55.8396 63.2239 56.0826 63.2046 56.306C63.1853 56.5587 63.1757 56.8016 63.1757 57.0348C63.1276 57.5109 63.0987 58.0308 63.0891 58.5943C63.0891 59.1482 63.0939 59.7118 63.1035 60.2852C63.1131 60.8584 63.1324 61.4172 63.1612 61.9614C63.1901 62.5055 63.219 63.0011 63.2479 63.4481C63.2864 63.8853 63.3201 64.2594 63.349 64.5704C63.3875 64.8716 63.4164 65.0659 63.4356 65.1534C63.4741 65.2991 63.5127 65.44 63.5512 65.5761C63.5897 65.6927 63.633 65.8141 63.6812 65.9405C63.7293 66.0765 63.787 66.1834 63.8544 66.2611H62.4537C62.3285 66.2611 62.2082 66.266 62.0926 66.2757C61.9867 66.2854 61.876 66.2952 61.7605 66.3049C61.6449 66.3146 61.5391 66.3291 61.4428 66.3486Z" fill="#A96C6C"/>
</svg>
