<svg width="1000" height="1000" viewBox="0 0 1000 1000" fill="none"
    xmlns="http://www.w3.org/2000/svg">
    <g clip-path="url(#clip0_12_42)">
        <path d="M1000 0H0V1000H1000V0Z" fill="#4D7E3E" />
        <g clip-path="url(#clip1_12_42)">
            <g clip-path="url(#clip2_12_42)">
                <g clip-path="url(#clip3_12_42)">
                    <path
                        d="M500.215 375.388C549.755 375.388 589.915 335.054 589.915 285.301C589.915 235.547 549.755 195.214 500.215 195.214C450.676 195.214 410.516 235.547 410.516 285.301C410.516 335.054 450.676 375.388 500.215 375.388Z"
                        fill="white" />
                    <path
                        d="M463.142 757.288H408.722C397.11 757.288 386.642 753.102 379.239 746.401C376.437 744.176 372.767 740.33 370.531 734.378C368.937 730.636 368.068 726.589 368.068 722.375C368.068 718.772 368.702 715.307 369.882 712.043C370.358 710.02 370.959 707.906 371.725 705.688L373.07 705.591C379.984 694.788 393.356 687.463 408.722 687.463H430.857L438.661 669.716H408.722C386.27 669.716 368.061 654.082 368.061 634.804C368.061 615.525 386.263 599.892 408.722 599.892H469.387L502.258 525.175L446.962 404.299C446.962 404.299 326.185 427.832 305.037 526.623L285.517 736.554C285.517 736.554 277.382 794.182 303.408 806.538C329.435 818.886 454.669 818.886 454.669 818.886C454.669 818.886 493.412 785.069 463.142 757.288Z"
                        fill="white" />
                    <path
                        d="M714.907 736.554L695.387 526.616C674.239 427.825 554.304 401.021 554.304 401.021L512.014 525.168L480.281 599.885H591.695C614.154 599.885 632.363 615.518 632.363 634.797C632.363 654.075 614.154 669.709 591.695 669.709H450.632L443.098 687.456H591.702C607.103 687.456 620.509 694.816 627.409 705.654L628.706 705.682C629.472 707.906 630.072 710.02 630.555 712.043C631.728 715.307 632.37 718.779 632.37 722.368C632.37 726.554 631.508 730.573 629.928 734.288C627.699 740.296 624.007 744.17 621.185 746.401C613.775 753.102 603.308 757.288 591.702 757.288H537.282C507.012 785.069 545.755 818.886 545.755 818.886C545.755 818.886 670.989 818.886 697.016 806.538C723.042 794.189 714.907 736.554 714.907 736.554Z"
                        fill="white" />
                </g>
                <path d="M950.758 380.947H49.666V619.279H950.758V380.947Z" fill="#4D7E3E" />
                <g clip-path="url(#clip4_12_42)">
                    <g clip-path="url(#clip5_12_42)">
                        <g clip-path="url(#clip6_12_42)">
                            <g clip-path="url(#clip7_12_42)">
                                <g clip-path="url(#clip8_12_42)">
                                    <g clip-path="url(#clip9_12_42)">
                                        <path
                                            d="M142.706 530.366C133.711 530.366 125.325 529.368 117.544 527.373C109.741 525.378 104.251 523.381 101.073 521.386C97.8724 519.392 95.7484 517.974 94.7036 517.132C91.9835 514.927 90.625 511.88 90.625 507.995C90.625 504.948 90.9921 502.061 91.7231 499.329C93.0816 494.184 95.5413 491.61 99.096 491.61C100.247 491.714 103.937 492.924 110.171 495.233C116.383 497.543 121.268 498.699 124.823 498.699C130.156 498.699 132.823 496.598 132.823 492.397C132.823 489.877 131.515 487.535 128.901 485.371C126.288 483.228 123.128 481.158 119.426 479.163C115.702 477.169 111.959 474.878 108.194 472.294C104.43 469.732 101.239 466.159 98.6254 461.581C96.0119 457.022 94.7036 451.696 94.7036 445.606C94.7036 435.523 99.6199 427.614 109.449 421.879C119.279 416.166 131.985 413.308 147.569 413.308C163.152 413.308 175.523 414.906 184.684 418.098C193.823 421.312 198.395 425.755 198.395 431.426C198.395 435.523 197.453 439.115 195.571 442.203C193.688 445.313 191.703 446.866 189.61 446.866C188.879 446.866 186.451 446.047 182.331 444.408C178.19 442.792 174.447 441.982 171.099 441.982C164.511 441.982 161.216 444.556 161.216 449.702C161.216 452.223 162.785 454.532 165.923 456.634C169.06 458.736 172.856 460.752 177.311 462.684C181.744 464.637 186.212 466.821 190.708 469.238C195.204 471.655 199.022 474.963 202.159 479.163C205.297 483.364 206.866 488.459 206.866 494.445C206.866 500.432 204.961 505.893 201.156 510.83C197.328 515.768 192.277 519.6 186.002 522.331C173.556 527.688 159.124 530.366 142.706 530.366V530.366ZM232.592 527.215C229.665 527.215 227.186 526.239 225.157 524.285C223.108 522.354 221.8 519.149 221.235 514.675C220.648 510.222 220.356 496.831 220.356 474.5C220.356 452.191 220.723 437.624 221.454 430.796C222.292 421.973 226.004 417.458 232.592 417.247C240.122 417.036 271.339 416.932 326.244 416.932C332.415 416.932 335.499 420.871 335.499 428.748C335.499 434.946 332.779 438.043 327.342 438.043H292.83C290.634 438.043 288.887 438.777 287.591 440.249C286.273 441.72 285.614 443.611 285.614 445.921V457.264C285.614 460.415 287.026 461.991 289.85 461.991H318.4C320.072 461.991 321.349 462.148 322.228 462.463C323.128 462.778 323.944 463.692 324.675 465.205C325.406 466.739 325.773 469.238 325.773 472.704C325.773 476.17 325.177 478.48 323.985 479.636C322.77 480.792 320.806 481.369 318.086 481.369H292.517C289.903 481.369 288.102 482.021 287.12 483.323C286.116 484.646 285.614 486.672 285.614 489.404V497.124C285.614 501.639 287.757 503.898 292.046 503.898H331.107C332.989 503.898 334.661 504.443 336.126 505.537C337.592 506.649 338.323 509.066 338.323 512.784C338.323 516.524 337.435 519.864 335.656 522.804C333.877 525.744 331.787 527.215 329.381 527.215H232.592ZM418.012 449.859L418.326 479.006C418.326 481 419.424 481.999 421.62 481.999C428.105 481.999 433.207 480.194 436.931 476.58C440.633 472.946 442.484 468.661 442.484 463.724C442.484 458.786 440.737 454.532 437.245 450.962C433.731 447.392 428.576 445.606 421.777 445.606C419.267 445.606 418.012 447.024 418.012 449.859V449.859ZM459.112 496.966C461.098 499.068 468.157 506.996 480.29 520.756C481.021 521.701 481.388 522.543 481.388 523.277C481.388 526.009 480.186 527.373 477.78 527.373C472.236 527.477 466.673 527.531 461.089 527.531C455.482 527.531 449.91 527.477 444.367 527.373C441.333 527.373 438.562 526.166 436.052 523.749L422.562 503.268C422.038 502.638 421.41 502.219 420.679 502.008C419.007 501.378 418.169 502.061 418.169 504.056V520.126C418.169 524.641 415.22 527.058 409.322 527.373C403.402 527.688 396.939 527.846 389.933 527.846C382.927 527.846 374.456 527.584 364.52 527.058C361.486 526.847 359.061 525.798 357.241 523.907C355.399 522.016 354.323 519.864 354.009 517.447C353.172 508.206 352.755 493.68 352.755 473.87C352.755 454.082 353.068 439.672 353.696 430.639C354.323 421.605 358.872 417.036 367.343 416.932C375.29 416.828 386.114 416.774 399.815 416.774C413.517 416.774 424.861 416.878 433.856 417.089C446.823 417.3 457.44 422.131 465.701 431.584C473.962 441.037 478.094 451.696 478.094 463.566C478.094 470.498 476.503 476.904 473.325 482.787C470.125 488.67 465.387 493.396 459.112 496.966V496.966ZM587.902 519.023C586.02 522.593 582.757 525.378 578.114 527.373C573.448 529.368 568.397 530.366 562.96 530.366C557.523 530.366 552.553 529.421 548.058 527.531C543.562 525.64 540.318 522.908 538.332 519.338C522.645 490.245 508.056 461.675 494.565 433.632C492.996 430.27 492.212 427.699 492.212 425.912C492.212 420.24 494.775 417.404 499.899 417.404L545.234 417.089C549.102 417.089 552.064 417.773 554.113 419.138C556.143 420.502 557.94 423.234 559.509 427.33L574.725 466.402C575.353 468.081 576.504 468.923 578.177 468.923C579.849 468.923 581.104 468.081 581.941 466.402L602.491 421.658C603.85 418.822 605.315 417.247 606.884 416.932C607.511 416.828 608.609 416.774 610.178 416.774L628.218 417.089C630.204 417.089 631.616 418.035 632.454 419.925C632.767 420.659 632.924 421.554 632.924 422.604C632.924 423.653 631.754 426.542 629.41 431.269C627.048 435.995 620.93 449.125 611.056 470.656C601.164 492.186 593.446 508.31 587.902 519.023V519.023ZM703.359 530.366C684.534 530.366 669.663 525.555 658.745 515.935C647.805 506.334 642.336 492.766 642.336 475.225C642.336 464.511 644.093 455.112 647.607 447.024C651.099 438.935 656.037 432.476 662.416 427.645C675.069 418.088 691.75 413.308 712.457 413.308C725.844 413.308 739.229 415.145 752.616 418.822C757.739 420.502 760.302 424.652 760.302 431.269C760.302 440.303 757.479 444.818 751.831 444.818C750.89 444.818 747.806 444.399 742.576 443.557C737.346 442.716 733.688 442.297 731.595 442.297C724.169 442.297 718.45 444.89 714.434 450.08C710.396 455.288 708.379 461.496 708.379 468.702C708.379 475.886 710.261 482.21 714.026 487.671C717.791 493.132 722.914 495.967 729.399 496.178C733.791 496.39 741.582 496.494 752.773 496.494C758.21 496.494 761.19 499.068 761.714 504.213C762.028 506.104 762.185 508.017 762.185 509.948C762.185 511.902 762.028 513.877 761.714 515.872C761.087 519.653 758.16 522.404 752.93 524.127C747.7 525.87 740.17 527.351 730.34 528.57C720.511 529.768 711.516 530.366 703.359 530.366V530.366ZM886.269 416.932H906.662C908.755 416.932 909.799 417.981 909.799 420.083C909.799 421.447 909.225 422.919 908.074 424.494L872.935 480.424C872.935 488.931 872.675 501.324 872.151 517.605C872.047 519.915 871.053 522.038 869.17 523.97C867.288 525.924 864.778 527.004 861.64 527.215C855.679 527.635 848.517 527.846 840.149 527.846C831.782 527.846 824.095 527.635 817.089 527.215C813.952 527.004 811.442 525.924 809.56 523.97C807.677 522.038 806.683 519.915 806.579 517.605C806.369 506.996 806.265 495.967 806.265 484.52L774.578 431.111C773.009 428.694 772.225 426.7 772.225 425.124C772.225 419.872 774.788 417.247 779.911 417.247L833.561 416.932C836.595 416.932 838.872 417.404 840.4 418.35C841.906 419.295 843.704 421.239 845.797 424.179L855.366 444.818C857.038 447.127 858.431 448.284 859.538 448.284C860.627 448.284 861.954 447.339 863.523 445.448L879.524 420.24C881.302 418.035 883.549 416.932 886.269 416.932V416.932Z"
                                            fill="white" />
                                    </g>
                                </g>
                                <g clip-path="url(#clip10_12_42)">
                                    <g clip-path="url(#clip11_12_42)">
                                        <path
                                            d="M249.699 576.978L249.093 585.528H247.116L248.615 563.944H251.325L254.131 571.854L257.925 582.838C259.392 578.782 260.731 575.121 261.943 571.854L264.877 563.944H267.587L269.404 585.528H267.427L266.694 576.978L265.833 566.538C264.558 570.104 263.293 573.583 262.039 576.978L259.073 584.984H256.746L253.94 576.978L250.369 566.762C250.177 569.986 249.954 573.391 249.699 576.978ZM278.874 583.895C280.15 583.895 281.17 583.543 281.935 582.838C282.701 582.134 283.083 581.237 283.083 580.148V577.811H279.927C278.417 577.811 277.291 578.103 276.547 578.688C275.803 579.277 275.431 580.009 275.431 580.885C275.431 581.781 275.722 582.507 276.304 583.062C276.891 583.617 277.748 583.895 278.874 583.895ZM283.083 585.528V583.639C282.191 585.005 280.639 585.688 278.428 585.688C276.94 585.688 275.722 585.244 274.774 584.356C273.83 583.472 273.358 582.337 273.358 580.949C273.358 579.39 273.958 578.178 275.157 577.311C276.36 576.448 277.95 576.017 279.927 576.017H283.083V575.281C283.083 573.829 282.775 572.734 282.159 571.995C281.542 571.261 280.511 570.893 279.066 570.893C277.386 570.893 275.877 571.352 274.538 572.27V570.157C275.771 569.41 277.291 569.036 279.098 569.036C283.051 569.036 285.028 571.118 285.028 575.281V585.528H283.083ZM291.629 562.888V585.528H289.684V562.888H291.629ZM301.067 569.292L294.467 577.01L301.29 585.528H298.867L292.107 577.01L298.675 569.292H301.067ZM306.481 569.292V585.528H304.536V569.292H306.481ZM306.468 563.125C306.732 563.394 306.864 563.72 306.864 564.104C306.864 564.489 306.732 564.809 306.468 565.065C306.2 565.321 305.875 565.449 305.493 565.449C305.11 565.449 304.791 565.321 304.536 565.065C304.281 564.809 304.153 564.489 304.153 564.104C304.153 563.72 304.281 563.394 304.536 563.125C304.791 562.86 305.11 562.727 305.493 562.727C305.875 562.727 306.2 562.86 306.468 563.125ZM323.667 574.192V585.528H321.722V574.8C321.722 573.541 321.404 572.58 320.766 571.918C320.128 571.256 319.289 570.925 318.247 570.925C316.929 570.925 315.792 571.431 314.835 572.443C313.879 573.46 313.4 574.832 313.4 576.562V585.528H311.455V569.292H313.4V572.078C314.399 570.05 316.111 569.036 318.534 569.036C320.086 569.036 321.329 569.516 322.264 570.477C323.2 571.438 323.667 572.676 323.667 574.192ZM340.854 569.292V584.279C340.854 586.734 340.195 588.577 338.877 589.807C337.559 591.032 335.858 591.645 333.775 591.645C331.926 591.645 330.353 591.335 329.056 590.716V588.795C330.374 589.456 331.894 589.787 333.616 589.787C335.231 589.787 336.517 589.345 337.474 588.462C338.431 587.573 338.909 586.179 338.909 584.279V582.166C337.825 584.151 336.209 585.144 334.062 585.144C332.192 585.144 330.602 584.45 329.292 583.062C327.987 581.675 327.334 579.796 327.334 577.426C327.334 574.992 327.934 572.986 329.133 571.406C330.336 569.826 331.915 569.036 333.871 569.036C336.188 569.036 337.867 570.071 338.909 572.142V569.292H340.854ZM329.375 577.33C329.375 579.273 329.864 580.75 330.842 581.762C331.82 582.778 332.904 583.287 334.094 583.287C335.306 583.287 336.411 582.81 337.41 581.858C338.409 580.91 338.909 579.454 338.909 577.49C338.909 575.249 338.431 573.588 337.474 572.507C336.517 571.431 335.444 570.893 334.254 570.893C332.744 570.893 331.554 571.491 330.682 572.687C329.811 573.882 329.375 575.43 329.375 577.33ZM355.292 562.888V585.528H353.347V562.888H355.292ZM362.338 569.292V585.528H360.393V569.292H362.338ZM362.326 563.125C362.589 563.394 362.721 563.72 362.721 564.104C362.721 564.489 362.589 564.809 362.326 565.065C362.058 565.321 361.733 565.449 361.35 565.449C360.967 565.449 360.649 565.321 360.393 565.065C360.138 564.809 360.011 564.489 360.011 564.104C360.011 563.72 360.138 563.394 360.393 563.125C360.649 562.86 360.967 562.727 361.35 562.727C361.733 562.727 362.058 562.86 362.326 563.125ZM374.455 569.292V570.957H370.756V585.528H368.811V570.957H365.846V569.292H368.811V567.563C368.811 566.09 369.194 564.916 369.959 564.04C370.724 563.165 371.798 562.727 373.18 562.727C373.584 562.727 374.019 562.791 374.487 562.92V564.841C374.041 564.67 373.573 564.585 373.084 564.585C372.446 564.585 371.898 564.835 371.439 565.334C370.984 565.838 370.756 566.592 370.756 567.595V569.292H374.455ZM389.25 582.742V584.728C387.975 585.368 386.487 585.688 384.786 585.688C382.384 585.688 380.433 584.935 378.932 583.427C377.435 581.924 376.687 579.945 376.687 577.49C376.687 574.886 377.346 572.836 378.664 571.342C379.982 569.847 381.693 569.1 383.798 569.1C385.775 569.1 387.348 569.751 388.517 571.054C389.686 572.356 390.27 574.192 390.27 576.562C390.27 577.287 390.228 577.864 390.143 578.291H378.728C378.877 580.084 379.493 581.455 380.577 582.403C381.661 583.355 383.096 583.831 384.882 583.831C386.71 583.831 388.166 583.468 389.25 582.742ZM383.734 570.925C382.373 570.925 381.236 571.406 380.322 572.367C379.408 573.327 378.877 574.704 378.728 576.498H388.262V575.761C388.262 574.288 387.851 573.114 387.031 572.238C386.215 571.363 385.116 570.925 383.734 570.925ZM413.509 582.742V584.728C412.233 585.368 410.745 585.688 409.045 585.688C406.643 585.688 404.693 584.935 403.197 583.427C401.696 581.924 400.946 579.945 400.946 577.49C400.946 574.886 401.605 572.836 402.923 571.342C404.241 569.847 405.952 569.1 408.056 569.1C410.033 569.1 411.606 569.751 412.775 571.054C413.944 572.356 414.529 574.192 414.529 576.562C414.529 577.287 414.487 577.864 414.402 578.291H402.986C403.135 580.084 403.752 581.455 404.836 582.403C405.92 583.355 407.355 583.831 409.14 583.831C410.968 583.831 412.425 583.468 413.509 582.742ZM407.992 570.925C406.632 570.925 405.495 571.406 404.581 572.367C403.667 573.327 403.135 574.704 402.986 576.498H412.52V575.761C412.52 574.288 412.112 573.114 411.296 572.238C410.475 571.363 409.374 570.925 407.992 570.925ZM423.17 583.895C424.446 583.895 425.466 583.543 426.231 582.838C426.996 582.134 427.379 581.237 427.379 580.148V577.811H424.222C422.713 577.811 421.586 578.103 420.842 578.688C420.098 579.277 419.726 580.009 419.726 580.885C419.726 581.781 420.018 582.507 420.6 583.062C421.187 583.617 422.043 583.895 423.17 583.895ZM427.379 585.528V583.639C426.486 585.005 424.934 585.688 422.724 585.688C421.236 585.688 420.018 585.244 419.07 584.356C418.126 583.472 417.654 582.337 417.654 580.949C417.654 579.39 418.253 578.178 419.452 577.311C420.655 576.448 422.245 576.017 424.222 576.017H427.379V575.281C427.379 573.829 427.071 572.734 426.454 571.995C425.838 571.261 424.807 570.893 423.361 570.893C421.682 570.893 420.173 571.352 418.834 572.27V570.157C420.067 569.41 421.586 569.036 423.393 569.036C427.347 569.036 429.324 571.118 429.324 575.281V585.528H427.379ZM443.386 581.365C443.386 582.71 442.922 583.771 441.995 584.548C441.073 585.33 439.804 585.72 438.188 585.72C436.233 585.72 434.66 585.4 433.469 584.76V582.742C434.893 583.553 436.424 583.959 438.061 583.959C439.145 583.959 439.967 583.735 440.529 583.287C441.094 582.838 441.377 582.251 441.377 581.525C441.377 580.671 441.083 580.009 440.497 579.54C439.914 579.07 438.954 578.568 437.614 578.035C436.318 577.522 435.287 576.925 434.521 576.241C433.756 575.558 433.374 574.619 433.374 573.423C433.374 572.121 433.852 571.079 434.808 570.298C435.765 569.521 436.966 569.132 438.411 569.132C440.155 569.132 441.494 569.378 442.429 569.869V571.822C441.43 571.246 440.08 570.957 438.38 570.957C437.444 570.957 436.705 571.175 436.16 571.611C435.62 572.051 435.35 572.623 435.35 573.327C435.35 573.754 435.429 574.128 435.586 574.448C435.748 574.768 436.024 575.061 436.415 575.325C436.811 575.594 437.147 575.793 437.423 575.921C437.699 576.049 438.146 576.241 438.762 576.498C440.25 577.095 441.392 577.751 442.187 578.464C442.986 579.181 443.386 580.148 443.386 581.365ZM448.991 569.292V585.528H447.046V569.292H448.991ZM448.978 563.125C449.242 563.394 449.374 563.72 449.374 564.104C449.374 564.489 449.242 564.809 448.978 565.065C448.711 565.321 448.385 565.449 448.003 565.449C447.62 565.449 447.301 565.321 447.046 565.065C446.791 564.809 446.663 564.489 446.663 564.104C446.663 563.72 446.791 563.394 447.046 563.125C447.301 562.86 447.62 562.727 448.003 562.727C448.385 562.727 448.711 562.86 448.978 563.125ZM465.54 582.742V584.728C464.264 585.368 462.776 585.688 461.076 585.688C458.674 585.688 456.725 584.935 455.228 583.427C453.727 581.924 452.977 579.945 452.977 577.49C452.977 574.886 453.636 572.836 454.954 571.342C456.272 569.847 457.983 569.1 460.087 569.1C462.064 569.1 463.637 569.751 464.806 571.054C465.976 572.356 466.56 574.192 466.56 576.562C466.56 577.287 466.518 577.864 466.433 578.291H455.018C455.166 580.084 455.783 581.455 456.867 582.403C457.951 583.355 459.386 583.831 461.172 583.831C463 583.831 464.456 583.468 465.54 582.742ZM460.024 570.925C458.663 570.925 457.526 571.406 456.612 572.367C455.698 573.327 455.166 574.704 455.018 576.498H464.551V575.761C464.551 574.288 464.143 573.114 463.327 572.238C462.506 571.363 461.405 570.925 460.024 570.925ZM472.459 576.466V585.528H470.514V569.292H472.459V572.046C473.352 570.082 474.861 569.1 476.987 569.1C477.136 569.1 477.401 569.121 477.784 569.164V571.15C477.359 571.022 476.934 570.957 476.509 570.957C475.361 570.957 474.398 571.527 473.62 572.668C472.846 573.812 472.459 575.078 472.459 576.466ZM495.379 569.292V570.957H491.68V585.528H489.735V570.957H486.769V569.292H489.735V567.563C489.735 566.09 490.117 564.916 490.883 564.04C491.648 563.165 492.721 562.727 494.103 562.727C494.507 562.727 494.943 562.791 495.41 562.92V564.841C494.964 564.67 494.496 564.585 494.007 564.585C493.37 564.585 492.823 564.835 492.368 565.334C491.909 565.838 491.68 566.592 491.68 567.595V569.292H495.379ZM512.629 577.49C512.629 579.903 511.955 581.892 510.607 583.459C509.255 585.031 507.399 585.816 505.04 585.816C502.765 585.816 500.959 585.026 499.619 583.447C498.28 581.867 497.611 579.881 497.611 577.49C497.611 575.121 498.301 573.124 499.683 571.502C501.065 569.879 502.85 569.068 505.04 569.068C507.442 569.068 509.308 569.862 510.639 571.451C511.965 573.043 512.629 575.056 512.629 577.49ZM499.651 577.49C499.651 579.262 500.146 580.782 501.137 582.05C502.123 583.323 503.424 583.959 505.04 583.959C506.804 583.959 508.171 583.334 509.14 582.082C510.105 580.836 510.588 579.305 510.588 577.49C510.588 575.612 510.131 574.047 509.217 572.796C508.303 571.549 506.911 570.925 505.04 570.925C503.361 570.925 502.043 571.566 501.086 572.847C500.129 574.128 499.651 575.676 499.651 577.49ZM518.432 576.466V585.528H516.487V569.292H518.432V572.046C519.325 570.082 520.834 569.1 522.96 569.1C523.108 569.1 523.374 569.121 523.757 569.164V571.15C523.332 571.022 522.907 570.957 522.481 570.957C521.333 570.957 520.371 571.527 519.593 572.668C518.819 573.812 518.432 575.078 518.432 576.466ZM541.957 583.094V585.08C541.341 585.485 540.629 585.688 539.821 585.688C536.76 585.688 535.229 584.108 535.229 580.949V570.957H532.583V569.292H535.229V565.225H537.206V569.292H541.83V570.957H537.206V581.045C537.206 582.902 538.067 583.831 539.789 583.831C540.639 583.831 541.362 583.585 541.957 583.094ZM558.028 574.192V585.528H556.083V574.8C556.083 573.541 555.764 572.58 555.126 571.918C554.488 571.256 553.649 570.925 552.607 570.925C551.289 570.925 550.152 571.431 549.195 572.443C548.239 573.46 547.76 574.832 547.76 576.562V585.528H545.815V562.888H547.76V572.078C548.738 570.05 550.449 569.036 552.894 569.036C554.446 569.036 555.689 569.516 556.625 570.477C557.56 571.438 558.028 572.676 558.028 574.192ZM576.713 577.49C576.713 579.903 576.037 581.892 574.685 583.459C573.337 585.031 571.483 585.816 569.124 585.816C566.849 585.816 565.042 585.026 563.703 583.447C562.364 581.867 561.694 579.881 561.694 577.49C561.694 575.121 562.385 573.124 563.767 571.502C565.149 569.879 566.934 569.068 569.124 569.068C571.526 569.068 573.39 569.862 574.717 571.451C576.047 573.043 576.713 575.056 576.713 577.49ZM563.735 577.49C563.735 579.262 564.228 580.782 565.215 582.05C566.205 583.323 567.508 583.959 569.124 583.959C570.888 583.959 572.253 583.334 573.218 582.082C574.187 580.836 574.672 579.305 574.672 577.49C574.672 575.612 574.215 574.047 573.301 572.796C572.387 571.549 570.994 570.925 569.124 570.925C567.445 570.925 566.127 571.566 565.17 572.847C564.213 574.128 563.735 575.676 563.735 577.49ZM589.971 581.365C589.971 582.71 589.509 583.771 588.587 584.548C587.664 585.33 586.395 585.72 584.78 585.72C582.82 585.72 581.247 585.4 580.061 584.76V582.742C581.485 583.553 583.015 583.959 584.652 583.959C585.736 583.959 586.559 583.735 587.12 583.287C587.686 582.838 587.968 582.251 587.968 581.525C587.968 580.671 587.675 580.009 587.088 579.54C586.506 579.07 585.545 578.568 584.206 578.035C582.909 577.522 581.878 576.925 581.113 576.241C580.348 575.558 579.965 574.619 579.965 573.423C579.965 572.121 580.443 571.079 581.4 570.298C582.356 569.521 583.557 569.132 585.003 569.132C586.746 569.132 588.083 569.378 589.014 569.869V571.822C588.019 571.246 586.672 570.957 584.971 570.957C584.036 570.957 583.296 571.175 582.752 571.611C582.212 572.051 581.942 572.623 581.942 573.327C581.942 573.754 582.021 574.128 582.178 574.448C582.339 574.768 582.616 575.061 583.007 575.325C583.398 575.594 583.734 575.793 584.014 575.921C584.291 576.049 584.735 576.241 585.347 576.498C586.835 577.095 587.979 577.751 588.778 578.464C589.573 579.181 589.971 580.148 589.971 581.365ZM605.085 582.742V584.728C603.809 585.368 602.321 585.688 600.621 585.688C598.219 585.688 596.269 584.935 594.773 583.427C593.272 581.924 592.522 579.945 592.522 577.49C592.522 574.886 593.181 572.836 594.498 571.342C595.816 569.847 597.528 569.1 599.632 569.1C601.609 569.1 603.182 569.751 604.351 571.054C605.52 572.356 606.105 574.192 606.105 576.562C606.105 577.287 606.062 577.864 605.977 578.291H594.562C594.711 580.084 595.328 581.455 596.412 582.403C597.496 583.355 598.931 583.831 600.716 583.831C602.544 583.831 604 583.468 605.085 582.742ZM599.568 570.925C598.208 570.925 597.071 571.406 596.157 572.367C595.243 573.327 594.711 574.704 594.562 576.498H604.096V575.761C604.096 574.288 603.688 573.114 602.872 572.238C602.051 571.363 600.95 570.925 599.568 570.925ZM625.364 580.212L623.865 585.528H621.251L616.308 569.292H618.445L620.039 574.672C620.634 576.679 621.138 578.423 621.55 579.905C621.967 581.391 622.239 582.369 622.367 582.838L622.526 583.575C622.909 582.187 623.759 579.209 625.077 574.64L626.607 569.292H628.903L630.497 574.64L633.112 583.639C633.452 582.379 634.356 579.38 635.822 574.64L637.48 569.292H639.521L634.419 585.528H631.805L630.242 580.212L627.755 571.566C627.394 572.911 626.597 575.793 625.364 580.212ZM655.107 574.192V585.528H653.162V574.8C653.162 573.541 652.843 572.58 652.205 571.918C651.568 571.256 650.728 570.925 649.686 570.925C648.368 570.925 647.231 571.431 646.275 572.443C645.318 573.46 644.84 574.832 644.84 576.562V585.528H642.895V562.888H644.84V572.078C645.818 570.05 647.529 569.036 649.973 569.036C651.525 569.036 652.769 569.516 653.704 570.477C654.639 571.438 655.107 572.676 655.107 574.192ZM673.792 577.49C673.792 579.903 673.118 581.892 671.77 583.459C670.418 585.031 668.563 585.816 666.203 585.816C663.929 585.816 662.122 585.026 660.783 583.447C659.443 581.867 658.774 579.881 658.774 577.49C658.774 575.121 659.465 573.124 660.846 571.502C662.228 569.879 664.014 569.068 666.203 569.068C668.605 569.068 670.472 569.862 671.802 571.451C673.129 573.043 673.792 575.056 673.792 577.49ZM660.814 577.49C660.814 579.262 661.31 580.782 662.3 582.05C663.287 583.323 664.588 583.959 666.203 583.959C667.967 583.959 669.334 583.334 670.304 582.082C671.269 580.836 671.751 579.305 671.751 577.49C671.751 575.612 671.294 574.047 670.38 572.796C669.466 571.549 668.074 570.925 666.203 570.925C664.524 570.925 663.206 571.566 662.249 572.847C661.293 574.128 660.814 575.676 660.814 577.49ZM694.773 581.365C694.773 582.71 694.309 583.771 693.383 584.548C692.46 585.33 691.191 585.72 689.575 585.72C687.62 585.72 686.047 585.4 684.856 584.76V582.742C686.281 583.553 687.811 583.959 689.448 583.959C690.532 583.959 691.355 583.735 691.916 583.287C692.481 582.838 692.764 582.251 692.764 581.525C692.764 580.671 692.471 580.009 691.884 579.54C691.301 579.07 690.341 578.568 689.001 578.035C687.705 577.522 686.674 576.925 685.909 576.241C685.143 575.558 684.761 574.619 684.761 573.423C684.761 572.121 685.239 571.079 686.195 570.298C687.152 569.521 688.353 569.132 689.799 569.132C691.542 569.132 692.881 569.378 693.816 569.869V571.822C692.817 571.246 691.467 570.957 689.767 570.957C688.831 570.957 688.092 571.175 687.547 571.611C687.008 572.051 686.738 572.623 686.738 573.327C686.738 573.754 686.816 574.128 686.973 574.448C687.135 574.768 687.411 575.061 687.803 575.325C688.198 575.594 688.534 575.793 688.81 575.921C689.086 576.049 689.533 576.241 690.149 576.498C691.637 577.095 692.779 577.751 693.574 578.464C694.373 579.181 694.773 580.148 694.773 581.365ZM709.88 582.742V584.728C708.605 585.368 707.117 585.688 705.416 585.688C703.014 585.688 701.065 584.935 699.568 583.427C698.068 581.924 697.317 579.945 697.317 577.49C697.317 574.886 697.976 572.836 699.294 571.342C700.612 569.847 702.323 569.1 704.428 569.1C706.405 569.1 707.978 569.751 709.147 571.054C710.316 572.356 710.901 574.192 710.901 576.562C710.901 577.287 710.858 577.864 710.773 578.291H699.358C699.507 580.084 700.123 581.455 701.207 582.403C702.291 583.355 703.726 583.831 705.512 583.831C707.34 583.831 708.796 583.468 709.88 582.742ZM704.364 570.925C703.004 570.925 701.866 571.406 700.952 572.367C700.038 573.327 699.507 574.704 699.358 576.498H708.892V575.761C708.892 574.288 708.484 573.114 707.667 572.238C706.847 571.363 705.746 570.925 704.364 570.925ZM716.799 576.466V585.528H714.854V569.292H716.799V572.046C717.692 570.082 719.201 569.1 721.327 569.1C721.476 569.1 721.742 569.121 722.124 569.164V571.15C721.699 571.022 721.274 570.957 720.849 570.957C719.701 570.957 718.74 571.527 717.966 572.668C717.188 573.812 716.799 575.078 716.799 576.466ZM737.334 569.292L731.594 585.528H728.98L723.4 569.292H725.44L727.704 576.113L730.287 583.959C730.5 583.169 731.382 580.554 732.934 576.113L735.293 569.292H737.334ZM752.288 582.742V584.728C751.013 585.368 749.525 585.688 747.824 585.688C745.422 585.688 743.471 584.935 741.97 583.427C740.473 581.924 739.725 579.945 739.725 577.49C739.725 574.886 740.384 572.836 741.702 571.342C743.02 569.847 744.731 569.1 746.836 569.1C748.813 569.1 750.386 569.751 751.555 571.054C752.724 572.356 753.309 574.192 753.309 576.562C753.309 577.287 753.266 577.864 753.181 578.291H741.766C741.915 580.084 742.531 581.455 743.615 582.403C744.699 583.355 746.134 583.831 747.92 583.831C749.748 583.831 751.204 583.468 752.288 582.742ZM746.772 570.925C745.412 570.925 744.274 571.406 743.36 572.367C742.446 573.327 741.915 574.704 741.766 576.498H751.3V575.761C751.3 574.288 750.89 573.114 750.069 572.238C749.253 571.363 748.154 570.925 746.772 570.925Z"
                                            fill="white" />
                                    </g>
                                </g>
                            </g>
                        </g>
                    </g>
                </g>
            </g>
        </g>
    </g>
    <defs>
        <clipPath id="clip0_12_42">
            <rect width="1000" height="1000" rx="500" fill="white" />
        </clipPath>
        <clipPath id="clip1_12_42">
            <rect width="1026.42" height="642.227" fill="white" transform="translate(-13 179)" />
        </clipPath>
        <clipPath id="clip2_12_42">
            <rect width="1023.97" height="642.746" fill="white"
                transform="translate(-11.772 178.74)" />
        </clipPath>
        <clipPath id="clip3_12_42">
            <rect width="431.798" height="637.546" fill="white"
                transform="translate(284.313 181.34)" />
        </clipPath>
        <clipPath id="clip4_12_42">
            <rect width="819.174" height="183.063" fill="white"
                transform="translate(90.625 408.582)" />
        </clipPath>
        <clipPath id="clip5_12_42">
            <rect width="819.174" height="183.063" fill="white"
                transform="translate(90.625 408.582)" />
        </clipPath>
        <clipPath id="clip6_12_42">
            <rect width="819.174" height="183.063" fill="white"
                transform="translate(90.625 408.582)" />
        </clipPath>
        <clipPath id="clip7_12_42">
            <rect width="819.174" height="183.063" fill="white"
                transform="translate(90.625 408.582)" />
        </clipPath>
        <clipPath id="clip8_12_42">
            <rect width="819.174" height="126.511" fill="white"
                transform="translate(90.625 408.582)" />
        </clipPath>
        <clipPath id="clip9_12_42">
            <rect width="819.174" height="126.511" fill="white"
                transform="translate(90.625 408.582)" />
        </clipPath>
        <clipPath id="clip10_12_42">
            <rect width="506.25" height="28.9173" fill="white"
                transform="translate(247.087 562.727)" />
        </clipPath>
        <clipPath id="clip11_12_42">
            <rect width="506.25" height="28.9173" fill="white"
                transform="translate(247.087 562.727)" />
        </clipPath>
    </defs>
</svg>
    