<svg width="3031" height="1000" viewBox="0 0 3031 1000" fill="none"
    xmlns="http://www.w3.org/2000/svg">
    <g clip-path="url(#clip0_103_41)">
        <path d="M1000 0H0V1000H1000V0Z" fill="#4D7E3E" />
        <g clip-path="url(#clip1_103_41)">
            <g clip-path="url(#clip2_103_41)">
                <g clip-path="url(#clip3_103_41)">
                    <path
                        d="M500.216 375.388C549.756 375.388 589.915 335.055 589.915 285.301C589.915 235.547 549.756 195.214 500.216 195.214C450.676 195.214 410.517 235.547 410.517 285.301C410.517 335.055 450.676 375.388 500.216 375.388Z"
                        fill="white" />
                    <path
                        d="M463.143 757.289H408.723C397.11 757.289 386.643 753.103 379.239 746.402C376.438 744.178 372.767 740.332 370.531 734.379C368.938 730.637 368.068 726.59 368.068 722.377C368.068 718.773 368.703 715.308 369.883 712.044C370.359 710.021 370.959 707.907 371.725 705.69L373.071 705.593C379.984 694.789 393.357 687.464 408.723 687.464H430.858L438.662 669.717H408.723C386.27 669.717 368.061 654.084 368.061 634.805C368.061 615.526 386.263 599.893 408.723 599.893H469.387L502.258 525.176L446.962 404.3C446.962 404.3 326.186 427.833 305.037 526.624L285.517 736.555C285.517 736.555 277.382 794.183 303.409 806.539C329.435 818.888 454.669 818.888 454.669 818.888C454.669 818.888 493.413 785.07 463.143 757.289Z"
                        fill="white" />
                    <path
                        d="M714.908 736.554L695.388 526.617C674.24 427.826 554.305 401.021 554.305 401.021L512.015 525.168L480.282 599.885H591.696C614.155 599.885 632.364 615.519 632.364 634.797C632.364 654.076 614.155 669.71 591.696 669.71H450.633L443.099 687.457H591.703C607.104 687.457 620.51 694.816 627.41 705.654L628.707 705.682C629.473 707.907 630.073 710.02 630.556 712.044C631.729 715.308 632.371 718.779 632.371 722.369C632.371 726.555 631.509 730.574 629.929 734.288C627.7 740.296 624.008 744.17 621.186 746.402C613.776 753.103 603.309 757.288 591.703 757.288H537.283C507.013 785.07 545.756 818.887 545.756 818.887C545.756 818.887 670.99 818.887 697.017 806.538C723.043 794.189 714.908 736.554 714.908 736.554Z"
                        fill="white" />
                </g>
                <path d="M950.759 380.947H49.667V619.279H950.759V380.947Z" fill="#4D7E3E" />
                <g clip-path="url(#clip4_103_41)">
                    <g clip-path="url(#clip5_103_41)">
                        <g clip-path="url(#clip6_103_41)">
                            <g clip-path="url(#clip7_103_41)">
                                <g clip-path="url(#clip8_103_41)">
                                    <g clip-path="url(#clip9_103_41)">
                                        <path
                                            d="M142.706 530.367C133.711 530.367 125.325 529.368 117.544 527.373C109.741 525.379 104.251 523.381 101.073 521.387C97.8724 519.392 95.7484 517.974 94.7036 517.133C91.9835 514.927 90.625 511.88 90.625 507.995C90.625 504.948 90.9921 502.062 91.7231 499.33C93.0816 494.184 95.5413 491.61 99.096 491.61C100.247 491.714 103.937 492.924 110.171 495.234C116.383 497.543 121.268 498.7 124.823 498.7C130.156 498.7 132.823 496.598 132.823 492.398C132.823 489.877 131.515 487.536 128.901 485.371C126.288 483.228 123.128 481.158 119.426 479.164C115.702 477.169 111.959 474.878 108.194 472.295C104.43 469.733 101.239 466.16 98.6254 461.581C96.0119 457.022 94.7036 451.697 94.7036 445.606C94.7036 435.523 99.6199 427.614 109.449 421.879C119.279 416.167 131.985 413.309 147.569 413.309C163.152 413.309 175.523 414.906 184.684 418.098C193.823 421.312 198.395 425.755 198.395 431.427C198.395 435.523 197.453 439.115 195.571 442.203C193.688 445.313 191.703 446.866 189.61 446.866C188.879 446.866 186.451 446.047 182.331 444.409C178.19 442.792 174.447 441.982 171.099 441.982C164.511 441.982 161.216 444.557 161.216 449.702C161.216 452.223 162.785 454.533 165.923 456.634C169.06 458.736 172.856 460.753 177.311 462.684C181.744 464.638 186.212 466.821 190.708 469.238C195.204 471.655 199.022 474.963 202.159 479.164C205.297 483.364 206.866 488.459 206.866 494.446C206.866 500.433 204.961 505.893 201.156 510.831C197.328 515.768 192.277 519.6 186.002 522.332C173.556 527.688 159.124 530.367 142.706 530.367V530.367ZM232.592 527.216C229.665 527.216 227.186 526.239 225.157 524.285C223.108 522.354 221.8 519.149 221.235 514.675C220.648 510.223 220.356 496.831 220.356 474.5C220.356 452.191 220.723 437.625 221.454 430.796C222.292 421.974 226.004 417.458 232.592 417.247C240.122 417.036 271.339 416.932 326.244 416.932C332.415 416.932 335.499 420.871 335.499 428.748C335.499 434.946 332.779 438.044 327.342 438.044H292.83C290.634 438.044 288.887 438.778 287.591 440.249C286.273 441.721 285.614 443.611 285.614 445.921V457.264C285.614 460.415 287.026 461.991 289.85 461.991H318.4C320.072 461.991 321.349 462.148 322.228 462.464C323.128 462.779 323.944 463.692 324.675 465.205C325.406 466.739 325.773 469.238 325.773 472.704C325.773 476.17 325.177 478.48 323.985 479.636C322.77 480.793 320.806 481.369 318.086 481.369H292.517C289.903 481.369 288.102 482.022 287.12 483.323C286.116 484.646 285.614 486.672 285.614 489.404V497.124C285.614 501.639 287.757 503.899 292.046 503.899H331.107C332.989 503.899 334.661 504.444 336.126 505.537C337.592 506.649 338.323 509.066 338.323 512.784C338.323 516.525 337.435 519.865 335.656 522.804C333.877 525.744 331.787 527.216 329.381 527.216H232.592ZM418.012 449.86L418.326 479.006C418.326 481.001 419.424 482 421.62 482C428.105 482 433.207 480.194 436.931 476.58C440.633 472.947 442.484 468.662 442.484 463.724C442.484 458.786 440.737 454.533 437.245 450.963C433.731 447.393 428.576 445.606 421.777 445.606C419.267 445.606 418.012 447.024 418.012 449.86V449.86ZM459.112 496.967C461.098 499.068 468.157 506.996 480.29 520.756C481.021 521.702 481.388 522.543 481.388 523.277C481.388 526.009 480.186 527.373 477.78 527.373C472.236 527.477 466.673 527.531 461.089 527.531C455.482 527.531 449.91 527.477 444.367 527.373C441.333 527.373 438.562 526.167 436.052 523.75L422.562 503.269C422.038 502.638 421.41 502.219 420.679 502.008C419.007 501.378 418.169 502.062 418.169 504.056V520.126C418.169 524.641 415.22 527.058 409.322 527.373C403.402 527.688 396.939 527.846 389.933 527.846C382.927 527.846 374.456 527.584 364.52 527.058C361.486 526.847 359.061 525.798 357.241 523.907C355.399 522.017 354.323 519.865 354.009 517.448C353.172 508.206 352.755 493.68 352.755 473.87C352.755 454.082 353.068 439.673 353.696 430.639C354.323 421.605 358.872 417.036 367.343 416.932C375.29 416.828 386.114 416.775 399.815 416.775C413.517 416.775 424.861 416.879 433.856 417.09C446.823 417.301 457.44 422.131 465.701 431.584C473.962 441.037 478.094 451.697 478.094 463.566C478.094 470.499 476.503 476.904 473.325 482.787C470.125 488.67 465.387 493.397 459.112 496.967V496.967ZM587.902 519.023C586.02 522.593 582.757 525.379 578.114 527.373C573.448 529.368 568.397 530.367 562.96 530.367C557.523 530.367 552.553 529.421 548.058 527.531C543.562 525.64 540.318 522.908 538.332 519.338C522.645 490.246 508.056 461.676 494.565 433.632C492.996 430.27 492.212 427.699 492.212 425.912C492.212 420.241 494.775 417.405 499.899 417.405L545.234 417.09C549.102 417.09 552.064 417.774 554.113 419.138C556.143 420.502 557.94 423.234 559.509 427.33L574.725 466.402C575.353 468.082 576.504 468.923 578.177 468.923C579.849 468.923 581.104 468.082 581.941 466.402L602.491 421.659C603.85 418.823 605.315 417.247 606.884 416.932C607.511 416.828 608.609 416.775 610.178 416.775L628.218 417.09C630.204 417.09 631.616 418.035 632.454 419.926C632.767 420.66 632.924 421.555 632.924 422.604C632.924 423.653 631.754 426.543 629.41 431.269C627.048 435.996 620.93 449.126 611.056 470.656C601.164 492.187 593.446 508.31 587.902 519.023V519.023ZM703.359 530.367C684.534 530.367 669.663 525.555 658.745 515.935C647.805 506.334 642.336 492.766 642.336 475.225C642.336 464.512 644.093 455.112 647.607 447.024C651.099 438.935 656.037 432.476 662.416 427.645C675.069 418.089 691.75 413.309 712.457 413.309C725.844 413.309 739.229 415.146 752.616 418.823C757.739 420.502 760.302 424.652 760.302 431.269C760.302 440.303 757.479 444.818 751.831 444.818C750.89 444.818 747.806 444.399 742.576 443.558C737.346 442.717 733.688 442.297 731.595 442.297C724.169 442.297 718.45 444.891 714.434 450.08C710.396 455.289 708.379 461.496 708.379 468.702C708.379 475.887 710.261 482.211 714.026 487.671C717.791 493.132 722.914 495.968 729.399 496.179C733.791 496.39 741.582 496.494 752.773 496.494C758.21 496.494 761.19 499.068 761.714 504.214C762.028 506.104 762.185 508.017 762.185 509.949C762.185 511.902 762.028 513.878 761.714 515.872C761.087 519.654 758.16 522.404 752.93 524.128C747.7 525.87 740.17 527.351 730.34 528.571C720.511 529.768 711.516 530.367 703.359 530.367V530.367ZM886.269 416.932H906.662C908.755 416.932 909.799 417.981 909.799 420.083C909.799 421.448 909.225 422.919 908.074 424.495L872.935 480.424C872.935 488.932 872.675 501.324 872.151 517.605C872.047 519.915 871.053 522.039 869.17 523.97C867.288 525.924 864.778 527.005 861.64 527.216C855.679 527.635 848.517 527.846 840.149 527.846C831.782 527.846 824.095 527.635 817.089 527.216C813.952 527.005 811.442 525.924 809.56 523.97C807.677 522.039 806.683 519.915 806.579 517.605C806.369 506.996 806.265 495.968 806.265 484.52L774.578 431.112C773.009 428.695 772.225 426.7 772.225 425.125C772.225 419.872 774.788 417.247 779.911 417.247L833.561 416.932C836.595 416.932 838.872 417.405 840.4 418.35C841.906 419.295 843.704 421.24 845.797 424.179L855.366 444.818C857.038 447.128 858.431 448.284 859.538 448.284C860.627 448.284 861.954 447.339 863.523 445.448L879.524 420.241C881.302 418.035 883.549 416.932 886.269 416.932V416.932Z"
                                            fill="white" />
                                    </g>
                                </g>
                                <g clip-path="url(#clip10_103_41)">
                                    <g clip-path="url(#clip11_103_41)">
                                        <path
                                            d="M249.698 576.978L249.092 585.528H247.115L248.614 563.944H251.324L254.13 571.854L257.924 582.838C259.391 578.782 260.73 575.121 261.942 571.854L264.876 563.944H267.586L269.403 585.528H267.426L266.693 576.978L265.832 566.538C264.557 570.104 263.292 573.584 262.038 576.978L259.072 584.984H256.745L253.939 576.978L250.368 566.763C250.176 569.986 249.953 573.391 249.698 576.978ZM278.873 583.895C280.149 583.895 281.169 583.543 281.934 582.838C282.7 582.134 283.082 581.237 283.082 580.148V577.811H279.926C278.416 577.811 277.29 578.103 276.546 578.688C275.802 579.277 275.43 580.01 275.43 580.885C275.43 581.782 275.721 582.507 276.303 583.063C276.89 583.618 277.747 583.895 278.873 583.895ZM283.082 585.528V583.639C282.19 585.005 280.638 585.688 278.427 585.688C276.939 585.688 275.721 585.244 274.773 584.356C273.829 583.472 273.357 582.337 273.357 580.949C273.357 579.39 273.957 578.178 275.156 577.311C276.359 576.449 277.949 576.017 279.926 576.017H283.082V575.281C283.082 573.829 282.774 572.734 282.158 571.995C281.541 571.261 280.51 570.894 279.065 570.894C277.385 570.894 275.876 571.353 274.537 572.271V570.157C275.77 569.41 277.29 569.036 279.097 569.036C283.05 569.036 285.027 571.118 285.027 575.281V585.528H283.082ZM291.628 562.888V585.528H289.683V562.888H291.628ZM301.066 569.292L294.466 577.01L301.289 585.528H298.866L292.106 577.01L298.674 569.292H301.066ZM306.48 569.292V585.528H304.535V569.292H306.48ZM306.467 563.125C306.731 563.394 306.863 563.72 306.863 564.105C306.863 564.489 306.731 564.809 306.467 565.065C306.199 565.321 305.874 565.45 305.492 565.45C305.109 565.45 304.79 565.321 304.535 565.065C304.28 564.809 304.152 564.489 304.152 564.105C304.152 563.72 304.28 563.394 304.535 563.125C304.79 562.86 305.109 562.728 305.492 562.728C305.874 562.728 306.199 562.86 306.467 563.125ZM323.666 574.192V585.528H321.721V574.8C321.721 573.541 321.403 572.58 320.765 571.918C320.127 571.256 319.288 570.926 318.246 570.926C316.928 570.926 315.791 571.432 314.834 572.443C313.878 573.46 313.399 574.832 313.399 576.562V585.528H311.454V569.292H313.399V572.078C314.398 570.05 316.11 569.036 318.533 569.036C320.085 569.036 321.328 569.517 322.264 570.477C323.199 571.438 323.666 572.676 323.666 574.192ZM340.853 569.292V584.279C340.853 586.735 340.194 588.577 338.876 589.807C337.558 591.032 335.857 591.645 333.774 591.645C331.925 591.645 330.352 591.335 329.055 590.716V588.795C330.373 589.457 331.893 589.787 333.615 589.787C335.23 589.787 336.516 589.346 337.473 588.462C338.43 587.574 338.908 586.179 338.908 584.279V582.166C337.824 584.151 336.208 585.144 334.061 585.144C332.191 585.144 330.601 584.45 329.291 583.063C327.986 581.675 327.333 579.796 327.333 577.426C327.333 574.993 327.933 572.986 329.132 571.406C330.335 569.826 331.914 569.036 333.87 569.036C336.187 569.036 337.866 570.072 338.908 572.142V569.292H340.853ZM329.374 577.33C329.374 579.273 329.863 580.75 330.841 581.762C331.819 582.779 332.903 583.287 334.093 583.287C335.305 583.287 336.41 582.811 337.409 581.858C338.408 580.911 338.908 579.455 338.908 577.49C338.908 575.249 338.43 573.588 337.473 572.508C336.516 571.432 335.443 570.894 334.253 570.894C332.743 570.894 331.553 571.491 330.681 572.687C329.81 573.882 329.374 575.43 329.374 577.33ZM355.291 562.888V585.528H353.346V562.888H355.291ZM362.338 569.292V585.528H360.392V569.292H362.338ZM362.325 563.125C362.588 563.394 362.72 563.72 362.72 564.105C362.72 564.489 362.588 564.809 362.325 565.065C362.057 565.321 361.732 565.45 361.349 565.45C360.966 565.45 360.648 565.321 360.392 565.065C360.137 564.809 360.01 564.489 360.01 564.105C360.01 563.72 360.137 563.394 360.392 563.125C360.648 562.86 360.966 562.728 361.349 562.728C361.732 562.728 362.057 562.86 362.325 563.125ZM374.454 569.292V570.958H370.755V585.528H368.81V570.958H365.845V569.292H368.81V567.563C368.81 566.09 369.193 564.916 369.958 564.041C370.723 563.165 371.797 562.728 373.179 562.728C373.583 562.728 374.018 562.792 374.486 562.92V564.841C374.04 564.67 373.572 564.585 373.083 564.585C372.445 564.585 371.897 564.835 371.438 565.334C370.983 565.838 370.755 566.592 370.755 567.595V569.292H374.454ZM389.249 582.742V584.728C387.974 585.368 386.486 585.688 384.785 585.688C382.383 585.688 380.432 584.935 378.931 583.428C377.434 581.925 376.686 579.946 376.686 577.49C376.686 574.886 377.345 572.836 378.663 571.342C379.981 569.847 381.692 569.1 383.797 569.1C385.774 569.1 387.347 569.751 388.516 571.054C389.685 572.356 390.269 574.192 390.269 576.562C390.269 577.288 390.227 577.864 390.142 578.291H378.727C378.876 580.084 379.492 581.455 380.576 582.403C381.66 583.355 383.095 583.831 384.881 583.831C386.709 583.831 388.165 583.468 389.249 582.742ZM383.733 570.926C382.372 570.926 381.235 571.406 380.321 572.367C379.407 573.327 378.876 574.704 378.727 576.498H388.261V575.761C388.261 574.288 387.85 573.114 387.03 572.239C386.214 571.363 385.115 570.926 383.733 570.926ZM413.508 582.742V584.728C412.232 585.368 410.744 585.688 409.044 585.688C406.642 585.688 404.692 584.935 403.196 583.428C401.695 581.925 400.945 579.946 400.945 577.49C400.945 574.886 401.604 572.836 402.922 571.342C404.24 569.847 405.951 569.1 408.055 569.1C410.032 569.1 411.605 569.751 412.774 571.054C413.943 572.356 414.528 574.192 414.528 576.562C414.528 577.288 414.486 577.864 414.401 578.291H402.985C403.134 580.084 403.751 581.455 404.835 582.403C405.919 583.355 407.354 583.831 409.139 583.831C410.968 583.831 412.424 583.468 413.508 582.742ZM407.991 570.926C406.631 570.926 405.494 571.406 404.58 572.367C403.666 573.327 403.134 574.704 402.985 576.498H412.519V575.761C412.519 574.288 412.111 573.114 411.295 572.239C410.474 571.363 409.373 570.926 407.991 570.926ZM423.169 583.895C424.445 583.895 425.465 583.543 426.23 582.838C426.995 582.134 427.378 581.237 427.378 580.148V577.811H424.221C422.712 577.811 421.585 578.103 420.841 578.688C420.097 579.277 419.725 580.01 419.725 580.885C419.725 581.782 420.017 582.507 420.599 583.063C421.186 583.618 422.042 583.895 423.169 583.895ZM427.378 585.528V583.639C426.485 585.005 424.933 585.688 422.723 585.688C421.235 585.688 420.017 585.244 419.069 584.356C418.125 583.472 417.653 582.337 417.653 580.949C417.653 579.39 418.252 578.178 419.451 577.311C420.654 576.449 422.244 576.017 424.221 576.017H427.378V575.281C427.378 573.829 427.07 572.734 426.453 571.995C425.837 571.261 424.806 570.894 423.36 570.894C421.681 570.894 420.172 571.353 418.833 572.271V570.157C420.066 569.41 421.585 569.036 423.392 569.036C427.346 569.036 429.323 571.118 429.323 575.281V585.528H427.378ZM443.385 581.365C443.385 582.71 442.921 583.771 441.994 584.548C441.072 585.33 439.803 585.72 438.187 585.72C436.232 585.72 434.659 585.4 433.468 584.76V582.742C434.892 583.554 436.423 583.959 438.06 583.959C439.144 583.959 439.967 583.735 440.528 583.287C441.093 582.838 441.376 582.251 441.376 581.525C441.376 580.671 441.083 580.01 440.496 579.54C439.913 579.07 438.953 578.569 437.613 578.035C436.317 577.522 435.286 576.925 434.52 576.241C433.755 575.558 433.373 574.619 433.373 573.423C433.373 572.121 433.851 571.079 434.807 570.298C435.764 569.521 436.965 569.132 438.41 569.132C440.154 569.132 441.493 569.378 442.428 569.869V571.822C441.429 571.246 440.079 570.958 438.379 570.958C437.443 570.958 436.704 571.175 436.159 571.611C435.619 572.051 435.349 572.623 435.349 573.327C435.349 573.754 435.428 574.128 435.585 574.448C435.747 574.768 436.023 575.061 436.414 575.326C436.81 575.595 437.146 575.793 437.422 575.921C437.698 576.049 438.145 576.241 438.761 576.498C440.249 577.095 441.391 577.751 442.186 578.464C442.985 579.181 443.385 580.148 443.385 581.365ZM448.99 569.292V585.528H447.045V569.292H448.99ZM448.977 563.125C449.241 563.394 449.373 563.72 449.373 564.105C449.373 564.489 449.241 564.809 448.977 565.065C448.71 565.321 448.384 565.45 448.002 565.45C447.619 565.45 447.3 565.321 447.045 565.065C446.79 564.809 446.663 564.489 446.663 564.105C446.663 563.72 446.79 563.394 447.045 563.125C447.3 562.86 447.619 562.728 448.002 562.728C448.384 562.728 448.71 562.86 448.977 563.125ZM465.539 582.742V584.728C464.263 585.368 462.775 585.688 461.075 585.688C458.673 585.688 456.724 584.935 455.227 583.428C453.726 581.925 452.976 579.946 452.976 577.49C452.976 574.886 453.635 572.836 454.953 571.342C456.271 569.847 457.982 569.1 460.086 569.1C462.063 569.1 463.636 569.751 464.805 571.054C465.975 572.356 466.559 574.192 466.559 576.562C466.559 577.288 466.517 577.864 466.432 578.291H455.017C455.165 580.084 455.782 581.455 456.866 582.403C457.95 583.355 459.385 583.831 461.171 583.831C462.999 583.831 464.455 583.468 465.539 582.742ZM460.023 570.926C458.662 570.926 457.525 571.406 456.611 572.367C455.697 573.327 455.165 574.704 455.017 576.498H464.55V575.761C464.55 574.288 464.142 573.114 463.326 572.239C462.505 571.363 461.404 570.926 460.023 570.926ZM472.458 576.466V585.528H470.513V569.292H472.458V572.046C473.351 570.082 474.86 569.1 476.986 569.1C477.135 569.1 477.4 569.122 477.783 569.164V571.15C477.358 571.022 476.933 570.958 476.508 570.958C475.36 570.958 474.397 571.528 473.619 572.668C472.845 573.812 472.458 575.078 472.458 576.466ZM495.378 569.292V570.958H491.679V585.528H489.734V570.958H486.768V569.292H489.734V567.563C489.734 566.09 490.116 564.916 490.882 564.041C491.647 563.165 492.72 562.728 494.102 562.728C494.506 562.728 494.942 562.792 495.409 562.92V564.841C494.963 564.67 494.495 564.585 494.006 564.585C493.369 564.585 492.822 564.835 492.368 565.334C491.908 565.838 491.679 566.592 491.679 567.595V569.292H495.378ZM512.628 577.49C512.628 579.903 511.954 581.893 510.606 583.46C509.254 585.031 507.398 585.817 505.039 585.817C502.764 585.817 500.958 585.027 499.618 583.447C498.279 581.867 497.61 579.881 497.61 577.49C497.61 575.121 498.3 573.125 499.682 571.502C501.064 569.879 502.849 569.068 505.039 569.068C507.441 569.068 509.307 569.862 510.638 571.451C511.965 573.043 512.628 575.057 512.628 577.49ZM499.65 577.49C499.65 579.262 500.146 580.782 501.136 582.051C502.122 583.323 503.423 583.959 505.039 583.959C506.803 583.959 508.17 583.334 509.139 582.083C510.104 580.836 510.587 579.305 510.587 577.49C510.587 575.612 510.13 574.047 509.216 572.796C508.302 571.549 506.91 570.926 505.039 570.926C503.36 570.926 502.042 571.566 501.085 572.847C500.129 574.128 499.65 575.676 499.65 577.49ZM518.431 576.466V585.528H516.486V569.292H518.431V572.046C519.324 570.082 520.833 569.1 522.959 569.1C523.107 569.1 523.373 569.122 523.756 569.164V571.15C523.331 571.022 522.906 570.958 522.48 570.958C521.333 570.958 520.37 571.528 519.592 572.668C518.818 573.812 518.431 575.078 518.431 576.466ZM541.956 583.095V585.08C541.34 585.486 540.628 585.688 539.82 585.688C536.759 585.688 535.228 584.109 535.228 580.949V570.958H532.582V569.292H535.228V565.225H537.205V569.292H541.829V570.958H537.205V581.045C537.205 582.902 538.066 583.831 539.788 583.831C540.638 583.831 541.361 583.586 541.956 583.095ZM558.027 574.192V585.528H556.082V574.8C556.082 573.541 555.763 572.58 555.125 571.918C554.487 571.256 553.648 570.926 552.606 570.926C551.288 570.926 550.151 571.432 549.194 572.443C548.238 573.46 547.759 574.832 547.759 576.562V585.528H545.814V562.888H547.759V572.078C548.737 570.05 550.448 569.036 552.893 569.036C554.445 569.036 555.688 569.517 556.624 570.477C557.559 571.438 558.027 572.676 558.027 574.192ZM576.712 577.49C576.712 579.903 576.036 581.893 574.684 583.46C573.336 585.031 571.482 585.817 569.123 585.817C566.848 585.817 565.041 585.027 563.702 583.447C562.363 581.867 561.693 579.881 561.693 577.49C561.693 575.121 562.384 573.125 563.766 571.502C565.148 569.879 566.933 569.068 569.123 569.068C571.525 569.068 573.389 569.862 574.716 571.451C576.046 573.043 576.712 575.057 576.712 577.49ZM563.734 577.49C563.734 579.262 564.227 580.782 565.214 582.051C566.204 583.323 567.507 583.959 569.123 583.959C570.887 583.959 572.252 583.334 573.217 582.083C574.186 580.836 574.671 579.305 574.671 577.49C574.671 575.612 574.214 574.047 573.3 572.796C572.386 571.549 570.993 570.926 569.123 570.926C567.444 570.926 566.126 571.566 565.169 572.847C564.212 574.128 563.734 575.676 563.734 577.49ZM589.97 581.365C589.97 582.71 589.508 583.771 588.586 584.548C587.663 585.33 586.394 585.72 584.779 585.72C582.819 585.72 581.246 585.4 580.06 584.76V582.742C581.484 583.554 583.014 583.959 584.651 583.959C585.735 583.959 586.558 583.735 587.119 583.287C587.685 582.838 587.967 582.251 587.967 581.525C587.967 580.671 587.674 580.01 587.087 579.54C586.505 579.07 585.544 578.569 584.205 578.035C582.908 577.522 581.877 576.925 581.112 576.241C580.347 575.558 579.964 574.619 579.964 573.423C579.964 572.121 580.442 571.079 581.399 570.298C582.355 569.521 583.556 569.132 585.002 569.132C586.745 569.132 588.082 569.378 589.013 569.869V571.822C588.018 571.246 586.671 570.958 584.97 570.958C584.035 570.958 583.295 571.175 582.751 571.611C582.211 572.051 581.941 572.623 581.941 573.327C581.941 573.754 582.02 574.128 582.177 574.448C582.338 574.768 582.615 575.061 583.006 575.326C583.397 575.595 583.733 575.793 584.013 575.921C584.29 576.049 584.734 576.241 585.346 576.498C586.834 577.095 587.978 577.751 588.777 578.464C589.572 579.181 589.97 580.148 589.97 581.365ZM605.084 582.742V584.728C603.808 585.368 602.32 585.688 600.62 585.688C598.218 585.688 596.268 584.935 594.772 583.428C593.271 581.925 592.521 579.946 592.521 577.49C592.521 574.886 593.18 572.836 594.498 571.342C595.815 569.847 597.527 569.1 599.631 569.1C601.608 569.1 603.181 569.751 604.35 571.054C605.519 572.356 606.104 574.192 606.104 576.562C606.104 577.288 606.061 577.864 605.976 578.291H594.561C594.71 580.084 595.327 581.455 596.411 582.403C597.495 583.355 598.93 583.831 600.715 583.831C602.543 583.831 603.999 583.468 605.084 582.742ZM599.567 570.926C598.207 570.926 597.07 571.406 596.156 572.367C595.242 573.327 594.71 574.704 594.561 576.498H604.095V575.761C604.095 574.288 603.687 573.114 602.871 572.239C602.05 571.363 600.949 570.926 599.567 570.926ZM625.363 580.212L623.864 585.528H621.25L616.307 569.292H618.444L620.038 574.672C620.633 576.679 621.137 578.423 621.549 579.905C621.966 581.391 622.238 582.369 622.366 582.838L622.525 583.575C622.908 582.187 623.758 579.209 625.076 574.64L626.606 569.292H628.902L630.497 574.64L633.111 583.639C633.451 582.379 634.355 579.38 635.821 574.64L637.479 569.292H639.52L634.418 585.528H631.804L630.241 580.212L627.754 571.566C627.393 572.911 626.596 575.793 625.363 580.212ZM655.106 574.192V585.528H653.161V574.8C653.161 573.541 652.842 572.58 652.204 571.918C651.567 571.256 650.727 570.926 649.685 570.926C648.367 570.926 647.23 571.432 646.274 572.443C645.317 573.46 644.839 574.832 644.839 576.562V585.528H642.894V562.888H644.839V572.078C645.817 570.05 647.528 569.036 649.972 569.036C651.524 569.036 652.768 569.517 653.703 570.477C654.638 571.438 655.106 572.676 655.106 574.192ZM673.791 577.49C673.791 579.903 673.117 581.893 671.769 583.46C670.417 585.031 668.562 585.817 666.202 585.817C663.928 585.817 662.121 585.027 660.782 583.447C659.442 581.867 658.773 579.881 658.773 577.49C658.773 575.121 659.464 573.125 660.845 571.502C662.227 569.879 664.013 569.068 666.202 569.068C668.604 569.068 670.471 569.862 671.801 571.451C673.128 573.043 673.791 575.057 673.791 577.49ZM660.813 577.49C660.813 579.262 661.309 580.782 662.299 582.051C663.286 583.323 664.587 583.959 666.202 583.959C667.966 583.959 669.333 583.334 670.303 582.083C671.268 580.836 671.75 579.305 671.75 577.49C671.75 575.612 671.293 574.047 670.379 572.796C669.465 571.549 668.073 570.926 666.202 570.926C664.523 570.926 663.205 571.566 662.248 572.847C661.292 574.128 660.813 575.676 660.813 577.49ZM694.772 581.365C694.772 582.71 694.308 583.771 693.382 584.548C692.459 585.33 691.19 585.72 689.574 585.72C687.619 585.72 686.046 585.4 684.855 584.76V582.742C686.28 583.554 687.81 583.959 689.447 583.959C690.531 583.959 691.354 583.735 691.915 583.287C692.48 582.838 692.763 582.251 692.763 581.525C692.763 580.671 692.47 580.01 691.883 579.54C691.3 579.07 690.34 578.569 689 578.035C687.704 577.522 686.673 576.925 685.908 576.241C685.142 575.558 684.76 574.619 684.76 573.423C684.76 572.121 685.238 571.079 686.195 570.298C687.151 569.521 688.352 569.132 689.798 569.132C691.541 569.132 692.88 569.378 693.815 569.869V571.822C692.816 571.246 691.466 570.958 689.766 570.958C688.83 570.958 688.091 571.175 687.546 571.611C687.007 572.051 686.737 572.623 686.737 573.327C686.737 573.754 686.815 574.128 686.973 574.448C687.134 574.768 687.41 575.061 687.802 575.326C688.197 575.595 688.533 575.793 688.809 575.921C689.085 576.049 689.532 576.241 690.148 576.498C691.636 577.095 692.778 577.751 693.573 578.464C694.372 579.181 694.772 580.148 694.772 581.365ZM709.879 582.742V584.728C708.604 585.368 707.116 585.688 705.415 585.688C703.013 585.688 701.064 584.935 699.567 583.428C698.067 581.925 697.316 579.946 697.316 577.49C697.316 574.886 697.975 572.836 699.293 571.342C700.611 569.847 702.322 569.1 704.427 569.1C706.404 569.1 707.977 569.751 709.146 571.054C710.315 572.356 710.9 574.192 710.9 576.562C710.9 577.288 710.857 577.864 710.772 578.291H699.357C699.506 580.084 700.122 581.455 701.206 582.403C702.29 583.355 703.725 583.831 705.511 583.831C707.339 583.831 708.795 583.468 709.879 582.742ZM704.363 570.926C703.003 570.926 701.865 571.406 700.951 572.367C700.037 573.327 699.506 574.704 699.357 576.498H708.891V575.761C708.891 574.288 708.483 573.114 707.666 572.239C706.846 571.363 705.745 570.926 704.363 570.926ZM716.798 576.466V585.528H714.853V569.292H716.798V572.046C717.691 570.082 719.2 569.1 721.326 569.1C721.475 569.1 721.741 569.122 722.123 569.164V571.15C721.698 571.022 721.273 570.958 720.848 570.958C719.7 570.958 718.739 571.528 717.965 572.668C717.187 573.812 716.798 575.078 716.798 576.466ZM737.333 569.292L731.593 585.528H728.979L723.399 569.292H725.439L727.703 576.113L730.286 583.959C730.499 583.169 731.381 580.554 732.933 576.113L735.292 569.292H737.333ZM752.287 582.742V584.728C751.012 585.368 749.524 585.688 747.823 585.688C745.421 585.688 743.47 584.935 741.969 583.428C740.473 581.925 739.724 579.946 739.724 577.49C739.724 574.886 740.383 572.836 741.701 571.342C743.019 569.847 744.73 569.1 746.835 569.1C748.812 569.1 750.385 569.751 751.554 571.054C752.723 572.356 753.308 574.192 753.308 576.562C753.308 577.288 753.265 577.864 753.18 578.291H741.765C741.914 580.084 742.53 581.455 743.614 582.403C744.698 583.355 746.133 583.831 747.919 583.831C749.747 583.831 751.203 583.468 752.287 582.742ZM746.771 570.926C745.411 570.926 744.273 571.406 743.359 572.367C742.445 573.327 741.914 574.704 741.765 576.498H751.299V575.761C751.299 574.288 750.889 573.114 750.068 572.239C749.252 571.363 748.153 570.926 746.771 570.926Z"
                                            fill="white" />
                                    </g>
                                </g>
                            </g>
                        </g>
                    </g>
                </g>
            </g>
        </g>
    </g>
    <g clip-path="url(#clip12_103_41)">
        <g clip-path="url(#clip13_103_41)">
            <g clip-path="url(#clip14_103_41)">
                <g clip-path="url(#clip15_103_41)">
                    <g clip-path="url(#clip16_103_41)">
                        <g clip-path="url(#clip17_103_41)">
                            <path
                                d="M1396.01 606.097C1376.83 606.097 1358.96 602.594 1342.38 595.599C1325.74 588.604 1314.04 581.598 1307.27 574.603C1300.45 567.609 1295.92 562.636 1293.69 559.685C1287.9 551.95 1285 541.264 1285 527.639C1285 516.954 1285.78 506.831 1287.34 497.251C1290.24 479.205 1295.48 470.177 1303.06 470.177C1305.51 470.542 1313.37 474.785 1326.66 482.885C1339.9 490.985 1350.31 495.041 1357.89 495.041C1369.26 495.041 1374.94 487.67 1374.94 472.94C1374.94 464.1 1372.15 455.889 1366.58 448.298C1361.01 440.783 1354.28 433.523 1346.39 426.528C1338.45 419.533 1330.47 411.5 1322.45 402.438C1314.42 393.454 1307.62 380.923 1302.05 364.867C1296.48 348.877 1293.69 330.202 1293.69 308.842C1293.69 273.48 1304.17 245.744 1325.12 225.632C1346.07 205.598 1373.16 195.575 1406.37 195.575C1439.59 195.575 1465.95 201.178 1485.48 212.372C1504.96 223.643 1514.7 239.224 1514.7 259.115C1514.7 273.48 1512.7 286.078 1508.68 296.907C1504.67 307.814 1500.44 313.262 1495.98 313.262C1494.42 313.262 1489.24 310.389 1480.46 304.643C1471.64 298.974 1463.66 296.134 1456.52 296.134C1442.48 296.134 1435.46 305.162 1435.46 323.207C1435.46 332.047 1438.8 340.147 1445.49 347.518C1452.18 354.889 1460.27 361.961 1469.76 368.735C1479.21 375.586 1488.74 383.244 1498.32 391.72C1507.9 400.195 1516.04 411.798 1522.73 426.528C1529.41 441.258 1532.76 459.127 1532.76 480.123C1532.76 501.118 1528.7 520.269 1520.59 537.585C1512.43 554.901 1501.66 568.338 1488.29 577.919C1461.76 596.704 1431 606.097 1396.01 606.097V606.097ZM1587.59 595.047C1581.35 595.047 1576.07 591.621 1571.74 584.77C1567.38 577.996 1564.59 566.758 1563.38 551.066C1562.13 535.452 1561.51 488.488 1561.51 410.174C1561.51 331.937 1562.29 280.851 1563.85 256.905C1565.64 225.964 1573.55 210.129 1587.59 209.388C1603.64 208.648 1670.18 208.283 1787.2 208.283C1800.35 208.283 1806.93 222.096 1806.93 249.722C1806.93 271.458 1801.13 282.321 1789.54 282.321H1715.98C1711.3 282.321 1707.58 284.895 1704.82 290.056C1702.01 295.217 1700.6 301.847 1700.6 309.947V349.728C1700.6 360.778 1703.61 366.304 1709.63 366.304H1770.48C1774.05 366.304 1776.77 366.856 1778.64 367.961C1780.56 369.066 1782.3 372.271 1783.86 377.575C1785.42 382.957 1786.2 391.72 1786.2 403.875C1786.2 416.03 1784.93 424.13 1782.39 428.186C1779.8 432.241 1775.61 434.264 1769.81 434.264H1715.31C1709.74 434.264 1705.91 436.551 1703.81 441.115C1701.67 445.756 1700.6 452.861 1700.6 462.442V489.515C1700.6 505.351 1705.17 513.274 1714.31 513.274H1797.57C1801.58 513.274 1805.14 515.186 1808.27 519.02C1811.39 522.921 1812.95 531.396 1812.95 544.436C1812.95 557.553 1811.05 569.266 1807.26 579.576C1803.47 589.886 1799.02 595.047 1793.89 595.047H1587.59ZM1982.8 323.76L1983.47 425.976C1983.47 432.971 1985.81 436.474 1990.49 436.474C2004.31 436.474 2015.18 430.142 2023.12 417.467C2031.01 404.726 2034.96 389.697 2034.96 372.381C2034.96 355.065 2031.23 340.147 2023.79 327.627C2016.3 315.107 2005.31 308.842 1990.82 308.842C1985.47 308.842 1982.8 313.814 1982.8 323.76V323.76ZM2070.4 488.963C2074.63 496.334 2089.68 524.136 2115.54 572.393C2117.1 575.709 2117.88 578.659 2117.88 581.234C2117.88 590.814 2115.32 595.599 2110.19 595.599C2098.37 595.964 2086.52 596.152 2074.61 596.152C2062.66 596.152 2050.79 595.964 2038.97 595.599C2032.5 595.599 2026.6 591.367 2021.25 582.891L1992.49 511.064C1991.38 508.854 1990.04 507.384 1988.48 506.644C1984.92 504.434 1983.13 506.831 1983.13 513.826V570.183C1983.13 586.019 1976.85 594.494 1964.27 595.599C1951.66 596.704 1937.88 597.257 1922.95 597.257C1908.02 597.257 1889.96 596.34 1868.78 594.494C1862.32 593.754 1857.15 590.074 1853.27 583.444C1849.34 576.814 1847.05 569.266 1846.38 560.791C1844.6 528.38 1843.71 477.437 1843.71 407.964C1843.71 338.567 1844.38 288.034 1845.71 256.352C1847.05 224.671 1856.75 208.648 1874.8 208.283C1891.74 207.918 1914.81 207.731 1944.01 207.731C1973.22 207.731 1997.4 208.095 2016.57 208.836C2044.21 209.576 2066.83 226.516 2084.44 259.667C2102.05 292.819 2110.86 330.202 2110.86 371.829C2110.86 396.14 2107.47 418.605 2100.69 439.236C2093.87 459.867 2083.77 476.443 2070.4 488.963V488.963ZM2344.9 566.316C2340.89 578.836 2333.94 588.604 2324.04 595.599C2314.1 602.594 2303.33 606.097 2291.74 606.097C2280.15 606.097 2269.56 602.782 2259.98 596.152C2250.4 589.521 2243.48 579.941 2239.25 567.421C2205.81 465.392 2174.72 365.199 2145.96 266.85C2142.62 255.059 2140.95 246.042 2140.95 239.777C2140.95 219.886 2146.41 209.941 2157.33 209.941L2253.96 208.836C2262.21 208.836 2268.52 211.234 2272.88 216.018C2277.21 220.803 2281.04 230.384 2284.39 244.749L2316.82 381.774C2318.16 387.664 2320.61 390.615 2324.17 390.615C2327.74 390.615 2330.41 387.664 2332.2 381.774L2376 224.859C2378.89 214.913 2382.02 209.388 2385.36 208.283C2386.7 207.918 2389.04 207.731 2392.38 207.731L2430.83 208.836C2435.07 208.836 2438.08 212.151 2439.86 218.781C2440.53 221.356 2440.86 224.494 2440.86 228.174C2440.86 231.854 2438.37 241.987 2433.37 258.562C2428.34 275.138 2415.3 321.185 2394.26 396.692C2373.17 472.2 2356.72 528.744 2344.9 566.316V566.316ZM2590.99 606.097C2550.87 606.097 2519.17 589.223 2495.9 555.486C2472.58 521.816 2460.93 474.233 2460.93 412.715C2460.93 375.144 2464.67 342.181 2472.16 313.814C2479.6 285.448 2490.13 262.795 2503.72 245.854C2530.69 212.339 2566.25 195.575 2610.38 195.575C2638.92 195.575 2667.44 202.018 2695.98 214.913C2706.9 220.803 2712.36 235.357 2712.36 258.562C2712.36 290.244 2706.34 306.079 2694.3 306.079C2692.3 306.079 2685.73 304.609 2674.58 301.659C2663.43 298.708 2655.63 297.239 2651.17 297.239C2635.34 297.239 2623.15 306.333 2614.59 324.533C2605.99 342.8 2601.69 364.569 2601.69 389.841C2601.69 415.036 2605.7 437.214 2613.73 456.364C2621.75 475.515 2632.67 485.46 2646.49 486.2C2655.85 486.941 2672.46 487.305 2696.31 487.305C2707.9 487.305 2714.25 496.334 2715.37 514.379C2716.04 521.009 2716.37 527.717 2716.37 534.491C2716.37 541.342 2716.04 548.27 2715.37 555.265C2714.03 568.526 2707.79 578.173 2696.65 584.217C2685.5 590.328 2669.45 595.522 2648.5 599.798C2627.55 603.997 2608.38 606.097 2590.99 606.097V606.097ZM2980.85 208.283H3024.31C3028.77 208.283 3031 211.963 3031 219.334C3031 224.118 3029.78 229.279 3027.32 234.804L2952.43 430.948C2952.43 460.784 2951.87 504.246 2950.75 561.343C2950.53 569.443 2948.41 576.891 2944.4 583.665C2940.39 590.516 2935.04 594.306 2928.35 595.047C2915.65 596.516 2900.38 597.257 2882.55 597.257C2864.71 597.257 2848.33 596.516 2833.4 595.047C2826.71 594.306 2821.36 590.516 2817.35 583.665C2813.34 576.891 2811.22 569.443 2810.99 561.343C2810.55 524.136 2810.33 485.46 2810.33 445.314L2742.79 258.01C2739.44 249.534 2737.77 242.539 2737.77 237.014C2737.77 218.593 2743.23 209.388 2754.15 209.388L2868.5 208.283C2874.97 208.283 2879.83 209.941 2883.08 213.256C2886.29 216.571 2890.12 223.389 2894.58 233.699L2914.98 306.079C2918.54 314.179 2921.51 318.235 2923.87 318.235C2926.19 318.235 2929.02 314.919 2932.37 308.289L2966.47 219.886C2970.26 212.151 2975.05 208.283 2980.85 208.283V208.283Z"
                                fill="white" />
                        </g>
                    </g>
                    <g clip-path="url(#clip18_103_41)">
                        <g clip-path="url(#clip19_103_41)">
                            <path
                                d="M1624.05 769.563L1622.76 799.549H1618.55L1621.74 723.855H1627.52L1633.5 751.594L1641.59 790.115C1644.71 775.89 1647.57 763.049 1650.15 751.594L1656.4 723.855H1662.18L1666.05 799.549H1661.84L1660.28 769.563L1658.44 732.951C1655.72 745.455 1653.03 757.659 1650.35 769.563L1644.03 797.64H1639.07L1633.09 769.563L1625.48 733.738C1625.07 745.043 1624.6 756.985 1624.05 769.563ZM1686.24 793.821C1688.96 793.821 1691.13 792.586 1692.76 790.115C1694.39 787.645 1695.21 784.5 1695.21 780.682V772.483H1688.48C1685.26 772.483 1682.86 773.509 1681.28 775.56C1679.69 777.627 1678.9 780.195 1678.9 783.265C1678.9 786.409 1679.52 788.955 1680.76 790.901C1682.01 792.848 1683.84 793.821 1686.24 793.821ZM1695.21 799.549V792.923C1693.31 797.715 1690 800.111 1685.29 800.111C1682.11 800.111 1679.52 798.553 1677.5 795.439C1675.49 792.339 1674.48 788.356 1674.48 783.489C1674.48 778.024 1675.76 773.771 1678.31 770.731C1680.88 767.706 1684.27 766.194 1688.48 766.194H1695.21V763.611C1695.21 758.52 1694.55 754.679 1693.24 752.088C1691.92 749.513 1689.73 748.225 1686.65 748.225C1683.07 748.225 1679.85 749.835 1676.99 753.054V745.642C1679.62 743.022 1682.86 741.711 1686.71 741.711C1695.14 741.711 1699.35 749.011 1699.35 763.611V799.549H1695.21ZM1713.42 720.148V799.549H1709.28V720.148H1713.42ZM1733.54 742.61L1719.47 769.676L1734.01 799.549H1728.85L1714.44 769.676L1728.44 742.61H1733.54ZM1745.08 742.61V799.549H1740.93V742.61H1745.08ZM1745.05 720.98C1745.61 721.923 1745.89 723.068 1745.89 724.416C1745.89 725.764 1745.61 726.887 1745.05 727.785C1744.48 728.684 1743.79 729.133 1742.97 729.133C1742.16 729.133 1741.48 728.684 1740.93 727.785C1740.39 726.887 1740.12 725.764 1740.12 724.416C1740.12 723.068 1740.39 721.923 1740.93 720.98C1741.48 720.051 1742.16 719.587 1742.97 719.587C1743.79 719.587 1744.48 720.051 1745.05 720.98ZM1781.71 759.793V799.549H1777.56V761.926C1777.56 757.509 1776.89 754.14 1775.53 751.819C1774.17 749.498 1772.38 748.337 1770.16 748.337C1767.35 748.337 1764.92 750.112 1762.88 753.661C1760.85 757.225 1759.83 762.039 1759.83 768.103V799.549H1755.68V742.61H1759.83V752.38C1761.96 745.268 1765.6 741.711 1770.77 741.711C1774.08 741.711 1776.73 743.396 1778.72 746.765C1780.71 750.134 1781.71 754.477 1781.71 759.793ZM1818.34 742.61V795.169C1818.34 803.779 1816.94 810.241 1814.13 814.553C1811.32 818.851 1807.69 821 1803.25 821C1799.31 821 1795.96 819.914 1793.2 817.743V811.004C1796 813.325 1799.24 814.486 1802.91 814.486C1806.36 814.486 1809.1 812.936 1811.14 809.836C1813.18 806.722 1814.2 801.833 1814.2 795.169V787.757C1811.89 794.72 1808.44 798.201 1803.87 798.201C1799.88 798.201 1796.49 795.768 1793.7 790.901C1790.92 786.035 1789.53 779.446 1789.53 771.136C1789.53 762.6 1790.8 755.562 1793.36 750.022C1795.92 744.481 1799.29 741.711 1803.46 741.711C1808.4 741.711 1811.98 745.343 1814.2 752.605V742.61H1818.34ZM1793.88 770.799C1793.88 777.612 1794.92 782.793 1797 786.342C1799.09 789.906 1801.4 791.688 1803.93 791.688C1806.52 791.688 1808.87 790.018 1811 786.679C1813.13 783.354 1814.2 778.248 1814.2 771.36C1814.2 763.499 1813.18 757.674 1811.14 753.885C1809.1 750.112 1806.81 748.225 1804.27 748.225C1801.06 748.225 1798.52 750.321 1796.66 754.514C1794.8 758.707 1793.88 764.135 1793.88 770.799ZM1849.11 720.148V799.549H1844.97V720.148H1849.11ZM1864.13 742.61V799.549H1859.99V742.61H1864.13ZM1864.11 720.98C1864.67 721.923 1864.95 723.068 1864.95 724.416C1864.95 725.764 1864.67 726.887 1864.11 727.785C1863.54 728.684 1862.84 729.133 1862.03 729.133C1861.21 729.133 1860.53 728.684 1859.99 727.785C1859.44 726.887 1859.17 725.764 1859.17 724.416C1859.17 723.068 1859.44 721.923 1859.99 720.98C1860.53 720.051 1861.21 719.587 1862.03 719.587C1862.84 719.587 1863.54 720.051 1864.11 720.98ZM1889.96 742.61V748.45H1882.08V799.549H1877.93V748.45H1871.61V742.61H1877.93V736.545C1877.93 731.379 1878.75 727.261 1880.38 724.191C1882.01 721.122 1884.3 719.587 1887.24 719.587C1888.1 719.587 1889.03 719.812 1890.03 720.261V726.999C1889.08 726.4 1888.08 726.101 1887.04 726.101C1885.68 726.101 1884.51 726.977 1883.53 728.729C1882.56 730.496 1882.08 733.139 1882.08 736.657V742.61H1889.96ZM1921.49 789.778V796.741C1918.78 798.988 1915.6 800.111 1911.98 800.111C1906.86 800.111 1902.7 797.468 1899.5 792.182C1896.31 786.911 1894.72 779.97 1894.72 771.36C1894.72 762.226 1896.12 755.038 1898.93 749.797C1901.74 744.556 1905.39 741.936 1909.87 741.936C1914.09 741.936 1917.44 744.219 1919.93 748.787C1922.42 753.354 1923.67 759.793 1923.67 768.103C1923.67 770.649 1923.58 772.67 1923.4 774.168H1899.07C1899.38 780.457 1900.7 785.264 1903.01 788.588C1905.32 791.927 1908.38 793.597 1912.18 793.597C1916.08 793.597 1919.18 792.324 1921.49 789.778ZM1909.74 748.337C1906.84 748.337 1904.41 750.022 1902.46 753.391C1900.52 756.76 1899.38 761.589 1899.07 767.879H1919.39V765.296C1919.39 760.13 1918.51 756.012 1916.76 752.942C1915.02 749.872 1912.68 748.337 1909.74 748.337ZM1973.2 789.778V796.741C1970.48 798.988 1967.31 800.111 1963.68 800.111C1958.56 800.111 1954.41 797.468 1951.22 792.182C1948.02 786.911 1946.42 779.97 1946.42 771.36C1946.42 762.226 1947.83 755.038 1950.64 749.797C1953.45 744.556 1957.09 741.936 1961.58 741.936C1965.79 741.936 1969.14 744.219 1971.64 748.787C1974.13 753.354 1975.37 759.793 1975.37 768.103C1975.37 770.649 1975.28 772.67 1975.1 774.168H1950.77C1951.09 780.457 1952.4 785.264 1954.71 788.588C1957.02 791.927 1960.08 793.597 1963.89 793.597C1967.78 793.597 1970.89 792.324 1973.2 789.778ZM1961.44 748.337C1958.54 748.337 1956.12 750.022 1954.17 753.391C1952.22 756.76 1951.09 761.589 1950.77 767.879H1971.09V765.296C1971.09 760.13 1970.22 756.012 1968.48 752.942C1966.73 749.872 1964.39 748.337 1961.44 748.337ZM1993.79 793.821C1996.51 793.821 1998.68 792.586 2000.32 790.115C2001.95 787.645 2002.76 784.5 2002.76 780.682V772.483H1996.03C1992.82 772.483 1990.42 773.509 1988.83 775.56C1987.24 777.627 1986.45 780.195 1986.45 783.265C1986.45 786.409 1987.07 788.955 1988.31 790.901C1989.56 792.848 1991.39 793.821 1993.79 793.821ZM2002.76 799.549V792.923C2000.86 797.715 1997.55 800.111 1992.84 800.111C1989.67 800.111 1987.07 798.553 1985.05 795.439C1983.04 792.339 1982.03 788.356 1982.03 783.489C1982.03 778.024 1983.31 773.771 1985.87 770.731C1988.43 767.706 1991.82 766.194 1996.03 766.194H2002.76V763.611C2002.76 758.52 2002.11 754.679 2000.79 752.088C1999.48 749.513 1997.28 748.225 1994.2 748.225C1990.62 748.225 1987.4 749.835 1984.55 753.054V745.642C1987.18 743.022 1990.42 741.711 1994.27 741.711C2002.69 741.711 2006.91 749.011 2006.91 763.611V799.549H2002.76ZM2036.88 784.949C2036.88 789.666 2035.89 793.387 2033.92 796.112C2031.95 798.853 2029.24 800.223 2025.8 800.223C2021.63 800.223 2018.28 799.1 2015.74 796.854V789.778C2018.78 792.623 2022.04 794.046 2025.53 794.046C2027.84 794.046 2029.59 793.26 2030.79 791.688C2032 790.115 2032.6 788.056 2032.6 785.511C2032.6 782.516 2031.97 780.195 2030.72 778.548C2029.48 776.901 2027.43 775.141 2024.58 773.269C2021.81 771.472 2019.62 769.376 2017.99 766.98C2016.35 764.584 2015.54 761.29 2015.54 757.097C2015.54 752.53 2016.56 748.876 2018.6 746.136C2020.64 743.411 2023.2 742.048 2026.28 742.048C2029.99 742.048 2032.85 742.909 2034.84 744.631V751.482C2032.71 749.46 2029.83 748.45 2026.21 748.45C2024.22 748.45 2022.64 749.213 2021.48 750.741C2020.33 752.283 2019.75 754.29 2019.75 756.76C2019.75 758.258 2019.92 759.568 2020.26 760.691C2020.6 761.814 2021.19 762.84 2022.02 763.768C2022.87 764.712 2023.58 765.408 2024.17 765.857C2024.76 766.306 2025.71 766.98 2027.02 767.879C2030.2 769.975 2032.63 772.274 2034.32 774.774C2036.03 777.29 2036.88 780.682 2036.88 784.949ZM2048.83 742.61V799.549H2044.68V742.61H2048.83ZM2048.8 720.98C2049.36 721.923 2049.64 723.068 2049.64 724.416C2049.64 725.764 2049.36 726.887 2048.8 727.785C2048.23 728.684 2047.54 729.133 2046.72 729.133C2045.9 729.133 2045.23 728.684 2044.68 727.785C2044.14 726.887 2043.87 725.764 2043.87 724.416C2043.87 723.068 2044.14 721.923 2044.68 720.98C2045.23 720.051 2045.9 719.587 2046.72 719.587C2047.54 719.587 2048.23 720.051 2048.8 720.98ZM2084.1 789.778V796.741C2081.38 798.988 2078.21 800.111 2074.58 800.111C2069.46 800.111 2065.31 797.468 2062.12 792.182C2058.92 786.911 2057.32 779.97 2057.32 771.36C2057.32 762.226 2058.73 755.038 2061.54 749.797C2064.34 744.556 2067.99 741.936 2072.48 741.936C2076.69 741.936 2080.04 744.219 2082.54 748.787C2085.03 753.354 2086.27 759.793 2086.27 768.103C2086.27 770.649 2086.18 772.67 2086 774.168H2061.67C2061.99 780.457 2063.3 785.264 2065.61 788.588C2067.92 791.927 2070.98 793.597 2074.79 793.597C2078.68 793.597 2081.79 792.324 2084.1 789.778ZM2072.34 748.337C2069.44 748.337 2067.02 750.022 2065.07 753.391C2063.12 756.76 2061.99 761.589 2061.67 767.879H2081.99V765.296C2081.99 760.13 2081.12 756.012 2079.38 752.942C2077.63 749.872 2075.29 748.337 2072.34 748.337ZM2098.85 767.766V799.549H2094.7V742.61H2098.85V752.268C2100.75 745.38 2103.97 741.936 2108.5 741.936C2108.81 741.936 2109.38 742.011 2110.2 742.16V749.123C2109.29 748.674 2108.38 748.45 2107.48 748.45C2105.03 748.45 2102.98 750.449 2101.32 754.447C2099.67 758.46 2098.85 762.9 2098.85 767.766ZM2147.7 742.61V748.45H2139.81V799.549H2135.67V748.45H2129.35V742.61H2135.67V736.545C2135.67 731.379 2136.48 727.261 2138.12 724.191C2139.75 721.122 2142.03 719.587 2144.98 719.587C2145.84 719.587 2146.77 719.812 2147.77 720.261V726.999C2146.81 726.4 2145.82 726.101 2144.78 726.101C2143.42 726.101 2142.25 726.977 2141.28 728.729C2140.3 730.496 2139.81 733.139 2139.81 736.657V742.61H2147.7ZM2184.47 771.36C2184.47 779.821 2183.03 786.799 2180.16 792.294C2177.27 797.805 2173.32 800.56 2168.29 800.56C2163.44 800.56 2159.59 797.79 2156.74 792.249C2153.88 786.709 2152.46 779.746 2152.46 771.36C2152.46 763.049 2153.93 756.049 2156.87 750.359C2159.82 744.669 2163.62 741.824 2168.29 741.824C2173.41 741.824 2177.39 744.609 2180.22 750.179C2183.05 755.765 2184.47 762.825 2184.47 771.36ZM2156.8 771.36C2156.8 777.574 2157.86 782.905 2159.97 787.353C2162.07 791.815 2164.85 794.046 2168.29 794.046C2172.05 794.046 2174.96 791.852 2177.03 787.465C2179.09 783.092 2180.12 777.724 2180.12 771.36C2180.12 764.772 2179.14 759.283 2177.19 754.896C2175.24 750.524 2172.28 748.337 2168.29 748.337C2164.71 748.337 2161.9 750.583 2159.86 755.076C2157.82 759.568 2156.8 764.996 2156.8 771.36ZM2196.83 767.766V799.549H2192.69V742.61H2196.83V752.268C2198.74 745.38 2201.95 741.936 2206.48 741.936C2206.8 741.936 2207.37 742.011 2208.18 742.16V749.123C2207.28 748.674 2206.37 748.45 2205.47 748.45C2203.02 748.45 2200.97 750.449 2199.31 754.447C2197.66 758.46 2196.83 762.9 2196.83 767.766ZM2246.98 791.014V797.977C2245.66 799.399 2244.14 800.111 2242.42 800.111C2235.9 800.111 2232.64 794.57 2232.64 783.489V748.45H2227V742.61H2232.64V728.347H2236.85V742.61H2246.7V748.45H2236.85V783.826C2236.85 790.34 2238.68 793.597 2242.35 793.597C2244.17 793.597 2245.71 792.736 2246.98 791.014ZM2281.23 759.793V799.549H2277.08V761.926C2277.08 757.509 2276.4 754.14 2275.04 751.819C2273.69 749.498 2271.9 748.337 2269.68 748.337C2266.87 748.337 2264.44 750.112 2262.4 753.661C2260.36 757.225 2259.35 762.039 2259.35 768.103V799.549H2255.2V720.148H2259.35V752.38C2261.43 745.268 2265.08 741.711 2270.29 741.711C2273.59 741.711 2276.25 743.396 2278.24 746.765C2280.23 750.134 2281.23 754.477 2281.23 759.793ZM2321.05 771.36C2321.05 779.821 2319.61 786.799 2316.73 792.294C2313.86 797.805 2309.91 800.56 2304.88 800.56C2300.03 800.56 2296.18 797.79 2293.33 792.249C2290.47 786.709 2289.04 779.746 2289.04 771.36C2289.04 763.049 2290.52 756.049 2293.46 750.359C2296.41 744.669 2300.21 741.824 2304.88 741.824C2310 741.824 2313.97 744.609 2316.8 750.179C2319.64 755.765 2321.05 762.825 2321.05 771.36ZM2293.39 771.36C2293.39 777.574 2294.45 782.905 2296.55 787.353C2298.66 791.815 2301.44 794.046 2304.88 794.046C2308.64 794.046 2311.55 791.852 2313.61 787.465C2315.67 783.092 2316.7 777.724 2316.7 771.36C2316.7 764.772 2315.73 759.283 2313.78 754.896C2311.83 750.524 2308.87 748.337 2304.88 748.337C2301.3 748.337 2298.49 750.583 2296.45 755.076C2294.41 759.568 2293.39 764.996 2293.39 771.36ZM2349.31 784.949C2349.31 789.666 2348.33 793.387 2346.36 796.112C2344.4 798.853 2341.69 800.223 2338.25 800.223C2334.07 800.223 2330.72 799.1 2328.19 796.854V789.778C2331.23 792.623 2334.49 794.046 2337.98 794.046C2340.29 794.046 2342.04 793.26 2343.24 791.688C2344.44 790.115 2345.04 788.056 2345.04 785.511C2345.04 782.516 2344.42 780.195 2343.17 778.548C2341.93 776.901 2339.88 775.141 2337.03 773.269C2334.26 771.472 2332.06 769.376 2330.43 766.98C2328.8 764.584 2327.99 761.29 2327.99 757.097C2327.99 752.53 2329.01 748.876 2331.04 746.136C2333.08 743.411 2335.64 742.048 2338.72 742.048C2342.44 742.048 2345.29 742.909 2347.27 744.631V751.482C2345.15 749.46 2342.28 748.45 2338.66 748.45C2336.66 748.45 2335.09 749.213 2333.93 750.741C2332.78 752.283 2332.2 754.29 2332.2 756.76C2332.2 758.258 2332.37 759.568 2332.7 760.691C2333.05 761.814 2333.64 762.84 2334.47 763.768C2335.3 764.712 2336.02 765.408 2336.62 765.857C2337.21 766.306 2338.15 766.98 2339.46 767.879C2342.63 769.975 2345.07 772.274 2346.77 774.774C2348.47 777.29 2349.31 780.682 2349.31 784.949ZM2381.53 789.778V796.741C2378.81 798.988 2375.64 800.111 2372.01 800.111C2366.89 800.111 2362.74 797.468 2359.55 792.182C2356.35 786.911 2354.75 779.97 2354.75 771.36C2354.75 762.226 2356.15 755.038 2358.96 749.797C2361.77 744.556 2365.42 741.936 2369.91 741.936C2374.12 741.936 2377.47 744.219 2379.96 748.787C2382.46 753.354 2383.7 759.793 2383.7 768.103C2383.7 770.649 2383.61 772.67 2383.43 774.168H2359.1C2359.42 780.457 2360.73 785.264 2363.04 788.588C2365.35 791.927 2368.41 793.597 2372.22 793.597C2376.11 793.597 2379.22 792.324 2381.53 789.778ZM2369.77 748.337C2366.87 748.337 2364.45 750.022 2362.5 753.391C2360.55 756.76 2359.42 761.589 2359.1 767.879H2379.42V765.296C2379.42 760.13 2378.55 756.012 2376.81 752.942C2375.06 749.872 2372.71 748.337 2369.77 748.337ZM2424.75 780.906L2421.56 799.549H2415.98L2405.45 742.61H2410L2413.4 761.477C2414.67 768.515 2415.74 774.632 2416.62 779.828C2417.51 785.039 2418.09 788.468 2418.36 790.115L2418.7 792.698C2419.52 787.832 2421.33 777.387 2424.14 761.365L2427.4 742.61H2432.29L2435.69 761.365L2441.27 792.923C2441.99 788.506 2443.92 777.986 2447.04 761.365L2450.58 742.61H2454.93L2444.05 799.549H2438.48L2435.15 780.906L2429.85 750.583C2429.08 755.3 2427.38 765.408 2424.75 780.906ZM2488.15 759.793V799.549H2484V761.926C2484 757.509 2483.32 754.14 2481.96 751.819C2480.6 749.498 2478.81 748.337 2476.59 748.337C2473.78 748.337 2471.36 750.112 2469.32 753.661C2467.28 757.225 2466.26 762.039 2466.26 768.103V799.549H2462.12V720.148H2466.26V752.38C2468.35 745.268 2471.99 741.711 2477.2 741.711C2480.51 741.711 2483.16 743.396 2485.15 746.765C2487.15 750.134 2488.15 754.477 2488.15 759.793ZM2527.97 771.36C2527.97 779.821 2526.53 786.799 2523.66 792.294C2520.78 797.805 2516.82 800.56 2511.8 800.56C2506.95 800.56 2503.1 797.79 2500.24 792.249C2497.39 786.709 2495.96 779.746 2495.96 771.36C2495.96 763.049 2497.43 756.049 2500.38 750.359C2503.32 744.669 2507.13 741.824 2511.8 741.824C2516.92 741.824 2520.89 744.609 2523.73 750.179C2526.56 755.765 2527.97 762.825 2527.97 771.36ZM2500.31 771.36C2500.31 777.574 2501.37 782.905 2503.48 787.353C2505.58 791.815 2508.35 794.046 2511.8 794.046C2515.56 794.046 2518.47 791.852 2520.54 787.465C2522.59 783.092 2523.62 777.724 2523.62 771.36C2523.62 764.772 2522.65 759.283 2520.7 754.896C2518.75 750.524 2515.78 748.337 2511.8 748.337C2508.22 748.337 2505.41 750.583 2503.37 755.076C2501.33 759.568 2500.31 764.996 2500.31 771.36ZM2572.69 784.949C2572.69 789.666 2571.7 793.387 2569.73 796.112C2567.76 798.853 2565.06 800.223 2561.61 800.223C2557.44 800.223 2554.09 799.1 2551.55 796.854V789.778C2554.59 792.623 2557.85 794.046 2561.34 794.046C2563.65 794.046 2565.4 793.26 2566.6 791.688C2567.81 790.115 2568.41 788.056 2568.41 785.511C2568.41 782.516 2567.78 780.195 2566.53 778.548C2565.29 776.901 2563.24 775.141 2560.39 773.269C2557.62 771.472 2555.43 769.376 2553.8 766.98C2552.17 764.584 2551.35 761.29 2551.35 757.097C2551.35 752.53 2552.37 748.876 2554.41 746.136C2556.45 743.411 2559.01 742.048 2562.09 742.048C2565.8 742.048 2568.66 742.909 2570.65 744.631V751.482C2568.52 749.46 2565.64 748.45 2562.02 748.45C2560.03 748.45 2558.45 749.213 2557.29 750.741C2556.14 752.283 2555.56 754.29 2555.56 756.76C2555.56 758.258 2555.73 759.568 2556.07 760.691C2556.41 761.814 2557 762.84 2557.83 763.768C2558.68 764.712 2559.39 765.408 2559.98 765.857C2560.57 766.306 2561.52 766.98 2562.84 767.879C2566.01 769.975 2568.44 772.274 2570.13 774.774C2571.84 777.29 2572.69 780.682 2572.69 784.949ZM2604.89 789.778V796.741C2602.17 798.988 2599 800.111 2595.38 800.111C2590.26 800.111 2586.1 797.468 2582.91 792.182C2579.71 786.911 2578.11 779.97 2578.11 771.36C2578.11 762.226 2579.52 755.038 2582.33 749.797C2585.14 744.556 2588.78 741.936 2593.27 741.936C2597.48 741.936 2600.83 744.219 2603.33 748.787C2605.82 753.354 2607.06 759.793 2607.06 768.103C2607.06 770.649 2606.97 772.67 2606.79 774.168H2582.46C2582.78 780.457 2584.09 785.264 2586.4 788.588C2588.71 791.927 2591.77 793.597 2595.58 793.597C2599.48 793.597 2602.58 792.324 2604.89 789.778ZM2593.13 748.337C2590.23 748.337 2587.81 750.022 2585.86 753.391C2583.91 756.76 2582.78 761.589 2582.46 767.879H2602.78V765.296C2602.78 760.13 2601.91 756.012 2600.17 752.942C2598.42 749.872 2596.08 748.337 2593.13 748.337ZM2619.64 767.766V799.549H2615.49V742.61H2619.64V752.268C2621.54 745.38 2624.76 741.936 2629.29 741.936C2629.61 741.936 2630.17 742.011 2630.99 742.16V749.123C2630.08 748.674 2629.17 748.45 2628.27 748.45C2625.82 748.45 2623.77 750.449 2622.12 754.447C2620.47 758.46 2619.64 762.9 2619.64 767.766ZM2663.4 742.61L2651.17 799.549H2645.6L2633.71 742.61H2638.06L2642.88 766.531L2648.39 794.046C2648.84 791.276 2650.72 782.104 2654.03 766.531L2659.06 742.61H2663.4ZM2695.28 789.778V796.741C2692.56 798.988 2689.39 800.111 2685.76 800.111C2680.64 800.111 2676.49 797.468 2673.29 792.182C2670.1 786.911 2668.5 779.97 2668.5 771.36C2668.5 762.226 2669.91 755.038 2672.72 749.797C2675.52 744.556 2679.17 741.936 2683.66 741.936C2687.87 741.936 2691.22 744.219 2693.72 748.787C2696.21 753.354 2697.45 759.793 2697.45 768.103C2697.45 770.649 2697.36 772.67 2697.18 774.168H2672.85C2673.17 780.457 2674.48 785.264 2676.79 788.588C2679.1 791.927 2682.16 793.597 2685.97 793.597C2689.86 793.597 2692.97 792.324 2695.28 789.778ZM2683.52 748.337C2680.62 748.337 2678.2 750.022 2676.25 753.391C2674.3 756.76 2673.17 761.589 2672.85 767.879H2693.17V765.296C2693.17 760.13 2692.3 756.012 2690.55 752.942C2688.81 749.872 2686.47 748.337 2683.52 748.337Z"
                                fill="white" />
                        </g>
                    </g>
                </g>
            </g>
        </g>
    </g>
    <defs>
        <clipPath id="clip0_103_41">
            <rect width="1000" height="1000" rx="500" fill="white" />
        </clipPath>
        <clipPath id="clip1_103_41">
            <rect width="1026.42" height="642.227" fill="white" transform="translate(-13 179)" />
        </clipPath>
        <clipPath id="clip2_103_41">
            <rect width="1023.97" height="642.746" fill="white"
                transform="translate(-11.7715 178.74)" />
        </clipPath>
        <clipPath id="clip3_103_41">
            <rect width="431.798" height="637.546" fill="white"
                transform="translate(284.313 181.341)" />
        </clipPath>
        <clipPath id="clip4_103_41">
            <rect width="819.174" height="183.063" fill="white"
                transform="translate(90.625 408.582)" />
        </clipPath>
        <clipPath id="clip5_103_41">
            <rect width="819.174" height="183.063" fill="white"
                transform="translate(90.625 408.582)" />
        </clipPath>
        <clipPath id="clip6_103_41">
            <rect width="819.174" height="183.063" fill="white"
                transform="translate(90.625 408.582)" />
        </clipPath>
        <clipPath id="clip7_103_41">
            <rect width="819.174" height="183.063" fill="white"
                transform="translate(90.625 408.582)" />
        </clipPath>
        <clipPath id="clip8_103_41">
            <rect width="819.174" height="126.511" fill="white"
                transform="translate(90.625 408.582)" />
        </clipPath>
        <clipPath id="clip9_103_41">
            <rect width="819.174" height="126.511" fill="white"
                transform="translate(90.625 408.582)" />
        </clipPath>
        <clipPath id="clip10_103_41">
            <rect width="506.25" height="28.9173" fill="white"
                transform="translate(247.087 562.728)" />
        </clipPath>
        <clipPath id="clip11_103_41">
            <rect width="506.25" height="28.9173" fill="white"
                transform="translate(247.087 562.728)" />
        </clipPath>
        <clipPath id="clip12_103_41">
            <rect width="1746" height="642" fill="white" transform="translate(1285 179)" />
        </clipPath>
        <clipPath id="clip13_103_41">
            <rect width="1746" height="642" fill="white" transform="translate(1285 179)" />
        </clipPath>
        <clipPath id="clip14_103_41">
            <rect width="1746" height="642" fill="white" transform="translate(1285 179)" />
        </clipPath>
        <clipPath id="clip15_103_41">
            <rect width="1746" height="642" fill="white" transform="translate(1285 179)" />
        </clipPath>
        <clipPath id="clip16_103_41">
            <rect width="1746" height="443.673" fill="white" transform="translate(1285 179)" />
        </clipPath>
        <clipPath id="clip17_103_41">
            <rect width="1746" height="443.673" fill="white" transform="translate(1285 179)" />
        </clipPath>
        <clipPath id="clip18_103_41">
            <rect width="1079.03" height="101.413" fill="white"
                transform="translate(1618.49 719.587)" />
        </clipPath>
        <clipPath id="clip19_103_41">
            <rect width="1079.03" height="101.413" fill="white"
                transform="translate(1618.49 719.587)" />
        </clipPath>
    </defs>
</svg>
    