<svg width="400" height="400" viewBox="0 0 400 400" fill="none" xmlns="http://www.w3.org/2000/svg">
    <path d="M249.924 0H87.3625C83.39 0 80.1699 4.01879 80.1699 8.97622V157.084C80.1699 162.041 83.39 166.06 87.3625 166.06H249.924C253.896 166.06 257.117 162.041 257.117 157.084V8.97622C257.117 4.01879 253.896 0 249.924 0Z" fill="#F2F6FB"/>
    <path d="M80.1699 9.05867C80.1699 4.05571 83.3345 0 87.2387 0H247.398C251.302 0 254.467 4.0536 254.467 9.05867V18.9499H80.1699V9.05867Z" fill="#E1E5F0"/>
    <path d="M91.3711 13.7789C93.7681 13.7789 95.7114 11.9361 95.7114 9.66288C95.7114 7.38969 93.7681 5.54688 91.3711 5.54688C88.9745 5.54688 87.0312 7.38969 87.0312 9.66288C87.0312 11.9361 88.9745 13.7789 91.3711 13.7789Z" fill="#FF5645"/>
    <path d="M105.533 13.7789C107.93 13.7789 109.873 11.9361 109.873 9.66288C109.873 7.38969 107.93 5.54688 105.533 5.54688C103.137 5.54688 101.193 7.38969 101.193 9.66288C101.193 11.9361 103.137 13.7789 105.533 13.7789Z" fill="#FFCB3D"/>
    <path d="M120.153 13.7789C122.55 13.7789 124.493 11.9361 124.493 9.66288C124.493 7.38969 122.55 5.54688 120.153 5.54688C117.756 5.54688 115.812 7.38969 115.812 9.66288C115.812 11.9361 117.756 13.7789 120.153 13.7789Z" fill="#3ABF7C"/>
    <path d="M88.9283 31.4551H93.9246C94.3216 31.4551 94.6439 31.8581 94.6439 32.3553V34.4988C94.6439 34.9959 94.3216 35.399 93.9246 35.399H88.9283C88.5309 35.399 88.209 34.9959 88.209 34.4988V32.3553C88.209 31.8581 88.5309 31.4551 88.9283 31.4551ZM225.669 31.4551H248.361C248.758 31.4551 249.08 31.8581 249.08 32.3553V34.4988C249.08 34.9959 248.758 35.399 248.361 35.399H225.669C225.272 35.399 224.95 34.9959 224.95 34.4988V32.3553C224.95 31.8581 225.272 31.4551 225.669 31.4551ZM182.234 31.4551H204.926C205.323 31.4551 205.645 31.8581 205.645 32.3553V34.4988C205.645 34.9959 205.323 35.399 204.926 35.399H182.234C181.836 35.399 181.514 34.9959 181.514 34.4988V32.3553C181.514 31.8581 181.836 31.4551 182.234 31.4551ZM209.582 31.4551H221.013C221.41 31.4551 221.732 31.8581 221.732 32.3553V34.4988C221.732 34.9959 221.41 35.399 221.013 35.399H209.582C209.185 35.399 208.862 34.9959 208.862 34.4988V32.3553C208.862 31.8581 209.185 31.4551 209.582 31.4551Z" fill="#D8DEED"/>
    <path d="M96.9658 59.959H143.811C144.209 59.959 144.531 60.3614 144.531 60.8572V66.9307C144.531 67.4269 144.209 67.8288 143.811 67.8288H96.9658C96.5681 67.8288 96.2461 67.4269 96.2461 66.9307V60.8572C96.2461 60.3614 96.5681 59.959 96.9658 59.959ZM96.9658 72.7477H135.764C136.161 72.7477 136.484 73.1501 136.484 73.6459V79.7198C136.484 80.2156 136.161 80.618 135.764 80.618H96.9658C96.5681 80.618 96.2461 80.2156 96.2461 79.7198V73.6459C96.2461 73.1501 96.5681 72.7477 96.9658 72.7477ZM96.9658 98.3252H119.669C120.066 98.3252 120.388 98.7275 120.388 99.2233V105.297C120.388 105.793 120.066 106.195 119.669 106.195H96.9658C96.5681 106.195 96.2461 105.793 96.2461 105.297V99.2233C96.2461 98.7275 96.5681 98.3252 96.9658 98.3252ZM96.9658 85.5364H143.811C144.209 85.5364 144.531 85.9388 144.531 86.4346V92.5086C144.531 93.0044 144.209 93.4067 143.811 93.4067H96.9658C96.5681 93.4067 96.2461 93.0044 96.2461 92.5086V86.4346C96.2461 85.9388 96.5681 85.5364 96.9658 85.5364Z" fill="#E1E5F0"/>
    <path d="M146.387 122.902H189.312C191.441 122.902 192.358 123.215 193.237 123.801C194.116 124.388 194.806 125.248 195.276 126.345C195.746 127.442 195.996 128.587 195.996 131.242V134.218C195.996 136.873 195.746 138.018 195.276 139.115C194.806 140.212 194.116 141.072 193.237 141.659C192.358 142.245 191.441 142.558 189.312 142.558H146.387C144.259 142.558 143.341 142.245 142.463 141.659C141.583 141.072 140.894 140.212 140.424 139.115C139.953 138.018 139.703 136.873 139.703 134.218V131.242C139.703 128.587 139.953 127.442 140.424 126.345C140.894 125.248 141.583 124.388 142.463 123.801C143.341 123.215 144.259 122.902 146.387 122.902Z" fill="#3ABF7C"/>
    <path d="M227.052 79.2309V89.5558C227.052 92.5919 225.523 95.2999 223.232 96.3207C217.86 98.7144 212.488 99.9113 207.116 99.9113C201.744 99.9113 196.372 98.7144 191 96.3207C188.71 95.2999 187.18 92.5919 187.18 89.5558V79.8644L171.143 72.7991C170.51 72.5204 170.018 71.8901 169.81 71.0937C169.441 69.6791 170.06 68.159 171.193 67.698L203.252 54.662C205.995 53.5469 208.957 53.6066 211.67 54.8321L240.206 67.7254C240.79 67.9889 241.254 68.5532 241.481 69.2746C241.916 70.6596 241.369 72.2223 240.259 72.7655L227.052 79.2309Z" fill="#26542F"/>
    <path opacity="0.176986" d="M227.058 79.2305V89.5559C227.058 92.5921 225.529 95.3002 223.239 96.3211C217.868 98.7149 212.497 99.9118 207.126 99.9118C201.755 99.9118 196.384 98.7149 191.013 96.3211C188.722 95.3002 187.193 92.5921 187.193 89.5559V79.8639L202.947 86.8056C205.88 88.0977 209.087 88.029 211.983 86.6112L227.058 79.2305Z" fill="#444444"/>
    <path d="M232.812 88.5579V76.9988L206.921 69.7641C206.451 69.6326 206.157 69.0604 206.264 68.4859C206.372 67.9114 206.841 67.5519 207.311 67.6834L233.881 75.1074C234.278 75.2187 234.56 75.6505 234.56 76.1478V88.5579C235.48 88.9874 236.133 90.0753 236.133 91.35C236.133 92.4483 235.648 93.4083 234.925 93.9276C234.988 94.0668 235.036 94.1902 235.068 94.297C236.593 99.3611 238.53 104.731 234.107 105.006C231.565 105.164 231.154 101.551 232.873 94.1691C231.921 93.7602 231.239 92.6521 231.239 91.35C231.239 90.0753 231.892 88.9874 232.812 88.5579Z" fill="#474961"/>
    <path d="M270.779 7.18023C270.779 4.70218 272.39 2.69336 274.375 2.69336H306.593L319.683 19.0103V70.4774C319.683 72.9562 318.069 74.9659 316.087 74.9659H274.375C272.389 74.9659 270.779 72.9575 270.779 70.4792V7.18023Z" fill="#F2F6FB"/>
    <path d="M304.704 42.6362L288.396 52.8712C288.272 52.9493 288.12 52.8869 288.058 52.7317C288.041 52.6881 288.031 52.6397 288.031 52.5908V32.1207C288.031 31.9472 288.144 31.8066 288.283 31.8066C288.322 31.8066 288.361 31.8181 288.396 31.8402L304.704 42.0751C304.828 42.1531 304.878 42.3419 304.816 42.4968C304.791 42.557 304.752 42.6059 304.704 42.6362Z" fill="#D8DEED"/>
    <path d="M277.979 2.73242L295.081 19.2897L279.035 22.0922C276.48 22.5384 274.764 20.8927 275.203 18.4118L277.979 2.73242Z" fill="#D8DEED"/>
    <path d="M270.779 96.059C270.779 93.5821 272.39 91.5742 274.375 91.5742H306.593L319.683 107.884V159.328C319.683 161.806 318.069 163.815 316.087 163.815H274.375C272.389 163.815 270.779 161.807 270.779 159.33V96.059Z" fill="#F2F6FB"/>
    <path d="M306.606 91.5742L319.683 107.884L307.414 110.645C305.46 111.084 304.148 109.463 304.484 107.019L306.606 91.5742Z" fill="#D8DEED"/>
    <path d="M281.938 141.174V122.122C281.938 121.735 282.071 121.367 282.304 121.112C284.138 119.097 286.379 118.252 289.026 118.578C291.851 118.925 293.724 120.714 294.644 123.945V144.77C294.644 145.018 294.483 145.219 294.285 145.219C294.173 145.219 294.067 145.154 293.999 145.042C292.729 142.963 291.29 141.663 289.683 141.141C288.094 140.625 286.012 141.049 283.438 142.413C282.889 142.704 282.256 142.385 282.023 141.701C281.967 141.534 281.938 141.355 281.938 141.174ZM308.7 141.174C308.7 141.355 308.671 141.534 308.614 141.701C308.382 142.385 307.748 142.704 307.2 142.413C304.626 141.049 302.544 140.625 300.955 141.141C299.348 141.663 297.909 142.963 296.639 145.042C296.571 145.154 296.465 145.219 296.353 145.219C296.154 145.219 295.994 145.018 295.994 144.77V123.945C296.914 120.714 298.787 118.925 301.612 118.578C304.258 118.252 306.499 119.097 308.334 121.112C308.567 121.367 308.7 121.735 308.7 122.122V141.174Z" fill="#D8DEED"/>
    <path d="M70.1026 317.78H329.897L348.328 222.273C351.743 204.576 365.457 193.099 379.875 195.876C380.526 196.002 381.169 196.161 381.81 196.353C394.558 200.185 402.405 216.189 399.334 232.099L378.573 339.683C375.157 357.38 361.444 368.857 347.028 366.079C346.377 365.954 345.731 365.795 345.091 365.603C337.333 363.271 331.391 356.433 328.619 347.851H71.3807C68.6087 356.433 62.6666 363.271 54.9094 365.603C54.2693 365.795 53.6227 365.954 52.9721 366.079C38.5568 368.857 24.8421 357.38 21.4269 339.683L0.665441 232.099C-2.40482 216.189 5.44093 200.185 18.1894 196.353C18.8295 196.161 19.4758 196.002 20.1266 195.876C34.5419 193.099 48.2567 204.576 51.6717 222.273L70.1026 317.78Z" fill="#E1E5F0"/>
    <path d="M90.254 195.688H309.628C329.49 195.688 345.591 215.786 345.591 240.577V317.788H54.291V240.577C54.291 215.786 70.3923 195.688 90.254 195.688Z" fill="#F2F6FB"/>
    <path d="M45.4624 372.55L35.5458 393.987C34.0064 397.314 30.597 398.455 27.9308 396.533C25.2645 394.612 24.351 390.357 25.8904 387.029L33.799 369.934C31.4856 367.674 29.9988 364.157 29.9988 360.207C29.9988 353.39 34.4268 347.863 39.8892 347.863H359.257C364.719 347.863 369.147 353.39 369.147 360.207C369.147 363.915 367.837 367.241 365.762 369.504L373.872 387.029C375.412 390.357 374.498 394.612 371.83 396.533C369.165 398.455 365.755 397.314 364.216 393.987L354.299 372.55H45.4624Z" fill="#D8DEED"/>
    <path d="M194.664 395.953C194.815 395.895 194.975 395.863 195.139 395.863H215.097C215.996 395.863 216.752 396.808 216.752 397.932C216.752 399.056 215.996 400 215.097 400H197.946H140.407C139.514 400 138.789 399.094 138.789 397.976C138.789 396.859 139.514 395.953 140.407 395.953H194.664Z" fill="#FFCB3D"/>
    <path d="M197.934 395.975H195.144C194.98 395.975 194.82 396.007 194.669 396.065H140.401C140.14 396.065 139.894 396.142 139.675 396.28L139.143 367.212L166.069 367.691L171.172 349.723L194.839 358.679C196.021 363.694 197.239 368.709 198.456 373.769C199.101 376.411 199.745 379.008 200.39 381.606C202.395 382.59 204.114 383.486 205.332 384.158C207.66 385.412 209.63 386.576 211.778 388.322C211.778 388.322 213.64 389.755 214.679 391.815C215.001 392.487 215.288 393.248 215.467 394.054C215.539 394.412 215.539 394.77 215.574 395.084C215.563 395.378 215.51 395.706 215.442 396.02C215.334 395.991 215.221 395.975 215.107 395.975H197.941C197.957 395.912 197.964 395.846 197.963 395.78C197.962 395.846 197.952 395.912 197.934 395.975Z" fill="#474961"/>
    <path opacity="0.176986" d="M197.996 395.963C198.021 395.862 198.025 395.757 198.007 395.649C197.971 395.29 197.971 394.931 197.899 394.616C197.468 392.461 196.101 390.666 195.309 389.723C193.69 388.421 192.071 387.254 190.308 386.221C183.941 382.271 182.106 382.315 177.932 378.769C176.206 377.287 174.623 375.626 173.148 373.741L166.957 367.725L166.111 367.71L171.222 349.723L194.894 358.676C196.076 363.69 197.294 368.704 198.511 373.763C199.156 376.404 199.801 379 200.445 381.597C202.451 382.582 204.171 383.477 205.389 384.148C207.717 385.402 209.687 386.566 211.836 388.312C211.836 388.312 213.699 389.744 214.737 391.804C215.06 392.475 215.347 393.236 215.526 394.042C215.597 394.4 215.597 394.758 215.633 395.072C215.622 395.37 215.567 395.705 215.498 396.023C215.372 395.984 215.242 395.963 215.108 395.963H197.996Z" fill="#444444"/>
    <path d="M174.198 337.426C174.327 341.256 174.5 344.441 174.749 346.779C174.791 347.364 174.767 351.666 174.123 353.194C172.123 357.87 161.035 356.496 151.159 356.839C141.284 357.182 135.84 358.387 132.901 355.549C131.291 354.003 131.052 351.227 130.956 350.257C130.515 345.323 130.002 340.324 129.462 335.299C117.153 341.395 109.411 345.01 106.238 346.145C103.098 347.268 99.6179 347.57 96.4534 347.754C69.4858 359.981 54.9665 340.254 53.4374 335.568C47.5961 317.671 49.4062 302.944 54.3638 292.493C57.5609 285.754 82.0763 269.438 127.909 243.546C128.937 242.965 131.195 241.534 134.683 239.251C138.751 236.534 144.114 235.016 150.771 234.697C152.309 234.623 153.848 234.762 155.361 235.111C164.969 237.327 170.145 241.601 170.887 247.931C170.898 248.008 170.903 248.047 170.914 248.123C171.242 250.844 171.53 253.712 171.784 256.69C173.458 256.248 175.047 255.784 176.548 255.295C176.553 255.291 176.558 255.287 176.563 255.282C180.516 251.881 195.12 249.073 202.257 252.944C211.08 257.728 216.262 269.272 214.925 281.162C213.015 298.139 211.923 307.342 211.647 308.771C211.236 310.962 206.246 335.732 204.425 344.822C204.025 346.886 202.271 348.451 200.022 348.733C197.544 349.063 182.42 341.681 174.198 337.426Z" fill="#26542F"/>
    <path opacity="0.176986" d="M174.344 337.506C173.74 318.027 174.175 282.897 171.941 256.726C173.59 256.29 175.155 255.831 176.636 255.35C176.641 255.345 176.646 255.341 176.651 255.337C180.604 251.935 195.209 249.128 202.345 252.998C211.168 257.783 216.35 269.326 215.013 281.216C213.103 298.192 212.011 307.394 211.735 308.823C211.324 311.014 206.334 335.782 204.513 344.873C204.113 346.936 202.359 348.501 200.11 348.784C197.638 349.113 182.578 341.766 174.344 337.506ZM129.615 335.317C117.269 341.433 109.506 345.059 106.327 346.195C103.332 347.266 100.027 347.591 96.9824 347.778C97.5021 347.538 98.0261 347.287 98.5544 347.023C110.05 341.282 119.873 332.559 128.024 320.853C128.554 325.675 129.097 330.508 129.615 335.317Z" fill="#444444"/>
    <path d="M92.9136 264.098C73.2946 276.126 61.1264 284.772 56.4096 290.035L54.987 290.919C47.809 279.003 44.9053 262.868 46.2761 242.514C42.8473 241.467 39.9072 240.395 38.5637 239.61C35.8772 238.04 35.1498 234.604 36.3817 229.304C37.4137 224.21 39.5016 218.305 42.6448 211.586C46.3807 203.601 51.6514 203.369 55.0532 203.901C58.0242 201.14 72.5067 200.826 75.2238 201.513C79.4984 202.635 85.8371 204.206 89.3104 210.641C90.4256 212.647 90.9441 214.597 91.2142 215.991C91.2142 215.991 91.7327 217.941 92.1009 220.066C92.9474 224.925 94.6261 241.929 92.9136 264.098Z" fill="#4D7E3E"/>
    <path d="M135.371 200.169L99.5512 240.41C98.739 241.323 98.6735 242.884 99.4048 243.897C100.136 244.91 101.387 244.992 102.199 244.079L138.018 203.838C138.83 202.926 138.896 201.365 138.165 200.352C137.433 199.339 136.182 199.257 135.371 200.169Z" fill="#474961"/>
    <path d="M122.835 213.553L101.461 196.34C100.133 195.27 98.4004 195.409 97.1918 196.68L76.2658 218.701C74.7476 220.298 74.5552 223.129 75.8357 225.023C76.05 225.34 76.2989 225.619 76.5747 225.851L100.535 245.996L123.279 220.669C124.761 219.019 124.89 216.183 123.567 214.335C123.352 214.034 123.106 213.771 122.835 213.553Z" fill="#26542F"/>
    <path d="M63.8316 185.136C62.756 183.398 61.7925 181.763 61.2808 180.418C60.5224 178.46 60.9176 172.75 62.3518 170.472C63.7863 168.195 75.1608 157.659 75.3043 157.646C76.5163 157.406 83.3459 156.405 87.218 162.455C87.5708 162.965 87.8905 163.522 88.1818 164.216C88.8125 165.825 89.1642 167.595 89.1571 169.395L89.1013 177.408C89.0747 178.22 89.0121 179.035 88.9114 179.809C88.1868 185.541 86.7591 190.299 85.1285 193.366C83.9242 195.676 82.5594 197.055 81.3061 197.209C80.9501 197.285 79.0103 197.409 76.7026 196.756C76.5519 196.707 76.5914 196.748 75.6528 196.333L75.8449 201.613C78.9581 202.426 82.9891 203.547 86.2319 206.497C81.6024 209.571 76.4756 210.954 70.8515 210.647C68.4323 210.515 65.8815 210.109 63.199 209.432C61.2082 206.491 58.7825 204.759 57.4281 204.48C56.811 204.352 55.9742 204.141 54.9942 204.001C55.0115 203.983 55.0284 203.964 55.0456 203.946C56.2288 202.73 59.6294 201.975 63.3411 201.564L63.5723 185.034L63.8316 185.136ZM94.1663 249.458C94.2497 249.457 94.3331 249.451 94.4158 249.439C94.3356 249.444 94.2554 249.443 94.1752 249.438C94.1724 249.444 94.1695 249.451 94.1663 249.458ZM98.9769 244.552L100.502 245.819L101.919 244.246C101.966 244.202 102.011 244.155 102.055 244.106L102.902 243.154L123.134 220.686C123.416 220.374 123.649 220.018 123.832 219.634L129.951 212.759C132.721 211.05 134.871 210.375 135.588 211.634C135.588 211.634 124.863 226.15 119.198 233.769C117.716 238.618 115.519 244.818 112.608 252.37C105.356 256.602 98.7784 260.526 92.8766 264.145C93.2568 259.415 93.4801 254.916 93.5883 250.717C86.5426 265.78 75.6517 278.508 60.9158 288.903C42.0708 302.196 38.9989 256.875 38.5098 239.378C38.5792 239.42 38.65 239.462 38.7219 239.503C42.5868 241.662 60.509 246.639 63.8298 245.965C63.9255 245.951 64.0175 245.924 64.1064 245.882L63.5418 256.756L84.4503 238.221C84.4546 238.214 84.4589 238.207 84.4632 238.201L94.8693 221.578C95.6641 220.309 97.1332 220.084 98.1505 221.075C98.4692 221.386 98.7058 221.78 98.8561 222.213L99.1571 221.656C99.8789 220.32 101.332 219.967 102.402 220.869C103.108 221.462 103.471 222.453 103.429 223.442C103.991 223.375 104.573 223.559 105.059 224.016L105.065 224.022C106.052 224.95 106.249 226.7 105.506 227.932C105.486 227.965 105.465 227.997 105.444 228.028L105.292 228.26C106.027 228.042 106.834 228.273 107.428 228.964C108.372 230.063 108.424 231.909 107.543 233.087L98.9769 244.552ZM175.466 337.881C181.779 341.119 191.237 345.739 196.555 347.701L194.844 358.673L174.626 351.024C174.783 349.69 174.777 348.338 174.751 347.972C174.524 345.843 174.363 342.991 174.245 339.574C174.226 338.903 174.205 338.202 174.181 337.471L175.466 337.881ZM139.167 357.363C142.134 357.418 146.029 357.012 151.176 356.834C154.851 356.706 158.693 356.816 162.172 356.764L166.391 366.586L166.08 367.68L139.192 367.202L139.167 357.363Z" fill="#F2A98A"/>
    <path opacity="0.2" d="M93.4911 250.385C93.6345 250.075 93.7761 249.764 93.9163 249.452C94.5845 249.498 95.2639 249.188 95.7563 248.529L98.7815 244.478L100.394 245.818L101.809 244.245C101.856 244.201 101.901 244.154 101.945 244.104L102.792 243.153L123.014 220.684C123.296 220.372 123.528 220.016 123.712 219.633L129.827 212.758C132.597 211.048 134.745 210.373 135.462 211.632C135.462 211.632 124.752 226.135 119.088 233.757C117.608 238.631 115.417 244.883 112.559 252.33C105.284 256.577 98.6884 260.515 92.7715 264.145C93.1611 259.289 93.3861 254.679 93.4911 250.385Z" fill="#8C2A00"/>
    <path d="M75.643 196.349L70.6309 194.244L75.8127 201.587L75.643 196.349Z" fill="#482D1F"/>
    <path d="M81.3524 157.852C83.3628 158.494 85.475 159.791 87.0796 162.298C87.4329 162.808 87.7524 163.365 88.0438 164.06C88.3223 164.77 88.546 165.511 88.709 166.272L70.4844 174.204L72.8218 158.882C76.3084 158.248 79.152 157.905 81.3524 157.852Z" fill="#482D1F"/>
    <path d="M82.773 158.808C76.3925 166.604 72.3293 171.696 70.5836 174.087C70.5192 174.203 70.4544 174.324 70.3893 174.447C70.312 174.04 70.0123 172.718 69.19 171.441C69.113 171.357 68.4479 170.426 67.4874 170.015C65.7556 169.356 63.5832 170.49 62.4709 172.522C61.2896 174.605 61.4378 177.246 62.2324 179.201C63.0271 181.156 64.4077 181.981 64.889 182.209L66.8262 182.67L67.0219 182.559C65.5977 186.318 64.2998 189.701 63.4688 189.946C61.958 190.391 59.6283 186.366 57.9833 184.416C56.9379 183.177 54.427 179.123 53.6759 173.476C53.4525 171.608 52.6233 165.273 55.7418 160.282C56.8304 158.548 58.1229 157.641 58.6542 157.247C60.4615 156.045 67.401 155.358 72.733 154.994C71.7174 153.031 71.0998 148.962 70.8803 142.789C70.8732 142.586 70.9214 142.386 71.0174 142.222C71.2509 141.82 71.7009 141.732 72.0221 142.023C76.4393 146.029 79.2505 148.94 80.4556 150.755C81.3406 148.998 83.9224 146.952 88.2017 144.615C88.3521 144.533 88.5204 144.517 88.6787 144.571C89.0622 144.701 89.2885 145.195 89.1845 145.673C87.4096 153.819 86.0592 158.099 85.1332 158.512C84.6242 158.739 83.8375 158.837 82.773 158.808Z" fill="#5BA959"/>
    <path d="M87.3428 178.956C87.4203 178.41 87.8274 177.969 88.2621 178.021C88.551 178.041 88.7808 178.29 88.9233 178.908C89.1186 180.465 87.868 182.553 87.4214 181.648C87.1023 181.091 87.2448 179.774 87.3428 178.956ZM79.4637 178.414C79.5412 177.867 79.9483 177.427 80.383 177.479C80.672 177.499 80.9017 177.748 81.0442 178.365C81.2395 179.923 79.9889 182.011 79.5423 181.105C79.2232 180.549 79.3657 179.232 79.4637 178.414Z" fill="#482D1F"/>
    <path d="M84.6717 179.56L84.958 184.011C84.9591 184.028 84.9084 184.101 84.8912 184.102C84.695 184.119 84.4939 184.121 84.1792 184.111C84.1181 184.108 84.0542 184.106 83.9618 184.102C83.8458 184.098 83.7822 184.095 83.7215 184.093C83.5131 184.085 83.3407 184.08 83.1564 184.076C82.9581 184.072 82.7943 184.268 82.7911 184.515C82.7878 184.761 82.9459 184.965 83.1442 184.969C83.3249 184.972 83.4941 184.978 83.6996 184.986C83.7599 184.988 83.8232 184.99 83.9392 184.995C84.0326 184.999 84.0973 185.001 84.1598 185.003C84.496 185.014 84.7177 185.012 84.9415 184.993C85.3542 184.957 85.7034 184.458 85.6747 183.945L85.388 179.489C85.3722 179.243 85.199 179.06 85.0011 179.08C84.8035 179.099 84.6559 179.314 84.6717 179.56Z" fill="#482D1F"/>
    <path d="M82.5814 187.549C82.3227 187.435 81.6922 187.129 81.6314 186.681C81.6263 186.591 81.5828 186.459 81.6522 186.408C81.8189 186.167 82.2622 186.354 82.9212 186.523C84.09 186.782 85.0286 186.79 85.0286 186.79C85.0286 186.79 84.7097 187.543 84.5042 187.742C84.1037 188.32 82.9532 187.742 82.5814 187.549Z" fill="#482D1F"/>
    <path d="M73.874 177.219L71.7262 176.599C71.4359 176.515 71.2554 176.154 71.3227 175.792C71.3899 175.43 71.6798 175.205 71.97 175.289L74.279 175.956C75.0778 174.08 76.612 172.743 78.4376 172.584C81.2511 172.339 83.6917 174.983 83.8884 178.488C83.8931 178.572 83.8964 178.656 83.8985 178.739L84.9918 178.81C85.3209 175.899 87.245 173.569 89.6932 173.355C92.5067 173.11 94.9473 175.754 95.144 179.26C95.3408 182.766 93.2195 185.806 90.4056 186.052C87.5939 186.297 85.1548 183.657 84.9552 180.154L83.8183 180.08C83.4094 182.872 81.5266 185.073 79.1501 185.28C76.3365 185.525 73.8959 182.882 73.6992 179.376C73.6571 178.628 73.7208 177.902 73.874 177.219ZM75.0317 177.135C74.8271 177.798 74.7332 178.527 74.7756 179.282C74.9307 182.048 76.8555 184.133 79.0749 183.939C81.2939 183.746 82.9674 181.347 82.812 178.582C82.657 175.817 80.7322 173.732 78.5128 173.925C76.9889 174.058 75.7226 175.23 75.1288 176.847C75.127 176.861 75.1249 176.875 75.1223 176.889C75.1051 176.981 75.0738 177.064 75.0317 177.135ZM86.0212 179.671C86.0208 179.798 86.024 179.926 86.0312 180.054C86.1862 182.819 88.1111 184.904 90.3305 184.711C92.5495 184.517 94.223 182.119 94.0676 179.354C93.9126 176.588 91.9877 174.503 89.7683 174.697C87.7255 174.875 86.1452 176.922 86.0284 179.403C86.0348 179.451 86.0373 179.501 86.0352 179.551C86.0334 179.593 86.0287 179.633 86.0212 179.671Z" fill="#482D1F"/>
    <path d="M128.365 321.15L125.264 283.667C125.233 283.297 124.968 283.028 124.672 283.066C124.375 283.104 124.16 283.435 124.19 283.805L127.292 321.288C127.322 321.658 127.588 321.927 127.884 321.888C128.18 321.85 128.396 321.519 128.365 321.15Z" fill="#482D1F"/>
    <path d="M66.289 235.318C66.289 235.318 66.6133 242.891 64.1836 245.675" stroke="#482D1F" stroke-width="3" stroke-linecap="round" stroke-linejoin="round"/>
    <path d="M251.002 320.48H316.805C318.393 320.48 319.681 322.088 319.681 324.072V331.254C319.681 333.237 318.393 334.845 316.805 334.845H251.002C249.413 334.845 248.125 333.237 248.125 331.254V324.072C248.125 322.088 249.413 320.48 251.002 320.48ZM247.406 263.021H313.209C314.798 263.021 316.086 264.629 316.086 266.613V273.795C316.086 275.778 314.798 277.386 313.209 277.386H247.406C245.818 277.386 244.53 275.778 244.53 273.795V266.613C244.53 264.629 245.818 263.021 247.406 263.021ZM239.855 291.751H305.658C307.246 291.751 308.534 293.359 308.534 295.342V302.524C308.534 304.508 307.246 306.116 305.658 306.116H239.855C238.267 306.116 236.979 304.508 236.979 302.524V295.342C236.979 293.359 238.267 291.751 239.855 291.751Z" fill="#3ABF7C"/>
    <path d="M257.463 306.116H323.274C324.863 306.116 326.151 307.724 326.151 309.707V316.89C326.151 318.873 324.863 320.481 323.274 320.481H257.463C255.874 320.481 254.586 318.873 254.586 316.89V309.707C254.586 307.724 255.874 306.116 257.463 306.116ZM259.621 277.387H325.432C327.021 277.387 328.309 278.995 328.309 280.978V288.16C328.309 290.143 327.021 291.751 325.432 291.751H259.621C258.032 291.751 256.744 290.143 256.744 288.16V280.978C256.744 278.995 258.032 277.387 259.621 277.387Z" fill="#474961"/>
    <path d="M250.81 268.408H316.095V272.448H250.81C249.916 272.448 249.192 271.544 249.192 270.428C249.192 269.313 249.916 268.408 250.81 268.408ZM256.745 282.773H320.771V286.813H256.745V282.773ZM244.516 297.138H308.541V301.178H244.516V297.138ZM254.587 311.502H318.612V315.542H254.587V311.502ZM255.666 325.867H319.692V329.907H255.666V325.867Z" fill="#D8DEED"/>
    </svg>
    