<svg xmlns="http://www.w3.org/2000/svg" width="129" height="129" viewBox="0 0 129 129" fill="none"><rect width="129" height="129" rx="64.5" fill="#FF763B" fill-opacity="0.17"></rect><path d="M75.6663 54.3333H54.333V75.6666H75.6663V54.3333Z" fill="#FF763B"></path><path opacity="0.4" d="M46.333 91.6667C50.733 91.6667 54.333 88.0667 54.333 83.6667V75.6667H46.333C41.933 75.6667 38.333 79.2667 38.333 83.6667C38.333 88.0667 41.933 91.6667 46.333 91.6667Z" fill="#FF763B"></path><path opacity="0.4" d="M46.333 54.3333H54.333V46.3333C54.333 41.9333 50.733 38.3333 46.333 38.3333C41.933 38.3333 38.333 41.9333 38.333 46.3333C38.333 50.7333 41.933 54.3333 46.333 54.3333Z" fill="#FF763B"></path><path opacity="0.4" d="M75.667 54.3333H83.667C88.067 54.3333 91.667 50.7333 91.667 46.3333C91.667 41.9333 88.067 38.3333 83.667 38.3333C79.267 38.3333 75.667 41.9333 75.667 46.3333V54.3333Z" fill="#FF763B"></path><path opacity="0.4" d="M83.667 91.6667C88.067 91.6667 91.667 88.0667 91.667 83.6667C91.667 79.2667 88.067 75.6667 83.667 75.6667H75.667V83.6667C75.667 88.0667 79.267 91.6667 83.667 91.6667Z" fill="#FF763B"></path></svg>