<svg width="1382" height="710" viewBox="0 0 1382 710" fill="none" xmlns="http://www.w3.org/2000/svg">
    <path d="M263.2 388.8C266.4 396.533 270.933 404 276.8 411.2C282.667 418.133 287.733 423.333 292 426.8C285.6 440.133 277.733 449.867 268.4 456C260.667 461.067 252.4 464 243.6 464.8C238.8 465.333 233.333 464.933 227.2 463.6C221.067 462.267 214.667 458.533 208 452.4C201.6 446 195.2 435.867 188.8 422C186.933 417.467 182.8 414.267 176.4 412.4C170 410.533 163.2 409.467 156 409.2C148.8 408.667 142.933 408.4 138.4 408.4C133.867 408.4 128.267 408.533 121.6 408.8C115.2 409.067 109.333 410.133 104 412C98.6667 413.867 95.4667 417.2 94.4 422C93.3333 426.267 93.2 430.667 94 435.2C94.8 439.733 96.5333 442.667 99.2 444C94.6667 448.267 90.1333 452 85.6 455.2C81.3333 458.4 76.9333 460.933 72.4 462.8C66.8 465.2 60.9333 466.4 54.8 466.4C48.9333 466.4 42.2667 465.067 34.8 462.4C31.3333 461.067 27.7333 458.667 24 455.2C20.2667 451.733 17.7333 446.933 16.4 440.8C15.0667 434.667 16.1333 426.933 19.6 417.6C19.8667 416.8 21.2 412.533 23.6 404.8C26 397.067 29.0667 386.933 32.8 374.4C36.8 361.6 41.0667 347.467 45.6 332C50.4 316.533 55.2 300.667 60 284.4C65.0667 267.867 69.8667 252 74.4 236.8C79.2 221.6 83.4667 207.867 87.2 195.6C90.9333 183.333 93.8667 173.6 96 166.4C98.1333 159.2 99.2 155.6 99.2 155.6C101.6 154.267 106 152.667 112.4 150.8C119.067 148.667 126.133 147.467 133.6 147.2C141.867 146.667 149.867 147.733 157.6 150.4C165.6 153.067 171.733 158.4 176 166.4C177.867 169.6 180.667 175.733 184.4 184.8C188.133 193.867 192.533 204.8 197.6 217.6C202.667 230.4 208 244.133 213.6 258.8C219.2 273.2 224.667 287.6 230 302C235.6 316.133 240.667 329.333 245.2 341.6C249.733 353.867 253.6 364.267 256.8 372.8C260 381.067 262.133 386.4 263.2 388.8ZM137.2 337.2C144.133 336.667 148.133 334.667 149.2 331.2C150.533 327.733 151.333 323.733 151.6 319.2C151.6 316.267 151.067 312.667 150 308.4C149.2 304.133 147.867 300.4 146 297.2C144.4 293.733 142.267 292 139.6 292C135.867 292 131.733 294.667 127.2 300C122.933 305.067 120.533 310.267 120 315.6C119.2 320.667 119.6 325.6 121.2 330.4C123.067 335.2 128.4 337.467 137.2 337.2ZM428.213 231.6C447.946 231.6 464.746 234.4 478.613 240C492.746 245.6 503.546 252.533 511.013 260.8C518.479 269.067 522.079 277.2 521.813 285.2C521.813 289.467 519.946 294.267 516.213 299.6C512.479 304.933 507.546 309.467 501.413 313.2C495.546 316.667 489.013 318 481.813 317.2C483.679 312.4 482.479 307.867 478.213 303.6C473.946 299.333 467.813 295.867 459.813 293.2C451.813 290.267 443.146 288.667 433.813 288.4C423.146 287.867 415.946 289.067 412.213 292C408.479 294.667 406.346 297.6 405.813 300.8C405.013 304.267 406.613 307.333 410.612 310C414.613 312.4 419.813 314.667 426.213 316.8C432.879 318.667 439.813 320.4 447.013 322C454.479 323.333 461.279 324.533 467.413 325.6C473.813 326.667 478.746 327.733 482.213 328.8C498.213 333.6 509.946 339.867 517.413 347.6C524.879 355.067 529.679 363.067 531.813 371.6C534.213 380.133 535.146 388.533 534.613 396.8C534.079 410.133 530.613 421.333 524.213 430.4C518.079 439.2 510.346 446.267 501.013 451.6C491.946 456.933 482.346 460.933 472.213 463.6C462.346 466 453.013 467.6 444.213 468.4C435.679 469.2 429.146 469.6 424.613 469.6C410.746 469.333 397.679 467.867 385.413 465.2C373.413 462.8 363.013 459.6 354.213 455.6C345.679 451.6 339.546 447.333 335.813 442.8C333.146 439.6 330.613 435.067 328.213 429.2C325.813 423.333 324.346 417.067 323.813 410.4C323.546 403.467 325.013 396.933 328.213 390.8C331.413 384.4 337.279 379.2 345.813 375.2C347.413 380.533 351.679 385.333 358.613 389.6C365.813 393.867 374.346 397.333 384.213 400C394.346 402.667 404.346 404.533 414.213 405.6C423.813 406.4 432.879 406.267 441.413 405.2C449.946 404.133 454.613 401.067 455.413 396C455.946 393.333 454.613 390.667 451.413 388C448.213 385.333 442.346 383.067 433.813 381.2C424.746 379.067 416.746 377.467 409.813 376.4C403.146 375.067 396.479 373.6 389.813 372C377.279 368.8 366.346 363.733 357.013 356.8C347.679 349.867 340.613 341.6 335.813 332C331.279 322.133 329.679 311.733 331.013 300.8C333.146 285.067 338.879 272.133 348.213 262C357.813 251.867 369.679 244.267 383.813 239.2C397.946 234.133 412.746 231.6 428.213 231.6ZM787.581 391.6C787.848 397.467 788.248 404.667 788.781 413.2C789.581 421.733 791.315 430 793.981 438C796.648 446 800.915 452.4 806.781 457.2C800.115 461.733 793.315 464.933 786.381 466.8C779.448 468.933 772.648 469.467 765.981 468.4C764.115 467.867 762.115 467.2 759.981 466.4C757.848 465.867 754.915 465.067 751.181 464C745.048 462.133 737.848 461.733 729.581 462.8C721.315 463.867 712.648 465.2 703.581 466.8C694.781 468.667 686.115 469.6 677.581 469.6C663.715 469.6 649.848 467.2 635.981 462.4C622.115 457.333 609.581 449.6 598.381 439.2C587.181 428.8 578.648 415.6 572.781 399.6C566.915 383.6 565.181 364.4 567.581 342C569.181 326.533 573.581 312.4 580.781 299.6C587.981 286.533 596.781 275.333 607.181 266C617.848 256.4 629.048 249.067 640.781 244C652.781 238.667 664.381 236.133 675.581 236.4C684.115 236.667 690.648 236.933 695.181 237.2C699.981 237.467 706.115 238.133 713.581 239.2C718.115 239.733 723.848 239.067 730.781 237.2C737.715 235.333 744.648 233.333 751.581 231.2C758.781 228.8 764.915 227.6 769.981 227.6C777.715 227.333 783.181 227.6 786.381 228.4C789.581 228.933 792.248 229.467 794.381 230C792.781 234.8 791.448 242 790.381 251.6C789.315 261.2 788.515 272.133 787.981 284.4C787.715 296.4 787.448 308.933 787.181 322C786.915 335.067 786.781 347.6 786.781 359.6C787.048 371.6 787.315 382.267 787.581 391.6ZM637.181 354.8C637.715 368.133 640.115 378.533 644.381 386C648.915 393.2 654.248 398.267 660.381 401.2C666.781 404.133 672.915 405.6 678.781 405.6C690.515 405.867 699.181 401.333 704.781 392C710.381 382.667 713.048 369.733 712.781 353.2C712.781 348.667 712.248 343.333 711.181 337.2C710.381 331.067 708.781 325.067 706.381 319.2C704.248 313.333 701.181 308.4 697.181 304.4C693.448 300.4 688.515 298.4 682.381 298.4C670.115 298.4 659.315 302.933 649.981 312C640.915 321.067 636.648 335.333 637.181 354.8ZM1056.66 413.2C1056.92 424.933 1058.66 433.2 1061.86 438C1065.32 442.533 1067.06 444.8 1067.06 444.8C1067.06 444.8 1064.66 446.533 1059.86 450C1055.32 453.2 1049.19 456.533 1041.46 460C1033.72 463.467 1025.06 465.2 1015.46 465.2C1001.32 465.2 992.123 461.333 987.856 453.6C983.59 445.867 981.323 435.867 981.056 423.6C981.056 421.467 981.19 416.8 981.456 409.6C981.723 402.4 981.856 394.267 981.856 385.2C982.123 375.867 982.123 367.333 981.856 359.6C981.59 351.6 981.056 346 980.256 342.8C977.323 332.133 971.59 327.467 963.056 328.8C956.39 329.6 950.123 333.467 944.256 340.4C938.39 347.067 933.59 355.067 929.856 364.4C926.123 373.733 924.256 382.533 924.256 390.8C924.256 395.067 923.99 399.333 923.456 403.6C923.19 407.6 922.923 411.333 922.656 414.8C922.39 417.2 922.656 420.133 923.456 423.6C924.523 427.067 926.39 429.867 929.056 432C927.19 435.2 923.456 439.333 917.856 444.4C912.523 449.467 906.656 454.133 900.256 458.4C894.123 462.4 888.79 464.667 884.256 465.2C879.99 465.467 874.923 464.133 869.056 461.2C863.456 458.267 858.523 453.867 854.256 448C850.256 442.133 848.123 435.067 847.856 426.8C847.856 424.667 847.856 419.733 847.856 412C848.123 404.267 848.256 394.933 848.256 384C848.523 373.067 848.656 361.467 848.656 349.2C848.923 336.933 849.056 325.067 849.056 313.6C849.056 302.133 849.056 292.267 849.056 284C849.056 276.8 848.123 269.867 846.256 263.2C844.656 256.267 842.923 250.667 841.056 246.4C839.456 241.867 838.656 239.6 838.656 239.6C841.056 239.067 845.19 238.667 851.056 238.4C857.19 238.133 863.99 238.267 871.456 238.8C878.923 239.333 886.256 240.533 893.456 242.4C900.923 244.267 907.19 247.2 912.256 251.2C917.59 255.2 922.923 257.733 928.256 258.8C933.856 259.6 938.256 259.067 941.456 257.2C950.79 251.067 960.256 245.733 969.856 241.2C979.456 236.667 988.79 233.867 997.856 232.8C1002.39 232.267 1007.72 232.533 1013.86 233.6C1019.99 234.4 1025.99 236.4 1031.86 239.6C1037.99 242.8 1043.19 247.333 1047.46 253.2C1051.99 259.067 1054.79 266.533 1055.86 275.6C1057.72 291.067 1058.26 310 1057.46 332.4C1056.66 354.533 1056.39 381.467 1056.66 413.2ZM1320 391.6C1320.27 397.467 1320.67 404.667 1321.2 413.2C1322 421.733 1323.74 430 1326.4 438C1329.07 446 1333.34 452.4 1339.2 457.2C1332.54 461.733 1325.74 464.933 1318.8 466.8C1311.87 468.933 1305.07 469.467 1298.4 468.4C1296.54 467.867 1294.54 467.2 1292.4 466.4C1290.27 465.867 1287.34 465.067 1283.6 464C1277.47 462.133 1270.27 461.733 1262 462.8C1253.74 463.867 1245.07 465.2 1236 466.8C1227.2 468.667 1218.54 469.6 1210 469.6C1196.14 469.6 1182.27 467.2 1168.4 462.4C1154.54 457.333 1142 449.6 1130.8 439.2C1119.6 428.8 1111.07 415.6 1105.2 399.6C1099.34 383.6 1097.6 364.4 1100 342C1101.6 326.533 1106 312.4 1113.2 299.6C1120.4 286.533 1129.2 275.333 1139.6 266C1150.27 256.4 1161.47 249.067 1173.2 244C1185.2 238.667 1196.8 236.133 1208 236.4C1216.54 236.667 1223.07 236.933 1227.6 237.2C1232.4 237.467 1238.54 238.133 1246 239.2C1250.54 239.733 1256.27 239.067 1263.2 237.2C1270.14 235.333 1277.07 233.333 1284 231.2C1291.2 228.8 1297.34 227.6 1302.4 227.6C1310.14 227.333 1315.6 227.6 1318.8 228.4C1322 228.933 1324.67 229.467 1326.8 230C1325.2 234.8 1323.87 242 1322.8 251.6C1321.74 261.2 1320.94 272.133 1320.4 284.4C1320.14 296.4 1319.87 308.933 1319.6 322C1319.34 335.067 1319.2 347.6 1319.2 359.6C1319.47 371.6 1319.74 382.267 1320 391.6ZM1169.6 354.8C1170.14 368.133 1172.54 378.533 1176.8 386C1181.34 393.2 1186.67 398.267 1192.8 401.2C1199.2 404.133 1205.34 405.6 1211.2 405.6C1222.94 405.867 1231.6 401.333 1237.2 392C1242.8 382.667 1245.47 369.733 1245.2 353.2C1245.2 348.667 1244.67 343.333 1243.6 337.2C1242.8 331.067 1241.2 325.067 1238.8 319.2C1236.67 313.333 1233.6 308.4 1229.6 304.4C1225.87 300.4 1220.94 298.4 1214.8 298.4C1202.54 298.4 1191.74 302.933 1182.4 312C1173.34 321.067 1169.07 335.333 1169.6 354.8Z" fill="#7E84A3"/>
    </svg>
    