<svg width="600" height="600" viewBox="0 0 600 600" fill="none" xmlns="http://www.w3.org/2000/svg">
    <g clip-path="url(#clip0_44_1094)">
    <path d="M600 300C600 134.315 465.685 0 300 0C134.315 0 0 134.315 0 300C0 465.685 134.315 600 300 600C465.685 600 600 465.685 600 300Z" fill="#908EF3" fill-opacity="0.15"/>
    <path d="M363.216 352.93C352.16 362.964 338.352 375.45 313.316 375.45H298.345C280.228 375.45 263.75 368.716 251.955 356.509C240.433 344.582 234.091 328.258 234.091 310.537V289.589C234.091 271.869 240.433 255.545 251.955 243.618C263.75 231.411 280.228 224.687 298.345 224.687H313.316C338.383 224.687 352.16 237.163 363.216 247.197C374.698 257.542 384.601 266.583 411.013 266.583C415.041 266.582 419.063 266.253 423.04 265.6L422.949 265.362C421.367 261.345 419.511 257.445 417.396 253.693L399.744 222.421C391.784 208.324 380.335 196.618 366.549 188.479C352.763 180.34 337.125 176.056 321.206 176.057H285.893C269.974 176.056 254.336 180.34 240.55 188.479C226.764 196.618 215.315 208.324 207.355 222.421L189.703 253.693C181.746 267.792 177.557 283.785 177.557 300.063C177.557 316.342 181.746 332.335 189.703 346.434L207.355 377.705C215.315 391.803 226.764 403.509 240.55 411.648C254.336 419.787 269.974 424.071 285.893 424.07H321.206C337.125 424.071 352.763 419.787 366.549 411.648C380.335 403.509 391.784 391.803 399.744 377.705L417.396 346.485C419.511 342.733 421.367 338.834 422.949 334.816L423.04 334.589C419.065 333.914 415.043 333.568 411.013 333.554C384.601 333.554 374.698 342.544 363.216 352.94" fill="#006BFF"/>
    <path d="M313.316 243.67H298.345C270.769 243.67 252.652 263.811 252.652 289.59V310.538C252.652 336.317 270.769 356.458 298.345 356.458H313.316C353.495 356.458 350.339 314.562 411.012 314.562C416.761 314.555 422.498 315.096 428.148 316.176C429.989 305.517 429.989 294.611 428.148 283.952C422.497 285.027 416.761 285.567 411.012 285.566C350.319 285.566 353.495 243.67 313.316 243.67Z" fill="#006BFF"/>
    <path d="M463.007 331.485C452.675 323.746 440.759 318.508 428.159 316.165C428.159 316.279 428.159 316.372 428.159 316.475C427.074 322.652 425.379 328.7 423.101 334.527C433.51 336.175 443.385 340.335 451.91 346.661C451.91 346.744 451.86 346.847 451.829 346.94C440.857 383.273 417.505 414.375 386.016 434.598C354.527 454.821 316.989 462.822 280.222 457.148C243.454 451.474 209.897 432.502 185.645 403.678C161.392 374.853 148.055 338.089 148.055 300.063C148.055 262.038 161.392 225.273 185.645 196.449C209.897 167.625 243.454 148.652 280.222 142.979C316.989 137.305 354.527 145.306 386.016 165.529C417.505 185.751 440.857 216.854 451.829 253.186C451.829 253.28 451.88 253.383 451.91 253.466C443.387 259.793 433.51 263.949 423.101 265.59C425.377 271.425 427.071 277.479 428.159 283.662C428.153 283.758 428.153 283.855 428.159 283.952C440.758 281.612 452.674 276.377 463.007 268.641C472.94 261.121 471.019 252.628 469.511 247.6C457.23 206.864 431.065 171.985 395.772 149.302C360.479 126.619 318.399 117.637 277.18 123.988C235.961 130.338 198.337 151.601 171.146 183.911C143.954 216.221 129 257.435 129 300.063C129 342.692 143.954 383.906 171.146 416.216C198.337 448.526 235.961 469.788 277.18 476.139C318.399 482.49 360.479 473.508 395.772 450.824C431.065 428.141 457.23 393.263 469.511 352.526C471.019 347.499 472.94 339.006 463.007 331.485Z" fill="#006BFF"/>
    <path d="M423.039 265.589C419.064 266.264 415.042 266.61 411.012 266.623C384.6 266.623 374.697 257.634 363.226 247.237C352.159 237.203 338.382 224.717 313.315 224.717H298.344C280.217 224.717 263.749 231.451 251.954 243.658C240.432 255.585 234.09 271.909 234.09 289.63V310.578C234.09 328.298 240.432 344.622 251.954 356.549C263.749 368.756 280.217 375.48 298.344 375.48H313.315C338.382 375.48 352.159 363.004 363.226 352.97C374.697 342.625 384.6 333.584 411.012 333.584C415.04 333.585 419.062 333.914 423.039 334.567C425.323 328.742 427.017 322.693 428.097 316.515C428.103 316.412 428.103 316.308 428.097 316.205C422.446 315.134 416.709 314.597 410.961 314.602C350.268 314.602 353.444 356.508 313.265 356.508H298.294C270.718 356.508 252.601 336.357 252.601 310.578V289.588C252.601 263.809 270.718 243.668 298.294 243.668H313.265C353.444 243.668 350.288 285.554 410.961 285.554C416.71 285.564 422.446 285.027 428.097 283.95C428.097 283.857 428.097 283.764 428.097 283.661C427.01 277.478 425.315 271.423 423.039 265.589Z" fill="#0AE8F0"/>
    <path d="M423.039 265.589C419.064 266.264 415.042 266.61 411.012 266.623C384.6 266.623 374.697 257.634 363.226 247.237C352.159 237.203 338.382 224.717 313.315 224.717H298.344C280.217 224.717 263.749 231.451 251.954 243.658C240.432 255.585 234.09 271.909 234.09 289.63V310.578C234.09 328.298 240.432 344.622 251.954 356.549C263.749 368.756 280.217 375.48 298.344 375.48H313.315C338.382 375.48 352.159 363.004 363.226 352.97C374.697 342.625 384.6 333.584 411.012 333.584C415.04 333.585 419.062 333.914 423.039 334.567C425.323 328.742 427.017 322.693 428.097 316.515C428.103 316.412 428.103 316.308 428.097 316.205C422.446 315.134 416.709 314.597 410.961 314.602C350.268 314.602 353.444 356.508 313.265 356.508H298.294C270.718 356.508 252.601 336.357 252.601 310.578V289.588C252.601 263.809 270.718 243.668 298.294 243.668H313.265C353.444 243.668 350.288 285.554 410.961 285.554C416.71 285.564 422.446 285.027 428.097 283.95C428.097 283.857 428.097 283.764 428.097 283.661C427.01 277.478 425.315 271.423 423.039 265.589Z" fill="#0AE8F0"/>
    <path d="M302.327 348.934C328.069 348.934 348.936 328.067 348.936 302.325C348.936 276.584 328.069 255.717 302.327 255.717C276.586 255.717 255.719 276.584 255.719 302.325C255.719 328.067 276.586 348.934 302.327 348.934Z" fill="#0AE8F0"/>
    </g>
    <defs>
    <clipPath id="clip0_44_1094">
    <rect width="600" height="600" fill="white"/>
    </clipPath>
    </defs>
    </svg>
    