<svg width="4026" height="3901" viewBox="0 0 4026 3901" fill="none"
    xmlns="http://www.w3.org/2000/svg">
    <ellipse cx="2012.94" cy="1950" rx="1301.54" ry="1261" stroke="#FFB34B" stroke-width="16"
        stroke-linecap="round" stroke-dasharray="3.72 7.43" />
    <ellipse cx="2012.94" cy="1950.5" rx="2002.87" ry="1940.5" stroke="#FFB34B" stroke-width="20"
        stroke-linecap="round" stroke-dasharray="3.72 7.43" />
    <ellipse cx="1998.92" cy="753.565" rx="282.33" ry="273.544" fill="white" />
    <ellipse cx="1998.92" cy="753.565" rx="282.33" ry="273.544" fill="white" />
    <ellipse cx="1998.88" cy="753.614" rx="329.881" ry="319.614" fill="white" fill-opacity="0.3" />
    <ellipse cx="710.916" cy="1949.57" rx="282.33" ry="273.544" fill="white" />
    <ellipse cx="710.916" cy="1949.57" rx="282.33" ry="273.544" fill="white" />
    <ellipse cx="710.881" cy="1949.61" rx="329.881" ry="319.614" fill="white" fill-opacity="0.3" />
    <ellipse cx="1998.92" cy="3142.57" rx="282.33" ry="273.544" fill="white" />
    <ellipse cx="1998.92" cy="3142.57" rx="282.33" ry="273.544" fill="white" />
    <ellipse cx="1998.88" cy="3142.61" rx="329.881" ry="319.614" fill="white" fill-opacity="0.3" />
    <ellipse cx="3313.94" cy="1949.65" rx="282.33" ry="273.544" fill="white" />
    <ellipse cx="3313.94" cy="1949.65" rx="282.33" ry="273.544" fill="white" />
    <ellipse cx="3313.88" cy="1949.61" rx="329.881" ry="319.614" fill="white" fill-opacity="0.3" />
    <ellipse cx="338.94" cy="799.251" rx="282.33" ry="273.544" fill="white" />
    <ellipse cx="338.94" cy="799.251" rx="282.33" ry="273.544" fill="white" />
    <ellipse cx="338.881" cy="799.22" rx="329.881" ry="319.614" fill="white" fill-opacity="0.3" />
    <ellipse cx="338.94" cy="3282.65" rx="282.33" ry="273.544" fill="white" />
    <ellipse cx="338.94" cy="3282.65" rx="282.33" ry="273.544" fill="white" />
    <ellipse cx="338.881" cy="3282.61" rx="329.881" ry="319.614" fill="white" fill-opacity="0.3" />
    <ellipse cx="3595.74" cy="688.645" rx="262.474" ry="273.544" fill="white" />
    <ellipse cx="3595.74" cy="688.645" rx="262.474" ry="273.544" fill="white" />
    <ellipse cx="3595.68" cy="688.614" rx="306.68" ry="319.614" fill="white" fill-opacity="0.3" />
    <ellipse cx="3595.74" cy="3282.65" rx="262.474" ry="273.544" fill="white" />
    <ellipse cx="3595.74" cy="3282.65" rx="262.474" ry="273.544" fill="white" />
    <ellipse cx="3595.68" cy="3282.61" rx="306.68" ry="319.614" fill="white" fill-opacity="0.3" />
    <g clip-path="url(#clip0_228_2)">
        <path d="M2347 1592H1677V2303H2347V1592Z" fill="#4D7E3E" />
        <g clip-path="url(#clip1_228_2)">
            <g clip-path="url(#clip2_228_2)">
                <g clip-path="url(#clip3_228_2)">
                    <path
                        d="M2012.14 1858.9C2045.33 1858.9 2072.24 1830.22 2072.24 1794.85C2072.24 1759.47 2045.33 1730.8 2012.14 1730.8C1978.95 1730.8 1952.04 1759.47 1952.04 1794.85C1952.04 1830.22 1978.95 1858.9 2012.14 1858.9Z"
                        fill="white" />
                    <path
                        d="M1987.3 2130.43H1950.84C1943.06 2130.43 1936.05 2127.46 1931.09 2122.69C1929.21 2121.11 1926.75 2118.38 1925.25 2114.14C1924.19 2111.48 1923.6 2108.61 1923.6 2105.61C1923.6 2103.05 1924.03 2100.58 1924.82 2098.26C1925.14 2096.82 1925.54 2095.32 1926.05 2093.75L1926.96 2093.68C1931.59 2085.99 1940.55 2080.79 1950.84 2080.79H1965.67L1970.9 2068.17H1950.84C1935.8 2068.17 1923.6 2057.05 1923.6 2043.35C1923.6 2029.64 1935.79 2018.52 1950.84 2018.52H1991.49L2013.51 1965.4L1976.46 1879.46C1976.46 1879.46 1895.54 1896.19 1881.37 1966.43L1868.29 2115.69C1868.29 2115.69 1862.84 2156.66 1880.28 2165.45C1897.72 2174.23 1981.63 2174.23 1981.63 2174.23C1981.63 2174.23 2007.58 2150.18 1987.3 2130.43Z"
                        fill="white" />
                    <path
                        d="M2155.99 2115.69L2142.91 1966.43C2128.74 1896.18 2048.38 1877.13 2048.38 1877.13L2020.05 1965.4L1998.79 2018.52H2073.44C2088.48 2018.52 2100.68 2029.63 2100.68 2043.34C2100.68 2057.05 2088.48 2068.16 2073.44 2068.16H1978.92L1973.88 2080.78H2073.44C2083.76 2080.78 2092.74 2086.02 2097.36 2093.72L2098.23 2093.74C2098.75 2095.32 2099.15 2096.83 2099.47 2098.26C2100.26 2100.58 2100.69 2103.05 2100.69 2105.61C2100.69 2108.58 2100.11 2111.44 2099.05 2114.08C2097.56 2118.35 2095.08 2121.11 2093.19 2122.69C2088.23 2127.46 2081.22 2130.43 2073.44 2130.43H2036.98C2016.7 2150.19 2042.66 2174.23 2042.66 2174.23C2042.66 2174.23 2126.56 2174.23 2144 2165.45C2161.44 2156.67 2155.99 2115.69 2155.99 2115.69Z"
                        fill="white" />
                </g>
                <path d="M2314.01 1862.85H1710.28V2032.31H2314.01V1862.85Z" fill="#4D7E3E" />
                <g clip-path="url(#clip4_228_2)">
                    <g clip-path="url(#clip5_228_2)">
                        <g clip-path="url(#clip6_228_2)">
                            <g clip-path="url(#clip7_228_2)">
                                <g clip-path="url(#clip8_228_2)">
                                    <g clip-path="url(#clip9_228_2)">
                                        <path
                                            d="M1772.61 1969.09C1766.59 1969.09 1760.97 1968.38 1755.75 1966.96C1750.53 1965.55 1746.85 1964.12 1744.72 1962.71C1742.57 1961.29 1741.15 1960.28 1740.45 1959.68C1738.63 1958.11 1737.72 1955.95 1737.72 1953.19C1737.72 1951.02 1737.96 1948.97 1738.45 1947.02C1739.36 1943.37 1741.01 1941.54 1743.39 1941.54C1744.17 1941.61 1746.64 1942.47 1750.81 1944.11C1754.98 1945.75 1758.25 1946.58 1760.63 1946.58C1764.2 1946.58 1765.99 1945.08 1765.99 1942.1C1765.99 1940.3 1765.11 1938.64 1763.36 1937.1C1761.61 1935.58 1759.5 1934.1 1757.02 1932.69C1754.52 1931.27 1752.01 1929.64 1749.49 1927.8C1746.97 1925.98 1744.83 1923.44 1743.08 1920.19C1741.33 1916.94 1740.45 1913.16 1740.45 1908.83C1740.45 1901.66 1743.75 1896.03 1750.33 1891.96C1756.92 1887.9 1765.43 1885.86 1775.87 1885.86C1786.31 1885.86 1794.6 1887 1800.74 1889.27C1806.86 1891.55 1809.92 1894.71 1809.92 1898.75C1809.92 1901.66 1809.29 1904.21 1808.03 1906.41C1806.77 1908.62 1805.44 1909.72 1804.04 1909.72C1803.55 1909.72 1801.92 1909.14 1799.16 1907.98C1796.39 1906.83 1793.88 1906.25 1791.64 1906.25C1787.22 1906.25 1785.02 1908.08 1785.02 1911.74C1785.02 1913.53 1786.07 1915.17 1788.17 1916.67C1790.27 1918.16 1792.81 1919.6 1795.8 1920.97C1798.77 1922.36 1801.76 1923.91 1804.77 1925.63C1807.79 1927.35 1810.34 1929.7 1812.45 1932.69C1814.55 1935.67 1815.6 1939.3 1815.6 1943.55C1815.6 1947.81 1814.32 1951.69 1811.77 1955.2C1809.21 1958.71 1805.83 1961.44 1801.62 1963.38C1793.28 1967.19 1783.61 1969.09 1772.61 1969.09V1969.09ZM1832.84 1966.85C1830.88 1966.85 1829.21 1966.16 1827.85 1964.77C1826.48 1963.39 1825.61 1961.12 1825.23 1957.93C1824.83 1954.77 1824.64 1945.25 1824.64 1929.37C1824.64 1913.51 1824.88 1903.15 1825.37 1898.3C1825.94 1892.02 1828.42 1888.81 1832.84 1888.66C1837.88 1888.51 1858.8 1888.44 1895.58 1888.44C1899.72 1888.44 1901.78 1891.24 1901.78 1896.84C1901.78 1901.25 1899.96 1903.45 1896.32 1903.45H1873.2C1871.72 1903.45 1870.55 1903.97 1869.69 1905.02C1868.8 1906.06 1868.36 1907.41 1868.36 1909.05V1917.12C1868.36 1919.36 1869.31 1920.48 1871.2 1920.48H1890.33C1891.45 1920.48 1892.3 1920.59 1892.89 1920.81C1893.5 1921.04 1894.04 1921.69 1894.53 1922.76C1895.02 1923.85 1895.27 1925.63 1895.27 1928.09C1895.27 1930.56 1894.87 1932.2 1894.07 1933.02C1893.26 1933.84 1891.94 1934.25 1890.12 1934.25H1872.99C1871.24 1934.25 1870.03 1934.72 1869.37 1935.64C1868.7 1936.58 1868.36 1938.02 1868.36 1939.97V1945.46C1868.36 1948.67 1869.8 1950.27 1872.67 1950.27H1898.84C1900.1 1950.27 1901.22 1950.66 1902.2 1951.44C1903.19 1952.23 1903.68 1953.95 1903.68 1956.59C1903.68 1959.25 1903.08 1961.62 1901.89 1963.71C1900.7 1965.81 1899.3 1966.85 1897.69 1966.85H1832.84ZM1957.07 1911.85L1957.28 1932.57C1957.28 1933.99 1958.01 1934.7 1959.49 1934.7C1963.83 1934.7 1967.25 1933.42 1969.74 1930.85C1972.22 1928.27 1973.46 1925.22 1973.46 1921.71C1973.46 1918.2 1972.29 1915.17 1969.95 1912.64C1967.6 1910.1 1964.15 1908.83 1959.59 1908.83C1957.91 1908.83 1957.07 1909.83 1957.07 1911.85V1911.85ZM1984.61 1945.34C1985.94 1946.84 1990.67 1952.48 1998.79 1962.26C1999.28 1962.93 1999.53 1963.53 1999.53 1964.05C1999.53 1965.99 1998.72 1966.96 1997.11 1966.96C1993.4 1967.04 1989.67 1967.08 1985.93 1967.08C1982.17 1967.08 1978.44 1967.04 1974.73 1966.96C1972.69 1966.96 1970.84 1966.11 1969.16 1964.39L1960.12 1949.82C1959.77 1949.38 1959.34 1949.08 1958.86 1948.93C1957.73 1948.48 1957.17 1948.97 1957.17 1950.38V1961.81C1957.17 1965.02 1955.2 1966.74 1951.25 1966.96C1947.28 1967.19 1942.95 1967.3 1938.25 1967.3C1933.56 1967.3 1927.89 1967.11 1921.23 1966.74C1919.2 1966.59 1917.57 1965.84 1916.35 1964.5C1915.12 1963.15 1914.4 1961.62 1914.19 1959.91C1913.63 1953.34 1913.35 1943.01 1913.35 1928.92C1913.35 1914.85 1913.56 1904.61 1913.98 1898.19C1914.4 1891.76 1917.44 1888.51 1923.12 1888.44C1928.44 1888.37 1935.7 1888.33 1944.88 1888.33C1954.06 1888.33 1961.66 1888.4 1967.68 1888.55C1976.37 1888.7 1983.48 1892.14 1989.02 1898.86C1994.55 1905.58 1997.32 1913.16 1997.32 1921.6C1997.32 1926.53 1996.26 1931.08 1994.13 1935.26C1991.98 1939.45 1988.81 1942.81 1984.61 1945.34V1945.34ZM2070.89 1961.03C2069.63 1963.56 2067.45 1965.55 2064.34 1966.96C2061.21 1968.38 2057.83 1969.09 2054.18 1969.09C2050.54 1969.09 2047.21 1968.42 2044.2 1967.08C2041.19 1965.73 2039.01 1963.79 2037.68 1961.25C2027.17 1940.57 2017.4 1920.25 2008.36 1900.31C2007.31 1897.92 2006.78 1896.09 2006.78 1894.82C2006.78 1890.79 2008.5 1888.78 2011.93 1888.78L2042.31 1888.55C2044.9 1888.55 2046.88 1889.04 2048.26 1890.01C2049.62 1890.98 2050.82 1892.92 2051.87 1895.83L2062.07 1923.61C2062.49 1924.81 2063.26 1925.41 2064.38 1925.41C2065.5 1925.41 2066.34 1924.81 2066.9 1923.61L2080.67 1891.8C2081.58 1889.78 2082.56 1888.66 2083.61 1888.44C2084.03 1888.37 2084.77 1888.33 2085.82 1888.33L2097.91 1888.55C2099.24 1888.55 2100.18 1889.22 2100.74 1890.57C2100.95 1891.09 2101.06 1891.73 2101.06 1892.47C2101.06 1893.22 2100.28 1895.27 2098.7 1898.63C2097.12 1901.99 2093.02 1911.33 2086.41 1926.64C2079.78 1941.95 2074.61 1953.41 2070.89 1961.03V1961.03ZM2148.25 1969.09C2135.64 1969.09 2125.67 1965.67 2118.36 1958.83C2111.03 1952 2107.37 1942.36 2107.37 1929.89C2107.37 1922.27 2108.54 1915.59 2110.9 1909.83C2113.24 1904.08 2116.54 1899.49 2120.82 1896.06C2129.3 1889.26 2140.47 1885.86 2154.35 1885.86C2163.32 1885.86 2172.28 1887.17 2181.25 1889.78C2184.69 1890.98 2186.4 1893.93 2186.4 1898.63C2186.4 1905.06 2184.51 1908.27 2180.73 1908.27C2180.1 1908.27 2178.03 1907.97 2174.53 1907.37C2171.02 1906.77 2168.57 1906.47 2167.17 1906.47C2162.19 1906.47 2158.36 1908.32 2155.67 1912.01C2152.97 1915.71 2151.61 1920.12 2151.61 1925.25C2151.61 1930.36 2152.87 1934.85 2155.4 1938.74C2157.92 1942.62 2161.35 1944.63 2165.7 1944.78C2168.64 1944.93 2173.86 1945.01 2181.36 1945.01C2185 1945.01 2187 1946.84 2187.35 1950.5C2187.56 1951.84 2187.66 1953.2 2187.66 1954.57C2187.66 1955.96 2187.56 1957.37 2187.35 1958.79C2186.93 1961.47 2184.97 1963.43 2181.46 1964.66C2177.96 1965.89 2172.91 1966.95 2166.33 1967.81C2159.74 1968.67 2153.72 1969.09 2148.25 1969.09V1969.09ZM2270.8 1888.44H2284.46C2285.87 1888.44 2286.57 1889.19 2286.57 1890.68C2286.57 1891.65 2286.18 1892.7 2285.41 1893.82L2261.87 1933.58C2261.87 1939.63 2261.69 1948.44 2261.34 1960.02C2261.27 1961.66 2260.61 1963.17 2259.34 1964.54C2258.08 1965.93 2256.4 1966.7 2254.3 1966.85C2250.31 1967.15 2245.51 1967.3 2239.9 1967.3C2234.29 1967.3 2229.14 1967.15 2224.45 1966.85C2222.35 1966.7 2220.67 1965.93 2219.4 1964.54C2218.14 1963.17 2217.48 1961.66 2217.41 1960.02C2217.27 1952.48 2217.2 1944.63 2217.2 1936.49L2195.97 1898.52C2194.92 1896.8 2194.39 1895.38 2194.39 1894.26C2194.39 1890.53 2196.11 1888.66 2199.54 1888.66L2235.49 1888.44C2237.52 1888.44 2239.04 1888.78 2240.07 1889.45C2241.08 1890.12 2242.28 1891.5 2243.68 1893.59L2250.09 1908.27C2251.22 1909.91 2252.15 1910.73 2252.89 1910.73C2253.62 1910.73 2254.51 1910.06 2255.56 1908.71L2266.28 1890.79C2267.47 1889.22 2268.98 1888.44 2270.8 1888.44V1888.44Z"
                                            fill="white" />
                                    </g>
                                </g>
                                <g clip-path="url(#clip10_228_2)">
                                    <g clip-path="url(#clip11_228_2)">
                                        <path
                                            d="M1844.3 2002.23L1843.89 2008.31H1842.57L1843.57 1992.96H1845.39L1847.27 1998.59L1849.81 2006.4C1850.79 2003.51 1851.69 2000.91 1852.5 1998.59L1854.47 1992.96H1856.28L1857.5 2008.31H1856.17L1855.68 2002.23L1855.11 1994.81C1854.25 1997.34 1853.4 1999.82 1852.56 2002.23L1850.58 2007.92H1849.02L1847.14 2002.23L1844.75 1994.97C1844.62 1997.26 1844.47 1999.68 1844.3 2002.23ZM1863.84 2007.15C1864.7 2007.15 1865.38 2006.9 1865.9 2006.4C1866.41 2005.9 1866.66 2005.26 1866.66 2004.49V2002.82H1864.55C1863.54 2002.82 1862.78 2003.03 1862.28 2003.45C1861.79 2003.87 1861.54 2004.39 1861.54 2005.01C1861.54 2005.65 1861.73 2006.16 1862.12 2006.56C1862.52 2006.95 1863.09 2007.15 1863.84 2007.15ZM1866.66 2008.31V2006.97C1866.07 2007.94 1865.03 2008.42 1863.55 2008.42C1862.55 2008.42 1861.73 2008.11 1861.1 2007.48C1860.46 2006.85 1860.15 2006.04 1860.15 2005.06C1860.15 2003.95 1860.55 2003.08 1861.35 2002.47C1862.16 2001.86 1863.22 2001.55 1864.55 2001.55H1866.66V2001.02C1866.66 1999.99 1866.46 1999.21 1866.04 1998.69C1865.63 1998.17 1864.94 1997.91 1863.97 1997.91C1862.85 1997.91 1861.84 1998.23 1860.94 1998.88V1997.38C1861.77 1996.85 1862.78 1996.59 1863.99 1996.59C1866.64 1996.59 1867.97 1998.07 1867.97 2001.02V2008.31H1866.66ZM1872.39 1992.21V2008.31H1871.09V1992.21H1872.39ZM1878.71 1996.77L1874.29 2002.25L1878.86 2008.31H1877.24L1872.71 2002.25L1877.11 1996.77H1878.71ZM1882.34 1996.77V2008.31H1881.04V1996.77H1882.34ZM1882.33 1992.38C1882.51 1992.57 1882.6 1992.81 1882.6 1993.08C1882.6 1993.35 1882.51 1993.58 1882.33 1993.76C1882.15 1993.94 1881.93 1994.03 1881.68 1994.03C1881.42 1994.03 1881.21 1993.94 1881.04 1993.76C1880.87 1993.58 1880.78 1993.35 1880.78 1993.08C1880.78 1992.81 1880.87 1992.57 1881.04 1992.38C1881.21 1992.19 1881.42 1992.1 1881.68 1992.1C1881.93 1992.1 1882.15 1992.19 1882.33 1992.38ZM1893.86 2000.25V2008.31H1892.55V2000.68C1892.55 1999.79 1892.34 1999.1 1891.91 1998.63C1891.48 1998.16 1890.92 1997.93 1890.22 1997.93C1889.34 1997.93 1888.58 1998.29 1887.94 1999.01C1887.3 1999.73 1886.98 2000.71 1886.98 2001.94V2008.31H1885.67V1996.77H1886.98V1998.75C1887.65 1997.31 1888.79 1996.59 1890.42 1996.59C1891.46 1996.59 1892.29 1996.93 1892.92 1997.61C1893.54 1998.29 1893.86 1999.17 1893.86 2000.25ZM1905.37 1996.77V2007.42C1905.37 2009.17 1904.93 2010.48 1904.05 2011.35C1903.16 2012.22 1902.02 2012.66 1900.63 2012.66C1899.39 2012.66 1898.33 2012.44 1897.47 2012V2010.63C1898.35 2011.1 1899.37 2011.34 1900.52 2011.34C1901.6 2011.34 1902.47 2011.03 1903.11 2010.4C1903.75 2009.77 1904.07 2008.77 1904.07 2007.42V2005.92C1903.34 2007.33 1902.26 2008.04 1900.82 2008.04C1899.57 2008.04 1898.5 2007.54 1897.62 2006.56C1896.75 2005.57 1896.31 2004.24 1896.31 2002.55C1896.31 2000.82 1896.71 1999.39 1897.52 1998.27C1898.32 1997.15 1899.38 1996.59 1900.69 1996.59C1902.24 1996.59 1903.37 1997.32 1904.07 1998.79V1996.77H1905.37ZM1897.68 2002.48C1897.68 2003.86 1898.01 2004.91 1898.66 2005.63C1899.32 2006.36 1900.04 2006.72 1900.84 2006.72C1901.65 2006.72 1902.39 2006.38 1903.06 2005.7C1903.73 2005.03 1904.07 2003.99 1904.07 2002.6C1904.07 2001 1903.75 1999.82 1903.11 1999.05C1902.47 1998.29 1901.75 1997.91 1900.95 1997.91C1899.94 1997.91 1899.14 1998.33 1898.56 1999.18C1897.97 2000.03 1897.68 2001.13 1897.68 2002.48ZM1915.04 1992.21V2008.31H1913.74V1992.21H1915.04ZM1919.77 1996.77V2008.31H1918.46V1996.77H1919.77ZM1919.76 1992.38C1919.93 1992.57 1920.02 1992.81 1920.02 1993.08C1920.02 1993.35 1919.93 1993.58 1919.76 1993.76C1919.58 1993.94 1919.36 1994.03 1919.1 1994.03C1918.85 1994.03 1918.63 1993.94 1918.46 1993.76C1918.29 1993.58 1918.21 1993.35 1918.21 1993.08C1918.21 1992.81 1918.29 1992.57 1918.46 1992.38C1918.63 1992.19 1918.85 1992.1 1919.1 1992.1C1919.36 1992.1 1919.58 1992.19 1919.76 1992.38ZM1927.88 1996.77V1997.95H1925.41V2008.31H1924.1V1997.95H1922.12V1996.77H1924.1V1995.54C1924.1 1994.49 1924.36 1993.66 1924.87 1993.03C1925.38 1992.41 1926.1 1992.1 1927.03 1992.1C1927.3 1992.1 1927.59 1992.15 1927.9 1992.24V1993.6C1927.61 1993.48 1927.29 1993.42 1926.96 1993.42C1926.54 1993.42 1926.17 1993.6 1925.86 1993.95C1925.56 1994.31 1925.41 1994.85 1925.41 1995.56V1996.77H1927.88ZM1937.8 2006.33V2007.74C1936.94 2008.2 1935.94 2008.42 1934.81 2008.42C1933.2 2008.42 1931.89 2007.89 1930.88 2006.82C1929.88 2005.75 1929.38 2004.34 1929.38 2002.6C1929.38 2000.74 1929.82 1999.29 1930.7 1998.22C1931.59 1997.16 1932.73 1996.63 1934.14 1996.63C1935.47 1996.63 1936.52 1997.09 1937.3 1998.02C1938.09 1998.95 1938.48 2000.25 1938.48 2001.94C1938.48 2002.45 1938.45 2002.86 1938.39 2003.17H1930.75C1930.85 2004.44 1931.26 2005.41 1931.99 2006.09C1932.71 2006.77 1933.67 2007.1 1934.87 2007.1C1936.09 2007.1 1937.07 2006.85 1937.8 2006.33ZM1934.1 1997.93C1933.19 1997.93 1932.43 1998.27 1931.81 1998.95C1931.2 1999.64 1930.85 2000.62 1930.75 2001.89H1937.13V2001.37C1937.13 2000.32 1936.86 1999.48 1936.31 1998.86C1935.76 1998.24 1935.03 1997.93 1934.1 1997.93ZM1954.05 2006.33V2007.74C1953.19 2008.2 1952.2 2008.42 1951.06 2008.42C1949.45 2008.42 1948.14 2007.89 1947.14 2006.82C1946.13 2005.75 1945.63 2004.34 1945.63 2002.6C1945.63 2000.74 1946.07 1999.29 1946.96 1998.22C1947.84 1997.16 1948.99 1996.63 1950.4 1996.63C1951.72 1996.63 1952.77 1997.09 1953.56 1998.02C1954.34 1998.95 1954.73 2000.25 1954.73 2001.94C1954.73 2002.45 1954.7 2002.86 1954.65 2003.17H1947C1947.1 2004.44 1947.51 2005.41 1948.24 2006.09C1948.96 2006.77 1949.93 2007.1 1951.12 2007.1C1952.35 2007.1 1953.32 2006.85 1954.05 2006.33ZM1950.35 1997.93C1949.44 1997.93 1948.68 1998.27 1948.07 1998.95C1947.46 1999.64 1947.1 2000.62 1947 2001.89H1953.39V2001.37C1953.39 2000.32 1953.11 1999.48 1952.57 1998.86C1952.02 1998.24 1951.28 1997.93 1950.35 1997.93ZM1960.52 2007.15C1961.38 2007.15 1962.06 2006.9 1962.57 2006.4C1963.09 2005.9 1963.34 2005.26 1963.34 2004.49V2002.82H1961.23C1960.22 2002.82 1959.46 2003.03 1958.96 2003.45C1958.46 2003.87 1958.22 2004.39 1958.22 2005.01C1958.22 2005.65 1958.41 2006.16 1958.8 2006.56C1959.19 2006.95 1959.77 2007.15 1960.52 2007.15ZM1963.34 2008.31V2006.97C1962.74 2007.94 1961.7 2008.42 1960.22 2008.42C1959.23 2008.42 1958.41 2008.11 1957.78 2007.48C1957.14 2006.85 1956.83 2006.04 1956.83 2005.06C1956.83 2003.95 1957.23 2003.08 1958.03 2002.47C1958.84 2001.86 1959.9 2001.55 1961.23 2001.55H1963.34V2001.02C1963.34 1999.99 1963.14 1999.21 1962.72 1998.69C1962.31 1998.17 1961.62 1997.91 1960.65 1997.91C1959.53 1997.91 1958.51 1998.23 1957.62 1998.88V1997.38C1958.44 1996.85 1959.46 1996.59 1960.67 1996.59C1963.32 1996.59 1964.65 1998.07 1964.65 2001.02V2008.31H1963.34ZM1974.07 2005.35C1974.07 2006.31 1973.76 2007.06 1973.14 2007.61C1972.52 2008.17 1971.67 2008.45 1970.58 2008.45C1969.27 2008.45 1968.22 2008.22 1967.42 2007.76V2006.33C1968.38 2006.91 1969.4 2007.2 1970.5 2007.2C1971.23 2007.2 1971.78 2007.04 1972.15 2006.72C1972.53 2006.4 1972.72 2005.98 1972.72 2005.46C1972.72 2004.86 1972.52 2004.39 1972.13 2004.05C1971.74 2003.72 1971.1 2003.36 1970.2 2002.98C1969.33 2002.62 1968.64 2002.19 1968.13 2001.71C1967.62 2001.22 1967.36 2000.55 1967.36 1999.7C1967.36 1998.78 1967.68 1998.04 1968.32 1997.48C1968.96 1996.93 1969.77 1996.65 1970.73 1996.65C1971.9 1996.65 1972.8 1996.83 1973.43 1997.18V1998.57C1972.76 1998.16 1971.85 1997.95 1970.71 1997.95C1970.09 1997.95 1969.59 1998.11 1969.23 1998.42C1968.86 1998.73 1968.68 1999.14 1968.68 1999.64C1968.68 1999.94 1968.74 2000.21 1968.84 2000.43C1968.95 2000.66 1969.13 2000.87 1969.4 2001.06C1969.66 2001.25 1969.89 2001.39 1970.07 2001.48C1970.26 2001.57 1970.56 2001.71 1970.97 2001.89C1971.97 2002.32 1972.73 2002.78 1973.26 2003.29C1973.8 2003.8 1974.07 2004.49 1974.07 2005.35ZM1977.82 1996.77V2008.31H1976.52V1996.77H1977.82ZM1977.81 1992.38C1977.99 1992.57 1978.08 1992.81 1978.08 1993.08C1978.08 1993.35 1977.99 1993.58 1977.81 1993.76C1977.63 1993.94 1977.42 1994.03 1977.16 1994.03C1976.9 1994.03 1976.69 1993.94 1976.52 1993.76C1976.35 1993.58 1976.26 1993.35 1976.26 1993.08C1976.26 1992.81 1976.35 1992.57 1976.52 1992.38C1976.69 1992.19 1976.9 1992.1 1977.16 1992.1C1977.42 1992.1 1977.63 1992.19 1977.81 1992.38ZM1988.91 2006.33V2007.74C1988.06 2008.2 1987.06 2008.42 1985.92 2008.42C1984.31 2008.42 1983 2007.89 1982 2006.82C1981 2005.75 1980.49 2004.34 1980.49 2002.6C1980.49 2000.74 1980.93 1999.29 1981.82 1998.22C1982.7 1997.16 1983.85 1996.63 1985.26 1996.63C1986.58 1996.63 1987.64 1997.09 1988.42 1998.02C1989.2 1998.95 1989.59 2000.25 1989.59 2001.94C1989.59 2002.45 1989.57 2002.86 1989.51 2003.17H1981.86C1981.96 2004.44 1982.37 2005.41 1983.1 2006.09C1983.83 2006.77 1984.79 2007.1 1985.98 2007.1C1987.21 2007.1 1988.18 2006.85 1988.91 2006.33ZM1985.21 1997.93C1984.3 1997.93 1983.54 1998.27 1982.93 1998.95C1982.32 1999.64 1981.96 2000.62 1981.86 2001.89H1988.25V2001.37C1988.25 2000.32 1987.97 1999.48 1987.43 1998.86C1986.88 1998.24 1986.14 1997.93 1985.21 1997.93ZM1993.55 2001.87V2008.31H1992.24V1996.77H1993.55V1998.73C1994.14 1997.33 1995.16 1996.63 1996.58 1996.63C1996.68 1996.63 1996.86 1996.65 1997.11 1996.68V1998.09C1996.83 1998 1996.54 1997.95 1996.26 1997.95C1995.49 1997.95 1994.84 1998.36 1994.32 1999.17C1993.81 1999.98 1993.55 2000.88 1993.55 2001.87ZM2008.9 1996.77V1997.95H2006.42V2008.31H2005.12V1997.95H2003.13V1996.77H2005.12V1995.54C2005.12 1994.49 2005.38 1993.66 2005.89 1993.03C2006.4 1992.41 2007.12 1992.1 2008.05 1992.1C2008.32 1992.1 2008.61 1992.15 2008.92 1992.24V1993.6C2008.62 1993.48 2008.31 1993.42 2007.98 1993.42C2007.56 1993.42 2007.19 1993.6 2006.89 1993.95C2006.58 1994.31 2006.42 1994.85 2006.42 1995.56V1996.77H2008.9ZM2020.46 2002.6C2020.46 2004.31 2020.01 2005.73 2019.11 2006.84C2018.2 2007.96 2016.96 2008.52 2015.38 2008.52C2013.85 2008.52 2012.64 2007.95 2011.74 2006.83C2010.85 2005.71 2010.4 2004.3 2010.4 2002.6C2010.4 2000.91 2010.86 1999.49 2011.79 1998.34C2012.71 1997.18 2013.91 1996.61 2015.38 1996.61C2016.98 1996.61 2018.24 1997.17 2019.13 1998.3C2020.02 1999.43 2020.46 2000.87 2020.46 2002.6ZM2011.76 2002.6C2011.76 2003.86 2012.1 2004.94 2012.76 2005.84C2013.42 2006.74 2014.29 2007.2 2015.38 2007.2C2016.56 2007.2 2017.47 2006.75 2018.12 2005.86C2018.77 2004.97 2019.09 2003.89 2019.09 2002.6C2019.09 2001.26 2018.79 2000.15 2018.17 1999.26C2017.56 1998.37 2016.63 1997.93 2015.38 1997.93C2014.25 1997.93 2013.37 1998.38 2012.73 1999.29C2012.09 2000.21 2011.76 2001.31 2011.76 2002.6ZM2024.35 2001.87V2008.31H2023.04V1996.77H2024.35V1998.73C2024.95 1997.33 2025.96 1996.63 2027.38 1996.63C2027.48 1996.63 2027.66 1996.65 2027.92 1996.68V1998.09C2027.63 1998 2027.35 1997.95 2027.06 1997.95C2026.29 1997.95 2025.65 1998.36 2025.13 1999.17C2024.61 1999.98 2024.35 2000.88 2024.35 2001.87ZM2040.11 2006.58V2007.99C2039.7 2008.28 2039.22 2008.42 2038.68 2008.42C2036.63 2008.42 2035.6 2007.3 2035.6 2005.06V1997.95H2033.83V1996.77H2035.6V1993.88H2036.93V1996.77H2040.02V1997.95H2036.93V2005.12C2036.93 2006.44 2037.5 2007.1 2038.66 2007.1C2039.23 2007.1 2039.71 2006.93 2040.11 2006.58ZM2050.88 2000.25V2008.31H2049.57V2000.68C2049.57 1999.79 2049.36 1999.1 2048.93 1998.63C2048.51 1998.16 2047.94 1997.93 2047.25 1997.93C2046.36 1997.93 2045.6 1998.29 2044.96 1999.01C2044.32 1999.73 2044 2000.71 2044 2001.94V2008.31H2042.69V1992.21H2044V1998.75C2044.65 1997.31 2045.8 1996.59 2047.44 1996.59C2048.48 1996.59 2049.31 1996.93 2049.94 1997.61C2050.56 1998.29 2050.88 1999.17 2050.88 2000.25ZM2063.4 2002.6C2063.4 2004.31 2062.94 2005.73 2062.04 2006.84C2061.13 2007.96 2059.89 2008.52 2058.31 2008.52C2056.79 2008.52 2055.58 2007.95 2054.68 2006.83C2053.78 2005.71 2053.33 2004.3 2053.33 2002.6C2053.33 2000.91 2053.8 1999.49 2054.72 1998.34C2055.65 1997.18 2056.84 1996.61 2058.31 1996.61C2059.92 1996.61 2061.17 1997.17 2062.06 1998.3C2062.95 1999.43 2063.4 2000.87 2063.4 2002.6ZM2054.7 2002.6C2054.7 2003.86 2055.03 2004.94 2055.69 2005.84C2056.36 2006.74 2057.23 2007.2 2058.31 2007.2C2059.49 2007.2 2060.41 2006.75 2061.05 2005.86C2061.7 2004.97 2062.03 2003.89 2062.03 2002.6C2062.03 2001.26 2061.72 2000.15 2061.11 1999.26C2060.5 1998.37 2059.56 1997.93 2058.31 1997.93C2057.19 1997.93 2056.3 1998.38 2055.66 1999.29C2055.02 2000.21 2054.7 2001.31 2054.7 2002.6ZM2072.28 2005.35C2072.28 2006.31 2071.97 2007.06 2071.35 2007.61C2070.73 2008.17 2069.88 2008.45 2068.8 2008.45C2067.49 2008.45 2066.43 2008.22 2065.64 2007.76V2006.33C2066.59 2006.91 2067.62 2007.2 2068.72 2007.2C2069.44 2007.2 2069.99 2007.04 2070.37 2006.72C2070.75 2006.4 2070.94 2005.98 2070.94 2005.46C2070.94 2004.86 2070.74 2004.39 2070.35 2004.05C2069.96 2003.72 2069.31 2003.36 2068.42 2002.98C2067.55 2002.62 2066.86 2002.19 2066.34 2001.71C2065.83 2001.22 2065.58 2000.55 2065.58 1999.7C2065.58 1998.78 2065.9 1998.04 2066.54 1997.48C2067.18 1996.93 2067.98 1996.65 2068.95 1996.65C2070.12 1996.65 2071.01 1996.83 2071.64 1997.18V1998.57C2070.97 1998.16 2070.07 1997.95 2068.93 1997.95C2068.3 1997.95 2067.81 1998.11 2067.44 1998.42C2067.08 1998.73 2066.9 1999.14 2066.9 1999.64C2066.9 1999.94 2066.95 2000.21 2067.06 2000.43C2067.17 2000.66 2067.35 2000.87 2067.61 2001.06C2067.88 2001.25 2068.1 2001.39 2068.29 2001.48C2068.47 2001.57 2068.77 2001.71 2069.18 2001.89C2070.18 2002.32 2070.94 2002.78 2071.48 2003.29C2072.01 2003.8 2072.28 2004.49 2072.28 2005.35ZM2082.41 2006.33V2007.74C2081.55 2008.2 2080.55 2008.42 2079.41 2008.42C2077.8 2008.42 2076.5 2007.89 2075.5 2006.82C2074.49 2005.75 2073.99 2004.34 2073.99 2002.6C2073.99 2000.74 2074.43 1999.29 2075.31 1998.22C2076.2 1997.16 2077.34 1996.63 2078.75 1996.63C2080.08 1996.63 2081.13 1997.09 2081.91 1998.02C2082.7 1998.95 2083.09 2000.25 2083.09 2001.94C2083.09 2002.45 2083.06 2002.86 2083 2003.17H2075.36C2075.45 2004.44 2075.87 2005.41 2076.59 2006.09C2077.32 2006.77 2078.28 2007.1 2079.48 2007.1C2080.7 2007.1 2081.68 2006.85 2082.41 2006.33ZM2078.71 1997.93C2077.8 1997.93 2077.04 1998.27 2076.42 1998.95C2075.81 1999.64 2075.45 2000.62 2075.36 2001.89H2081.74V2001.37C2081.74 2000.32 2081.47 1999.48 2080.92 1998.86C2080.37 1998.24 2079.64 1997.93 2078.71 1997.93ZM2095.99 2004.53L2094.99 2008.31H2093.24L2089.93 1996.77H2091.36L2092.42 2000.59C2092.82 2002.02 2093.16 2003.26 2093.44 2004.31C2093.72 2005.37 2093.9 2006.06 2093.98 2006.4L2094.09 2006.92C2094.35 2005.94 2094.92 2003.82 2095.8 2000.57L2096.83 1996.77H2098.36L2099.43 2000.57L2101.18 2006.97C2101.41 2006.07 2102.02 2003.94 2103 2000.57L2104.11 1996.77H2105.48L2102.06 2008.31H2100.31L2099.26 2004.53L2097.59 1998.38C2097.35 1999.34 2096.82 2001.39 2095.99 2004.53ZM2115.92 2000.25V2008.31H2114.62V2000.68C2114.62 1999.79 2114.4 1999.1 2113.98 1998.63C2113.55 1998.16 2112.99 1997.93 2112.29 1997.93C2111.41 1997.93 2110.64 1998.29 2110 1999.01C2109.36 1999.73 2109.04 2000.71 2109.04 2001.94V2008.31H2107.74V1992.21H2109.04V1998.75C2109.7 1997.31 2110.84 1996.59 2112.48 1996.59C2113.52 1996.59 2114.35 1996.93 2114.98 1997.61C2115.61 1998.29 2115.92 1999.17 2115.92 2000.25ZM2128.44 2002.6C2128.44 2004.31 2127.99 2005.73 2127.08 2006.84C2126.18 2007.96 2124.94 2008.52 2123.35 2008.52C2121.83 2008.52 2120.62 2007.95 2119.72 2006.83C2118.83 2005.71 2118.38 2004.3 2118.38 2002.6C2118.38 2000.91 2118.84 1999.49 2119.77 1998.34C2120.69 1997.18 2121.89 1996.61 2123.35 1996.61C2124.96 1996.61 2126.21 1997.17 2127.11 1998.3C2127.99 1999.43 2128.44 2000.87 2128.44 2002.6ZM2119.74 2002.6C2119.74 2003.86 2120.08 2004.94 2120.74 2005.84C2121.4 2006.74 2122.27 2007.2 2123.35 2007.2C2124.54 2007.2 2125.45 2006.75 2126.1 2005.86C2126.75 2004.97 2127.07 2003.89 2127.07 2002.6C2127.07 2001.26 2126.77 2000.15 2126.15 1999.26C2125.54 1998.37 2124.61 1997.93 2123.35 1997.93C2122.23 1997.93 2121.35 1998.38 2120.71 1999.29C2120.06 2000.21 2119.74 2001.31 2119.74 2002.6ZM2142.5 2005.35C2142.5 2006.31 2142.19 2007.06 2141.56 2007.61C2140.95 2008.17 2140.1 2008.45 2139.01 2008.45C2137.7 2008.45 2136.65 2008.22 2135.85 2007.76V2006.33C2136.81 2006.91 2137.83 2007.2 2138.93 2007.2C2139.65 2007.2 2140.21 2007.04 2140.58 2006.72C2140.96 2006.4 2141.15 2005.98 2141.15 2005.46C2141.15 2004.86 2140.95 2004.39 2140.56 2004.05C2140.17 2003.72 2139.53 2003.36 2138.63 2002.98C2137.76 2002.62 2137.07 2002.19 2136.56 2001.71C2136.04 2001.22 2135.79 2000.55 2135.79 1999.7C2135.79 1998.78 2136.11 1998.04 2136.75 1997.48C2137.39 1996.93 2138.2 1996.65 2139.16 1996.65C2140.33 1996.65 2141.23 1996.83 2141.86 1997.18V1998.57C2141.19 1998.16 2140.28 1997.95 2139.14 1997.95C2138.52 1997.95 2138.02 1998.11 2137.66 1998.42C2137.29 1998.73 2137.11 1999.14 2137.11 1999.64C2137.11 1999.94 2137.17 2000.21 2137.27 2000.43C2137.38 2000.66 2137.56 2000.87 2137.83 2001.06C2138.09 2001.25 2138.32 2001.39 2138.5 2001.48C2138.69 2001.57 2138.99 2001.71 2139.4 2001.89C2140.4 2002.32 2141.16 2002.78 2141.69 2003.29C2142.23 2003.8 2142.5 2004.49 2142.5 2005.35ZM2152.62 2006.33V2007.74C2151.76 2008.2 2150.77 2008.42 2149.63 2008.42C2148.02 2008.42 2146.71 2007.89 2145.71 2006.82C2144.7 2005.75 2144.2 2004.34 2144.2 2002.6C2144.2 2000.74 2144.64 1999.29 2145.53 1998.22C2146.41 1997.16 2147.56 1996.63 2148.97 1996.63C2150.29 1996.63 2151.34 1997.09 2152.13 1998.02C2152.91 1998.95 2153.3 2000.25 2153.3 2001.94C2153.3 2002.45 2153.27 2002.86 2153.22 2003.17H2145.57C2145.67 2004.44 2146.08 2005.41 2146.81 2006.09C2147.53 2006.77 2148.5 2007.1 2149.69 2007.1C2150.92 2007.1 2151.89 2006.85 2152.62 2006.33ZM2148.92 1997.93C2148.01 1997.93 2147.25 1998.27 2146.64 1998.95C2146.02 1999.64 2145.67 2000.62 2145.57 2001.89H2151.96V2001.37C2151.96 2000.32 2151.68 1999.48 2151.14 1998.86C2150.59 1998.24 2149.85 1997.93 2148.92 1997.93ZM2157.25 2001.87V2008.31H2155.95V1996.77H2157.25V1998.73C2157.85 1997.33 2158.86 1996.63 2160.29 1996.63C2160.39 1996.63 2160.57 1996.65 2160.82 1996.68V1998.09C2160.54 1998 2160.25 1997.95 2159.97 1997.95C2159.2 1997.95 2158.55 1998.36 2158.04 1999.17C2157.51 1999.98 2157.25 2000.88 2157.25 2001.87ZM2171.01 1996.77L2167.17 2008.31H2165.41L2161.68 1996.77H2163.04L2164.56 2001.62L2166.29 2007.2C2166.43 2006.63 2167.02 2004.77 2168.06 2001.62L2169.64 1996.77H2171.01ZM2181.03 2006.33V2007.74C2180.18 2008.2 2179.18 2008.42 2178.04 2008.42C2176.43 2008.42 2175.12 2007.89 2174.12 2006.82C2173.12 2005.75 2172.61 2004.34 2172.61 2002.6C2172.61 2000.74 2173.06 1999.29 2173.94 1998.22C2174.82 1997.16 2175.97 1996.63 2177.38 1996.63C2178.7 1996.63 2179.76 1997.09 2180.54 1998.02C2181.32 1998.95 2181.72 2000.25 2181.72 2001.94C2181.72 2002.45 2181.69 2002.86 2181.63 2003.17H2173.98C2174.08 2004.44 2174.49 2005.41 2175.22 2006.09C2175.95 2006.77 2176.91 2007.1 2178.1 2007.1C2179.33 2007.1 2180.31 2006.85 2181.03 2006.33ZM2177.34 1997.93C2176.42 1997.93 2175.66 1998.27 2175.05 1998.95C2174.44 1999.64 2174.08 2000.62 2173.98 2001.89H2180.37V2001.37C2180.37 2000.32 2180.09 1999.48 2179.54 1998.86C2179 1998.24 2178.26 1997.93 2177.34 1997.93Z"
                                            fill="white" />
                                    </g>
                                </g>
                            </g>
                        </g>
                    </g>
                </g>
            </g>
        </g>
    </g>
    <g clip-path="url(#clip12_228_2)">
        <path
            d="M3195.46 1743.17C3157.09 1743.17 3126 1777.53 3126 1819.93V2081.07C3126 2123.47 3157.1 2157.83 3195.47 2157.83H3433.53C3471.9 2157.83 3503 2123.47 3503 2081.07V1819.93C3503 1777.53 3471.9 1743.17 3433.53 1743.17H3195.46Z"
            fill="#14A800" />
        <path
            d="M3397.18 1995.05C3373.73 1995.05 3358.21 1975.14 3353.87 1967.39C3359.41 1918.45 3375.68 1903.03 3397.18 1903.03C3418.43 1903.03 3434.98 1921.71 3434.98 1949.04C3434.98 1976.37 3418.43 1995.05 3397.18 1995.05ZM3397.18 1872.99C3358.95 1872.99 3337.52 1900.42 3331.4 1928.66C3324.43 1914.27 3319.3 1895.03 3315.26 1877.15H3262.41V1949.5C3262.41 1975.79 3251.57 1995.18 3230.3 1995.18C3209.03 1995.18 3196.84 1975.79 3196.84 1949.51L3197.07 1877.15H3166.61V1949.5C3166.61 1970.63 3172.84 1989.78 3184.15 2003.44C3195.82 2017.53 3211.77 2024.97 3230.28 2024.97C3267.06 2024.97 3292.72 1993.94 3292.72 1949.53V1900.91C3296.6 1916.91 3305.69 1947.68 3323.19 1974.66L3306.85 2077.03H3337.82L3348.61 2004.45C3352.15 2007.67 3355.91 2010.59 3359.84 2013.2C3370.17 2020.42 3382.07 2024.45 3394.29 2024.88H3394.36C3395.27 2024.88 3396.19 2024.94 3397.14 2024.94C3435.06 2024.94 3465.25 1992.65 3465.25 1949.11C3465.26 1905.56 3435.09 1872.99 3397.18 1872.99Z"
            fill="white" />
    </g>
    <g clip-path="url(#clip13_228_2)">
        <path
            d="M711 2202C854.594 2202 971 2089.4 971 1950.5C971 1811.6 854.594 1699 711 1699C567.406 1699 451 1811.6 451 1950.5C451 2089.4 567.406 2202 711 2202Z"
            fill="#00B22D" />
        <path
            d="M924.722 1903.6C924.722 1895.3 917.962 1888.51 909.382 1888.51C901.062 1888.51 894.172 1895.17 894.172 1903.6C894.172 1911.9 900.932 1918.69 909.382 1918.69C917.962 1918.81 924.722 1912.02 924.722 1903.6ZM909.382 1914.54C903.532 1914.54 898.982 1909.76 898.982 1903.6C898.982 1897.56 903.532 1892.78 909.382 1892.78C915.362 1892.78 920.042 1897.56 920.042 1903.6C920.042 1909.76 915.362 1914.54 909.382 1914.54Z"
            fill="white" />
        <path
            d="M913.542 1904.85C914.322 1904.6 916.012 1903.47 916.012 1901.08C916.012 1898.19 914.062 1896.43 910.812 1896.43H903.922V1910.64H908.472V1905.86H909.642L911.722 1910.64H916.662L913.932 1905.73C913.672 1904.98 913.542 1904.85 913.542 1904.85ZM909.642 1902.84H908.472V1899.45H909.642C910.682 1899.45 911.202 1899.95 911.202 1901.08C911.332 1902.21 910.682 1902.84 909.642 1902.84Z"
            fill="white" />
        <path
            d="M586.981 1915.29C593.443 1915.29 598.681 1910.22 598.681 1903.97C598.681 1897.72 593.443 1892.66 586.981 1892.66C580.52 1892.66 575.281 1897.72 575.281 1903.97C575.281 1910.22 580.52 1915.29 586.981 1915.29Z"
            fill="white" />
        <path
            d="M599.201 1922.71H545.641V1919.31C545.641 1912.65 552.531 1912.52 556.041 1912.52C560.071 1912.52 561.891 1912.9 561.891 1912.9V1894.54C561.891 1894.54 558.251 1894.04 553.311 1894.04C542.131 1894.04 521.461 1897.06 521.461 1919.94V1922.84H511.711V1939.81H521.461V1975.65H512.361V1992.63H556.301V1975.65H545.641V1939.81H574.891V1975.65H565.791V1992.63H608.301V1975.65H599.201V1922.71ZM690.201 1922.71H651.851V1939.69H658.351L650.031 1964.84C648.471 1968.99 648.081 1974.02 648.081 1974.02H647.561C647.561 1974.02 647.171 1968.99 645.611 1964.84L637.291 1939.69H643.791V1922.71H605.441V1939.69H613.501L633.521 1992.5H662.121L682.141 1939.69H690.201V1922.71ZM761.181 1954.78C761.181 1935.41 749.091 1921.08 727.641 1921.08C704.371 1921.08 690.071 1937.05 690.071 1957.54C690.071 1976.15 703.981 1994.14 729.721 1994.14C749.221 1994.14 760.791 1984.33 760.791 1984.33L751.951 1968.11C751.951 1968.11 742.331 1974.77 731.671 1974.77C724.001 1974.77 716.721 1970.87 714.901 1961.94H760.661C760.531 1961.82 761.181 1957.04 761.181 1954.78ZM715.421 1948.99C716.721 1943.58 720.101 1938.68 726.991 1938.68C732.321 1938.68 736.091 1943.46 736.091 1948.99H715.421ZM863.751 1938.81H863.491C863.491 1938.81 863.751 1937.42 863.751 1935.29V1931.64C863.751 1925.23 860.111 1922.71 853.481 1922.71H830.731V1939.69H837.491C839.441 1939.69 840.611 1940.82 840.611 1942.7V1975.65H830.861V1992.63H874.671V1975.65H864.921V1965.47C864.921 1952.76 871.421 1944.46 884.811 1944.46C887.801 1944.46 889.751 1944.84 889.751 1944.84V1921.83C889.751 1921.83 888.321 1921.58 886.891 1921.58C875.971 1921.45 866.871 1929.25 863.751 1938.81ZM799.661 1938.81H799.401C799.401 1938.81 799.661 1937.42 799.661 1935.29V1931.64C799.661 1925.23 796.021 1922.71 789.391 1922.71H766.641V1939.69H773.401C775.351 1939.69 776.521 1940.82 776.521 1942.7V1975.65H766.771V1992.63H810.581V1975.65H800.831V1965.47C800.831 1952.76 807.331 1944.46 820.721 1944.46C823.711 1944.46 825.661 1944.84 825.661 1944.84V1921.83C825.661 1921.83 824.231 1921.58 822.801 1921.58C811.751 1921.45 802.651 1929.25 799.661 1938.81Z"
            fill="white" />
    </g>
    <path fill-rule="evenodd" clip-rule="evenodd"
        d="M2256 720.275H2240.3V677.028H2228.46V720.275H2227.76C2222.84 720.275 2219.2 729.364 2219.2 742.53V749.11H2228.46V835.928C2228.46 863.193 2234.2 878.237 2244.63 878.237H2256V849.403H2246.27C2242.41 849.403 2240.3 843.762 2240.3 833.419V749.11H2246.39C2250.02 749.11 2252.25 746.601 2253.89 741.907C2255.18 738.144 2256 732.811 2256 726.547V720.275ZM2188.85 783.269C2184.28 782.646 2181.7 775.743 2181.7 765.408C2181.7 752.557 2186.15 744.092 2193.3 744.092C2199.63 744.092 2204.2 752.557 2205.02 765.093H2216.74C2215.92 735.635 2206.66 716.512 2193.3 716.512C2179.36 716.512 2170.22 736.259 2170.22 766.663C2170.22 793.935 2176.54 809.91 2187.56 811.796L2199.04 813.673C2204.32 814.612 2206.9 821.2 2206.9 832.165C2206.9 845.332 2202.33 854.42 2194.59 854.42C2187.09 854.42 2181.7 844.709 2180.88 830.911H2169.04C2169.86 861.938 2180.06 882 2194.83 882C2209.24 882 2218.38 861.938 2218.38 830.911C2218.38 803.331 2211.94 787.032 2200.34 785.155L2188.85 783.269ZM2122.99 790.48C2121.7 793.927 2120.88 798.629 2120.53 803.962V799.26C2120.53 766.97 2127.44 744.715 2137.28 744.715C2145.37 744.715 2151.11 759.452 2152.75 782.961H2131.19C2127.09 782.961 2124.63 785.77 2122.99 790.48ZM2164.94 801.138C2164.94 750.987 2155.45 716.512 2137.28 716.512C2120.41 716.512 2108.81 750.048 2108.81 799.26C2108.81 847.209 2120.17 882 2138.11 882C2151.93 882 2162.13 861.938 2164.12 830.911H2152.52C2150.76 845.016 2144.9 853.789 2138.22 853.789C2127.79 853.789 2121.93 835.297 2120.76 809.287H2164.94V801.138ZM2082.55 845.016L2067.09 720.275H2054.31L2074.82 878.237H2089.7L2110.21 720.275H2098.02L2082.55 845.016ZM2039.66 720.267C2034.62 720.267 2032.51 722.46 2030.87 726.224C2028.94 731.089 2027.67 737.467 2027.24 744.4V720.267H2015.4V878.237H2027.23V751.303H2040.24C2045.52 751.303 2047.86 748.171 2049.5 743.469C2050.79 739.398 2051.61 734.065 2051.61 728.109V720.275H2039.66L2039.66 720.267ZM1978.48 855.043C1971.8 855.043 1967.58 845.955 1967.58 831.542C1967.58 817.436 1971.69 808.348 1978.25 808.348H1994.07V831.542C1990.2 846.894 1985.16 855.043 1978.48 855.043ZM1982.47 716.512C1967.7 716.512 1957.86 738.452 1957.27 771.988H1968.99C1969.7 755.382 1974.85 744.715 1982 744.715C1989.38 744.715 1994.07 756.636 1994.07 775.12V803.015C1992.2 790.795 1985.98 782.646 1978.13 782.646C1964.66 782.646 1955.87 802.708 1955.87 833.735C1955.87 861.631 1963.01 881.369 1975.2 881.369C1984.11 881.369 1991.02 871.342 1994.19 851.911V878.237H2005.79V771.672C2005.79 738.144 1996.65 716.512 1982.47 716.512ZM1928.91 716.512C1919.66 716.512 1912.86 727.486 1909.93 746.601V659.475H1898.09V878.237H1909.93V753.496C1914.61 748.478 1918.83 746.293 1922.94 746.293C1932.2 746.293 1937 756.943 1937 778.883V878.237H1948.84V771.365C1948.84 735.943 1941.34 716.512 1928.91 716.512ZM1811.49 783.585V878.237H1805.51V735.943C1805.51 727.17 1808.21 720.275 1811.49 720.275H1829.18V767.602C1829.18 776.374 1826.61 783.585 1823.32 783.585H1811.49ZM1864.81 625V862.254C1864.81 871.026 1862.11 878.237 1858.83 878.237H1852.97V640.667C1852.97 631.895 1855.55 625 1858.83 625H1864.81ZM1841.14 625H1847V862.254C1847 871.026 1844.3 878.237 1841.14 878.237H1835.16V703.977C1835.16 695.204 1837.86 688.309 1841.14 688.309V625ZM1793.67 878.237H1787.81V640.667C1787.81 631.895 1790.39 625 1793.67 625H1799.65V798.945C1799.65 807.717 1796.95 814.928 1793.67 814.928V878.237ZM1770 878.237V640.667C1770 631.895 1772.69 625 1775.98 625H1781.84V862.254C1781.84 871.026 1779.26 878.237 1775.98 878.237H1770Z"
        fill="#C75008" />
    <g clip-path="url(#clip14_228_2)">
        <path fill-rule="evenodd" clip-rule="evenodd"
            d="M2062.54 3075.79L2161.81 2977L2190.16 3005.26L2090.89 3104.05L2062.54 3075.79ZM2022.31 3176.75C2017.68 3176.74 2013.1 3175.82 2008.83 3174.05C2004.56 3172.28 2000.68 3169.69 1997.41 3166.43C1994.15 3163.17 1991.56 3159.29 1989.8 3155.04C1988.03 3150.78 1987.13 3146.22 1987.14 3141.61C1987.14 3122.22 2002.88 3106.47 2022.24 3106.47C2041.6 3106.47 2057.34 3122.21 2057.34 3141.61C2057.35 3146.22 2056.45 3150.78 2054.68 3155.04C2052.92 3159.29 2050.33 3163.17 2047.07 3166.43C2043.8 3169.69 2039.92 3172.28 2035.65 3174.05C2031.38 3175.82 2026.8 3176.74 2022.17 3176.75H2022.31ZM2190.69 3278.72L2162.34 3306.94L2063.07 3208.15L2091.42 3179.93L2190.69 3278.72Z"
            fill="#222222" />
        <path fill-rule="evenodd" clip-rule="evenodd"
            d="M2023.34 3293.5C2043.35 3293.5 2062.49 3289.47 2079.88 3282.47L2128.37 3330.74C2097.28 3348.07 2061.49 3358 2023.34 3358C1904.04 3358 1807.31 3261.73 1807.31 3143C1807.31 3024.27 1904.04 2928 2023.34 2928C2059.75 2927.96 2095.57 2937.12 2127.45 2954.63L2079.78 3002.1C2061.86 2994.85 2042.7 2991.12 2023.35 2991.11C1939.8 2991.11 1872.07 3058.81 1872.07 3142.28C1872.07 3225.75 1939.79 3293.5 2023.34 3293.5Z"
            fill="#03A9F4" />
    </g>
    <g clip-path="url(#clip15_228_2)">
        <path fill-rule="evenodd" clip-rule="evenodd"
            d="M105.058 3303.39V3303.03C105.028 3302.73 105.058 3302.43 105.148 3302.15C105.238 3301.87 105.417 3301.59 105.627 3301.37C105.837 3301.14 106.106 3300.94 106.406 3300.79C106.705 3300.66 107.035 3300.56 107.394 3300.51H257.618C257.877 3300.53 258.127 3300.58 258.367 3300.66C258.606 3300.76 258.826 3300.88 259.025 3301.01C259.225 3301.17 259.385 3301.34 259.505 3301.54C259.644 3301.73 259.734 3301.93 259.774 3302.15C288.555 3393.92 315.839 3424.54 339.498 3424.54C372.382 3424.54 398.228 3365.14 410.956 3328.58C411.885 3325.94 415.898 3326.97 415.359 3329.77C388.225 3478.8 306.824 3478.8 280.679 3478.8C198.828 3478.7 129.437 3405.17 105.058 3303.39ZM573.938 3302.75C550.039 3403.65 480.647 3478.47 398.498 3478.47C395.403 3478.45 392.318 3478.34 389.243 3478.14C386.169 3477.92 383.104 3477.61 380.049 3477.21C377.014 3476.8 373.989 3476.31 370.975 3475.72C367.98 3475.11 365.015 3474.42 362.08 3473.63C362 3473.59 361.92 3473.56 361.84 3473.53C361.76 3473.48 361.68 3473.43 361.601 3473.4C361.521 3473.35 361.451 3473.3 361.391 3473.25C361.331 3473.2 361.271 3473.14 361.211 3473.07C360.912 3472.84 360.702 3472.57 360.552 3472.26C360.403 3471.96 360.343 3471.66 360.343 3471.33C360.343 3471 360.403 3470.68 360.552 3470.37C360.702 3470.07 360.912 3469.79 361.211 3469.57C402.121 3437.88 425.901 3380.9 435.215 3302.48C435.235 3302.23 435.295 3301.98 435.395 3301.75C435.514 3301.53 435.674 3301.33 435.874 3301.14C436.093 3300.96 436.333 3300.81 436.593 3300.71C436.872 3300.59 437.162 3300.53 437.461 3300.51H571.423C571.762 3300.53 572.081 3300.6 572.381 3300.74C572.68 3300.85 572.94 3301.01 573.16 3301.22C573.399 3301.43 573.569 3301.68 573.669 3301.95C573.789 3302.2 573.838 3302.47 573.819 3302.75H573.938Z"
            fill="url(#paint0_linear_228_2)" />
        <path fill-rule="evenodd" clip-rule="evenodd"
            d="M573.82 3261.31C573.82 3261.33 573.82 3261.35 573.82 3261.39C573.82 3261.42 573.82 3261.45 573.82 3261.46C573.82 3261.5 573.82 3261.52 573.82 3261.54C573.82 3261.57 573.82 3261.6 573.82 3261.61C573.88 3261.92 573.88 3262.19 573.82 3262.5C573.76 3262.77 573.61 3263.05 573.431 3263.28C573.221 3263.53 572.981 3263.73 572.712 3263.88C572.412 3264.06 572.113 3264.16 571.754 3264.24H421.38C421.121 3264.22 420.871 3264.17 420.631 3264.09C420.392 3264.02 420.172 3263.91 419.972 3263.76C419.773 3263.61 419.603 3263.44 419.463 3263.25C419.344 3263.05 419.264 3262.84 419.224 3262.62C390.443 3170.78 363.159 3140.16 339.5 3140.16C306.616 3140.16 280.77 3199.56 268.042 3236.14C267.113 3238.79 263.1 3237.73 263.639 3234.93C290.833 3086 372.264 3086 398.11 3086C480.17 3086 549.561 3159.53 573.82 3261.31ZM280.56 3086.23C283.635 3086.24 286.71 3086.35 289.785 3086.55C292.859 3086.77 295.924 3087.08 298.979 3087.49C302.014 3087.91 305.029 3088.42 308.023 3089.03C311.018 3089.63 313.983 3090.33 316.918 3091.12C316.998 3091.15 317.078 3091.19 317.158 3091.22C317.238 3091.27 317.318 3091.31 317.397 3091.35C317.457 3091.4 317.527 3091.45 317.607 3091.5C317.667 3091.55 317.727 3091.61 317.787 3091.68C318.056 3091.9 318.296 3092.15 318.446 3092.46C318.595 3092.76 318.655 3093.09 318.655 3093.39C318.655 3093.72 318.595 3094.05 318.446 3094.35C318.296 3094.65 318.056 3094.9 317.787 3095.13C276.877 3126.59 253.097 3183.8 243.783 3262.22C243.763 3262.47 243.693 3262.72 243.573 3262.95C243.454 3263.19 243.284 3263.4 243.064 3263.58C242.865 3263.75 242.625 3263.89 242.346 3264.01C242.086 3264.11 241.806 3264.17 241.507 3264.19H107.396C107.056 3264.15 106.737 3264.08 106.437 3263.96C106.158 3263.83 105.908 3263.66 105.689 3263.46C105.469 3263.24 105.299 3262.99 105.179 3262.72C105.08 3262.45 105.04 3262.18 105.06 3261.89C128.929 3161.04 198.351 3086.23 280.56 3086.23Z"
            fill="url(#paint1_linear_228_2)" />
    </g>
    <g clip-path="url(#clip16_228_2)">
        <path
            d="M3471.42 3422.63C3464.06 3422.65 3456.83 3419.93 3450.46 3414.76C3444.1 3409.58 3438.82 3402.12 3435.18 3393.15C3431.6 3384.25 3429.81 3374.14 3430.02 3363.92C3430.22 3353.7 3432.4 3343.75 3436.32 3335.13L3510.95 3170.86C3514.77 3162.03 3520.19 3154.78 3526.67 3149.85C3533.14 3144.92 3540.43 3142.49 3547.79 3142.8C3555.15 3143.05 3562.33 3146.03 3568.59 3151.44C3574.86 3156.85 3579.98 3164.5 3583.45 3173.6C3590.4 3192.04 3589.53 3214.23 3581.2 3231.54L3506.62 3395.81C3502.84 3404.07 3497.63 3410.86 3491.48 3415.55C3485.32 3420.24 3478.43 3422.67 3471.42 3422.63Z"
            fill="#F62B54" />
        <path
            d="M3599.43 3422.62C3584.38 3422.62 3570.53 3411.34 3563.26 3393.21C3559.68 3384.33 3557.9 3374.25 3558.1 3364.06C3558.3 3353.86 3560.48 3343.94 3564.4 3335.34L3638.88 3171.45C3642.65 3162.49 3648.05 3155.12 3654.53 3150.08C3661.02 3145.04 3668.35 3142.52 3675.76 3142.79C3690.93 3143.26 3704.69 3155.16 3711.65 3173.77C3718.56 3192.39 3717.54 3214.71 3708.96 3231.98L3634.49 3395.87C3630.72 3404.1 3625.53 3410.86 3619.4 3415.53C3613.28 3420.21 3606.41 3422.65 3599.43 3422.62Z"
            fill="#FFCC00" />
        <path
            d="M3724.58 3424C3745.8 3424 3763 3400.4 3763 3371.28C3763 3342.16 3745.8 3318.55 3724.58 3318.55C3703.36 3318.55 3686.16 3342.16 3686.16 3371.28C3686.16 3400.4 3703.36 3424 3724.58 3424Z"
            fill="#00CA72" />
    </g>
    <path
        d="M169.273 901.832L232.937 857.025C266.642 897.525 302.219 915.619 341.541 915.619C380.862 915.619 415.503 897.525 447.335 857.025L510.999 900.109C464.187 957.842 407.077 988 340.604 988C274.132 988 217.022 958.703 169.273 901.832Z"
        fill="url(#paint2_linear_228_2)" />
    <path
        d="M340.605 707.959L228.257 796.712L175.828 741.565L340.605 610.59L503.512 741.565L452.017 796.712L340.605 707.959Z"
        fill="url(#paint3_linear_228_2)" />
    <path fill-rule="evenodd" clip-rule="evenodd"
        d="M3497.67 808.548L3462.81 588.464C3459.6 568.209 3473.17 549.225 3493.14 546.064L3498.58 545.201C3635.28 523.551 3763.9 618.483 3785.88 757.234L3786.75 762.761C3789.96 783.018 3776.39 802.004 3756.43 805.165L3539.61 839.505C3519.66 842.666 3500.88 828.805 3497.67 808.548Z"
        fill="#2095F2" />
    <path
        d="M3518.35 584.996C3517.15 577.427 3510.13 572.249 3502.68 573.43C3495.22 574.611 3490.15 581.704 3491.35 589.273L3495.93 618.205C3497.13 625.774 3504.14 630.952 3511.6 629.771C3519.06 628.59 3524.13 621.497 3522.93 613.928L3518.35 584.996Z"
        fill="white" />
    <path
        d="M3625.34 603.648C3628.03 596.502 3624.49 588.471 3617.43 585.709C3610.38 582.948 3602.48 586.502 3599.79 593.647L3589.5 620.96C3586.81 628.105 3590.35 636.136 3597.41 638.898C3604.47 641.66 3612.37 638.106 3615.06 630.961L3625.34 603.648Z"
        fill="white" />
    <path
        d="M3746.73 777.107C3754.19 775.926 3759.26 768.832 3758.07 761.263C3756.87 753.694 3749.85 748.516 3742.39 749.697L3713.89 754.211C3706.43 755.392 3701.36 762.486 3702.56 770.055C3703.76 777.624 3710.78 782.802 3718.23 781.621L3746.73 777.107Z"
        fill="white" />
    <path
        d="M3708.84 674.096C3714.7 669.289 3715.58 660.557 3710.81 654.592C3706.05 648.628 3697.43 647.69 3691.58 652.497L3669.18 670.873C3663.33 675.68 3662.44 684.412 3667.21 690.377C3671.97 696.341 3680.59 697.279 3686.44 692.472L3708.84 674.096Z"
        fill="white" />
    <defs>
        <linearGradient id="paint0_linear_228_2" x1="548.302" y1="3389.58" x2="117.697" y2="3389.58"
            gradientUnits="userSpaceOnUse">
            <stop stop-color="#FF8F1C" />
            <stop offset="1" stop-color="#ED2024" />
        </linearGradient>
        <linearGradient id="paint1_linear_228_2" x1="130.666" y1="3175.12" x2="561.301" y2="3175.12"
            gradientUnits="userSpaceOnUse">
            <stop stop-color="#FF8F1C" />
            <stop offset="1" stop-color="#ED2024" />
        </linearGradient>
        <linearGradient id="paint2_linear_228_2" x1="164.313" y1="922.902" x2="514.641" y2="922.902"
            gradientUnits="userSpaceOnUse">
            <stop stop-color="#8930FD" />
            <stop offset="1" stop-color="#49CCF9" />
        </linearGradient>
        <linearGradient id="paint3_linear_228_2" x1="177.514" y1="704.006" x2="501.604" y2="704.006"
            gradientUnits="userSpaceOnUse">
            <stop stop-color="#FF02F0" />
            <stop offset="1" stop-color="#FFC800" />
        </linearGradient>
        <clipPath id="clip0_228_2">
            <rect x="1677" y="1592" width="670" height="711" rx="335" fill="white" />
        </clipPath>
        <clipPath id="clip1_228_2">
            <rect width="687.704" height="456.623" fill="white"
                transform="translate(1668.29 1719.27)" />
        </clipPath>
        <clipPath id="clip2_228_2">
            <rect width="686.059" height="456.993" fill="white"
                transform="translate(1669.11 1719.08)" />
        </clipPath>
        <clipPath id="clip3_228_2">
            <rect width="289.305" height="453.295" fill="white"
                transform="translate(1867.49 1720.93)" />
        </clipPath>
        <clipPath id="clip4_228_2">
            <rect width="548.847" height="130.158" fill="white"
                transform="translate(1737.72 1882.5)" />
        </clipPath>
        <clipPath id="clip5_228_2">
            <rect width="548.847" height="130.158" fill="white"
                transform="translate(1737.72 1882.5)" />
        </clipPath>
        <clipPath id="clip6_228_2">
            <rect width="548.847" height="130.158" fill="white"
                transform="translate(1737.72 1882.5)" />
        </clipPath>
        <clipPath id="clip7_228_2">
            <rect width="548.847" height="130.158" fill="white"
                transform="translate(1737.72 1882.5)" />
        </clipPath>
        <clipPath id="clip8_228_2">
            <rect width="548.847" height="89.9493" fill="white"
                transform="translate(1737.72 1882.5)" />
        </clipPath>
        <clipPath id="clip9_228_2">
            <rect width="548.847" height="89.9493" fill="white"
                transform="translate(1737.72 1882.5)" />
        </clipPath>
        <clipPath id="clip10_228_2">
            <rect width="339.187" height="20.5602" fill="white"
                transform="translate(1842.55 1992.1)" />
        </clipPath>
        <clipPath id="clip11_228_2">
            <rect width="339.187" height="20.5602" fill="white"
                transform="translate(1842.55 1992.1)" />
        </clipPath>
        <clipPath id="clip12_228_2">
            <rect width="377" height="415" fill="white" transform="translate(3126 1743)" />
        </clipPath>
        <clipPath id="clip13_228_2">
            <rect width="520" height="503" fill="white" transform="translate(451 1699)" />
        </clipPath>
        <clipPath id="clip14_228_2">
            <rect width="432" height="430" fill="white" transform="translate(1783 2928)" />
        </clipPath>
        <clipPath id="clip15_228_2">
            <rect width="469" height="393" fill="white" transform="translate(105 3086)" />
        </clipPath>
        <clipPath id="clip16_228_2">
            <rect width="333" height="282" fill="white" transform="translate(3430 3142)" />
        </clipPath>
    </defs>
</svg>
    