<svg width="438" height="512" viewBox="0 0 438 512" fill="none" xmlns="http://www.w3.org/2000/svg">
    <g clip-path="url(#clip0_40_2)">
    <path d="M141.44 0H314.12C318.83 0 323.03 2.27 325.66 5.77L434.11 123.1C436.561 125.755 437.921 129.237 437.92 132.85L438 384.03C438 401.65 430.75 417.72 419.1 429.39L419.03 429.46C407.36 441.1 391.3 448.33 373.7 448.33H353.64C353.34 465.57 346.16 481.23 334.76 492.62C323.1 504.28 307.01 511.52 289.34 511.52H64.3C46.63 511.52 30.54 504.28 18.89 492.62C7.24 480.98 0 464.9 0 447.22V135.87C0 118.19 7.23 102.09 18.88 90.45C30.52 78.8 46.62 71.57 64.3 71.57H77.14V64.3C77.14 46.62 84.37 30.52 96.02 18.88C107.66 7.23 123.76 0 141.44 0ZM171.97 250.96C164 250.96 157.54 244.49 157.54 236.52C157.54 228.56 164 222.09 171.97 222.09H343.17C351.14 222.09 357.61 228.56 357.61 236.52C357.61 244.49 351.14 250.96 343.17 250.96H171.97ZM171.97 327.82C164 327.82 157.54 321.36 157.54 313.39C157.54 305.43 164 298.96 171.97 298.96H308.39C316.36 298.96 322.82 305.43 322.82 313.39C322.82 321.36 316.36 327.82 308.39 327.82H171.97ZM322.31 44.44V93.47C323.27 105.77 327.52 115.37 334.96 121.73C342.76 128.39 354.54 132.14 370.19 132.42L403.58 132.38L322.31 44.44ZM409.14 161.22L369.97 161.16C347.18 160.81 329.2 154.66 316.25 143.59C302.77 132.05 295.15 115.73 293.59 95.56L293.45 93.56V28.86H141.44C131.71 28.86 122.83 32.86 116.41 39.27C110 45.69 106 54.57 106 64.3V384.03C106 393.77 110.01 402.64 116.42 409.05C122.84 415.47 131.71 419.47 141.44 419.47H373.7C383.45 419.47 392.32 415.49 398.71 409.09C405.16 402.65 409.14 393.79 409.14 384.03V161.22ZM324.76 448.33H141.44C123.76 448.33 107.67 441.09 96.03 429.45C84.38 417.8 77.14 401.72 77.14 384.03V100.43H64.3C54.56 100.43 45.69 104.43 39.27 110.84C32.86 117.26 28.86 126.13 28.86 135.87V447.22C28.86 456.95 32.87 465.81 39.28 472.23C45.71 478.66 54.58 482.66 64.3 482.66H289.34C299.06 482.66 307.93 478.66 314.36 472.23C320.53 466.06 324.48 457.62 324.76 448.33Z" fill="white"/>
    </g>
    <defs>
    <clipPath id="clip0_40_2">
    <rect width="438" height="511.52" fill="white"/>
    </clipPath>
    </defs>
    </svg>
    