<svg width="2006" height="710" viewBox="0 0 2006 710" fill="none" xmlns="http://www.w3.org/2000/svg">
    <path d="M275.2 250.8C276.533 258.8 277.467 267.467 278 276.8C278.8 286.133 278.8 297.467 278 310.8C277.2 323.867 275.333 340 272.4 359.2C268.4 385.067 257.867 406.8 240.8 424.4C223.733 441.733 202.267 453.067 176.4 458.4C169.2 460 160.8 461.2 151.2 462C141.6 462.533 132 463.067 122.4 463.6C113.067 463.867 104.667 464.267 97.2 464.8C90.5333 466.133 82.5333 467.067 73.2 467.6C63.8667 468.133 55.0667 468 46.8 467.2C38.5333 466.4 32.5333 464.933 28.8 462.8C30.9333 459.067 32.6667 453.467 34 446C35.3333 438.267 36.4 429.867 37.2 420.8C38 411.733 38.2667 403.067 38 394.8L36.8 259.2C36.8 248.267 36.6667 238.267 36.4 229.2C36.4 220.133 36.1333 213.067 35.6 208C35.0667 202.4 32.9333 197.467 29.2 193.2C25.7333 188.933 23.2 184.667 21.6 180.4C17.3333 168.667 15.4667 157.2 16 146C17.3333 146.267 20.2667 146.667 24.8 147.2C29.6 147.467 35.0667 147.867 41.2 148.4C47.8667 148.667 58.2667 149.067 72.4 149.6C86.8 150.133 101.467 150.667 116.4 151.2C116.4 151.2 118.533 151.333 122.8 151.6C127.333 151.6 132.933 151.867 139.6 152.4C146.267 152.933 153.2 153.733 160.4 154.8C167.6 155.6 173.867 156.667 179.2 158C196.533 162.533 211.067 168.8 222.8 176.8C234.8 184.533 244.4 192.933 251.6 202C259.067 211.067 264.667 220 268.4 228.8C272.133 237.333 274.4 244.667 275.2 250.8ZM135.6 388C146.533 385.333 156.8 380.133 166.4 372.4C176.267 364.4 184 353.733 189.6 340.4C195.467 326.8 197.6 310.267 196 290.8C194.133 265.467 187.467 247.867 176 238C164.8 228.133 150.133 223.067 132 222.8C126.933 222.533 122.933 225.867 120 232.8C117.067 239.733 115.067 250.933 114 266.4C113.467 276.533 113.067 284.133 112.8 289.2C112.533 294 112.4 298 112.4 301.2C112.667 304.4 112.667 308.533 112.4 313.6C112.4 313.6 112.4 316 112.4 320.8C112.667 325.6 113.067 331.6 113.6 338.8C114.133 345.733 114.8 352.933 115.6 360.4C116.4 367.6 117.333 373.733 118.4 378.8C119.733 384.4 122.267 387.6 126 388.4C129.733 388.933 132.933 388.8 135.6 388ZM532.522 342C534.922 364.4 533.189 383.6 527.322 399.6C521.455 415.6 512.789 428.8 501.322 439.2C490.122 449.6 477.455 457.333 463.322 462.4C449.455 467.2 435.589 469.6 421.722 469.6C408.122 469.6 394.255 467.2 380.122 462.4C366.255 457.333 353.722 449.6 342.522 439.2C331.589 428.8 323.055 415.6 316.922 399.6C311.055 383.6 309.322 364.4 311.722 342C314.122 321.467 320.255 303.467 330.122 288C340.255 272.533 353.055 260.4 368.522 251.6C384.255 242.533 401.455 237.467 420.122 236.4C421.189 236.133 422.255 235.333 423.322 234C424.655 232.4 426.789 231.067 429.722 230C432.922 228.667 437.722 228.267 444.122 228.8C459.322 233.067 473.189 240.4 485.722 250.8C498.255 261.2 508.655 274.133 516.922 289.6C525.455 305.067 530.655 322.533 532.522 342ZM418.122 405.6C426.655 405.6 433.989 403.6 440.122 399.6C446.255 395.6 451.189 390.533 454.922 384.4C458.655 378 461.322 371.333 462.922 364.4C464.789 357.467 465.722 351.2 465.722 345.6C465.722 334.133 463.855 325.2 460.122 318.8C456.389 312.4 447.855 306.667 434.522 301.6C430.789 300 428.255 297.867 426.922 295.2C425.589 292.533 423.589 291.067 420.922 290.8C412.122 289.733 404.655 292.133 398.522 298C392.389 303.867 387.722 311.733 384.522 321.6C381.322 331.467 379.722 342.133 379.722 353.6C379.722 365.067 381.855 374.667 386.122 382.4C390.655 390.133 395.855 396 401.722 400C407.855 403.733 413.322 405.6 418.122 405.6ZM752.819 291.2C751.752 296.8 749.352 302 745.619 306.8C741.885 311.6 737.485 315.6 732.419 318.8C727.619 321.733 722.952 323.333 718.419 323.6C713.885 323.867 710.152 322.267 707.219 318.8C712.285 315.333 713.485 312 710.819 308.8C708.419 305.6 704.285 303.067 698.419 301.2C692.552 299.333 686.819 298.8 681.219 299.6C667.352 301.733 657.085 307.733 650.419 317.6C643.752 327.2 639.485 338.267 637.619 350.8C636.285 361.467 637.352 371.067 640.819 379.6C644.552 387.867 649.619 394.533 656.019 399.6C662.685 404.4 669.885 406.933 677.619 407.2C694.952 407.467 709.352 404.933 720.819 399.6C732.285 394.267 741.219 388.133 747.619 381.2C754.285 374 758.819 368.133 761.219 363.6C767.619 368.133 771.352 374.667 772.419 383.2C773.485 391.733 772.152 400.933 768.419 410.8C764.685 420.667 758.819 430.133 750.819 439.2C742.819 448.267 733.085 455.733 721.619 461.6C710.152 467.2 697.085 470 682.419 470C674.685 470 665.485 469.067 654.819 467.2C644.152 465.333 633.219 461.867 622.019 456.8C611.085 451.733 600.952 444.4 591.619 434.8C582.552 425.2 575.485 412.8 570.419 397.6C565.619 382.4 564.152 363.733 566.019 341.6C567.352 324.533 571.885 309.467 579.619 296.4C587.619 283.067 597.352 271.867 608.819 262.8C620.285 253.467 632.285 246.4 644.819 241.6C657.619 236.533 669.752 233.867 681.219 233.6C692.685 233.333 703.085 235.067 712.419 238.8C721.752 242.533 729.619 247.467 736.019 253.6C742.419 259.467 747.085 265.733 750.019 272.4C752.952 279.067 753.885 285.333 752.819 291.2ZM1010.27 413.2C1010.27 415.6 1010.67 419.2 1011.47 424C1012.27 428.8 1013.34 433.733 1014.67 438.8C1016.27 443.867 1017.87 448.4 1019.47 452.4C1021.07 456.133 1022.67 458.4 1024.27 459.2C1020.54 463.733 1014.54 467.333 1006.27 470C998.005 472.933 989.739 473.467 981.472 471.6C975.072 469.733 969.339 468 964.272 466.4C959.205 464.8 952.272 464.133 943.472 464.4C937.072 464.667 930.672 465.333 924.272 466.4C918.139 467.467 911.872 468.667 905.472 470C902.272 470.533 896.672 470.667 888.672 470.4C880.939 470.4 872.405 469.467 863.072 467.6C854.005 465.733 845.605 462.533 837.872 458C827.739 451.867 820.139 442.933 815.072 431.2C810.005 419.467 807.072 407.467 806.272 395.2C806.272 392.267 806.139 386.533 805.872 378C805.872 369.467 805.739 359.333 805.472 347.6C805.472 335.867 805.339 323.733 805.072 311.2C805.072 298.667 804.939 287.067 804.672 276.4C804.672 265.467 804.672 256.667 804.672 250C804.672 243.067 804.672 239.6 804.672 239.6C807.072 239.333 811.072 239.067 816.672 238.8C822.539 238.267 828.939 238.267 835.872 238.8C842.805 239.333 849.472 240.667 855.872 242.8C862.539 244.667 868.139 247.733 872.672 252C877.472 256.267 880.272 262 881.072 269.2C881.605 275.067 882.005 280.4 882.272 285.2C882.539 290 882.672 295.333 882.672 301.2C882.672 306.8 882.405 313.867 881.872 322.4C881.605 330.667 881.205 341.2 880.672 354C880.139 364.4 879.872 373.333 879.872 380.8C880.139 388.267 882.005 393.867 885.472 397.6C888.939 401.333 895.072 402.933 903.872 402.4C909.739 402.133 914.539 399.867 918.272 395.6C922.272 391.067 925.472 385.6 927.872 379.2C930.272 372.8 931.872 366.267 932.672 359.6C933.739 352.933 934.272 347.067 934.272 342C934.272 340.933 934.139 336.8 933.872 329.6C933.872 322.4 933.739 313.867 933.472 304C933.472 293.867 933.339 283.867 933.072 274C933.072 264.133 933.072 256 933.072 249.6C933.072 242.933 933.072 239.6 933.072 239.6C935.472 239.333 939.472 239.333 945.072 239.6C950.672 239.6 956.939 240.133 963.872 241.2C970.805 242.267 977.605 244.133 984.272 246.8C990.939 249.467 996.539 253.2 1001.07 258C1005.87 262.533 1008.67 268.4 1009.47 275.6C1011.07 291.067 1011.34 310 1010.27 332.4C1009.47 354.533 1009.47 381.467 1010.27 413.2ZM1184.23 143.6C1199.97 143.6 1215.03 146.4 1229.43 152C1244.1 157.333 1256.37 164.533 1266.23 173.6C1276.37 182.667 1282.37 192.4 1284.23 202.8C1285.57 209.733 1284.63 217.467 1281.43 226C1278.23 234.267 1273.17 241.6 1266.23 248C1259.3 254.133 1250.9 257.467 1241.03 258C1237.57 258 1233.17 257.6 1227.83 256.8C1222.5 256 1217.3 254.4 1212.23 252C1207.43 249.6 1203.57 246.133 1200.63 241.6C1204.63 239.467 1207.3 237.2 1208.63 234.8C1209.97 232.4 1210.37 230 1209.83 227.6C1208.77 222.267 1205.57 217.867 1200.23 214.4C1195.17 210.933 1188.9 208.8 1181.43 208C1177.17 207.467 1172.23 207.6 1166.63 208.4C1161.03 208.933 1155.83 210.8 1151.03 214C1146.5 216.933 1143.3 221.867 1141.43 228.8C1140.37 232.8 1140.5 237.2 1141.83 242C1143.43 246.533 1147.17 250.933 1153.03 255.2C1158.9 259.2 1167.83 262.667 1179.83 265.6C1198.23 269.867 1215.3 274.533 1231.03 279.6C1247.03 284.667 1261.03 290.933 1273.03 298.4C1285.03 305.867 1294.23 315.2 1300.63 326.4C1307.3 337.333 1310.37 351.067 1309.83 367.6C1309.57 378.533 1306.63 390 1301.03 402C1295.43 414 1287.3 425.2 1276.63 435.6C1265.97 445.733 1252.9 454 1237.43 460.4C1221.97 466.8 1204.37 470 1184.63 470C1172.1 470 1159.17 468.933 1145.83 466.8C1132.5 464.667 1119.83 461.333 1107.83 456.8C1096.1 452.267 1085.7 446.267 1076.63 438.8C1068.63 431.867 1062.9 423.2 1059.43 412.8C1056.23 402.4 1055.57 392 1057.43 381.6C1059.3 370.933 1063.97 361.867 1071.43 354.4C1079.17 346.933 1089.83 342.8 1103.43 342C1100.77 350 1102.23 357.867 1107.83 365.6C1113.7 373.067 1122.37 379.467 1133.83 384.8C1145.3 389.867 1157.83 392.933 1171.43 394C1185.57 395.067 1197.83 394.533 1208.23 392.4C1218.9 390.267 1224.77 385.867 1225.83 379.2C1227.17 371.2 1225.57 364.8 1221.03 360C1216.5 355.2 1210.23 351.6 1202.23 349.2C1194.23 346.533 1185.57 344.4 1176.23 342.8C1166.9 340.933 1158.23 339.067 1150.23 337.2C1139.57 334.267 1128.77 330.533 1117.83 326C1107.17 321.2 1097.3 315.2 1088.23 308C1079.43 300.8 1072.23 292 1066.63 281.6C1061.03 271.2 1058.1 259.067 1057.83 245.2C1057.57 228.933 1060.9 214.533 1067.83 202C1074.77 189.2 1084.23 178.533 1096.23 170C1108.23 161.2 1121.83 154.667 1137.03 150.4C1152.5 145.867 1168.23 143.6 1184.23 143.6ZM1386.58 226C1377.51 226.267 1369.38 223.733 1362.18 218.4C1355.25 213.067 1349.91 206.533 1346.18 198.8C1342.71 190.8 1341.38 183.2 1342.18 176C1343.51 165.067 1348.45 157.333 1356.98 152.8C1365.51 148.267 1374.45 145.867 1383.78 145.6C1397.11 145.067 1407.51 148.533 1414.98 156C1422.45 163.467 1426.18 172 1426.18 181.6C1426.18 188 1424.71 194.533 1421.78 201.2C1419.11 207.867 1414.85 213.6 1408.98 218.4C1403.11 222.933 1395.65 225.467 1386.58 226ZM1428.98 423.6C1429.25 428.4 1430.71 432.533 1433.38 436C1436.31 439.2 1439.78 442.267 1443.78 445.2C1441.91 447.6 1439.51 450.133 1436.58 452.8C1433.65 455.467 1429.25 458 1423.38 460.4C1417.78 462.533 1409.65 464.267 1398.98 465.6C1395.51 465.867 1391.11 465.467 1385.78 464.4C1380.45 463.6 1375.11 461.067 1369.78 456.8C1364.71 452.267 1360.58 445.2 1357.38 435.6C1354.18 425.733 1352.85 412.267 1353.38 395.2C1353.65 392.267 1353.65 386.533 1353.38 378C1353.38 369.467 1353.25 359.333 1352.98 347.6C1352.98 335.867 1352.85 323.733 1352.58 311.2C1352.58 298.667 1352.45 287.067 1352.18 276.4C1352.18 265.467 1352.05 256.667 1351.78 250C1351.78 243.067 1351.78 239.6 1351.78 239.6C1354.18 239.333 1358.18 239.067 1363.78 238.8C1369.65 238.267 1376.05 238.267 1382.98 238.8C1389.91 239.333 1396.58 240.667 1402.98 242.8C1409.65 244.667 1415.25 247.733 1419.78 252C1424.58 256.267 1427.38 262 1428.18 269.2C1429.51 279.333 1430.05 292.933 1429.78 310C1429.51 326.8 1429.11 345.2 1428.58 365.2C1428.05 384.933 1428.18 404.4 1428.98 423.6ZM1693.37 232C1693.9 244.267 1694.03 256.133 1693.77 267.6C1693.77 278.8 1693.77 287.2 1693.77 292.8C1693.77 295.733 1693.77 302.667 1693.77 313.6C1694.03 324.533 1694.17 337.733 1694.17 353.2C1694.43 368.667 1694.43 384.667 1694.17 401.2C1693.9 417.733 1693.23 433.067 1692.17 447.2C1691.1 462.667 1687.77 476.267 1682.17 488C1676.83 499.733 1668.97 508.4 1658.57 514C1648.17 519.6 1634.83 521.2 1618.57 518.8C1606.3 516.933 1596.97 513.2 1590.57 507.6C1584.43 502 1580.43 495.467 1578.57 488C1576.97 480.8 1576.97 473.333 1578.57 465.6C1580.43 458.133 1583.1 451.467 1586.57 445.6C1588.97 448.533 1592.17 451.733 1596.17 455.2C1600.43 458.4 1604.97 460.933 1609.77 462.8C1614.83 464.4 1619.63 464.667 1624.17 463.6C1627.1 462.8 1629.37 461.333 1630.97 459.2C1632.57 456.8 1633.1 454 1632.57 450.8C1632.03 447.6 1628.17 444 1620.97 440C1614.03 435.733 1604.97 433.867 1593.77 434.4C1589.5 434.667 1586.17 434.933 1583.77 435.2C1581.37 435.467 1578.57 435.6 1575.37 435.6C1556.97 435.6 1540.03 431.867 1524.57 424.4C1509.1 416.933 1496.83 405.467 1487.77 390C1478.7 374.533 1474.7 354.8 1475.77 330.8C1476.57 315.333 1480.3 301.467 1486.97 289.2C1493.63 276.667 1502.17 266.133 1512.57 257.6C1523.23 248.8 1534.43 242.267 1546.17 238C1558.17 233.467 1569.77 231.6 1580.97 232.4C1582.3 232.4 1584.97 232.8 1588.97 233.6C1592.97 234.4 1596.97 235.2 1600.97 236C1604.97 236.533 1607.63 236.933 1608.97 237.2C1618.3 238.8 1628.7 239.067 1640.17 238C1651.9 236.667 1661.9 235.2 1670.17 233.6C1675.5 232.8 1680.7 232.4 1685.77 232.4C1690.83 232.133 1693.37 232 1693.37 232ZM1574.57 302C1563.9 303.067 1555.9 307.067 1550.57 314C1545.5 320.933 1544.17 329.6 1546.57 340C1547.63 344.8 1550.17 349.6 1554.17 354.4C1558.43 358.933 1563.5 362.533 1569.37 365.2C1575.23 367.867 1581.1 368.933 1586.97 368.4C1592.83 367.867 1598.03 366.933 1602.57 365.6C1607.1 364 1610.7 360.8 1613.37 356C1616.03 351.2 1617.37 343.6 1617.37 333.2C1617.37 322.8 1615.23 315.333 1610.97 310.8C1606.97 306 1601.63 303.2 1594.97 302.4C1588.57 301.333 1581.77 301.2 1574.57 302ZM1944.55 413.2C1944.81 424.933 1946.55 433.2 1949.75 438C1953.21 442.533 1954.95 444.8 1954.95 444.8C1954.95 444.8 1952.55 446.533 1947.75 450C1943.21 453.2 1937.08 456.533 1929.35 460C1921.61 463.467 1912.95 465.2 1903.35 465.2C1889.21 465.2 1880.01 461.333 1875.75 453.6C1871.48 445.867 1869.21 435.867 1868.95 423.6C1868.95 421.467 1869.08 416.8 1869.35 409.6C1869.61 402.4 1869.75 394.267 1869.75 385.2C1870.01 375.867 1870.01 367.333 1869.75 359.6C1869.48 351.6 1868.95 346 1868.15 342.8C1865.21 332.133 1859.48 327.467 1850.95 328.8C1844.28 329.6 1838.01 333.467 1832.15 340.4C1826.28 347.067 1821.48 355.067 1817.75 364.4C1814.01 373.733 1812.15 382.533 1812.15 390.8C1812.15 395.067 1811.88 399.333 1811.35 403.6C1811.08 407.6 1810.81 411.333 1810.55 414.8C1810.28 417.2 1810.55 420.133 1811.35 423.6C1812.41 427.067 1814.28 429.867 1816.95 432C1815.08 435.2 1811.35 439.333 1805.75 444.4C1800.41 449.467 1794.55 454.133 1788.15 458.4C1782.01 462.4 1776.68 464.667 1772.15 465.2C1767.88 465.467 1762.81 464.133 1756.95 461.2C1751.35 458.267 1746.41 453.867 1742.15 448C1738.15 442.133 1736.01 435.067 1735.75 426.8C1735.75 424.667 1735.75 419.733 1735.75 412C1736.01 404.267 1736.15 394.933 1736.15 384C1736.41 373.067 1736.55 361.467 1736.55 349.2C1736.81 336.933 1736.95 325.067 1736.95 313.6C1736.95 302.133 1736.95 292.267 1736.95 284C1736.95 276.8 1736.01 269.867 1734.15 263.2C1732.55 256.267 1730.81 250.667 1728.95 246.4C1727.35 241.867 1726.55 239.6 1726.55 239.6C1728.95 239.067 1733.08 238.667 1738.95 238.4C1745.08 238.133 1751.88 238.267 1759.35 238.8C1766.81 239.333 1774.15 240.533 1781.35 242.4C1788.81 244.267 1795.08 247.2 1800.15 251.2C1805.48 255.2 1810.81 257.733 1816.15 258.8C1821.75 259.6 1826.15 259.067 1829.35 257.2C1838.68 251.067 1848.15 245.733 1857.75 241.2C1867.35 236.667 1876.68 233.867 1885.75 232.8C1890.28 232.267 1895.61 232.533 1901.75 233.6C1907.88 234.4 1913.88 236.4 1919.75 239.6C1925.88 242.8 1931.08 247.333 1935.35 253.2C1939.88 259.067 1942.68 266.533 1943.75 275.6C1945.61 291.067 1946.15 310 1945.35 332.4C1944.55 354.533 1944.28 381.467 1944.55 413.2Z" fill="#7E84A3"/>
    </svg>
    