<svg xmlns="http://www.w3.org/2000/svg" width="129" height="129" viewBox="0 0 129 129" fill="none">
    <rect width="129" height="129" rx="64.5" fill="#278D7B" fill-opacity="0.15"></rect>
    <path opacity="0.4"
        d="M34.167 67.7133V62.2867C34.167 59.08 36.7878 56.4283 40.0253 56.4283C45.6062 56.4283 47.8878 52.4817 45.082 47.6408C43.4787 44.8658 44.4345 41.2583 47.2403 39.655L52.5745 36.6025C55.0103 35.1533 58.1553 36.0167 59.6045 38.4525L59.9437 39.0383C62.7187 43.8792 67.282 43.8792 70.0878 39.0383L70.427 38.4525C71.8762 36.0167 75.0212 35.1533 77.457 36.6025L82.7912 39.655C85.597 41.2583 86.5528 44.8658 84.9495 47.6408C82.1437 52.4817 84.4253 56.4283 90.0062 56.4283C93.2128 56.4283 95.8645 59.0492 95.8645 62.2867V67.7133C95.8645 70.92 93.2437 73.5717 90.0062 73.5717C84.4253 73.5717 82.1437 77.5183 84.9495 82.3592C86.5528 85.165 85.597 88.7417 82.7912 90.345L77.457 93.3975C75.0212 94.8467 71.8762 93.9833 70.427 91.5475L70.0878 90.9617C67.3128 86.1208 62.7495 86.1208 59.9437 90.9617L59.6045 91.5475C58.1553 93.9833 55.0103 94.8467 52.5745 93.3975L47.2403 90.345C44.4345 88.7417 43.4787 85.1342 45.082 82.3592C47.8878 77.5183 45.6062 73.5717 40.0253 73.5717C36.7878 73.5717 34.167 70.92 34.167 67.7133Z"
        fill="#278D7B"></path>
    <path
        d="M65.0003 75.0209C70.5347 75.0209 75.0212 70.5344 75.0212 65C75.0212 59.4657 70.5347 54.9792 65.0003 54.9792C59.466 54.9792 54.9795 59.4657 54.9795 65C54.9795 70.5344 59.466 75.0209 65.0003 75.0209Z"
        fill="#278D7B"></path>
</svg>