<svg width="15141" height="15499" viewBox="0 0 15141 15499" fill="none"
    xmlns="http://www.w3.org/2000/svg">
    <path fill-rule="evenodd" clip-rule="evenodd"
        d="M5.49867 11498.5L4.41016 10982.6C4.41016 10982.6 7560.6 7563.82 7617.04 7593.07L15136 11049V11514.3C15136 11514.3 15136 11580.8 15062.7 11614L7677.51 15477.1C7621.07 15506.3 7532.38 15506.3 7475.93 15477.1L49.8456 11597.2C-6.59594 11568 5.49867 11498.5 5.49867 11498.5Z"
        fill="#DBDDDE" />
    <path fill-rule="evenodd" clip-rule="evenodd"
        d="M41.0646 10916.1L7483.68 7083.08C7540.13 7053.82 7628.82 7053.82 7685.26 7083.08L15098.4 10982.5C15154.8 11011.8 15154.8 11059.3 15098.4 11088.6L7749.77 14919.5C7693.32 14948.8 7604.63 14948.8 7548.19 14919.5L45.0962 11022.1C-11.3453 10992.9 -15.3769 10945.3 41.0646 10916.1Z"
        fill="#F3F3F3" />
    <path
        d="M12852.6 0H6730.38C6552.89 0 6409 164.3 6409 366.975V5398.02C6409 5600.7 6552.89 5765 6730.38 5765H12852.6C13030.1 5765 13174 5600.7 13174 5398.02V366.975C13174 164.3 13030.1 0 12852.6 0Z"
        fill="#F2F6FB" />
    <path
        d="M6409 326.882C6409 146.351 6537.17 0.000976562 6695.36 0.000976562H12887.6C13045.8 0.000976562 13174 146.311 13174 326.882V653.764H6409V326.882Z"
        fill="#E1E5F0" />
    <path
        d="M6792.97 467.994C6861.36 467.994 6916.8 404.798 6916.8 326.841C6916.8 248.884 6861.36 185.688 6792.97 185.688C6724.58 185.688 6669.14 248.884 6669.14 326.841C6669.14 404.798 6724.58 467.994 6792.97 467.994Z"
        fill="#FF5645" />
    <path
        d="M7197.04 467.994C7265.43 467.994 7320.87 404.798 7320.87 326.841C7320.87 248.884 7265.43 185.688 7197.04 185.688C7128.65 185.688 7073.21 248.884 7073.21 326.841C7073.21 404.798 7128.65 467.994 7197.04 467.994Z"
        fill="#FFCB3D" />
    <path
        d="M7614.18 467.994C7682.57 467.994 7738.01 404.798 7738.01 326.841C7738.01 248.884 7682.57 185.688 7614.18 185.688C7545.8 185.688 7490.36 248.884 7490.36 326.841C7490.36 404.798 7545.8 467.994 7614.18 467.994Z"
        fill="#3ABF7C" />
    <path
        d="M9452.03 2556.95H9447.44C9397.55 2556.86 9349.71 2525.36 9314.44 2469.37C9279.16 2413.37 9259.31 2337.46 9259.26 2258.27V2156.28H8699.31V2141.71H9268.44V2258.27C9268.49 2332.33 9286.74 2403.44 9319.31 2456.48C9351.88 2509.52 9396.2 2540.3 9442.85 2542.29V2141.71H9575.95C9594.2 2141.68 9611.7 2130.15 9624.61 2109.67C9637.51 2089.18 9644.77 2061.41 9644.79 2032.44V917.844C9644.77 888.872 9637.51 861.097 9624.61 840.612C9611.7 820.126 9594.2 808.603 9575.95 808.57H7822.68C7804.43 808.603 7786.93 820.126 7774.02 840.612C7761.12 861.097 7753.86 888.872 7753.84 917.844V1726.47H7744.66V917.844C7744.68 885.01 7752.91 853.531 7767.54 830.314C7782.16 807.097 7801.99 794.037 7822.68 794H9575.95C9596.63 794.037 9616.47 807.097 9631.09 830.314C9645.72 853.531 9653.95 885.01 9653.97 917.844V2032.44C9653.95 2065.27 9645.72 2096.75 9631.09 2119.97C9616.47 2143.18 9596.63 2156.24 9575.95 2156.28H9452.03V2556.95Z"
        fill="#CCCCCC" />
    <path
        d="M9286.7 1161.96C9286.13 1138.46 9279.84 1116.22 9269.16 1099.91C9258.48 1083.6 9244.24 1074.48 9229.42 1074.47H8169.2C8153.99 1074.47 8139.39 1084.06 8128.64 1101.14C8117.88 1118.22 8111.83 1141.38 8111.83 1165.53C8111.83 1189.68 8117.88 1212.84 8128.64 1229.92C8139.39 1247 8153.99 1256.59 8169.2 1256.59H9229.42C9244.63 1256.56 9259.21 1246.95 9269.97 1229.88C9280.72 1212.81 9286.77 1189.67 9286.8 1165.53C9286.81 1164.34 9286.78 1163.15 9286.7 1161.96Z"
        fill="#CCCCCC" />
    <path
        d="M9286.7 1467.93C9286.13 1444.42 9279.84 1422.19 9269.16 1405.88C9258.48 1389.57 9244.24 1380.45 9229.42 1380.44H8169.2C8153.99 1380.44 8139.39 1390.03 8128.64 1407.11C8117.88 1424.19 8111.83 1447.35 8111.83 1471.5C8111.83 1495.65 8117.88 1518.81 8128.64 1535.89C8139.39 1552.97 8153.99 1562.56 8169.2 1562.56H9229.42C9244.63 1562.53 9259.21 1552.92 9269.97 1535.85C9280.72 1518.78 9286.77 1495.64 9286.8 1471.5C9286.81 1470.31 9286.78 1469.11 9286.7 1467.93Z"
        fill="#CCCCCC" />
    <path
        d="M9286.71 1773.89C9286.13 1750.39 9279.84 1728.15 9269.16 1711.84C9258.49 1695.53 9244.25 1686.42 9229.43 1686.4H8169.21C8160.8 1686.4 8152.49 1689.34 8144.87 1695.01C8137.26 1700.67 8130.52 1708.93 8125.14 1719.18C8122.78 1723.72 8120.69 1728.6 8118.9 1733.75H8625.88C8644.13 1733.79 8661.63 1745.31 8674.54 1765.8C8687.44 1786.28 8694.7 1814.06 8694.73 1843.03V1868.53H9229.43C9244.64 1868.49 9259.22 1858.89 9269.97 1841.82C9280.73 1824.75 9286.78 1801.6 9286.8 1777.46C9286.81 1776.27 9286.78 1775.08 9286.71 1773.89Z"
        fill="#CCCCCC" />
    <path
        d="M8621.29 1733.75H6868.02C6847.34 1733.8 6827.51 1746.86 6812.89 1770.08C6798.26 1793.29 6790.03 1824.77 6790 1857.6V2972.19C6790.03 3005.02 6798.26 3036.49 6812.89 3059.71C6827.51 3082.92 6847.34 3095.99 6868.02 3096.03H6991.95V3496.7H6996.54C7046.43 3496.62 7094.26 3465.13 7129.54 3409.13C7164.82 3353.14 7184.66 3277.21 7184.71 3198.02V3096.03H8621.29C8641.98 3095.99 8661.8 3082.92 8676.43 3059.71C8691.06 3036.49 8699.29 3005.02 8699.32 2972.19V1857.6C8699.29 1824.77 8691.06 1793.29 8676.43 1770.08C8661.8 1746.86 8641.98 1733.8 8621.29 1733.75ZM8690.14 2972.19C8690.11 3001.16 8682.85 3028.93 8669.95 3049.42C8657.04 3069.91 8639.54 3081.43 8621.29 3081.46H7175.54V3198.02C7175.47 3272.08 7157.22 3343.19 7124.65 3396.23C7092.08 3449.26 7047.77 3480.06 7001.13 3482.06V3081.46H6868.02C6849.77 3081.43 6832.27 3069.91 6819.37 3049.42C6806.46 3028.93 6799.2 3001.16 6799.18 2972.19V1857.6C6799.2 1828.63 6806.46 1800.85 6819.37 1780.37C6832.27 1759.88 6849.77 1748.36 6868.02 1748.32H8621.29C8639.54 1748.36 8657.04 1759.88 8669.95 1780.37C8682.85 1800.85 8690.11 1828.63 8690.14 1857.6V2972.19Z"
        fill="#3F3D56" />
    <path
        d="M8274.76 2014.22H7214.54C7199.72 2014.24 7185.48 2023.35 7174.8 2039.66C7164.13 2055.97 7157.84 2078.21 7157.26 2101.71C7157.19 2102.9 7157.16 2104.09 7157.17 2105.28C7157.19 2129.42 7163.24 2152.57 7174 2169.64C7184.75 2186.71 7199.33 2196.31 7214.54 2196.35H8274.76C8289.98 2196.35 8304.57 2186.75 8315.33 2169.67C8326.09 2152.6 8332.14 2129.44 8332.14 2105.28C8332.14 2081.13 8326.09 2057.97 8315.33 2040.89C8304.57 2023.82 8289.98 2014.22 8274.76 2014.22Z"
        fill="#5BA959" />
    <path
        d="M8274.76 2320.19H7214.54C7199.72 2320.2 7185.48 2329.32 7174.8 2345.63C7164.13 2361.94 7157.84 2384.18 7157.26 2407.68C7157.19 2408.87 7157.16 2410.06 7157.17 2411.25C7157.19 2435.39 7163.24 2458.53 7174 2475.6C7184.75 2492.67 7199.33 2502.28 7214.54 2502.31H8274.76C8289.98 2502.31 8304.57 2492.72 8315.33 2475.64C8326.09 2458.57 8332.14 2435.4 8332.14 2411.25C8332.14 2387.1 8326.09 2363.94 8315.33 2346.86C8304.57 2329.78 8289.98 2320.19 8274.76 2320.19Z"
        fill="#5BA959" />
    <path
        d="M8274.76 2626.16H7214.54C7199.72 2626.17 7185.48 2635.29 7174.8 2651.6C7164.13 2667.91 7157.84 2690.14 7157.26 2713.65C7157.19 2714.83 7157.16 2716.03 7157.17 2717.22C7157.19 2741.36 7163.24 2764.5 7174 2781.57C7184.75 2798.64 7199.33 2808.25 7214.54 2808.28H8274.76C8289.98 2808.28 8304.57 2798.69 8315.33 2781.61C8326.09 2764.53 8332.14 2741.37 8332.14 2717.22C8332.14 2693.07 8326.09 2669.9 8315.33 2652.83C8304.57 2635.75 8289.98 2626.16 8274.76 2626.16Z"
        fill="#5BA959" />
    <path
        d="M9608.08 3460.28C9757.63 3460.28 9878.87 3267.85 9878.87 3030.47C9878.87 2793.09 9757.63 2600.66 9608.08 2600.66C9458.52 2600.66 9337.29 2793.09 9337.29 3030.47C9337.29 3267.85 9458.52 3460.28 9608.08 3460.28Z"
        fill="#E6E6E6" />
    <path
        d="M9633.9 3336.82C9622.87 3336.33 9609.15 3335.72 9598.58 3323.46C9595.43 3319.66 9592.85 3314.82 9591 3309.26C9589.16 3303.71 9588.1 3297.58 9587.91 3291.31C9587.71 3286.86 9588.18 3282.39 9589.25 3278.26C9590.33 3274.14 9591.99 3270.46 9594.11 3267.53C9597.26 3263.79 9600.95 3261.37 9604.84 3260.48C9608.73 3259.59 9612.7 3260.27 9616.39 3262.44L9607.38 3158L9613.99 3156.56L9624.58 3279.34L9619.06 3275.32C9612.66 3270.66 9603.88 3268.29 9598.42 3275.61C9597.08 3277.53 9596.03 3279.9 9595.37 3282.56C9594.7 3285.22 9594.43 3288.09 9594.57 3290.94C9594.73 3295.6 9595.53 3300.16 9596.9 3304.3C9598.27 3308.44 9600.18 3312.06 9602.51 3314.91C9610.74 3324.45 9621.68 3325.68 9634.09 3326.24L9633.9 3336.82Z"
        fill="#3F3D56" />
    <path d="M9574.7 3167H9538.77V3177.59H9574.7V3167Z" fill="#3F3D56" />
    <path d="M9688.11 3167H9652.18V3177.59H9688.11V3167Z" fill="#3F3D56" />
    <path
        d="M9476.34 3020.79C9447.41 3015.55 9425 2971.55 9422.54 2926.9C9419.61 2873.79 9439.1 2823.34 9465.84 2793.54C9493.8 2762.37 9528.63 2749.35 9562.34 2746.49C9628.09 2741.29 9692.7 2775.1 9743.62 2841.33C9768.88 2874.62 9792.46 2917.03 9801.4 2968.26C9809.17 3012.74 9802.85 3063.14 9780.31 3094.3C9774.73 3101.94 9768.22 3107.65 9761.18 3111.09C9754.14 3114.53 9746.73 3115.62 9739.41 3114.29C9721.92 3111.4 9705.78 3096.81 9691.81 3080.68C9664.64 3049.32 9642.33 3005.63 9609.22 2989.25C9584.94 2977.23 9553.44 2987.81 9538.61 3022.65C9535.24 3030.63 9533.06 3039.71 9532.23 3049.22C9531.92 3051.25 9532.11 3053.39 9532.76 3055.2C9533.41 3057.01 9534.47 3058.37 9535.72 3058.99C9537 3059.54 9538.36 3059.26 9539.52 3058.22C9540.67 3057.19 9541.52 3055.47 9541.88 3053.44C9545.77 3009.56 9579.77 2993.18 9603.63 3003.2C9638.41 3017.82 9661.76 3067.09 9690.3 3098.39C9705.08 3115.87 9722.48 3126.9 9740.78 3130.37C9756.65 3132.34 9772.39 3124.66 9784.82 3108.89C9809.2 3078.33 9818.53 3025.77 9813.14 2978.45C9806.89 2923.65 9783.65 2876.69 9758.16 2840.32C9706.47 2767.39 9639.36 2728.04 9570.22 2730.13C9534.95 2731.41 9498.15 2742.97 9467.76 2772.56C9438.29 2801.26 9415.51 2849.27 9412.53 2905.08C9409.91 2954.21 9426.52 3005.59 9455.02 3027.12C9461.74 3032.17 9468.95 3035.4 9476.34 3036.67C9482.73 3037.83 9482.68 3021.93 9476.34 3020.79Z"
        fill="#3F3D56" />
    <g clip-path="url(#clip0_31_2059)">
        <path
            d="M7392.99 11895.6L7803.9 11895.5V11888.9C7803.89 11834.6 7787.04 11782.6 7757.05 11744.2C7727.05 11705.9 7686.38 11684.3 7643.96 11684.3H7643.95L7568.89 11611.5L7428.85 11684.3L7392.98 11684.3L7392.99 11895.6Z"
            fill="#2F2E41" />
        <path
            d="M7063.49 8562.12C7031.21 8613.74 7047.35 8789.23 7047.35 8789.23C7047.35 8789.23 6990.86 9356.99 7015.07 9408.6C7039.28 9460.22 6998.93 9501.51 6974.72 9573.77C6950.52 9646.03 6926.31 9821.52 6926.31 9821.52C6789.13 9966.04 6797.19 10626.7 6797.19 10626.7L6748.78 11215.1C6764.92 11277 6990.86 11287.4 7023.14 11277C7055.42 11266.7 7370.13 9811.19 7370.13 9811.19C7370.13 9811.19 7353.99 11215.1 7353.99 11277C7353.99 11339 7571.87 11308 7620.29 11308C7668.71 11308 7975.35 8778.9 7975.35 8778.9V8634.38L7935 8562.12C7935 8562.12 7095.77 8510.51 7063.49 8562.12Z"
            fill="#2F2E41" />
        <path
            d="M7418.55 6673.04C7556.71 6673.04 7668.71 6529.76 7668.71 6353.03C7668.71 6176.29 7556.71 6033.02 7418.55 6033.02C7280.39 6033.02 7168.39 6176.29 7168.39 6353.03C7168.39 6529.76 7280.39 6673.04 7418.55 6673.04Z"
            fill="#A0616A" />
        <path
            d="M7082.46 8790.42L7081.1 8787.97C7008.23 8657.46 7117.82 8343.85 7134.35 8298.39C7114.72 8290.24 7097.91 8273.64 7086.77 8251.42C7075.64 8229.19 7070.87 8202.71 7073.28 8176.5L7080.41 8099.01L7087.84 8023.01L7034.62 7954.93L7034.47 7953.24L7003.85 7610.47L6959.33 7382.8C6942.55 7296.74 6943.98 7206.51 6963.47 7121.39C6982.96 7036.26 7019.81 6959.31 7070.23 6898.42L7173.14 6877.51L7298.22 6723.34H7499.92L7569.08 6807.87C7705.05 6950.45 7737.33 6888.51 7890.65 7156.91L7780.87 7526.89L7842.23 8072.59L7842.27 8171.35L7874.23 8216.78C7885.74 8233.15 7894.11 8252.73 7898.66 8273.96C7903.21 8295.2 7903.82 8317.5 7900.45 8339.09L7896.25 8365.97C7912.49 8374.87 7926.83 8388.63 7938.06 8406.09C7949.28 8423.54 7957.08 8444.19 7960.78 8466.3L7972.01 8533.3C7981.61 8549.51 8045 8657.63 8045 8687.19C8045 8691.63 8042.44 8695.92 8036.94 8700.67C7993.74 8738.09 7754.98 8814.38 7649.31 8760.29C7536.75 8702.71 7089.29 8789.08 7084.79 8789.96L7082.46 8790.42Z"
            fill="#3F3D56" />
        <path
            d="M6955.38 7492.3L7163.37 7440.22C7240.3 7587.17 7281.59 7989 7281.59 7989L7511.56 8599.1C7525.69 8610.08 7537.3 8625.66 7545.2 8644.25C7553.09 8662.84 7557 8683.78 7556.51 8704.92C7556.02 8726.07 7551.17 8746.68 7542.43 8764.64C7533.69 8782.61 7521.39 8797.29 7506.77 8807.19C7492.16 8817.09 7475.75 8821.86 7459.23 8821.02C7442.7 8820.17 7426.65 8813.73 7412.7 8802.37C7398.75 8791 7387.4 8775.11 7379.82 8756.31C7372.23 8737.5 7368.68 8716.47 7369.52 8695.34L7069.58 7972.49L6955.38 7492.3Z"
            fill="#A0616A" />
        <path
            d="M6954.21 7555.43L6948.3 7159.96L7046.18 6992.44C7065.49 6959.65 7091.59 6934.41 7121.52 6919.59C7151.45 6904.77 7184.03 6900.96 7215.57 6908.58C7258.26 6919.28 7296.19 6950.32 7321.69 6995.42C7347.18 7040.53 7358.33 7096.33 7352.89 7151.56C7336.27 7319.01 7298.55 7528.58 7213.22 7575.99L7212.35 7576.47L7300.8 7972.16L6972.81 8030.77L6954.21 7555.43Z"
            fill="#3F3D56" />
        <path
            d="M8189.54 7520.49C8189.54 7520.49 7939.93 7270.9 7804.55 7235.04L7684.72 7458.69L8008.78 7712.74L8639.71 7946.1C8650.76 7961.8 8664.86 7973.48 8680.57 7979.95C8696.29 7986.42 8713.07 7987.46 8729.2 7982.96C8745.33 7978.46 8760.25 7968.57 8772.43 7954.32C8784.61 7940.06 8793.62 7921.93 8798.56 7901.77C8803.49 7881.61 8804.17 7860.14 8800.52 7839.54C8796.87 7818.94 8789.02 7799.95 8777.78 7784.48C8766.53 7769.01 8752.29 7757.63 8736.49 7751.48C8720.7 7745.33 8703.91 7744.64 8687.84 7749.47L8189.54 7520.49Z"
            fill="#A0616A" />
        <path
            d="M7750.39 7570.65L7490.25 7356.83L7435.93 7159.57C7425.38 7120.79 7423.51 7079.01 7430.55 7038.95C7437.58 6998.89 7453.23 6962.15 7475.73 6932.87C7506.45 6893.44 7547.72 6870.41 7591.2 6868.42C7634.68 6866.43 7677.13 6885.63 7709.96 6922.15C7809.48 7033.01 7937.72 7070.16 7921.02 7187.25L7968.93 7196.2L8213.92 7434.22L8069.45 7815.43L7750.39 7570.65Z"
            fill="#3F3D56" />
        <path
            d="M7134.81 6142.76C7162.9 6087.17 7215.61 6050.12 7266.71 6060.53C7271.46 6018.81 7285.08 5979.56 7306.06 5947.05C7327.05 5914.55 7354.6 5890.03 7385.73 5876.17C7416.85 5862.31 7450.36 5859.64 7482.58 5868.45C7514.81 5877.25 7544.54 5897.21 7568.51 5926.13C7576.4 5919.03 7585.59 5914.65 7595.18 5913.42C7604.78 5912.19 7614.46 5914.15 7623.29 5919.12C7640.88 5929.35 7656.18 5945.06 7667.79 5964.81C7697.11 6011.59 7715.97 6067.66 7722.36 6127.06C7728.74 6186.46 7722.42 6246.97 7704.06 6302.13C7710.31 6273.09 7687.55 6245.77 7664.56 6239.25C7641.58 6232.73 7617.46 6238.9 7594.15 6234.66C7564.27 6229.22 7537.41 6207.04 7507.49 6202.05C7482.11 6199.94 7456.65 6204.13 7432.52 6214.38C7408.39 6224.63 7382.97 6228.99 7357.58 6227.25C7332.39 6223.43 7299.95 6345.53 7300.38 6431.53C7300.47 6447.83 7297.84 6468.76 7285.39 6472.22C7270.06 6476.48 7261.17 6449.4 7246.58 6442.03C7239.85 6439.56 7232.64 6440.53 7226.46 6444.73C7220.28 6448.94 7215.62 6456.04 7213.46 6464.55C7211.62 6473.21 7211.42 6482.3 7212.89 6491.07C7214.35 6499.84 7217.43 6508.04 7221.86 6514.98C7230.84 6528.74 7241.48 6540.56 7253.4 6549.98L7247.39 6556.37C7237.39 6573.27 7216.65 6574 7202.24 6563.55C7188.46 6551.61 7177.3 6535.35 7169.83 6516.33C7143.16 6459.6 7119.78 6399.16 7110.37 6334.07C7100.96 6268.98 7106.72 6198.35 7134.81 6142.76Z"
            fill="#2F2E41" />
        <path d="M7397.7 11717.2L7531.32 11717.2L7594.89 11057.9L7397.67 11057.9L7397.7 11717.2Z"
            fill="#A0616A" />
        <path
            d="M6695.21 11764.5L7092.64 11898L7093.96 11891.6C7104.73 11839.1 7098.76 11783.3 7077.37 11736.4C7055.98 11689.6 7020.92 11655.5 6979.89 11641.7L6979.88 11641.7L6921.75 11546.9L6771.84 11571.8L6737.15 11560.2L6695.21 11764.5Z"
            fill="#2F2E41" />
        <path d="M6735.16 11593.6L6864.4 11637L7056.82 11019.9L6866.07 10955.9L6735.16 11593.6Z"
            fill="#A0616A" />
        <path
            d="M12959.2 4321.72H6710.72C6708.1 4321.64 6705.6 4320.26 6703.77 4317.86C6701.93 4315.46 6700.91 4312.24 6700.91 4308.88C6700.91 4305.53 6701.93 4302.3 6703.77 4299.9C6705.6 4297.51 6708.1 4296.12 6710.72 4296.05H12959.2C12961.8 4296.12 12964.3 4297.51 12966.1 4299.9C12968 4302.3 12969 4305.53 12969 4308.88C12969 4312.24 12968 4315.46 12966.1 4317.86C12964.3 4320.26 12961.8 4321.64 12959.2 4321.72Z"
            fill="#CACACA" />
        <path
            d="M6931.63 4142.03C6991.26 4142.03 7039.59 4078.81 7039.59 4000.84C7039.59 3922.86 6991.26 3859.65 6931.63 3859.65C6872 3859.65 6823.67 3922.86 6823.67 4000.84C6823.67 4078.81 6872 4142.03 6931.63 4142.03Z"
            fill="#3F3D56" />
        <path
            d="M7304.59 4142.03C7364.21 4142.03 7412.55 4078.81 7412.55 4000.84C7412.55 3922.86 7364.21 3859.65 7304.59 3859.65C7244.96 3859.65 7196.62 3922.86 7196.62 4000.84C7196.62 4078.81 7244.96 4142.03 7304.59 4142.03Z"
            fill="#3F3D56" />
        <path
            d="M7677.55 4142.03C7737.17 4142.03 7785.51 4078.81 7785.51 4000.84C7785.51 3922.86 7737.17 3859.65 7677.55 3859.65C7617.92 3859.65 7569.59 3922.86 7569.59 4000.84C7569.59 4078.81 7617.92 4142.03 7677.55 4142.03Z"
            fill="#3F3D56" />
        <path
            d="M12735.7 3894.65H12470.8C12465.5 3894.78 12460.5 3897.54 12456.8 3902.34C12453.2 3907.14 12451.1 3913.59 12451.1 3920.31C12451.1 3927.03 12453.2 3933.48 12456.8 3938.28C12460.5 3943.08 12465.5 3945.84 12470.8 3945.97H12735.7C12740.9 3945.84 12745.9 3943.08 12749.6 3938.28C12753.3 3933.48 12755.4 3927.03 12755.4 3920.31C12755.4 3913.59 12753.3 3907.14 12749.6 3902.34C12745.9 3897.54 12740.9 3894.78 12735.7 3894.65Z"
            fill="#3F3D56" />
        <path
            d="M12735.7 3990.97H12470.8C12465.5 3991.11 12460.5 3993.87 12456.8 3998.67C12453.2 4003.46 12451.1 4009.92 12451.1 4016.63C12451.1 4023.35 12453.2 4029.8 12456.8 4034.6C12460.5 4039.4 12465.5 4042.16 12470.8 4042.3H12735.7C12740.9 4042.16 12745.9 4039.4 12749.6 4034.6C12753.3 4029.8 12755.4 4023.35 12755.4 4016.63C12755.4 4009.92 12753.3 4003.46 12749.6 3998.67C12745.9 3993.87 12740.9 3991.11 12735.7 3990.97Z"
            fill="#3F3D56" />
        <path
            d="M12735.7 4087.17H12470.8C12465.5 4087.31 12460.5 4090.07 12456.8 4094.87C12453.2 4099.66 12451.1 4106.11 12451.1 4112.83C12451.1 4119.55 12453.2 4126 12456.8 4130.8C12460.5 4135.6 12465.5 4138.36 12470.8 4138.49H12735.7C12740.9 4138.36 12745.9 4135.6 12749.6 4130.8C12753.3 4126 12755.4 4119.55 12755.4 4112.83C12755.4 4106.11 12753.3 4099.66 12749.6 4094.87C12745.9 4090.07 12740.9 4087.31 12735.7 4087.17Z"
            fill="#3F3D56" />
        <path
            d="M12399.1 4831.62H7270.78C7242.39 4831.68 7215.16 4846.13 7195.09 4871.82C7175.01 4897.5 7163.71 4932.32 7163.66 4968.65V4990.75C7163.71 5027.07 7175.01 5061.9 7195.09 5087.58C7215.16 5113.27 7242.39 5127.73 7270.78 5127.78H12399.1C12427.5 5127.73 12454.7 5113.27 12474.8 5087.58C12494.9 5061.9 12506.2 5027.07 12506.2 4990.75V4968.65C12506.2 4932.32 12494.9 4897.5 12474.8 4871.82C12454.7 4846.13 12427.5 4831.68 12399.1 4831.62Z"
            fill="#F0F0F0" />
        <path
            d="M7889.68 5034.38H7401.52C7390.59 5034.38 7380.1 5028.82 7372.37 5018.93C7364.64 5009.04 7360.3 4995.63 7360.3 4981.65C7360.3 4967.66 7364.64 4954.25 7372.37 4944.36C7380.1 4934.47 7390.59 4928.91 7401.52 4928.91H7889.68C7942.84 4927.96 7943.37 5035.34 7889.68 5034.38Z"
            fill="white" />
        <path
            d="M9349.98 5034.38H8861.82C8850.89 5034.38 8840.41 5028.82 8832.68 5018.93C8824.94 5009.04 8820.6 4995.63 8820.6 4981.65C8820.6 4967.66 8824.94 4954.25 8832.68 4944.36C8840.41 4934.47 8850.89 4928.91 8861.82 4928.91H9349.98C9403.14 4927.96 9403.68 5035.34 9349.98 5034.38Z"
            fill="white" />
        <path
            d="M10810.3 5034.38H10322.1C10311.2 5034.38 10300.7 5028.82 10293 5018.93C10285.2 5009.04 10280.9 4995.63 10280.9 4981.65C10280.9 4967.66 10285.2 4954.25 10293 4944.36C10300.7 4934.47 10311.2 4928.91 10322.1 4928.91H10810.3C10863.4 4927.96 10864 5035.34 10810.3 5034.38Z"
            fill="white" />
        <path
            d="M12194.9 5040.07H11706.7C11695.8 5040.07 11685.3 5034.52 11677.6 5024.63C11669.9 5014.74 11665.5 5001.33 11665.5 4987.34C11665.5 4973.36 11669.9 4959.94 11677.6 4950.05C11685.3 4940.16 11695.8 4934.61 11706.7 4934.61H12194.9C12248.1 4933.66 12248.6 5041.03 12194.9 5040.07Z"
            fill="#5BA959" />
        <path d="M11433.3 4831.62H11415.5V5127.78H11433.3V4831.62Z" fill="white" />
        <path
            d="M8855.04 7714.16C8854.31 7714.16 8853.58 7714.14 8852.85 7714.11C8844.27 7713.71 8835.9 7710.67 8828.44 7705.24C8820.98 7699.81 8814.66 7692.16 8810.01 7682.94C8775.18 7616.35 8732.44 7557.12 8683.33 7507.4C8653.6 7477 8622.53 7448.73 8592.49 7421.39C8514.98 7350.89 8441.99 7284.49 8401.47 7192.75C8313.13 6992.69 8417.16 6714.04 8565.79 6589.07C8732.49 6448.92 8951.76 6426.93 9163.88 6424.05C9185.93 6423.75 9207.98 6423.61 9230.06 6423.61C9612.25 6423.79 9993.64 6468.41 10369.5 6556.89C10494.5 6586.39 10625.3 6622.53 10730.5 6710.23C10835 6797.41 10898.5 6934.7 10892.3 7060C10883.3 7242.92 10731.7 7379.59 10593.7 7415.33C10462.1 7449.36 10325.4 7426.36 10180.7 7402C10148.8 7396.63 10115.8 7391.07 10083.1 7386.24C9728.17 7333.76 9061.37 7495.53 9033.16 7502.44L9005.17 7509.29L8896.58 7688.06C8891.69 7696.21 8885.4 7702.81 8878.2 7707.33C8870.99 7711.86 8863.07 7714.2 8855.04 7714.16Z"
            fill="#5BA959" />
        <path
            d="M10435.7 6821.82H8935.42C8926.76 6821.82 8918.46 6817.42 8912.34 6809.59C8906.22 6801.76 8902.78 6791.14 8902.78 6780.06C8902.78 6768.99 8906.22 6758.37 8912.34 6750.54C8918.46 6742.71 8926.76 6738.31 8935.42 6738.31H10435.7C10444.3 6738.31 10452.6 6742.71 10458.8 6750.54C10464.9 6758.37 10468.3 6768.99 10468.3 6780.06C10468.3 6791.14 10464.9 6801.76 10458.8 6809.59C10452.6 6817.42 10444.3 6821.82 10435.7 6821.82Z"
            fill="white" />
        <path
            d="M10435.7 7078.13H8935.42C8931.13 7078.14 8926.89 7077.06 8922.92 7074.97C8918.96 7072.88 8915.36 7069.81 8912.33 7065.93C8909.29 7062.06 8906.88 7057.46 8905.24 7052.4C8903.6 7047.33 8902.75 7041.9 8902.74 7036.42C8902.74 7030.94 8903.58 7025.5 8905.21 7020.44C8906.85 7015.37 8909.25 7010.76 8912.28 7006.88C8915.31 7003 8918.9 6999.92 8922.86 6997.81C8926.82 6995.71 8931.06 6994.62 8935.35 6994.62H10435.7C10444.3 6994.62 10452.6 6999.02 10458.8 7006.85C10464.9 7014.68 10468.3 7025.3 10468.3 7036.38C10468.3 7047.45 10464.9 7058.07 10458.8 7065.9C10452.6 7073.73 10444.3 7078.13 10435.7 7078.13Z"
            fill="white" />
        <path
            d="M9110.25 7334.44H8935.42C8926.76 7334.44 8918.46 7330.04 8912.34 7322.21C8906.22 7314.38 8902.78 7303.76 8902.78 7292.68C8902.78 7281.61 8906.22 7270.99 8912.34 7263.15C8918.46 7255.32 8926.76 7250.92 8935.42 7250.92H9110.25C9118.91 7250.92 9127.21 7255.32 9133.33 7263.15C9139.46 7270.99 9142.9 7281.61 9142.9 7292.68C9142.9 7303.76 9139.46 7314.38 9133.33 7322.21C9127.21 7330.04 9118.91 7334.44 9110.25 7334.44Z"
            fill="white" />
        <path
            d="M11534.2 9048.87L11447.7 8906.47L11425.4 8901.01C11402.9 8895.5 10871.8 8766.65 10589 8808.45C10563 8812.3 10536.7 8816.73 10511.3 8821.01C10396 8840.41 10287.2 8858.73 10182.4 8831.62C10072.4 8803.16 9951.68 8694.29 9944.47 8548.59C9939.54 8448.78 9990.14 8339.42 10073.4 8269.98C10157.1 8200.12 10261.3 8171.34 10360.9 8147.84C10660.3 8077.36 10964.1 8041.83 11268.5 8041.68C11286.1 8041.68 11303.7 8041.79 11321.2 8042.03C11490.2 8044.33 11664.9 8061.84 11797.7 8173.48C11916 8273.02 11998.9 8494.97 11928.5 8654.33C11896.3 8727.41 11838.1 8780.3 11776.4 8836.45C11752.5 8858.23 11727.7 8880.74 11704 8904.96C11664.9 8944.57 11630.9 8991.74 11603.1 9044.79C11599.4 9052.13 11594.4 9058.23 11588.4 9062.55C11582.5 9066.87 11575.8 9069.29 11569 9069.61C11568.4 9069.64 11567.8 9069.66 11567.3 9069.66C11560.9 9069.68 11554.5 9067.82 11548.8 9064.22C11543.1 9060.61 11538.1 9055.36 11534.2 9048.87Z"
            fill="#F2F2F2" />
        <path
            d="M10308.2 8358.87H11503.2C11510.1 8358.85 11516.7 8355.34 11521.6 8349.11C11526.4 8342.87 11529.2 8334.42 11529.2 8325.61C11529.2 8316.8 11526.4 8308.35 11521.6 8302.11C11516.7 8295.88 11510.1 8292.36 11503.2 8292.35H10308.2C10301.3 8292.36 10294.7 8295.88 10289.9 8302.11C10285 8308.35 10282.3 8316.8 10282.3 8325.61C10282.3 8334.42 10285 8342.87 10289.9 8349.11C10294.7 8355.34 10301.3 8358.85 10308.2 8358.87Z"
            fill="white" />
        <path
            d="M10308.2 8563.03H11503.2C11506.6 8563.04 11510 8562.19 11513.2 8560.53C11516.4 8558.87 11519.2 8556.42 11521.7 8553.33C11524.1 8550.25 11526 8546.58 11527.3 8542.54C11528.6 8538.51 11529.3 8534.18 11529.3 8529.81C11529.3 8525.43 11528.6 8521.1 11527.3 8517.06C11526 8513.02 11524.1 8509.35 11521.7 8506.26C11519.3 8503.16 11516.4 8500.71 11513.2 8499.04C11510.1 8497.37 11506.7 8496.51 11503.3 8496.51H10308.2C10301.3 8496.53 10294.7 8500.04 10289.9 8506.27C10285 8512.51 10282.3 8520.96 10282.3 8529.77C10282.3 8538.58 10285 8547.03 10289.9 8553.27C10294.7 8559.5 10301.3 8563.02 10308.2 8563.03Z"
            fill="white" />
        <path
            d="M11364 8767.19H11503.2C11510.1 8767.19 11516.7 8763.69 11521.6 8757.45C11526.5 8751.21 11529.2 8742.75 11529.2 8733.93C11529.2 8725.11 11526.5 8716.65 11521.6 8710.41C11516.7 8704.17 11510.1 8700.67 11503.2 8700.67H11364C11357.1 8700.67 11350.5 8704.17 11345.6 8710.41C11340.7 8716.65 11338 8725.11 11338 8733.93C11338 8742.75 11340.7 8751.21 11345.6 8757.45C11350.5 8763.69 11357.1 8767.19 11364 8767.19Z"
            fill="white" />
        <path
            d="M8873.57 8005.28C8961.2 8005.28 9032.24 7914.41 9032.24 7802.3C9032.24 7690.2 8961.2 7599.33 8873.57 7599.33C8785.94 7599.33 8714.9 7690.2 8714.9 7802.3C8714.9 7914.41 8785.94 8005.28 8873.57 8005.28Z"
            fill="white" />
        <path
            d="M8873.57 8007.76C8841.8 8007.76 8810.75 7995.71 8784.34 7973.13C8757.93 7950.56 8737.34 7918.47 8725.19 7880.93C8713.03 7843.39 8709.85 7802.08 8716.05 7762.22C8722.24 7722.37 8737.54 7685.76 8760 7657.03C8782.46 7628.29 8811.08 7608.73 8842.23 7600.8C8873.39 7592.87 8905.68 7596.94 8935.03 7612.49C8964.38 7628.04 8989.46 7654.37 9007.11 7688.16C9024.76 7721.94 9034.18 7761.67 9034.18 7802.3C9034.13 7856.77 9017.19 7909 8987.08 7947.51C8956.97 7986.03 8916.15 8007.7 8873.57 8007.76Z"
            fill="#3F3D56" />
        <path
            d="M8861.69 7883.42C8861.35 7883.42 8861.01 7883.41 8860.67 7883.39C8857.68 7883.2 8854.76 7882.2 8852.11 7880.43C8849.45 7878.67 8847.13 7876.19 8845.29 7873.17L8818.77 7829.56C8817.1 7826.8 8815.87 7823.66 8815.14 7820.29C8814.42 7816.93 8814.22 7813.42 8814.56 7809.96C8814.9 7806.5 8815.76 7803.15 8817.11 7800.12C8818.46 7797.09 8820.26 7794.43 8822.41 7792.29L8823.37 7791.34C8825.52 7789.19 8827.98 7787.61 8830.61 7786.69C8833.24 7785.76 8835.99 7785.51 8838.69 7785.94C8841.4 7786.37 8844.01 7787.48 8846.38 7789.21C8848.75 7790.93 8850.83 7793.24 8852.51 7795.99C8853.85 7798.19 8855.54 7800 8857.48 7801.28C8859.41 7802.57 8861.54 7803.3 8863.72 7803.44C8865.89 7803.57 8868.07 7803.11 8870.09 7802.07C8872.11 7801.03 8873.94 7799.45 8875.44 7797.42L8929.28 7724.71C8933.07 7719.61 8938.29 7716.63 8943.79 7716.44C8949.29 7716.25 8954.63 7718.86 8958.63 7723.69L8959.51 7724.77C8961.49 7727.17 8963.08 7730.04 8964.19 7733.23C8965.3 7736.41 8965.91 7739.84 8965.99 7743.33C8966.06 7746.82 8965.6 7750.29 8964.62 7753.55C8963.65 7756.8 8962.18 7759.78 8960.3 7762.31L8876.75 7875.13C8874.81 7877.75 8872.48 7879.84 8869.89 7881.26C8867.3 7882.69 8864.51 7883.43 8861.69 7883.42Z"
            fill="white" />
        <path
            d="M11576.9 9351.38C11664.5 9351.38 11735.5 9260.51 11735.5 9148.41C11735.5 9036.31 11664.5 8945.43 11576.9 8945.43C11489.2 8945.43 11418.2 9036.31 11418.2 9148.41C11418.2 9260.51 11489.2 9351.38 11576.9 9351.38Z"
            fill="white" />
        <path
            d="M11576.9 9353.86C11545.1 9353.86 11514.1 9341.81 11487.6 9319.24C11461.2 9296.66 11440.7 9264.57 11428.5 9227.03C11416.3 9189.49 11413.2 9148.18 11419.4 9108.33C11425.6 9068.47 11440.8 9031.86 11463.3 9003.13C11485.8 8974.4 11514.4 8954.83 11545.5 8946.9C11576.7 8938.97 11609 8943.04 11638.3 8958.59C11667.7 8974.14 11692.8 9000.48 11710.4 9034.26C11728.1 9068.05 11737.5 9107.77 11737.5 9148.41C11737.4 9202.88 11720.5 9255.1 11690.4 9293.62C11660.3 9332.13 11619.5 9353.8 11576.9 9353.86Z"
            fill="#E6E6E6" />
        <path
            d="M11565 9229.53C11564.7 9229.53 11564.3 9229.51 11564 9229.49C11561 9229.31 11558.1 9228.3 11555.4 9226.53C11552.8 9224.77 11550.4 9222.29 11548.6 9219.27L11522.1 9175.66C11520.4 9172.91 11519.2 9169.76 11518.5 9166.4C11517.7 9163.03 11517.5 9159.52 11517.9 9156.06C11518.2 9152.6 11519.1 9149.26 11520.4 9146.23C11521.8 9143.19 11523.6 9140.53 11525.7 9138.39L11526.7 9137.44C11528.8 9135.3 11531.3 9133.72 11533.9 9132.79C11536.5 9131.86 11539.3 9131.61 11542 9132.04C11544.7 9132.48 11547.3 9133.59 11549.7 9135.31C11552.1 9137.04 11554.1 9139.34 11555.8 9142.1C11557.2 9144.3 11558.9 9146.1 11560.8 9147.39C11562.7 9148.67 11564.8 9149.41 11567 9149.54C11569.2 9149.68 11571.4 9149.21 11573.4 9148.17C11575.4 9147.13 11577.2 9145.55 11578.7 9143.53L11632.6 9070.82C11636.4 9065.71 11641.6 9062.73 11647.1 9062.54C11652.6 9062.35 11657.9 9064.96 11661.9 9069.79L11662.8 9070.87C11664.8 9073.27 11666.4 9076.14 11667.5 9079.33C11668.6 9082.51 11669.2 9085.95 11669.3 9089.43C11669.4 9092.92 11668.9 9096.39 11667.9 9099.65C11667 9102.9 11665.5 9105.88 11663.6 9108.42L11580.1 9221.23C11578.1 9223.85 11575.8 9225.94 11573.2 9227.37C11570.6 9228.79 11567.8 9229.53 11565 9229.53Z"
            fill="white" />
        <path
            d="M8644.28 11696.2L8568.1 11539.6L8552.88 11629.1C8550.21 11644.8 8547.54 11660.7 8545.07 11676.5C8523.43 11652.9 8500.41 11631 8477.88 11610C8408.71 11545.8 8339.56 11481.5 8270.46 11417.1L8292.1 11577.7C8305.44 11676.5 8319.37 11777.4 8352.38 11867.8C8356.03 11878 8359.99 11888.1 8364.24 11898H8685.79C8688.38 11888.8 8690.17 11879.3 8691.13 11869.7C8691.21 11869.1 8691.24 11868.4 8691.22 11867.8C8696.26 11806.5 8669.78 11748.7 8644.28 11696.2Z"
            fill="#F0F0F0" />
        <path
            d="M8916.44 11913.4L6191.55 11917.3C6188.43 11917.3 6185.45 11915.7 6183.25 11912.9C6181.05 11910 6179.82 11906.2 6179.82 11902.2C6179.82 11898.2 6181.05 11894.4 6183.25 11891.6C6185.45 11888.8 6188.43 11887.2 6191.55 11887.2L8916.44 11883.3C8917.99 11883.3 8919.52 11883.7 8920.96 11884.4C8922.39 11885.2 8923.69 11886.3 8924.78 11887.7C8925.88 11889.1 8926.75 11890.7 8927.34 11892.6C8927.94 11894.4 8928.24 11896.4 8928.24 11898.3C8928.24 11900.3 8927.94 11902.3 8927.34 11904.1C8926.75 11905.9 8925.88 11907.6 8924.78 11909C8923.69 11910.4 8922.39 11911.5 8920.96 11912.3C8919.52 11913 8917.99 11913.4 8916.44 11913.4Z"
            fill="#CACACA" />
    </g>
    <path
        d="M5584.95 8238.24H3644.21C3613.35 8238.19 3583.77 8222.79 3561.96 8195.41C3540.14 8168.03 3527.87 8130.9 3527.83 8092.18V6655.37C3527.86 6626.41 3537.04 6598.64 3553.35 6578.16C3569.67 6557.68 3591.79 6546.16 3614.87 6546.13H5612.9C5636.34 6546.16 5658.82 6557.87 5675.4 6578.67C5691.97 6599.48 5701.3 6627.69 5701.32 6657.11V8092.18C5701.29 8130.9 5689.02 8168.03 5667.2 8195.41C5645.38 8222.79 5615.8 8238.19 5584.95 8238.24Z"
        fill="white" />
    <path
        d="M5584.95 8238.24H3644.21C3613.35 8238.19 3583.77 8222.79 3561.96 8195.41C3540.14 8168.03 3527.87 8130.9 3527.83 8092.18V6655.37C3527.86 6626.41 3537.04 6598.64 3553.35 6578.16C3569.67 6557.68 3591.79 6546.16 3614.87 6546.13H5612.9C5636.34 6546.16 5658.82 6557.87 5675.4 6578.67C5691.97 6599.48 5701.3 6627.69 5701.32 6657.11V8092.18C5701.29 8130.9 5689.02 8168.03 5667.2 8195.41C5645.38 8222.79 5615.8 8238.19 5584.95 8238.24ZM3614.87 6562.82C3595.32 6562.85 3576.58 6572.61 3562.75 6589.96C3548.93 6607.31 3541.15 6630.83 3541.13 6655.37V8092.18C3541.16 8126.48 3552.03 8159.36 3571.36 8183.61C3590.68 8207.86 3616.88 8221.5 3644.21 8221.54H5584.95C5612.28 8221.5 5638.48 8207.86 5657.8 8183.61C5677.12 8159.36 5687.99 8126.48 5688.02 8092.18V6657.11C5688 6632.11 5680.08 6608.15 5666 6590.47C5651.91 6572.79 5632.82 6562.85 5612.9 6562.82H3614.87Z"
        fill="#3F3D56" />
    <path
        d="M3750.41 8092.55H5477.94C5506.15 8092.55 5533.21 8078.47 5553.16 8053.41C5573.11 8028.36 5584.31 7994.37 5584.31 7958.94V6910.56C5584.31 6875.12 5573.11 6841.14 5553.16 6816.08C5533.21 6791.03 5506.15 6776.95 5477.94 6776.95H3750.41C3722.2 6776.95 3695.15 6791.03 3675.2 6816.08C3655.25 6841.14 3644.04 6875.12 3644.04 6910.56V7958.94C3644.04 7994.37 3655.25 8028.36 3675.2 8053.41C3695.15 8078.47 3722.2 8092.55 3750.41 8092.55Z"
        fill="#F2F2F2" />
    <path
        d="M5703.73 6647.06H3523.03V6577.03C3523.23 6540.24 3535.06 6505.05 3555.93 6479.19C3576.8 6453.32 3604.99 6438.89 3634.34 6439.06H5592.43C5621.77 6438.89 5649.96 6453.32 5670.83 6479.19C5691.7 6505.05 5703.53 6540.24 5703.73 6577.03V6647.06Z"
        fill="#5BA959" />
    <path
        d="M3732.6 6579.48C3748.31 6579.48 3761.05 6563.37 3761.05 6543.5C3761.05 6523.63 3748.31 6507.52 3732.6 6507.52C3716.89 6507.52 3704.15 6523.63 3704.15 6543.5C3704.15 6563.37 3716.89 6579.48 3732.6 6579.48Z"
        fill="white" />
    <path
        d="M3840.79 6579.48C3856.5 6579.48 3869.24 6563.37 3869.24 6543.5C3869.24 6523.63 3856.5 6507.52 3840.79 6507.52C3825.08 6507.52 3812.34 6523.63 3812.34 6543.5C3812.34 6563.37 3825.08 6579.48 3840.79 6579.48Z"
        fill="white" />
    <path
        d="M3948.99 6579.48C3964.7 6579.48 3977.44 6563.37 3977.44 6543.5C3977.44 6523.63 3964.7 6507.52 3948.99 6507.52C3933.27 6507.52 3920.54 6523.63 3920.54 6543.5C3920.54 6563.37 3933.27 6579.48 3948.99 6579.48Z"
        fill="white" />
    <path
        d="M4057.98 7710.77C4014.63 7710.77 3972.25 7694.61 3936.2 7664.33C3900.16 7634.04 3872.06 7591 3855.47 7540.65C3838.88 7490.29 3834.54 7434.88 3843 7381.42C3851.46 7327.97 3872.33 7278.86 3902.99 7240.32C3933.64 7201.78 3972.7 7175.54 4015.22 7164.9C4057.74 7154.27 4101.81 7159.73 4141.86 7180.58C4181.92 7201.44 4216.15 7236.76 4240.23 7282.08C4264.32 7327.4 4277.17 7380.68 4277.17 7435.19C4277.11 7508.25 4253.99 7578.3 4212.9 7629.96C4171.81 7681.63 4116.1 7710.69 4057.98 7710.77Z"
        fill="#5BA959" />
    <path
        d="M5337.16 7659.86H4487.74C4474.02 7660.09 4460.73 7653.81 4450.54 7642.3C4440.35 7630.78 4434.01 7614.86 4432.77 7597.73C4432.28 7588.61 4433.29 7579.46 4435.74 7570.85C4438.18 7562.24 4442.01 7554.35 4446.99 7547.67C4451.96 7540.99 4457.98 7535.66 4464.67 7532.01C4471.35 7528.37 4478.57 7526.48 4485.86 7526.47H5335.06C5348.84 7526.22 5362.2 7532.51 5372.44 7544.08C5382.68 7555.66 5389.04 7571.66 5390.26 7588.88C5390.72 7597.98 5389.69 7607.1 5387.23 7615.68C5384.77 7624.26 5380.93 7632.11 5375.96 7638.76C5370.98 7645.41 5364.97 7650.72 5358.3 7654.34C5351.63 7657.97 5344.44 7659.85 5337.16 7659.86Z"
        fill="#3F3D56" />
    <path
        d="M4891.56 7376.38H4487.74C4474.02 7376.61 4460.73 7370.34 4450.54 7358.82C4440.35 7347.3 4434.01 7331.38 4432.77 7314.25C4432.28 7305.13 4433.29 7295.99 4435.74 7287.37C4438.18 7278.76 4442.01 7270.87 4446.99 7264.19C4451.96 7257.51 4457.98 7252.18 4464.67 7248.53C4471.35 7244.89 4478.57 7243 4485.86 7242.99H4889.46C4903.24 7242.74 4916.6 7249.03 4926.84 7260.61C4937.08 7272.18 4943.45 7288.18 4944.66 7305.4C4945.12 7314.5 4944.09 7323.62 4941.63 7332.2C4939.17 7340.78 4935.33 7348.63 4930.36 7355.28C4925.38 7361.93 4919.38 7367.24 4912.7 7370.86C4906.03 7374.49 4898.84 7376.37 4891.56 7376.38Z"
        fill="#3F3D56" />
    <path
        d="M5021.17 8907.88H2487.3C2465.48 8907.85 2444.02 8914.96 2425.05 8928.5C2420.51 8931.74 2416.13 8935.34 2411.95 8939.27C2396.12 8954 2383.26 8973.19 2374.4 8995.28C2365.55 9017.38 2360.94 9041.77 2360.94 9066.51V10719.6C2360.97 10761.6 2374.29 10802 2397.98 10831.7C2421.68 10861.4 2453.8 10878.2 2487.3 10878.2H5021.17C5054.68 10878.2 5086.8 10861.4 5110.49 10831.7C5134.18 10802 5147.5 10761.6 5147.53 10719.6V9066.51C5147.5 9024.45 5134.18 8984.12 5110.49 8954.38C5086.8 8924.64 5054.68 8907.92 5021.17 8907.88Z"
        fill="white" />
    <path
        d="M5021.17 8907.88H2487.3C2465.48 8907.85 2444.02 8914.96 2425.05 8928.5C2420.51 8931.74 2416.13 8935.34 2411.95 8939.27C2396.12 8954 2383.26 8973.19 2374.4 8995.28C2365.55 9017.38 2360.94 9041.77 2360.94 9066.51V10719.6C2360.97 10761.6 2374.29 10802 2397.98 10831.7C2421.68 10861.4 2453.8 10878.2 2487.3 10878.2H5021.17C5054.68 10878.2 5086.8 10861.4 5110.49 10831.7C5134.18 10802 5147.5 10761.6 5147.53 10719.6V9066.51C5147.5 9024.45 5134.18 8984.12 5110.49 8954.38C5086.8 8924.64 5054.68 8907.92 5021.17 8907.88ZM5134.23 10719.6C5134.19 10757.2 5122.26 10793.3 5101.07 10819.9C5079.88 10846.5 5051.14 10861.4 5021.17 10861.5H2487.3C2457.33 10861.4 2428.6 10846.5 2407.4 10819.9C2386.21 10793.3 2374.29 10757.2 2374.24 10719.6V9066.51C2374.34 9036.51 2381.96 9007.32 2396.02 8983.07C2410.08 8958.82 2429.88 8940.75 2452.58 8931.42C2453.52 8931.09 2454.38 8930.67 2455.31 8930.34C2465.7 8926.51 2476.47 8924.56 2487.3 8924.58H5021.17C5051.14 8924.63 5079.88 8939.6 5101.07 8966.21C5122.26 8992.81 5134.19 9028.88 5134.23 9066.51V10719.6Z"
        fill="#3F3D56" />
    <path
        d="M3751.36 9892.6C3741.27 9892.6 3731.34 9889.38 3722.51 9883.26L2398.85 8968.31C2397.3 8967.24 2396.16 8965.44 2395.67 8963.32C2395.17 8961.19 2395.38 8958.9 2396.23 8956.96C2397.08 8955.02 2398.51 8953.59 2400.2 8952.97C2401.89 8952.35 2403.71 8952.61 2405.26 8953.68L3728.92 9868.63C3735.67 9873.31 3743.24 9875.8 3750.95 9875.89C3758.66 9875.97 3766.27 9873.65 3773.09 9869.12L5118.53 8977.74C5119.31 8977.23 5120.15 8976.91 5121.02 8976.81C5121.89 8976.7 5122.77 8976.82 5123.61 8977.14C5124.44 8977.46 5125.22 8977.99 5125.89 8978.69C5126.56 8979.39 5127.12 8980.25 5127.53 8981.22C5127.94 8982.2 5128.19 8983.26 5128.27 8984.35C5128.35 8985.45 5128.26 8986.55 5128 8987.6C5127.74 8988.64 5127.32 8989.62 5126.76 8990.46C5126.2 8991.31 5125.51 8992 5124.74 8992.51L3779.29 9883.89C3770.68 9889.6 3761.1 9892.59 3751.36 9892.6Z"
        fill="#3F3D56" />
    <path
        d="M2783.81 10460.4H2597.65C2583.55 10460.4 2570.02 10453.4 2560.05 10440.9C2550.07 10428.4 2544.47 10411.4 2544.47 10393.7C2544.47 10376 2550.07 10359.1 2560.05 10346.6C2570.02 10334.1 2583.55 10327 2597.65 10327H2783.81C2797.91 10327 2811.44 10334.1 2821.41 10346.6C2831.39 10359.1 2836.99 10376 2836.99 10393.7C2836.99 10411.4 2831.39 10428.4 2821.41 10440.9C2811.44 10453.4 2797.91 10460.4 2783.81 10460.4Z"
        fill="#3F3D56" />
    <path
        d="M3003.38 10686H2597.68C2583.56 10686 2570.03 10679 2560.05 10666.5C2550.07 10653.9 2544.47 10637 2544.47 10619.3C2544.47 10601.6 2550.07 10584.6 2560.05 10572.1C2570.03 10559.6 2583.56 10552.6 2597.68 10552.6H3003.38C3017.49 10552.6 3031.02 10559.6 3041 10572.1C3050.98 10584.6 3056.59 10601.6 3056.59 10619.3C3056.59 10637 3050.98 10653.9 3041 10666.5C3031.02 10679 3017.49 10686 3003.38 10686Z"
        fill="#3F3D56" />
    <path
        d="M3751.04 10160.3C3868.55 10160.3 3963.82 10040.6 3963.82 9893.04C3963.82 9745.44 3868.55 9625.79 3751.04 9625.79C3633.52 9625.79 3538.25 9745.44 3538.25 9893.04C3538.25 10040.6 3633.52 10160.3 3751.04 10160.3Z"
        fill="#5BA959" />
    <path
        d="M2785.87 9064.63L3723.77 9556.05C3727.01 9557.74 3730.64 9557.77 3733.89 9556.12L4700.84 9064.69C4703.7 9063.24 4706.07 9060.58 4707.54 9057.18C4709.01 9053.77 4709.5 9049.82 4708.91 9046.02C4708.32 9042.21 4706.69 9038.78 4704.31 9036.32C4701.93 9033.85 4698.94 9032.51 4695.85 9032.51H2790.99C2787.92 9032.51 2784.94 9033.84 2782.56 9036.29C2780.18 9038.74 2778.55 9042.14 2777.95 9045.93C2777.35 9049.72 2777.81 9053.65 2779.25 9057.06C2780.69 9060.47 2783.03 9063.14 2785.87 9064.63Z"
        fill="#F2F2F2" />
    <path
        d="M6105.34 1453H2455.66C2422.16 1453 2395 1483.87 2395 1521.95V5475.05C2395 5513.13 2422.16 5544 2455.66 5544H6105.34C6138.84 5544 6166 5513.13 6166 5475.05V1521.95C6166 1483.87 6138.84 1453 6105.34 1453Z"
        fill="#F2F6FB" />
    <path
        d="M2395 1682.89C2395 1555.93 2485.54 1453 2597.24 1453H5963.76C6075.45 1453 6166 1555.99 6166 1682.89V1947.14H2395V1682.89ZM3041.66 3005.71H5524.38V5494.39C5524.38 5519.73 5506.35 5540.27 5483.87 5540.27H3082.18C3059.8 5540.27 3041.66 5519.68 3041.66 5494.39V3005.71ZM3270.34 3387.79V3709.86C3270.34 3735.21 3288.43 3755.73 3310.74 3755.73H3491.27C3513.51 3755.73 3531.67 3735.19 3531.67 3709.86V3387.79C3531.67 3362.44 3513.59 3341.92 3491.27 3341.92H3310.74C3288.51 3341.92 3270.34 3362.46 3270.34 3387.79ZM3270.34 4086.09V4408.16C3270.34 4433.51 3288.43 4454.03 3310.74 4454.03H3491.27C3513.51 4454.03 3531.67 4433.49 3531.67 4408.16V4086.09C3531.67 4060.74 3513.59 4040.22 3491.27 4040.22H3310.74C3288.51 4040.22 3270.34 4060.76 3270.34 4086.09ZM3711.35 3387.79V3709.86C3711.35 3735.21 3729.43 3755.73 3751.75 3755.73H3932.28C3954.51 3755.73 3972.68 3735.19 3972.68 3709.86V3387.79C3972.68 3362.44 3954.59 3341.92 3932.28 3341.92H3751.75C3729.51 3341.92 3711.35 3362.46 3711.35 3387.79ZM3711.35 4086.09V4408.16C3711.35 4433.51 3729.43 4454.03 3751.75 4454.03H3932.28C3954.51 4454.03 3972.68 4433.49 3972.68 4408.16V4086.09C3972.68 4060.74 3954.59 4040.22 3932.28 4040.22H3751.75C3729.51 4040.22 3711.35 4060.76 3711.35 4086.09ZM4152.35 3387.79V3709.86C4152.35 3735.21 4170.44 3755.73 4192.76 3755.73H4373.29C4395.52 3755.73 4413.69 3735.19 4413.69 3709.86V3387.79C4413.69 3362.44 4395.6 3341.92 4373.29 3341.92H4192.76C4170.52 3341.92 4152.35 3362.46 4152.35 3387.79ZM4152.35 4086.09V4408.16C4152.35 4433.51 4170.44 4454.03 4192.76 4454.03H4373.29C4395.52 4454.03 4413.69 4433.49 4413.69 4408.16V4086.09C4413.69 4060.74 4395.6 4040.22 4373.29 4040.22H4192.76C4170.52 4040.22 4152.35 4060.76 4152.35 4086.09ZM4593.36 3387.79V3709.86C4593.36 3735.21 4611.45 3755.73 4633.77 3755.73H4814.3C4836.53 3755.73 4854.7 3735.19 4854.7 3709.86V3387.79C4854.7 3362.44 4836.61 3341.92 4814.3 3341.92H4633.77C4611.53 3341.92 4593.36 3362.46 4593.36 3387.79ZM5034.37 3387.79V3709.86C5034.37 3735.21 5052.46 3755.73 5074.78 3755.73H5255.31C5277.54 3755.73 5295.71 3735.19 5295.71 3709.86V3387.79C5295.71 3362.44 5277.62 3341.92 5255.31 3341.92H5074.78C5052.54 3341.92 5034.37 3362.46 5034.37 3387.79ZM5034.37 4086.09V4408.16C5034.37 4433.51 5052.46 4454.03 5074.78 4454.03H5255.31C5277.54 4454.03 5295.71 4433.49 5295.71 4408.16V4086.09C5295.71 4060.74 5277.62 4040.22 5255.31 4040.22H5074.78C5052.54 4040.22 5034.37 4060.76 5034.37 4086.09ZM3270.34 4784.38V5106.46C3270.34 5131.8 3288.43 5152.32 3310.74 5152.32H3491.27C3513.51 5152.32 3531.67 5131.79 3531.67 5106.46V4784.38C3531.67 4759.04 3513.59 4738.52 3491.27 4738.52H3310.74C3288.51 4738.52 3270.34 4759.05 3270.34 4784.38ZM3711.35 4784.38V5106.46C3711.35 5131.8 3729.43 5152.32 3751.75 5152.32H3932.28C3954.51 5152.32 3972.68 5131.79 3972.68 5106.46V4784.38C3972.68 4759.04 3954.59 4738.52 3932.28 4738.52H3751.75C3729.51 4738.52 3711.35 4759.05 3711.35 4784.38ZM4152.35 4784.38V5106.46C4152.35 5131.8 4170.44 5152.32 4192.76 5152.32H4373.29C4395.52 5152.32 4413.69 5131.79 4413.69 5106.46V4784.38C4413.69 4759.04 4395.6 4738.52 4373.29 4738.52H4192.76C4170.52 4738.52 4152.35 4759.05 4152.35 4784.38ZM4593.36 4784.38V5106.46C4593.36 5131.8 4611.45 5152.32 4633.77 5152.32H4814.3C4836.53 5152.32 4854.7 5131.79 4854.7 5106.46V4784.38C4854.7 4759.04 4836.61 4738.52 4814.3 4738.52H4633.77C4611.53 4738.52 4593.36 4759.05 4593.36 4784.38ZM5034.37 4784.38V5106.46C5034.37 5131.8 5052.46 5152.32 5074.78 5152.32H5255.31C5277.54 5152.32 5295.71 5131.79 5295.71 5106.46V4784.38C5295.71 4759.04 5277.62 4738.52 5255.31 4738.52H5074.78C5052.54 4738.52 5034.37 4759.05 5034.37 4784.38Z"
        fill="#E1E5F0" />
    <path
        d="M4814.25 3820.74H4633.79C4611.46 3820.74 4593.35 3841.32 4593.35 3866.71V4153.47C4593.35 4178.86 4611.46 4199.44 4633.79 4199.44H4814.25C4836.58 4199.44 4854.69 4178.86 4854.69 4153.47V3866.71C4854.69 3841.32 4836.58 3820.74 4814.25 3820.74Z"
        fill="#FFCB3D" />
    <path
        d="M3041.68 2425.64C3041.68 2400.29 3059.71 2379.74 3082.19 2379.74H5483.89C5506.26 2379.74 5524.4 2400.35 5524.4 2425.64V2949.49H3041.68V2425.64ZM3894.92 2569.65C3883.75 2569.65 3874.7 2579.94 3874.7 2592.64V2736.59C3874.7 2749.28 3883.75 2759.57 3894.92 2759.57H4671.16C4682.33 2759.57 4691.38 2749.28 4691.38 2736.59V2592.64C4691.38 2579.94 4682.33 2569.65 4671.16 2569.65H3894.92Z"
        fill="#D8DEED" />
    <defs>
        <clipPath id="clip0_31_2059">
            <rect width="6789.22" height="8057.63" fill="white"
                transform="translate(6179.78 3859.65)" />
        </clipPath>
    </defs>
</svg>
    