<svg width="15141" height="16290" viewBox="0 0 15141 16290" fill="none" xmlns="http://www.w3.org/2000/svg">
    <path fill-rule="evenodd" clip-rule="evenodd" d="M5.49867 12289.5L4.41016 11773.6C4.41016 11773.6 7560.6 8354.82 7617.04 8384.07L15136 11840V12305.3C15136 12305.3 15136 12371.8 15062.7 12405L7677.51 16268.1C7621.07 16297.3 7532.38 16297.3 7475.93 16268.1L49.8456 12388.2C-6.59594 12359 5.49867 12289.5 5.49867 12289.5Z" fill="#DBDDDE"/>
    <path fill-rule="evenodd" clip-rule="evenodd" d="M41.0646 11707.1L7483.68 7874.08C7540.13 7844.82 7628.82 7844.82 7685.26 7874.08L15098.4 11773.5C15154.8 11802.8 15154.8 11850.3 15098.4 11879.6L7749.77 15710.5C7693.32 15739.8 7604.63 15739.8 7548.19 15710.5L45.0962 11813.1C-11.3453 11783.9 -15.3769 11736.3 41.0646 11707.1Z" fill="#F3F3F3"/>
    <path d="M9880.03 3017.31H9874.18C9810.55 3017.15 9749.56 2963.24 9704.57 2867.41C9659.57 2771.58 9634.27 2641.64 9634.2 2506.11V2331.55H8920.09V2306.62H9645.9V2506.11C9645.97 2632.87 9669.25 2754.57 9710.78 2845.35C9752.32 2936.12 9808.84 2988.81 9868.33 2992.21V2306.62H10038.1C10061.4 2306.56 10083.7 2286.84 10100.1 2251.78C10116.6 2216.72 10125.8 2169.18 10125.9 2119.59V211.959C10125.8 162.375 10116.6 114.838 10100.1 79.7762C10083.7 44.7147 10061.4 24.9925 10038.1 24.9364H7802.12C7778.84 24.9925 7756.52 44.7147 7740.06 79.7762C7723.6 114.838 7714.34 162.375 7714.32 211.959V1595.93H7702.61V211.959C7702.64 155.764 7713.13 101.888 7731.79 62.1513C7750.44 22.4149 7775.73 0.063262 7802.12 0H10038.1C10064.5 0.063262 10089.7 22.4149 10108.4 62.1513C10127.1 101.888 10137.5 155.764 10137.6 211.959V2119.59C10137.5 2175.79 10127.1 2229.67 10108.4 2269.4C10089.7 2309.14 10064.5 2331.49 10038.1 2331.55H9880.03V3017.31Z" fill="#CCCCCC"/>
    <path d="M9669.2 629.768C9668.46 589.542 9660.45 551.483 9646.83 523.568C9633.21 495.653 9615.05 480.049 9596.15 480.025H8244.04C8224.64 480.025 8206.03 496.445 8192.3 525.674C8178.58 554.902 8170.88 594.543 8170.88 635.878C8170.88 677.213 8178.58 716.854 8192.3 746.082C8206.03 775.31 8224.64 791.73 8244.04 791.73H9596.15C9615.55 791.673 9634.14 775.235 9647.86 746.019C9661.57 716.804 9669.29 677.195 9669.32 635.878C9669.34 633.838 9669.3 631.798 9669.2 629.768Z" fill="#CCCCCC"/>
    <path d="M9669.2 1153.43C9668.46 1113.21 9660.45 1075.15 9646.83 1047.23C9633.21 1019.32 9615.05 1003.71 9596.15 1003.69H8244.04C8224.64 1003.69 8206.03 1020.11 8192.3 1049.34C8178.58 1078.57 8170.88 1118.21 8170.88 1159.54C8170.88 1200.88 8178.58 1240.52 8192.3 1269.75C8206.03 1298.98 8224.64 1315.4 8244.04 1315.4H9596.15C9615.55 1315.34 9634.14 1298.9 9647.86 1269.69C9661.57 1240.47 9669.29 1200.86 9669.32 1159.54C9669.34 1157.5 9669.3 1155.46 9669.2 1153.43Z" fill="#CCCCCC"/>
    <path d="M9669.2 1677.1C9668.47 1636.87 9660.45 1598.81 9646.83 1570.9C9633.21 1542.98 9615.05 1527.38 9596.15 1527.36H8244.04C8233.32 1527.36 8222.72 1532.38 8213.01 1542.08C8203.3 1551.78 8194.71 1565.9 8187.85 1583.46C8184.84 1591.23 8182.18 1599.58 8179.89 1608.4H8826.44C8849.72 1608.46 8872.04 1628.18 8888.5 1663.24C8904.96 1698.3 8914.22 1745.84 8914.24 1795.42V1839.06H9596.15C9615.55 1839 9634.14 1822.56 9647.86 1793.35C9661.58 1764.13 9669.29 1724.53 9669.32 1683.21C9669.34 1681.17 9669.3 1679.13 9669.2 1677.1Z" fill="#CCCCCC"/>
    <path d="M8820.59 1608.4H6584.63C6558.26 1608.48 6532.97 1630.83 6514.31 1670.57C6495.66 1710.3 6485.17 1764.17 6485.13 1820.36V3727.99C6485.17 3784.18 6495.66 3838.05 6514.31 3877.78C6532.97 3917.52 6558.26 3939.87 6584.63 3939.95H6742.67V4625.7H6748.53C6812.15 4625.56 6873.16 4571.66 6918.15 4475.82C6963.14 4379.98 6988.44 4250.04 6988.51 4114.51V3939.95H8820.59C8846.97 3939.87 8872.26 3917.52 8890.91 3877.78C8909.56 3838.05 8920.06 3784.18 8920.1 3727.99V1820.36C8920.06 1764.17 8909.56 1710.3 8890.91 1670.57C8872.26 1630.83 8846.97 1608.48 8820.59 1608.4ZM8908.39 3727.99C8908.36 3777.58 8899.1 3825.11 8882.64 3860.17C8866.19 3895.23 8843.87 3914.96 8820.59 3915.02H6976.81V4114.51C6976.73 4241.26 6953.44 4362.96 6911.91 4453.73C6870.38 4544.51 6813.87 4597.21 6754.38 4600.64V3915.02H6584.63C6561.36 3914.96 6539.04 3895.23 6522.58 3860.17C6506.12 3825.11 6496.86 3777.58 6496.84 3727.99V1820.36C6496.86 1770.77 6506.12 1723.24 6522.58 1688.18C6539.04 1653.12 6561.36 1633.4 6584.63 1633.33H8820.59C8843.87 1633.4 8866.19 1653.12 8882.64 1688.18C8899.1 1723.24 8908.36 1770.77 8908.39 1820.36V3727.99Z" fill="#3F3D56"/>
    <path d="M8378.66 2088.42H7026.55C7007.65 2088.45 6989.49 2104.05 6975.88 2131.97C6962.26 2159.88 6954.24 2197.94 6953.5 2238.17C6953.41 2240.2 6953.37 2242.24 6953.39 2244.28C6953.41 2285.59 6961.13 2325.2 6974.85 2354.42C6988.56 2383.63 7007.16 2400.07 7026.55 2400.13H8378.66C8398.07 2400.13 8416.68 2383.71 8430.4 2354.48C8444.12 2325.25 8451.83 2285.61 8451.83 2244.28C8451.83 2202.94 8444.12 2163.3 8430.4 2134.07C8416.68 2104.84 8398.07 2088.42 8378.66 2088.42Z" fill="#5BA959"/>
    <path d="M8378.66 2612.09H7026.55C7007.65 2612.11 6989.49 2627.72 6975.88 2655.63C6962.26 2683.55 6954.24 2721.61 6953.5 2761.83C6953.41 2763.86 6953.37 2765.9 6953.39 2767.94C6953.41 2809.26 6961.13 2848.87 6974.85 2878.08C6988.56 2907.3 7007.16 2923.74 7026.55 2923.79H8378.66C8398.07 2923.79 8416.68 2907.37 8430.4 2878.15C8444.12 2848.92 8451.83 2809.28 8451.83 2767.94C8451.83 2726.61 8444.12 2686.97 8430.4 2657.74C8416.68 2628.51 8398.07 2612.09 8378.66 2612.09Z" fill="#5BA959"/>
    <path d="M8378.66 3135.75H7026.55C7007.65 3135.78 6989.49 3151.38 6975.88 3179.3C6962.26 3207.21 6954.24 3245.27 6953.5 3285.5C6953.41 3287.53 6953.37 3289.57 6953.39 3291.61C6953.41 3332.92 6961.13 3372.53 6974.85 3401.75C6988.56 3430.96 7007.16 3447.4 7026.55 3447.46H8378.66C8398.07 3447.46 8416.68 3431.04 8430.4 3401.81C8444.12 3372.58 8451.83 3332.94 8451.83 3291.61C8451.83 3250.27 8444.12 3210.63 8430.4 3181.4C8416.68 3152.17 8398.07 3135.75 8378.66 3135.75Z" fill="#5BA959"/>
    <path d="M10079.1 4563.36C10269.8 4563.36 10424.4 4234.01 10424.4 3827.74C10424.4 3421.46 10269.8 3092.11 10079.1 3092.11C9888.32 3092.11 9733.71 3421.46 9733.71 3827.74C9733.71 4234.01 9888.32 4563.36 10079.1 4563.36Z" fill="#E6E6E6"/>
    <path d="M10112 4352.06C10097.9 4351.22 10080.4 4350.17 10066.9 4329.2C10062.9 4322.7 10059.6 4314.4 10057.3 4304.9C10054.9 4295.39 10053.6 4284.91 10053.3 4274.17C10053.1 4266.55 10053.7 4258.91 10055 4251.84C10056.4 4244.78 10058.5 4238.49 10061.2 4233.46C10065.3 4227.08 10070 4222.93 10074.9 4221.41C10079.9 4219.89 10084.9 4221.04 10089.6 4224.75L10078.2 4046.01L10086.6 4043.55L10100.1 4253.68L10093.1 4246.8C10084.9 4238.83 10073.7 4234.78 10066.7 4247.3C10065 4250.58 10063.7 4254.65 10062.8 4259.2C10062 4263.75 10061.6 4268.65 10061.8 4273.53C10062 4281.52 10063 4289.32 10064.8 4296.4C10066.5 4303.48 10069 4309.68 10072 4314.57C10082.4 4330.89 10096.4 4333 10112.2 4333.94L10112 4352.06Z" fill="#3F3D56"/>
    <path d="M10036.5 4061.42H9990.66V4079.54H10036.5V4061.42Z" fill="#3F3D56"/>
    <path d="M10181.1 4061.42H10135.3V4079.54H10181.1V4061.42Z" fill="#3F3D56"/>
    <path d="M9911.05 3811.17C9874.15 3802.2 9845.57 3726.89 9842.43 3650.48C9838.7 3559.58 9863.55 3473.24 9897.65 3422.23C9933.31 3368.88 9977.73 3346.6 10020.7 3341.7C10104.6 3332.81 10187 3390.67 10251.9 3504.02C10284.1 3561 10314.2 3633.59 10325.6 3721.26C10335.5 3797.4 10327.4 3883.66 10298.7 3936.99C10291.6 3950.06 10283.3 3959.84 10274.3 3965.73C10265.3 3971.62 10255.9 3973.48 10246.5 3971.19C10224.2 3966.26 10203.7 3941.27 10185.8 3913.68C10151.2 3860.01 10122.7 3785.23 10080.5 3757.18C10049.5 3736.62 10009.4 3754.72 9990.45 3814.36C9986.16 3828.01 9983.38 3843.56 9982.32 3859.83C9981.93 3863.3 9982.17 3866.96 9983 3870.07C9983.82 3873.17 9985.17 3875.49 9986.77 3876.55C9988.4 3877.49 9990.14 3877.02 9991.61 3875.24C9993.08 3873.46 9994.16 3870.52 9994.62 3867.06C9999.59 3791.95 10042.9 3763.92 10073.4 3781.07C10117.7 3806.08 10147.5 3890.41 10183.9 3943.98C10202.8 3973.91 10225 3992.78 10248.3 3998.71C10268.5 4002.09 10288.6 3988.95 10304.5 3961.96C10335.5 3909.66 10347.4 3819.7 10340.6 3738.71C10332.6 3644.92 10303 3564.54 10270.4 3502.3C10204.5 3377.47 10119 3310.13 10030.8 3313.7C9985.79 3315.9 9938.85 3335.68 9900.1 3386.32C9862.52 3435.44 9833.47 3517.62 9829.67 3613.14C9826.33 3697.22 9847.5 3785.17 9883.86 3822C9892.43 3830.65 9901.62 3836.18 9911.05 3838.35C9919.2 3840.33 9919.13 3813.13 9911.05 3811.17Z" fill="#3F3D56"/>
    <g clip-path="url(#clip0_31_2059)">
    <path d="M6735.16 12384.6L6864.4 12428L7056.82 11810.9L6866.07 11746.9L6735.16 12384.6Z" fill="#A0616A"/>
    <path d="M6695.21 12555.5L7092.64 12689L7093.96 12682.6C7104.73 12630.1 7098.76 12574.3 7077.37 12527.4C7055.98 12480.6 7020.92 12446.5 6979.89 12432.7L6979.88 12432.7L6921.75 12337.9L6771.84 12362.8L6737.15 12351.2L6695.21 12555.5Z" fill="#2F2E41"/>
    <path d="M7397.7 12508.2L7531.32 12508.2L7594.89 11848.9L7397.67 11848.9L7397.7 12508.2Z" fill="#A0616A"/>
    <path d="M7392.99 12686.6L7803.9 12686.5V12679.9C7803.89 12625.6 7787.04 12573.6 7757.05 12535.2C7727.05 12496.9 7686.38 12475.3 7643.96 12475.3H7643.95L7568.89 12402.5L7428.85 12475.3L7392.98 12475.3L7392.99 12686.6Z" fill="#2F2E41"/>
    <path d="M7063.49 9353.12C7031.21 9404.74 7047.35 9580.23 7047.35 9580.23C7047.35 9580.23 6990.86 10148 7015.07 10199.6C7039.28 10251.2 6998.93 10292.5 6974.72 10364.8C6950.52 10437 6926.31 10612.5 6926.31 10612.5C6789.13 10757 6797.19 11417.7 6797.19 11417.7L6748.78 12006.1C6764.92 12068 6990.86 12078.4 7023.14 12068C7055.42 12057.7 7370.13 10602.2 7370.13 10602.2C7370.13 10602.2 7353.99 12006.1 7353.99 12068C7353.99 12130 7571.87 12099 7620.29 12099C7668.71 12099 7975.35 9569.9 7975.35 9569.9V9425.38L7935 9353.12C7935 9353.12 7095.77 9301.51 7063.49 9353.12Z" fill="#2F2E41"/>
    <path d="M7418.55 7464.04C7556.71 7464.04 7668.71 7320.76 7668.71 7144.03C7668.71 6967.29 7556.71 6824.02 7418.55 6824.02C7280.39 6824.02 7168.39 6967.29 7168.39 7144.03C7168.39 7320.76 7280.39 7464.04 7418.55 7464.04Z" fill="#A0616A"/>
    <path d="M7082.46 9581.42L7081.1 9578.97C7008.23 9448.46 7117.82 9134.85 7134.35 9089.39C7114.72 9081.24 7097.91 9064.64 7086.77 9042.42C7075.64 9020.19 7070.87 8993.71 7073.28 8967.5L7080.41 8890.01L7087.84 8814.01L7034.62 8745.93L7034.47 8744.24L7003.85 8401.47L6959.33 8173.8C6942.55 8087.74 6943.98 7997.51 6963.47 7912.39C6982.96 7827.26 7019.81 7750.31 7070.23 7689.42L7173.14 7668.51L7298.22 7514.34H7499.92L7569.08 7598.87C7705.05 7741.45 7737.33 7679.51 7890.65 7947.91L7780.87 8317.89L7842.23 8863.59L7842.27 8962.35L7874.23 9007.78C7885.74 9024.15 7894.11 9043.73 7898.66 9064.96C7903.21 9086.2 7903.82 9108.5 7900.45 9130.09L7896.25 9156.97C7912.49 9165.87 7926.83 9179.63 7938.06 9197.09C7949.28 9214.54 7957.08 9235.19 7960.78 9257.3L7972.01 9324.3C7981.61 9340.51 8045 9448.63 8045 9478.19C8045 9482.63 8042.44 9486.92 8036.94 9491.67C7993.74 9529.09 7754.98 9605.38 7649.31 9551.29C7536.75 9493.71 7089.29 9580.08 7084.79 9580.96L7082.46 9581.42Z" fill="#3F3D56"/>
    <path d="M6955.38 8283.3L7163.37 8231.22C7240.3 8378.17 7281.59 8780 7281.59 8780L7511.56 9390.1C7525.69 9401.08 7537.3 9416.66 7545.2 9435.25C7553.09 9453.84 7557 9474.78 7556.51 9495.92C7556.02 9517.07 7551.17 9537.68 7542.43 9555.64C7533.69 9573.61 7521.39 9588.29 7506.77 9598.19C7492.16 9608.09 7475.75 9612.86 7459.23 9612.02C7442.7 9611.17 7426.65 9604.73 7412.7 9593.37C7398.75 9582 7387.4 9566.11 7379.82 9547.31C7372.23 9528.5 7368.68 9507.47 7369.52 9486.34L7069.58 8763.49L6955.38 8283.3Z" fill="#A0616A"/>
    <path d="M6954.21 8346.43L6948.3 7950.96L7046.18 7783.44C7065.49 7750.65 7091.59 7725.41 7121.52 7710.59C7151.45 7695.77 7184.03 7691.96 7215.57 7699.58C7258.26 7710.28 7296.19 7741.32 7321.69 7786.42C7347.18 7831.53 7358.33 7887.33 7352.89 7942.56C7336.27 8110.01 7298.55 8319.58 7213.22 8366.99L7212.35 8367.47L7300.8 8763.16L6972.81 8821.77L6954.21 8346.43Z" fill="#3F3D56"/>
    <path d="M8189.54 8311.49C8189.54 8311.49 7939.93 8061.9 7804.55 8026.04L7684.72 8249.69L8008.78 8503.74L8639.71 8737.1C8650.76 8752.8 8664.86 8764.48 8680.57 8770.95C8696.29 8777.42 8713.07 8778.46 8729.2 8773.96C8745.33 8769.46 8760.25 8759.57 8772.43 8745.32C8784.61 8731.06 8793.62 8712.93 8798.56 8692.77C8803.49 8672.61 8804.17 8651.14 8800.52 8630.54C8796.87 8609.94 8789.02 8590.95 8777.78 8575.48C8766.53 8560.01 8752.29 8548.63 8736.49 8542.48C8720.7 8536.33 8703.91 8535.64 8687.84 8540.47L8189.54 8311.49Z" fill="#A0616A"/>
    <path d="M7750.39 8361.65L7490.25 8147.83L7435.93 7950.57C7425.38 7911.79 7423.51 7870.01 7430.55 7829.95C7437.58 7789.89 7453.23 7753.15 7475.73 7723.87C7506.45 7684.44 7547.72 7661.41 7591.2 7659.42C7634.68 7657.43 7677.13 7676.63 7709.96 7713.15C7809.48 7824.01 7937.72 7861.16 7921.02 7978.25L7968.93 7987.2L8213.92 8225.22L8069.45 8606.43L7750.39 8361.65Z" fill="#3F3D56"/>
    <path d="M7134.81 6933.76C7162.9 6878.17 7215.61 6841.12 7266.71 6851.53C7271.46 6809.81 7285.08 6770.56 7306.06 6738.05C7327.05 6705.55 7354.6 6681.03 7385.73 6667.17C7416.85 6653.31 7450.36 6650.64 7482.58 6659.45C7514.81 6668.25 7544.54 6688.21 7568.51 6717.13C7576.4 6710.03 7585.59 6705.65 7595.18 6704.42C7604.78 6703.19 7614.46 6705.15 7623.29 6710.12C7640.88 6720.35 7656.18 6736.06 7667.79 6755.81C7697.11 6802.59 7715.97 6858.66 7722.36 6918.06C7728.74 6977.46 7722.42 7037.97 7704.06 7093.13C7710.31 7064.09 7687.55 7036.77 7664.56 7030.25C7641.58 7023.73 7617.46 7029.9 7594.15 7025.66C7564.27 7020.22 7537.41 6998.04 7507.49 6993.05C7482.11 6990.94 7456.65 6995.13 7432.52 7005.38C7408.39 7015.63 7382.97 7019.99 7357.58 7018.25C7332.39 7014.43 7299.95 7136.53 7300.38 7222.53C7300.47 7238.83 7297.84 7259.76 7285.39 7263.22C7270.06 7267.48 7261.17 7240.4 7246.58 7233.03C7239.85 7230.56 7232.64 7231.53 7226.46 7235.73C7220.28 7239.94 7215.62 7247.04 7213.46 7255.55C7211.62 7264.21 7211.42 7273.3 7212.89 7282.07C7214.35 7290.84 7217.43 7299.04 7221.86 7305.98C7230.84 7319.74 7241.48 7331.56 7253.4 7340.98L7247.39 7347.37C7237.39 7364.27 7216.65 7365 7202.24 7354.55C7188.46 7342.61 7177.3 7326.35 7169.83 7307.33C7143.16 7250.6 7119.78 7190.16 7110.37 7125.07C7100.96 7059.98 7106.72 6989.35 7134.81 6933.76Z" fill="#2F2E41"/>
    <path d="M12959.2 5112.72H6710.72C6708.1 5112.64 6705.6 5111.26 6703.77 5108.86C6701.93 5106.46 6700.91 5103.24 6700.91 5099.88C6700.91 5096.53 6701.93 5093.3 6703.77 5090.9C6705.6 5088.51 6708.1 5087.12 6710.72 5087.05H12959.2C12961.8 5087.12 12964.3 5088.51 12966.1 5090.9C12968 5093.3 12969 5096.53 12969 5099.88C12969 5103.24 12968 5106.46 12966.1 5108.86C12964.3 5111.26 12961.8 5112.64 12959.2 5112.72Z" fill="#CACACA"/>
    <path d="M6931.63 4933.03C6991.26 4933.03 7039.59 4869.81 7039.59 4791.84C7039.59 4713.86 6991.26 4650.65 6931.63 4650.65C6872 4650.65 6823.67 4713.86 6823.67 4791.84C6823.67 4869.81 6872 4933.03 6931.63 4933.03Z" fill="#3F3D56"/>
    <path d="M7304.59 4933.03C7364.21 4933.03 7412.55 4869.81 7412.55 4791.84C7412.55 4713.86 7364.21 4650.65 7304.59 4650.65C7244.96 4650.65 7196.62 4713.86 7196.62 4791.84C7196.62 4869.81 7244.96 4933.03 7304.59 4933.03Z" fill="#3F3D56"/>
    <path d="M7677.55 4933.03C7737.17 4933.03 7785.51 4869.81 7785.51 4791.84C7785.51 4713.86 7737.17 4650.65 7677.55 4650.65C7617.92 4650.65 7569.59 4713.86 7569.59 4791.84C7569.59 4869.81 7617.92 4933.03 7677.55 4933.03Z" fill="#3F3D56"/>
    <path d="M12735.7 4685.65H12470.8C12465.5 4685.78 12460.5 4688.54 12456.8 4693.34C12453.2 4698.14 12451.1 4704.59 12451.1 4711.31C12451.1 4718.03 12453.2 4724.48 12456.8 4729.28C12460.5 4734.08 12465.5 4736.84 12470.8 4736.97H12735.7C12740.9 4736.84 12745.9 4734.08 12749.6 4729.28C12753.3 4724.48 12755.4 4718.03 12755.4 4711.31C12755.4 4704.59 12753.3 4698.14 12749.6 4693.34C12745.9 4688.54 12740.9 4685.78 12735.7 4685.65Z" fill="#3F3D56"/>
    <path d="M12735.7 4781.97H12470.8C12465.5 4782.11 12460.5 4784.87 12456.8 4789.67C12453.2 4794.46 12451.1 4800.92 12451.1 4807.63C12451.1 4814.35 12453.2 4820.8 12456.8 4825.6C12460.5 4830.4 12465.5 4833.16 12470.8 4833.3H12735.7C12740.9 4833.16 12745.9 4830.4 12749.6 4825.6C12753.3 4820.8 12755.4 4814.35 12755.4 4807.63C12755.4 4800.92 12753.3 4794.46 12749.6 4789.67C12745.9 4784.87 12740.9 4782.11 12735.7 4781.97Z" fill="#3F3D56"/>
    <path d="M12735.7 4878.17H12470.8C12465.5 4878.31 12460.5 4881.07 12456.8 4885.87C12453.2 4890.66 12451.1 4897.11 12451.1 4903.83C12451.1 4910.55 12453.2 4917 12456.8 4921.8C12460.5 4926.6 12465.5 4929.36 12470.8 4929.49H12735.7C12740.9 4929.36 12745.9 4926.6 12749.6 4921.8C12753.3 4917 12755.4 4910.55 12755.4 4903.83C12755.4 4897.11 12753.3 4890.66 12749.6 4885.87C12745.9 4881.07 12740.9 4878.31 12735.7 4878.17Z" fill="#3F3D56"/>
    <path d="M12399.1 5622.62H7270.78C7242.39 5622.68 7215.16 5637.13 7195.09 5662.82C7175.01 5688.5 7163.71 5723.32 7163.66 5759.65V5781.75C7163.71 5818.07 7175.01 5852.9 7195.09 5878.58C7215.16 5904.27 7242.39 5918.73 7270.78 5918.78H12399.1C12427.5 5918.73 12454.7 5904.27 12474.8 5878.58C12494.9 5852.9 12506.2 5818.07 12506.2 5781.75V5759.65C12506.2 5723.32 12494.9 5688.5 12474.8 5662.82C12454.7 5637.13 12427.5 5622.68 12399.1 5622.62Z" fill="#F0F0F0"/>
    <path d="M7889.68 5825.38H7401.52C7390.59 5825.38 7380.1 5819.82 7372.37 5809.93C7364.64 5800.04 7360.3 5786.63 7360.3 5772.65C7360.3 5758.66 7364.64 5745.25 7372.37 5735.36C7380.1 5725.47 7390.59 5719.91 7401.52 5719.91H7889.68C7942.84 5718.96 7943.37 5826.34 7889.68 5825.38Z" fill="white"/>
    <path d="M9349.98 5825.38H8861.82C8850.89 5825.38 8840.41 5819.82 8832.68 5809.93C8824.94 5800.04 8820.6 5786.63 8820.6 5772.65C8820.6 5758.66 8824.94 5745.25 8832.68 5735.36C8840.41 5725.47 8850.89 5719.91 8861.82 5719.91H9349.98C9403.14 5718.96 9403.68 5826.34 9349.98 5825.38Z" fill="white"/>
    <path d="M10810.3 5825.38H10322.1C10311.2 5825.38 10300.7 5819.82 10293 5809.93C10285.2 5800.04 10280.9 5786.63 10280.9 5772.65C10280.9 5758.66 10285.2 5745.25 10293 5735.36C10300.7 5725.47 10311.2 5719.91 10322.1 5719.91H10810.3C10863.4 5718.96 10864 5826.34 10810.3 5825.38Z" fill="white"/>
    <path d="M12194.9 5831.07H11706.7C11695.8 5831.07 11685.3 5825.52 11677.6 5815.63C11669.9 5805.74 11665.5 5792.33 11665.5 5778.34C11665.5 5764.36 11669.9 5750.94 11677.6 5741.05C11685.3 5731.16 11695.8 5725.61 11706.7 5725.61H12194.9C12248.1 5724.66 12248.6 5832.03 12194.9 5831.07Z" fill="#5BA959"/>
    <path d="M11433.3 5622.62H11415.5V5918.78H11433.3V5622.62Z" fill="white"/>
    <path d="M8855.04 8505.16C8854.31 8505.16 8853.58 8505.14 8852.85 8505.11C8844.27 8504.71 8835.9 8501.67 8828.44 8496.24C8820.98 8490.81 8814.66 8483.16 8810.01 8473.94C8775.18 8407.35 8732.44 8348.12 8683.33 8298.4C8653.6 8268 8622.53 8239.73 8592.49 8212.39C8514.98 8141.89 8441.99 8075.49 8401.47 7983.75C8313.13 7783.69 8417.16 7505.04 8565.79 7380.07C8732.49 7239.92 8951.76 7217.93 9163.88 7215.05C9185.93 7214.75 9207.98 7214.61 9230.06 7214.61C9612.25 7214.79 9993.64 7259.41 10369.5 7347.89C10494.5 7377.39 10625.3 7413.53 10730.5 7501.23C10835 7588.41 10898.5 7725.7 10892.3 7851C10883.3 8033.92 10731.7 8170.59 10593.7 8206.33C10462.1 8240.36 10325.4 8217.36 10180.7 8193C10148.8 8187.63 10115.8 8182.07 10083.1 8177.24C9728.17 8124.76 9061.37 8286.53 9033.16 8293.44L9005.17 8300.29L8896.58 8479.06C8891.69 8487.21 8885.4 8493.81 8878.2 8498.33C8870.99 8502.86 8863.07 8505.2 8855.04 8505.16Z" fill="#5BA959"/>
    <path d="M10435.7 7612.82H8935.42C8926.76 7612.82 8918.46 7608.42 8912.34 7600.59C8906.22 7592.76 8902.78 7582.14 8902.78 7571.06C8902.78 7559.99 8906.22 7549.37 8912.34 7541.54C8918.46 7533.71 8926.76 7529.31 8935.42 7529.31H10435.7C10444.3 7529.31 10452.6 7533.71 10458.8 7541.54C10464.9 7549.37 10468.3 7559.99 10468.3 7571.06C10468.3 7582.14 10464.9 7592.76 10458.8 7600.59C10452.6 7608.42 10444.3 7612.82 10435.7 7612.82Z" fill="white"/>
    <path d="M10435.7 7869.13H8935.42C8931.13 7869.14 8926.89 7868.06 8922.92 7865.97C8918.96 7863.88 8915.36 7860.81 8912.33 7856.93C8909.29 7853.06 8906.88 7848.46 8905.24 7843.4C8903.6 7838.33 8902.75 7832.9 8902.74 7827.42C8902.74 7821.94 8903.58 7816.5 8905.21 7811.44C8906.85 7806.37 8909.25 7801.76 8912.28 7797.88C8915.31 7794 8918.9 7790.92 8922.86 7788.81C8926.82 7786.71 8931.06 7785.62 8935.35 7785.62H10435.7C10444.3 7785.62 10452.6 7790.02 10458.8 7797.85C10464.9 7805.68 10468.3 7816.3 10468.3 7827.38C10468.3 7838.45 10464.9 7849.07 10458.8 7856.9C10452.6 7864.73 10444.3 7869.13 10435.7 7869.13Z" fill="white"/>
    <path d="M9110.25 8125.44H8935.42C8926.76 8125.44 8918.46 8121.04 8912.34 8113.21C8906.22 8105.38 8902.78 8094.76 8902.78 8083.68C8902.78 8072.61 8906.22 8061.99 8912.34 8054.15C8918.46 8046.32 8926.76 8041.92 8935.42 8041.92H9110.25C9118.91 8041.92 9127.21 8046.32 9133.33 8054.15C9139.46 8061.99 9142.9 8072.61 9142.9 8083.68C9142.9 8094.76 9139.46 8105.38 9133.33 8113.21C9127.21 8121.04 9118.91 8125.44 9110.25 8125.44Z" fill="white"/>
    <path d="M11534.2 9839.87L11447.7 9697.47L11425.4 9692.01C11402.9 9686.5 10871.8 9557.65 10589 9599.45C10563 9603.3 10536.7 9607.73 10511.3 9612.01C10396 9631.41 10287.2 9649.73 10182.4 9622.62C10072.4 9594.16 9951.68 9485.29 9944.47 9339.59C9939.54 9239.78 9990.14 9130.42 10073.4 9060.98C10157.1 8991.12 10261.3 8962.34 10360.9 8938.84C10660.3 8868.36 10964.1 8832.83 11268.5 8832.68C11286.1 8832.68 11303.7 8832.79 11321.2 8833.03C11490.2 8835.33 11664.9 8852.84 11797.7 8964.48C11916 9064.02 11998.9 9285.97 11928.5 9445.33C11896.3 9518.41 11838.1 9571.3 11776.4 9627.45C11752.5 9649.23 11727.7 9671.74 11704 9695.96C11664.9 9735.57 11630.9 9782.74 11603.1 9835.79C11599.4 9843.13 11594.4 9849.23 11588.4 9853.55C11582.5 9857.87 11575.8 9860.29 11569 9860.61C11568.4 9860.64 11567.8 9860.66 11567.3 9860.66C11560.9 9860.68 11554.5 9858.82 11548.8 9855.22C11543.1 9851.61 11538.1 9846.36 11534.2 9839.87Z" fill="#F2F2F2"/>
    <path d="M10308.2 9149.87H11503.2C11510.1 9149.85 11516.7 9146.34 11521.6 9140.11C11526.4 9133.87 11529.2 9125.42 11529.2 9116.61C11529.2 9107.8 11526.4 9099.35 11521.6 9093.11C11516.7 9086.88 11510.1 9083.36 11503.2 9083.35H10308.2C10301.3 9083.36 10294.7 9086.88 10289.9 9093.11C10285 9099.35 10282.3 9107.8 10282.3 9116.61C10282.3 9125.42 10285 9133.87 10289.9 9140.11C10294.7 9146.34 10301.3 9149.85 10308.2 9149.87Z" fill="white"/>
    <path d="M10308.2 9354.03H11503.2C11506.6 9354.04 11510 9353.19 11513.2 9351.53C11516.4 9349.87 11519.2 9347.42 11521.7 9344.33C11524.1 9341.25 11526 9337.58 11527.3 9333.54C11528.6 9329.51 11529.3 9325.18 11529.3 9320.81C11529.3 9316.43 11528.6 9312.1 11527.3 9308.06C11526 9304.02 11524.1 9300.35 11521.7 9297.26C11519.3 9294.16 11516.4 9291.71 11513.2 9290.04C11510.1 9288.37 11506.7 9287.51 11503.3 9287.51H10308.2C10301.3 9287.53 10294.7 9291.04 10289.9 9297.27C10285 9303.51 10282.3 9311.96 10282.3 9320.77C10282.3 9329.58 10285 9338.03 10289.9 9344.27C10294.7 9350.5 10301.3 9354.02 10308.2 9354.03Z" fill="white"/>
    <path d="M11364 9558.19H11503.2C11510.1 9558.19 11516.7 9554.69 11521.6 9548.45C11526.5 9542.21 11529.2 9533.75 11529.2 9524.93C11529.2 9516.11 11526.5 9507.65 11521.6 9501.41C11516.7 9495.17 11510.1 9491.67 11503.2 9491.67H11364C11357.1 9491.67 11350.5 9495.17 11345.6 9501.41C11340.7 9507.65 11338 9516.11 11338 9524.93C11338 9533.75 11340.7 9542.21 11345.6 9548.45C11350.5 9554.69 11357.1 9558.19 11364 9558.19Z" fill="white"/>
    <path d="M8873.57 8796.28C8961.2 8796.28 9032.24 8705.41 9032.24 8593.3C9032.24 8481.2 8961.2 8390.33 8873.57 8390.33C8785.94 8390.33 8714.9 8481.2 8714.9 8593.3C8714.9 8705.41 8785.94 8796.28 8873.57 8796.28Z" fill="white"/>
    <path d="M8873.57 8798.76C8841.8 8798.76 8810.75 8786.71 8784.34 8764.13C8757.93 8741.56 8737.34 8709.47 8725.19 8671.93C8713.03 8634.39 8709.85 8593.08 8716.05 8553.22C8722.24 8513.37 8737.54 8476.76 8760 8448.03C8782.46 8419.29 8811.08 8399.73 8842.23 8391.8C8873.39 8383.87 8905.68 8387.94 8935.03 8403.49C8964.38 8419.04 8989.46 8445.37 9007.11 8479.16C9024.76 8512.95 9034.18 8552.67 9034.18 8593.3C9034.13 8647.77 9017.19 8700 8987.08 8738.51C8956.97 8777.03 8916.15 8798.7 8873.57 8798.76Z" fill="#3F3D56"/>
    <path d="M8861.69 8674.42C8861.35 8674.42 8861.01 8674.41 8860.67 8674.39C8857.68 8674.2 8854.76 8673.2 8852.11 8671.43C8849.45 8669.67 8847.13 8667.19 8845.29 8664.17L8818.77 8620.56C8817.1 8617.8 8815.87 8614.66 8815.14 8611.29C8814.42 8607.93 8814.22 8604.42 8814.56 8600.96C8814.9 8597.5 8815.76 8594.15 8817.11 8591.12C8818.46 8588.09 8820.26 8585.43 8822.41 8583.29L8823.37 8582.34C8825.52 8580.19 8827.98 8578.61 8830.61 8577.69C8833.24 8576.76 8835.99 8576.51 8838.69 8576.94C8841.4 8577.37 8844.01 8578.48 8846.38 8580.21C8848.75 8581.93 8850.83 8584.24 8852.51 8586.99C8853.85 8589.19 8855.54 8591 8857.48 8592.28C8859.41 8593.57 8861.54 8594.3 8863.72 8594.44C8865.89 8594.57 8868.07 8594.11 8870.09 8593.07C8872.11 8592.03 8873.94 8590.45 8875.44 8588.42L8929.28 8515.71C8933.07 8510.61 8938.29 8507.63 8943.79 8507.44C8949.29 8507.25 8954.63 8509.86 8958.63 8514.69L8959.51 8515.77C8961.49 8518.17 8963.08 8521.04 8964.19 8524.23C8965.3 8527.41 8965.91 8530.84 8965.99 8534.33C8966.06 8537.82 8965.6 8541.29 8964.62 8544.55C8963.65 8547.8 8962.18 8550.78 8960.3 8553.31L8876.75 8666.13C8874.81 8668.75 8872.48 8670.84 8869.89 8672.26C8867.3 8673.69 8864.51 8674.43 8861.69 8674.42Z" fill="white"/>
    <path d="M11576.9 10142.4C11664.5 10142.4 11735.5 10051.5 11735.5 9939.41C11735.5 9827.31 11664.5 9736.43 11576.9 9736.43C11489.2 9736.43 11418.2 9827.31 11418.2 9939.41C11418.2 10051.5 11489.2 10142.4 11576.9 10142.4Z" fill="white"/>
    <path d="M11576.9 10144.9C11545.1 10144.9 11514.1 10132.8 11487.6 10110.2C11461.2 10087.7 11440.7 10055.6 11428.5 10018C11416.3 9980.49 11413.2 9939.18 11419.4 9899.33C11425.6 9859.47 11440.8 9822.86 11463.3 9794.13C11485.8 9765.4 11514.4 9745.83 11545.5 9737.9C11576.7 9729.97 11609 9734.04 11638.3 9749.59C11667.7 9765.14 11692.8 9791.48 11710.4 9825.26C11728.1 9859.05 11737.5 9898.77 11737.5 9939.41C11737.4 9993.88 11720.5 10046.1 11690.4 10084.6C11660.3 10123.1 11619.5 10144.8 11576.9 10144.9Z" fill="#E6E6E6"/>
    <path d="M11565 10020.5C11564.7 10020.5 11564.3 10020.5 11564 10020.5C11561 10020.3 11558.1 10019.3 11555.4 10017.5C11552.8 10015.8 11550.4 10013.3 11548.6 10010.3L11522.1 9966.66C11520.4 9963.91 11519.2 9960.76 11518.5 9957.4C11517.7 9954.03 11517.5 9950.52 11517.9 9947.06C11518.2 9943.6 11519.1 9940.26 11520.4 9937.23C11521.8 9934.19 11523.6 9931.53 11525.7 9929.39L11526.7 9928.44C11528.8 9926.3 11531.3 9924.72 11533.9 9923.79C11536.5 9922.86 11539.3 9922.61 11542 9923.04C11544.7 9923.48 11547.3 9924.59 11549.7 9926.31C11552.1 9928.04 11554.1 9930.34 11555.8 9933.1C11557.2 9935.3 11558.9 9937.1 11560.8 9938.39C11562.7 9939.67 11564.8 9940.41 11567 9940.54C11569.2 9940.68 11571.4 9940.21 11573.4 9939.17C11575.4 9938.13 11577.2 9936.55 11578.7 9934.53L11632.6 9861.82C11636.4 9856.71 11641.6 9853.73 11647.1 9853.54C11652.6 9853.35 11657.9 9855.96 11661.9 9860.79L11662.8 9861.87C11664.8 9864.27 11666.4 9867.14 11667.5 9870.33C11668.6 9873.51 11669.2 9876.95 11669.3 9880.43C11669.4 9883.92 11668.9 9887.39 11667.9 9890.65C11667 9893.9 11665.5 9896.88 11663.6 9899.42L11580.1 10012.2C11578.1 10014.9 11575.8 10016.9 11573.2 10018.4C11570.6 10019.8 11567.8 10020.5 11565 10020.5Z" fill="white"/>
    <path d="M8644.28 12487.2L8568.1 12330.6L8552.88 12420.1C8550.21 12435.8 8547.54 12451.7 8545.07 12467.5C8523.43 12443.9 8500.41 12422 8477.88 12401C8408.71 12336.8 8339.56 12272.5 8270.46 12208.1L8292.1 12368.7C8305.44 12467.5 8319.37 12568.4 8352.38 12658.8C8356.03 12669 8359.99 12679.1 8364.24 12689H8685.79C8688.38 12679.8 8690.17 12670.3 8691.13 12660.7C8691.21 12660.1 8691.24 12659.4 8691.22 12658.8C8696.26 12597.5 8669.78 12539.7 8644.28 12487.2Z" fill="#F0F0F0"/>
    <path d="M8916.44 12704.4L6191.55 12708.3C6188.43 12708.3 6185.45 12706.7 6183.25 12703.9C6181.05 12701 6179.82 12697.2 6179.82 12693.2C6179.82 12689.2 6181.05 12685.4 6183.25 12682.6C6185.45 12679.8 6188.43 12678.2 6191.55 12678.2L8916.44 12674.3C8917.99 12674.3 8919.52 12674.7 8920.96 12675.4C8922.39 12676.2 8923.69 12677.3 8924.78 12678.7C8925.88 12680.1 8926.75 12681.7 8927.34 12683.6C8927.94 12685.4 8928.24 12687.4 8928.24 12689.3C8928.24 12691.3 8927.94 12693.3 8927.34 12695.1C8926.75 12696.9 8925.88 12698.6 8924.78 12700C8923.69 12701.4 8922.39 12702.5 8920.96 12703.3C8919.52 12704 8917.99 12704.4 8916.44 12704.4Z" fill="#CACACA"/>
    </g>
    <path d="M5584.95 9029.24H3644.21C3613.35 9029.19 3583.77 9013.79 3561.96 8986.41C3540.14 8959.03 3527.87 8921.9 3527.83 8883.18V7446.37C3527.86 7417.41 3537.04 7389.64 3553.35 7369.16C3569.67 7348.68 3591.79 7337.16 3614.87 7337.13H5612.9C5636.34 7337.16 5658.82 7348.87 5675.4 7369.67C5691.97 7390.48 5701.3 7418.69 5701.32 7448.11V8883.18C5701.29 8921.9 5689.02 8959.03 5667.2 8986.41C5645.38 9013.79 5615.8 9029.19 5584.95 9029.24Z" fill="white"/>
    <path d="M5584.95 9029.24H3644.21C3613.35 9029.19 3583.77 9013.79 3561.96 8986.41C3540.14 8959.03 3527.87 8921.9 3527.83 8883.18V7446.37C3527.86 7417.41 3537.04 7389.64 3553.35 7369.16C3569.67 7348.68 3591.79 7337.16 3614.87 7337.13H5612.9C5636.34 7337.16 5658.82 7348.87 5675.4 7369.67C5691.97 7390.48 5701.3 7418.69 5701.32 7448.11V8883.18C5701.29 8921.9 5689.02 8959.03 5667.2 8986.41C5645.38 9013.79 5615.8 9029.19 5584.95 9029.24ZM3614.87 7353.82C3595.32 7353.85 3576.58 7363.61 3562.75 7380.96C3548.93 7398.31 3541.15 7421.83 3541.13 7446.37V8883.18C3541.16 8917.48 3552.03 8950.36 3571.36 8974.61C3590.68 8998.86 3616.88 9012.5 3644.21 9012.54H5584.95C5612.28 9012.5 5638.48 8998.86 5657.8 8974.61C5677.12 8950.36 5687.99 8917.48 5688.02 8883.18V7448.11C5688 7423.11 5680.08 7399.15 5666 7381.47C5651.91 7363.79 5632.82 7353.85 5612.9 7353.82H3614.87Z" fill="#3F3D56"/>
    <path d="M3750.41 8883.55H5477.94C5506.15 8883.55 5533.21 8869.47 5553.16 8844.41C5573.11 8819.36 5584.31 8785.37 5584.31 8749.94V7701.56C5584.31 7666.12 5573.11 7632.14 5553.16 7607.08C5533.21 7582.03 5506.15 7567.95 5477.94 7567.95H3750.41C3722.2 7567.95 3695.15 7582.03 3675.2 7607.08C3655.25 7632.14 3644.04 7666.12 3644.04 7701.56V8749.94C3644.04 8785.37 3655.25 8819.36 3675.2 8844.41C3695.15 8869.47 3722.2 8883.55 3750.41 8883.55Z" fill="#F2F2F2"/>
    <path d="M5703.73 7438.06H3523.03V7368.03C3523.23 7331.24 3535.06 7296.05 3555.93 7270.19C3576.8 7244.32 3604.99 7229.89 3634.34 7230.06H5592.43C5621.77 7229.89 5649.96 7244.32 5670.83 7270.19C5691.7 7296.05 5703.53 7331.24 5703.73 7368.03V7438.06Z" fill="#5BA959"/>
    <path d="M3732.6 7370.48C3748.31 7370.48 3761.05 7354.37 3761.05 7334.5C3761.05 7314.63 3748.31 7298.52 3732.6 7298.52C3716.89 7298.52 3704.15 7314.63 3704.15 7334.5C3704.15 7354.37 3716.89 7370.48 3732.6 7370.48Z" fill="white"/>
    <path d="M3840.79 7370.48C3856.5 7370.48 3869.24 7354.37 3869.24 7334.5C3869.24 7314.63 3856.5 7298.52 3840.79 7298.52C3825.08 7298.52 3812.34 7314.63 3812.34 7334.5C3812.34 7354.37 3825.08 7370.48 3840.79 7370.48Z" fill="white"/>
    <path d="M3948.99 7370.48C3964.7 7370.48 3977.44 7354.37 3977.44 7334.5C3977.44 7314.63 3964.7 7298.52 3948.99 7298.52C3933.27 7298.52 3920.54 7314.63 3920.54 7334.5C3920.54 7354.37 3933.27 7370.48 3948.99 7370.48Z" fill="white"/>
    <path d="M4057.98 8501.77C4014.63 8501.77 3972.25 8485.61 3936.2 8455.33C3900.16 8425.04 3872.06 8382 3855.47 8331.65C3838.88 8281.29 3834.54 8225.88 3843 8172.42C3851.46 8118.97 3872.33 8069.86 3902.99 8031.32C3933.64 7992.78 3972.7 7966.54 4015.22 7955.9C4057.74 7945.27 4101.81 7950.73 4141.86 7971.58C4181.92 7992.44 4216.15 8027.76 4240.23 8073.08C4264.32 8118.4 4277.17 8171.68 4277.17 8226.19C4277.11 8299.25 4253.99 8369.3 4212.9 8420.96C4171.81 8472.63 4116.1 8501.69 4057.98 8501.77Z" fill="#5BA959"/>
    <path d="M5337.16 8450.86H4487.74C4474.02 8451.09 4460.73 8444.81 4450.54 8433.3C4440.35 8421.78 4434.01 8405.86 4432.77 8388.73C4432.28 8379.61 4433.29 8370.46 4435.74 8361.85C4438.18 8353.24 4442.01 8345.35 4446.99 8338.67C4451.96 8331.99 4457.98 8326.66 4464.67 8323.01C4471.35 8319.37 4478.57 8317.48 4485.86 8317.47H5335.06C5348.84 8317.22 5362.2 8323.51 5372.44 8335.08C5382.68 8346.66 5389.04 8362.66 5390.26 8379.88C5390.72 8388.98 5389.69 8398.1 5387.23 8406.68C5384.77 8415.26 5380.93 8423.11 5375.96 8429.76C5370.98 8436.41 5364.97 8441.72 5358.3 8445.34C5351.63 8448.97 5344.44 8450.85 5337.16 8450.86Z" fill="#3F3D56"/>
    <path d="M4891.56 8167.38H4487.74C4474.02 8167.61 4460.73 8161.34 4450.54 8149.82C4440.35 8138.3 4434.01 8122.38 4432.77 8105.25C4432.28 8096.13 4433.29 8086.99 4435.74 8078.37C4438.18 8069.76 4442.01 8061.87 4446.99 8055.19C4451.96 8048.51 4457.98 8043.18 4464.67 8039.53C4471.35 8035.89 4478.57 8034 4485.86 8033.99H4889.46C4903.24 8033.74 4916.6 8040.03 4926.84 8051.61C4937.08 8063.18 4943.45 8079.18 4944.66 8096.4C4945.12 8105.5 4944.09 8114.62 4941.63 8123.2C4939.17 8131.78 4935.33 8139.63 4930.36 8146.28C4925.38 8152.93 4919.38 8158.24 4912.7 8161.86C4906.03 8165.49 4898.84 8167.37 4891.56 8167.38Z" fill="#3F3D56"/>
    <path d="M5021.17 9698.88H2487.3C2465.48 9698.85 2444.02 9705.96 2425.05 9719.5C2420.51 9722.74 2416.13 9726.34 2411.95 9730.27C2396.12 9745 2383.26 9764.19 2374.4 9786.28C2365.55 9808.38 2360.94 9832.77 2360.94 9857.51V11510.6C2360.97 11552.6 2374.29 11593 2397.98 11622.7C2421.68 11652.4 2453.8 11669.2 2487.3 11669.2H5021.17C5054.68 11669.2 5086.8 11652.4 5110.49 11622.7C5134.18 11593 5147.5 11552.6 5147.53 11510.6V9857.51C5147.5 9815.45 5134.18 9775.12 5110.49 9745.38C5086.8 9715.64 5054.68 9698.92 5021.17 9698.88Z" fill="white"/>
    <path d="M5021.17 9698.88H2487.3C2465.48 9698.85 2444.02 9705.96 2425.05 9719.5C2420.51 9722.74 2416.13 9726.34 2411.95 9730.27C2396.12 9745 2383.26 9764.19 2374.4 9786.28C2365.55 9808.38 2360.94 9832.77 2360.94 9857.51V11510.6C2360.97 11552.6 2374.29 11593 2397.98 11622.7C2421.68 11652.4 2453.8 11669.2 2487.3 11669.2H5021.17C5054.68 11669.2 5086.8 11652.4 5110.49 11622.7C5134.18 11593 5147.5 11552.6 5147.53 11510.6V9857.51C5147.5 9815.45 5134.18 9775.12 5110.49 9745.38C5086.8 9715.64 5054.68 9698.92 5021.17 9698.88ZM5134.23 11510.6C5134.19 11548.2 5122.26 11584.3 5101.07 11610.9C5079.88 11637.5 5051.14 11652.4 5021.17 11652.5H2487.3C2457.33 11652.4 2428.6 11637.5 2407.4 11610.9C2386.21 11584.3 2374.29 11548.2 2374.24 11510.6V9857.51C2374.34 9827.51 2381.96 9798.32 2396.02 9774.07C2410.08 9749.82 2429.88 9731.75 2452.58 9722.42C2453.52 9722.09 2454.38 9721.67 2455.31 9721.34C2465.7 9717.51 2476.47 9715.56 2487.3 9715.58H5021.17C5051.14 9715.63 5079.88 9730.6 5101.07 9757.21C5122.26 9783.81 5134.19 9819.88 5134.23 9857.51V11510.6Z" fill="#3F3D56"/>
    <path d="M3751.36 10683.6C3741.27 10683.6 3731.34 10680.4 3722.51 10674.3L2398.85 9759.31C2397.3 9758.24 2396.16 9756.44 2395.67 9754.32C2395.17 9752.19 2395.38 9749.9 2396.23 9747.96C2397.08 9746.02 2398.51 9744.59 2400.2 9743.97C2401.89 9743.35 2403.71 9743.61 2405.26 9744.68L3728.92 10659.6C3735.67 10664.3 3743.24 10666.8 3750.95 10666.9C3758.66 10667 3766.27 10664.6 3773.09 10660.1L5118.53 9768.74C5119.31 9768.23 5120.15 9767.91 5121.02 9767.81C5121.89 9767.7 5122.77 9767.82 5123.61 9768.14C5124.44 9768.46 5125.22 9768.99 5125.89 9769.69C5126.56 9770.39 5127.12 9771.25 5127.53 9772.22C5127.94 9773.2 5128.19 9774.26 5128.27 9775.35C5128.35 9776.45 5128.26 9777.55 5128 9778.6C5127.74 9779.64 5127.32 9780.62 5126.76 9781.46C5126.2 9782.31 5125.51 9783 5124.74 9783.51L3779.29 10674.9C3770.68 10680.6 3761.1 10683.6 3751.36 10683.6Z" fill="#3F3D56"/>
    <path d="M2783.81 11251.4H2597.65C2583.55 11251.4 2570.02 11244.4 2560.05 11231.9C2550.07 11219.4 2544.47 11202.4 2544.47 11184.7C2544.47 11167 2550.07 11150.1 2560.05 11137.6C2570.02 11125.1 2583.55 11118 2597.65 11118H2783.81C2797.91 11118 2811.44 11125.1 2821.41 11137.6C2831.39 11150.1 2836.99 11167 2836.99 11184.7C2836.99 11202.4 2831.39 11219.4 2821.41 11231.9C2811.44 11244.4 2797.91 11251.4 2783.81 11251.4Z" fill="#3F3D56"/>
    <path d="M3003.38 11477H2597.68C2583.56 11477 2570.03 11470 2560.05 11457.5C2550.07 11444.9 2544.47 11428 2544.47 11410.3C2544.47 11392.6 2550.07 11375.6 2560.05 11363.1C2570.03 11350.6 2583.56 11343.6 2597.68 11343.6H3003.38C3017.49 11343.6 3031.02 11350.6 3041 11363.1C3050.98 11375.6 3056.59 11392.6 3056.59 11410.3C3056.59 11428 3050.98 11444.9 3041 11457.5C3031.02 11470 3017.49 11477 3003.38 11477Z" fill="#3F3D56"/>
    <path d="M3751.04 10951.3C3868.55 10951.3 3963.82 10831.6 3963.82 10684C3963.82 10536.4 3868.55 10416.8 3751.04 10416.8C3633.52 10416.8 3538.25 10536.4 3538.25 10684C3538.25 10831.6 3633.52 10951.3 3751.04 10951.3Z" fill="#5BA959"/>
    <path d="M2785.87 9855.63L3723.77 10347.1C3727.01 10348.7 3730.64 10348.8 3733.89 10347.1L4700.84 9855.69C4703.7 9854.24 4706.07 9851.58 4707.54 9848.18C4709.01 9844.77 4709.5 9840.82 4708.91 9837.02C4708.32 9833.21 4706.69 9829.78 4704.31 9827.32C4701.93 9824.85 4698.94 9823.51 4695.85 9823.51H2790.99C2787.92 9823.51 2784.94 9824.84 2782.56 9827.29C2780.18 9829.74 2778.55 9833.14 2777.95 9836.93C2777.35 9840.72 2777.81 9844.65 2779.25 9848.06C2780.69 9851.47 2783.03 9854.14 2785.87 9855.63Z" fill="#F2F2F2"/>
    <path d="M6105.34 2244H2455.66C2422.16 2244 2395 2274.87 2395 2312.95V6266.05C2395 6304.13 2422.16 6335 2455.66 6335H6105.34C6138.84 6335 6166 6304.13 6166 6266.05V2312.95C6166 2274.87 6138.84 2244 6105.34 2244Z" fill="#F2F6FB"/>
    <path d="M2395 2473.89C2395 2346.93 2485.54 2244 2597.24 2244H5963.76C6075.45 2244 6166 2346.99 6166 2473.89V2738.14H2395V2473.89ZM3041.66 3796.71H5524.38V6285.39C5524.38 6310.73 5506.35 6331.27 5483.87 6331.27H3082.18C3059.8 6331.27 3041.66 6310.68 3041.66 6285.39V3796.71ZM3270.34 4178.79V4500.86C3270.34 4526.21 3288.43 4546.73 3310.74 4546.73H3491.27C3513.51 4546.73 3531.67 4526.19 3531.67 4500.86V4178.79C3531.67 4153.44 3513.59 4132.92 3491.27 4132.92H3310.74C3288.51 4132.92 3270.34 4153.46 3270.34 4178.79ZM3270.34 4877.09V5199.16C3270.34 5224.51 3288.43 5245.03 3310.74 5245.03H3491.27C3513.51 5245.03 3531.67 5224.49 3531.67 5199.16V4877.09C3531.67 4851.74 3513.59 4831.22 3491.27 4831.22H3310.74C3288.51 4831.22 3270.34 4851.76 3270.34 4877.09ZM3711.35 4178.79V4500.86C3711.35 4526.21 3729.43 4546.73 3751.75 4546.73H3932.28C3954.51 4546.73 3972.68 4526.19 3972.68 4500.86V4178.79C3972.68 4153.44 3954.59 4132.92 3932.28 4132.92H3751.75C3729.51 4132.92 3711.35 4153.46 3711.35 4178.79ZM3711.35 4877.09V5199.16C3711.35 5224.51 3729.43 5245.03 3751.75 5245.03H3932.28C3954.51 5245.03 3972.68 5224.49 3972.68 5199.16V4877.09C3972.68 4851.74 3954.59 4831.22 3932.28 4831.22H3751.75C3729.51 4831.22 3711.35 4851.76 3711.35 4877.09ZM4152.35 4178.79V4500.86C4152.35 4526.21 4170.44 4546.73 4192.76 4546.73H4373.29C4395.52 4546.73 4413.69 4526.19 4413.69 4500.86V4178.79C4413.69 4153.44 4395.6 4132.92 4373.29 4132.92H4192.76C4170.52 4132.92 4152.35 4153.46 4152.35 4178.79ZM4152.35 4877.09V5199.16C4152.35 5224.51 4170.44 5245.03 4192.76 5245.03H4373.29C4395.52 5245.03 4413.69 5224.49 4413.69 5199.16V4877.09C4413.69 4851.74 4395.6 4831.22 4373.29 4831.22H4192.76C4170.52 4831.22 4152.35 4851.76 4152.35 4877.09ZM4593.36 4178.79V4500.86C4593.36 4526.21 4611.45 4546.73 4633.77 4546.73H4814.3C4836.53 4546.73 4854.7 4526.19 4854.7 4500.86V4178.79C4854.7 4153.44 4836.61 4132.92 4814.3 4132.92H4633.77C4611.53 4132.92 4593.36 4153.46 4593.36 4178.79ZM5034.37 4178.79V4500.86C5034.37 4526.21 5052.46 4546.73 5074.78 4546.73H5255.31C5277.54 4546.73 5295.71 4526.19 5295.71 4500.86V4178.79C5295.71 4153.44 5277.62 4132.92 5255.31 4132.92H5074.78C5052.54 4132.92 5034.37 4153.46 5034.37 4178.79ZM5034.37 4877.09V5199.16C5034.37 5224.51 5052.46 5245.03 5074.78 5245.03H5255.31C5277.54 5245.03 5295.71 5224.49 5295.71 5199.16V4877.09C5295.71 4851.74 5277.62 4831.22 5255.31 4831.22H5074.78C5052.54 4831.22 5034.37 4851.76 5034.37 4877.09ZM3270.34 5575.38V5897.46C3270.34 5922.8 3288.43 5943.33 3310.74 5943.33H3491.27C3513.51 5943.33 3531.67 5922.79 3531.67 5897.46V5575.38C3531.67 5550.04 3513.59 5529.52 3491.27 5529.52H3310.74C3288.51 5529.52 3270.34 5550.05 3270.34 5575.38ZM3711.35 5575.38V5897.46C3711.35 5922.8 3729.43 5943.33 3751.75 5943.33H3932.28C3954.51 5943.33 3972.68 5922.79 3972.68 5897.46V5575.38C3972.68 5550.04 3954.59 5529.52 3932.28 5529.52H3751.75C3729.51 5529.52 3711.35 5550.05 3711.35 5575.38ZM4152.35 5575.38V5897.46C4152.35 5922.8 4170.44 5943.33 4192.76 5943.33H4373.29C4395.52 5943.33 4413.69 5922.79 4413.69 5897.46V5575.38C4413.69 5550.04 4395.6 5529.52 4373.29 5529.52H4192.76C4170.52 5529.52 4152.35 5550.05 4152.35 5575.38ZM4593.36 5575.38V5897.46C4593.36 5922.8 4611.45 5943.33 4633.77 5943.33H4814.3C4836.53 5943.33 4854.7 5922.79 4854.7 5897.46V5575.38C4854.7 5550.04 4836.61 5529.52 4814.3 5529.52H4633.77C4611.53 5529.52 4593.36 5550.05 4593.36 5575.38ZM5034.37 5575.38V5897.46C5034.37 5922.8 5052.46 5943.33 5074.78 5943.33H5255.31C5277.54 5943.33 5295.71 5922.79 5295.71 5897.46V5575.38C5295.71 5550.04 5277.62 5529.52 5255.31 5529.52H5074.78C5052.54 5529.52 5034.37 5550.05 5034.37 5575.38Z" fill="#E1E5F0"/>
    <path d="M4814.25 4611.74H4633.79C4611.46 4611.74 4593.35 4632.32 4593.35 4657.71V4944.47C4593.35 4969.86 4611.46 4990.44 4633.79 4990.44H4814.25C4836.58 4990.44 4854.69 4969.86 4854.69 4944.47V4657.71C4854.69 4632.32 4836.58 4611.74 4814.25 4611.74Z" fill="#FFCB3D"/>
    <path d="M3041.68 3216.64C3041.68 3191.29 3059.71 3170.74 3082.19 3170.74H5483.89C5506.26 3170.74 5524.4 3191.35 5524.4 3216.64V3740.49H3041.68V3216.64ZM3894.92 3360.65C3883.75 3360.65 3874.7 3370.94 3874.7 3383.64V3527.59C3874.7 3540.28 3883.75 3550.57 3894.92 3550.57H4671.16C4682.33 3550.57 4691.38 3540.28 4691.38 3527.59V3383.64C4691.38 3370.94 4682.33 3360.65 4671.16 3360.65H3894.92Z" fill="#D8DEED"/>
    <defs>
    <clipPath id="clip0_31_2059">
    <rect width="6789.22" height="8057.63" fill="white" transform="translate(6179.78 4650.65)"/>
    </clipPath>
    </defs>
    </svg>
    