<svg width="15141" height="18875" viewBox="0 0 15141 18875" fill="none" xmlns="http://www.w3.org/2000/svg">
    <path fill-rule="evenodd" clip-rule="evenodd" d="M5.49867 14980.1L4.41016 14477.8C4.41016 14477.8 7560.6 11149.4 7617.04 11177.8L15136 14542.6V14995.5C15136 14995.5 15136 15060.2 15062.7 15092.6L7677.51 18853.6C7621.07 18882.1 7532.38 18882.1 7475.93 18853.6L49.8456 15076.3C-6.59594 15047.8 5.49867 14980.1 5.49867 14980.1Z" fill="#DBDDDE"/>
    <path fill-rule="evenodd" clip-rule="evenodd" d="M41.0646 14413.1L7483.68 10681.3C7540.13 10652.8 7628.82 10652.8 7685.26 10681.3L15098.4 14477.8C15154.8 14506.3 15154.8 14552.6 15098.4 14581.1L7749.77 18310.8C7693.32 18339.3 7604.63 18339.3 7548.19 18310.8L45.0962 14516.3C-11.3453 14487.9 -15.3769 14441.6 41.0646 14413.1Z" fill="#F3F3F3"/>
    <g clip-path="url(#clip0_31_2059)">
    <path d="M12253.5 3419.08H12245.1C12154.6 3418.9 12067.9 3357.82 12003.9 3249.22C11939.9 3140.63 11903.9 2993.39 11903.8 2839.81V2642.01H10888.2V2613.76H11920.5V2839.81C11920.6 2983.45 11953.7 3121.36 12012.7 3224.22C12071.8 3327.08 12152.2 3386.79 12236.8 3390.64V2613.76H12478.2C12511.3 2613.69 12543.1 2591.34 12566.5 2551.61C12589.9 2511.88 12603.1 2458.02 12603.1 2401.83V240.183C12603.1 183.996 12589.9 130.129 12566.5 90.3988C12543.1 50.6687 12511.3 28.3204 12478.2 28.2568H9298.08C9264.98 28.3204 9233.24 50.6687 9209.82 90.3988C9186.41 130.129 9173.25 183.996 9173.21 240.183V1808.44H9156.56V240.183C9156.6 176.505 9171.53 115.455 9198.06 70.4271C9224.59 25.3996 9260.56 0.0716857 9298.08 0H12478.2C12515.8 0.0716857 12551.7 25.3996 12578.3 70.4271C12604.8 115.455 12619.7 176.505 12619.8 240.183V2401.83C12619.7 2465.51 12604.8 2526.56 12578.3 2571.59C12551.7 2616.61 12515.8 2641.94 12478.2 2642.01H12253.5V3419.08Z" fill="#CCCCCC"/>
    <path d="M11953.6 713.626C11952.5 668.043 11941.1 624.917 11921.8 593.285C11902.4 561.653 11876.6 543.971 11849.7 543.944H9926.62C9899.02 543.944 9872.55 562.551 9853.04 595.671C9833.52 628.791 9822.56 673.711 9822.56 720.549C9822.56 767.388 9833.52 812.308 9853.04 845.428C9872.55 878.548 9899.02 897.155 9926.62 897.155H11849.7C11877.3 897.09 11903.7 878.463 11923.2 845.357C11942.7 812.251 11953.7 767.368 11953.8 720.549C11953.8 718.238 11953.7 715.926 11953.6 713.626Z" fill="#CCCCCC"/>
    <path d="M11953.6 1307.02C11952.5 1261.44 11941.1 1218.31 11921.8 1186.68C11902.4 1155.05 11876.6 1137.36 11849.7 1137.34H9926.62C9899.02 1137.34 9872.55 1155.94 9853.04 1189.06C9833.52 1222.18 9822.56 1267.1 9822.56 1313.94C9822.56 1360.78 9833.52 1405.7 9853.04 1438.82C9872.55 1471.94 9899.02 1490.55 9926.62 1490.55H11849.7C11877.3 1490.48 11903.7 1471.86 11923.2 1438.75C11942.7 1405.64 11953.7 1360.76 11953.8 1313.94C11953.8 1311.63 11953.7 1309.32 11953.6 1307.02Z" fill="#CCCCCC"/>
    <path d="M11953.6 1900.41C11952.5 1854.83 11941.1 1811.7 11921.8 1780.07C11902.4 1748.44 11876.6 1730.76 11849.7 1730.73H9926.62C9911.37 1730.73 9896.3 1736.43 9882.49 1747.41C9868.68 1758.4 9856.46 1774.41 9846.7 1794.31C9842.42 1803.11 9838.63 1812.57 9835.38 1822.57H10755C10788.1 1822.63 10819.8 1844.98 10843.2 1884.71C10866.6 1924.44 10879.8 1978.31 10879.8 2034.49V2083.94H11849.7C11877.3 2083.88 11903.7 2065.25 11923.2 2032.14C11942.7 1999.04 11953.7 1954.15 11953.8 1907.34C11953.8 1905.02 11953.7 1902.71 11953.6 1900.41Z" fill="#CCCCCC"/>
    <path d="M10746.6 1822.57H7566.49C7528.97 1822.66 7493 1847.99 7466.47 1893.01C7439.94 1938.04 7425.01 1999.08 7424.96 2062.75V4224.4C7425.01 4288.07 7439.94 4349.11 7466.47 4394.13C7493 4439.15 7528.97 4464.49 7566.49 4464.58H7791.26V5241.64H7799.59C7890.08 5241.48 7976.84 5180.4 8040.83 5071.8C8104.82 4963.2 8140.81 4815.96 8140.91 4662.38V4464.58H10746.6C10784.1 4464.49 10820.1 4439.15 10846.6 4394.13C10873.2 4349.11 10888.1 4288.07 10888.2 4224.4V2062.75C10888.1 1999.08 10873.2 1938.04 10846.6 1893.01C10820.1 1847.99 10784.1 1822.66 10746.6 1822.57ZM10871.5 4224.4C10871.5 4280.58 10858.3 4334.45 10834.9 4374.17C10811.5 4413.9 10779.7 4436.25 10746.6 4436.32H8124.26V4662.38C8124.15 4806.01 8091.03 4943.91 8031.96 5046.77C7972.89 5149.64 7892.51 5209.36 7807.91 5213.24V4436.32H7566.49C7533.38 4436.25 7501.64 4413.9 7478.23 4374.17C7454.82 4334.45 7441.65 4280.58 7441.61 4224.4V2062.75C7441.65 2006.56 7454.82 1952.7 7478.23 1912.97C7501.64 1873.24 7533.38 1850.89 7566.49 1850.82H10746.6C10779.7 1850.89 10811.5 1873.24 10834.9 1912.97C10858.3 1952.7 10871.5 2006.56 10871.5 2062.75V4224.4Z" fill="#3F3D56"/>
    <path d="M10118.1 2366.51H8195.02C8168.14 2366.54 8142.31 2384.22 8122.94 2415.85C8103.58 2447.48 8092.17 2490.61 8091.13 2536.19C8090.99 2538.49 8090.93 2540.8 8090.96 2543.11C8091 2589.93 8101.98 2634.82 8121.48 2667.92C8140.99 2701.03 8167.44 2719.65 8195.02 2719.72H10118.1C10145.7 2719.72 10172.2 2701.11 10191.7 2667.99C10211.2 2634.87 10222.2 2589.95 10222.2 2543.11C10222.2 2496.28 10211.2 2451.36 10191.7 2418.24C10172.2 2385.12 10145.7 2366.51 10118.1 2366.51Z" fill="#5BA959"/>
    <path d="M10118.1 2959.9H8195.02C8168.14 2959.93 8142.31 2977.61 8122.94 3009.24C8103.58 3040.88 8092.17 3084 8091.13 3129.59C8090.99 3131.89 8090.93 3134.2 8090.96 3136.51C8091 3183.33 8101.98 3228.21 8121.48 3261.31C8140.99 3294.42 8167.44 3313.05 8195.02 3313.11H10118.1C10145.7 3313.11 10172.2 3294.51 10191.7 3261.39C10211.2 3228.27 10222.2 3183.35 10222.2 3136.51C10222.2 3089.67 10211.2 3044.75 10191.7 3011.63C10172.2 2978.51 10145.7 2959.9 10118.1 2959.9Z" fill="#5BA959"/>
    <path d="M10118.1 3553.3H8195.02C8168.14 3553.32 8142.31 3571 8122.94 3602.64C8103.58 3634.27 8092.17 3677.39 8091.13 3722.98C8090.99 3725.28 8090.93 3727.59 8090.96 3729.9C8091 3776.72 8101.98 3821.6 8121.48 3854.71C8140.99 3887.81 8167.44 3906.44 8195.02 3906.51H10118.1C10145.7 3906.51 10172.2 3887.9 10191.7 3854.78C10211.2 3821.66 10222.2 3776.74 10222.2 3729.9C10222.2 3683.06 10211.2 3638.14 10191.7 3605.02C10172.2 3571.9 10145.7 3553.3 10118.1 3553.3Z" fill="#5BA959"/>
    <path d="M12536.5 5171C12807.8 5171 13027.7 4797.79 13027.7 4337.42C13027.7 3877.05 12807.8 3503.85 12536.5 3503.85C12265.2 3503.85 12045.3 3877.05 12045.3 4337.42C12045.3 4797.79 12265.2 5171 12536.5 5171Z" fill="#E6E6E6"/>
    <path d="M12583.3 4931.56C12563.3 4930.61 12538.4 4929.42 12519.3 4905.66C12513.6 4898.29 12508.9 4888.89 12505.5 4878.12C12502.2 4867.34 12500.3 4855.46 12499.9 4843.3C12499.6 4834.66 12500.4 4826 12502.4 4818C12504.3 4810 12507.3 4802.87 12511.2 4797.17C12516.9 4789.93 12523.6 4785.24 12530.6 4783.51C12537.7 4781.79 12544.9 4783.09 12551.6 4787.3L12535.2 4584.75L12547.2 4581.97L12566.4 4820.08L12556.4 4812.29C12544.8 4803.25 12528.9 4798.66 12519 4812.85C12516.5 4816.57 12514.7 4821.18 12513.4 4826.33C12512.2 4831.49 12511.7 4837.05 12512 4842.58C12512.3 4851.63 12513.7 4860.46 12516.2 4868.49C12518.7 4876.51 12522.2 4883.53 12526.4 4889.07C12541.3 4907.57 12561.2 4909.96 12583.7 4911.03L12583.3 4931.56Z" fill="#3F3D56"/>
    <path d="M12476 4602.22H12410.8V4622.76H12476V4602.22Z" fill="#3F3D56"/>
    <path d="M12681.7 4602.22H12616.5V4622.76H12681.7V4602.22Z" fill="#3F3D56"/>
    <path d="M12297.6 4318.64C12245.1 4308.49 12204.4 4223.15 12200 4136.56C12194.7 4033.55 12230 3935.72 12278.5 3877.91C12329.2 3817.46 12392.4 3792.22 12453.5 3786.66C12572.8 3776.59 12690 3842.15 12782.4 3970.6C12828.2 4035.17 12870.9 4117.42 12887.2 4216.77C12901.2 4303.05 12889.8 4400.79 12848.9 4461.22C12838.8 4476.03 12827 4487.12 12814.2 4493.79C12801.4 4500.46 12788 4502.57 12774.7 4499.98C12743 4494.39 12713.7 4466.08 12688.4 4434.81C12639.1 4373.99 12598.6 4289.26 12538.6 4257.47C12494.5 4234.17 12437.4 4254.68 12410.5 4322.26C12404.4 4337.73 12400.4 4355.35 12398.9 4373.79C12398.4 4377.72 12398.7 4381.87 12399.9 4385.39C12401.1 4388.9 12403 4391.53 12405.3 4392.74C12407.6 4393.8 12410.1 4393.26 12412.1 4391.25C12414.2 4389.24 12415.8 4385.91 12416.4 4381.98C12423.5 4296.87 12485.2 4265.1 12528.4 4284.54C12591.5 4312.88 12633.9 4408.44 12685.6 4469.15C12712.4 4503.05 12744 4524.44 12777.2 4531.16C12806 4535 12834.5 4520.11 12857.1 4489.52C12901.3 4430.25 12918.2 4328.32 12908.4 4236.54C12897.1 4130.26 12855 4039.18 12808.7 3968.66C12715 3827.2 12593.3 3750.89 12467.8 3754.93C12403.9 3757.43 12337.1 3779.84 12282 3837.22C12228.5 3892.89 12187.2 3986.01 12181.8 4094.25C12177.1 4189.53 12207.2 4289.18 12258.9 4330.92C12271.1 4340.72 12284.1 4346.98 12297.6 4349.45C12309.1 4351.69 12309.1 4320.87 12297.6 4318.64Z" fill="#3F3D56"/>
    </g>
    <g clip-path="url(#clip1_31_2059)">
    <path d="M6677.99 13818.1L6839.24 13867.6L7079.33 13164.5L6841.32 13091.5L6677.99 13818.1Z" fill="#A0616A"/>
    <path d="M6628.13 14012.9L7124.03 14165L7125.67 14157.6C7139.11 14097.8 7131.67 14034.3 7104.98 13980.9C7078.29 13927.5 7034.54 13888.7 6983.35 13873L6983.34 13873L6910.8 13764.9L6723.75 13793.3L6680.46 13780.1L6628.13 14012.9Z" fill="#2F2E41"/>
    <path d="M7504.67 13959L7671.4 13959L7750.72 13207.8L7504.63 13207.8L7504.67 13959Z" fill="#A0616A"/>
    <path d="M7498.8 14162.2L8011.51 14162.2V14154.6C8011.5 14092.8 7990.48 14033.5 7953.05 13989.8C7915.63 13946 7864.87 13921.5 7811.95 13921.5H7811.93L7718.28 13838.5L7543.55 13921.5L7498.79 13921.5L7498.8 14162.2Z" fill="#2F2E41"/>
    <path d="M7087.66 10364C7047.38 10422.9 7067.52 10622.8 7067.52 10622.8C7067.52 10622.8 6997.04 11269.7 7027.25 11328.5C7057.45 11387.3 7007.11 11434.4 6976.9 11516.7C6946.69 11599.1 6916.49 11799 6916.49 11799C6745.32 11963.7 6755.39 12716.4 6755.39 12716.4L6694.97 13386.9C6715.11 13457.4 6997.04 13469.2 7037.31 13457.4C7077.59 13445.7 7470.28 11787.2 7470.28 11787.2C7470.28 11787.2 7450.14 13386.9 7450.14 13457.4C7450.14 13528 7722 13492.7 7782.41 13492.7C7842.82 13492.7 8225.44 10611 8225.44 10611V10446.4L8175.1 10364C8175.1 10364 7127.93 10305.2 7087.66 10364Z" fill="#2F2E41"/>
    <path d="M7530.69 8211.6C7703.08 8211.6 7842.83 8048.35 7842.83 7846.97C7842.83 7645.6 7703.08 7482.35 7530.69 7482.35C7358.3 7482.35 7218.55 7645.6 7218.55 7846.97C7218.55 8048.35 7358.3 8211.6 7530.69 8211.6Z" fill="#A0616A"/>
    <path d="M7111.33 10624.2L7109.63 10621.4C7018.7 10472.7 7155.45 10115.3 7176.08 10063.5C7151.59 10054.3 7130.61 10035.3 7116.71 10010C7102.82 9984.7 7096.87 9954.53 7099.88 9924.65L7108.77 9836.37L7118.04 9749.77L7051.64 9672.2L7051.45 9670.27L7013.24 9279.71L6957.69 9020.31C6936.75 8922.25 6938.54 8819.44 6962.86 8722.45C6987.17 8625.46 7033.15 8537.77 7096.06 8468.4L7224.48 8444.58L7380.55 8268.92H7632.22L7718.52 8365.23C7888.17 8527.68 7928.45 8457.11 8119.76 8762.92L7982.78 9184.49L8059.34 9806.26L8059.39 9918.79L8099.27 9970.56C8113.63 9989.2 8124.07 10011.5 8129.75 10035.7C8135.43 10059.9 8136.19 10085.3 8131.98 10109.9L8126.74 10140.5C8147.01 10150.7 8164.9 10166.4 8178.91 10186.3C8192.92 10206.1 8202.64 10229.7 8207.26 10254.9L8221.27 10331.2C8233.25 10349.7 8312.34 10472.9 8312.34 10506.5C8312.34 10511.6 8309.15 10516.5 8302.29 10521.9C8248.39 10564.5 7950.47 10651.5 7818.62 10589.8C7678.17 10524.2 7119.86 10622.6 7114.23 10623.6L7111.33 10624.2Z" fill="#3F3D56"/>
    <path d="M6952.75 9145.08L7212.29 9085.73C7308.27 9253.17 7359.8 9711.02 7359.8 9711.02L7646.74 10406.2C7664.38 10418.7 7678.86 10436.4 7688.71 10457.6C7698.56 10478.8 7703.43 10502.7 7702.83 10526.7C7702.22 10550.8 7696.16 10574.3 7685.26 10594.8C7674.36 10615.3 7659 10632 7640.77 10643.3C7622.53 10654.6 7602.06 10660 7581.44 10659C7560.82 10658.1 7540.79 10650.7 7523.38 10637.8C7505.98 10624.8 7491.82 10606.7 7482.36 10585.3C7472.89 10563.9 7468.46 10539.9 7469.5 10515.8L7095.26 9692.21L6952.75 9145.08Z" fill="#A0616A"/>
    <path d="M6951.3 9217.01L6943.92 8766.4L7066.06 8575.53C7090.15 8538.16 7122.71 8509.41 7160.06 8492.53C7197.41 8475.64 7238.06 8471.29 7277.41 8479.98C7330.69 8492.17 7378.01 8527.53 7409.82 8578.93C7441.63 8630.32 7455.54 8693.91 7448.75 8756.83C7428.02 8947.63 7380.96 9186.41 7274.48 9240.43L7273.4 9240.98L7383.76 9691.83L6974.5 9758.61L6951.3 9217.01Z" fill="#3F3D56"/>
    <path d="M8492.7 9177.19C8492.7 9177.19 8181.24 8892.8 8012.32 8851.95L7862.81 9106.77L8267.16 9396.24L9054.41 9662.14C9068.19 9680.03 9085.78 9693.33 9105.39 9700.71C9125.01 9708.08 9145.94 9709.27 9166.07 9704.14C9186.2 9699.01 9204.8 9687.75 9220 9671.5C9235.2 9655.25 9246.45 9634.59 9252.61 9611.63C9258.76 9588.66 9259.61 9564.2 9255.05 9540.73C9250.5 9517.26 9240.71 9495.61 9226.68 9477.99C9212.65 9460.36 9194.88 9447.39 9175.17 9440.38C9155.46 9433.38 9134.51 9432.59 9114.45 9438.1L8492.7 9177.19Z" fill="#A0616A"/>
    <path d="M7944.74 9234.34L7620.15 8990.72L7552.38 8765.96C7539.21 8721.78 7536.88 8674.17 7545.66 8628.53C7554.43 8582.88 7573.96 8541.01 7602.04 8507.65C7640.36 8462.73 7691.86 8436.48 7746.11 8434.22C7800.37 8431.95 7853.33 8453.83 7894.3 8495.44C8018.47 8621.75 8178.48 8664.09 8157.65 8797.49L8217.43 8807.69L8523.12 9078.89L8342.85 9513.25L7944.74 9234.34Z" fill="#3F3D56"/>
    <path d="M7176.64 7607.39C7211.69 7544.05 7277.46 7501.84 7341.22 7513.7C7347.16 7466.16 7364.14 7421.44 7390.33 7384.4C7416.51 7347.37 7450.9 7319.43 7489.73 7303.64C7528.57 7287.84 7570.37 7284.8 7610.58 7294.84C7650.8 7304.88 7687.88 7327.61 7717.8 7360.56C7727.64 7352.47 7739.11 7347.48 7751.08 7346.08C7763.05 7344.68 7775.13 7346.92 7786.15 7352.57C7808.1 7364.23 7827.19 7382.13 7841.68 7404.64C7878.26 7457.94 7901.79 7521.83 7909.76 7589.51C7917.73 7657.19 7909.84 7726.13 7886.93 7788.99C7894.72 7755.9 7866.33 7724.76 7837.65 7717.34C7808.97 7709.91 7778.88 7716.94 7749.79 7712.1C7712.51 7705.9 7679 7680.64 7641.66 7674.95C7609.99 7672.55 7578.23 7677.32 7548.11 7689C7518 7700.67 7486.29 7705.65 7454.61 7703.66C7423.18 7699.31 7382.7 7838.43 7383.24 7936.43C7383.34 7955 7380.07 7978.84 7364.53 7982.78C7345.4 7987.63 7334.31 7956.79 7316.1 7948.38C7307.71 7945.57 7298.71 7946.68 7291 7951.47C7283.3 7956.25 7277.48 7964.35 7274.78 7974.05C7272.49 7983.91 7272.24 7994.27 7274.06 8004.26C7275.89 8014.26 7279.73 8023.6 7285.27 8031.51C7296.46 8047.19 7309.75 8060.65 7324.62 8071.38L7317.12 8078.67C7304.64 8097.92 7278.77 8098.76 7260.78 8086.85C7243.59 8073.24 7229.66 8054.72 7220.34 8033.05C7187.07 7968.41 7157.89 7899.54 7146.15 7825.38C7134.41 7751.21 7141.59 7670.73 7176.64 7607.39Z" fill="#2F2E41"/>
    <path d="M14444.1 5532.48H6647.49C6644.22 5532.4 6641.1 5530.82 6638.81 5528.09C6636.52 5525.35 6635.24 5521.68 6635.24 5517.86C6635.24 5514.03 6636.52 5510.36 6638.81 5507.63C6641.1 5504.89 6644.22 5503.32 6647.49 5503.23H14444.1C14447.4 5503.32 14450.5 5504.89 14452.8 5507.63C14455 5510.36 14456.3 5514.03 14456.3 5517.86C14456.3 5521.68 14455 5525.35 14452.8 5528.09C14450.5 5530.82 14447.4 5532.4 14444.1 5532.48Z" fill="#CACACA"/>
    <path d="M6923.13 5327.74C6997.53 5327.74 7057.84 5255.71 7057.84 5166.87C7057.84 5078.02 6997.53 5006 6923.13 5006C6848.73 5006 6788.42 5078.02 6788.42 5166.87C6788.42 5255.71 6848.73 5327.74 6923.13 5327.74Z" fill="#3F3D56"/>
    <path d="M7388.49 5327.74C7462.89 5327.74 7523.2 5255.71 7523.2 5166.87C7523.2 5078.02 7462.89 5006 7388.49 5006C7314.09 5006 7253.78 5078.02 7253.78 5166.87C7253.78 5255.71 7314.09 5327.74 7388.49 5327.74Z" fill="#3F3D56"/>
    <path d="M7853.85 5327.74C7928.25 5327.74 7988.56 5255.71 7988.56 5166.87C7988.56 5078.02 7928.25 5006 7853.85 5006C7779.45 5006 7719.14 5078.02 7719.14 5166.87C7719.14 5255.71 7779.45 5327.74 7853.85 5327.74Z" fill="#3F3D56"/>
    <path d="M14165.2 5045.87H13834.6C13828.1 5046.03 13821.8 5049.17 13817.3 5054.64C13812.7 5060.11 13810.1 5067.46 13810.1 5075.11C13810.1 5082.77 13812.7 5090.12 13817.3 5095.58C13821.8 5101.05 13828.1 5104.2 13834.6 5104.35H14165.2C14171.8 5104.2 14178 5101.05 14182.6 5095.58C14187.2 5090.12 14189.7 5082.77 14189.7 5075.11C14189.7 5067.46 14187.2 5060.11 14182.6 5054.64C14178 5049.17 14171.8 5046.03 14165.2 5045.87Z" fill="#3F3D56"/>
    <path d="M14165.2 5155.63H13834.6C13828.1 5155.78 13821.8 5158.93 13817.3 5164.39C13812.7 5169.86 13810.1 5177.21 13810.1 5184.87C13810.1 5192.52 13812.7 5199.87 13817.3 5205.34C13821.8 5210.81 13828.1 5213.95 13834.6 5214.1H14165.2C14171.8 5213.95 14178 5210.81 14182.6 5205.34C14187.2 5199.87 14189.7 5192.52 14189.7 5184.87C14189.7 5177.21 14187.2 5169.86 14182.6 5164.39C14178 5158.93 14171.8 5155.78 14165.2 5155.63Z" fill="#3F3D56"/>
    <path d="M14165.2 5265.24H13834.6C13828.1 5265.39 13821.8 5268.54 13817.3 5274C13812.7 5279.47 13810.1 5286.82 13810.1 5294.48C13810.1 5302.13 13812.7 5309.48 13817.3 5314.95C13821.8 5320.41 13828.1 5323.56 13834.6 5323.71H14165.2C14171.8 5323.56 14178 5320.41 14182.6 5314.95C14187.2 5309.48 14189.7 5302.13 14189.7 5294.48C14189.7 5286.82 14187.2 5279.47 14182.6 5274C14178 5268.54 14171.8 5265.39 14165.2 5265.24Z" fill="#3F3D56"/>
    <path d="M13745.3 6113.47H7346.31C7310.88 6113.53 7276.91 6130 7251.86 6159.27C7226.8 6188.54 7212.71 6228.21 7212.65 6269.6V6294.78C7212.71 6336.17 7226.8 6375.85 7251.86 6405.12C7276.91 6434.38 7310.88 6450.85 7346.31 6450.92H13745.3C13780.7 6450.85 13814.7 6434.38 13839.7 6405.12C13864.8 6375.85 13878.9 6336.17 13878.9 6294.78V6269.6C13878.9 6228.21 13864.8 6188.54 13839.7 6159.27C13814.7 6130 13780.7 6113.53 13745.3 6113.47Z" fill="#F0F0F0"/>
    <path d="M8118.55 6344.49H7509.44C7495.8 6344.49 7482.72 6338.16 7473.07 6326.89C7463.42 6315.63 7458 6300.34 7458 6284.41C7458 6268.47 7463.42 6253.19 7473.07 6241.92C7482.72 6230.65 7495.8 6224.32 7509.44 6224.32H8118.55C8184.88 6223.24 8185.54 6345.58 8118.55 6344.49Z" fill="white"/>
    <path d="M9940.65 6344.49H9331.55C9317.91 6344.49 9304.82 6338.16 9295.18 6326.89C9285.53 6315.63 9280.11 6300.34 9280.11 6284.41C9280.11 6268.47 9285.53 6253.19 9295.18 6241.92C9304.82 6230.65 9317.91 6224.32 9331.55 6224.32H9940.65C10007 6223.24 10007.6 6345.58 9940.65 6344.49Z" fill="white"/>
    <path d="M11762.8 6344.49H11153.7C11140 6344.49 11126.9 6338.16 11117.3 6326.89C11107.6 6315.63 11102.2 6300.34 11102.2 6284.41C11102.2 6268.47 11107.6 6253.19 11117.3 6241.92C11126.9 6230.65 11140 6224.32 11153.7 6224.32H11762.8C11829.1 6223.24 11829.8 6345.58 11762.8 6344.49Z" fill="white"/>
    <path d="M13490.4 6350.98H12881.3C12867.7 6350.98 12854.6 6344.65 12845 6333.38C12835.3 6322.12 12829.9 6306.83 12829.9 6290.9C12829.9 6274.96 12835.3 6259.68 12845 6248.41C12854.6 6237.14 12867.7 6230.81 12881.3 6230.81H13490.4C13556.8 6229.73 13557.4 6352.07 13490.4 6350.98Z" fill="#5BA959"/>
    <path d="M12540.1 6113.47H12517.9V6450.92H12540.1V6113.47Z" fill="white"/>
    <path d="M9323.08 9397.86C9322.17 9397.86 9321.26 9397.84 9320.35 9397.8C9309.65 9397.35 9299.2 9393.88 9289.9 9387.7C9280.59 9381.52 9272.7 9372.8 9266.9 9362.29C9223.44 9286.42 9170.11 9218.93 9108.83 9162.27C9071.73 9127.64 9032.97 9095.43 8995.48 9064.28C8898.77 8983.95 8807.69 8908.3 8757.14 8803.76C8646.91 8575.81 8776.72 8258.32 8962.17 8115.93C9170.17 7956.23 9443.77 7931.18 9708.44 7927.9C9735.95 7927.56 9763.47 7927.39 9791.01 7927.39C10267.9 7927.61 10743.8 7978.44 11212.8 8079.26C11368.8 8112.87 11532 8154.05 11663.2 8253.97C11793.6 8353.31 11872.9 8509.73 11865.1 8652.5C11853.8 8860.92 11664.7 9016.66 11492.5 9057.37C11328.3 9096.15 11157.8 9069.94 10977.3 9042.19C10937.4 9036.07 10896.2 9029.73 10855.4 9024.23C10412.5 8964.43 9580.53 9148.75 9545.33 9156.63L9510.41 9164.44L9374.91 9368.13C9368.81 9377.41 9360.97 9384.93 9351.98 9390.08C9342.99 9395.24 9333.1 9397.9 9323.08 9397.86Z" fill="#5BA959"/>
    <path d="M11295.3 8381.12H9423.38C9412.58 8381.12 9402.22 8376.11 9394.58 8367.19C9386.94 8358.26 9382.65 8346.16 9382.65 8333.54C9382.65 8320.93 9386.94 8308.82 9394.58 8299.9C9402.22 8290.98 9412.58 8285.97 9423.38 8285.97H11295.3C11306.2 8285.97 11316.5 8290.98 11324.1 8299.9C11331.8 8308.82 11336.1 8320.93 11336.1 8333.54C11336.1 8346.16 11331.8 8358.26 11324.1 8367.19C11316.5 8376.11 11306.2 8381.12 11295.3 8381.12Z" fill="white"/>
    <path d="M11295.3 8673.17H9423.38C9418.03 8673.17 9412.73 8671.95 9407.79 8669.57C9402.84 8667.18 9398.35 8663.68 9394.57 8659.27C9390.78 8654.85 9387.77 8649.61 9385.72 8643.84C9383.67 8638.07 9382.61 8631.89 9382.61 8625.64C9382.6 8619.39 9383.65 8613.2 9385.69 8607.43C9387.73 8601.65 9390.73 8596.4 9394.51 8591.98C9398.28 8587.56 9402.77 8584.05 9407.71 8581.65C9412.65 8579.25 9417.94 8578.02 9423.29 8578.01H11295.3C11306.2 8578.01 11316.5 8583.02 11324.1 8591.95C11331.8 8600.87 11336.1 8612.97 11336.1 8625.59C11336.1 8638.21 11331.8 8650.31 11324.1 8659.23C11316.5 8668.16 11306.2 8673.17 11295.3 8673.17Z" fill="white"/>
    <path d="M9641.53 8965.2H9423.38C9412.58 8965.2 9402.22 8960.19 9394.58 8951.27C9386.94 8942.35 9382.65 8930.24 9382.65 8917.63C9382.65 8905.01 9386.94 8892.9 9394.58 8883.98C9402.22 8875.06 9412.58 8870.05 9423.38 8870.05H9641.53C9652.33 8870.05 9662.69 8875.06 9670.33 8883.98C9677.97 8892.9 9682.26 8905.01 9682.26 8917.63C9682.26 8930.24 9677.97 8942.35 9670.33 8951.27C9662.69 8960.19 9652.33 8965.2 9641.53 8965.2Z" fill="white"/>
    <path d="M12666 10918.6L12558.1 10756.4L12530.2 10750.2C12502.2 10743.9 11839.5 10597.1 11486.7 10644.7C11454.2 10649.1 11421.4 10654.1 11389.7 10659C11245.9 10681.1 11110 10702 10979.3 10671.1C10842.1 10638.7 10691.4 10514.6 10682.4 10348.6C10676.3 10234.9 10739.4 10110.3 10843.3 10031.2C10947.8 9951.58 11077.8 9918.78 11202 9892.01C11575.6 9811.7 11954.7 9771.21 12334.6 9771.04C12356.5 9771.04 12378.4 9771.17 12400.3 9771.44C12611.1 9774.06 12829.1 9794.01 12994.8 9921.21C13142.5 10034.6 13245.9 10287.5 13158.1 10469.1C13117.8 10552.4 13045.3 10612.6 12968.2 10676.6C12938.4 10701.4 12907.5 10727.1 12877.9 10754.7C12829.1 10799.8 12786.6 10853.6 12752 10914C12747.4 10922.4 12741.1 10929.3 12733.7 10934.2C12726.3 10939.2 12718 10941.9 12709.5 10942.3C12708.7 10942.3 12708 10942.3 12707.3 10942.3C12699.3 10942.4 12691.4 10940.2 12684.3 10936.1C12677.1 10932 12670.9 10926 12666 10918.6Z" fill="#F2F2F2"/>
    <path d="M11136.3 10132.5H12627.4C12636 10132.4 12644.2 10128.4 12650.3 10121.3C12656.4 10114.2 12659.8 10104.6 12659.8 10094.6C12659.8 10084.5 12656.4 10074.9 12650.3 10067.8C12644.2 10060.7 12636 10056.7 12627.4 10056.7H11136.3C11127.7 10056.7 11119.5 10060.7 11113.4 10067.8C11107.3 10074.9 11103.9 10084.5 11103.9 10094.6C11103.9 10104.6 11107.3 10114.2 11113.4 10121.3C11119.5 10128.4 11127.7 10132.4 11136.3 10132.5Z" fill="white"/>
    <path d="M11136.3 10365.1H12627.4C12631.7 10365.1 12635.9 10364.1 12639.8 10362.2C12643.8 10360.3 12647.4 10357.5 12650.4 10354C12653.4 10350.5 12655.8 10346.3 12657.4 10341.7C12659.1 10337.1 12659.9 10332.2 12659.9 10327.2C12659.9 10322.2 12659.1 10317.3 12657.5 10312.7C12655.8 10308.1 12653.4 10303.9 12650.4 10300.4C12647.4 10296.9 12643.8 10294.1 12639.9 10292.2C12635.9 10290.3 12631.7 10289.3 12627.5 10289.3H11136.3C11127.7 10289.3 11119.5 10293.3 11113.4 10300.4C11107.3 10307.5 11103.9 10317.1 11103.9 10327.2C11103.9 10337.2 11107.3 10346.8 11113.4 10354C11119.5 10361.1 11127.7 10365.1 11136.3 10365.1Z" fill="white"/>
    <path d="M12453.6 10597.7H12627.4C12636 10597.7 12644.2 10593.7 12650.3 10586.6C12656.4 10579.5 12659.8 10569.9 12659.8 10559.8C12659.8 10549.7 12656.4 10540.1 12650.3 10533C12644.2 10525.9 12636 10521.9 12627.4 10521.9H12453.6C12445 10521.9 12436.8 10525.9 12430.7 10533C12424.6 10540.1 12421.2 10549.7 12421.2 10559.8C12421.2 10569.9 12424.6 10579.5 12430.7 10586.6C12436.8 10593.7 12445 10597.7 12453.6 10597.7Z" fill="white"/>
    <path d="M9346.2 9729.57C9455.54 9729.57 9544.18 9626.02 9544.18 9498.29C9544.18 9370.57 9455.54 9267.02 9346.2 9267.02C9236.86 9267.02 9148.22 9370.57 9148.22 9498.29C9148.22 9626.02 9236.86 9729.57 9346.2 9729.57Z" fill="white"/>
    <path d="M9346.2 9732.39C9306.56 9732.39 9267.82 9718.66 9234.86 9692.94C9201.91 9667.22 9176.22 9630.66 9161.06 9587.88C9145.89 9545.11 9141.92 9498.04 9149.65 9452.63C9157.38 9407.22 9176.47 9365.5 9204.5 9332.76C9232.52 9300.03 9268.23 9277.73 9307.1 9268.7C9345.98 9259.66 9386.27 9264.3 9422.89 9282.02C9459.51 9299.74 9490.81 9329.74 9512.83 9368.24C9534.85 9406.73 9546.6 9451.99 9546.6 9498.29C9546.54 9560.36 9525.41 9619.86 9487.84 9663.75C9450.27 9707.64 9399.33 9732.32 9346.2 9732.39Z" fill="#3F3D56"/>
    <path d="M9331.38 9590.72C9330.95 9590.72 9330.53 9590.71 9330.11 9590.68C9326.38 9590.47 9322.74 9589.32 9319.42 9587.31C9316.11 9585.3 9313.21 9582.48 9310.92 9579.04L9277.83 9529.35C9275.74 9526.21 9274.2 9522.62 9273.3 9518.79C9272.4 9514.96 9272.15 9510.96 9272.57 9507.02C9272.99 9503.07 9274.07 9499.26 9275.76 9495.81C9277.44 9492.35 9279.69 9489.32 9282.37 9486.88L9283.56 9485.8C9286.25 9483.36 9289.32 9481.56 9292.6 9480.5C9295.88 9479.45 9299.31 9479.16 9302.68 9479.65C9306.06 9480.14 9309.32 9481.41 9312.28 9483.37C9315.24 9485.34 9317.83 9487.97 9319.92 9491.11C9321.59 9493.61 9323.71 9495.67 9326.12 9497.13C9328.54 9498.6 9331.19 9499.43 9333.91 9499.59C9336.62 9499.74 9339.34 9499.21 9341.86 9498.03C9344.39 9496.84 9346.66 9495.04 9348.53 9492.73L9415.71 9409.89C9420.44 9404.07 9426.95 9400.68 9433.82 9400.46C9440.68 9400.24 9447.34 9403.21 9452.34 9408.72L9453.44 9409.95C9455.91 9412.68 9457.89 9415.96 9459.28 9419.59C9460.67 9423.22 9461.43 9427.13 9461.52 9431.1C9461.61 9435.07 9461.03 9439.03 9459.81 9442.74C9458.6 9446.45 9456.77 9449.84 9454.43 9452.73L9350.17 9581.27C9347.76 9584.26 9344.84 9586.64 9341.61 9588.26C9338.38 9589.89 9334.9 9590.73 9331.38 9590.72Z" fill="white"/>
    <path d="M12719.3 11263.3C12828.6 11263.3 12917.3 11159.8 12917.3 11032.1C12917.3 10904.3 12828.6 10800.8 12719.3 10800.8C12609.9 10800.8 12521.3 10904.3 12521.3 11032.1C12521.3 11159.8 12609.9 11263.3 12719.3 11263.3Z" fill="white"/>
    <path d="M12719.3 11266.2C12679.6 11266.2 12640.9 11252.4 12607.9 11226.7C12575 11201 12549.3 11164.4 12534.1 11121.6C12519 11078.9 12515 11031.8 12522.7 10986.4C12530.5 10941 12549.6 10899.3 12577.6 10866.5C12605.6 10833.8 12641.3 10811.5 12680.2 10802.5C12719.1 10793.4 12759.4 10798.1 12796 10815.8C12832.6 10833.5 12863.9 10863.5 12885.9 10902C12907.9 10940.5 12919.7 10985.8 12919.7 11032.1C12919.6 11094.1 12898.5 11153.6 12860.9 11197.5C12823.4 11241.4 12772.4 11266.1 12719.3 11266.2Z" fill="#E6E6E6"/>
    <path d="M12704.5 11124.5C12704 11124.5 12703.6 11124.5 12703.2 11124.4C12699.5 11124.2 12695.8 11123.1 12692.5 11121.1C12689.2 11119.1 12686.3 11116.2 12684 11112.8L12650.9 11063.1C12648.8 11060 12647.3 11056.4 12646.4 11052.6C12645.5 11048.7 12645.2 11044.7 12645.7 11040.8C12646.1 11036.8 12647.2 11033 12648.8 11029.6C12650.5 11026.1 12652.8 11023.1 12655.5 11020.6L12656.6 11019.6C12659.3 11017.1 12662.4 11015.3 12665.7 11014.3C12669 11013.2 12672.4 11012.9 12675.8 11013.4C12679.1 11013.9 12682.4 11015.2 12685.4 11017.1C12688.3 11019.1 12690.9 11021.7 12693 11024.9C12694.7 11027.4 12696.8 11029.4 12699.2 11030.9C12701.6 11032.4 12704.3 11033.2 12707 11033.4C12709.7 11033.5 12712.4 11033 12714.9 11031.8C12717.5 11030.6 12719.7 11028.8 12721.6 11026.5L12788.8 10943.7C12793.5 10937.8 12800 10934.4 12806.9 10934.2C12813.8 10934 12820.4 10937 12825.4 10942.5L12826.5 10943.7C12829 10946.4 12831 10949.7 12832.4 10953.3C12833.8 10957 12834.5 10960.9 12834.6 10964.9C12834.7 10968.8 12834.1 10972.8 12832.9 10976.5C12831.7 10980.2 12829.9 10983.6 12827.5 10986.5L12723.3 11115C12720.8 11118 12717.9 11120.4 12714.7 11122C12711.5 11123.7 12708 11124.5 12704.5 11124.5Z" fill="white"/>
    <path d="M9060.11 13935.1L8965.05 13756.6L8946.06 13858.6C8942.73 13876.5 8939.4 13894.6 8936.32 13912.6C8909.31 13885.7 8880.59 13860.8 8852.48 13836.9C8766.16 13763.7 8679.89 13690.4 8593.66 13617.1L8620.67 13800C8637.31 13912.6 8654.7 14027.6 8695.88 14130.5C8700.44 14142.2 8705.38 14153.7 8710.68 14165H9111.9C9115.13 14154.5 9117.36 14143.7 9118.56 14132.7C9118.66 14132 9118.7 14131.3 9118.68 14130.5C9124.97 14060.7 9091.92 13994.9 9060.11 13935.1Z" fill="#F0F0F0"/>
    <path d="M9399.7 14182.5L5999.68 14186.9C5995.8 14186.9 5992.07 14185.1 5989.33 14181.9C5986.58 14178.7 5985.04 14174.3 5985.04 14169.8C5985.04 14165.2 5986.58 14160.9 5989.33 14157.7C5992.07 14154.5 5995.8 14152.7 5999.68 14152.6L9399.7 14148.2C9401.63 14148.2 9403.54 14148.6 9405.33 14149.5C9407.12 14150.4 9408.74 14151.6 9410.11 14153.2C9411.47 14154.8 9412.56 14156.7 9413.3 14158.8C9414.04 14160.9 9414.42 14163.1 9414.42 14165.4C9414.42 14167.6 9414.04 14169.9 9413.3 14171.9C9412.56 14174 9411.47 14175.9 9410.11 14177.5C9408.74 14179.1 9407.12 14180.4 9405.33 14181.2C9403.54 14182.1 9401.63 14182.5 9399.7 14182.5Z" fill="#CACACA"/>
    </g>
    <path d="M5642.79 7986H3221.21C3182.71 7985.95 3145.8 7968.4 3118.58 7937.2C3091.36 7906 3076.04 7863.7 3076 7819.58V6182.47C3076.03 6149.47 3087.48 6117.83 3107.84 6094.5C3128.2 6071.16 3155.81 6058.04 3184.6 6058H5677.66C5706.92 6058.04 5734.96 6071.37 5755.65 6095.08C5776.33 6118.79 5787.97 6150.93 5788 6184.45V7819.58C5787.96 7863.7 5772.64 7906 5745.42 7937.2C5718.2 7968.4 5681.29 7985.95 5642.79 7986Z" fill="white"/>
    <path d="M5642.79 7986H3221.21C3182.71 7985.95 3145.8 7968.4 3118.58 7937.2C3091.36 7906 3076.04 7863.7 3076 7819.58V6182.47C3076.03 6149.47 3087.48 6117.83 3107.84 6094.5C3128.2 6071.16 3155.81 6058.04 3184.6 6058H5677.66C5706.92 6058.04 5734.96 6071.37 5755.65 6095.08C5776.33 6118.79 5787.97 6150.93 5788 6184.45V7819.58C5787.96 7863.7 5772.64 7906 5745.42 7937.2C5718.2 7968.4 5681.29 7985.95 5642.79 7986ZM3184.6 6077.02C3160.21 6077.05 3136.82 6088.17 3119.57 6107.94C3102.32 6127.71 3092.62 6154.51 3092.6 6182.47V7819.58C3092.63 7858.66 3106.2 7896.13 3130.31 7923.76C3154.42 7951.39 3187.11 7966.94 3221.21 7966.98H5642.79C5676.89 7966.94 5709.58 7951.39 5733.69 7923.76C5757.8 7896.13 5771.37 7858.66 5771.4 7819.58V6184.45C5771.38 6155.97 5761.49 6128.66 5743.92 6108.52C5726.34 6088.38 5702.52 6077.05 5677.66 6077.02H3184.6Z" fill="#3F3D56"/>
    <path d="M3353.73 7820H5509.27C5544.47 7820 5578.23 7803.96 5603.12 7775.41C5628.02 7746.86 5642 7708.14 5642 7667.77V6473.23C5642 6432.86 5628.02 6394.14 5603.12 6365.59C5578.23 6337.04 5544.47 6321 5509.27 6321H3353.73C3318.53 6321 3284.77 6337.04 3259.88 6365.59C3234.98 6394.14 3221 6432.86 3221 6473.23V7667.77C3221 7708.14 3234.98 7746.86 3259.88 7775.41C3284.77 7803.96 3318.53 7820 3353.73 7820Z" fill="#F2F2F2"/>
    <path d="M5791 6173H3070V6093.21C3070.25 6051.29 3085.02 6011.19 3111.06 5981.72C3137.09 5952.25 3172.28 5935.81 3208.89 5936H5652.11C5688.72 5935.81 5723.91 5952.25 5749.94 5981.72C5775.98 6011.19 5790.75 6051.29 5791 6093.21V6173Z" fill="#5BA959"/>
    <path d="M3331.5 6096C3351.11 6096 3367 6077.64 3367 6055C3367 6032.36 3351.11 6014 3331.5 6014C3311.89 6014 3296 6032.36 3296 6055C3296 6077.64 3311.89 6096 3331.5 6096Z" fill="white"/>
    <path d="M3466.5 6096C3486.11 6096 3502 6077.64 3502 6055C3502 6032.36 3486.11 6014 3466.5 6014C3446.89 6014 3431 6032.36 3431 6055C3431 6077.64 3446.89 6096 3466.5 6096Z" fill="white"/>
    <path d="M3601.5 6096C3621.11 6096 3637 6077.64 3637 6055C3637 6032.36 3621.11 6014 3601.5 6014C3581.89 6014 3566 6032.36 3566 6055C3566 6077.64 3581.89 6096 3601.5 6096Z" fill="white"/>
    <path d="M3737.5 7385C3683.41 7385 3630.53 7366.58 3585.55 7332.08C3540.57 7297.58 3505.52 7248.54 3484.82 7191.16C3464.12 7133.79 3458.7 7070.65 3469.26 7009.74C3479.81 6948.83 3505.86 6892.88 3544.11 6848.97C3582.36 6805.05 3631.09 6775.15 3684.14 6763.03C3737.2 6750.92 3792.19 6757.14 3842.16 6780.9C3892.14 6804.67 3934.85 6844.91 3964.91 6896.55C3994.96 6948.19 4011 7008.9 4011 7071C4010.92 7154.25 3982.08 7234.06 3930.8 7292.93C3879.53 7351.79 3810.01 7384.91 3737.5 7385Z" fill="#5BA959"/>
    <path d="M5333.61 7326.99H4273.73C4256.61 7327.25 4240.04 7320.11 4227.32 7306.98C4214.61 7293.86 4206.69 7275.72 4205.15 7256.21C4204.54 7245.82 4205.8 7235.39 4208.85 7225.58C4211.9 7215.77 4216.67 7206.78 4222.88 7199.16C4229.09 7191.55 4236.6 7185.48 4244.95 7181.32C4253.29 7177.17 4262.29 7175.02 4271.39 7175.01H5330.98C5348.19 7174.72 5364.85 7181.89 5377.63 7195.08C5390.4 7208.27 5398.35 7226.5 5399.87 7246.12C5400.44 7256.48 5399.15 7266.88 5396.08 7276.65C5393.01 7286.43 5388.23 7295.38 5382.02 7302.96C5375.81 7310.53 5368.31 7316.57 5359.99 7320.71C5351.66 7324.84 5342.69 7326.98 5333.61 7326.99Z" fill="#3F3D56"/>
    <path d="M4777.61 7003.99H4273.73C4256.61 7004.25 4240.04 6997.11 4227.32 6983.98C4214.61 6970.86 4206.69 6952.72 4205.15 6933.21C4204.54 6922.82 4205.8 6912.39 4208.85 6902.58C4211.9 6892.77 4216.68 6883.78 4222.88 6876.16C4229.09 6868.55 4236.6 6862.48 4244.95 6858.32C4253.29 6854.17 4262.29 6852.02 4271.39 6852.01H4774.98C4792.19 6851.72 4808.85 6858.89 4821.63 6872.08C4834.4 6885.27 4842.35 6903.5 4843.87 6923.12C4844.44 6933.48 4843.15 6943.88 4840.08 6953.65C4837.01 6963.43 4832.23 6972.38 4826.02 6979.96C4819.81 6987.53 4812.31 6993.57 4803.99 6997.71C4795.66 7001.84 4786.69 7003.98 4777.61 7003.99Z" fill="#3F3D56"/>
    <path d="M4939.33 8749H1777.67C1750.44 8748.96 1723.66 8757.06 1699.99 8772.5C1694.32 8776.19 1688.86 8780.28 1683.65 8784.77C1663.9 8801.55 1647.85 8823.41 1636.8 8848.59C1625.75 8873.76 1619.99 8901.56 1620 8929.74V10813.3C1620.04 10861.2 1636.66 10907.1 1666.22 10941C1695.78 10974.9 1735.86 10994 1777.67 10994H4939.33C4981.14 10994 5021.22 10974.9 5050.78 10941C5080.34 10907.1 5096.96 10861.2 5097 10813.3V8929.74C5096.96 8881.82 5080.34 8835.87 5050.78 8801.99C5021.22 8768.1 4981.14 8749.04 4939.33 8749Z" fill="white"/>
    <path d="M4939.33 8749H1777.67C1750.44 8748.96 1723.66 8757.06 1699.99 8772.5C1694.32 8776.19 1688.86 8780.28 1683.65 8784.77C1663.9 8801.55 1647.85 8823.41 1636.8 8848.59C1625.75 8873.76 1619.99 8901.56 1620 8929.74V10813.3C1620.04 10861.2 1636.66 10907.1 1666.22 10941C1695.78 10974.9 1735.86 10994 1777.67 10994H4939.33C4981.14 10994 5021.22 10974.9 5050.78 10941C5080.34 10907.1 5096.96 10861.2 5097 10813.3V8929.74C5096.96 8881.82 5080.34 8835.87 5050.78 8801.99C5021.22 8768.1 4981.14 8749.04 4939.33 8749ZM5080.4 10813.3C5080.35 10856.1 5065.47 10897.2 5039.03 10927.5C5012.58 10957.9 4976.73 10974.9 4939.33 10975H1777.67C1740.27 10974.9 1704.42 10957.9 1677.97 10927.5C1651.53 10897.2 1636.65 10856.1 1636.6 10813.3V8929.74C1636.71 8895.57 1646.22 8862.3 1663.77 8834.67C1681.32 8807.04 1706.01 8786.45 1734.35 8775.83C1735.51 8775.45 1736.59 8774.97 1737.75 8774.59C1750.72 8770.22 1764.16 8768.01 1777.67 8768.03H4939.33C4976.73 8768.09 5012.58 8785.14 5039.03 8815.46C5065.47 8845.77 5080.35 8886.87 5080.4 8929.74V10813.3Z" fill="#3F3D56"/>
    <path d="M3354.91 9871C3342.32 9870.99 3329.93 9867.33 3318.91 9860.35L1667.3 8817.85C1665.37 8816.63 1663.94 8814.59 1663.33 8812.17C1662.72 8809.74 1662.97 8807.14 1664.03 8804.93C1665.09 8802.72 1666.87 8801.08 1668.99 8800.38C1671.1 8799.67 1673.37 8799.96 1675.3 8801.18L3326.91 9843.68C3335.33 9849.02 3344.78 9851.86 3354.4 9851.96C3364.02 9852.06 3373.52 9849.4 3382.02 9844.24L5060.82 8828.6C5061.78 8828.02 5062.84 8827.66 5063.92 8827.54C5065.01 8827.42 5066.1 8827.55 5067.15 8827.92C5068.19 8828.29 5069.16 8828.89 5070 8829.68C5070.84 8830.48 5071.53 8831.46 5072.04 8832.57C5072.55 8833.68 5072.86 8834.89 5072.96 8836.13C5073.07 8837.38 5072.95 8838.63 5072.63 8839.83C5072.3 8841.02 5071.78 8842.13 5071.08 8843.1C5070.38 8844.06 5069.53 8844.85 5068.56 8845.43L3389.76 9861.07C3379.02 9867.58 3367.06 9870.99 3354.91 9871Z" fill="#3F3D56"/>
    <path d="M2147.64 10518H1915.36C1897.76 10518 1880.88 10510 1868.44 10495.7C1855.99 10481.5 1849 10462.2 1849 10442C1849 10421.8 1855.99 10402.5 1868.44 10388.3C1880.88 10374 1897.76 10366 1915.36 10366H2147.64C2165.24 10366 2182.12 10374 2194.56 10388.3C2207.01 10402.5 2214 10421.8 2214 10442C2214 10462.2 2207.01 10481.5 2194.56 10495.7C2182.12 10510 2165.24 10518 2147.64 10518Z" fill="#3F3D56"/>
    <path d="M2421.61 10775H1915.39C1897.78 10775 1880.9 10767 1868.45 10752.7C1855.99 10738.5 1849 10719.2 1849 10699C1849 10678.8 1855.99 10659.5 1868.45 10645.3C1880.9 10631 1897.78 10623 1915.39 10623H2421.61C2439.22 10623 2456.1 10631 2468.55 10645.3C2481.01 10659.5 2488 10678.8 2488 10699C2488 10719.2 2481.01 10738.5 2468.55 10752.7C2456.1 10767 2439.22 10775 2421.61 10775Z" fill="#3F3D56"/>
    <path d="M3354.5 10176C3501.13 10176 3620 10039.7 3620 9871.5C3620 9703.33 3501.13 9567 3354.5 9567C3207.87 9567 3089 9703.33 3089 9871.5C3089 10039.7 3207.87 10176 3354.5 10176Z" fill="#5BA959"/>
    <path d="M2150.21 8927.6L3320.48 9487.53C3324.52 9489.46 3329.05 9489.49 3333.1 9487.61L4539.63 8927.68C4543.2 8926.02 4546.16 8922.99 4547.99 8919.11C4549.83 8915.23 4550.43 8910.73 4549.69 8906.4C4548.96 8902.06 4546.93 8898.15 4543.96 8895.35C4540.99 8892.54 4537.25 8891 4533.4 8891H2156.6C2152.76 8891 2149.04 8892.52 2146.08 8895.31C2143.11 8898.1 2141.08 8901.98 2140.32 8906.3C2139.57 8910.61 2140.14 8915.09 2141.94 8918.97C2143.75 8922.86 2146.67 8925.9 2150.21 8927.6Z" fill="#F2F2F2"/>
    <path d="M2561.43 920H6092.72V2705.37H5958.96V3172.3L5655.77 2705.37H2561.43V920Z" fill="#E4E4E4"/>
    <path d="M5999.49 2529.64H2654.65V1086.37H5271.07C5464.19 1086.7 5649.34 1205 5785.9 1415.31C5922.46 1625.62 5999.27 1910.77 5999.49 2208.19V2529.64Z" fill="white"/>
    <path d="M4914.29 3486.76H1383V5272.11H1516.76V5739.06L1819.95 5272.11H4914.29V3486.76Z" fill="#E4E4E4"/>
    <path d="M4821.07 5096.39H2070.63C1913.04 5096.12 1761.96 4999.58 1650.52 4827.97C1539.09 4656.35 1476.41 4423.67 1476.23 4180.97V3653.12H4821.07V5096.39Z" fill="white"/>
    <path d="M4579.83 4091.35H1776.04V4166.4H4579.83V4091.35Z" fill="#5BA959"/>
    <path d="M4574.77 4350.97H1776.04V4426.02H4574.77V4350.97Z" fill="#E6E6E6"/>
    <path d="M4572.03 4610.59H1776.04V4685.64H4572.03V4610.59Z" fill="#E6E6E6"/>
    <path d="M3730.03 2105.08L3552.41 1831.53C3528.51 1794.72 3514.8 1745.07 3514.17 1693.02C3513.55 1640.97 3526.05 1590.58 3549.06 1552.43C3572.06 1514.29 3603.77 1491.37 3637.52 1488.49C3671.27 1485.61 3704.43 1502.99 3730.03 1536.99C3755.63 1503 3788.79 1485.62 3822.54 1488.5C3856.28 1491.38 3887.99 1514.3 3911 1552.44C3934 1590.59 3946.5 1640.98 3945.88 1693.02C3945.25 1745.07 3931.55 1794.72 3907.65 1831.53L3730.03 2105.08ZM3644.75 1519.03C3622.87 1519 3601.48 1528.98 3583.28 1547.69C3565.09 1566.4 3550.9 1593 3542.53 1624.13C3534.15 1655.26 3531.97 1689.52 3536.24 1722.57C3540.51 1755.61 3551.05 1785.96 3566.53 1809.78L3730.03 2061.58L3893.53 1809.78C3903.81 1793.96 3911.97 1775.18 3917.54 1754.51C3923.1 1733.83 3925.97 1711.67 3925.98 1689.29C3925.98 1666.91 3923.12 1644.75 3917.56 1624.07C3912 1603.39 3903.85 1584.6 3893.57 1568.78C3883.3 1552.95 3871.1 1540.4 3857.67 1531.84C3844.25 1523.28 3829.86 1518.87 3815.32 1518.88C3800.79 1518.89 3786.4 1523.3 3772.98 1531.88C3759.56 1540.45 3747.36 1553.01 3737.09 1568.84L3730.03 1579.72L3722.97 1568.84C3712.7 1553.02 3700.51 1540.47 3687.09 1531.92C3673.66 1523.37 3659.28 1518.99 3644.75 1519.03Z" fill="#5BA959"/>
    <path d="M4349.19 1657.53C4343.71 1649.13 4336.3 1644.41 4328.56 1644.42C4320.83 1644.43 4313.42 1649.16 4307.95 1657.58C4302.49 1666 4299.41 1677.41 4299.41 1689.32C4299.4 1701.23 4302.46 1712.65 4307.92 1721.08L4349.19 1784.65L4390.46 1721.09C4393.17 1716.92 4395.33 1711.96 4396.8 1706.51C4398.28 1701.05 4399.04 1695.2 4399.04 1689.3C4399.04 1683.39 4398.29 1677.54 4396.82 1672.08C4395.36 1666.62 4393.21 1661.66 4390.49 1657.48C4387.78 1653.3 4384.56 1649.99 4381.02 1647.73C4377.47 1645.47 4373.67 1644.31 4369.84 1644.31C4366 1644.32 4362.2 1645.49 4358.66 1647.76C4355.12 1650.02 4351.9 1653.35 4349.19 1657.53Z" fill="#5BA959"/>
    <path d="M4179.42 1657.53C4173.94 1649.11 4166.52 1644.38 4158.79 1644.39C4151.05 1644.39 4143.63 1649.12 4138.16 1657.55C4132.69 1665.97 4129.62 1677.4 4129.61 1689.31C4129.61 1701.23 4132.68 1712.65 4138.15 1721.08L4179.42 1784.65L4220.68 1721.09C4223.4 1716.92 4225.56 1711.96 4227.03 1706.51C4228.5 1701.05 4229.26 1695.2 4229.27 1689.3C4229.27 1683.39 4228.52 1677.54 4227.05 1672.08C4225.59 1666.62 4223.43 1661.66 4220.72 1657.48C4218.01 1653.3 4214.79 1649.99 4211.24 1647.73C4207.7 1645.47 4203.9 1644.31 4200.06 1644.31C4196.23 1644.32 4192.43 1645.49 4188.89 1647.76C4185.35 1650.02 4182.13 1653.35 4179.42 1657.53Z" fill="#5BA959"/>
    <path d="M4268.11 2134.1C4224.65 2134.1 4182.18 2114.26 4146.05 2077.08C4109.92 2039.9 4081.76 1987.06 4065.13 1925.23C4048.5 1863.4 4044.15 1795.37 4052.63 1729.73C4061.11 1664.1 4082.03 1603.81 4112.76 1556.49C4143.48 1509.17 4182.63 1476.94 4225.25 1463.89C4267.86 1450.83 4312.04 1457.53 4352.18 1483.14C4392.33 1508.75 4426.64 1552.12 4450.78 1607.76C4474.92 1663.41 4487.81 1728.82 4487.81 1795.74C4487.74 1885.45 4464.57 1971.46 4423.39 2034.89C4382.2 2098.32 4326.36 2134 4268.11 2134.1ZM4268.11 1488.15C4228.6 1488.15 4189.99 1506.19 4157.14 1539.99C4124.3 1573.78 4098.7 1621.83 4083.58 1678.03C4068.47 1734.24 4064.51 1796.09 4072.22 1855.75C4079.92 1915.42 4098.95 1970.23 4126.88 2013.25C4154.81 2056.27 4190.4 2085.56 4229.14 2097.43C4267.89 2109.3 4308.04 2103.21 4344.54 2079.93C4381.04 2056.65 4412.23 2017.22 4434.18 1966.64C4456.12 1916.05 4467.83 1856.58 4467.83 1795.74C4467.83 1755.35 4462.67 1715.35 4452.63 1678.03C4442.59 1640.71 4427.88 1606.8 4409.34 1578.24C4390.79 1549.68 4368.77 1527.02 4344.54 1511.56C4320.31 1496.1 4294.34 1488.15 4268.11 1488.15Z" fill="#5BA959"/>
    <path d="M4807.37 2134.1C4763.92 2134.1 4721.44 2114.26 4685.31 2077.08C4649.18 2039.9 4621.02 1987.06 4604.4 1925.23C4587.77 1863.4 4583.42 1795.37 4591.89 1729.73C4600.37 1664.1 4621.29 1603.81 4652.02 1556.49C4682.75 1509.17 4721.89 1476.94 4764.51 1463.89C4807.13 1450.83 4851.3 1457.53 4891.45 1483.14C4931.59 1508.75 4965.91 1552.12 4990.05 1607.76C5014.19 1663.41 5027.07 1728.82 5027.07 1795.74C5027.01 1885.45 5003.84 1971.46 4962.65 2034.89C4921.46 2098.32 4865.62 2134 4807.37 2134.1ZM4807.37 1488.15C4767.87 1488.15 4729.25 1506.19 4696.41 1539.99C4663.56 1573.78 4637.96 1621.83 4622.85 1678.03C4607.73 1734.24 4603.78 1796.09 4611.48 1855.75C4619.19 1915.42 4638.21 1970.23 4666.14 2013.25C4694.08 2056.27 4729.66 2085.56 4768.41 2097.43C4807.15 2109.3 4847.31 2103.21 4883.81 2079.93C4920.3 2056.65 4951.49 2017.22 4973.44 1966.64C4995.39 1916.05 5007.1 1856.58 5007.1 1795.74C5007.1 1755.35 5001.94 1715.35 4991.9 1678.03C4981.86 1640.71 4967.15 1606.8 4948.6 1578.24C4930.06 1549.68 4908.04 1527.02 4883.81 1511.56C4859.57 1496.1 4833.6 1488.15 4807.37 1488.15Z" fill="#5BA959"/>
    <path d="M4897.25 1764.98C4924.83 1764.98 4947.18 1730.55 4947.18 1688.08C4947.18 1645.61 4924.83 1611.18 4897.25 1611.18C4869.68 1611.18 4847.32 1645.61 4847.32 1688.08C4847.32 1730.55 4869.68 1764.98 4897.25 1764.98Z" fill="#5BA959"/>
    <path d="M4727.48 1764.98C4755.06 1764.98 4777.41 1730.55 4777.41 1688.08C4777.41 1645.61 4755.06 1611.18 4727.48 1611.18C4699.91 1611.18 4677.55 1645.61 4677.55 1688.08C4677.55 1730.55 4699.91 1764.98 4727.48 1764.98Z" fill="#5BA959"/>
    <path d="M4745.13 1857.26C4724.76 2074.35 4886.44 2118.38 4870.26 1857.26C4871.22 1857.08 4751.65 1857.4 4745.13 1857.26Z" fill="#5BA959"/>
    <path d="M4191.16 1902.32C4236.83 1996.86 4315.78 2005.35 4357.98 1902.32H4191.16Z" fill="#5BA959"/>
    <defs>
    <clipPath id="clip0_31_2059">
    <rect width="7839.97" height="9720.35" fill="white" transform="translate(5187.71)"/>
    </clipPath>
    <clipPath id="clip1_31_2059">
    <rect width="8471.32" height="9180.94" fill="white" transform="translate(5985 5006)"/>
    </clipPath>
    </defs>
    </svg>
    