<svg width="15140" height="16290" viewBox="0 0 15140 16290" fill="none" xmlns="http://www.w3.org/2000/svg">
    <path fill-rule="evenodd" clip-rule="evenodd" d="M4.80385 12290.1L3.71533 11774.3C3.71533 11774.3 7559.9 8356.11 7616.34 8385.36L15135.3 11840.8V12305.9C15135.3 12305.9 15135.3 12372.4 15062 12405.6L7676.82 16268.1C7620.37 16297.3 7531.68 16297.3 7475.24 16268.1L49.1507 12388.9C-7.29076 12359.6 4.80385 12290.1 4.80385 12290.1Z" fill="#DBDDDE"/>
    <path fill-rule="evenodd" clip-rule="evenodd" d="M40.3693 11707.8L7482.99 7875.44C7539.43 7846.19 7628.12 7846.19 7684.57 7875.44L15097.7 11774.3C15154.1 11803.5 15154.1 11851.1 15097.7 11880.3L7749.07 15710.6C7692.63 15739.9 7603.93 15739.9 7547.49 15710.6L44.4008 11813.9C-12.0407 11784.6 -16.0722 11737.1 40.3693 11707.8Z" fill="#F3F3F3"/>
    <path d="M14662.7 0H10289.1C10127 0 9995.59 146.624 9995.59 327.493V3929.92C9995.59 4110.78 10127 4257.41 10289.1 4257.41H14662.7C14824.8 4257.41 14956.2 4110.78 14956.2 3929.92V327.493C14956.2 146.624 14824.8 0 14662.7 0Z" fill="#F2F6FB"/>
    <path d="M10764.5 3382.14L11505.1 2125.07C11575.3 2005.72 11729.4 1993.42 11813.9 2100.38L12112.7 2477.57C12249 2649.38 12496.2 2623.03 12600.4 2425.86L13312.9 1076.05C13384.2 940.828 13554.5 931.52 13638.5 1057.8L14394.3 2207.74C14411.9 2234.53 14445.6 2240.28 14469.5 2220.59C14493.4 2200.9 14498.6 2163.22 14481 2136.44L13725 986.217C13595.1 790.821 13330.7 805.269 13220.2 1014.86L12507.7 2364.62C12440.7 2491.45 12281.1 2508.46 12193.2 2397.69L11894.5 2020.61C11763.1 1854.25 11524.4 1873.3 11415.2 2058.84L10674.7 3315.9C10658.3 3343.66 10665.2 3380.99 10690 3399.29C10714.8 3417.58 10748.2 3409.9 10764.5 3382.14Z" fill="#E1E5F0"/>
    <path d="M11067 2944.07C11156.1 2944.07 11228.4 2863.22 11228.4 2763.49C11228.4 2663.75 11156.1 2582.9 11067 2582.9C10977.8 2582.9 10905.5 2663.75 10905.5 2763.49C10905.5 2863.22 10977.8 2944.07 11067 2944.07Z" fill="#3ABF7C"/>
    <path d="M12867.3 1970.01C12956.4 1970.01 13028.7 1889.16 13028.7 1789.43C13028.7 1689.7 12956.4 1608.85 12867.3 1608.85C12778.1 1608.85 12705.8 1689.7 12705.8 1789.43C12705.8 1889.16 12778.1 1970.01 12867.3 1970.01Z" fill="#FFCB3D"/>
    <path d="M5416.62 30.6934H617.439C568.806 30.6934 529.381 74.6804 529.381 128.941V4189.85C529.381 4244.11 568.806 4288.1 617.439 4288.1H5416.62C5465.25 4288.1 5504.68 4244.11 5504.68 4189.85V128.941C5504.68 74.6804 5465.25 30.6934 5416.62 30.6934Z" fill="#F2F6FB"/>
    <path d="M4495.61 2318.1H4668.86C4734.29 2318.1 4758.01 2325.7 4781.93 2339.97C4805.84 2354.24 4824.61 2375.18 4837.4 2401.86C4850.19 2428.55 4857.01 2455.02 4857.01 2528.01V4288.1H4307.47V2528.01C4307.47 2455.02 4314.28 2428.55 4327.07 2401.86C4339.86 2375.18 4358.63 2354.24 4382.55 2339.97C4406.47 2325.7 4430.19 2318.1 4495.61 2318.1Z" fill="#D8DEED"/>
    <path d="M3867.57 2788.71H4050.64C4116.06 2788.71 4139.79 2796.31 4163.7 2810.58C4187.62 2824.85 4206.39 2845.79 4219.18 2872.48C4231.97 2899.16 4238.78 2925.63 4238.78 2998.62V4288.11H3679.43V2998.62C3679.43 2925.63 3686.24 2899.16 3699.03 2872.48C3711.83 2845.79 3730.6 2824.85 3754.51 2810.58C3778.43 2796.31 3802.15 2788.71 3867.57 2788.71Z" fill="#D8DEED"/>
    <path d="M3249.33 1322.14H3422.58C3488 1322.14 3511.73 1329.74 3535.64 1344.01C3559.56 1358.28 3578.33 1379.22 3591.12 1405.91C3603.91 1432.59 3610.73 1459.06 3610.73 1532.05V4288.1H3061.19V1532.05C3061.19 1459.06 3068 1432.59 3080.79 1405.91C3093.58 1379.22 3112.35 1358.28 3136.27 1344.01C3160.18 1329.74 3183.91 1322.14 3249.33 1322.14Z" fill="#E1E5F0"/>
    <path d="M2621.29 1705.21H2794.54C2859.96 1705.21 2883.68 1712.81 2907.6 1727.08C2931.52 1741.35 2950.29 1762.29 2963.08 1788.98C2975.87 1815.66 2982.68 1842.13 2982.68 1915.12V4288.11H2433.14V1915.12C2433.14 1842.13 2439.95 1815.66 2452.75 1788.98C2465.54 1762.29 2484.31 1741.35 2508.22 1727.08C2532.14 1712.81 2555.86 1705.21 2621.29 1705.21Z" fill="#D8DEED"/>
    <path d="M2003.05 2602.65H2176.3C2241.72 2602.65 2265.45 2610.25 2289.36 2624.52C2313.28 2638.79 2332.05 2659.74 2344.84 2686.42C2357.63 2713.1 2364.44 2739.57 2364.44 2812.56V4288.1H1814.9V2812.56C1814.9 2739.57 1821.72 2713.1 1834.51 2686.42C1847.3 2659.74 1866.07 2638.79 1889.98 2624.52C1913.9 2610.25 1937.62 2602.65 2003.05 2602.65Z" fill="#D8DEED"/>
    <path d="M1375.01 2153.92H1548.26C1613.69 2153.92 1637.41 2161.52 1661.33 2175.79C1685.24 2190.06 1704.01 2211 1716.8 2237.69C1729.6 2264.37 1736.41 2290.84 1736.41 2363.83V4288.1H1186.87V2363.83C1186.87 2290.84 1193.68 2264.37 1206.47 2237.69C1219.26 2211 1238.03 2190.06 1261.95 2175.79C1285.87 2161.52 1309.59 2153.92 1375.01 2153.92Z" fill="#D8DEED"/>
    <path d="M9980.91 278.374H5152.38C4990.26 278.374 4858.85 424.998 4858.85 605.867V4584.91C4858.85 4765.77 4990.26 4912.4 5152.38 4912.4H9980.91C10143 4912.4 10274.4 4765.77 10274.4 4584.91V605.867C10274.4 424.998 10143 278.374 9980.91 278.374Z" fill="#F2F6FB"/>
    <path d="M8076.86 3770.44C8601.39 3432.56 8781.85 2685.65 8479.92 2102.18C8177.99 1518.71 7508.01 1319.62 6983.47 1657.51C6458.94 1995.39 6278.48 2742.3 6580.41 3325.77C6882.34 3909.24 7552.32 4108.33 8076.86 3770.44ZM7901.64 3431.84C7544.78 3661.72 7089.32 3526.38 6884.24 3130.06C6679.15 2733.73 6801.83 2225.99 7158.69 1996.11C7515.55 1766.23 7971.01 1901.57 8176.1 2297.9C8381.18 2694.22 8258.51 3201.97 7901.64 3431.84Z" fill="#E1E5F0"/>
    <path d="M6895.86 1488.2C6287.49 1880.09 6078.14 2746.58 6428.49 3423.62C6778.84 4100.66 7556.09 4331.62 8164.46 3939.74C8772.83 3547.85 8982.18 2681.36 8631.83 2004.32L8328.01 2200.03C8581.51 2689.93 8429.95 3317.26 7989.25 3601.14C7548.55 3885.02 6985.83 3717.8 6732.32 3227.91C6478.81 2738.01 6630.38 2110.68 7071.08 1826.8L6895.86 1488.2Z" fill="#26542F"/>
    <path d="M6886.77 1433.01C6261.77 1835.62 6046.68 2725.83 6406.64 3421.44C6766.6 4117.05 7565.13 4354.33 8190.14 3951.73L7980.16 3545.95C7556.09 3819.11 7014.66 3658.22 6770.75 3186.89C6526.85 2715.56 6672.69 2111.96 7096.75 1838.79L6886.77 1433.01Z" fill="#D8DEED"/>
    <path d="M4858.85 540.453C4858.85 395.711 4963.99 278.374 5093.72 278.374H10039.6C10169.3 278.374 10274.4 395.679 10274.4 540.453V802.531H4858.85V540.453Z" fill="#E1E5F0"/>
    <path d="M5173.96 659.583C5230.01 659.583 5275.44 608.915 5275.44 546.412C5275.44 483.91 5230.01 433.242 5173.96 433.242C5117.92 433.242 5072.49 483.91 5072.49 546.412C5072.49 608.915 5117.92 659.583 5173.96 659.583Z" fill="#FF5645"/>
    <path d="M5505.08 659.583C5561.12 659.583 5606.55 608.915 5606.55 546.412C5606.55 483.91 5561.12 433.242 5505.08 433.242C5449.03 433.242 5403.6 483.91 5403.6 546.412C5403.6 608.915 5449.03 659.583 5505.08 659.583Z" fill="#FFCB3D"/>
    <path d="M5846.89 659.583C5902.94 659.583 5948.37 608.915 5948.37 546.412C5948.37 483.91 5902.94 433.242 5846.89 433.242C5790.85 433.242 5745.42 483.91 5745.42 546.412C5745.42 608.915 5790.85 659.583 5846.89 659.583Z" fill="#3ABF7C"/>
    <path d="M12924.4 9669.98V9671.76C12924.4 9694.67 12909.3 9713.76 12891.9 9713.76H12346.9L12539 10179.6C12676.1 10511.8 12812.5 10843.1 12949 11175.3L13174.9 11723.3C13182.8 11742.4 13176.3 11767.2 13161.2 11778.6L13158.3 11780.5C13143.1 11792 13123.6 11785.3 13116.4 11767.2L12271.2 9713.76H11708.1L10862.9 11767.2C10855.6 11785.3 10836.2 11791 10821 11780.5L10818.1 11778.6C10803 11767.2 10796.5 11742.4 10804.4 11723.3L11030.3 11175.3C11167.5 10843.1 11303.9 10511.8 11440.3 10179.6L11632.3 9713.76H10909.8C10891.7 9713.76 10877.3 9694.67 10877.3 9671.76V9666.99C10877.3 9644.08 10892.5 9624.98 10909.8 9624.98H11400.6C11720.4 9624.98 12040.9 9624.98 12361.4 9624.98H12860.7L12921.5 8973.92C12963.4 8530.98 13004.5 8087.07 13046.4 7643.17L13115 6910.01C13117.1 6884.24 13133.7 6865.14 13151.8 6868.01L13155.4 6868.96C13172.7 6871.83 13185 6895.69 13182.8 6919.56L12925.1 9665.08C12924.9 9666.75 12924.7 9668.38 12924.4 9669.98Z" fill="#D8DEED"/>
    <path d="M5935.31 8084.3C5928.12 8101.11 5914.48 8112.47 5898.85 8112.47H4861.58C4838.48 8112.47 4820.44 8087.65 4820.44 8057.11C4820.44 8026.56 4839.21 8001.74 4861.58 8001.74H5870.52L6222.23 6750.22C6230.17 6721.58 6253.99 6707.26 6275.64 6717.76C6297.3 6728.26 6308.13 6759.76 6300.19 6788.4L5938.55 8075.24C5937.66 8078.45 5936.57 8081.47 5935.31 8084.3Z" fill="#474961"/>
    <path d="M3010.81 9660.43V9662.22C3010.81 9685.13 3025.97 9704.22 3043.29 9704.22H3588.29L3396.27 10170.1C3259.12 10502.3 3122.7 10833.5 2986.27 11165.8L2760.34 11713.7C2752.4 11732.8 2758.89 11757.6 2774.05 11769.1L2776.94 11771C2792.1 11782.5 2811.59 11775.8 2818.81 11757.6L3664.07 9704.22H4227.09L5072.36 11757.6C5079.57 11775.8 5099.06 11781.5 5114.22 11771L5117.11 11769.1C5132.27 11757.6 5138.76 11732.8 5130.82 11713.7L4904.89 11165.8C4767.74 10833.5 4631.32 10502.3 4494.89 10170.1L4302.88 9704.22H5025.44C5043.48 9704.22 5057.92 9685.13 5057.92 9662.22V9657.44C5057.92 9634.53 5042.76 9615.44 5025.44 9615.44H4534.59C4214.82 9615.44 3894.33 9615.44 3573.84 9615.44H3074.54L3013.7 8964.38C2971.83 8521.43 2930.69 8077.53 2888.82 7633.62L2820.25 6900.47C2818.08 6874.69 2801.48 6855.6 2783.44 6858.46L2779.83 6859.42C2762.5 6862.28 2750.23 6886.15 2752.4 6910.01L3010.09 9655.53C3010.28 9657.2 3010.52 9658.84 3010.81 9660.43Z" fill="#D8DEED"/>
    <path d="M7385.83 9709.95H6814.85C6797.53 9709.95 6782.37 9690.86 6782.37 9667.95V9663.17C6782.37 9640.26 6797.53 9621.17 6816.3 9621.17H7345.4C7665.89 9621.17 7986.38 9621.17 8306.15 9621.17H8797C8814.32 9621.17 8829.48 9640.26 8829.48 9663.17V9667.95C8829.48 9690.86 8815.04 9709.95 8797 9709.95H8100.42L8292.44 10175.8C8428.86 10508 8565.29 10839.3 8702.44 11171.5L8928.37 11719.4C8936.31 11738.5 8929.81 11763.4 8914.65 11774.8L8911.77 11776.7C8896.61 11787.2 8877.12 11781.5 8869.9 11763.4L8024.64 9709.95H7461.61L6616.35 11763.4C6609.13 11781.5 6589.64 11788.2 6574.48 11776.7L6571.6 11774.8C6556.44 11763.4 6549.94 11738.5 6557.88 11719.4L6783.81 11171.5C6920.24 10839.3 7056.67 10508 7193.81 10175.8L7385.83 9709.95ZM6784.54 9335.85V8780.8C6784.54 8357.47 6784.54 7935.12 6784.54 7512.76V7008.34C6784.54 6929.26 6833.01 6865.15 6892.81 6865.15H8070.84C8130.63 6865.15 8179.11 6929.26 8179.11 7008.34V9337.49C8179.11 9416.58 8130.63 9480.69 8070.84 9480.69C8070.8 9480.69 8070.76 9480.69 8070.72 9480.69L6892.7 9479.05C6832.94 9478.96 6784.54 9414.88 6784.54 9335.85Z" fill="#D8DEED"/>
    <path d="M9105.94 11783.4H7958.96C7940.91 11783.4 7926.47 11764.3 7926.47 11740.5C7926.47 11716.6 7940.91 11697.5 7958.96 11697.5H9105.94C9123.99 11697.5 9138.43 11716.6 9138.43 11740.5C9138.43 11764.3 9123.99 11783.4 9105.94 11783.4ZM7003.98 11783.4C6985.93 11783.4 6971.5 11766.9 6971.5 11747.1V11733.8C6971.5 11714 6986.65 11697.5 7003.98 11697.5H7743.85C7761.9 11697.5 7776.33 11714 7776.33 11733.8V11747.1C7776.33 11766.9 7761.18 11783.4 7743.85 11783.4H7003.98Z" fill="#3ABF7C"/>
    <path d="M9117.31 11700.2C9113.78 11698.4 9109.95 11697.5 9105.95 11697.5H7958.97C7953.74 11697.5 7948.82 11699.1 7944.46 11701.9C7943.56 11697.8 7943.09 11693.4 7943.09 11688.9L7968.35 11161C7966.91 11132.4 7983.51 11110.4 8004.44 11109.4L8464.25 11105.6C8472.19 11105.6 8479.4 11108.5 8485.9 11115.2C8568.19 11231.6 8646.87 11296.5 8703.89 11334.7C8747.92 11364.3 8895.18 11446.4 8961.59 11486.5C8995.51 11506.6 9027.99 11530.4 9059.75 11556.2C9061.92 11558.1 9063.36 11559.1 9065.53 11561.9C9082.13 11582 9107.4 11618.3 9116.78 11661.2C9118.22 11666.9 9118.22 11671.7 9118.94 11677.4C9119.67 11682.2 9118.94 11687 9118.94 11691.8V11692.7C9118.54 11695.3 9117.99 11697.8 9117.31 11700.2ZM7748.02 11697.8C7746.66 11697.6 7745.27 11697.5 7743.86 11697.5H7003.99C7003.96 11697.5 7003.93 11697.5 7003.9 11697.5L7171.45 11106.6L7688.28 11199.2L7748.02 11697.8Z" fill="#474961"/>
    <path d="M7931.76 9459.06C7906.8 9483.02 7885.03 9503.87 7866.46 9521.6L7857.18 9724.29C7852.85 9831.48 7847.8 9925.62 7842.02 10008.6C7837.69 10073.8 7782.11 10813 7761.9 11084.2C7757.57 11145.7 7726.53 11197.9 7683.94 11214.7C7619.7 11240.8 7137.52 11211 7119.47 11199.8C7096.37 11185.8 7084.1 11179.3 7071.83 11163.4C7028.52 11109.4 7031.41 11023.6 7030.69 10991.9C7026.36 10752.4 7013.36 10031.9 7013.36 9527.62C7013.36 9525.96 7013.36 9524.31 7013.36 9522.66C6965.77 9468.63 6923.7 9387.37 6890.76 9286.47C6840.68 9134.05 6810.12 8935.79 6809.27 8720.6C6809.27 8717.94 6809.27 8588.43 6809.27 8332.06C6809.27 8331.06 6809.27 8331.06 6809.27 8330.07C6810.12 8259.33 6861.05 8203.54 6921.32 8203.54H7587.66C7680.18 8207.53 7771.86 8211.51 7864.38 8215.5C8008.39 8220.54 8213.28 8227.93 8479.04 8237.68C8582.96 8241.5 8676.83 8320.74 8723.2 8443.8C8745.28 8502.42 8758.71 8550.61 8763.47 8588.36C8792.04 8655.12 8807.84 8733.12 8806.39 8816.19C8806.39 8818.05 8806.39 8818.98 8806.39 8820.84C8794.84 9586.24 8659.85 10676.6 8650.47 11045.3C8649.75 11059.3 8646.86 11090 8631.7 11122.6C8584.78 11222.3 8475.07 11199.9 8218.82 11208.3C8000.82 11215.7 7912.76 11238.1 7868.01 11156.1C7843.47 11111.5 7844.19 11060.2 7844.91 11037C7865.16 10506.9 7895.88 9971.21 7931.76 9459.06Z" fill="#4D7E3E"/>
    <path opacity="0.176986" d="M7931.51 9462.58C7906.48 9486.61 7884.74 9507.42 7866.3 9525.01L7893.99 8919.9C7894.71 8877.95 7898.32 8624.42 7754.68 8463.17C7650.01 8346.66 7522.97 8339.21 7438.52 8334.55C7308.59 8327.09 7207.53 8375.56 7188.04 8384.88C7163.5 8396.99 7151.23 8403.52 7138.96 8411.91C6998.92 8508.85 7009.75 8974.89 7011.19 9059.71C7012.61 9165.26 7013.34 9328.64 7013.36 9518.71C6967.17 9464.72 6926.33 9384.95 6894.18 9286.47C6844.1 9134.05 6813.54 8935.79 6812.69 8720.6C6812.69 8717.94 6812.69 8588.43 6812.69 8332.06C6812.69 8331.06 6812.69 8331.06 6812.69 8330.07C6813.54 8259.33 6864.47 8203.54 6924.74 8203.54H7591.08C7683.6 8207.53 7775.28 8211.51 7867.8 8215.5C8011.81 8220.54 8216.7 8227.93 8482.46 8237.68C8586.38 8241.5 8680.25 8320.74 8726.61 8443.8C8750.93 8508.34 8764.75 8560.23 8768.06 8599.48C8713.06 8461.8 8604.64 8368.86 8480.11 8372.03C8419.48 8373.89 8359.57 8375.76 8298.94 8377.62C8136.52 8383.21 8001.54 8549.88 7984.22 8767.77C7965.89 8992.37 7948.14 9224.95 7931.51 9462.58Z" fill="#444444"/>
    <path d="M7748.71 6227.17C7805.19 6228.54 7894.06 6242.69 7981.85 6310.17C7996.98 6321.59 8019.32 6340.64 8043.82 6368.26C8064.72 6392.07 8125.98 6471.11 8184.35 6693.95C8205.25 6772.04 8266.5 6924.41 8301.81 7008.22C8313.34 7035.83 8299.65 7070.12 8275.15 7072.97C8197.91 7080.31 8102.64 7122.23 8012.63 7122.46C8020.04 7300.6 8025.26 7513.08 8027.25 7750.07C8027.25 7750.07 8038.78 8032.13 7972.48 8123.56C7961.01 8139.64 7745.72 8122.9 7517.04 8132.5C7271.82 8142.8 7010.58 8176.22 6949.8 8091.96C6851.51 7955.68 6907.7 7918.78 6997.91 7142.48C6983.78 7144.4 6970.62 7146.1 6958.91 7147.52C6867.79 7158.97 6676.95 7151.34 6585.12 7146.56C6560.72 7145.61 6544.94 7109.34 6554.98 7078.79C6585.12 6986.21 6638.21 6819.17 6653.99 6734.22C6699.19 6491.78 6755.87 6403.01 6775.24 6376.28C6797.48 6345.74 6819.8 6324.96 6833.35 6310.42C6878.78 6261.7 7022.03 6226.55 7263.1 6204.97C7367.01 6158.16 7485.64 6171.6 7562.44 6180.65C7616.14 6187.1 7683.85 6195.07 7748.71 6227.17Z" fill="#E6E6E6"/>
    <path opacity="0.176986" d="M7751.07 6227.46C7807.82 6229.91 7892.92 6245.7 7977.03 6310.4C7992.19 6321.85 8014.57 6340.95 8039.11 6368.63C8060.04 6392.5 8121.4 6471.73 8179.87 6695.12C8200.8 6773.39 8266.48 6924.06 8301.85 7008.07C8313.4 7035.75 8299.69 7070.12 8275.15 7072.98C8252.59 7075.13 8227.19 7081.35 8203.05 7086.63C8193.48 7088.72 8167.07 7092.78 8155.31 7096.06C8098.42 7111.93 8065.27 7122.47 8012.24 7122.47C8011.97 7122.47 8011.7 7122.47 8011.43 7122.47C8000 6847.77 7983.39 6654.59 7965.46 6578.81C7953.19 6527.26 7935.4 6468.08 7935.4 6468.08C7926.73 6434.67 7912.77 6400.3 7884.61 6353.52C7846.67 6291.19 7799.77 6252.37 7751.07 6227.46ZM7581.17 6329.25C7568.17 6430.44 7544.35 6460.32 7544.35 6460.32C7489.5 6418.31 7293.88 6287.24 7311.93 6215.64C7313.37 6210.87 7316.26 6201.33 7335.02 6186.05C7405.76 6128.77 7492.38 6156.46 7522.7 6167.91C7522.7 6167.91 7662.01 6146.91 7688.72 6254.78C7715.43 6362.66 7683.67 6439.03 7683.67 6439.03C7660.57 6420.57 7626.4 6383.98 7581.17 6329.25Z" fill="#444444"/>
    <path d="M8026.35 7891.88L8012.24 7122.46L8203.49 7086.62L8261.94 8030.09C8266.95 8033.54 8271.82 8036.94 8276.54 8040.28C8317.9 8069.6 8352.18 8122.98 8379.38 8200.41C8380.75 8204.32 8381.44 8208.58 8381.4 8212.89C8381.22 8228.71 8371.39 8241.34 8359.43 8241.11L6839.36 8212.01C6476.48 8116.86 6575.18 7465.89 6646.24 7149.6C6745.97 7153.72 6886.84 7157.03 6961.39 7147.72C7031.82 7139.25 7154.14 7120.58 7226.07 7106.34L7097.09 7617.4C7443.44 7640.13 7783.57 7767.72 8026.35 7891.88ZM7621.51 6105.78L7618.25 6281.87C7480.17 6349.22 7382.21 6245.59 7382.21 6245.59C7382.21 6245.59 7387.39 6114.35 7397.76 5851.87C7396.08 5847.11 7394.46 5842.1 7392.88 5836.78C7379.88 5793.82 7333.12 5652.77 7343.23 5604.09C7345.08 5593.8 7306.51 5440.8 7362.99 5363.62C7416.63 5290.33 7565.35 5292.4 7571.33 5292.87C7596.59 5293.82 7621.86 5292.87 7649.29 5285.23C7652.18 5285.23 7655.06 5284.28 7657.95 5284.28C7682.49 5281.41 7820.36 5272.82 7891.1 5408.38C7897.6 5419.84 7903.37 5432.25 7908.43 5447.52C7919.25 5482.84 7924.31 5521.03 7922.14 5559.21L7912.03 5729.14C7910.59 5746.32 7908.42 5763.5 7905.54 5779.73C7884.6 5900.01 7850.68 5998.34 7814.59 6060.39C7787.88 6107.17 7759.01 6133.9 7733.74 6134.85C7726.52 6135.81 7687.55 6134.85 7642.07 6116.72C7639.11 6115.41 7639.86 6116.34 7621.51 6105.78Z" fill="#F2A98A"/>
    <path d="M7244.17 7104.74C7241.79 7112 7235.41 7115.32 7229.93 7112.16C7224.44 7109.01 7221.93 7100.58 7224.31 7093.32C7238.29 7050.82 7243.91 7027.07 7254.73 6965.03C7256.08 6957.32 7261.89 6952.52 7267.72 6954.3C7273.54 6956.07 7277.18 6963.76 7275.83 6971.47C7264.73 7035.1 7258.72 7060.48 7244.17 7104.74ZM7104.74 7597.41C7110.69 7596.67 7115.98 7602.45 7116.54 7610.33C7117.1 7618.2 7112.73 7625.18 7106.77 7625.93C7105.37 7626.1 7102.62 7626.51 7098.71 7627.2C7092.14 7628.36 7084.81 7629.9 7076.9 7631.85C7054.34 7637.41 7031.79 7645.16 7010.84 7655.43C6998.47 7661.49 6987.03 7668.26 6976.72 7675.77C6971.48 7679.58 6964.89 7677.05 6962.01 7670.12C6959.13 7663.19 6961.04 7654.48 6966.28 7650.67C6977.59 7642.45 6989.99 7635.1 7003.31 7628.57C7025.54 7617.69 7049.24 7609.53 7072.94 7603.69C7081.22 7601.65 7088.92 7600.04 7095.84 7598.82C7098.28 7598.39 7100.45 7598.03 7102.33 7597.75C7103.48 7597.58 7104.29 7597.47 7104.74 7597.41Z" fill="#482D1F"/>
    <path opacity="0.2" d="M8260.69 8031.07C8201.12 7989.89 8120.7 7941.45 8025.05 7892.42L8010.93 7122.46L8202.19 7086.62L8260.69 8031.07Z" fill="#8C2A00"/>
    <path d="M7621.73 6106.05L7619.7 6203.59L7520.05 6045.43C7521.47 6046.35 7522.92 6047.3 7524.42 6048.26C7538.86 6057.8 7556.91 6068.31 7580 6081.67C7600.24 6093.6 7613.23 6101.17 7621.73 6106.05Z" fill="#482D1F"/>
    <path d="M7541.68 5652.03L7541.03 5633.67C7541.03 5633.67 7538.14 5599.31 7520.1 5564.94C7518.65 5563.03 7506.38 5542.03 7487.61 5531.53C7453.69 5514.35 7408.94 5534.39 7384.39 5575.44C7358.41 5617.45 7358.41 5673.77 7372.12 5716.73C7385.84 5759.69 7412.54 5779.73 7421.93 5785.46L7463.79 5802.64L7463.98 5802.54C7427.39 5873.49 7395.53 5935.33 7395.53 5935.33C7395.53 5935.33 7335.31 5861.83 7308.6 5803.6C7295.61 5774.96 7249.41 5705.27 7241.47 5595.49C7239.31 5559.21 7230.64 5436.07 7292.72 5345.38C7314.38 5313.87 7338.92 5298.6 7349.02 5291.92C7406.05 5258.5 7447.91 5278.55 7557.63 5281.42C7566.29 5281.42 7580.73 5282.37 7599.5 5281.42C7633.42 5280.46 7657.24 5278.55 7663.74 5278.55C7717.88 5275.69 7835.54 5297.64 7887.51 5403.61C7890.4 5411.25 7894 5417.93 7896.89 5423.66C7881.73 5430.34 7865.13 5442.75 7844.92 5447.52C7790.06 5458.98 7743.14 5444.66 7714.99 5431.29C7660.13 5500.03 7604.55 5567.8 7549.69 5636.54C7547.18 5641.38 7544.5 5646.56 7541.68 5652.03Z" fill="#DE6903"/>
    <path d="M7870.37 5759C7872.53 5747.54 7881.19 5738.95 7889.86 5740.86C7895.63 5741.81 7899.96 5747.54 7902.13 5760.91C7904.29 5794.32 7876.86 5836.32 7868.92 5816.28C7863.87 5802.91 7868.2 5775.23 7870.37 5759ZM7717.87 5732.96C7720.04 5721.5 7728.7 5712.91 7737.36 5714.82C7743.14 5715.77 7747.47 5721.5 7749.63 5734.87C7751.8 5768.28 7724.37 5810.28 7716.43 5790.23C7710.65 5776.87 7714.99 5749.19 7717.87 5732.96Z" fill="#482D1F"/>
    <path d="M7821.09 5765.51L7821.82 5860.97C7821.82 5861.33 7820.72 5862.78 7820.37 5862.78C7816.42 5862.78 7812.39 5862.44 7806.09 5861.63C7804.87 5861.48 7803.59 5861.31 7801.74 5861.06C7799.42 5860.75 7798.15 5860.58 7796.94 5860.41C7792.77 5859.86 7789.32 5859.42 7785.63 5859C7781.66 5858.54 7778.16 5862.43 7777.81 5867.68C7777.47 5872.94 7780.41 5877.56 7784.38 5878.02C7787.99 5878.44 7791.38 5878.86 7795.49 5879.41C7796.7 5879.57 7797.96 5879.74 7800.28 5880.05C7802.15 5880.3 7803.45 5880.48 7804.7 5880.64C7811.42 5881.5 7815.86 5881.87 7820.37 5881.87C7828.69 5881.87 7836.25 5871.87 7836.25 5860.87L7835.53 5765.31C7835.49 5760.04 7832.23 5755.81 7828.24 5755.86C7824.25 5755.92 7821.05 5760.23 7821.09 5765.51Z" fill="#482D1F"/>
    <path d="M7770.56 5932.47C7765.51 5929.61 7753.24 5921.97 7752.52 5912.43C7752.52 5910.52 7751.79 5907.65 7753.24 5906.7C7756.85 5901.93 7765.51 5906.7 7778.5 5911.47C7801.6 5919.11 7820.37 5921.02 7820.37 5921.02C7820.37 5921.02 7813.15 5936.29 7808.82 5940.11C7800.16 5950.61 7777.78 5937.25 7770.56 5932.47Z" fill="#482D1F"/>
    <path d="M7802.6 5775.96C7791.08 5834.16 7751.05 5877.11 7703.43 5877.11C7646.82 5877.11 7600.93 5816.41 7600.93 5741.55C7600.93 5724.95 7603.19 5709.05 7607.31 5694.35L7550.09 5661.76C7544.38 5659.41 7541.19 5651.39 7542.97 5643.83C7544.74 5636.28 7550.81 5632.06 7556.52 5634.41L7616.92 5668.81C7635.11 5631.04 7667.06 5605.99 7703.43 5605.99C7760.04 5605.99 7805.93 5666.68 7805.93 5741.55C7805.93 5743.58 7805.9 5745.6 7805.83 5747.61L7828.34 5750.69C7838.12 5689.3 7879.31 5643.22 7928.64 5643.22C7985.25 5643.22 8031.14 5703.91 8031.14 5778.78C8031.14 5853.65 7985.25 5914.34 7928.64 5914.34C7872.13 5914.34 7826.31 5853.86 7826.14 5779.18L7802.6 5775.96ZM7630.13 5696.39C7625.29 5710.11 7622.59 5725.41 7622.59 5741.55C7622.59 5800.6 7658.78 5848.47 7703.43 5848.47C7748.08 5848.47 7784.28 5800.6 7784.28 5741.55C7784.28 5682.5 7748.08 5634.63 7703.43 5634.63C7672.77 5634.63 7646.1 5657.2 7632.4 5690.45C7632.34 5690.77 7632.28 5691.08 7632.2 5691.38C7631.76 5693.28 7631.04 5694.97 7630.13 5696.39ZM7848.03 5770.64C7847.87 5773.33 7847.8 5776.04 7847.8 5778.78C7847.8 5837.83 7883.99 5885.7 7928.64 5885.7C7973.29 5885.7 8009.49 5837.83 8009.49 5778.78C8009.49 5719.73 7973.29 5671.86 7928.64 5671.86C7887.54 5671.86 7853.6 5712.43 7848.47 5764.95C7848.54 5765.89 7848.54 5766.86 7848.46 5767.84C7848.38 5768.81 7848.24 5769.75 7848.03 5770.64Z" fill="#482D1F"/>
    <path d="M4185.16 11774.8C4184.45 11774.2 4183.74 11773.6 4183.06 11772.9L3458.34 11058.8C3443.9 11044.5 3441.02 11016.8 3451.84 10997.8C3462.67 10978.7 3483.61 10974.8 3498.04 10989.2L4215.01 11695.6H4605.33C4623.37 11695.6 4638.53 11715.6 4638.53 11739.5C4638.53 11763.4 4623.37 11783.4 4605.33 11783.4H4204.71C4197.37 11783.4 4190.63 11780.3 4185.16 11774.8ZM6492.91 11783.4H5345.92C5327.88 11783.4 5313.44 11764.3 5313.44 11740.5C5313.44 11716.6 5327.88 11697.5 5345.92 11697.5H6492.91C6510.96 11697.5 6525.39 11716.6 6525.39 11740.5C6525.39 11764.3 6510.96 11783.4 6492.91 11783.4Z" fill="#3ABF7C"/>
    <path d="M6500.21 11700.9C6496.82 11699.4 6493.17 11698.5 6489.36 11698.5H5342.37C5339.34 11698.5 5336.42 11699.1 5333.64 11700.1C5331.34 11693.8 5330.05 11686.8 5330.05 11679.4L5319.22 11151.4C5317.77 11122.8 5334.38 11100.8 5355.31 11099.9L5851.21 11096.1C5859.15 11096.1 5866.36 11098.9 5872.86 11105.6C5955.15 11222.1 6033.83 11287 6090.85 11325.2C6134.89 11354.8 6282.14 11436.9 6348.55 11477C6382.47 11497 6414.95 11520.9 6446.72 11546.7C6448.88 11548.6 6450.32 11549.5 6452.49 11552.4C6469.09 11572.4 6494.36 11608.7 6503.74 11651.7C6505.18 11657.4 6505.18 11662.2 6505.9 11667.9C6506.63 11672.7 6505.9 11677.4 6505.9 11682.2V11683.2C6504.87 11689.7 6502.9 11695.7 6500.21 11700.9ZM4616.38 11701.2C4611.95 11698.3 4606.98 11696.6 4601.78 11696.6H4211.45L3497.21 10992.9L3766.56 10488L4201.11 10905.1C4224.93 11012.1 4249.47 11119 4274.01 11226.9C4287 11283.2 4300 11338.6 4312.99 11393.9C4353.41 11414.9 4388.06 11434 4412.6 11448.3C4459.52 11475.1 4499.22 11499.9 4542.53 11537.1C4542.53 11537.1 4580.07 11567.7 4601 11611.6C4607.5 11625.9 4613.27 11642.1 4616.88 11659.3C4618.32 11666.9 4618.32 11674.6 4619.04 11681.3C4618.82 11687.5 4617.75 11694.5 4616.38 11701.2Z" fill="#474961"/>
    <path d="M5530.34 8235.92L5727.49 8232.5C5786.68 8227.73 5861.02 8276.42 5916.61 8331.79C5928.16 8343.24 5938.26 8355.65 5947.64 8369.02C5956.31 8381.43 5964.97 8394.79 5972.19 8409.11C6003.95 8469.25 6020.55 8540.85 6019.83 8614.36C6018.38 8773.78 6003.95 8897.88 5994.56 8938.93C5933.21 9190 5775.85 10132.2 5933.93 10539.8C5933.93 10539.8 6014.05 10745.1 5996.73 10898.8C5990.06 10960.6 5964.39 11032.8 5956.36 11054.3C5956.55 11054.7 5956.73 11055 5956.91 11055.3C5896.59 11170.4 5147.18 11339.5 4571.41 11089.4C4492.77 11055.2 4377.96 11015.9 4246.59 10938.6C4240.81 10935.7 4235.04 10931.9 4229.99 10927.1C4141.2 10851.7 4052.42 10777.2 3963.63 10701.8L3740.59 10512.8C3698 10476.5 3685.73 10404 3713.16 10351.5L3894.34 10002.1L4002.61 9793C4032.93 9733.82 4064.69 9672.72 4097.17 9610.67C4112.63 9611.32 4084.71 9609.73 4013.44 9605.9C3764.95 9592.53 3441.03 9529.52 3318.32 9268.91C3256.24 9136.22 3245.41 8996.84 3240.36 8932.88C3212.21 8559.62 3353.02 8367.35 3399.16 8306.64C3429.92 8266.17 3507.37 8201.24 3631.51 8111.84L4439.7 8174.9L5219.61 8213.09C5220.93 8212.21 5382.87 8196.46 5530.34 8235.92Z" fill="#26542F"/>
    <path opacity="0.2" d="M5527.83 8235.97L5727.49 8232.51C5786.68 8227.73 5861.03 8276.42 5916.61 8331.79C5928.16 8343.25 5938.26 8355.66 5947.64 8369.02C5956.31 8381.43 5964.97 8394.8 5972.19 8409.11C6003.95 8469.26 6020.55 8540.85 6019.83 8614.36C6018.38 8773.78 6003.95 8897.89 5994.56 8938.93C5933.21 9190 5775.85 10132.2 5933.93 10539.9C5933.93 10539.9 6014.05 10745.1 5996.73 10898.8C5989.95 10961.5 5963.59 11035.1 5956 11055.3C5890.94 10940.2 5633.49 10415 5735.51 9517.17C5738.39 9494.26 5801.71 8999.34 5801.71 8862.82C5801.71 8369.81 5711.43 8299.65 5554.84 8244.65C5545.94 8241.52 5536.93 8238.64 5527.83 8235.97Z" fill="#8C2A00"/>
    <path d="M4428.72 8972.95C4393.11 9044.2 4355.6 9113.42 4264.53 9278.17C4173.16 9443.48 4135.54 9512.92 4099.57 9584.87C4095.17 9593.67 4097 9605.51 4103.65 9611.33C4110.3 9617.14 4119.26 9614.73 4123.65 9605.93C4159.27 9534.68 4196.78 9465.46 4287.84 9300.71C4379.22 9135.4 4416.84 9065.96 4452.81 8994.01C4457.21 8985.21 4455.38 8973.37 4448.73 8967.55C4442.08 8961.74 4433.12 8964.16 4428.72 8972.95Z" fill="#482D1F"/>
    <path d="M4063.64 6371.57C4119.95 6366.53 4192.24 6380.32 4254.51 6459.58C4315.15 6535.95 4286.27 6602.77 4377.22 6807.06C4422.7 6908.25 4466.01 6975.08 4450.13 7038.08C4444.35 7061.63 4427.27 7083.59 4398.88 7103.95C4335.84 7114.77 4297.1 7121.14 4282.66 7123.05C4278.77 7123.51 4274.32 7124.1 4269.75 7124.71L4258.12 7394.01L4257.4 7403.56L4237.19 7878.01L4232.86 7970.61C4232.86 7978.25 4232.13 7984.93 4231.41 7992.57C4230.69 8001.16 4229.97 8008.8 4229.25 8017.39C4227.08 8039.34 4223.47 8060.35 4219.14 8081.35C4216.98 8089.94 4215.53 8098.53 4212.65 8107.12L3474.94 8099.49L3395.92 7124.72C3337.43 7122.06 3275.22 7119.23 3209.3 7116.22C3174.17 7099.03 3153 7078.99 3145.78 7056.07C3126.29 6994.02 3181.15 6921.47 3238.18 6812.64C3352.95 6594.99 3317.58 6531.03 3392.65 6446.07C3492.14 6333.4 3593.61 6316.6 3662.36 6322.76C3663.88 6322.16 3665.41 6321.58 3666.94 6321.01C3703.03 6307.64 3742.01 6301.92 3781.71 6304.78L3940.52 6318.14C3984.3 6321.23 4025.72 6340.56 4063.64 6371.57Z" fill="#E6E6E6"/>
    <path opacity="0.176986" d="M4061.03 6371.82C4117.7 6366.12 4191.28 6379.09 4254.51 6459.58C4315.15 6535.95 4286.27 6602.77 4377.22 6807.06C4422.7 6908.25 4466.01 6975.08 4450.13 7038.08C4444.35 7061.63 4427.27 7083.59 4398.88 7103.95C4335.84 7114.77 4297.1 7121.14 4282.66 7123.05C4277.86 7123.62 4272.21 7124.37 4266.51 7125.14L4277.29 6875.41C4265.02 6694.99 4192.12 6501.2 4086.73 6395.24C4078.36 6386.84 4069.79 6379.02 4061.03 6371.82Z" fill="#444444"/>
    <path d="M4242.4 7680.34L4254.2 7403.33L4254.92 7393.78L4266.59 7123.54L4386.42 7104.13L4423.71 7700.87C4503.25 7709.48 4583.29 7717.61 4663.79 7725.28C4751.14 7733.87 4838.48 7741.5 4924.38 7748.19C4936.23 7739.04 5035.15 7726.99 5149.13 7748.19C5184.16 7754.7 5235.57 7773.72 5303.34 7805.25C5431.82 7855 5518.04 7890.33 5561.98 7911.23C5627.9 7942.58 5561.98 8001.16 5470.08 8001.16C5451.6 8001.16 5188.18 8013.99 5111.64 8028.22C5112.93 8027.98 5114.29 8027.74 5115.69 8027.5L5160.8 8043.71C5184.03 8051.24 5206.21 8062.63 5227.94 8078.82C5247.32 8093.21 5266.7 8107.6 5286.08 8121.99C5291.38 8126.52 5296.18 8133.94 5298.73 8143.37C5306.96 8171.65 5304.5 8222.74 5286.08 8222.64L4166.94 8177.16C4185.72 8175.32 4204.46 8173.4 4223.2 8171.4C4051.22 8188.14 3878.86 8198.48 3683.55 8196.86C3569.5 8195.91 3540.63 8191.14 3505.98 8167.27C3357.28 8065.12 3328.41 7769.19 3304.59 7510.48C3294.77 7410.21 3287.43 7278.33 3292.21 7121.41C3521.7 7131.87 3701.29 7139.94 3830.98 7145.62C3830.94 7153.34 3830.88 7160.73 3830.8 7167.77C3830.08 7267.05 3827.92 7358.7 3834.41 7494.25C3837.3 7550.58 3838.02 7597.35 3839.47 7627.9C3972.22 7646.78 4106.56 7664.26 4242.4 7680.34ZM4004.81 6266L3994.99 6316.35C4028.77 6333.13 4058.07 6364.48 4089.94 6396.43C4085.61 6421.25 4077.67 6438.43 4068.29 6450.84C4011.26 6526.26 3828.88 6462.3 3652.03 6319.1C3666.6 6313.71 3705.89 6292.53 3775.95 6289.99C3781.59 6289.78 3788.2 6289.78 3795.78 6289.97C3812.64 6243.85 3828.84 6202.16 3846.53 6150.58C3846.26 6150.38 3846.07 6150.23 3845.96 6150.13L3864.01 5976.39C3863.29 5965.89 3865.45 5974.48 3858.23 5970.66C3840.19 5962.07 3824.31 5945.84 3812.04 5924.84C3791.1 5886.66 3786.77 5833.2 3801.21 5785.46C3817.81 5740.6 3857.51 5708.14 3892.16 5715.78C3905.15 5718.64 3916.7 5726.28 3927.53 5737.73L3928.25 5738.69C3931.86 5743.46 3936.91 5745.37 3941.24 5746.33C3953.52 5747.28 3964.34 5736.78 3965.79 5720.55L3986 5472.35C3986.72 5456.12 3979.5 5449.12 3991.77 5450.08C4009.57 5451.99 4039.01 5451.99 4080.08 5450.08C4083.69 5450.08 4111.53 5450.08 4114.42 5450.08C4131.67 5453.89 4263.9 5444.66 4331.03 5587.86C4336.81 5602.18 4342.58 5615.54 4346.91 5629.86C4357.74 5665.18 4361.35 5704.32 4357.74 5743.46L4340.42 5916.25C4338.25 5933.43 4335.36 5950.62 4331.75 5967.8C4285.56 6178.77 4203.99 6320.06 4141.91 6319.1C4110.15 6317.19 4078.39 6309.56 4048.8 6294.28C4044.91 6291.72 4047.41 6293.75 4004.81 6266Z" fill="#DB9E75"/>
    <path opacity="0.2" d="M4238.88 7685.37L4250.82 7404.92L4251.55 7395.37L4263.23 7124.68L4386.41 7104.13L4420.95 7705.98C4359.97 7699.39 4299.27 7692.52 4238.88 7685.37ZM5115.44 8028.57L5156.4 8043.19C5179.63 8050.72 5202.59 8060.65 5224.31 8076.84C5243.69 8091.23 5266.69 8107.59 5286.07 8121.98C5291.37 8126.51 5296.17 8133.93 5298.72 8143.37C5306.96 8171.64 5304.5 8222.74 5286.07 8222.63L4164.15 8178.68C4314.72 8163.93 4463.17 8143.87 4624.49 8123.57C4674.3 8117.84 5084.05 8042.43 5107.15 8030.01C5109.7 8029.53 5112.47 8029.05 5115.44 8028.57Z" fill="#8C2A00"/>
    <path d="M3748.17 7651.69C3742.22 7652.49 3736.9 7646.76 3736.3 7638.89C3735.7 7631.03 3740.03 7624 3745.98 7623.2L3838.37 7610.79C3844.32 7609.99 3849.63 7615.72 3850.24 7623.59C3850.84 7631.46 3846.51 7638.48 3840.56 7639.28L3748.17 7651.69ZM3828.25 7151.33C3822.36 7149.99 3818.4 7142.59 3819.41 7134.8C3820.42 7127 3826.02 7121.77 3831.92 7123.11C3832.15 7123.16 3832.82 7123.28 3833.85 7123.41C3843.19 7124.61 3854 7123.37 3863.96 7117.95C3882.09 7108.07 3893.44 7086.37 3895.06 7046.71C3897.15 6995.57 3895.57 6954.89 3891.69 6923.97C3890.77 6916.66 3889.79 6910.55 3888.83 6905.61C3888.29 6902.81 3887.9 6901.11 3887.73 6900.48C3885.73 6893.02 3888.68 6884.84 3894.32 6882.2C3899.96 6879.56 3906.14 6883.46 3908.14 6890.92C3909.46 6895.85 3911.28 6905.22 3913.05 6919.28C3917.19 6952.29 3918.86 6995.06 3916.69 7048.26C3914.62 7098.82 3898.15 7130.3 3872.2 7144.43C3858.48 7151.9 3844.31 7153.53 3831.76 7151.92C3830.18 7151.72 3828.99 7151.5 3828.25 7151.33Z" fill="#482D1F"/>
    <path d="M4007.66 6261.82L3933.31 6218.86L3986 6361.1L4007.66 6261.82Z" fill="#482D1F"/>
    <path d="M3979.93 5893.54L3960.01 5799.78C3953.51 5776.87 3942.68 5756.82 3928.97 5740.59C3918.14 5729.14 3906.59 5721.5 3893.6 5718.64C3858.95 5711 3819.25 5743.46 3802.65 5788.32C3786.77 5833.19 3790.38 5886.65 3813.48 5924.84C3827.65 5950.14 3847.38 5968.08 3870.64 5975.96C3860.59 6049.93 3845.96 6152.04 3845.96 6152.04C3845.96 6152.04 3828.22 6141.15 3792.75 6119.37C3706.84 6055.86 3660.17 5937.37 3652.72 5763.9C3512.89 5835.15 3379.26 5785.42 3326.96 5679.5C3287.26 5598.35 3296 5490.23 3298.81 5475.21C3326.96 5324.98 3423.69 5302.42 3423.69 5302.42C3423.69 5302.42 3563 5207.91 3711.7 5496.21C3712.26 5497.3 3712.82 5498.4 3713.38 5499.52C3729.58 5477.39 3749.58 5461.25 3770.89 5449.43C3830.8 5416.97 3873.39 5439.88 3987.44 5446.57C4010.54 5448.48 4045.18 5449.43 4088.49 5447.52C4092.1 5447.52 4094.99 5447.52 4097.88 5447.52C4123.86 5446.57 4264.37 5445.6 4331.5 5588.8C4330.78 5591.66 4329.77 5594.32 4328.14 5598.35C4328.14 5598.35 4188.75 5916.68 3979.93 5893.54ZM4255.96 5864.7C4241.52 5866.6 4217.7 5867.56 4198.93 5857.06C4166.45 5840.83 4201.1 5820.78 4231.42 5824.6C4245.85 5825.56 4255.96 5836.06 4262.45 5844.65C4266.79 5852.28 4263.18 5863.74 4255.96 5864.7ZM4377.95 5884.74C4362.79 5888.56 4340.41 5892.38 4320.2 5883.79C4286.27 5871.38 4318.76 5846.56 4349.8 5847.51C4365.68 5848.47 4375.78 5856.1 4383 5864.7C4388.05 5871.38 4385.17 5882.83 4377.95 5884.74Z" fill="#482D1F"/>
    <path d="M4312.99 5984.03C4307.93 5971.62 4312.99 5945.84 4316.6 5929.61C4318.76 5918.16 4328.14 5911.48 4336.08 5913.39C4341.14 5915.29 4346.91 5920.07 4346.91 5933.43C4348.36 5965.89 4319.48 6005.03 4312.99 5984.03ZM4194.61 5962.07C4188.83 5949.66 4194.61 5923.89 4198.22 5907.66C4200.38 5896.2 4209.76 5889.52 4217.7 5891.43C4222.76 5893.34 4228.53 5898.11 4228.53 5911.48C4229.98 5943.93 4201.82 5983.07 4194.61 5962.07Z" fill="#482D1F"/>
    <path d="M4313.4 5910.38C4314.54 5905.33 4312.36 5900.01 4308.54 5898.51C4304.72 5897 4300.7 5899.87 4299.56 5904.93L4287.29 5959.34L4287.08 5960.56L4274.81 6061.75C4274.76 6062.11 4274.14 6062.64 4272.85 6062.4C4265.36 6060.03 4256.66 6057.18 4247.38 6054.02C4243.52 6052.7 4239.58 6055.77 4238.59 6060.87C4237.59 6065.98 4239.91 6071.18 4243.77 6072.5C4253.14 6075.7 4261.95 6078.58 4270.18 6081.14C4279.54 6082.95 4287.65 6075.97 4289.06 6064.83L4301.26 5964.2L4313.4 5910.38Z" fill="#482D1F"/>
    <path d="M4007.65 6266.6L3951.35 6229.37L3975.89 6405.02L4007.65 6266.6Z" fill="#482D1F"/>
    <path d="M4222.75 6147.27C4217.7 6145.36 4205.43 6139.64 4203.98 6128.18C4203.98 6126.27 4203.26 6123.41 4203.98 6121.5C4206.15 6116.72 4229.25 6121.5 4229.25 6121.5C4258.12 6128.18 4266.06 6127.23 4267.51 6132.95C4268.23 6135.82 4267.51 6139.64 4261.01 6147.27C4253.07 6161.59 4229.97 6151.09 4222.75 6147.27Z" fill="#482D1F"/>
    <path d="M10627.2 11707H11622.9C11641 11707 11655.4 11726.1 11655.4 11750C11655.4 11773.9 11641 11792.9 11622.9 11792.9H10476H9631.42C9613.38 11792.9 9598.94 11773.9 9598.94 11750C9598.94 11726.1 9613.38 11707 9631.42 11707H10627.2Z" fill="#3ABF7C"/>
    <path d="M9638.64 11707H9631.42C9629.33 11707 9627.29 11707.3 9625.32 11707.8C9623.28 11703.2 9621.77 11698.2 9620.92 11692.7V11691.8C9620.92 11687 9620.19 11682.2 9620.92 11677.4C9621.64 11671.7 9621.64 11666.9 9623.08 11661.2C9627.92 11639.1 9640.38 11613.1 9660.47 11583.4C9671.87 11566.5 9685.26 11552.1 9700.13 11540.9C9733.27 11515.8 9759.32 11497.7 9778.28 11486.5C9844.68 11446.4 9991.94 11364.3 10036 11334.7C10093 11296.5 10171.7 11231.6 10254 11115.2C10260.5 11108.5 10267.7 11105.6 10275.6 11105.6L10689.6 11109.4C10710.6 11109.4 10727.2 11132.3 10725.7 11161L10760.5 11419.6C10797.2 11398.6 10830.1 11378.4 10870.8 11347.1C10904.7 11321.4 10952.4 11279.4 11005.8 11216.4C11035.4 11182 11065.7 11147.6 11095.3 11113.3L11542.1 11105.6L11634 11707.9C11635.6 11708.4 11637.1 11709 11638.6 11709.7L11639.1 11712.6C11634.5 11709.2 11629.2 11707.2 11623.5 11707C11623.3 11707 11623.1 11707 11622.9 11707H10627.2H10461.6H9638.64Z" fill="#474961"/>
    <path opacity="0.176986" d="M10629.4 11707H10627.2H10129.3H9631.42C9629.33 11707 9627.29 11707.3 9625.32 11707.8C9623.28 11703.2 9621.77 11698.2 9620.92 11692.7V11691.8C9620.92 11687 9620.19 11682.2 9620.92 11677.4C9621.64 11671.7 9621.64 11666.9 9623.08 11661.2C9627.92 11639.1 9640.38 11613.1 9660.47 11583.4C9671.87 11566.5 9685.26 11552.1 9700.13 11540.9C9733.27 11515.8 9759.32 11497.7 9778.28 11486.5C9844.68 11446.4 9991.94 11364.3 10036 11334.7C10093 11296.5 10171.7 11231.6 10254 11115.2C10260.5 11108.5 10267.7 11105.6 10275.6 11105.6L10689.6 11109.4C10710.6 11109.4 10727.2 11132.3 10725.7 11161L10760.8 11421.8C10722.4 11443.7 10679.6 11466.9 10619.6 11504.7C10585 11526.6 10551.8 11551.4 10519.3 11579.1C10503.4 11598.2 10476 11637.3 10467.3 11683.2C10465.9 11690.8 10465.9 11698.4 10465.1 11705.1C10465.1 11705.8 10465.4 11706.4 10465.9 11707H10631.5H10629.4ZM11639.1 11712.6C11634.5 11709.2 11629.2 11707.2 11623.5 11707L11627.3 11707C11631.3 11707 11635.1 11708 11638.6 11709.7L11639.1 11712.6Z" fill="#444444"/>
    <path d="M10599.5 8243.3C10611.9 8240.69 10623.7 8239.85 10634.8 8240.77L11955 8234.08L12559.9 8232.17C12584.4 8234.08 12688 8275.98 12711.8 8311.84C12734.9 8328.07 12882.5 8530.02 12858 8905.19C12853.7 8968.19 12844.3 9108.53 12783.7 9242.17C12720.1 9381.55 12613.3 9483.7 12482.6 9541.93C12367.2 9593.48 12232.2 9611.62 12092.1 9591.57C11796.2 9520.93 11501 9451.24 11205 9380.6V9394.91L11206.5 9401.6C11206.5 9401.6 11242.5 9491.33 11273.6 9583.93C11304.6 9675.58 11347.9 10109 11347.9 10111.8C11418.7 10260.8 11490.1 10462.2 11545 10716.1C11566.6 10818.3 11578.2 10898.5 11582.5 10929C11591.2 10994.5 11598.2 11073.6 11603.3 11166.4C11603.4 11167.7 11603.4 11169.1 11603.4 11170.5C11603.4 11202.2 11584 11227.8 11560.1 11227.8C11553.1 11227.8 11547.6 11227.8 11543.5 11227.8L10901.8 11226.9L10704.5 11225.6C10697.9 11227.9 10691 11229.1 10683.9 11229.1L10156.9 11226.2H10114.4C10072.5 11226.2 10037.1 11182.3 10034.9 11126.9C10029.9 11015.3 10023.4 10868.2 10015.5 10698.3C9993.81 10269.7 9982.26 10133.2 9969.26 9802.87C9967.1 9747.5 9964.93 9697.86 9963.49 9651.09C9957.71 9428.66 9942.56 9220.55 9912.96 8948.48C9896.36 8797.65 9888.42 8704.09 9887.7 8624.86C9886.97 8551.35 9903.58 8478.8 9935.34 8418.66C9951.22 8389.06 9969.26 8363.29 9990.92 8341.33C10046.5 8285.01 10086.3 8246.69 10225.8 8243.96C10336.1 8241.8 10463.7 8242.46 10599.5 8243.3Z" fill="#3ABF7C"/>
    <path opacity="0.176986" d="M10603.4 8242.54C10601.6 8242.87 10599.8 8243.23 10598 8243.63C10547.4 8255.09 10490.4 8294.23 10446.4 8339.09C10424.7 8361.05 10405.9 8386.83 10390.8 8416.42C10359 8475.61 10342.4 8546.25 10342.4 8618.8V8623.57C10343.1 8702.81 10351.1 8796.36 10367 8947.19C10396.6 9219.26 10411.7 9426.42 10417.5 9649.8C10418.9 9695.63 10421.1 9746.22 10423.3 9801.59C10435.5 10130.9 10447.8 10267.4 10469.5 10697C10478.1 10867 10484.6 11013 10489 11125.7C10491.1 11181 10526.5 11224.9 10568.4 11224.9H10610.9L10702.1 11225.5C10696.3 11227.4 10690.1 11228.3 10683.9 11228.3L10156.9 11225.4H10114.4C10072.5 11225.4 10037.1 11181.5 10034.9 11126.2C10029.9 11014.5 10023.4 10867.5 10015.5 10697.5C9993.81 10268.9 9982.26 10132.4 9969.26 9802.09C9967.1 9746.72 9964.93 9697.08 9963.49 9650.3C9957.71 9427.87 9942.56 9219.76 9912.96 8947.69C9896.36 8796.86 9888.42 8703.31 9887.7 8624.07C9886.97 8550.57 9903.58 8478.02 9935.34 8417.87C9951.22 8388.28 9969.26 8362.51 9990.92 8340.55C10046.5 8284.23 10086.3 8245.91 10225.8 8243.18C10337.1 8241 10466.2 8241.69 10603.4 8242.54L10603.4 8242.54Z" fill="#444444"/>
    <path d="M11201.4 9359.35C11192.5 9347.7 11183.1 9335.52 11173.4 9322.76C11170.7 9319.3 11170.7 9319.3 11168.1 9315.84C11140.6 9279.8 11118.1 9250.1 11074.5 9192.4C11068.8 9184.94 11059.7 9184.94 11054 9192.4C11048.4 9199.85 11048.4 9211.94 11054 9219.4C11097.7 9277.14 11120.2 9306.87 11147.8 9342.96C11150.4 9346.43 11150.4 9346.43 11153.1 9349.89C11162.8 9362.68 11172.2 9374.9 11181.2 9386.57C11186.9 9393.96 11196 9393.86 11201.6 9386.35C11207.2 9378.83 11207.1 9366.74 11201.4 9359.35Z" fill="#482D1F"/>
    <path d="M12149 6262.38C12191.5 6243.3 12237.8 6234.32 12285.9 6237.69C12477.2 6250.1 12624.5 6451.53 12615.1 6687.32C12610.5 6802.6 12569 6904.77 12505.4 6977.34L12665.3 7750.09C12689.8 7872.28 12681.1 7996.38 12645.1 8103.3C12640 8118.58 12634.2 8133.85 12628.5 8148.17C12622 8163.44 12614.7 8178.72 12607.5 8193.04C12599.6 8208.31 12590.9 8223.58 12581.5 8237.9H11795.5C11789 8223.58 11782.5 8209.27 11776.7 8193.04C11770.9 8178.72 11765.9 8163.44 11761.5 8148.17C11757.2 8133.85 11753.6 8118.58 11750 8103.3C11749.3 8100.44 11748.5 8097.57 11747.8 8094.71L11543.5 7152.65L11394.3 7174.37C11381.4 7176.28 11369.1 7164.83 11367.6 7148.6L11361.1 7081.77C11360.9 7078.78 11361 7075.86 11361.4 7073.06C11336.9 7053.37 11314.4 7029.74 11295.5 7002.54C11268 6963.4 11247.1 6917.58 11234.8 6865.07C11185.7 6656.96 11294.7 6434.53 11478.1 6369.62C11551.9 6343.49 11626.6 6346.59 11692.8 6373.19C11720.8 6347.42 11751.5 6327.59 11784.6 6315.28L11942.7 6253.23C12015.5 6238.95 12085.5 6242.26 12149 6262.38Z" fill="#E6E6E6"/>
    <path opacity="0.176986" d="M11542.4 7152.81L11394.3 7174.38C11381.4 7176.28 11369.1 7164.83 11367.6 7148.6L11361.1 7081.78C11360.9 7078.79 11361 7075.86 11361.4 7073.07C11336.9 7053.37 11314.4 7029.74 11295.5 7002.54C11268 6963.4 11247.1 6917.58 11234.8 6865.08C11185.7 6656.97 11294.7 6434.54 11478.1 6369.62C11552.3 6343.35 11627.4 6346.63 11693.9 6373.64C11544.5 6509.01 11470.4 6812.47 11519.8 7048.59L11542.4 7152.81Z" fill="#444444"/>
    <path d="M11417.2 6411.7C11417.2 6411.7 11403.5 6484.25 11476.4 6464.21C11549.3 6444.16 11570.3 6434.61 11570.3 6434.61L11551.5 6368.74L11417.2 6411.7Z" fill="#482D1F"/>
    <path d="M11668.6 6222.17C11666.2 6223.01 11663.8 6223.81 11661.5 6224.55L11668.9 6223.14L11668.6 6222.17ZM11861.8 6068.16L11879.9 6058.48L11967.3 6258L11823.3 6317.65L11964.4 7204.04C11964.4 7204.04 11976.4 7140.07 11991.7 7024.71C11992.5 7025.03 11993.2 7025.3 11994 7025.53L12393.1 7142.95C12394.8 7143.44 12396.5 7143.69 12398.2 7143.73C12384.2 7217.45 12369.3 7306.11 12353.4 7397.83C12312.3 7634.58 12305.8 7744.36 12240.1 7900.92C12165 8079.44 12095.8 8084.21 12068.3 8097.58C12007 8129.08 11945.6 8124.31 11907.4 8111.9C11861.4 8097.2 11777.4 8073.52 11706 7901.95L11747.8 8094.71C11748.6 8097.58 11749.3 8100.44 11750 8103.3C11753.6 8118.58 11757.2 8133.85 11761.5 8148.17C11765.9 8163.45 11770.9 8178.72 11776.7 8193.04C11782.5 8209.27 11789 8223.59 11795.5 8237.91H11887.9L10689.9 8239.91C10686.6 8239.91 10683.5 8238.4 10681 8235.87C10482.3 8077.08 10383.9 7955.87 10385.8 7872.24C10445.9 7860.14 10531.7 7843.53 10643.1 7822.42C10712.4 7809.3 10782.7 7809.57 10851.9 7823.21L11069.4 7866.11C11232.2 7797.11 11449.4 7706.48 11503.7 7690.87L11410.5 7172.02L11543.5 7152.66L11606 7440.78C11569.5 7099.62 11578.9 6744.12 11545.9 6401.86L11469.9 6404.06C11425.2 6427.93 11331.3 6468.02 11321.2 6383.06C11321.2 6383.06 11445.4 6315.28 11532.7 6265.64L11539.2 6258C11545 6251.32 11550 6247.5 11557.3 6244.64C11558.7 6243.68 11560.2 6243.68 11561.6 6243.68L11596.2 6237L11601.1 6236.08C11589.6 6236.81 11581.6 6236.43 11578.7 6236.05C11518.4 6230.32 11448 6084.26 11416.4 5873.29C11413.6 5856.1 11412.9 5838.92 11411.4 5821.74L11405.7 5650.86C11404.2 5612.67 11410 5574.49 11423.6 5541.07C11429.4 5526.75 11435.1 5513.39 11441.6 5502.89C11515.5 5371.15 11651.9 5385.47 11676.3 5389.29C11679.2 5389.29 11682 5390.24 11684.9 5390.24C11712.2 5398.83 11736.6 5401.7 11762.4 5400.74C11773.9 5400.74 11783.3 5413.15 11784 5428.43L11787.6 5672.81C11788.3 5695.72 11875.9 5651.81 11875.9 5650.86C11917.9 5608.85 11970.6 5835.1 11949.1 5868.51C11933.3 5891.42 11888.8 5923.88 11875.9 5929.61C11868 5933.43 11862.2 5942.02 11860.8 5951.57C11865.7 5999.91 11866 6038.78 11861.8 6068.16Z" fill="#DB9E75"/>
    <path opacity="0.2" d="M11410.5 7172.81L11543.5 7153.44L11747.8 8095.5C11748.5 8098.36 11749.3 8101.23 11750 8104.09C11753.6 8119.37 11757.2 8134.64 11761.5 8148.96C11765.9 8164.23 11770.9 8179.51 11776.7 8193.83C11782.5 8210.06 11789 8224.38 11795.5 8238.7H11887.9L10689.9 8240.7C10686.5 8240.7 10683.4 8239.19 10681 8236.66C10482.3 8077.87 10383.9 7956.66 10385.8 7873.02C10445.9 7860.93 10531.6 7844.32 10643.1 7823.21C10712.3 7810.09 10782.7 7810.36 10851.9 7824L11069.4 7866.89C11232.2 7797.9 11449.4 7707.27 11503.7 7691.66L11410.5 7172.81Z" fill="#8C2A00"/>
    <path d="M10353.1 8002.68C10430.6 7876.58 10590 7774.46 10856.9 8009.66C10897.6 8044.31 10883.9 8157.93 10839.1 8159.22L10377.6 8169.5C10343 8171.02 10327.3 8045.1 10353.1 8002.68Z" fill="#474961"/>
    <path d="M12083.5 5618.71C12176.1 5699.11 12264.5 5817.24 12248.8 5895.24C12236.5 5958.25 12190.3 5991.66 12143.4 6026.03C12105.5 6053.51 12035.5 6096.05 11934.8 6104.97C11934.8 6105.06 11934.8 6105.16 11934.8 6105.26C11911 6110.03 11887.9 6114.81 11864 6119.58C11851.8 6121.49 11840.2 6110.03 11839.5 6093.8C11843.1 6059.44 11846.7 6025.07 11850.3 5990.7C11853.6 5973.56 11857 5951.9 11859.1 5928.69C11870.6 5925.01 11896.3 5915.17 11916 5884.74C11937.7 5851.33 11949.2 5800.73 11934.8 5752.05C11921.8 5705.27 11885.7 5668.99 11851.1 5672.81C11831.6 5674.72 11816.4 5689.04 11814.2 5690.95C11798.6 5706.64 11785.5 5728.1 11778.4 5740.96C11744.5 5723.53 11691.8 5686.3 11648.2 5612.67C11638.1 5596.12 11626.3 5571.62 11612.8 5539.16C11540.9 5560.73 11480.6 5555.32 11431.7 5522.94C11442.3 5496.05 11459 5471.73 11481.6 5449.99C11515.5 5417.37 11519.3 5413.43 11562.1 5397.53C11588.8 5387.59 11639.5 5384.41 11675.8 5389.29H11677.1C11718.2 5395.01 11752.2 5396.92 11774.5 5396.92C11884.3 5399.79 11926.8 5380.7 11982.4 5416.97C11992.5 5423.65 12016.4 5440.84 12037.3 5473.29C12067 5519.15 12079.1 5572.25 12083.5 5618.71ZM11429.7 5946.98C11457 6075.92 11486 6123.39 11482.3 6123.39C11478.7 6123.39 11469 6130.08 11394.7 6102.4C11357.9 6089.03 11323.2 6075.67 11307.3 6036.53C11285 5981.16 11351.6 5866.77 11410.8 5790.4C11410.8 5846.93 11417.9 5889.56 11429.7 5946.98ZM11386.2 5757.77C11379 5755.87 11376.1 5744.41 11381.1 5737.73C11387.6 5730.09 11398.5 5720.54 11412.9 5719.59C11442.5 5717.68 11475 5740.59 11443.2 5753.96C11423 5763.5 11399.9 5760.64 11386.2 5757.77ZM11526.2 5757.77C11519 5755.87 11516.1 5744.41 11521.9 5737.73C11528.4 5730.09 11539.2 5720.54 11554.4 5719.59C11584 5717.68 11616.5 5741.55 11584.7 5753.96C11563 5763.5 11540.7 5760.64 11526.2 5757.77Z" fill="#482D1F"/>
    <path d="M11440.3 5831.28C11441.8 5847.51 11443.2 5874.24 11436.7 5885.7C11427.3 5902.88 11405 5858.97 11410 5828.42C11412.2 5815.05 11417.2 5811.24 11423 5811.24C11431.7 5811.24 11438.9 5819.83 11440.3 5831.28ZM11568.8 5825.56C11571 5841.78 11572.4 5868.51 11565.2 5879.97C11555.8 5897.15 11533.4 5853.24 11538.5 5822.69C11540.7 5809.33 11545.7 5805.51 11551.5 5805.51C11560.2 5805.51 11567.4 5814.1 11568.8 5825.56Z" fill="#482D1F"/>
    <path d="M11956.2 7209.06C11954.5 7201.47 11957.7 7193.51 11963.5 7191.27C11969.2 7189.02 11975.2 7193.36 11976.9 7200.94L12048.4 7520.74C12050.1 7528.32 12046.8 7536.29 12041.1 7538.53C12035.3 7540.77 12029.3 7536.44 12027.6 7528.86L11956.2 7209.06ZM12445 7044.49C12445.2 7046.18 12445.1 7047.94 12444.8 7049.69L12432.6 7121.23C12428.4 7146.11 12409.6 7161.51 12390.8 7155.97C12385 7154.25 12381.3 7146.61 12382.6 7138.89C12383.9 7131.17 12389.7 7126.3 12395.5 7128.01C12402.8 7130.15 12409.9 7124.32 12411.5 7114.96L12422 7053.45C12420.1 7052.11 12418.4 7049.98 12417.4 7047.2C12414.7 7040.13 12416.9 7031.53 12422.2 7027.99C12453 7007.61 12481.7 6980.76 12506.1 6949.39C12510.4 6943.88 12517.3 6944.01 12521.5 6949.68C12525.6 6955.35 12525.5 6964.42 12521.2 6969.93C12498.7 6998.87 12472.8 7024.15 12445 7044.49ZM11999 6916.98C11998.9 6917.62 11998.9 6918.27 11998.8 6918.91L11986.5 6990.45C11984.9 7000.08 11989.3 7009.48 11996.3 7011.55C12002.2 7013.26 12005.8 7020.91 12004.5 7028.63C12003.2 7036.35 11997.5 7041.22 11991.6 7039.51C11972.8 7033.98 11961.2 7009.17 11965.4 6984.18L11977.6 6912.58C11978.1 6909.8 11979.2 6907.4 11980.6 6905.54C11972.1 6891.94 11965.7 6879.99 11960.3 6867.87C11955.5 6856.99 11951.5 6845.83 11947.2 6831.89C11944.3 6822.39 11942.6 6816.01 11936.2 6792.72C11934.1 6785.28 11937 6777.07 11942.6 6774.37C11948.2 6771.66 11954.5 6775.5 11956.5 6782.93C11962.8 6805.85 11964.6 6812.1 11967.3 6821.17C11971.2 6833.91 11974.8 6843.85 11979 6853.44C11984.7 6866.26 11991.8 6879.09 12002.2 6894.93C12006.1 6900.91 12005.6 6909.96 12001 6915.13C12000.4 6915.86 11999.7 6916.48 11999 6916.98ZM11718.9 6205.64C11692.1 6221.87 11674 6250.58 11632.3 6256.09C11599.1 6266.59 11571 6254.18 11556.5 6244.64C11558 6243.68 11559.4 6243.68 11560.9 6243.68L11595.5 6237C11612.1 6237 11638.8 6233.18 11669.8 6221.73L11718.9 6205.64Z" fill="#482D1F"/>
    <path d="M11532 6018.39C11537 6016.48 11549.3 6010.75 11551.5 6000.25C11551.5 5998.34 11552.2 5995.48 11551.5 5993.57C11548.6 5987.84 11539.2 5990.7 11526.2 5992.61C11503.1 5995.48 11484.4 5992.61 11484.4 5992.61C11484.4 5992.61 11490.1 6011.71 11493.7 6016.48C11501.7 6031.75 11524.8 6022.21 11532 6018.39Z" fill="#482D1F"/>
    <path d="M11477.9 5839.24L11477.9 5837.86L11477.9 5838.55L11477.9 5839.24ZM11469.3 5940L11469.2 5941.07C11469.2 5951.48 11474.6 5961.16 11482.5 5962.89C11483.9 5963.08 11484.7 5963.15 11485.5 5963.22C11493.1 5963.88 11498.6 5963.98 11518.3 5963.98C11522.3 5963.98 11525.5 5959.7 11525.5 5954.43C11525.5 5949.16 11522.3 5944.88 11518.3 5944.88C11499 5944.88 11493.6 5944.79 11486.5 5944.17C11485.7 5944.1 11485 5944.03 11484.2 5943.96C11484.4 5943.96 11483.8 5942.85 11483.7 5941.44L11492.3 5839.98L11492.3 5838.6L11490.9 5782.27C11490.7 5777 11487.4 5772.88 11483.4 5773.06C11479.4 5773.23 11476.3 5777.65 11476.4 5782.92L11477.9 5838.55L11469.3 5940Z" fill="#482D1F"/>
    <path d="M12659.5 8108.08H3441.76C3413.85 8108.08 3391.23 8138 3391.23 8174.91C3391.23 8211.81 3413.85 8241.73 3441.76 8241.73H12659.5C12687.4 8241.73 12710 8211.81 12710 8174.91C12710 8138 12687.4 8108.08 12659.5 8108.08Z" fill="#D8DEED"/>
    <path d="M9175.05 7964.91L9244.46 7594.49H8723.38C8669.24 7594.49 8624.48 7540.08 8624.48 7474.21V6425.07C8623.76 6358.24 8667.79 6303.83 8722.65 6303.83H10308.5C10362.6 6303.83 10407.4 6358.24 10407.4 6424.11V7474.21C10407.4 7540.08 10362.6 7594.49 10308.5 7594.49H9673.48L9644.82 7964.91H9832.84C9861.71 7964.91 9884.09 7995.46 9884.09 8032.69C9884.09 8070.87 9860.99 8100.46 9832.84 8100.46H9028C8999.12 8100.46 8976.75 8069.92 8976.75 8032.69C8975.3 7995.46 8999.12 7964.91 9028 7964.91H9175.05Z" fill="#474961"/>
    <path fill-rule="evenodd" clip-rule="evenodd" d="M9695 7324.51L9697.14 7965.86H9645.38L9695 7324.51Z" fill="white"/>
    </svg>
    