<svg width="4173" height="1886" viewBox="0 0 4173 1886" fill="none" xmlns="http://www.w3.org/2000/svg">
    <path d="M1367 422C1367.27 427.333 1367.93 432.533 1369 437.6C1370.33 442.667 1371.93 446.4 1373.8 448.8C1371.4 451.2 1367.67 454 1362.6 457.2C1357.8 460.4 1352.2 462.933 1345.8 464.8C1339.67 466.933 1333.13 467.867 1326.2 467.6C1315.8 467.067 1307.4 462.667 1301 454.4C1294.87 446.133 1291.67 435.867 1291.4 423.6C1291.4 421.2 1291.4 416.8 1291.4 410.4C1291.4 403.733 1291.4 396.667 1291.4 389.2C1291.4 381.733 1291.4 375.6 1291.4 370.8C1291.4 366.267 1290.2 361.867 1287.8 357.6C1285.67 353.333 1283.13 350.8 1280.2 350C1276.2 348.667 1272.87 351.067 1270.2 357.2C1269.67 358.533 1267.93 361.867 1265 367.2C1262.07 372.267 1258.73 378.267 1255 385.2C1251.53 392.133 1248.2 399.067 1245 406C1242.07 412.933 1240.07 418.933 1239 424C1237.93 428.8 1238.6 431.733 1241 432.8C1239.93 435.467 1237.93 439.333 1235 444.4C1232.33 449.467 1227.8 453.867 1221.4 457.6C1215.27 461.067 1206.47 462.4 1195 461.6C1188.87 461.067 1181 457.333 1171.4 450.4C1161.8 443.467 1152.6 430.8 1143.8 412.4C1135.53 394.8 1128.73 382.933 1123.4 376.8C1118.33 370.4 1114.6 367.467 1112.2 368C1110.07 368.267 1108.33 369.733 1107 372.4C1105.93 375.067 1104.87 378.8 1103.8 383.6C1103.27 386 1103 390 1103 395.6C1103 401.2 1103.27 407.467 1103.8 414.4C1104.33 421.333 1105.27 427.867 1106.6 434C1108.2 440.133 1110.2 444.8 1112.6 448C1110.47 449.333 1106.6 451.6 1101 454.8C1095.67 458 1089.53 460.933 1082.6 463.6C1075.93 466 1069.4 467.2 1063 467.2C1053.4 466.933 1045.4 464.4 1039 459.6C1032.6 454.533 1028.73 444.667 1027.4 430C1027.13 427.6 1027 420.8 1027 409.6C1027 398.4 1027 384.267 1027 367.2C1027 350.133 1027 331.867 1027 312.4C1027 292.667 1027 273.2 1027 254C1027 234.8 1027 217.2 1027 201.2C1027.27 185.2 1027.4 172.4 1027.4 162.8C1027.4 153.2 1027.4 148.4 1027.4 148.4C1030.33 147.867 1035.27 147.733 1042.2 148C1049.13 148.267 1056.73 149.333 1065 151.2C1073.27 153.067 1080.87 156.133 1087.8 160.4C1094.73 164.4 1099.53 170.133 1102.2 177.6C1102.2 177.6 1103.4 180.133 1105.8 185.2C1108.47 190 1111.93 196.4 1116.2 204.4C1120.47 212.133 1125 220.533 1129.8 229.6C1134.87 238.667 1139.67 247.6 1144.2 256.4C1149 265.2 1153.13 272.933 1156.6 279.6C1160.33 286.267 1162.87 290.933 1164.2 293.6C1168.73 301.333 1173 306.667 1177 309.6C1181.27 312.533 1185.8 314.133 1190.6 314.4C1200.47 314.4 1209.93 306.8 1219 291.6C1220.33 289.2 1223 284.133 1227 276.4C1231 268.4 1235.67 258.933 1241 248C1246.33 237.067 1251.8 225.867 1257.4 214.4C1263.27 202.933 1268.6 192.267 1273.4 182.4C1278.2 172.267 1282.07 164.133 1285 158C1288.2 151.6 1289.8 148.4 1289.8 148.4C1291.67 148.133 1294.33 148 1297.8 148C1301.53 147.733 1305.53 147.867 1309.8 148.4C1317.27 148.933 1325.13 150.4 1333.4 152.8C1341.93 155.2 1349.27 158.933 1355.4 164C1361.8 169.067 1365.4 175.867 1366.2 184.4C1366.73 188.933 1367.13 196.4 1367.4 206.8C1367.67 216.933 1367.8 229.067 1367.8 243.2C1367.8 257.067 1367.8 271.867 1367.8 287.6C1367.8 303.333 1367.67 318.8 1367.4 334C1367.4 349.2 1367.27 363.2 1367 376C1367 388.8 1367 399.333 1367 407.6C1367 415.6 1367 420.4 1367 422ZM1626.71 391.6C1626.97 397.467 1627.37 404.667 1627.91 413.2C1628.71 421.733 1630.44 430 1633.11 438C1635.77 446 1640.04 452.4 1645.91 457.2C1639.24 461.733 1632.44 464.933 1625.51 466.8C1618.57 468.933 1611.77 469.467 1605.11 468.4C1603.24 467.867 1601.24 467.2 1599.11 466.4C1596.97 465.867 1594.04 465.067 1590.31 464C1584.17 462.133 1576.97 461.733 1568.71 462.8C1560.44 463.867 1551.77 465.2 1542.71 466.8C1533.91 468.667 1525.24 469.6 1516.71 469.6C1502.84 469.6 1488.97 467.2 1475.11 462.4C1461.24 457.333 1448.71 449.6 1437.51 439.2C1426.31 428.8 1417.77 415.6 1411.91 399.6C1406.04 383.6 1404.31 364.4 1406.71 342C1408.31 326.533 1412.71 312.4 1419.91 299.6C1427.11 286.533 1435.91 275.333 1446.31 266C1456.97 256.4 1468.17 249.067 1479.91 244C1491.91 238.667 1503.51 236.133 1514.71 236.4C1523.24 236.667 1529.77 236.933 1534.31 237.2C1539.11 237.467 1545.24 238.133 1552.71 239.2C1557.24 239.733 1562.97 239.067 1569.91 237.2C1576.84 235.333 1583.77 233.333 1590.71 231.2C1597.91 228.8 1604.04 227.6 1609.11 227.6C1616.84 227.333 1622.31 227.6 1625.51 228.4C1628.71 228.933 1631.37 229.467 1633.51 230C1631.91 234.8 1630.57 242 1629.51 251.6C1628.44 261.2 1627.64 272.133 1627.11 284.4C1626.84 296.4 1626.57 308.933 1626.31 322C1626.04 335.067 1625.91 347.6 1625.91 359.6C1626.17 371.6 1626.44 382.267 1626.71 391.6ZM1476.31 354.8C1476.84 368.133 1479.24 378.533 1483.51 386C1488.04 393.2 1493.37 398.267 1499.51 401.2C1505.91 404.133 1512.04 405.6 1517.91 405.6C1529.64 405.867 1538.31 401.333 1543.91 392C1549.51 382.667 1552.17 369.733 1551.91 353.2C1551.91 348.667 1551.37 343.333 1550.31 337.2C1549.51 331.067 1547.91 325.067 1545.51 319.2C1543.37 313.333 1540.31 308.4 1536.31 304.4C1532.57 300.4 1527.64 298.4 1521.51 298.4C1509.24 298.4 1498.44 302.933 1489.11 312C1480.04 321.067 1475.77 335.333 1476.31 354.8ZM1895.78 413.2C1896.05 424.933 1897.78 433.2 1900.98 438C1904.45 442.533 1906.18 444.8 1906.18 444.8C1906.18 444.8 1903.78 446.533 1898.98 450C1894.45 453.2 1888.31 456.533 1880.58 460C1872.85 463.467 1864.18 465.2 1854.58 465.2C1840.45 465.2 1831.25 461.333 1826.98 453.6C1822.71 445.867 1820.45 435.867 1820.18 423.6C1820.18 421.467 1820.31 416.8 1820.58 409.6C1820.85 402.4 1820.98 394.267 1820.98 385.2C1821.25 375.867 1821.25 367.333 1820.98 359.6C1820.71 351.6 1820.18 346 1819.38 342.8C1816.45 332.133 1810.71 327.467 1802.18 328.8C1795.51 329.6 1789.25 333.467 1783.38 340.4C1777.51 347.067 1772.71 355.067 1768.98 364.4C1765.25 373.733 1763.38 382.533 1763.38 390.8C1763.38 395.067 1763.11 399.333 1762.58 403.6C1762.31 407.6 1762.05 411.333 1761.78 414.8C1761.51 417.2 1761.78 420.133 1762.58 423.6C1763.65 427.067 1765.51 429.867 1768.18 432C1766.31 435.2 1762.58 439.333 1756.98 444.4C1751.65 449.467 1745.78 454.133 1739.38 458.4C1733.25 462.4 1727.91 464.667 1723.38 465.2C1719.11 465.467 1714.05 464.133 1708.18 461.2C1702.58 458.267 1697.65 453.867 1693.38 448C1689.38 442.133 1687.25 435.067 1686.98 426.8C1686.98 424.667 1686.98 419.733 1686.98 412C1687.25 404.267 1687.38 394.933 1687.38 384C1687.65 373.067 1687.78 361.467 1687.78 349.2C1688.05 336.933 1688.18 325.067 1688.18 313.6C1688.18 302.133 1688.18 292.267 1688.18 284C1688.18 276.8 1687.25 269.867 1685.38 263.2C1683.78 256.267 1682.05 250.667 1680.18 246.4C1678.58 241.867 1677.78 239.6 1677.78 239.6C1680.18 239.067 1684.31 238.667 1690.18 238.4C1696.31 238.133 1703.11 238.267 1710.58 238.8C1718.05 239.333 1725.38 240.533 1732.58 242.4C1740.05 244.267 1746.31 247.2 1751.38 251.2C1756.71 255.2 1762.05 257.733 1767.38 258.8C1772.98 259.6 1777.38 259.067 1780.58 257.2C1789.91 251.067 1799.38 245.733 1808.98 241.2C1818.58 236.667 1827.91 233.867 1836.98 232.8C1841.51 232.267 1846.85 232.533 1852.98 233.6C1859.11 234.4 1865.11 236.4 1870.98 239.6C1877.11 242.8 1882.31 247.333 1886.58 253.2C1891.11 259.067 1893.91 266.533 1894.98 275.6C1896.85 291.067 1897.38 310 1896.58 332.4C1895.78 354.533 1895.51 381.467 1895.78 413.2ZM2159.13 391.6C2159.39 397.467 2159.79 404.667 2160.33 413.2C2161.13 421.733 2162.86 430 2165.53 438C2168.19 446 2172.46 452.4 2178.33 457.2C2171.66 461.733 2164.86 464.933 2157.93 466.8C2150.99 468.933 2144.19 469.467 2137.53 468.4C2135.66 467.867 2133.66 467.2 2131.53 466.4C2129.39 465.867 2126.46 465.067 2122.73 464C2116.59 462.133 2109.39 461.733 2101.13 462.8C2092.86 463.867 2084.19 465.2 2075.13 466.8C2066.33 468.667 2057.66 469.6 2049.13 469.6C2035.26 469.6 2021.39 467.2 2007.53 462.4C1993.66 457.333 1981.13 449.6 1969.93 439.2C1958.73 428.8 1950.19 415.6 1944.33 399.6C1938.46 383.6 1936.73 364.4 1939.13 342C1940.73 326.533 1945.13 312.4 1952.33 299.6C1959.53 286.533 1968.33 275.333 1978.73 266C1989.39 256.4 2000.59 249.067 2012.33 244C2024.33 238.667 2035.93 236.133 2047.13 236.4C2055.66 236.667 2062.19 236.933 2066.73 237.2C2071.53 237.467 2077.66 238.133 2085.13 239.2C2089.66 239.733 2095.39 239.067 2102.33 237.2C2109.26 235.333 2116.19 233.333 2123.13 231.2C2130.33 228.8 2136.46 227.6 2141.53 227.6C2149.26 227.333 2154.73 227.6 2157.93 228.4C2161.13 228.933 2163.79 229.467 2165.93 230C2164.33 234.8 2162.99 242 2161.93 251.6C2160.86 261.2 2160.06 272.133 2159.53 284.4C2159.26 296.4 2158.99 308.933 2158.73 322C2158.46 335.067 2158.33 347.6 2158.33 359.6C2158.59 371.6 2158.86 382.267 2159.13 391.6ZM2008.73 354.8C2009.26 368.133 2011.66 378.533 2015.93 386C2020.46 393.2 2025.79 398.267 2031.93 401.2C2038.33 404.133 2044.46 405.6 2050.33 405.6C2062.06 405.867 2070.73 401.333 2076.33 392C2081.93 382.667 2084.59 369.733 2084.33 353.2C2084.33 348.667 2083.79 343.333 2082.73 337.2C2081.93 331.067 2080.33 325.067 2077.93 319.2C2075.79 313.333 2072.73 308.4 2068.73 304.4C2064.99 300.4 2060.06 298.4 2053.93 298.4C2041.66 298.4 2030.86 302.933 2021.53 312C2012.46 321.067 2008.19 335.333 2008.73 354.8ZM2419.99 232C2420.52 244.267 2420.66 256.133 2420.39 267.6C2420.39 278.8 2420.39 287.2 2420.39 292.8C2420.39 295.733 2420.39 302.667 2420.39 313.6C2420.66 324.533 2420.79 337.733 2420.79 353.2C2421.06 368.667 2421.06 384.667 2420.79 401.2C2420.52 417.733 2419.86 433.067 2418.79 447.2C2417.72 462.667 2414.39 476.267 2408.79 488C2403.46 499.733 2395.59 508.4 2385.19 514C2374.79 519.6 2361.46 521.2 2345.19 518.8C2332.92 516.933 2323.59 513.2 2317.19 507.6C2311.06 502 2307.06 495.467 2305.19 488C2303.59 480.8 2303.59 473.333 2305.19 465.6C2307.06 458.133 2309.72 451.467 2313.19 445.6C2315.59 448.533 2318.79 451.733 2322.79 455.2C2327.06 458.4 2331.59 460.933 2336.39 462.8C2341.46 464.4 2346.26 464.667 2350.79 463.6C2353.72 462.8 2355.99 461.333 2357.59 459.2C2359.19 456.8 2359.72 454 2359.19 450.8C2358.66 447.6 2354.79 444 2347.59 440C2340.66 435.733 2331.59 433.867 2320.39 434.4C2316.12 434.667 2312.79 434.933 2310.39 435.2C2307.99 435.467 2305.19 435.6 2301.99 435.6C2283.59 435.6 2266.66 431.867 2251.19 424.4C2235.72 416.933 2223.46 405.467 2214.39 390C2205.32 374.533 2201.32 354.8 2202.39 330.8C2203.19 315.333 2206.92 301.467 2213.59 289.2C2220.26 276.667 2228.79 266.133 2239.19 257.6C2249.86 248.8 2261.06 242.267 2272.79 238C2284.79 233.467 2296.39 231.6 2307.59 232.4C2308.92 232.4 2311.59 232.8 2315.59 233.6C2319.59 234.4 2323.59 235.2 2327.59 236C2331.59 236.533 2334.26 236.933 2335.59 237.2C2344.92 238.8 2355.32 239.067 2366.79 238C2378.52 236.667 2388.52 235.2 2396.79 233.6C2402.12 232.8 2407.32 232.4 2412.39 232.4C2417.46 232.133 2419.99 232 2419.99 232ZM2301.19 302C2290.52 303.067 2282.52 307.067 2277.19 314C2272.12 320.933 2270.79 329.6 2273.19 340C2274.26 344.8 2276.79 349.6 2280.79 354.4C2285.06 358.933 2290.12 362.533 2295.99 365.2C2301.86 367.867 2307.72 368.933 2313.59 368.4C2319.46 367.867 2324.66 366.933 2329.19 365.6C2333.72 364 2337.32 360.8 2339.99 356C2342.66 351.2 2343.99 343.6 2343.99 333.2C2343.99 322.8 2341.86 315.333 2337.59 310.8C2333.59 306 2328.26 303.2 2321.59 302.4C2315.19 301.333 2308.39 301.2 2301.19 302ZM2654.77 363.6C2661.44 368.133 2665.71 374.667 2667.57 383.2C2669.71 391.467 2669.44 400.533 2666.77 410.4C2664.37 420.267 2659.44 429.733 2651.97 438.8C2644.51 447.6 2634.37 454.933 2621.57 460.8C2609.04 466.667 2593.84 469.733 2575.97 470C2561.04 470.267 2546.37 468.4 2531.97 464.4C2517.84 460.4 2504.91 454.267 2493.17 446C2481.71 437.733 2472.37 427.067 2465.17 414C2457.97 400.933 2453.97 385.333 2453.17 367.2C2452.91 363.467 2452.91 359.6 2453.17 355.6C2453.44 351.6 2453.71 347.467 2453.97 343.2C2453.97 342.133 2453.97 341.067 2453.97 340C2454.24 338.933 2454.51 337.867 2454.77 336.8C2457.44 320.8 2462.91 306.133 2471.17 292.8C2479.71 279.467 2490.11 268.133 2502.37 258.8C2514.64 249.467 2527.71 242.667 2541.57 238.4C2555.71 233.867 2569.57 232.267 2583.17 233.6C2604.24 235.733 2620.51 241.333 2631.97 250.4C2643.71 259.467 2651.31 270.667 2654.77 284C2658.51 297.067 2658.64 311.2 2655.17 326.4C2653.31 333.867 2649.04 341.333 2642.37 348.8C2635.97 356 2627.97 362.533 2618.37 368.4C2608.77 374 2598.51 378.4 2587.57 381.6C2576.91 384.533 2566.51 385.733 2556.37 385.2C2551.31 384.933 2548.64 386.533 2548.37 390C2548.11 393.2 2549.57 396.8 2552.77 400.8C2555.97 404.533 2560.24 407.067 2565.57 408.4C2578.11 411.067 2589.84 411.2 2600.77 408.8C2611.97 406.133 2620.51 402.533 2626.37 398C2631.17 394.267 2636.24 389.333 2641.57 383.2C2646.91 376.8 2651.31 370.267 2654.77 363.6ZM2567.17 323.2C2573.31 322.667 2578.64 320.8 2583.17 317.6C2587.97 314.133 2590.37 310.533 2590.37 306.8C2590.64 301.467 2589.31 297.2 2586.37 294C2583.71 290.533 2579.04 288.933 2572.37 289.2C2564.91 289.467 2557.71 290.533 2550.77 292.4C2543.84 294.267 2539.71 298.133 2538.37 304C2537.57 308 2538.77 311.467 2541.97 314.4C2545.17 317.333 2549.17 319.6 2553.97 321.2C2558.77 322.533 2563.17 323.2 2567.17 323.2ZM3170.18 292.4C3172.84 317.2 3171.64 339.2 3166.58 358.4C3161.78 377.6 3154.18 394.267 3143.78 408.4C3133.64 422.267 3121.64 433.733 3107.78 442.8C3093.91 451.6 3079.11 458.267 3063.38 462.8C3047.91 467.067 3032.58 469.2 3017.38 469.2C3002.18 469.2 2986.71 467.2 2970.98 463.2C2955.24 459.2 2940.31 452.933 2926.18 444.4C2912.31 435.867 2900.04 424.8 2889.38 411.2C2878.98 397.6 2871.24 381.467 2866.18 362.8C2861.11 343.867 2859.91 322 2862.58 297.2C2864.71 275.867 2870.04 256 2878.58 237.6C2887.11 218.933 2898.18 202.8 2911.78 189.2C2925.38 175.333 2940.98 164.667 2958.58 157.2C2976.18 149.467 2994.98 145.867 3014.98 146.4C3016.31 146.4 3018.31 145.467 3020.98 143.6C3023.64 141.467 3027.24 139.467 3031.78 137.6C3036.31 135.733 3041.78 135.067 3048.18 135.6C3060.18 136.667 3072.84 141.6 3086.18 150.4C3099.51 159.2 3112.18 170.933 3124.18 185.6C3136.18 200 3146.31 216.4 3154.58 234.8C3162.84 253.2 3168.04 272.4 3170.18 292.4ZM3018.58 395.2C3027.91 394.933 3036.71 393.6 3044.98 391.2C3053.51 388.8 3061.11 384.4 3067.78 378C3074.44 371.6 3079.78 362.533 3083.78 350.8C3088.04 339.067 3090.31 324 3090.58 305.6C3090.84 292.8 3088.04 280.4 3082.18 268.4C3076.31 256.4 3068.18 246.267 3057.78 238C3047.38 229.467 3035.51 224.533 3022.18 223.2C3007.78 221.6 2995.51 223.067 2985.38 227.6C2975.24 231.867 2966.84 238.267 2960.18 246.8C2953.78 255.067 2948.84 264.4 2945.38 274.8C2941.91 285.2 2939.78 295.733 2938.98 306.4C2937.38 324.8 2939.11 339.867 2944.18 351.6C2949.24 363.333 2956.04 372.4 2964.58 378.8C2973.11 385.2 2982.18 389.6 2991.78 392C3001.64 394.4 3010.58 395.467 3018.58 395.2ZM3331.96 232.4C3337.3 231.067 3342.23 232.4 3346.76 236.4C3351.3 240.4 3355.3 245.867 3358.76 252.8C3362.5 259.467 3365.56 266.4 3367.96 273.6C3370.36 280.533 3372.23 286.4 3373.56 291.2C3374.9 296 3375.56 298.4 3375.56 298.4C3375.56 298.4 3372.36 299.067 3365.96 300.4C3359.83 301.467 3352.1 303.733 3342.76 307.2C3333.7 310.4 3324.63 315.333 3315.56 322C3310.23 326 3305.16 330.8 3300.36 336.4C3295.56 342 3291.43 349.2 3287.96 358C3284.5 366.533 3281.96 377.867 3280.36 392C3279.56 399.2 3279.43 406.667 3279.96 414.4C3280.5 422.133 3280.76 428.667 3280.76 434C3281.03 438.8 3281.7 442.267 3282.76 444.4C3284.1 446.267 3285.16 447.867 3285.96 449.2C3282.5 452.4 3276.1 456 3266.76 460C3257.7 463.733 3247.7 465.6 3236.76 465.6C3226.1 465.6 3218.23 462.133 3213.16 455.2C3208.1 448.267 3205.56 438.667 3205.56 426.4C3205.56 423.467 3205.43 417.067 3205.16 407.2C3205.16 397.067 3205.03 384.933 3204.76 370.8C3204.76 356.667 3204.63 342 3204.36 326.8C3204.36 311.6 3204.23 297.467 3203.96 284.4C3203.96 271.067 3203.83 260.267 3203.56 252C3203.56 243.733 3203.56 239.6 3203.56 239.6C3206.23 239.067 3210.76 238.667 3217.16 238.4C3223.83 238.133 3231.03 238.4 3238.76 239.2C3246.5 240 3253.7 241.867 3260.36 244.8C3263.56 246.133 3267.83 247.467 3273.16 248.8C3278.76 249.867 3284.1 250.4 3289.16 250.4C3294.5 250.4 3298.36 249.6 3300.76 248C3305.83 244.267 3310.9 241.067 3315.96 238.4C3321.3 235.733 3326.63 233.733 3331.96 232.4ZM1247.4 916.2C1246.33 916.467 1244.73 917.933 1242.6 920.6C1240.73 923.267 1239.4 926.067 1238.6 929C1237.27 933.267 1237.67 936.733 1239.8 939.4C1245.4 946.067 1252.6 953.933 1261.4 963C1270.2 971.8 1279 980.2 1287.8 988.2C1296.87 996.2 1304.6 1002.33 1311 1006.6C1306.2 1019.4 1298.6 1029.67 1288.2 1037.4C1278.07 1044.87 1266.73 1048.47 1254.2 1048.2C1241.67 1047.93 1229.4 1042.33 1217.4 1031.4C1215.8 1029.8 1212.73 1026.33 1208.2 1021C1203.67 1015.4 1198.47 1008.87 1192.6 1001.4C1186.73 993.933 1180.87 986.467 1175 979C1169.13 971.533 1164.07 965 1159.8 959.4C1155.53 953.8 1152.87 950.333 1151.8 949C1146.73 942.333 1141.93 940.867 1137.4 944.6C1132.87 948.333 1130.07 956.067 1129 967.8C1128.47 974.733 1128.47 982.733 1129 991.8C1129.8 1000.6 1130.87 1008.47 1132.2 1015.4C1133.8 1022.33 1135.4 1026.47 1137 1027.8C1131.4 1032.07 1124.47 1036.07 1116.2 1039.8C1107.93 1043.53 1098.47 1045.8 1087.8 1046.6C1083.8 1046.87 1079.13 1045.8 1073.8 1043.4C1068.47 1041 1063.8 1037.13 1059.8 1031.8C1056.07 1026.2 1054.07 1019.27 1053.8 1011C1053.8 1008.87 1053.67 1003.27 1053.4 994.2C1053.4 985.133 1053.27 974.067 1053 961C1053 947.667 1053 933.933 1053 919.8C1053 905.667 1052.87 892.333 1052.6 879.8C1052.6 867.267 1052.6 857.133 1052.6 849.4C1052.6 841.667 1052.6 837.8 1052.6 837.8C1052.6 822.067 1052.2 809 1051.4 798.6C1050.6 787.933 1047.4 779.8 1041.8 774.2C1036.73 769.133 1032.87 761.8 1030.2 752.2C1027.8 742.6 1026.73 733.533 1027 725C1028.07 725.267 1031.27 725.667 1036.6 726.2C1041.93 726.467 1047.13 726.867 1052.2 727.4C1055.67 727.4 1060.6 727.4 1067 727.4C1073.67 727.133 1080.73 726.867 1088.2 726.6C1095.67 726.333 1102.6 726.2 1109 726.2C1115.4 725.933 1120.2 725.667 1123.4 725.4C1125.8 725.4 1130.2 725.4 1136.6 725.4C1143.27 725.133 1151 725 1159.8 725C1168.6 725 1177.53 725.133 1186.6 725.4C1195.67 725.4 1204.07 725.667 1211.8 726.2C1219.53 726.733 1225.53 727.4 1229.8 728.2C1247.4 731.4 1261 737.267 1270.6 745.8C1280.2 754.333 1287 764.6 1291 776.6C1295.27 788.6 1297.8 801.667 1298.6 815.8C1299.13 827.8 1297.8 840.333 1294.6 853.4C1291.4 866.467 1285.93 878.6 1278.2 889.8C1270.47 901 1260.2 909.8 1247.4 916.2ZM1129.8 830.2C1129.8 838.733 1131.8 845.133 1135.8 849.4C1139.8 853.4 1143.53 855.8 1147 856.6C1151.8 857.667 1157.93 857.8 1165.4 857C1172.87 855.933 1180.33 854.067 1187.8 851.4C1195.27 848.467 1201.53 844.733 1206.6 840.2C1211.93 835.667 1214.6 830.467 1214.6 824.6C1214.6 816.867 1211.4 811 1205 807C1198.6 802.733 1190.47 800.067 1180.6 799C1171 797.933 1161.4 798.2 1151.8 799.8C1144.33 800.867 1138.73 804.2 1135 809.8C1131.27 815.4 1129.53 822.2 1129.8 830.2ZM1544.62 942.6C1551.28 947.133 1555.55 953.667 1557.42 962.2C1559.55 970.467 1559.28 979.533 1556.62 989.4C1554.22 999.267 1549.28 1008.73 1541.82 1017.8C1534.35 1026.6 1524.22 1033.93 1511.42 1039.8C1498.88 1045.67 1483.68 1048.73 1465.82 1049C1450.88 1049.27 1436.22 1047.4 1421.82 1043.4C1407.68 1039.4 1394.75 1033.27 1383.02 1025C1371.55 1016.73 1362.22 1006.07 1355.02 993C1347.82 979.933 1343.82 964.333 1343.02 946.2C1342.75 942.467 1342.75 938.6 1343.02 934.6C1343.28 930.6 1343.55 926.467 1343.82 922.2C1343.82 921.133 1343.82 920.067 1343.82 919C1344.08 917.933 1344.35 916.867 1344.62 915.8C1347.28 899.8 1352.75 885.133 1361.02 871.8C1369.55 858.467 1379.95 847.133 1392.22 837.8C1404.48 828.467 1417.55 821.667 1431.42 817.4C1445.55 812.867 1459.42 811.267 1473.02 812.6C1494.08 814.733 1510.35 820.333 1521.82 829.4C1533.55 838.467 1541.15 849.667 1544.62 863C1548.35 876.067 1548.48 890.2 1545.02 905.4C1543.15 912.867 1538.88 920.333 1532.22 927.8C1525.82 935 1517.82 941.533 1508.22 947.4C1498.62 953 1488.35 957.4 1477.42 960.6C1466.75 963.533 1456.35 964.733 1446.22 964.2C1441.15 963.933 1438.48 965.533 1438.22 969C1437.95 972.2 1439.42 975.8 1442.62 979.8C1445.82 983.533 1450.08 986.067 1455.42 987.4C1467.95 990.067 1479.68 990.2 1490.62 987.8C1501.82 985.133 1510.35 981.533 1516.22 977C1521.02 973.267 1526.08 968.333 1531.42 962.2C1536.75 955.8 1541.15 949.267 1544.62 942.6ZM1457.02 902.2C1463.15 901.667 1468.48 899.8 1473.02 896.6C1477.82 893.133 1480.22 889.533 1480.22 885.8C1480.48 880.467 1479.15 876.2 1476.22 873C1473.55 869.533 1468.88 867.933 1462.22 868.2C1454.75 868.467 1447.55 869.533 1440.62 871.4C1433.68 873.267 1429.55 877.133 1428.22 883C1427.42 887 1428.62 890.467 1431.82 893.4C1435.02 896.333 1439.02 898.6 1443.82 900.2C1448.62 901.533 1453.02 902.2 1457.02 902.2ZM1699.86 811.8C1723.6 809.933 1743.6 813.933 1759.86 823.8C1776.13 833.4 1788.53 846.867 1797.06 864.2C1805.6 881.267 1810 900.2 1810.26 921C1810.8 940.2 1808 957.267 1801.86 972.2C1795.73 986.867 1787.33 999.4 1776.66 1009.8C1766 1019.93 1754 1027.67 1740.66 1033C1727.6 1038.33 1714.13 1041 1700.26 1041C1697.33 1041 1693.46 1041.4 1688.66 1042.2C1684.13 1042.73 1680.4 1044.2 1677.46 1046.6C1675.6 1048.47 1674.26 1050.47 1673.46 1052.6C1672.93 1054.73 1672.8 1057.27 1673.06 1060.2C1673.6 1065 1674.66 1068.33 1676.26 1070.2C1678.13 1072.33 1679.73 1074.6 1681.06 1077C1678.13 1080.2 1674 1083.67 1668.66 1087.4C1663.33 1091.13 1656.8 1094.07 1649.06 1096.2C1641.6 1098.33 1632.66 1098.6 1622.26 1097C1615.86 1095.93 1610.26 1091.8 1605.46 1084.6C1600.66 1077.4 1598.13 1067.67 1597.86 1055.4L1596.66 869.4C1596.66 854.467 1595.73 842.333 1593.86 833C1592 823.4 1591.06 818.6 1591.06 818.6C1594.53 817.533 1600 816.6 1607.46 815.8C1615.2 815 1623.2 815.533 1631.46 817.4C1634.66 818.2 1638.66 819.133 1643.46 820.2C1648.53 821 1654 821 1659.86 820.2C1667.6 819.4 1675.33 817.933 1683.06 815.8C1690.8 813.4 1696.4 812.067 1699.86 811.8ZM1707.46 978.2C1716 978.2 1724 973.8 1731.46 965C1738.93 955.933 1742.66 943.267 1742.66 927C1742.66 916.067 1740.8 906.867 1737.06 899.4C1733.6 891.667 1729.2 885.933 1723.86 882.2C1718.53 878.2 1713.33 876.2 1708.26 876.2C1703.2 876.2 1698 876.6 1692.66 877.4C1687.6 878.2 1683.06 881.267 1679.06 886.6C1675.33 891.933 1672.93 901.4 1671.86 915C1670.53 932.6 1671.6 945.933 1675.06 955C1678.8 964.067 1683.73 970.2 1689.86 973.4C1696 976.6 1701.86 978.2 1707.46 978.2ZM1849.03 1010.2C1849.03 1008.07 1849.03 1002.33 1849.03 993C1849.03 983.4 1849.03 971.533 1849.03 957.4C1849.03 943.267 1848.9 927.8 1848.63 911C1848.63 893.933 1848.63 876.733 1848.63 859.4C1848.63 842.067 1848.5 825.667 1848.23 810.2C1848.23 794.467 1848.1 780.867 1847.83 769.4C1847.57 758.467 1846.63 749.4 1845.03 742.2C1843.43 734.733 1842.5 730.2 1842.23 728.6C1845.43 728.067 1850.23 727.933 1856.63 728.2C1863.03 728.2 1870.1 729 1877.83 730.6C1885.83 731.933 1893.43 734.2 1900.63 737.4C1907.83 740.333 1913.83 744.6 1918.63 750.2C1923.43 755.533 1925.97 762.333 1926.23 770.6C1926.5 775.667 1926.63 784.6 1926.63 797.4C1926.9 809.933 1927.03 824.733 1927.03 841.8C1927.3 858.6 1927.57 875.933 1927.83 893.8C1928.1 911.4 1928.23 928.067 1928.23 943.8C1928.5 959.533 1928.63 972.733 1928.63 983.4C1928.9 993.8 1929.03 999.933 1929.03 1001.8C1929.03 1007.4 1930.5 1012.87 1933.43 1018.2C1936.63 1023.27 1939.97 1026.47 1943.43 1027.8C1941.83 1029.93 1938.23 1032.73 1932.63 1036.2C1927.03 1039.67 1920.5 1042.87 1913.03 1045.8C1905.83 1048.73 1898.5 1050.6 1891.03 1051.4C1884.9 1051.93 1878.5 1050.47 1871.83 1047C1865.43 1043.8 1859.97 1039 1855.43 1032.6C1851.17 1026.2 1849.03 1018.73 1849.03 1010.2ZM2196.24 970.6C2196.5 976.467 2196.9 983.667 2197.44 992.2C2198.24 1000.73 2199.97 1009 2202.64 1017C2205.3 1025 2209.57 1031.4 2215.44 1036.2C2208.77 1040.73 2201.97 1043.93 2195.04 1045.8C2188.1 1047.93 2181.3 1048.47 2174.64 1047.4C2172.77 1046.87 2170.77 1046.2 2168.64 1045.4C2166.5 1044.87 2163.57 1044.07 2159.84 1043C2153.7 1041.13 2146.5 1040.73 2138.24 1041.8C2129.97 1042.87 2121.3 1044.2 2112.24 1045.8C2103.44 1047.67 2094.77 1048.6 2086.24 1048.6C2072.37 1048.6 2058.5 1046.2 2044.64 1041.4C2030.77 1036.33 2018.24 1028.6 2007.04 1018.2C1995.84 1007.8 1987.3 994.6 1981.44 978.6C1975.57 962.6 1973.84 943.4 1976.24 921C1977.84 905.533 1982.24 891.4 1989.44 878.6C1996.64 865.533 2005.44 854.333 2015.84 845C2026.5 835.4 2037.7 828.067 2049.44 823C2061.44 817.667 2073.04 815.133 2084.24 815.4C2092.77 815.667 2099.3 815.933 2103.84 816.2C2108.64 816.467 2114.77 817.133 2122.24 818.2C2126.77 818.733 2132.5 818.067 2139.44 816.2C2146.37 814.333 2153.3 812.333 2160.24 810.2C2167.44 807.8 2173.57 806.6 2178.64 806.6C2186.37 806.333 2191.84 806.6 2195.04 807.4C2198.24 807.933 2200.9 808.467 2203.04 809C2201.44 813.8 2200.1 821 2199.04 830.6C2197.97 840.2 2197.17 851.133 2196.64 863.4C2196.37 875.4 2196.1 887.933 2195.84 901C2195.57 914.067 2195.44 926.6 2195.44 938.6C2195.7 950.6 2195.97 961.267 2196.24 970.6ZM2045.84 933.8C2046.37 947.133 2048.77 957.533 2053.04 965C2057.57 972.2 2062.9 977.267 2069.04 980.2C2075.44 983.133 2081.57 984.6 2087.44 984.6C2099.17 984.867 2107.84 980.333 2113.44 971C2119.04 961.667 2121.7 948.733 2121.44 932.2C2121.44 927.667 2120.9 922.333 2119.84 916.2C2119.04 910.067 2117.44 904.067 2115.04 898.2C2112.9 892.333 2109.84 887.4 2105.84 883.4C2102.1 879.4 2097.17 877.4 2091.04 877.4C2078.77 877.4 2067.97 881.933 2058.64 891C2049.57 900.067 2045.3 914.333 2045.84 933.8ZM2434.91 870.2C2433.85 875.8 2431.45 881 2427.71 885.8C2423.98 890.6 2419.58 894.6 2414.51 897.8C2409.71 900.733 2405.05 902.333 2400.51 902.6C2395.98 902.867 2392.25 901.267 2389.31 897.8C2394.38 894.333 2395.58 891 2392.91 887.8C2390.51 884.6 2386.38 882.067 2380.51 880.2C2374.65 878.333 2368.91 877.8 2363.31 878.6C2349.45 880.733 2339.18 886.733 2332.51 896.6C2325.85 906.2 2321.58 917.267 2319.71 929.8C2318.38 940.467 2319.45 950.067 2322.91 958.6C2326.65 966.867 2331.71 973.533 2338.11 978.6C2344.78 983.4 2351.98 985.933 2359.71 986.2C2377.05 986.467 2391.45 983.933 2402.91 978.6C2414.38 973.267 2423.31 967.133 2429.71 960.2C2436.38 953 2440.91 947.133 2443.31 942.6C2449.71 947.133 2453.45 953.667 2454.51 962.2C2455.58 970.733 2454.25 979.933 2450.51 989.8C2446.78 999.667 2440.91 1009.13 2432.91 1018.2C2424.91 1027.27 2415.18 1034.73 2403.71 1040.6C2392.25 1046.2 2379.18 1049 2364.51 1049C2356.78 1049 2347.58 1048.07 2336.91 1046.2C2326.25 1044.33 2315.31 1040.87 2304.11 1035.8C2293.18 1030.73 2283.05 1023.4 2273.71 1013.8C2264.65 1004.2 2257.58 991.8 2252.51 976.6C2247.71 961.4 2246.25 942.733 2248.11 920.6C2249.45 903.533 2253.98 888.467 2261.71 875.4C2269.71 862.067 2279.45 850.867 2290.91 841.8C2302.38 832.467 2314.38 825.4 2326.91 820.6C2339.71 815.533 2351.85 812.867 2363.31 812.6C2374.78 812.333 2385.18 814.067 2394.51 817.8C2403.85 821.533 2411.71 826.467 2418.11 832.6C2424.51 838.467 2429.18 844.733 2432.11 851.4C2435.05 858.067 2435.98 864.333 2434.91 870.2ZM2688.37 942.6C2695.03 947.133 2699.3 953.667 2701.17 962.2C2703.3 970.467 2703.03 979.533 2700.37 989.4C2697.97 999.267 2693.03 1008.73 2685.57 1017.8C2678.1 1026.6 2667.97 1033.93 2655.17 1039.8C2642.63 1045.67 2627.43 1048.73 2609.57 1049C2594.63 1049.27 2579.97 1047.4 2565.57 1043.4C2551.43 1039.4 2538.5 1033.27 2526.77 1025C2515.3 1016.73 2505.97 1006.07 2498.77 993C2491.57 979.933 2487.57 964.333 2486.77 946.2C2486.5 942.467 2486.5 938.6 2486.77 934.6C2487.03 930.6 2487.3 926.467 2487.57 922.2C2487.57 921.133 2487.57 920.067 2487.57 919C2487.83 917.933 2488.1 916.867 2488.37 915.8C2491.03 899.8 2496.5 885.133 2504.77 871.8C2513.3 858.467 2523.7 847.133 2535.97 837.8C2548.23 828.467 2561.3 821.667 2575.17 817.4C2589.3 812.867 2603.17 811.267 2616.77 812.6C2637.83 814.733 2654.1 820.333 2665.57 829.4C2677.3 838.467 2684.9 849.667 2688.37 863C2692.1 876.067 2692.23 890.2 2688.77 905.4C2686.9 912.867 2682.63 920.333 2675.97 927.8C2669.57 935 2661.57 941.533 2651.97 947.4C2642.37 953 2632.1 957.4 2621.17 960.6C2610.5 963.533 2600.1 964.733 2589.97 964.2C2584.9 963.933 2582.23 965.533 2581.97 969C2581.7 972.2 2583.17 975.8 2586.37 979.8C2589.57 983.533 2593.83 986.067 2599.17 987.4C2611.7 990.067 2623.43 990.2 2634.37 987.8C2645.57 985.133 2654.1 981.533 2659.97 977C2664.77 973.267 2669.83 968.333 2675.17 962.2C2680.5 955.8 2684.9 949.267 2688.37 942.6ZM2600.77 902.2C2606.9 901.667 2612.23 899.8 2616.77 896.6C2621.57 893.133 2623.97 889.533 2623.97 885.8C2624.23 880.467 2622.9 876.2 2619.97 873C2617.3 869.533 2612.63 867.933 2605.97 868.2C2598.5 868.467 2591.3 869.533 2584.37 871.4C2577.43 873.267 2573.3 877.133 2571.97 883C2571.17 887 2572.37 890.467 2575.57 893.4C2578.77 896.333 2582.77 898.6 2587.57 900.2C2592.37 901.533 2596.77 902.2 2600.77 902.2ZM3036.17 813.4C3054.57 815.8 3067.9 821.133 3076.17 829.4C3084.7 837.667 3089.5 847.4 3090.57 858.6C3091.9 869.8 3090.7 881.267 3086.97 893C3084.84 899.667 3081.64 908.2 3077.37 918.6C3073.37 928.733 3069.1 939.133 3064.57 949.8C3060.3 960.467 3056.3 970.067 3052.57 978.6C3048.84 986.867 3046.3 992.733 3044.97 996.2C3040.7 1006.07 3035.64 1016.6 3029.77 1027.8C3023.9 1038.73 3017.37 1049 3010.17 1058.6C3003.24 1068.2 2995.9 1076.07 2988.17 1082.2C2980.7 1088.33 2973.37 1091.4 2966.17 1091.4C2956.57 1091.4 2948.7 1089 2942.57 1084.2C2936.7 1079.4 2932.3 1073.4 2929.37 1066.2C2926.44 1059.27 2924.57 1052.47 2923.77 1045.8C2930.7 1047.67 2937.1 1047.53 2942.97 1045.4C2948.84 1043.53 2953.9 1040.73 2958.17 1037C2962.17 1033.27 2964.57 1029 2965.37 1024.2C2966.44 1019.4 2966.7 1015.13 2966.17 1011.4C2964.84 996.467 2960.7 980.333 2953.77 963L2894.97 817.4C2898.97 816.867 2904.17 816.2 2910.57 815.4C2917.24 814.333 2924.17 814.2 2931.37 815C2938.84 815.533 2945.77 817.533 2952.17 821C2958.84 824.2 2964.3 829.667 2968.57 837.4C2970.17 840.067 2972.04 844.2 2974.17 849.8C2976.57 855.133 2978.97 860.867 2981.37 867C2984.04 872.867 2986.17 877.933 2987.77 882.2C2990.7 888.6 2993.77 893.8 2996.97 897.8C3000.44 901.533 3003.9 903.533 3007.37 903.8C3010.3 904.067 3013.24 903 3016.17 900.6C3019.1 897.933 3021.5 894.6 3023.37 890.6C3024.97 886.867 3026.84 881.267 3028.97 873.8C3031.1 866.333 3032.84 860.067 3034.17 855C3036.57 845.667 3037.77 837.667 3037.77 831C3038.04 824.333 3037.5 818.467 3036.17 813.4ZM3345.08 921C3347.48 943.4 3345.75 962.6 3339.88 978.6C3334.02 994.6 3325.35 1007.8 3313.88 1018.2C3302.68 1028.6 3290.02 1036.33 3275.88 1041.4C3262.02 1046.2 3248.15 1048.6 3234.28 1048.6C3220.68 1048.6 3206.82 1046.2 3192.68 1041.4C3178.82 1036.33 3166.28 1028.6 3155.08 1018.2C3144.15 1007.8 3135.62 994.6 3129.48 978.6C3123.62 962.6 3121.88 943.4 3124.28 921C3126.68 900.467 3132.82 882.467 3142.68 867C3152.82 851.533 3165.62 839.4 3181.08 830.6C3196.82 821.533 3214.02 816.467 3232.68 815.4C3233.75 815.133 3234.82 814.333 3235.88 813C3237.22 811.4 3239.35 810.067 3242.28 809C3245.48 807.667 3250.28 807.267 3256.68 807.8C3271.88 812.067 3285.75 819.4 3298.28 829.8C3310.82 840.2 3321.22 853.133 3329.48 868.6C3338.02 884.067 3343.22 901.533 3345.08 921ZM3230.68 984.6C3239.22 984.6 3246.55 982.6 3252.68 978.6C3258.82 974.6 3263.75 969.533 3267.48 963.4C3271.22 957 3273.88 950.333 3275.48 943.4C3277.35 936.467 3278.28 930.2 3278.28 924.6C3278.28 913.133 3276.42 904.2 3272.68 897.8C3268.95 891.4 3260.42 885.667 3247.08 880.6C3243.35 879 3240.82 876.867 3239.48 874.2C3238.15 871.533 3236.15 870.067 3233.48 869.8C3224.68 868.733 3217.22 871.133 3211.08 877C3204.95 882.867 3200.28 890.733 3197.08 900.6C3193.88 910.467 3192.28 921.133 3192.28 932.6C3192.28 944.067 3194.42 953.667 3198.68 961.4C3203.22 969.133 3208.42 975 3214.28 979C3220.42 982.733 3225.88 984.6 3230.68 984.6ZM3583.38 992.2C3583.38 994.6 3583.78 998.2 3584.58 1003C3585.38 1007.8 3586.45 1012.73 3587.78 1017.8C3589.38 1022.87 3590.98 1027.4 3592.58 1031.4C3594.18 1035.13 3595.78 1037.4 3597.38 1038.2C3593.65 1042.73 3587.65 1046.33 3579.38 1049C3571.11 1051.93 3562.85 1052.47 3554.58 1050.6C3548.18 1048.73 3542.45 1047 3537.38 1045.4C3532.31 1043.8 3525.38 1043.13 3516.58 1043.4C3510.18 1043.67 3503.78 1044.33 3497.38 1045.4C3491.25 1046.47 3484.98 1047.67 3478.58 1049C3475.38 1049.53 3469.78 1049.67 3461.78 1049.4C3454.05 1049.4 3445.51 1048.47 3436.18 1046.6C3427.11 1044.73 3418.71 1041.53 3410.98 1037C3400.85 1030.87 3393.25 1021.93 3388.18 1010.2C3383.11 998.467 3380.18 986.467 3379.38 974.2C3379.38 971.267 3379.25 965.533 3378.98 957C3378.98 948.467 3378.85 938.333 3378.58 926.6C3378.58 914.867 3378.45 902.733 3378.18 890.2C3378.18 877.667 3378.05 866.067 3377.78 855.4C3377.78 844.467 3377.78 835.667 3377.78 829C3377.78 822.067 3377.78 818.6 3377.78 818.6C3380.18 818.333 3384.18 818.067 3389.78 817.8C3395.65 817.267 3402.05 817.267 3408.98 817.8C3415.91 818.333 3422.58 819.667 3428.98 821.8C3435.65 823.667 3441.25 826.733 3445.78 831C3450.58 835.267 3453.38 841 3454.18 848.2C3454.71 854.067 3455.11 859.4 3455.38 864.2C3455.65 869 3455.78 874.333 3455.78 880.2C3455.78 885.8 3455.51 892.867 3454.98 901.4C3454.71 909.667 3454.31 920.2 3453.78 933C3453.25 943.4 3452.98 952.333 3452.98 959.8C3453.25 967.267 3455.11 972.867 3458.58 976.6C3462.05 980.333 3468.18 981.933 3476.98 981.4C3482.85 981.133 3487.65 978.867 3491.38 974.6C3495.38 970.067 3498.58 964.6 3500.98 958.2C3503.38 951.8 3504.98 945.267 3505.78 938.6C3506.85 931.933 3507.38 926.067 3507.38 921C3507.38 919.933 3507.25 915.8 3506.98 908.6C3506.98 901.4 3506.85 892.867 3506.58 883C3506.58 872.867 3506.45 862.867 3506.18 853C3506.18 843.133 3506.18 835 3506.18 828.6C3506.18 821.933 3506.18 818.6 3506.18 818.6C3508.58 818.333 3512.58 818.333 3518.18 818.6C3523.78 818.6 3530.05 819.133 3536.98 820.2C3543.91 821.267 3550.71 823.133 3557.38 825.8C3564.05 828.467 3569.65 832.2 3574.18 837C3578.98 841.533 3581.78 847.4 3582.58 854.6C3584.18 870.067 3584.45 889 3583.38 911.4C3582.58 933.533 3582.58 960.467 3583.38 992.2ZM3757.74 811.4C3763.08 810.067 3768.01 811.4 3772.54 815.4C3777.08 819.4 3781.08 824.867 3784.54 831.8C3788.28 838.467 3791.34 845.4 3793.74 852.6C3796.14 859.533 3798.01 865.4 3799.34 870.2C3800.68 875 3801.34 877.4 3801.34 877.4C3801.34 877.4 3798.14 878.067 3791.74 879.4C3785.61 880.467 3777.88 882.733 3768.54 886.2C3759.48 889.4 3750.41 894.333 3741.34 901C3736.01 905 3730.94 909.8 3726.14 915.4C3721.34 921 3717.21 928.2 3713.74 937C3710.28 945.533 3707.74 956.867 3706.14 971C3705.34 978.2 3705.21 985.667 3705.74 993.4C3706.28 1001.13 3706.54 1007.67 3706.54 1013C3706.81 1017.8 3707.48 1021.27 3708.54 1023.4C3709.88 1025.27 3710.94 1026.87 3711.74 1028.2C3708.28 1031.4 3701.88 1035 3692.54 1039C3683.48 1042.73 3673.48 1044.6 3662.54 1044.6C3651.88 1044.6 3644.01 1041.13 3638.94 1034.2C3633.88 1027.27 3631.34 1017.67 3631.34 1005.4C3631.34 1002.47 3631.21 996.067 3630.94 986.2C3630.94 976.067 3630.81 963.933 3630.54 949.8C3630.54 935.667 3630.41 921 3630.14 905.8C3630.14 890.6 3630.01 876.467 3629.74 863.4C3629.74 850.067 3629.61 839.267 3629.34 831C3629.34 822.733 3629.34 818.6 3629.34 818.6C3632.01 818.067 3636.54 817.667 3642.94 817.4C3649.61 817.133 3656.81 817.4 3664.54 818.2C3672.28 819 3679.48 820.867 3686.14 823.8C3689.34 825.133 3693.61 826.467 3698.94 827.8C3704.54 828.867 3709.88 829.4 3714.94 829.4C3720.28 829.4 3724.14 828.6 3726.54 827C3731.61 823.267 3736.68 820.067 3741.74 817.4C3747.08 814.733 3752.41 812.733 3757.74 811.4Z" fill="#7E84A3"/>
    <path d="M3998.43 1702.74C3963.77 1748.97 3906.83 1761.29 3855.9 1777.42C3734.22 1815.91 3610.11 1847.6 3486.84 1881.55C3472.54 1886.26 3457.01 1886.58 3442.49 1882.49C3427.97 1878.4 3415.21 1870.09 3406.03 1858.77C3395.55 1847.74 3388.85 1834 3386.82 1819.35C3384.78 1804.69 3387.49 1789.8 3394.6 1776.61C3397.89 1771.8 3399.71 1766.23 3399.86 1760.52C3388.24 1703.41 3375.85 1646.45 3362.8 1585.9C3298.05 1597.84 3230.02 1613.98 3160.92 1622.48C2931.51 1650.7 2702.33 1682.49 2471.98 1701.32C2009.39 1739.17 1545.91 1719.95 1082.74 1706.77C882.376 1701.08 682.946 1683.67 492.367 1616.88C181.191 1507.8 21.6663 1291.63 1.70465 987.03C-21.6872 629.81 197.722 353.354 533.164 228.473C632.273 191.577 733.265 185.527 829.453 240.508C846.331 249.694 861.744 261.067 875.228 274.299C879.946 278.759 883.611 284.108 885.973 289.986C888.34 295.869 889.35 302.153 888.949 308.429C885.854 313.994 881.418 318.808 876 322.487C870.577 326.17 864.32 328.617 857.719 329.637C807.603 336.854 756.992 340.621 706.29 340.899C530.695 336.54 399.88 414.916 293.142 535.601C115.011 736.945 92.4936 1068.21 239.738 1280.61C308.594 1379.97 408.849 1440.36 523.631 1483.35C690.641 1546.34 868.441 1580.37 1048.4 1583.81C1334.45 1589.01 1620.83 1587.74 1906.88 1581.66C2139.64 1576.71 2372.85 1567.91 2604.54 1547.67C2850.31 1526.19 3094.52 1489.05 3339.46 1459.17C3362.6 1456.34 3372.9 1447.2 3372.29 1423.99C3371.34 1388.6 3373.59 1353.19 3374.83 1317.8C3375.96 1285.05 3387.46 1257.12 3422.21 1244.26C3437.41 1238.4 3454.2 1237.19 3470.18 1240.81C3486.16 1244.43 3500.51 1252.69 3511.2 1264.4C3645.58 1388.9 3793.37 1499.99 3952.18 1595.88C3972.07 1607.96 3983.25 1632.71 3998.48 1651.6L3998.43 1702.74ZM3770.97 1652.66L3511.83 1459.72V1728.43L3770.97 1652.66Z" fill="#7E84A3"/>
    </svg>
    