<svg width="4173" height="1886" viewBox="0 0 4173 1886" fill="none" xmlns="http://www.w3.org/2000/svg">
    <g clip-path="url(#clip0_106_2)">
    <path d="M1020.05 78L1011.77 366.574L1018.87 539.055H936L943.103 377.851L936 94.5847L1020.05 78ZM1273.26 371.217C1273.26 340.702 1270.89 320.358 1266.16 310.186C1261.42 300.014 1250.37 294.928 1233.01 294.928C1215.64 294.928 1195.91 302.667 1173.81 318.146V366.574L1180.33 522.47L1101.01 539.055L1108.11 377.851C1106.53 318.589 1102.19 265.517 1095.09 218.638L1166.71 201.39C1169.47 227.041 1171.45 252.029 1172.63 276.353C1178.55 267.508 1185.26 258.884 1192.76 250.481C1200.25 241.636 1212.09 231.906 1228.27 221.292C1244.45 210.236 1261.42 204.707 1279.18 204.707C1297.33 204.707 1312.53 212.668 1324.76 228.589C1336.99 244.068 1343.11 265.297 1343.11 292.274L1339.56 366.574L1346.07 525.787L1266.16 542.372L1273.26 371.217ZM1434.52 217.975V145.666L1514.44 128.417L1506.74 217.975H1578.36L1571.85 272.373H1504.37L1501.41 411.021C1501.41 431.809 1503.19 445.74 1506.74 452.814C1510.29 459.448 1516.8 462.765 1526.27 462.765C1535.75 462.765 1548.37 460.334 1564.16 455.468L1567.71 502.568C1541.66 526.891 1518.78 539.055 1499.05 539.055C1479.31 539.055 1463.14 531.094 1450.51 515.173C1437.88 498.811 1431.57 477.582 1431.57 451.487L1435.12 377.188L1434.52 272.373H1393.68L1400.19 217.975H1434.52ZM1728.4 471.389C1739.85 471.389 1751.88 468.072 1764.51 461.438C1777.14 454.804 1787 448.17 1794.11 441.537L1804.76 431.586L1831.99 468.736C1828.05 476.256 1821.93 484.88 1813.64 494.608C1805.35 504.336 1796.87 512.742 1788.19 519.816C1779.9 526.45 1768.65 532.644 1754.45 538.391C1740.63 543.698 1726.23 546.352 1711.24 546.352C1679.27 546.352 1653.23 532.861 1633.1 505.885C1612.97 478.464 1602.91 443.304 1602.91 400.407C1602.91 346.451 1616.92 299.13 1644.94 258.442C1672.96 217.754 1705.71 197.41 1743.2 197.41C1772.01 197.41 1794.31 206.476 1810.09 224.609C1826.27 242.742 1834.36 268.171 1834.36 300.898C1834.36 320.358 1831.4 342.471 1825.48 367.237L1813.64 381.168L1665.66 396.426C1672.37 446.403 1693.28 471.389 1728.4 471.389ZM1728.4 265.739C1711.04 265.739 1696.44 273.699 1684.6 289.621C1672.76 305.1 1665.86 325.002 1663.88 349.326L1764.51 335.395C1765.69 325.222 1766.29 316.82 1766.29 310.186C1766.29 280.555 1753.66 265.739 1728.4 265.739ZM1865.31 604.73C1865.31 565.813 1897.67 535.297 1962.39 513.183C1947 504.336 1939.3 492.84 1939.3 478.686C1939.3 472.939 1941.28 467.186 1945.22 461.438C1949.17 455.691 1954.89 449.72 1962.39 443.527V438.22C1933.97 438.22 1911.28 429.373 1894.31 411.684C1877.74 393.996 1869.45 370.331 1869.45 340.702C1869.45 302.225 1883.46 268.834 1911.48 240.53C1939.5 211.783 1972.65 197.41 2010.93 197.41C2020.79 197.41 2035.2 199.621 2054.14 204.044C2073.08 208.466 2091.63 210.678 2109.78 210.678H2155.36L2149.44 268.392L2105.04 262.422C2108.99 275.248 2110.96 289.842 2110.96 306.205C2110.96 322.569 2107.41 338.933 2100.31 355.296C2093.6 371.217 2085.31 384.045 2075.45 393.773C2065.98 403.501 2056.31 412.125 2046.44 419.645C2036.97 426.719 2028.68 433.135 2021.58 438.883C2014.87 444.19 2011.52 449.057 2011.52 453.478C2011.52 461.879 2019.41 469.176 2035.2 475.369C2077.02 494.385 2105.24 510.529 2119.84 523.797C2134.84 537.065 2142.34 553.426 2142.34 572.887C2142.34 605.616 2127.54 632.37 2097.94 653.157C2068.74 674.386 2033.81 685 1993.17 685C1952.52 685 1920.95 677.703 1898.46 663.108C1876.36 648.514 1865.31 629.053 1865.31 604.73ZM2044.07 326.107C2044.07 304.437 2039.73 288.515 2031.05 278.343C2022.37 268.171 2008.76 263.085 1990.21 263.085C1954.3 263.085 1936.34 282.987 1936.34 322.79C1936.34 362.153 1955.48 381.832 1993.76 381.832C2027.3 381.832 2044.07 363.257 2044.07 326.107ZM2065.38 582.838C2065.38 574.878 2061.63 567.357 2054.14 560.283C2046.64 553.649 2033.22 545.689 2013.89 536.401C1985.08 545.248 1965.15 553.426 1954.1 560.946C1943.45 568.467 1938.12 577.754 1938.12 588.809C1938.12 599.864 1943.45 608.71 1954.1 615.344C1965.15 622.419 1980.34 625.958 1999.68 625.958C2019.01 625.958 2034.8 621.978 2047.03 614.018C2059.27 606.057 2065.38 595.665 2065.38 582.838ZM2180.11 218.638L2251.73 201.39C2255.28 235.444 2257.65 267.729 2258.84 298.245C2294.74 235.886 2328.48 204.707 2360.06 204.707L2353.55 308.196C2330.66 308.196 2312.5 310.628 2299.09 315.493C2286.06 319.915 2272.65 328.982 2258.84 342.692V366.574L2265.35 522.47L2186.03 539.055L2193.13 377.851C2191.55 318.589 2187.21 265.517 2180.11 218.638ZM2456.81 539.055C2433.52 539.055 2414.38 530.871 2399.39 514.509C2384.79 497.702 2377.49 475.369 2377.49 447.507C2377.49 419.204 2388.93 394.877 2411.82 374.534C2434.7 353.748 2462.53 343.355 2495.28 343.355H2535.53V332.078C2535.53 310.407 2531.59 295.591 2523.69 287.631C2515.8 279.67 2501 275.69 2479.3 275.69C2470.22 275.69 2459.37 277.901 2446.74 282.323C2434.51 286.304 2420.7 292.716 2405.31 301.562L2388.14 249.154C2405.11 235.886 2425.63 223.945 2449.7 213.331C2474.17 202.717 2494.3 197.41 2510.08 197.41C2572.03 197.41 2603.01 231.021 2603.01 298.245V428.269C2603.01 453.037 2609.92 480.676 2623.73 511.192L2560.99 541.045C2551.12 519.816 2543.82 500.801 2539.08 483.993C2517.38 520.703 2489.95 539.055 2456.81 539.055ZM2481.67 471.389C2497.45 471.389 2515.41 462.325 2535.53 444.19V399.743C2514.62 394.436 2497.65 391.783 2484.63 391.783C2459.76 391.783 2447.33 404.164 2447.33 428.932C2447.33 441.759 2450.49 452.151 2456.81 460.111C2463.12 467.632 2471.4 471.389 2481.67 471.389ZM2698.17 217.975V145.666L2778.08 128.417L2770.38 217.975H2842.01L2835.5 272.373H2768.02L2765.06 411.021C2765.06 431.809 2766.83 445.74 2770.38 452.814C2773.93 459.448 2780.45 462.765 2789.92 462.765C2799.39 462.765 2812.02 460.334 2827.8 455.468L2831.35 502.568C2805.31 526.891 2782.42 539.055 2762.69 539.055C2742.95 539.055 2726.78 531.094 2714.15 515.173C2701.52 498.811 2695.21 477.582 2695.21 451.487L2698.76 377.188L2698.17 272.373H2657.32L2663.83 217.975H2698.17ZM2992.04 471.389C3003.49 471.389 3015.52 468.072 3028.15 461.438C3040.78 454.804 3050.65 448.17 3057.75 441.537L3068.4 431.586L3095.63 468.736C3091.69 476.256 3085.57 484.88 3077.28 494.608C3069 504.336 3060.51 512.742 3051.83 519.816C3043.54 526.45 3032.3 532.644 3018.09 538.391C3004.28 543.698 2989.88 546.352 2974.88 546.352C2942.91 546.352 2916.87 532.861 2896.74 505.885C2876.62 478.464 2866.55 443.304 2866.55 400.407C2866.55 346.451 2880.56 299.13 2908.58 258.442C2936.6 217.754 2969.35 197.41 3006.84 197.41C3035.65 197.41 3057.95 206.476 3073.73 224.609C3089.91 242.742 3098 268.171 3098 300.898C3098 320.358 3095.04 342.471 3089.12 367.237L3077.28 381.168L2929.3 396.426C2936.01 446.403 2956.92 471.389 2992.04 471.389ZM2992.04 265.739C2974.68 265.739 2960.08 273.699 2948.24 289.621C2936.4 305.1 2929.5 325.002 2927.52 349.326L3028.15 335.395C3029.34 325.222 3029.93 316.82 3029.93 310.186C3029.93 280.555 3017.3 265.739 2992.04 265.739Z" fill="#7E84A3"/>
    <path d="M1156.44 975.184C1155.37 975.451 1153.77 976.917 1151.64 979.584C1149.77 982.251 1148.44 985.051 1147.64 987.984C1146.31 992.251 1146.71 995.717 1148.84 998.384C1154.44 1005.05 1161.64 1012.92 1170.44 1021.98C1179.24 1030.78 1188.04 1039.18 1196.84 1047.18C1205.91 1055.18 1213.64 1061.31 1220.04 1065.58C1215.24 1078.38 1207.64 1088.65 1197.24 1096.38C1187.11 1103.85 1175.77 1107.45 1163.24 1107.18C1150.71 1106.91 1138.44 1101.31 1126.44 1090.38C1124.84 1088.78 1121.77 1085.31 1117.24 1079.98C1112.71 1074.38 1107.51 1067.85 1101.64 1060.38C1095.77 1052.92 1089.91 1045.45 1084.04 1037.98C1078.17 1030.52 1073.11 1023.98 1068.84 1018.38C1064.57 1012.78 1061.91 1009.32 1060.84 1007.98C1055.77 1001.32 1050.97 999.851 1046.44 1003.58C1041.91 1007.32 1039.11 1015.05 1038.04 1026.78C1037.51 1033.72 1037.51 1041.72 1038.04 1050.78C1038.84 1059.58 1039.91 1067.45 1041.24 1074.38C1042.84 1081.31 1044.44 1085.45 1046.04 1086.78C1040.44 1091.05 1033.51 1095.05 1025.24 1098.78C1016.97 1102.51 1007.51 1104.78 996.841 1105.58C992.841 1105.85 988.171 1104.78 982.841 1102.38C977.511 1099.98 972.841 1096.11 968.841 1090.78C965.111 1085.18 963.111 1078.25 962.841 1069.98C962.841 1067.85 962.711 1062.25 962.441 1053.18C962.441 1044.12 962.311 1033.05 962.041 1019.98C962.041 1006.65 962.041 992.917 962.041 978.784C962.041 964.651 961.911 951.317 961.641 938.784C961.641 926.251 961.641 916.117 961.641 908.384C961.641 900.651 961.641 896.784 961.641 896.784C961.641 881.051 961.241 867.984 960.441 857.584C959.641 846.917 956.441 838.784 950.841 833.184C945.771 828.117 941.911 820.784 939.241 811.184C936.841 801.584 935.771 792.517 936.041 783.984C937.111 784.251 940.311 784.651 945.641 785.184C950.971 785.451 956.171 785.851 961.241 786.384C964.711 786.384 969.641 786.384 976.041 786.384C982.711 786.117 989.771 785.851 997.241 785.584C1004.71 785.317 1011.64 785.184 1018.04 785.184C1024.44 784.917 1029.24 784.651 1032.44 784.384C1034.84 784.384 1039.24 784.384 1045.64 784.384C1052.31 784.117 1060.04 783.984 1068.84 783.984C1077.64 783.984 1086.57 784.117 1095.64 784.384C1104.71 784.384 1113.11 784.651 1120.84 785.184C1128.57 785.717 1134.57 786.384 1138.84 787.184C1156.44 790.384 1170.04 796.251 1179.64 804.784C1189.24 813.317 1196.04 823.584 1200.04 835.584C1204.31 847.584 1206.84 860.651 1207.64 874.784C1208.17 886.784 1206.84 899.317 1203.64 912.384C1200.44 925.451 1194.97 937.584 1187.24 948.784C1179.51 959.984 1169.24 968.784 1156.44 975.184ZM1038.84 889.184C1038.84 897.717 1040.84 904.117 1044.84 908.384C1048.84 912.384 1052.57 914.784 1056.04 915.584C1060.84 916.651 1066.97 916.784 1074.44 915.984C1081.91 914.917 1089.37 913.051 1096.84 910.384C1104.31 907.451 1110.57 903.717 1115.64 899.184C1120.97 894.651 1123.64 889.451 1123.64 883.584C1123.64 875.851 1120.44 869.984 1114.04 865.984C1107.64 861.717 1099.51 859.051 1089.64 857.984C1080.04 856.917 1070.44 857.184 1060.84 858.784C1053.37 859.851 1047.77 863.184 1044.04 868.784C1040.31 874.384 1038.57 881.184 1038.84 889.184ZM1453.66 1001.58C1460.32 1006.12 1464.59 1012.65 1466.46 1021.18C1468.59 1029.45 1468.32 1038.52 1465.66 1048.38C1463.26 1058.25 1458.32 1067.71 1450.86 1076.78C1443.39 1085.58 1433.26 1092.91 1420.46 1098.78C1407.92 1104.65 1392.72 1107.71 1374.86 1107.98C1359.92 1108.25 1345.26 1106.38 1330.86 1102.38C1316.72 1098.38 1303.79 1092.25 1292.06 1083.98C1280.59 1075.71 1271.26 1065.05 1264.06 1051.98C1256.86 1038.92 1252.86 1023.32 1252.06 1005.18C1251.79 1001.45 1251.79 997.584 1252.06 993.584C1252.32 989.584 1252.59 985.451 1252.86 981.184C1252.86 980.117 1252.86 979.051 1252.86 977.984C1253.12 976.917 1253.39 975.851 1253.66 974.784C1256.32 958.784 1261.79 944.117 1270.06 930.784C1278.59 917.451 1288.99 906.117 1301.26 896.784C1313.52 887.451 1326.59 880.651 1340.46 876.384C1354.59 871.851 1368.46 870.251 1382.06 871.584C1403.12 873.717 1419.39 879.317 1430.86 888.384C1442.59 897.451 1450.19 908.651 1453.66 921.984C1457.39 935.051 1457.52 949.184 1454.06 964.384C1452.19 971.851 1447.92 979.317 1441.26 986.784C1434.86 993.984 1426.86 1000.52 1417.26 1006.38C1407.66 1011.98 1397.39 1016.38 1386.46 1019.58C1375.79 1022.52 1365.39 1023.72 1355.26 1023.18C1350.19 1022.92 1347.52 1024.52 1347.26 1027.98C1346.99 1031.18 1348.46 1034.78 1351.66 1038.78C1354.86 1042.52 1359.12 1045.05 1364.46 1046.38C1376.99 1049.05 1388.72 1049.18 1399.66 1046.78C1410.86 1044.12 1419.39 1040.52 1425.26 1035.98C1430.06 1032.25 1435.12 1027.32 1440.46 1021.18C1445.79 1014.78 1450.19 1008.25 1453.66 1001.58ZM1366.06 961.184C1372.19 960.651 1377.52 958.784 1382.06 955.584C1386.86 952.117 1389.26 948.517 1389.26 944.784C1389.52 939.451 1388.19 935.184 1385.26 931.984C1382.59 928.517 1377.92 926.917 1371.26 927.184C1363.79 927.451 1356.59 928.517 1349.66 930.384C1342.72 932.251 1338.59 936.117 1337.26 941.984C1336.46 945.984 1337.66 949.451 1340.86 952.384C1344.06 955.317 1348.06 957.584 1352.86 959.184C1357.66 960.517 1362.06 961.184 1366.06 961.184ZM1608.9 870.784C1632.64 868.917 1652.64 872.917 1668.9 882.784C1685.17 892.384 1697.57 905.851 1706.1 923.184C1714.64 940.251 1719.04 959.184 1719.3 979.984C1719.84 999.184 1717.04 1016.25 1710.9 1031.18C1704.77 1045.85 1696.37 1058.38 1685.7 1068.78C1675.04 1078.91 1663.04 1086.65 1649.7 1091.98C1636.64 1097.31 1623.17 1099.98 1609.3 1099.98C1606.37 1099.98 1602.5 1100.38 1597.7 1101.18C1593.17 1101.71 1589.44 1103.18 1586.5 1105.58C1584.64 1107.45 1583.3 1109.45 1582.5 1111.58C1581.97 1113.71 1581.84 1116.25 1582.1 1119.18C1582.64 1123.98 1583.7 1127.31 1585.3 1129.18C1587.17 1131.31 1588.77 1133.58 1590.1 1135.98C1587.17 1139.18 1583.04 1142.65 1577.7 1146.38C1572.37 1150.11 1565.84 1153.05 1558.1 1155.18C1550.64 1157.31 1541.7 1157.58 1531.3 1155.98C1524.9 1154.91 1519.3 1150.78 1514.5 1143.58C1509.7 1136.38 1507.17 1126.65 1506.9 1114.38L1505.7 928.384C1505.7 913.451 1504.77 901.317 1502.9 891.984C1501.04 882.384 1500.1 877.584 1500.1 877.584C1503.57 876.517 1509.04 875.584 1516.5 874.784C1524.24 873.984 1532.24 874.517 1540.5 876.384C1543.7 877.184 1547.7 878.117 1552.5 879.184C1557.57 879.984 1563.04 879.984 1568.9 879.184C1576.64 878.384 1584.37 876.917 1592.1 874.784C1599.84 872.384 1605.44 871.051 1608.9 870.784ZM1616.5 1037.18C1625.04 1037.18 1633.04 1032.78 1640.5 1023.98C1647.97 1014.92 1651.7 1002.25 1651.7 985.984C1651.7 975.051 1649.84 965.851 1646.1 958.384C1642.64 950.651 1638.24 944.917 1632.9 941.184C1627.57 937.184 1622.37 935.184 1617.3 935.184C1612.24 935.184 1607.04 935.584 1601.7 936.384C1596.64 937.184 1592.1 940.251 1588.1 945.584C1584.37 950.917 1581.97 960.384 1580.9 973.984C1579.57 991.584 1580.64 1004.92 1584.1 1013.98C1587.84 1023.05 1592.77 1029.18 1598.9 1032.38C1605.04 1035.58 1610.9 1037.18 1616.5 1037.18ZM1758.07 1069.18C1758.07 1067.05 1758.07 1061.31 1758.07 1051.98C1758.07 1042.38 1758.07 1030.52 1758.07 1016.38C1758.07 1002.25 1757.94 986.784 1757.67 969.984C1757.67 952.917 1757.67 935.717 1757.67 918.384C1757.67 901.051 1757.54 884.651 1757.27 869.184C1757.27 853.451 1757.14 839.851 1756.87 828.384C1756.61 817.451 1755.67 808.384 1754.07 801.184C1752.47 793.717 1751.54 789.184 1751.27 787.584C1754.47 787.051 1759.27 786.917 1765.67 787.184C1772.07 787.184 1779.14 787.984 1786.87 789.584C1794.87 790.917 1802.47 793.184 1809.67 796.384C1816.87 799.317 1822.87 803.584 1827.67 809.184C1832.47 814.517 1835.01 821.317 1835.27 829.584C1835.54 834.651 1835.67 843.584 1835.67 856.384C1835.94 868.917 1836.07 883.717 1836.07 900.784C1836.34 917.584 1836.61 934.917 1836.87 952.784C1837.14 970.384 1837.27 987.051 1837.27 1002.78C1837.54 1018.52 1837.67 1031.72 1837.67 1042.38C1837.94 1052.78 1838.07 1058.92 1838.07 1060.78C1838.07 1066.38 1839.54 1071.85 1842.47 1077.18C1845.67 1082.25 1849.01 1085.45 1852.47 1086.78C1850.87 1088.91 1847.27 1091.71 1841.67 1095.18C1836.07 1098.65 1829.54 1101.85 1822.07 1104.78C1814.87 1107.71 1807.54 1109.58 1800.07 1110.38C1793.94 1110.91 1787.54 1109.45 1780.87 1105.98C1774.47 1102.78 1769.01 1097.98 1764.47 1091.58C1760.21 1085.18 1758.07 1077.71 1758.07 1069.18ZM2105.28 1029.58C2105.54 1035.45 2105.94 1042.65 2106.48 1051.18C2107.28 1059.71 2109.01 1067.98 2111.68 1075.98C2114.34 1083.98 2118.61 1090.38 2124.48 1095.18C2117.81 1099.71 2111.01 1102.91 2104.08 1104.78C2097.14 1106.91 2090.34 1107.45 2083.68 1106.38C2081.81 1105.85 2079.81 1105.18 2077.68 1104.38C2075.54 1103.85 2072.61 1103.05 2068.88 1101.98C2062.74 1100.11 2055.54 1099.71 2047.28 1100.78C2039.01 1101.85 2030.34 1103.18 2021.28 1104.78C2012.48 1106.65 2003.81 1107.58 1995.28 1107.58C1981.41 1107.58 1967.54 1105.18 1953.68 1100.38C1939.81 1095.31 1927.28 1087.58 1916.08 1077.18C1904.88 1066.78 1896.34 1053.58 1890.48 1037.58C1884.61 1021.58 1882.88 1002.38 1885.28 979.984C1886.88 964.517 1891.28 950.384 1898.48 937.584C1905.68 924.517 1914.48 913.317 1924.88 903.984C1935.54 894.384 1946.74 887.051 1958.48 881.984C1970.48 876.651 1982.08 874.117 1993.28 874.384C2001.81 874.651 2008.34 874.917 2012.88 875.184C2017.68 875.451 2023.81 876.117 2031.28 877.184C2035.81 877.717 2041.54 877.051 2048.48 875.184C2055.41 873.317 2062.34 871.317 2069.28 869.184C2076.48 866.784 2082.61 865.584 2087.68 865.584C2095.41 865.317 2100.88 865.584 2104.08 866.384C2107.28 866.917 2109.94 867.451 2112.08 867.984C2110.48 872.784 2109.14 879.984 2108.08 889.584C2107.01 899.184 2106.21 910.117 2105.68 922.384C2105.41 934.384 2105.14 946.917 2104.88 959.984C2104.61 973.051 2104.48 985.584 2104.48 997.584C2104.74 1009.58 2105.01 1020.25 2105.28 1029.58ZM1954.88 992.784C1955.41 1006.12 1957.81 1016.52 1962.08 1023.98C1966.61 1031.18 1971.94 1036.25 1978.08 1039.18C1984.48 1042.12 1990.61 1043.58 1996.48 1043.58C2008.21 1043.85 2016.88 1039.32 2022.48 1029.98C2028.08 1020.65 2030.74 1007.72 2030.48 991.184C2030.48 986.651 2029.94 981.317 2028.88 975.184C2028.08 969.051 2026.48 963.051 2024.08 957.184C2021.94 951.317 2018.88 946.384 2014.88 942.384C2011.14 938.384 2006.21 936.384 2000.08 936.384C1987.81 936.384 1977.01 940.917 1967.68 949.984C1958.61 959.051 1954.34 973.317 1954.88 992.784ZM2343.95 929.184C2342.89 934.784 2340.49 939.984 2336.75 944.784C2333.02 949.584 2328.62 953.584 2323.55 956.784C2318.75 959.717 2314.09 961.317 2309.55 961.584C2305.02 961.851 2301.29 960.251 2298.35 956.784C2303.42 953.317 2304.62 949.984 2301.95 946.784C2299.55 943.584 2295.42 941.051 2289.55 939.184C2283.69 937.317 2277.95 936.784 2272.35 937.584C2258.49 939.717 2248.22 945.717 2241.55 955.584C2234.89 965.184 2230.62 976.251 2228.75 988.784C2227.42 999.451 2228.49 1009.05 2231.95 1017.58C2235.69 1025.85 2240.75 1032.52 2247.15 1037.58C2253.82 1042.38 2261.02 1044.92 2268.75 1045.18C2286.09 1045.45 2300.49 1042.92 2311.95 1037.58C2323.42 1032.25 2332.35 1026.12 2338.75 1019.18C2345.42 1011.98 2349.95 1006.12 2352.35 1001.58C2358.75 1006.12 2362.49 1012.65 2363.55 1021.18C2364.62 1029.72 2363.29 1038.92 2359.55 1048.78C2355.82 1058.65 2349.95 1068.11 2341.95 1077.18C2333.95 1086.25 2324.22 1093.71 2312.75 1099.58C2301.29 1105.18 2288.22 1107.98 2273.55 1107.98C2265.82 1107.98 2256.62 1107.05 2245.95 1105.18C2235.29 1103.31 2224.35 1099.85 2213.15 1094.78C2202.22 1089.71 2192.09 1082.38 2182.75 1072.78C2173.69 1063.18 2166.62 1050.78 2161.55 1035.58C2156.75 1020.38 2155.29 1001.72 2157.15 979.584C2158.49 962.517 2163.02 947.451 2170.75 934.384C2178.75 921.051 2188.49 909.851 2199.95 900.784C2211.42 891.451 2223.42 884.384 2235.95 879.584C2248.75 874.517 2260.89 871.851 2272.35 871.584C2283.82 871.317 2294.22 873.051 2303.55 876.784C2312.89 880.517 2320.75 885.451 2327.15 891.584C2333.55 897.451 2338.22 903.717 2341.15 910.384C2344.09 917.051 2345.02 923.317 2343.95 929.184ZM2601.41 1001.58C2608.07 1006.12 2612.34 1012.65 2614.21 1021.18C2616.34 1029.45 2616.07 1038.52 2613.41 1048.38C2611.01 1058.25 2606.07 1067.71 2598.61 1076.78C2591.14 1085.58 2581.01 1092.91 2568.21 1098.78C2551.67 1104.65 2536.47 1107.71 2518.61 1107.98C2503.67 1108.25 2489.01 1106.38 2474.61 1102.38C2460.47 1098.38 2447.54 1092.25 2435.81 1083.98C2424.34 1075.71 2415.01 1065.05 2407.81 1051.98C2400.61 1038.92 2396.61 1023.32 2395.81 1005.18C2395.54 1001.45 2395.54 997.584 2395.81 993.584C2396.07 989.584 2396.34 985.451 2396.61 981.184C2396.61 980.117 2396.61 979.051 2396.61 977.984C2396.87 976.917 2397.14 975.851 2397.41 974.784C2400.07 958.784 2405.54 944.117 2413.81 930.784C2422.34 917.451 2432.74 906.117 2445.01 896.784C2457.27 887.451 2470.34 880.651 2484.21 876.384C2498.34 871.851 2512.21 870.251 2525.81 871.584C2546.87 873.717 2567.14 879.317 2578.61 888.384C2590.34 897.451 2597.94 908.651 2601.41 921.984C2605.14 935.051 2605.27 949.184 2601.81 964.384C2599.94 971.851 2595.67 979.317 2589.01 986.784C2582.61 993.984 2574.61 1000.52 2565.01 1006.38C2551.41 1011.98 2541.14 1016.38 2530.21 1019.58C2519.54 1022.52 2509.14 1023.72 2499.01 1023.18C2493.94 1022.92 2491.27 1024.52 2491.01 1027.98C2490.74 1031.18 2492.21 1034.78 2495.41 1038.78C2498.61 1042.52 2502.87 1045.05 2508.21 1046.38C2520.74 1049.05 2532.47 1049.18 2543.41 1046.78C2554.61 1044.12 2567.14 1040.52 2573.01 1035.98C2577.81 1032.25 2582.87 1027.32 2588.21 1021.18C2593.54 1014.78 2597.94 1008.25 2601.41 1001.58ZM2509.81 961.184C2515.94 960.651 2521.27 958.784 2525.81 955.584C2530.61 952.117 2533.01 948.517 2533.01 944.784C2533.27 939.451 2531.94 935.184 2529.01 931.984C2526.34 928.517 2521.67 926.917 2515.01 927.184C2507.54 927.451 2500.34 928.517 2493.41 930.384C2486.47 932.251 2482.34 936.117 2481.01 941.984C2480.21 945.984 2481.41 949.451 2484.61 952.384C2487.81 955.317 2491.81 957.584 2496.61 959.184C2501.41 960.517 2505.81 961.184 2509.81 961.184ZM2901.91 851.184C2920.31 853.584 2933.64 858.917 2941.91 867.184C2950.44 875.451 2955.24 885.184 2956.31 896.384C2957.64 907.584 2956.44 919.051 2952.71 930.784C2950.58 937.451 2947.38 945.984 2943.11 956.384C2939.11 966.517 2934.84 976.917 2930.31 987.584C2926.04 998.251 2922.04 1007.85 2918.31 1016.38C2914.58 1024.65 2912.04 1030.52 2910.71 1033.98C2906.44 1043.85 2901.38 1054.38 2895.51 1065.58C2889.64 1076.51 2883.11 1086.78 2875.91 1096.38C2868.98 1105.98 2861.64 1113.85 2853.91 1119.98C2846.44 1126.11 2839.11 1129.18 2831.91 1129.18C2822.31 1129.18 2814.44 1126.78 2808.31 1121.98C2802.44 1117.18 2798.04 1111.18 2795.11 1103.98C2792.18 1097.05 2790.31 1090.25 2789.51 1083.58C2796.44 1085.45 2802.84 1085.31 2808.71 1083.18C2814.58 1081.31 2819.64 1078.51 2823.91 1074.78C2827.91 1071.05 2830.31 1066.78 2831.11 1061.98C2832.18 1057.18 2832.44 1052.91 2831.91 1049.18C2830.58 1034.25 2826.44 1018.12 2819.51 1000.78L2760.71 855.184C2764.71 854.651 2769.91 853.984 2776.31 853.184C2782.98 852.117 2789.91 851.984 2797.11 852.784C2804.58 853.317 2811.51 855.317 2817.91 858.784C2824.58 861.984 2830.04 867.451 2834.31 875.184C2835.91 877.851 2837.78 881.984 2839.91 887.584C2842.31 892.917 2844.71 898.651 2847.11 904.784C2849.78 910.651 2851.91 915.717 2853.51 919.984C2856.44 926.384 2859.51 931.584 2862.71 935.584C2866.18 939.317 2869.64 941.317 2873.11 941.584C2876.04 941.851 2878.98 940.784 2881.91 938.384C2884.84 935.717 2887.24 932.384 2889.11 928.384C2890.71 924.651 2892.58 919.051 2894.71 911.584C2896.84 904.117 2898.58 897.851 2899.91 892.784C2902.31 883.451 2903.51 875.451 2903.51 868.784C2903.78 862.117 2903.24 856.251 2901.91 851.184ZM3210.82 958.784C3213.22 981.184 3211.49 1000.38 3205.62 1016.38C3199.76 1032.38 3191.09 1045.58 3179.62 1055.98C3168.42 1066.38 3155.76 1074.11 3141.62 1079.18C3127.76 1083.98 3113.89 1086.38 3100.02 1086.38C3086.42 1086.38 3072.56 1083.98 3058.42 1079.18C3044.56 1074.11 3032.02 1066.38 3020.82 1055.98C3009.89 1045.58 3001.36 1032.38 2995.22 1016.38C2989.36 1000.38 2987.62 981.184 2990.02 958.784C2992.42 938.251 2998.56 920.251 3008.42 904.784C3018.56 889.317 3031.36 877.184 3046.82 868.384C3062.56 859.317 3079.76 854.251 3098.42 853.184C3099.49 852.917 3100.56 852.117 3101.62 850.784C3102.96 849.184 3105.09 847.851 3108.02 846.784C3111.22 845.451 3116.02 845.051 3122.42 845.584C3137.62 849.851 3151.49 857.184 3164.02 867.584C3176.56 877.984 3186.96 890.917 3195.22 906.384C3203.76 921.851 3208.96 939.317 3210.82 958.784ZM3096.42 1022.38C3104.96 1022.38 3112.29 1020.38 3118.42 1016.38C3124.56 1012.38 3129.49 1007.32 3133.22 1001.18C3136.96 994.784 3139.62 988.117 3141.22 981.184C3143.09 974.251 3144.02 967.984 3144.02 962.384C3144.02 950.917 3142.16 941.984 3138.42 935.584C3134.69 929.184 3126.16 923.451 3112.82 918.384C3109.09 916.784 3106.56 914.651 3105.22 911.984C3103.89 909.317 3101.89 907.851 3099.22 907.584C3090.42 906.517 3082.96 908.917 3076.82 914.784C3070.69 920.651 3066.02 928.517 3062.82 938.384C3059.62 948.251 3058.02 958.917 3058.02 970.384C3058.02 981.851 3060.16 991.451 3064.42 999.184C3068.96 1006.92 3074.16 1012.78 3080.02 1016.78C3086.16 1020.52 3091.62 1022.38 3096.42 1022.38ZM3449.12 1029.98C3449.12 1032.38 3449.52 1035.98 3450.32 1040.78C3451.12 1045.58 3452.19 1050.51 3453.52 1055.58C3455.12 1060.65 3456.72 1065.18 3458.32 1069.18C3459.92 1072.91 3461.52 1075.18 3463.12 1075.98C3459.39 1080.51 3453.39 1084.11 3445.12 1086.78C3436.85 1089.71 3428.59 1090.25 3420.32 1088.38C3413.92 1086.51 3408.19 1084.78 3403.12 1083.18C3398.05 1081.58 3391.12 1080.91 3382.32 1081.18C3375.92 1081.45 3369.52 1082.11 3363.12 1083.18C3356.99 1084.25 3350.72 1085.45 3344.32 1086.78C3341.12 1087.31 3335.52 1087.45 3327.52 1087.18C3319.79 1087.18 3311.25 1086.25 3301.92 1084.38C3292.85 1082.51 3284.45 1079.31 3276.72 1074.78C3266.59 1068.65 3258.99 1059.71 3253.92 1047.98C3248.85 1036.25 3245.92 1024.25 3245.12 1011.98C3245.12 1009.05 3244.99 1003.32 3244.72 994.784C3244.72 986.251 3244.59 976.117 3244.32 964.384C3244.32 952.651 3244.19 940.517 3243.92 927.984C3243.92 915.451 3243.79 903.851 3243.52 893.184C3243.52 882.251 3243.52 873.451 3243.52 866.784C3243.52 859.851 3243.52 856.384 3243.52 856.384C3245.92 856.117 3249.92 855.851 3255.52 855.584C3261.39 855.051 3267.79 855.051 3274.72 855.584C3281.65 856.117 3288.32 857.451 3294.72 859.584C3301.39 861.451 3306.99 864.517 3311.52 868.784C3316.32 873.051 3319.12 878.784 3319.92 885.984C3320.45 891.851 3320.85 897.184 3321.12 901.984C3321.39 906.784 3321.52 912.117 3321.52 917.984C3321.52 923.584 3321.25 930.651 3320.72 939.184C3320.45 947.451 3320.05 957.984 3319.52 970.784C3318.99 981.184 3318.72 990.117 3318.72 997.584C3318.99 1005.05 3320.85 1010.65 3324.32 1014.38C3327.79 1018.12 3333.92 1019.72 3342.72 1019.18C3348.59 1018.92 3353.39 1016.65 3357.12 1012.38C3361.12 1007.85 3364.32 1002.38 3366.72 995.984C3369.12 989.584 3370.72 983.051 3371.52 976.384C3372.59 969.717 3373.12 963.851 3373.12 958.784C3373.12 957.717 3372.99 953.584 3372.72 946.384C3372.72 939.184 3372.59 930.651 3372.32 920.784C3372.32 910.651 3372.19 900.651 3371.92 890.784C3371.92 880.917 3371.92 872.784 3371.92 866.384C3371.92 859.717 3371.92 856.384 3371.92 856.384C3374.32 856.117 3378.32 856.117 3383.92 856.384C3389.52 856.384 3395.79 856.917 3402.72 857.984C3409.65 859.051 3416.45 860.917 3423.12 863.584C3429.79 866.251 3435.39 869.984 3439.92 874.784C3444.72 879.317 3447.52 885.184 3448.32 892.384C3449.92 907.851 3450.19 926.784 3449.12 949.184C3448.32 971.317 3448.32 998.251 3449.12 1029.98ZM3623.48 849.184C3628.82 847.851 3633.75 849.184 3638.28 853.184C3642.82 857.184 3646.82 862.651 3650.28 869.584C3654.02 876.251 3657.08 883.184 3659.48 890.384C3661.88 897.317 3663.75 903.184 3665.08 907.984C3666.42 912.784 3667.08 915.184 3667.08 915.184C3667.08 915.184 3663.88 915.851 3657.48 917.184C3651.35 918.251 3643.62 920.517 3634.28 923.984C3625.22 927.184 3616.15 932.117 3607.08 938.784C3601.75 942.784 3596.68 947.584 3591.88 953.184C3587.08 958.784 3582.95 965.984 3579.48 974.784C3576.02 983.317 3573.48 994.651 3571.88 1008.78C3571.08 1015.98 3570.95 1023.45 3571.48 1031.18C3572.02 1038.91 3572.28 1045.45 3572.28 1050.78C3572.55 1055.58 3573.22 1059.05 3574.28 1061.18C3575.62 1063.05 3576.68 1064.65 3577.48 1065.98C3574.02 1069.18 3567.62 1072.78 3558.28 1076.78C3549.22 1080.51 3539.22 1082.38 3528.28 1082.38C3517.62 1082.38 3509.75 1078.91 3504.68 1071.98C3499.62 1065.05 3497.08 1055.45 3497.08 1043.18C3497.08 1040.25 3496.95 1033.85 3496.68 1023.98C3496.68 1013.85 3496.55 1001.72 3496.28 987.584C3496.28 973.451 3496.15 958.784 3495.88 943.584C3495.88 928.384 3495.75 914.251 3495.48 901.184C3495.48 887.851 3495.35 877.051 3495.08 868.784C3495.08 860.517 3495.08 856.384 3495.08 856.384C3497.75 855.851 3502.28 855.451 3508.68 855.184C3515.35 854.917 3522.55 855.184 3530.28 855.984C3538.02 856.784 3545.22 858.651 3551.88 861.584C3555.08 862.917 3559.35 864.251 3564.68 865.584C3570.28 866.651 3575.62 867.184 3580.68 867.184C3586.02 867.184 3589.88 866.384 3592.28 864.784C3597.35 861.051 3602.42 857.851 3607.48 855.184C3612.82 852.517 3618.15 850.517 3623.48 849.184Z" fill="#7E84A3"/>
    <path d="M3998.43 1702.74C3963.77 1748.97 3906.83 1761.29 3855.9 1777.42C3734.22 1815.91 3610.11 1847.6 3486.84 1881.55C3472.54 1886.26 3457.01 1886.58 3442.49 1882.49C3427.97 1878.4 3415.21 1870.09 3406.03 1858.77C3395.55 1847.74 3388.85 1834 3386.82 1819.35C3384.78 1804.69 3387.49 1789.8 3394.6 1776.61C3397.89 1771.8 3399.71 1766.23 3399.86 1760.52C3388.24 1703.41 3375.85 1646.45 3362.8 1585.9C3298.05 1597.84 3230.02 1613.98 3160.92 1622.48C2931.51 1650.7 2702.33 1682.49 2471.98 1701.32C2009.39 1739.17 1545.91 1719.95 1082.74 1706.77C882.376 1701.08 682.946 1683.67 492.367 1616.88C181.191 1507.8 21.6663 1291.63 1.70465 987.03C-21.6872 629.81 197.722 353.354 533.164 228.473C632.273 191.577 733.265 185.527 829.453 240.508C846.331 249.694 861.744 261.067 875.228 274.299C879.946 278.759 883.611 284.108 885.973 289.986C888.34 295.869 889.35 302.153 888.949 308.429C885.854 313.994 881.418 318.808 876 322.487C870.577 326.17 864.32 328.617 857.719 329.637C807.603 336.854 756.992 340.621 706.29 340.899C530.695 336.54 399.88 414.916 293.142 535.601C115.011 736.945 92.4936 1068.21 239.738 1280.61C308.594 1379.97 408.849 1440.36 523.631 1483.35C690.641 1546.34 868.441 1580.37 1048.4 1583.81C1334.45 1589.01 1620.83 1587.74 1906.88 1581.66C2139.64 1576.71 2372.85 1567.91 2604.54 1547.67C2850.31 1526.19 3094.52 1489.05 3339.46 1459.17C3362.6 1456.34 3372.9 1447.2 3372.29 1423.99C3371.34 1388.6 3373.59 1353.19 3374.83 1317.8C3375.96 1285.05 3387.46 1257.12 3422.21 1244.26C3437.41 1238.4 3454.2 1237.19 3470.18 1240.81C3486.16 1244.43 3500.51 1252.69 3511.2 1264.4C3645.58 1388.9 3793.37 1499.99 3952.18 1595.88C3972.07 1607.96 3983.25 1632.71 3998.48 1651.6L3998.43 1702.74ZM3770.97 1652.66L3511.83 1459.72V1728.43L3770.97 1652.66Z" fill="#7E84A3"/>
    <path d="M3467.09 566.455C3441.39 566.455 3419.21 561.848 3400.55 552.636C3381.88 543.424 3367.52 530.939 3357.45 515.182C3347.52 499.303 3342.55 481.606 3342.55 462.091C3342.55 447.545 3345.45 434.636 3351.27 423.364C3357.09 412.091 3365.21 401.727 3375.64 392.273C3386.06 382.697 3398.18 373.182 3412 363.727L3484.18 316.273C3493.52 310.333 3500.36 304.091 3504.73 297.545C3509.09 290.879 3511.27 283.667 3511.27 275.909C3511.27 268.515 3508.3 261.667 3502.36 255.364C3496.42 249.061 3488 245.97 3477.09 246.091C3469.82 246.091 3463.52 247.727 3458.18 251C3452.85 254.152 3448.67 258.333 3445.64 263.545C3442.73 268.636 3441.27 274.333 3441.27 280.636C3441.27 288.394 3443.45 296.273 3447.82 304.273C3452.18 312.273 3458 320.758 3465.27 329.727C3472.55 338.576 3480.48 348.152 3489.09 358.455L3665.64 561H3584.91L3437.64 397C3427.94 385.97 3418.24 374.455 3408.55 362.455C3398.97 350.333 3390.97 337.485 3384.55 323.909C3378.12 310.212 3374.91 295.364 3374.91 279.364C3374.91 261.303 3379.09 245.061 3387.45 230.636C3395.94 216.212 3407.82 204.818 3423.09 196.455C3438.36 187.97 3456.18 183.727 3476.55 183.727C3496.42 183.727 3513.58 187.788 3528 195.909C3542.55 203.909 3553.7 214.576 3561.45 227.909C3569.33 241.121 3573.27 255.667 3573.27 271.545C3573.27 289.121 3568.91 305.061 3560.18 319.364C3551.58 333.545 3539.45 346.273 3523.82 357.545L3447.82 412.273C3437.52 419.788 3429.88 427.485 3424.91 435.364C3420.06 443.121 3417.64 450.576 3417.64 457.727C3417.64 466.576 3419.82 474.515 3424.18 481.545C3428.55 488.576 3434.73 494.152 3442.73 498.273C3450.73 502.273 3460.12 504.273 3470.91 504.273C3484 504.273 3496.91 501.303 3509.64 495.364C3522.48 489.303 3534.12 480.758 3544.55 469.727C3555.09 458.576 3563.52 445.364 3569.82 430.091C3576.12 414.818 3579.27 397.909 3579.27 379.364H3643.45C3643.45 402.152 3640.97 422.697 3636 441C3631.03 459.182 3624.12 475.061 3615.27 488.636C3606.42 502.091 3596.3 513.121 3584.91 521.727C3581.27 524.03 3577.76 526.212 3574.36 528.273C3570.97 530.333 3567.45 532.515 3563.82 534.818C3550 545.97 3534.55 554.03 3517.45 559C3500.48 563.97 3483.7 566.455 3467.09 566.455Z" fill="#7E84A3"/>
    </g>
    <defs>
    <clipPath id="clip0_106_2">
    <rect width="4173" height="1886" fill="white"/>
    </clipPath>
    </defs>
    </svg>
    