<svg width="101" height="114" viewBox="0 0 101 114" fill="none" xmlns="http://www.w3.org/2000/svg">
    <path
        d="M99.4998 0.599609C99.7998 0.599609 100.1 0.8996 100.1 1.1996V11.9996C100.1 12.2996 99.7998 12.5996 99.4998 12.5996H56.1998V101.3H99.4998C99.7998 101.3 99.9998 101.5 100.1 101.7V101.9V112.7C100.1 113 99.8998 113.2 99.6998 113.3H99.4998H0.999802C0.699802 113.3 0.499796 113.1 0.399796 112.9V112.7V101.9C0.399796 101.6 0.599805 101.4 0.799805 101.3H0.999802H44.2998V12.5996H0.999802C0.699802 12.5996 0.499796 12.3996 0.399796 12.1996V11.9996V1.1996C0.399796 0.8996 0.699802 0.599609 0.999802 0.599609H99.4998ZM30.2998 25.8996C30.5998 25.8996 30.7998 26.0996 30.8998 26.2996V26.4996V87.3996C30.8998 87.6996 30.6998 87.8996 30.4998 87.9996H30.2998H0.899796C0.599796 87.9996 0.399805 87.7996 0.299805 87.5996V87.3996V76.5996C0.299805 76.2996 0.499799 76.0996 0.699799 75.9996H0.899796H18.8998V37.8996H0.899796C0.599796 37.8996 0.399805 37.6996 0.299805 37.4996V37.2996V26.4996C0.299805 26.1996 0.499799 25.9996 0.699799 25.8996H0.899796H30.2998ZM99.4998 25.8996C99.7998 25.8996 99.9998 26.0996 100.1 26.2996V26.4996V37.2996C100.1 37.5996 99.8998 37.7996 99.6998 37.8996H99.4998H81.4998V75.9996H99.4998C99.7998 75.9996 99.9998 76.1996 100.1 76.3996V76.5996V87.3996C100.1 87.6996 99.8998 87.8996 99.6998 87.9996H99.4998H70.0998C69.7998 87.9996 69.5998 87.7996 69.4998 87.5996V87.3996V26.4996C69.4998 26.1996 69.6998 25.9996 69.8998 25.8996H70.0998H99.4998Z"
        fill="#F7F6FA" />
</svg>
    