<svg id="visual" viewBox="0 0 900 600" width="900" height="600" xmlns="http://www.w3.org/2000/svg" xmlns:xlink="http://www.w3.org/1999/xlink" version="1.1"><rect x="0" y="0" width="900" height="600" fill="#032123"></rect><path d="M0 449L129 372L257 456L386 424L514 449L643 362L771 350L900 343L900 601L771 601L643 601L514 601L386 601L257 601L129 601L0 601Z" fill="#d1bfae"></path><path d="M0 490L129 479L257 424L386 459L514 446L643 425L771 470L900 517L900 601L771 601L643 601L514 601L386 601L257 601L129 601L0 601Z" fill="#70776c"></path><path d="M0 557L129 516L257 492L386 475L514 545L643 498L771 531L900 520L900 601L771 601L643 601L514 601L386 601L257 601L129 601L0 601Z" fill="#2b3232"></path></svg>