<svg width="1498" height="710" viewBox="0 0 1498 710" fill="none" xmlns="http://www.w3.org/2000/svg">
    <path
        d="M241.6 384.8C245.067 387.733 247.333 393.6 248.4 402.4C249.733 410.933 249.333 419.867 247.2 429.2C245.6 436.933 242.667 444.4 238.4 451.6C234.133 458.533 228.533 462.667 221.6 464C218.933 464.533 212.8 464.8 203.2 464.8C193.6 465.067 182.267 465.067 169.2 464.8C156.4 464.8 143.333 464.667 130 464.4C116.933 464.4 105.2 464.4 94.8 464.4C84.6667 464.667 77.4667 465.067 73.2 465.6C62.2667 467.467 51.0667 468.133 39.6 467.6C28.4 467.067 20.5333 465.467 16 462.8C17.8667 459.067 19.4667 453.467 20.8 446C22.1333 438.267 23.2 429.867 24 420.8C24.8 411.733 25.0667 403.067 24.8 394.8L23.2 148.4C26.1333 147.867 31.2 147.733 38.4 148C45.8667 148.267 53.7333 149.467 62 151.6C71.0667 153.733 79.2 157.733 86.4 163.6C93.6 169.467 98 176.933 99.6 186C100.133 188.933 100.533 194.8 100.8 203.6C101.067 212.133 101.2 222.267 101.2 234C101.467 245.733 101.467 257.733 101.2 270C101.2 282.267 101.2 293.733 101.2 304.4C101.2 315.067 101.067 323.733 100.8 330.4C100.8 337.067 100.8 340.4 100.8 340.4C100.533 350.533 101.6 359.733 104 368C106.4 376 109.867 382.267 114.4 386.8C117.867 390.267 122.133 392.667 127.2 394C132.267 395.333 138.533 396.267 146 396.8C149.2 397.067 154.133 397.067 160.8 396.8C167.733 396.533 175.333 396.133 183.6 395.6C191.867 394.8 200 393.867 208 392.8C216.267 391.733 223.467 390.533 229.6 389.2C235.733 387.867 239.733 386.4 241.6 384.8ZM326.034 226C316.968 226.267 308.834 223.733 301.634 218.4C294.701 213.067 289.368 206.533 285.634 198.8C282.168 190.8 280.834 183.2 281.634 176C282.968 165.067 287.901 157.333 296.434 152.8C304.968 148.267 313.901 145.867 323.234 145.6C336.568 145.067 346.968 148.533 354.434 156C361.901 163.467 365.634 172 365.634 181.6C365.634 188 364.168 194.533 361.234 201.2C358.568 207.867 354.301 213.6 348.434 218.4C342.568 222.933 335.101 225.467 326.034 226ZM368.434 423.6C368.701 428.4 370.168 432.533 372.834 436C375.768 439.2 379.234 442.267 383.234 445.2C381.368 447.6 378.968 450.133 376.034 452.8C373.101 455.467 368.701 458 362.834 460.4C357.234 462.533 349.101 464.267 338.434 465.6C334.968 465.867 330.568 465.467 325.234 464.4C319.901 463.6 314.568 461.067 309.234 456.8C304.168 452.267 300.034 445.2 296.834 435.6C293.634 425.733 292.301 412.267 292.834 395.2C293.101 392.267 293.101 386.533 292.834 378C292.834 369.467 292.701 359.333 292.434 347.6C292.434 335.867 292.301 323.733 292.034 311.2C292.034 298.667 291.901 287.067 291.634 276.4C291.634 265.467 291.501 256.667 291.234 250C291.234 243.067 291.234 239.6 291.234 239.6C293.634 239.333 297.634 239.067 303.234 238.8C309.101 238.267 315.501 238.267 322.434 238.8C329.368 239.333 336.034 240.667 342.434 242.8C349.101 244.667 354.701 247.733 359.234 252C364.034 256.267 366.834 262 367.634 269.2C368.968 279.333 369.501 292.933 369.234 310C368.968 326.8 368.568 345.2 368.034 365.2C367.501 384.933 367.634 404.4 368.434 423.6ZM633.219 413.2C633.485 424.933 635.219 433.2 638.419 438C641.885 442.533 643.619 444.8 643.619 444.8C643.619 444.8 641.219 446.533 636.419 450C631.885 453.2 625.752 456.533 618.019 460C610.285 463.467 601.619 465.2 592.019 465.2C577.885 465.2 568.685 461.333 564.419 453.6C560.152 445.867 557.885 435.867 557.619 423.6C557.619 421.467 557.752 416.8 558.019 409.6C558.285 402.4 558.419 394.267 558.419 385.2C558.685 375.867 558.685 367.333 558.419 359.6C558.152 351.6 557.619 346 556.819 342.8C553.885 332.133 548.152 327.467 539.619 328.8C532.952 329.6 526.685 333.467 520.819 340.4C514.952 347.067 510.152 355.067 506.419 364.4C502.685 373.733 500.819 382.533 500.819 390.8C500.819 395.067 500.552 399.333 500.019 403.6C499.752 407.6 499.485 411.333 499.219 414.8C498.952 417.2 499.219 420.133 500.019 423.6C501.085 427.067 502.952 429.867 505.619 432C503.752 435.2 500.019 439.333 494.419 444.4C489.085 449.467 483.219 454.133 476.819 458.4C470.685 462.4 465.352 464.667 460.819 465.2C456.552 465.467 451.485 464.133 445.619 461.2C440.019 458.267 435.085 453.867 430.819 448C426.819 442.133 424.685 435.067 424.419 426.8C424.419 424.667 424.419 419.733 424.419 412C424.685 404.267 424.819 394.933 424.819 384C425.085 373.067 425.219 361.467 425.219 349.2C425.485 336.933 425.619 325.067 425.619 313.6C425.619 302.133 425.619 292.267 425.619 284C425.619 276.8 424.685 269.867 422.819 263.2C421.219 256.267 419.485 250.667 417.619 246.4C416.019 241.867 415.219 239.6 415.219 239.6C417.619 239.067 421.752 238.667 427.619 238.4C433.752 238.133 440.552 238.267 448.019 238.8C455.485 239.333 462.819 240.533 470.019 242.4C477.485 244.267 483.752 247.2 488.819 251.2C494.152 255.2 499.485 257.733 504.819 258.8C510.419 259.6 514.819 259.067 518.019 257.2C527.352 251.067 536.819 245.733 546.419 241.2C556.019 236.667 565.352 233.867 574.419 232.8C578.952 232.267 584.285 232.533 590.419 233.6C596.552 234.4 602.552 236.4 608.419 239.6C614.552 242.8 619.752 247.333 624.019 253.2C628.552 259.067 631.352 266.533 632.419 275.6C634.285 291.067 634.819 310 634.019 332.4C633.219 354.533 632.952 381.467 633.219 413.2ZM877.366 363.6C884.032 368.133 888.299 374.667 890.166 383.2C892.299 391.467 892.032 400.533 889.366 410.4C886.966 420.267 882.032 429.733 874.566 438.8C867.099 447.6 856.966 454.933 844.166 460.8C831.632 466.667 816.432 469.733 798.566 470C783.632 470.267 768.966 468.4 754.566 464.4C740.432 460.4 727.499 454.267 715.766 446C704.299 437.733 694.966 427.067 687.766 414C680.566 400.933 676.566 385.333 675.766 367.2C675.499 363.467 675.499 359.6 675.766 355.6C676.032 351.6 676.299 347.467 676.566 343.2C676.566 342.133 676.566 341.067 676.566 340C676.832 338.933 677.099 337.867 677.366 336.8C680.032 320.8 685.499 306.133 693.766 292.8C702.299 279.467 712.699 268.133 724.966 258.8C737.232 249.467 750.299 242.667 764.166 238.4C778.299 233.867 792.166 232.267 805.766 233.6C826.832 235.733 843.099 241.333 854.566 250.4C866.299 259.467 873.899 270.667 877.366 284C881.099 297.067 881.232 311.2 877.766 326.4C875.899 333.867 871.632 341.333 864.966 348.8C858.566 356 850.566 362.533 840.966 368.4C831.366 374 821.099 378.4 810.166 381.6C799.499 384.533 789.099 385.733 778.966 385.2C773.899 384.933 771.232 386.533 770.966 390C770.699 393.2 772.166 396.8 775.366 400.8C778.566 404.533 782.832 407.067 788.166 408.4C800.699 411.067 812.432 411.2 823.366 408.8C834.566 406.133 843.099 402.533 848.966 398C853.766 394.267 858.832 389.333 864.166 383.2C869.499 376.8 873.899 370.267 877.366 363.6ZM789.766 323.2C795.899 322.667 801.232 320.8 805.766 317.6C810.566 314.133 812.966 310.533 812.966 306.8C813.232 301.467 811.899 297.2 808.966 294C806.299 290.533 801.632 288.933 794.966 289.2C787.499 289.467 780.299 290.533 773.366 292.4C766.432 294.267 762.299 298.133 760.966 304C760.166 308 761.366 311.467 764.566 314.4C767.766 317.333 771.766 319.6 776.566 321.2C781.366 322.533 785.766 323.2 789.766 323.2ZM1144.61 391.6C1144.88 397.467 1145.28 404.667 1145.81 413.2C1146.61 421.733 1148.35 430 1151.01 438C1153.68 446 1157.95 452.4 1163.81 457.2C1157.15 461.733 1150.35 464.933 1143.41 466.8C1136.48 468.933 1129.68 469.467 1123.01 468.4C1121.15 467.867 1119.15 467.2 1117.01 466.4C1114.88 465.867 1111.95 465.067 1108.21 464C1102.08 462.133 1094.88 461.733 1086.61 462.8C1078.35 463.867 1069.68 465.2 1060.61 466.8C1051.81 468.667 1043.15 469.6 1034.61 469.6C1020.75 469.6 1006.88 467.2 993.013 462.4C979.146 457.333 966.613 449.6 955.413 439.2C944.213 428.8 935.679 415.6 929.813 399.6C923.946 383.6 922.213 364.4 924.613 342C926.213 326.533 930.613 312.4 937.813 299.6C945.013 286.533 953.813 275.333 964.213 266C974.879 256.4 986.079 249.067 997.813 244C1009.81 238.667 1021.41 236.133 1032.61 236.4C1041.15 236.667 1047.68 236.933 1052.21 237.2C1057.01 237.467 1063.15 238.133 1070.61 239.2C1075.15 239.733 1080.88 239.067 1087.81 237.2C1094.75 235.333 1101.68 233.333 1108.61 231.2C1115.81 228.8 1121.95 227.6 1127.01 227.6C1134.75 227.333 1140.21 227.6 1143.41 228.4C1146.61 228.933 1149.28 229.467 1151.41 230C1149.81 234.8 1148.48 242 1147.41 251.6C1146.35 261.2 1145.55 272.133 1145.01 284.4C1144.75 296.4 1144.48 308.933 1144.21 322C1143.95 335.067 1143.81 347.6 1143.81 359.6C1144.08 371.6 1144.35 382.267 1144.61 391.6ZM994.213 354.8C994.746 368.133 997.146 378.533 1001.41 386C1005.95 393.2 1011.28 398.267 1017.41 401.2C1023.81 404.133 1029.95 405.6 1035.81 405.6C1047.55 405.867 1056.21 401.333 1061.81 392C1067.41 382.667 1070.08 369.733 1069.81 353.2C1069.81 348.667 1069.28 343.333 1068.21 337.2C1067.41 331.067 1065.81 325.067 1063.41 319.2C1061.28 313.333 1058.21 308.4 1054.21 304.4C1050.48 300.4 1045.55 298.4 1039.41 298.4C1027.15 298.4 1016.35 302.933 1007.01 312C997.946 321.067 993.679 335.333 994.213 354.8ZM1324.09 232.4C1329.42 231.067 1334.35 232.4 1338.89 236.4C1343.42 240.4 1347.42 245.867 1350.89 252.8C1354.62 259.467 1357.69 266.4 1360.09 273.6C1362.49 280.533 1364.35 286.4 1365.69 291.2C1367.02 296 1367.69 298.4 1367.69 298.4C1367.69 298.4 1364.49 299.067 1358.09 300.4C1351.95 301.467 1344.22 303.733 1334.89 307.2C1325.82 310.4 1316.75 315.333 1307.69 322C1302.35 326 1297.29 330.8 1292.49 336.4C1287.69 342 1283.55 349.2 1280.09 358C1276.62 366.533 1274.09 377.867 1272.49 392C1271.69 399.2 1271.55 406.667 1272.09 414.4C1272.62 422.133 1272.89 428.667 1272.89 434C1273.15 438.8 1273.82 442.267 1274.89 444.4C1276.22 446.267 1277.29 447.867 1278.09 449.2C1274.62 452.4 1268.22 456 1258.89 460C1249.82 463.733 1239.82 465.6 1228.89 465.6C1218.22 465.6 1210.35 462.133 1205.29 455.2C1200.22 448.267 1197.69 438.667 1197.69 426.4C1197.69 423.467 1197.55 417.067 1197.29 407.2C1197.29 397.067 1197.15 384.933 1196.89 370.8C1196.89 356.667 1196.75 342 1196.49 326.8C1196.49 311.6 1196.35 297.467 1196.09 284.4C1196.09 271.067 1195.95 260.267 1195.69 252C1195.69 243.733 1195.69 239.6 1195.69 239.6C1198.35 239.067 1202.89 238.667 1209.29 238.4C1215.95 238.133 1223.15 238.4 1230.89 239.2C1238.62 240 1245.82 241.867 1252.49 244.8C1255.69 246.133 1259.95 247.467 1265.29 248.8C1270.89 249.867 1276.22 250.4 1281.29 250.4C1286.62 250.4 1290.49 249.6 1292.89 248C1297.95 244.267 1303.02 241.067 1308.09 238.4C1313.42 235.733 1318.75 233.733 1324.09 232.4Z"
        fill="#2B3232" />
</svg>
    