<svg width="3263" height="3029" viewBox="0 0 3263 3029" fill="none"
    xmlns="http://www.w3.org/2000/svg">
    <ellipse cx="1631.94" cy="1516" rx="1301.54" ry="1261" stroke="#FFB34B" stroke-width="16"
        stroke-linecap="round" stroke-dasharray="3.72 7.43" />
    <ellipse cx="1617.92" cy="319.565" rx="282.33" ry="273.544" fill="white" />
    <ellipse cx="1617.92" cy="319.565" rx="282.33" ry="273.544" fill="white" />
    <ellipse cx="1617.88" cy="319.614" rx="329.881" ry="319.614" fill="white" fill-opacity="0.3" />
    <ellipse cx="329.916" cy="1515.57" rx="282.33" ry="273.544" fill="white" />
    <ellipse cx="329.916" cy="1515.57" rx="282.33" ry="273.544" fill="white" />
    <ellipse cx="329.881" cy="1515.61" rx="329.881" ry="319.614" fill="white" fill-opacity="0.3" />
    <ellipse cx="1617.92" cy="2708.57" rx="282.33" ry="273.544" fill="white" />
    <ellipse cx="1617.92" cy="2708.57" rx="282.33" ry="273.544" fill="white" />
    <ellipse cx="1617.88" cy="2708.61" rx="329.881" ry="319.614" fill="white" fill-opacity="0.3" />
    <ellipse cx="2932.94" cy="1515.65" rx="282.33" ry="273.544" fill="white" />
    <ellipse cx="2932.94" cy="1515.65" rx="282.33" ry="273.544" fill="white" />
    <ellipse cx="2932.88" cy="1515.61" rx="329.881" ry="319.614" fill="white" fill-opacity="0.3" />
    <g clip-path="url(#clip0_228_2)">
        <path d="M1966 1158H1296V1869H1966V1158Z" fill="#4D7E3E" />
        <g clip-path="url(#clip1_228_2)">
            <g clip-path="url(#clip2_228_2)">
                <g clip-path="url(#clip3_228_2)">
                    <path
                        d="M1631.14 1424.9C1664.33 1424.9 1691.24 1396.22 1691.24 1360.85C1691.24 1325.47 1664.33 1296.8 1631.14 1296.8C1597.95 1296.8 1571.04 1325.47 1571.04 1360.85C1571.04 1396.22 1597.95 1424.9 1631.14 1424.9Z"
                        fill="white" />
                    <path
                        d="M1606.3 1696.43H1569.84C1562.06 1696.43 1555.05 1693.46 1550.09 1688.69C1548.21 1687.11 1545.75 1684.38 1544.25 1680.14C1543.19 1677.48 1542.6 1674.61 1542.6 1671.61C1542.6 1669.05 1543.03 1666.58 1543.82 1664.26C1544.14 1662.82 1544.54 1661.32 1545.05 1659.75L1545.96 1659.68C1550.59 1651.99 1559.55 1646.79 1569.84 1646.79H1584.67L1589.9 1634.17H1569.84C1554.8 1634.17 1542.6 1623.05 1542.6 1609.35C1542.6 1595.64 1554.79 1584.52 1569.84 1584.52H1610.49L1632.51 1531.4L1595.46 1445.46C1595.46 1445.46 1514.54 1462.19 1500.37 1532.43L1487.29 1681.69C1487.29 1681.69 1481.84 1722.66 1499.28 1731.45C1516.72 1740.23 1600.63 1740.23 1600.63 1740.23C1600.63 1740.23 1626.58 1716.18 1606.3 1696.43Z"
                        fill="white" />
                    <path
                        d="M1774.99 1681.69L1761.91 1532.43C1747.74 1462.18 1667.38 1443.13 1667.38 1443.13L1639.05 1531.4L1617.79 1584.52H1692.44C1707.48 1584.52 1719.68 1595.63 1719.68 1609.34C1719.68 1623.05 1707.48 1634.16 1692.44 1634.16H1597.92L1592.88 1646.78H1692.44C1702.76 1646.78 1711.74 1652.02 1716.36 1659.72L1717.23 1659.74C1717.75 1661.32 1718.15 1662.83 1718.47 1664.26C1719.26 1666.58 1719.69 1669.05 1719.69 1671.61C1719.69 1674.58 1719.11 1677.44 1718.05 1680.08C1716.56 1684.35 1714.08 1687.11 1712.19 1688.69C1707.23 1693.46 1700.22 1696.43 1692.44 1696.43H1655.98C1635.7 1716.19 1661.66 1740.23 1661.66 1740.23C1661.66 1740.23 1745.56 1740.23 1763 1731.45C1780.44 1722.67 1774.99 1681.69 1774.99 1681.69Z"
                        fill="white" />
                </g>
                <path d="M1933.01 1428.85H1329.28V1598.31H1933.01V1428.85Z" fill="#4D7E3E" />
                <g clip-path="url(#clip4_228_2)">
                    <g clip-path="url(#clip5_228_2)">
                        <g clip-path="url(#clip6_228_2)">
                            <g clip-path="url(#clip7_228_2)">
                                <g clip-path="url(#clip8_228_2)">
                                    <g clip-path="url(#clip9_228_2)">
                                        <path
                                            d="M1391.61 1535.09C1385.59 1535.09 1379.97 1534.38 1374.75 1532.96C1369.53 1531.55 1365.85 1530.12 1363.72 1528.71C1361.57 1527.29 1360.15 1526.28 1359.45 1525.68C1357.63 1524.11 1356.72 1521.95 1356.72 1519.19C1356.72 1517.02 1356.96 1514.97 1357.45 1513.02C1358.36 1509.37 1360.01 1507.54 1362.39 1507.54C1363.17 1507.61 1365.64 1508.47 1369.81 1510.11C1373.98 1511.75 1377.25 1512.58 1379.63 1512.58C1383.2 1512.58 1384.99 1511.08 1384.99 1508.1C1384.99 1506.3 1384.11 1504.64 1382.36 1503.1C1380.61 1501.58 1378.5 1500.1 1376.02 1498.69C1373.52 1497.27 1371.01 1495.64 1368.49 1493.8C1365.97 1491.98 1363.83 1489.44 1362.08 1486.19C1360.33 1482.94 1359.45 1479.16 1359.45 1474.83C1359.45 1467.66 1362.75 1462.03 1369.33 1457.96C1375.92 1453.9 1384.43 1451.86 1394.87 1451.86C1405.31 1451.86 1413.6 1453 1419.74 1455.27C1425.86 1457.55 1428.92 1460.71 1428.92 1464.75C1428.92 1467.66 1428.29 1470.21 1427.03 1472.41C1425.77 1474.62 1424.44 1475.72 1423.04 1475.72C1422.55 1475.72 1420.92 1475.14 1418.16 1473.98C1415.39 1472.83 1412.88 1472.25 1410.64 1472.25C1406.22 1472.25 1404.02 1474.08 1404.02 1477.74C1404.02 1479.53 1405.07 1481.17 1407.17 1482.67C1409.27 1484.16 1411.81 1485.6 1414.8 1486.97C1417.77 1488.36 1420.76 1489.91 1423.77 1491.63C1426.79 1493.35 1429.34 1495.7 1431.45 1498.69C1433.55 1501.67 1434.6 1505.3 1434.6 1509.55C1434.6 1513.81 1433.32 1517.69 1430.77 1521.2C1428.21 1524.71 1424.83 1527.44 1420.62 1529.38C1412.28 1533.19 1402.61 1535.09 1391.61 1535.09V1535.09ZM1451.84 1532.85C1449.88 1532.85 1448.21 1532.16 1446.85 1530.77C1445.48 1529.39 1444.61 1527.12 1444.23 1523.93C1443.83 1520.77 1443.64 1511.25 1443.64 1495.37C1443.64 1479.51 1443.88 1469.15 1444.37 1464.3C1444.94 1458.02 1447.42 1454.81 1451.84 1454.66C1456.88 1454.51 1477.8 1454.44 1514.58 1454.44C1518.72 1454.44 1520.78 1457.24 1520.78 1462.84C1520.78 1467.25 1518.96 1469.45 1515.32 1469.45H1492.2C1490.72 1469.45 1489.55 1469.97 1488.69 1471.02C1487.8 1472.06 1487.36 1473.41 1487.36 1475.05V1483.12C1487.36 1485.36 1488.31 1486.48 1490.2 1486.48H1509.33C1510.45 1486.48 1511.3 1486.59 1511.89 1486.81C1512.5 1487.04 1513.04 1487.69 1513.53 1488.76C1514.02 1489.85 1514.27 1491.63 1514.27 1494.09C1514.27 1496.56 1513.87 1498.2 1513.07 1499.02C1512.26 1499.84 1510.94 1500.25 1509.12 1500.25H1491.99C1490.24 1500.25 1489.03 1500.72 1488.37 1501.64C1487.7 1502.58 1487.36 1504.02 1487.36 1505.97V1511.46C1487.36 1514.67 1488.8 1516.27 1491.67 1516.27H1517.84C1519.1 1516.27 1520.22 1516.66 1521.2 1517.44C1522.19 1518.23 1522.68 1519.95 1522.68 1522.59C1522.68 1525.25 1522.08 1527.62 1520.89 1529.71C1519.7 1531.81 1518.3 1532.85 1516.69 1532.85H1451.84ZM1576.07 1477.85L1576.28 1498.57C1576.28 1499.99 1577.01 1500.7 1578.49 1500.7C1582.83 1500.7 1586.25 1499.42 1588.74 1496.85C1591.22 1494.27 1592.46 1491.22 1592.46 1487.71C1592.46 1484.2 1591.29 1481.17 1588.95 1478.64C1586.6 1476.1 1583.15 1474.83 1578.59 1474.83C1576.91 1474.83 1576.07 1475.83 1576.07 1477.85V1477.85ZM1603.61 1511.34C1604.94 1512.84 1609.67 1518.48 1617.79 1528.26C1618.28 1528.93 1618.53 1529.53 1618.53 1530.05C1618.53 1531.99 1617.72 1532.96 1616.11 1532.96C1612.4 1533.04 1608.67 1533.08 1604.93 1533.08C1601.17 1533.08 1597.44 1533.04 1593.73 1532.96C1591.69 1532.96 1589.84 1532.11 1588.16 1530.39L1579.12 1515.82C1578.77 1515.38 1578.34 1515.08 1577.86 1514.93C1576.73 1514.48 1576.17 1514.97 1576.17 1516.38V1527.81C1576.17 1531.02 1574.2 1532.74 1570.25 1532.96C1566.28 1533.19 1561.95 1533.3 1557.25 1533.3C1552.56 1533.3 1546.89 1533.11 1540.23 1532.74C1538.2 1532.59 1536.57 1531.84 1535.35 1530.5C1534.12 1529.15 1533.4 1527.62 1533.19 1525.91C1532.63 1519.34 1532.35 1509.01 1532.35 1494.92C1532.35 1480.85 1532.56 1470.61 1532.98 1464.19C1533.4 1457.76 1536.44 1454.51 1542.12 1454.44C1547.44 1454.37 1554.7 1454.33 1563.88 1454.33C1573.06 1454.33 1580.66 1454.4 1586.68 1454.55C1595.37 1454.7 1602.48 1458.14 1608.02 1464.86C1613.55 1471.58 1616.32 1479.16 1616.32 1487.6C1616.32 1492.53 1615.26 1497.08 1613.13 1501.26C1610.98 1505.45 1607.81 1508.81 1603.61 1511.34V1511.34ZM1689.89 1527.03C1688.63 1529.56 1686.45 1531.55 1683.34 1532.96C1680.21 1534.38 1676.83 1535.09 1673.18 1535.09C1669.54 1535.09 1666.21 1534.42 1663.2 1533.08C1660.19 1531.73 1658.01 1529.79 1656.68 1527.25C1646.17 1506.57 1636.4 1486.25 1627.36 1466.31C1626.31 1463.92 1625.78 1462.09 1625.78 1460.82C1625.78 1456.79 1627.5 1454.78 1630.93 1454.78L1661.31 1454.55C1663.9 1454.55 1665.88 1455.04 1667.26 1456.01C1668.62 1456.98 1669.82 1458.92 1670.87 1461.83L1681.07 1489.61C1681.49 1490.81 1682.26 1491.41 1683.38 1491.41C1684.5 1491.41 1685.34 1490.81 1685.9 1489.61L1699.67 1457.8C1700.58 1455.78 1701.56 1454.66 1702.61 1454.44C1703.03 1454.37 1703.77 1454.33 1704.82 1454.33L1716.91 1454.55C1718.24 1454.55 1719.18 1455.22 1719.74 1456.57C1719.95 1457.09 1720.06 1457.73 1720.06 1458.47C1720.06 1459.22 1719.28 1461.27 1717.7 1464.63C1716.12 1467.99 1712.02 1477.33 1705.41 1492.64C1698.78 1507.95 1693.61 1519.41 1689.89 1527.03V1527.03ZM1767.25 1535.09C1754.64 1535.09 1744.67 1531.67 1737.36 1524.83C1730.03 1518 1726.37 1508.36 1726.37 1495.89C1726.37 1488.27 1727.54 1481.59 1729.9 1475.83C1732.24 1470.08 1735.54 1465.49 1739.82 1462.06C1748.3 1455.26 1759.47 1451.86 1773.35 1451.86C1782.32 1451.86 1791.28 1453.17 1800.25 1455.78C1803.69 1456.98 1805.4 1459.93 1805.4 1464.63C1805.4 1471.06 1803.51 1474.27 1799.73 1474.27C1799.1 1474.27 1797.03 1473.97 1793.53 1473.37C1790.02 1472.77 1787.57 1472.47 1786.17 1472.47C1781.19 1472.47 1777.36 1474.32 1774.67 1478.01C1771.97 1481.71 1770.61 1486.12 1770.61 1491.25C1770.61 1496.36 1771.87 1500.85 1774.4 1504.74C1776.92 1508.62 1780.35 1510.63 1784.7 1510.78C1787.64 1510.93 1792.86 1511.01 1800.36 1511.01C1804 1511.01 1806 1512.84 1806.35 1516.5C1806.56 1517.84 1806.66 1519.2 1806.66 1520.57C1806.66 1521.96 1806.56 1523.37 1806.35 1524.79C1805.93 1527.47 1803.97 1529.43 1800.46 1530.66C1796.96 1531.89 1791.91 1532.95 1785.33 1533.81C1778.74 1534.67 1772.72 1535.09 1767.25 1535.09V1535.09ZM1889.8 1454.44H1903.46C1904.87 1454.44 1905.57 1455.19 1905.57 1456.68C1905.57 1457.65 1905.18 1458.7 1904.41 1459.82L1880.87 1499.58C1880.87 1505.63 1880.69 1514.44 1880.34 1526.02C1880.27 1527.66 1879.61 1529.17 1878.34 1530.54C1877.08 1531.93 1875.4 1532.7 1873.3 1532.85C1869.31 1533.15 1864.51 1533.3 1858.9 1533.3C1853.29 1533.3 1848.14 1533.15 1843.45 1532.85C1841.35 1532.7 1839.67 1531.93 1838.4 1530.54C1837.14 1529.17 1836.48 1527.66 1836.41 1526.02C1836.27 1518.48 1836.2 1510.63 1836.2 1502.49L1814.97 1464.52C1813.92 1462.8 1813.39 1461.38 1813.39 1460.26C1813.39 1456.53 1815.11 1454.66 1818.54 1454.66L1854.49 1454.44C1856.52 1454.44 1858.04 1454.78 1859.07 1455.45C1860.08 1456.12 1861.28 1457.5 1862.68 1459.59L1869.09 1474.27C1870.22 1475.91 1871.15 1476.73 1871.89 1476.73C1872.62 1476.73 1873.51 1476.06 1874.56 1474.71L1885.28 1456.79C1886.47 1455.22 1887.98 1454.44 1889.8 1454.44V1454.44Z"
                                            fill="white" />
                                    </g>
                                </g>
                                <g clip-path="url(#clip10_228_2)">
                                    <g clip-path="url(#clip11_228_2)">
                                        <path
                                            d="M1463.3 1568.23L1462.89 1574.31H1461.57L1462.57 1558.96H1464.39L1466.27 1564.59L1468.81 1572.4C1469.79 1569.51 1470.69 1566.91 1471.5 1564.59L1473.47 1558.96H1475.28L1476.5 1574.31H1475.17L1474.68 1568.23L1474.11 1560.81C1473.25 1563.34 1472.4 1565.82 1471.56 1568.23L1469.58 1573.92H1468.02L1466.14 1568.23L1463.75 1560.97C1463.62 1563.26 1463.47 1565.68 1463.3 1568.23ZM1482.84 1573.15C1483.7 1573.15 1484.38 1572.9 1484.9 1572.4C1485.41 1571.9 1485.66 1571.26 1485.66 1570.49V1568.82H1483.55C1482.54 1568.82 1481.78 1569.03 1481.28 1569.45C1480.79 1569.87 1480.54 1570.39 1480.54 1571.01C1480.54 1571.65 1480.73 1572.16 1481.12 1572.56C1481.52 1572.95 1482.09 1573.15 1482.84 1573.15ZM1485.66 1574.31V1572.97C1485.07 1573.94 1484.03 1574.42 1482.55 1574.42C1481.55 1574.42 1480.73 1574.11 1480.1 1573.48C1479.46 1572.85 1479.15 1572.04 1479.15 1571.06C1479.15 1569.95 1479.55 1569.08 1480.35 1568.47C1481.16 1567.86 1482.22 1567.55 1483.55 1567.55H1485.66V1567.02C1485.66 1565.99 1485.46 1565.21 1485.04 1564.69C1484.63 1564.17 1483.94 1563.91 1482.97 1563.91C1481.85 1563.91 1480.84 1564.23 1479.94 1564.88V1563.38C1480.77 1562.85 1481.78 1562.59 1482.99 1562.59C1485.64 1562.59 1486.97 1564.07 1486.97 1567.02V1574.31H1485.66ZM1491.39 1558.21V1574.31H1490.09V1558.21H1491.39ZM1497.71 1562.77L1493.29 1568.25L1497.86 1574.31H1496.24L1491.71 1568.25L1496.11 1562.77H1497.71ZM1501.34 1562.77V1574.31H1500.04V1562.77H1501.34ZM1501.33 1558.38C1501.51 1558.57 1501.6 1558.81 1501.6 1559.08C1501.6 1559.35 1501.51 1559.58 1501.33 1559.76C1501.15 1559.94 1500.93 1560.03 1500.68 1560.03C1500.42 1560.03 1500.21 1559.94 1500.04 1559.76C1499.87 1559.58 1499.78 1559.35 1499.78 1559.08C1499.78 1558.81 1499.87 1558.57 1500.04 1558.38C1500.21 1558.19 1500.42 1558.1 1500.68 1558.1C1500.93 1558.1 1501.15 1558.19 1501.33 1558.38ZM1512.86 1566.25V1574.31H1511.55V1566.68C1511.55 1565.79 1511.34 1565.1 1510.91 1564.63C1510.48 1564.16 1509.92 1563.93 1509.22 1563.93C1508.34 1563.93 1507.58 1564.29 1506.94 1565.01C1506.3 1565.73 1505.98 1566.71 1505.98 1567.94V1574.31H1504.67V1562.77H1505.98V1564.75C1506.65 1563.31 1507.79 1562.59 1509.42 1562.59C1510.46 1562.59 1511.29 1562.93 1511.92 1563.61C1512.54 1564.29 1512.86 1565.17 1512.86 1566.25ZM1524.37 1562.77V1573.42C1524.37 1575.17 1523.93 1576.48 1523.05 1577.35C1522.16 1578.22 1521.02 1578.66 1519.63 1578.66C1518.39 1578.66 1517.33 1578.44 1516.47 1578V1576.63C1517.35 1577.1 1518.37 1577.34 1519.52 1577.34C1520.6 1577.34 1521.47 1577.03 1522.11 1576.4C1522.75 1575.77 1523.07 1574.77 1523.07 1573.42V1571.92C1522.34 1573.33 1521.26 1574.04 1519.82 1574.04C1518.57 1574.04 1517.5 1573.54 1516.62 1572.56C1515.75 1571.57 1515.31 1570.24 1515.31 1568.55C1515.31 1566.82 1515.71 1565.39 1516.52 1564.27C1517.32 1563.15 1518.38 1562.59 1519.69 1562.59C1521.24 1562.59 1522.37 1563.32 1523.07 1564.79V1562.77H1524.37ZM1516.68 1568.48C1516.68 1569.86 1517.01 1570.91 1517.66 1571.63C1518.32 1572.36 1519.04 1572.72 1519.84 1572.72C1520.65 1572.72 1521.39 1572.38 1522.06 1571.7C1522.73 1571.03 1523.07 1569.99 1523.07 1568.6C1523.07 1567 1522.75 1565.82 1522.11 1565.05C1521.47 1564.29 1520.75 1563.91 1519.95 1563.91C1518.94 1563.91 1518.14 1564.33 1517.56 1565.18C1516.97 1566.03 1516.68 1567.13 1516.68 1568.48ZM1534.04 1558.21V1574.31H1532.74V1558.21H1534.04ZM1538.77 1562.77V1574.31H1537.46V1562.77H1538.77ZM1538.76 1558.38C1538.93 1558.57 1539.02 1558.81 1539.02 1559.08C1539.02 1559.35 1538.93 1559.58 1538.76 1559.76C1538.58 1559.94 1538.36 1560.03 1538.1 1560.03C1537.85 1560.03 1537.63 1559.94 1537.46 1559.76C1537.29 1559.58 1537.21 1559.35 1537.21 1559.08C1537.21 1558.81 1537.29 1558.57 1537.46 1558.38C1537.63 1558.19 1537.85 1558.1 1538.1 1558.1C1538.36 1558.1 1538.58 1558.19 1538.76 1558.38ZM1546.88 1562.77V1563.95H1544.41V1574.31H1543.1V1563.95H1541.12V1562.77H1543.1V1561.54C1543.1 1560.49 1543.36 1559.66 1543.87 1559.03C1544.38 1558.41 1545.1 1558.1 1546.03 1558.1C1546.3 1558.1 1546.59 1558.15 1546.9 1558.24V1559.6C1546.61 1559.48 1546.29 1559.42 1545.96 1559.42C1545.54 1559.42 1545.17 1559.6 1544.86 1559.95C1544.56 1560.31 1544.41 1560.85 1544.41 1561.56V1562.77H1546.88ZM1556.8 1572.33V1573.74C1555.94 1574.2 1554.94 1574.42 1553.81 1574.42C1552.2 1574.42 1550.89 1573.89 1549.88 1572.82C1548.88 1571.75 1548.38 1570.34 1548.38 1568.6C1548.38 1566.74 1548.82 1565.29 1549.7 1564.22C1550.59 1563.16 1551.73 1562.63 1553.14 1562.63C1554.47 1562.63 1555.52 1563.09 1556.3 1564.02C1557.09 1564.95 1557.48 1566.25 1557.48 1567.94C1557.48 1568.45 1557.45 1568.86 1557.39 1569.17H1549.75C1549.85 1570.44 1550.26 1571.41 1550.99 1572.09C1551.71 1572.77 1552.67 1573.1 1553.87 1573.1C1555.09 1573.1 1556.07 1572.85 1556.8 1572.33ZM1553.1 1563.93C1552.19 1563.93 1551.43 1564.27 1550.81 1564.95C1550.2 1565.64 1549.85 1566.62 1549.75 1567.89H1556.13V1567.37C1556.13 1566.32 1555.86 1565.48 1555.31 1564.86C1554.76 1564.24 1554.03 1563.93 1553.1 1563.93ZM1573.05 1572.33V1573.74C1572.19 1574.2 1571.2 1574.42 1570.06 1574.42C1568.45 1574.42 1567.14 1573.89 1566.14 1572.82C1565.13 1571.75 1564.63 1570.34 1564.63 1568.6C1564.63 1566.74 1565.07 1565.29 1565.96 1564.22C1566.84 1563.16 1567.99 1562.63 1569.4 1562.63C1570.72 1562.63 1571.77 1563.09 1572.56 1564.02C1573.34 1564.95 1573.73 1566.25 1573.73 1567.94C1573.73 1568.45 1573.7 1568.86 1573.65 1569.17H1566C1566.1 1570.44 1566.51 1571.41 1567.24 1572.09C1567.96 1572.77 1568.93 1573.1 1570.12 1573.1C1571.35 1573.1 1572.32 1572.85 1573.05 1572.33ZM1569.35 1563.93C1568.44 1563.93 1567.68 1564.27 1567.07 1564.95C1566.46 1565.64 1566.1 1566.62 1566 1567.89H1572.39V1567.37C1572.39 1566.32 1572.11 1565.48 1571.57 1564.86C1571.02 1564.24 1570.28 1563.93 1569.35 1563.93ZM1579.52 1573.15C1580.38 1573.15 1581.06 1572.9 1581.57 1572.4C1582.09 1571.9 1582.34 1571.26 1582.34 1570.49V1568.82H1580.23C1579.22 1568.82 1578.46 1569.03 1577.96 1569.45C1577.46 1569.87 1577.22 1570.39 1577.22 1571.01C1577.22 1571.65 1577.41 1572.16 1577.8 1572.56C1578.19 1572.95 1578.77 1573.15 1579.52 1573.15ZM1582.34 1574.31V1572.97C1581.74 1573.94 1580.7 1574.42 1579.22 1574.42C1578.23 1574.42 1577.41 1574.11 1576.78 1573.48C1576.14 1572.85 1575.83 1572.04 1575.83 1571.06C1575.83 1569.95 1576.23 1569.08 1577.03 1568.47C1577.84 1567.86 1578.9 1567.55 1580.23 1567.55H1582.34V1567.02C1582.34 1565.99 1582.14 1565.21 1581.72 1564.69C1581.31 1564.17 1580.62 1563.91 1579.65 1563.91C1578.53 1563.91 1577.51 1564.23 1576.62 1564.88V1563.38C1577.44 1562.85 1578.46 1562.59 1579.67 1562.59C1582.32 1562.59 1583.65 1564.07 1583.65 1567.02V1574.31H1582.34ZM1593.07 1571.35C1593.07 1572.31 1592.76 1573.06 1592.14 1573.61C1591.52 1574.17 1590.67 1574.45 1589.58 1574.45C1588.27 1574.45 1587.22 1574.22 1586.42 1573.76V1572.33C1587.38 1572.91 1588.4 1573.2 1589.5 1573.2C1590.23 1573.2 1590.78 1573.04 1591.15 1572.72C1591.53 1572.4 1591.72 1571.98 1591.72 1571.46C1591.72 1570.86 1591.52 1570.39 1591.13 1570.05C1590.74 1569.72 1590.1 1569.36 1589.2 1568.98C1588.33 1568.62 1587.64 1568.19 1587.13 1567.71C1586.62 1567.22 1586.36 1566.55 1586.36 1565.7C1586.36 1564.78 1586.68 1564.04 1587.32 1563.48C1587.96 1562.93 1588.77 1562.65 1589.73 1562.65C1590.9 1562.65 1591.8 1562.83 1592.43 1563.18V1564.57C1591.76 1564.16 1590.85 1563.95 1589.71 1563.95C1589.09 1563.95 1588.59 1564.11 1588.23 1564.42C1587.86 1564.73 1587.68 1565.14 1587.68 1565.64C1587.68 1565.94 1587.74 1566.21 1587.84 1566.43C1587.95 1566.66 1588.13 1566.87 1588.4 1567.06C1588.66 1567.25 1588.89 1567.39 1589.07 1567.48C1589.26 1567.57 1589.56 1567.71 1589.97 1567.89C1590.97 1568.32 1591.73 1568.78 1592.26 1569.29C1592.8 1569.8 1593.07 1570.49 1593.07 1571.35ZM1596.82 1562.77V1574.31H1595.52V1562.77H1596.82ZM1596.81 1558.38C1596.99 1558.57 1597.08 1558.81 1597.08 1559.08C1597.08 1559.35 1596.99 1559.58 1596.81 1559.76C1596.63 1559.94 1596.42 1560.03 1596.16 1560.03C1595.9 1560.03 1595.69 1559.94 1595.52 1559.76C1595.35 1559.58 1595.26 1559.35 1595.26 1559.08C1595.26 1558.81 1595.35 1558.57 1595.52 1558.38C1595.69 1558.19 1595.9 1558.1 1596.16 1558.1C1596.42 1558.1 1596.63 1558.19 1596.81 1558.38ZM1607.91 1572.33V1573.74C1607.06 1574.2 1606.06 1574.42 1604.92 1574.42C1603.31 1574.42 1602 1573.89 1601 1572.82C1600 1571.75 1599.49 1570.34 1599.49 1568.6C1599.49 1566.74 1599.93 1565.29 1600.82 1564.22C1601.7 1563.16 1602.85 1562.63 1604.26 1562.63C1605.58 1562.63 1606.64 1563.09 1607.42 1564.02C1608.2 1564.95 1608.59 1566.25 1608.59 1567.94C1608.59 1568.45 1608.57 1568.86 1608.51 1569.17H1600.86C1600.96 1570.44 1601.37 1571.41 1602.1 1572.09C1602.83 1572.77 1603.79 1573.1 1604.98 1573.1C1606.21 1573.1 1607.18 1572.85 1607.91 1572.33ZM1604.21 1563.93C1603.3 1563.93 1602.54 1564.27 1601.93 1564.95C1601.32 1565.64 1600.96 1566.62 1600.86 1567.89H1607.25V1567.37C1607.25 1566.32 1606.97 1565.48 1606.43 1564.86C1605.88 1564.24 1605.14 1563.93 1604.21 1563.93ZM1612.55 1567.87V1574.31H1611.24V1562.77H1612.55V1564.73C1613.14 1563.33 1614.16 1562.63 1615.58 1562.63C1615.68 1562.63 1615.86 1562.65 1616.11 1562.68V1564.09C1615.83 1564 1615.54 1563.95 1615.26 1563.95C1614.49 1563.95 1613.84 1564.36 1613.32 1565.17C1612.81 1565.98 1612.55 1566.88 1612.55 1567.87ZM1627.9 1562.77V1563.95H1625.42V1574.31H1624.12V1563.95H1622.13V1562.77H1624.12V1561.54C1624.12 1560.49 1624.38 1559.66 1624.89 1559.03C1625.4 1558.41 1626.12 1558.1 1627.05 1558.1C1627.32 1558.1 1627.61 1558.15 1627.92 1558.24V1559.6C1627.62 1559.48 1627.31 1559.42 1626.98 1559.42C1626.56 1559.42 1626.19 1559.6 1625.89 1559.95C1625.58 1560.31 1625.42 1560.85 1625.42 1561.56V1562.77H1627.9ZM1639.46 1568.6C1639.46 1570.31 1639.01 1571.73 1638.11 1572.84C1637.2 1573.96 1635.96 1574.52 1634.38 1574.52C1632.85 1574.52 1631.64 1573.95 1630.74 1572.83C1629.85 1571.71 1629.4 1570.3 1629.4 1568.6C1629.4 1566.91 1629.86 1565.49 1630.79 1564.34C1631.71 1563.18 1632.91 1562.61 1634.38 1562.61C1635.98 1562.61 1637.24 1563.17 1638.13 1564.3C1639.02 1565.43 1639.46 1566.87 1639.46 1568.6ZM1630.76 1568.6C1630.76 1569.86 1631.1 1570.94 1631.76 1571.84C1632.42 1572.74 1633.29 1573.2 1634.38 1573.2C1635.56 1573.2 1636.47 1572.75 1637.12 1571.86C1637.77 1570.97 1638.09 1569.89 1638.09 1568.6C1638.09 1567.26 1637.79 1566.15 1637.17 1565.26C1636.56 1564.37 1635.63 1563.93 1634.38 1563.93C1633.25 1563.93 1632.37 1564.38 1631.73 1565.29C1631.09 1566.21 1630.76 1567.31 1630.76 1568.6ZM1643.35 1567.87V1574.31H1642.04V1562.77H1643.35V1564.73C1643.95 1563.33 1644.96 1562.63 1646.38 1562.63C1646.48 1562.63 1646.66 1562.65 1646.92 1562.68V1564.09C1646.63 1564 1646.35 1563.95 1646.06 1563.95C1645.29 1563.95 1644.65 1564.36 1644.13 1565.17C1643.61 1565.98 1643.35 1566.88 1643.35 1567.87ZM1659.11 1572.58V1573.99C1658.7 1574.28 1658.22 1574.42 1657.68 1574.42C1655.63 1574.42 1654.6 1573.3 1654.6 1571.06V1563.95H1652.83V1562.77H1654.6V1559.88H1655.93V1562.77H1659.02V1563.95H1655.93V1571.12C1655.93 1572.44 1656.5 1573.1 1657.66 1573.1C1658.23 1573.1 1658.71 1572.93 1659.11 1572.58ZM1669.88 1566.25V1574.31H1668.57V1566.68C1668.57 1565.79 1668.36 1565.1 1667.93 1564.63C1667.51 1564.16 1666.94 1563.93 1666.25 1563.93C1665.36 1563.93 1664.6 1564.29 1663.96 1565.01C1663.32 1565.73 1663 1566.71 1663 1567.94V1574.31H1661.69V1558.21H1663V1564.75C1663.65 1563.31 1664.8 1562.59 1666.44 1562.59C1667.48 1562.59 1668.31 1562.93 1668.94 1563.61C1669.56 1564.29 1669.88 1565.17 1669.88 1566.25ZM1682.4 1568.6C1682.4 1570.31 1681.94 1571.73 1681.04 1572.84C1680.13 1573.96 1678.89 1574.52 1677.31 1574.52C1675.79 1574.52 1674.58 1573.95 1673.68 1572.83C1672.78 1571.71 1672.33 1570.3 1672.33 1568.6C1672.33 1566.91 1672.8 1565.49 1673.72 1564.34C1674.65 1563.18 1675.84 1562.61 1677.31 1562.61C1678.92 1562.61 1680.17 1563.17 1681.06 1564.3C1681.95 1565.43 1682.4 1566.87 1682.4 1568.6ZM1673.7 1568.6C1673.7 1569.86 1674.03 1570.94 1674.69 1571.84C1675.36 1572.74 1676.23 1573.2 1677.31 1573.2C1678.49 1573.2 1679.41 1572.75 1680.05 1571.86C1680.7 1570.97 1681.03 1569.89 1681.03 1568.6C1681.03 1567.26 1680.72 1566.15 1680.11 1565.26C1679.5 1564.37 1678.56 1563.93 1677.31 1563.93C1676.19 1563.93 1675.3 1564.38 1674.66 1565.29C1674.02 1566.21 1673.7 1567.31 1673.7 1568.6ZM1691.28 1571.35C1691.28 1572.31 1690.97 1573.06 1690.35 1573.61C1689.73 1574.17 1688.88 1574.45 1687.8 1574.45C1686.49 1574.45 1685.43 1574.22 1684.64 1573.76V1572.33C1685.59 1572.91 1686.62 1573.2 1687.72 1573.2C1688.44 1573.2 1688.99 1573.04 1689.37 1572.72C1689.75 1572.4 1689.94 1571.98 1689.94 1571.46C1689.94 1570.86 1689.74 1570.39 1689.35 1570.05C1688.96 1569.72 1688.31 1569.36 1687.42 1568.98C1686.55 1568.62 1685.86 1568.19 1685.34 1567.71C1684.83 1567.22 1684.58 1566.55 1684.58 1565.7C1684.58 1564.78 1684.9 1564.04 1685.54 1563.48C1686.18 1562.93 1686.98 1562.65 1687.95 1562.65C1689.12 1562.65 1690.01 1562.83 1690.64 1563.18V1564.57C1689.97 1564.16 1689.07 1563.95 1687.93 1563.95C1687.3 1563.95 1686.81 1564.11 1686.44 1564.42C1686.08 1564.73 1685.9 1565.14 1685.9 1565.64C1685.9 1565.94 1685.95 1566.21 1686.06 1566.43C1686.17 1566.66 1686.35 1566.87 1686.61 1567.06C1686.88 1567.25 1687.1 1567.39 1687.29 1567.48C1687.47 1567.57 1687.77 1567.71 1688.18 1567.89C1689.18 1568.32 1689.94 1568.78 1690.48 1569.29C1691.01 1569.8 1691.28 1570.49 1691.28 1571.35ZM1701.41 1572.33V1573.74C1700.55 1574.2 1699.55 1574.42 1698.41 1574.42C1696.8 1574.42 1695.5 1573.89 1694.5 1572.82C1693.49 1571.75 1692.99 1570.34 1692.99 1568.6C1692.99 1566.74 1693.43 1565.29 1694.31 1564.22C1695.2 1563.16 1696.34 1562.63 1697.75 1562.63C1699.08 1562.63 1700.13 1563.09 1700.91 1564.02C1701.7 1564.95 1702.09 1566.25 1702.09 1567.94C1702.09 1568.45 1702.06 1568.86 1702 1569.17H1694.36C1694.45 1570.44 1694.87 1571.41 1695.59 1572.09C1696.32 1572.77 1697.28 1573.1 1698.48 1573.1C1699.7 1573.1 1700.68 1572.85 1701.41 1572.33ZM1697.71 1563.93C1696.8 1563.93 1696.04 1564.27 1695.42 1564.95C1694.81 1565.64 1694.45 1566.62 1694.36 1567.89H1700.74V1567.37C1700.74 1566.32 1700.47 1565.48 1699.92 1564.86C1699.37 1564.24 1698.64 1563.93 1697.71 1563.93ZM1714.99 1570.53L1713.99 1574.31H1712.24L1708.93 1562.77H1710.36L1711.42 1566.59C1711.82 1568.02 1712.16 1569.26 1712.44 1570.31C1712.72 1571.37 1712.9 1572.06 1712.98 1572.4L1713.09 1572.92C1713.35 1571.94 1713.92 1569.82 1714.8 1566.57L1715.83 1562.77H1717.36L1718.43 1566.57L1720.18 1572.97C1720.41 1572.07 1721.02 1569.94 1722 1566.57L1723.11 1562.77H1724.48L1721.06 1574.31H1719.31L1718.26 1570.53L1716.59 1564.38C1716.35 1565.34 1715.82 1567.39 1714.99 1570.53ZM1734.92 1566.25V1574.31H1733.62V1566.68C1733.62 1565.79 1733.4 1565.1 1732.98 1564.63C1732.55 1564.16 1731.99 1563.93 1731.29 1563.93C1730.41 1563.93 1729.64 1564.29 1729 1565.01C1728.36 1565.73 1728.04 1566.71 1728.04 1567.94V1574.31H1726.74V1558.21H1728.04V1564.75C1728.7 1563.31 1729.84 1562.59 1731.48 1562.59C1732.52 1562.59 1733.35 1562.93 1733.98 1563.61C1734.61 1564.29 1734.92 1565.17 1734.92 1566.25ZM1747.44 1568.6C1747.44 1570.31 1746.99 1571.73 1746.08 1572.84C1745.18 1573.96 1743.94 1574.52 1742.35 1574.52C1740.83 1574.52 1739.62 1573.95 1738.72 1572.83C1737.83 1571.71 1737.38 1570.3 1737.38 1568.6C1737.38 1566.91 1737.84 1565.49 1738.77 1564.34C1739.69 1563.18 1740.89 1562.61 1742.35 1562.61C1743.96 1562.61 1745.21 1563.17 1746.11 1564.3C1746.99 1565.43 1747.44 1566.87 1747.44 1568.6ZM1738.74 1568.6C1738.74 1569.86 1739.08 1570.94 1739.74 1571.84C1740.4 1572.74 1741.27 1573.2 1742.35 1573.2C1743.54 1573.2 1744.45 1572.75 1745.1 1571.86C1745.75 1570.97 1746.07 1569.89 1746.07 1568.6C1746.07 1567.26 1745.77 1566.15 1745.15 1565.26C1744.54 1564.37 1743.61 1563.93 1742.35 1563.93C1741.23 1563.93 1740.35 1564.38 1739.71 1565.29C1739.06 1566.21 1738.74 1567.31 1738.74 1568.6ZM1761.5 1571.35C1761.5 1572.31 1761.19 1573.06 1760.56 1573.61C1759.95 1574.17 1759.1 1574.45 1758.01 1574.45C1756.7 1574.45 1755.65 1574.22 1754.85 1573.76V1572.33C1755.81 1572.91 1756.83 1573.2 1757.93 1573.2C1758.65 1573.2 1759.21 1573.04 1759.58 1572.72C1759.96 1572.4 1760.15 1571.98 1760.15 1571.46C1760.15 1570.86 1759.95 1570.39 1759.56 1570.05C1759.17 1569.72 1758.53 1569.36 1757.63 1568.98C1756.76 1568.62 1756.07 1568.19 1755.56 1567.71C1755.04 1567.22 1754.79 1566.55 1754.79 1565.7C1754.79 1564.78 1755.11 1564.04 1755.75 1563.48C1756.39 1562.93 1757.2 1562.65 1758.16 1562.65C1759.33 1562.65 1760.23 1562.83 1760.86 1563.18V1564.57C1760.19 1564.16 1759.28 1563.95 1758.14 1563.95C1757.52 1563.95 1757.02 1564.11 1756.66 1564.42C1756.29 1564.73 1756.11 1565.14 1756.11 1565.64C1756.11 1565.94 1756.17 1566.21 1756.27 1566.43C1756.38 1566.66 1756.56 1566.87 1756.83 1567.06C1757.09 1567.25 1757.32 1567.39 1757.5 1567.48C1757.69 1567.57 1757.99 1567.71 1758.4 1567.89C1759.4 1568.32 1760.16 1568.78 1760.69 1569.29C1761.23 1569.8 1761.5 1570.49 1761.5 1571.35ZM1771.62 1572.33V1573.74C1770.76 1574.2 1769.77 1574.42 1768.63 1574.42C1767.02 1574.42 1765.71 1573.89 1764.71 1572.82C1763.7 1571.75 1763.2 1570.34 1763.2 1568.6C1763.2 1566.74 1763.64 1565.29 1764.53 1564.22C1765.41 1563.16 1766.56 1562.63 1767.97 1562.63C1769.29 1562.63 1770.34 1563.09 1771.13 1564.02C1771.91 1564.95 1772.3 1566.25 1772.3 1567.94C1772.3 1568.45 1772.27 1568.86 1772.22 1569.17H1764.57C1764.67 1570.44 1765.08 1571.41 1765.81 1572.09C1766.53 1572.77 1767.5 1573.1 1768.69 1573.1C1769.92 1573.1 1770.89 1572.85 1771.62 1572.33ZM1767.92 1563.93C1767.01 1563.93 1766.25 1564.27 1765.64 1564.95C1765.02 1565.64 1764.67 1566.62 1764.57 1567.89H1770.96V1567.37C1770.96 1566.32 1770.68 1565.48 1770.14 1564.86C1769.59 1564.24 1768.85 1563.93 1767.92 1563.93ZM1776.25 1567.87V1574.31H1774.95V1562.77H1776.25V1564.73C1776.85 1563.33 1777.86 1562.63 1779.29 1562.63C1779.39 1562.63 1779.57 1562.65 1779.82 1562.68V1564.09C1779.54 1564 1779.25 1563.95 1778.97 1563.95C1778.2 1563.95 1777.55 1564.36 1777.04 1565.17C1776.51 1565.98 1776.25 1566.88 1776.25 1567.87ZM1790.01 1562.77L1786.17 1574.31H1784.41L1780.68 1562.77H1782.04L1783.56 1567.62L1785.29 1573.2C1785.43 1572.63 1786.02 1570.77 1787.06 1567.62L1788.64 1562.77H1790.01ZM1800.03 1572.33V1573.74C1799.18 1574.2 1798.18 1574.42 1797.04 1574.42C1795.43 1574.42 1794.12 1573.89 1793.12 1572.82C1792.12 1571.75 1791.61 1570.34 1791.61 1568.6C1791.61 1566.74 1792.06 1565.29 1792.94 1564.22C1793.82 1563.16 1794.97 1562.63 1796.38 1562.63C1797.7 1562.63 1798.76 1563.09 1799.54 1564.02C1800.32 1564.95 1800.72 1566.25 1800.72 1567.94C1800.72 1568.45 1800.69 1568.86 1800.63 1569.17H1792.98C1793.08 1570.44 1793.49 1571.41 1794.22 1572.09C1794.95 1572.77 1795.91 1573.1 1797.1 1573.1C1798.33 1573.1 1799.31 1572.85 1800.03 1572.33ZM1796.34 1563.93C1795.42 1563.93 1794.66 1564.27 1794.05 1564.95C1793.44 1565.64 1793.08 1566.62 1792.98 1567.89H1799.37V1567.37C1799.37 1566.32 1799.09 1565.48 1798.54 1564.86C1798 1564.24 1797.26 1563.93 1796.34 1563.93Z"
                                            fill="white" />
                                    </g>
                                </g>
                            </g>
                        </g>
                    </g>
                </g>
            </g>
        </g>
    </g>
    <g clip-path="url(#clip12_228_2)">
        <path fill-rule="evenodd" clip-rule="evenodd"
            d="M1681.54 2641.79L1780.81 2543L1809.16 2571.26L1709.89 2670.05L1681.54 2641.79ZM1641.31 2742.75C1636.68 2742.74 1632.1 2741.82 1627.83 2740.05C1623.56 2738.28 1619.68 2735.69 1616.41 2732.43C1613.15 2729.17 1610.56 2725.29 1608.8 2721.04C1607.03 2716.78 1606.13 2712.22 1606.14 2707.61C1606.14 2688.22 1621.88 2672.47 1641.24 2672.47C1660.6 2672.47 1676.34 2688.21 1676.34 2707.61C1676.35 2712.22 1675.45 2716.78 1673.68 2721.04C1671.92 2725.29 1669.33 2729.17 1666.07 2732.43C1662.8 2735.69 1658.92 2738.28 1654.65 2740.05C1650.38 2741.82 1645.8 2742.74 1641.17 2742.75H1641.31ZM1809.69 2844.72L1781.34 2872.94L1682.07 2774.15L1710.42 2745.93L1809.69 2844.72Z"
            fill="#222222" />
        <path fill-rule="evenodd" clip-rule="evenodd"
            d="M1642.34 2859.5C1662.35 2859.5 1681.49 2855.47 1698.88 2848.47L1747.37 2896.74C1716.28 2914.07 1680.49 2924 1642.34 2924C1523.04 2924 1426.31 2827.73 1426.31 2709C1426.31 2590.27 1523.04 2494 1642.34 2494C1678.75 2493.96 1714.57 2503.12 1746.45 2520.63L1698.78 2568.1C1680.86 2560.85 1661.7 2557.12 1642.35 2557.11C1558.8 2557.11 1491.07 2624.81 1491.07 2708.28C1491.07 2791.75 1558.79 2859.5 1642.34 2859.5Z"
            fill="#03A9F4" />
    </g>
    <path fill-rule="evenodd" clip-rule="evenodd"
        d="M2824.67 1642.55L2789.81 1422.46C2786.6 1402.21 2800.17 1383.23 2820.14 1380.06L2825.58 1379.2C2962.28 1357.55 3090.9 1452.48 3112.88 1591.23L3113.75 1596.76C3116.96 1617.02 3103.39 1636 3083.43 1639.16L2866.61 1673.51C2846.66 1676.67 2827.88 1662.81 2824.67 1642.55Z"
        fill="#2095F2" />
    <path
        d="M2845.35 1419C2844.15 1411.43 2837.13 1406.25 2829.68 1407.43C2822.22 1408.61 2817.15 1415.7 2818.35 1423.27L2822.93 1452.2C2824.13 1459.77 2831.14 1464.95 2838.6 1463.77C2846.06 1462.59 2851.13 1455.5 2849.93 1447.93L2845.35 1419Z"
        fill="white" />
    <path
        d="M2952.34 1437.65C2955.03 1430.5 2951.49 1422.47 2944.43 1419.71C2937.38 1416.95 2929.48 1420.5 2926.79 1427.65L2916.5 1454.96C2913.81 1462.11 2917.35 1470.14 2924.41 1472.9C2931.47 1475.66 2939.37 1472.11 2942.06 1464.96L2952.34 1437.65Z"
        fill="white" />
    <path
        d="M3073.73 1611.11C3081.19 1609.93 3086.26 1602.83 3085.07 1595.26C3083.87 1587.69 3076.85 1582.52 3069.39 1583.7L3040.89 1588.21C3033.43 1589.39 3028.36 1596.49 3029.56 1604.05C3030.76 1611.62 3037.78 1616.8 3045.23 1615.62L3073.73 1611.11Z"
        fill="white" />
    <path
        d="M3035.84 1508.1C3041.7 1503.29 3042.58 1494.56 3037.81 1488.59C3033.05 1482.63 3024.43 1481.69 3018.58 1486.5L2996.18 1504.87C2990.33 1509.68 2989.44 1518.41 2994.21 1524.38C2998.97 1530.34 3007.59 1531.28 3013.44 1526.47L3035.84 1508.1Z"
        fill="white" />
    <g clip-path="url(#clip13_228_2)">
        <path
            d="M536 1525.33C536.022 1522.36 534.362 1519.6 531.622 1518.04H531.574L531.402 1517.96L388.986 1440.12C388.371 1439.74 387.733 1439.39 387.074 1439.07C381.576 1436.45 375.044 1436.45 369.545 1439.07C368.886 1439.39 368.248 1439.74 367.633 1440.12L225.217 1517.96L225.045 1518.04C220.693 1520.54 219.358 1525.83 222.065 1529.85C222.862 1531.03 223.961 1532.02 225.265 1532.72L367.681 1610.56C368.298 1610.94 368.936 1611.29 369.593 1611.61C375.092 1614.23 381.624 1614.23 387.123 1611.61C387.779 1611.29 388.417 1610.94 389.034 1610.56L531.45 1532.72C534.295 1531.19 536.032 1528.37 536 1525.33Z"
            fill="#0A2767" />
        <path
            d="M241.818 1473.35H335.277V1552.45H241.818V1473.35ZM516.882 1392.95V1356.77C517.107 1347.72 509.351 1340.22 499.553 1340H257.025C247.227 1340.22 239.472 1347.72 239.696 1356.77V1392.95L383.068 1428.25L516.882 1392.95Z"
            fill="#0364B8" />
        <path d="M239.699 1392.95H335.28V1472.37H239.699V1392.95Z" fill="#0078D4" />
        <path d="M430.859 1392.95H335.277V1472.37L430.859 1551.8H516.882V1472.37L430.859 1392.95Z"
            fill="#28A8EA" />
        <path d="M335.277 1472.38H430.859V1551.8H335.277V1472.38Z" fill="#0078D4" />
        <path d="M335.277 1551.8H430.859V1631.23H335.277V1551.8Z" fill="#0364B8" />
        <path d="M241.82 1552.45H335.28V1624.36H241.82V1552.45Z" fill="#14447D" />
        <path d="M430.859 1551.8H516.883V1631.23H430.859V1551.8Z" fill="#0078D4" />
        <path
            d="M531.623 1532.23L531.441 1532.32L389.025 1606.28C388.404 1606.63 387.773 1606.96 387.113 1607.26C384.694 1608.33 382.067 1608.93 379.39 1609.03L371.61 1604.83C370.953 1604.52 370.314 1604.19 369.698 1603.81L225.371 1527.76H225.304L220.582 1525.32V1675.03C220.656 1685.02 229.482 1693.06 240.3 1693H516.588C516.75 1693 516.894 1692.93 517.066 1692.93C519.351 1692.79 521.603 1692.36 523.756 1691.64C524.687 1691.28 525.585 1690.85 526.442 1690.35C527.082 1690.02 528.182 1689.28 528.182 1689.28C533.078 1685.94 535.976 1680.66 536 1675.03V1525.32C535.997 1528.19 534.324 1530.83 531.623 1532.23Z"
            fill="url(#paint0_linear_228_2)" />
        <path opacity="0.5"
            d="M528.353 1524.73V1533.91L379.438 1628.58L225.265 1527.82C225.265 1527.77 225.222 1527.73 225.169 1527.73L211.023 1519.88V1513.26L216.854 1513.17L229.184 1519.7L229.47 1519.79L230.522 1520.41C230.522 1520.41 375.423 1596.74 375.805 1596.92L381.349 1599.92C381.827 1599.74 382.305 1599.57 382.878 1599.39C383.165 1599.22 526.728 1524.64 526.728 1524.64L528.353 1524.73Z"
            fill="#0A2767" />
        <path
            d="M531.623 1532.23L531.441 1532.33L389.025 1606.28C388.403 1606.64 387.773 1606.97 387.113 1607.27C381.582 1609.77 375.114 1609.77 369.583 1607.27C368.928 1606.97 368.291 1606.64 367.672 1606.28L225.256 1532.33L225.084 1532.23C222.334 1530.86 220.611 1528.21 220.582 1525.32V1675.03C220.65 1685.02 229.474 1693.06 240.29 1693C240.29 1693 240.29 1693 240.291 1693H516.291C527.108 1693.06 535.931 1685.02 536 1675.03C536 1675.03 536 1675.03 536 1675.03V1525.32C535.997 1528.19 534.324 1530.83 531.623 1532.23Z"
            fill="#1490DF" />
        <path opacity="0.1"
            d="M391.099 1605.19L388.967 1606.29C388.35 1606.66 387.711 1606.99 387.056 1607.29C384.707 1608.36 382.154 1608.98 379.543 1609.13L433.728 1668.29L528.248 1689.32C530.838 1687.51 532.899 1685.14 534.241 1682.41L391.099 1605.19Z"
            fill="black" />
        <path opacity="0.05"
            d="M400.752 1600.18L388.967 1606.29C388.35 1606.66 387.711 1606.99 387.056 1607.29C384.707 1608.35 382.154 1608.98 379.543 1609.13L404.929 1673.75L528.277 1689.29C533.136 1685.92 535.997 1680.64 536 1675.03V1673.1L400.752 1600.18Z"
            fill="black" />
        <path
            d="M240.558 1693H516.263C520.505 1693.02 524.643 1691.78 528.067 1689.47L371.6 1604.85C370.943 1604.54 370.305 1604.2 369.689 1603.83L225.361 1527.78H225.294L220.582 1525.32V1674.52C220.571 1684.72 229.515 1692.99 240.558 1693V1693Z"
            fill="#28A8EA" />
        <path opacity="0.1"
            d="M354.396 1426.78V1615.01C354.379 1621.61 350.032 1627.54 343.404 1630.02C341.351 1630.83 339.139 1631.25 336.904 1631.25H220.582V1419.42H239.698V1410.6H336.905C346.561 1410.63 354.375 1417.86 354.396 1426.78Z"
            fill="black" />
        <path opacity="0.2"
            d="M344.838 1435.6V1623.84C344.862 1625.97 344.372 1628.08 343.404 1630.02C340.75 1636.06 334.407 1640.02 327.346 1640.05H220.582V1419.42H327.346C330.12 1419.4 332.853 1420.04 335.28 1421.28C341.139 1424 344.836 1429.54 344.838 1435.6Z"
            fill="black" />
        <path opacity="0.2"
            d="M344.838 1435.6V1606.19C344.791 1615.1 336.998 1622.32 327.347 1622.4H220.582V1419.42H327.346C330.12 1419.4 332.853 1420.04 335.28 1421.28C341.139 1424 344.836 1429.54 344.838 1435.6Z"
            fill="black" />
        <path opacity="0.2"
            d="M335.28 1435.6V1606.19C335.269 1615.11 327.455 1622.36 317.788 1622.4H220.582V1419.43H317.788C327.454 1419.43 335.285 1426.67 335.279 1435.59C335.28 1435.6 335.28 1435.6 335.28 1435.6Z"
            fill="black" />
        <path
            d="M142.52 1419.43H317.759C327.435 1419.43 335.279 1426.67 335.279 1435.6V1597.4C335.279 1606.33 327.435 1613.58 317.759 1613.58H142.52C132.844 1613.58 125 1606.33 125 1597.4V1435.6C125 1426.67 132.844 1419.43 142.52 1419.43Z"
            fill="url(#paint1_linear_228_2)" />
        <path
            d="M179.76 1487.27C184.078 1478.78 191.048 1471.67 199.775 1466.86C209.44 1461.75 220.443 1459.2 231.575 1459.5C241.892 1459.29 252.073 1461.71 261.005 1466.48C269.402 1471.1 276.166 1477.88 280.474 1485.98C285.166 1494.91 287.505 1504.74 287.299 1514.66C287.526 1525.04 285.12 1535.31 280.274 1544.67C275.863 1553.06 268.885 1560.08 260.202 1564.85C250.926 1569.77 240.367 1572.25 229.673 1572.02C219.135 1572.25 208.731 1569.81 199.594 1564.96C191.123 1560.33 184.275 1553.55 179.866 1545.42C175.146 1536.62 172.779 1526.9 172.965 1517.08C172.768 1506.8 175.091 1496.61 179.76 1487.27ZM201.094 1535.19C203.396 1540.56 207.301 1545.22 212.353 1548.62C217.5 1551.94 223.663 1553.66 229.94 1553.51C236.625 1553.76 243.215 1551.98 248.713 1548.46C253.702 1545.07 257.503 1540.4 259.647 1535.03C262.044 1529.04 263.226 1522.69 263.136 1516.3C263.21 1509.85 262.098 1503.43 259.848 1497.32C257.86 1491.81 254.181 1486.95 249.257 1483.33C243.897 1479.64 237.326 1477.77 230.648 1478.03C224.234 1477.88 217.933 1479.61 212.65 1482.97C207.511 1486.38 203.533 1491.08 201.18 1496.51C195.96 1508.96 195.933 1522.75 201.103 1535.21L201.094 1535.19Z"
            fill="white" />
        <path d="M430.859 1392.95H516.883V1472.37H430.859V1392.95Z" fill="#50D9FF" />
    </g>
    <g clip-path="url(#clip14_228_2)">
        <path
            d="M1713.29 251.763L1640.58 243.789L1551.71 251.763L1543.63 331.5L1551.71 411.237L1632.5 421.205L1713.29 411.237L1721.37 329.508L1713.29 251.763Z"
            fill="white" />
        <path
            d="M1584.85 375.475C1578.82 371.448 1574.63 365.569 1572.35 357.794L1586.37 352.093C1587.64 356.877 1589.86 360.584 1593.03 363.216C1596.19 365.847 1600.02 367.143 1604.51 367.143C1609.09 367.143 1613.03 365.767 1616.32 363.016C1619.61 360.265 1621.27 356.756 1621.27 352.511C1621.27 348.166 1619.53 344.616 1616.06 341.866C1612.59 339.117 1608.22 337.74 1603.01 337.74H1594.91V324.046H1602.18C1606.67 324.046 1610.44 322.85 1613.51 320.458C1616.58 318.066 1618.12 314.796 1618.12 310.63C1618.12 306.923 1616.75 303.972 1614 301.76C1611.25 299.548 1607.78 298.431 1603.56 298.431C1599.44 298.431 1596.16 299.509 1593.74 301.681C1591.32 303.854 1589.56 306.525 1588.45 309.674L1574.57 303.973C1576.41 298.83 1579.79 294.285 1584.73 290.358C1589.68 286.431 1596 284.457 1603.68 284.457C1609.35 284.457 1614.46 285.534 1618.99 287.707C1623.51 289.879 1627.07 292.89 1629.63 296.716C1632.2 300.563 1633.47 304.87 1633.47 309.653C1633.47 314.537 1632.28 318.663 1629.89 322.052C1627.51 325.441 1624.58 328.031 1621.11 329.846V330.663C1625.69 332.557 1629.43 335.447 1632.38 339.335C1635.31 343.222 1636.78 347.867 1636.78 353.29C1636.78 358.712 1635.39 363.555 1632.6 367.802C1629.81 372.048 1625.95 375.396 1621.07 377.828C1616.16 380.26 1610.65 381.496 1604.53 381.496C1597.44 381.516 1590.89 379.502 1584.85 375.475Z"
            fill="#1A73E8" />
        <path
            d="M1670.88 306.822L1655.57 317.806L1647.87 306.285L1675.48 286.629H1686.06V379.342H1670.88V306.822Z"
            fill="#1A73E8" />
        <path
            d="M1713.29 483L1786 411.238L1749.65 395.291L1713.29 411.238L1697.13 447.119L1713.29 483Z"
            fill="#EA4335" />
        <path d="M1535.55 447.12L1551.71 483.001H1713.29V411.238H1551.71L1535.55 447.12Z"
            fill="#34A853" />
        <path
            d="M1503.24 180C1489.85 180 1479 190.705 1479 203.92V411.236L1515.35 427.183L1551.71 411.236V251.763H1713.29L1729.45 215.881L1713.29 180H1503.24Z"
            fill="#4285F4" />
        <path
            d="M1479 411.238V459.08C1479 472.297 1489.85 483.001 1503.24 483.001H1551.71V411.238H1479Z"
            fill="#188038" />
        <path d="M1713.29 251.763V411.237H1786V251.763L1749.64 235.816L1713.29 251.763Z"
            fill="#FBBC04" />
        <path d="M1786 251.763V203.92C1786 190.703 1775.15 180 1761.76 180H1713.29V251.763H1786Z"
            fill="#1967D2" />
    </g>
    <defs>
        <linearGradient id="paint0_linear_228_2" x1="378.291" y1="1525.32" x2="378.291" y2="1693"
            gradientUnits="userSpaceOnUse">
            <stop stop-color="#35B8F1" />
            <stop offset="1" stop-color="#28A8EA" />
        </linearGradient>
        <linearGradient id="paint1_linear_228_2" x1="161.53" y1="1406.79" x2="282.986" y2="1634.62"
            gradientUnits="userSpaceOnUse">
            <stop stop-color="#1784D9" />
            <stop offset="0.5" stop-color="#107AD5" />
            <stop offset="1" stop-color="#0A63C9" />
        </linearGradient>
        <clipPath id="clip0_228_2">
            <rect x="1296" y="1158" width="670" height="711" rx="335" fill="white" />
        </clipPath>
        <clipPath id="clip1_228_2">
            <rect width="687.704" height="456.623" fill="white"
                transform="translate(1287.29 1285.27)" />
        </clipPath>
        <clipPath id="clip2_228_2">
            <rect width="686.059" height="456.993" fill="white"
                transform="translate(1288.11 1285.08)" />
        </clipPath>
        <clipPath id="clip3_228_2">
            <rect width="289.305" height="453.295" fill="white"
                transform="translate(1486.49 1286.93)" />
        </clipPath>
        <clipPath id="clip4_228_2">
            <rect width="548.847" height="130.158" fill="white"
                transform="translate(1356.72 1448.5)" />
        </clipPath>
        <clipPath id="clip5_228_2">
            <rect width="548.847" height="130.158" fill="white"
                transform="translate(1356.72 1448.5)" />
        </clipPath>
        <clipPath id="clip6_228_2">
            <rect width="548.847" height="130.158" fill="white"
                transform="translate(1356.72 1448.5)" />
        </clipPath>
        <clipPath id="clip7_228_2">
            <rect width="548.847" height="130.158" fill="white"
                transform="translate(1356.72 1448.5)" />
        </clipPath>
        <clipPath id="clip8_228_2">
            <rect width="548.847" height="89.9493" fill="white"
                transform="translate(1356.72 1448.5)" />
        </clipPath>
        <clipPath id="clip9_228_2">
            <rect width="548.847" height="89.9493" fill="white"
                transform="translate(1356.72 1448.5)" />
        </clipPath>
        <clipPath id="clip10_228_2">
            <rect width="339.187" height="20.5602" fill="white"
                transform="translate(1461.55 1558.1)" />
        </clipPath>
        <clipPath id="clip11_228_2">
            <rect width="339.187" height="20.5602" fill="white"
                transform="translate(1461.55 1558.1)" />
        </clipPath>
        <clipPath id="clip12_228_2">
            <rect width="432" height="430" fill="white" transform="translate(1402 2494)" />
        </clipPath>
        <clipPath id="clip13_228_2">
            <rect width="411" height="353" fill="white" transform="translate(125 1340)" />
        </clipPath>
        <clipPath id="clip14_228_2">
            <rect width="307" height="303" fill="white" transform="translate(1479 180)" />
        </clipPath>
    </defs>
</svg>
    