<svg width="2692" height="710" viewBox="0 0 2692 710" fill="none" xmlns="http://www.w3.org/2000/svg">
    <path
        d="M356 422C356.267 427.333 356.933 432.533 358 437.6C359.333 442.667 360.933 446.4 362.8 448.8C360.4 451.2 356.667 454 351.6 457.2C346.8 460.4 341.2 462.933 334.8 464.8C328.667 466.933 322.133 467.867 315.2 467.6C304.8 467.067 296.4 462.667 290 454.4C283.867 446.133 280.667 435.867 280.4 423.6C280.4 421.2 280.4 416.8 280.4 410.4C280.4 403.733 280.4 396.667 280.4 389.2C280.4 381.733 280.4 375.6 280.4 370.8C280.4 366.267 279.2 361.867 276.8 357.6C274.667 353.333 272.133 350.8 269.2 350C265.2 348.667 261.867 351.067 259.2 357.2C258.667 358.533 256.933 361.867 254 367.2C251.067 372.267 247.733 378.267 244 385.2C240.533 392.133 237.2 399.067 234 406C231.067 412.933 229.067 418.933 228 424C226.933 428.8 227.6 431.733 230 432.8C228.933 435.467 226.933 439.333 224 444.4C221.333 449.467 216.8 453.867 210.4 457.6C204.267 461.067 195.467 462.4 184 461.6C177.867 461.067 170 457.333 160.4 450.4C150.8 443.467 141.6 430.8 132.8 412.4C124.533 394.8 117.733 382.933 112.4 376.8C107.333 370.4 103.6 367.467 101.2 368C99.0667 368.267 97.3333 369.733 96 372.4C94.9333 375.067 93.8667 378.8 92.8 383.6C92.2667 386 92 390 92 395.6C92 401.2 92.2667 407.467 92.8 414.4C93.3333 421.333 94.2667 427.867 95.6 434C97.2 440.133 99.2 444.8 101.6 448C99.4667 449.333 95.6 451.6 90 454.8C84.6667 458 78.5333 460.933 71.6 463.6C64.9333 466 58.4 467.2 52 467.2C42.4 466.933 34.4 464.4 28 459.6C21.6 454.533 17.7333 444.667 16.4 430C16.1333 427.6 16 420.8 16 409.6C16 398.4 16 384.267 16 367.2C16 350.133 16 331.867 16 312.4C16 292.667 16 273.2 16 254C16 234.8 16 217.2 16 201.2C16.2667 185.2 16.4 172.4 16.4 162.8C16.4 153.2 16.4 148.4 16.4 148.4C19.3333 147.867 24.2667 147.733 31.2 148C38.1333 148.267 45.7333 149.333 54 151.2C62.2667 153.067 69.8667 156.133 76.8 160.4C83.7333 164.4 88.5333 170.133 91.2 177.6C91.2 177.6 92.4 180.133 94.8 185.2C97.4667 190 100.933 196.4 105.2 204.4C109.467 212.133 114 220.533 118.8 229.6C123.867 238.667 128.667 247.6 133.2 256.4C138 265.2 142.133 272.933 145.6 279.6C149.333 286.267 151.867 290.933 153.2 293.6C157.733 301.333 162 306.667 166 309.6C170.267 312.533 174.8 314.133 179.6 314.4C189.467 314.4 198.933 306.8 208 291.6C209.333 289.2 212 284.133 216 276.4C220 268.4 224.667 258.933 230 248C235.333 237.067 240.8 225.867 246.4 214.4C252.267 202.933 257.6 192.267 262.4 182.4C267.2 172.267 271.067 164.133 274 158C277.2 151.6 278.8 148.4 278.8 148.4C280.667 148.133 283.333 148 286.8 148C290.533 147.733 294.533 147.867 298.8 148.4C306.267 148.933 314.133 150.4 322.4 152.8C330.933 155.2 338.267 158.933 344.4 164C350.8 169.067 354.4 175.867 355.2 184.4C355.733 188.933 356.133 196.4 356.4 206.8C356.667 216.933 356.8 229.067 356.8 243.2C356.8 257.067 356.8 271.867 356.8 287.6C356.8 303.333 356.667 318.8 356.4 334C356.4 349.2 356.267 363.2 356 376C356 388.8 356 399.333 356 407.6C356 415.6 356 420.4 356 422ZM616.506 342C618.906 364.4 617.173 383.6 611.306 399.6C605.44 415.6 596.773 428.8 585.306 439.2C574.106 449.6 561.44 457.333 547.306 462.4C533.44 467.2 519.573 469.6 505.706 469.6C492.106 469.6 478.24 467.2 464.106 462.4C450.24 457.333 437.706 449.6 426.506 439.2C415.573 428.8 407.04 415.6 400.906 399.6C395.04 383.6 393.306 364.4 395.706 342C398.106 321.467 404.24 303.467 414.106 288C424.24 272.533 437.04 260.4 452.506 251.6C468.24 242.533 485.44 237.467 504.106 236.4C505.173 236.133 506.24 235.333 507.306 234C508.64 232.4 510.773 231.067 513.706 230C516.906 228.667 521.706 228.267 528.106 228.8C543.306 233.067 557.173 240.4 569.706 250.8C582.24 261.2 592.64 274.133 600.906 289.6C609.44 305.067 614.64 322.533 616.506 342ZM502.106 405.6C510.64 405.6 517.973 403.6 524.106 399.6C530.24 395.6 535.173 390.533 538.906 384.4C542.64 378 545.306 371.333 546.906 364.4C548.773 357.467 549.706 351.2 549.706 345.6C549.706 334.133 547.84 325.2 544.106 318.8C540.373 312.4 531.84 306.667 518.506 301.6C514.773 300 512.24 297.867 510.906 295.2C509.573 292.533 507.573 291.067 504.906 290.8C496.106 289.733 488.64 292.133 482.506 298C476.373 303.867 471.706 311.733 468.506 321.6C465.306 331.467 463.706 342.133 463.706 353.6C463.706 365.067 465.84 374.667 470.106 382.4C474.64 390.133 479.84 396 485.706 400C491.84 403.733 497.306 405.6 502.106 405.6ZM867.203 413.2C867.47 424.933 869.203 433.2 872.403 438C875.87 442.533 877.603 444.8 877.603 444.8C877.603 444.8 875.203 446.533 870.403 450C865.87 453.2 859.736 456.533 852.003 460C844.27 463.467 835.603 465.2 826.003 465.2C811.87 465.2 802.67 461.333 798.403 453.6C794.136 445.867 791.87 435.867 791.603 423.6C791.603 421.467 791.736 416.8 792.003 409.6C792.27 402.4 792.403 394.267 792.403 385.2C792.67 375.867 792.67 367.333 792.403 359.6C792.136 351.6 791.603 346 790.803 342.8C787.87 332.133 782.136 327.467 773.603 328.8C766.936 329.6 760.67 333.467 754.803 340.4C748.936 347.067 744.136 355.067 740.403 364.4C736.67 373.733 734.803 382.533 734.803 390.8C734.803 395.067 734.536 399.333 734.003 403.6C733.736 407.6 733.47 411.333 733.203 414.8C732.936 417.2 733.203 420.133 734.003 423.6C735.07 427.067 736.936 429.867 739.603 432C737.736 435.2 734.003 439.333 728.403 444.4C723.07 449.467 717.203 454.133 710.803 458.4C704.67 462.4 699.336 464.667 694.803 465.2C690.536 465.467 685.47 464.133 679.603 461.2C674.003 458.267 669.07 453.867 664.803 448C660.803 442.133 658.67 435.067 658.403 426.8C658.403 424.667 658.403 419.733 658.403 412C658.67 404.267 658.803 394.933 658.803 384C659.07 373.067 659.203 361.467 659.203 349.2C659.47 336.933 659.603 325.067 659.603 313.6C659.603 302.133 659.603 292.267 659.603 284C659.603 276.8 658.67 269.867 656.803 263.2C655.203 256.267 653.47 250.667 651.603 246.4C650.003 241.867 649.203 239.6 649.203 239.6C651.603 239.067 655.736 238.667 661.603 238.4C667.736 238.133 674.536 238.267 682.003 238.8C689.47 239.333 696.803 240.533 704.003 242.4C711.47 244.267 717.736 247.2 722.803 251.2C728.136 255.2 733.47 257.733 738.803 258.8C744.403 259.6 748.803 259.067 752.003 257.2C761.336 251.067 770.803 245.733 780.403 241.2C790.003 236.667 799.336 233.867 808.403 232.8C812.936 232.267 818.27 232.533 824.403 233.6C830.536 234.4 836.536 236.4 842.403 239.6C848.536 242.8 853.736 247.333 858.003 253.2C862.536 259.067 865.336 266.533 866.403 275.6C868.27 291.067 868.803 310 868.003 332.4C867.203 354.533 866.936 381.467 867.203 413.2ZM1130.95 414.4C1135.48 419.733 1142.15 423.467 1150.95 425.6C1149.62 431.2 1147.88 437.2 1145.75 443.6C1143.88 450 1140.82 455.6 1136.55 460.4C1132.55 465.2 1126.68 468.267 1118.95 469.6C1115.48 470.4 1111.08 470.133 1105.75 468.8C1100.42 467.467 1094.02 465.867 1086.55 464C1081.75 462.667 1075.62 462.4 1068.15 463.2C1060.68 463.733 1053.62 464.533 1046.95 465.6C1040.55 466.667 1036.28 467.467 1034.15 468C1031.22 468.8 1028.28 469.2 1025.35 469.2C1022.42 469.467 1019.48 469.6 1016.55 469.6C1002.68 469.6 988.95 467.2 975.35 462.4C962.017 457.333 950.017 449.6 939.35 439.2C928.683 428.8 920.55 415.6 914.95 399.6C909.617 383.6 908.15 364.4 910.55 342C912.15 326.533 916.283 312.133 922.95 298.8C929.883 285.467 938.417 273.867 948.55 264C958.683 253.867 969.483 246.133 980.95 240.8C992.683 235.2 1004.15 232.4 1015.35 232.4C1017.75 232.4 1020.02 232.4 1022.15 232.4C1024.55 232.4 1026.82 232.267 1028.95 232C1033.75 231.2 1038.42 228.533 1042.95 224C1047.48 219.467 1050.55 213.867 1052.15 207.2C1052.95 203.467 1053.48 199.067 1053.75 194C1054.02 188.933 1054.15 185.867 1054.15 184.8C1054.95 178.667 1057.22 173.467 1060.95 169.2C1064.68 164.667 1069.08 161.067 1074.15 158.4C1081.08 154.667 1088.68 152 1096.95 150.4C1105.22 148.8 1112.82 148 1119.75 148C1126.95 147.733 1132.28 148 1135.75 148.8C1135.48 150.4 1134.95 156.133 1134.15 166C1133.35 175.867 1132.42 188.267 1131.35 203.2C1130.28 218.133 1129.22 234.533 1128.15 252.4C1127.08 270 1126.15 287.733 1125.35 305.6C1124.82 323.467 1124.55 340.133 1124.55 355.6C1124.55 371.067 1125.08 384 1126.15 394.4C1127.22 404.8 1128.82 411.467 1130.95 414.4ZM982.15 355.2C981.35 365.6 982.55 374.267 985.75 381.2C989.217 387.867 993.483 392.933 998.55 396.4C1003.88 399.6 1009.08 401.333 1014.15 401.6C1023.75 401.867 1031.08 399.467 1036.15 394.4C1041.48 389.067 1045.08 382.133 1046.95 373.6C1048.82 364.8 1049.75 355.467 1049.75 345.6C1049.75 330.667 1046.82 319.867 1040.95 313.2C1035.08 306.533 1025.88 303.6 1013.35 304.4C1005.35 304.933 998.417 308.8 992.55 316C986.95 323.2 983.483 336.267 982.15 355.2ZM1391.49 391.6C1391.75 397.467 1392.15 404.667 1392.69 413.2C1393.49 421.733 1395.22 430 1397.89 438C1400.55 446 1404.82 452.4 1410.69 457.2C1404.02 461.733 1397.22 464.933 1390.29 466.8C1383.35 468.933 1376.55 469.467 1369.89 468.4C1368.02 467.867 1366.02 467.2 1363.89 466.4C1361.75 465.867 1358.82 465.067 1355.09 464C1348.95 462.133 1341.75 461.733 1333.49 462.8C1325.22 463.867 1316.55 465.2 1307.49 466.8C1298.69 468.667 1290.02 469.6 1281.49 469.6C1267.62 469.6 1253.75 467.2 1239.89 462.4C1226.02 457.333 1213.49 449.6 1202.29 439.2C1191.09 428.8 1182.55 415.6 1176.69 399.6C1170.82 383.6 1169.09 364.4 1171.49 342C1173.09 326.533 1177.49 312.4 1184.69 299.6C1191.89 286.533 1200.69 275.333 1211.09 266C1221.75 256.4 1232.95 249.067 1244.69 244C1256.69 238.667 1268.29 236.133 1279.49 236.4C1288.02 236.667 1294.55 236.933 1299.09 237.2C1303.89 237.467 1310.02 238.133 1317.49 239.2C1322.02 239.733 1327.75 239.067 1334.69 237.2C1341.62 235.333 1348.55 233.333 1355.49 231.2C1362.69 228.8 1368.82 227.6 1373.89 227.6C1381.62 227.333 1387.09 227.6 1390.29 228.4C1393.49 228.933 1396.15 229.467 1398.29 230C1396.69 234.8 1395.35 242 1394.29 251.6C1393.22 261.2 1392.42 272.133 1391.89 284.4C1391.62 296.4 1391.35 308.933 1391.09 322C1390.82 335.067 1390.69 347.6 1390.69 359.6C1390.95 371.6 1391.22 382.267 1391.49 391.6ZM1241.09 354.8C1241.62 368.133 1244.02 378.533 1248.29 386C1252.82 393.2 1258.15 398.267 1264.29 401.2C1270.69 404.133 1276.82 405.6 1282.69 405.6C1294.42 405.867 1303.09 401.333 1308.69 392C1314.29 382.667 1316.95 369.733 1316.69 353.2C1316.69 348.667 1316.15 343.333 1315.09 337.2C1314.29 331.067 1312.69 325.067 1310.29 319.2C1308.15 313.333 1305.09 308.4 1301.09 304.4C1297.35 300.4 1292.42 298.4 1286.29 298.4C1274.02 298.4 1263.22 302.933 1253.89 312C1244.82 321.067 1240.55 335.333 1241.09 354.8ZM1583.76 234.4C1602.16 236.8 1615.5 242.133 1623.76 250.4C1632.3 258.667 1637.1 268.4 1638.16 279.6C1639.5 290.8 1638.3 302.267 1634.56 314C1632.43 320.667 1629.23 329.2 1624.96 339.6C1620.96 349.733 1616.7 360.133 1612.16 370.8C1607.9 381.467 1603.9 391.067 1600.16 399.6C1596.43 407.867 1593.9 413.733 1592.56 417.2C1588.3 427.067 1583.23 437.6 1577.36 448.8C1571.5 459.733 1564.96 470 1557.76 479.6C1550.83 489.2 1543.5 497.067 1535.76 503.2C1528.3 509.333 1520.96 512.4 1513.76 512.4C1504.16 512.4 1496.3 510 1490.16 505.2C1484.3 500.4 1479.9 494.4 1476.96 487.2C1474.03 480.267 1472.16 473.467 1471.36 466.8C1478.3 468.667 1484.7 468.533 1490.56 466.4C1496.43 464.533 1501.5 461.733 1505.76 458C1509.76 454.267 1512.16 450 1512.96 445.2C1514.03 440.4 1514.3 436.133 1513.76 432.4C1512.43 417.467 1508.3 401.333 1501.36 384L1442.56 238.4C1446.56 237.867 1451.76 237.2 1458.16 236.4C1464.83 235.333 1471.76 235.2 1478.96 236C1486.43 236.533 1493.36 238.533 1499.76 242C1506.43 245.2 1511.9 250.667 1516.16 258.4C1517.76 261.067 1519.63 265.2 1521.76 270.8C1524.16 276.133 1526.56 281.867 1528.96 288C1531.63 293.867 1533.76 298.933 1535.36 303.2C1538.3 309.6 1541.36 314.8 1544.56 318.8C1548.03 322.533 1551.5 324.533 1554.96 324.8C1557.9 325.067 1560.83 324 1563.76 321.6C1566.7 318.933 1569.1 315.6 1570.96 311.6C1572.56 307.867 1574.43 302.267 1576.56 294.8C1578.7 287.333 1580.43 281.067 1581.76 276C1584.16 266.667 1585.36 258.667 1585.36 252C1585.63 245.333 1585.1 239.467 1583.76 234.4ZM1680.63 468C1671.03 468 1663.3 465.867 1657.43 461.6C1651.56 457.067 1647.43 451.6 1645.03 445.2C1642.63 438.8 1641.7 432.667 1642.23 426.8C1643.03 419.067 1646.9 412 1653.83 405.6C1660.76 399.2 1670.23 396 1682.23 396C1690.5 396 1696.63 396.667 1700.63 398C1704.9 399.333 1708.23 402.133 1710.63 406.4C1713.03 410.667 1715.7 417.067 1718.63 425.6C1720.76 431.733 1720.5 438.133 1717.83 444.8C1715.43 451.2 1711.03 456.667 1704.63 461.2C1698.23 465.733 1690.23 468 1680.63 468ZM1958.68 291.2C1957.61 296.8 1955.21 302 1951.48 306.8C1947.74 311.6 1943.34 315.6 1938.28 318.8C1933.48 321.733 1928.81 323.333 1924.28 323.6C1919.74 323.867 1916.01 322.267 1913.08 318.8C1918.14 315.333 1919.34 312 1916.68 308.8C1914.28 305.6 1910.14 303.067 1904.28 301.2C1898.41 299.333 1892.68 298.8 1887.08 299.6C1873.21 301.733 1862.94 307.733 1856.28 317.6C1849.61 327.2 1845.34 338.267 1843.48 350.8C1842.14 361.467 1843.21 371.067 1846.68 379.6C1850.41 387.867 1855.48 394.533 1861.88 399.6C1868.54 404.4 1875.74 406.933 1883.48 407.2C1900.81 407.467 1915.21 404.933 1926.68 399.6C1938.14 394.267 1947.08 388.133 1953.48 381.2C1960.14 374 1964.68 368.133 1967.08 363.6C1973.48 368.133 1977.21 374.667 1978.28 383.2C1979.34 391.733 1978.01 400.933 1974.28 410.8C1970.54 420.667 1964.68 430.133 1956.68 439.2C1948.68 448.267 1938.94 455.733 1927.48 461.6C1916.01 467.2 1902.94 470 1888.28 470C1880.54 470 1871.34 469.067 1860.68 467.2C1850.01 465.333 1839.08 461.867 1827.88 456.8C1816.94 451.733 1806.81 444.4 1797.48 434.8C1788.41 425.2 1781.34 412.8 1776.28 397.6C1771.48 382.4 1770.01 363.733 1771.88 341.6C1773.21 324.533 1777.74 309.467 1785.48 296.4C1793.48 283.067 1803.21 271.867 1814.68 262.8C1826.14 253.467 1838.14 246.4 1850.68 241.6C1863.48 236.533 1875.61 233.867 1887.08 233.6C1898.54 233.333 1908.94 235.067 1918.28 238.8C1927.61 242.533 1935.48 247.467 1941.88 253.6C1948.28 259.467 1952.94 265.733 1955.88 272.4C1958.81 279.067 1959.74 285.333 1958.68 291.2ZM2232.13 342C2234.53 364.4 2232.8 383.6 2226.93 399.6C2221.06 415.6 2212.4 428.8 2200.93 439.2C2189.73 449.6 2177.06 457.333 2162.93 462.4C2149.06 467.2 2135.2 469.6 2121.33 469.6C2107.73 469.6 2093.86 467.2 2079.73 462.4C2065.86 457.333 2053.33 449.6 2042.13 439.2C2031.2 428.8 2022.66 415.6 2016.53 399.6C2010.66 383.6 2008.93 364.4 2011.33 342C2013.73 321.467 2019.86 303.467 2029.73 288C2039.86 272.533 2052.66 260.4 2068.13 251.6C2083.86 242.533 2101.06 237.467 2119.73 236.4C2120.8 236.133 2121.86 235.333 2122.93 234C2124.26 232.4 2126.4 231.067 2129.33 230C2132.53 228.667 2137.33 228.267 2143.73 228.8C2158.93 233.067 2172.8 240.4 2185.33 250.8C2197.86 261.2 2208.26 274.133 2216.53 289.6C2225.06 305.067 2230.26 322.533 2232.13 342ZM2117.73 405.6C2126.26 405.6 2133.6 403.6 2139.73 399.6C2145.86 395.6 2150.8 390.533 2154.53 384.4C2158.26 378 2160.93 371.333 2162.53 364.4C2164.4 357.467 2165.33 351.2 2165.33 345.6C2165.33 334.133 2163.46 325.2 2159.73 318.8C2156 312.4 2147.46 306.667 2134.13 301.6C2130.4 300 2127.86 297.867 2126.53 295.2C2125.2 292.533 2123.2 291.067 2120.53 290.8C2111.73 289.733 2104.26 292.133 2098.13 298C2092 303.867 2087.33 311.733 2084.13 321.6C2080.93 331.467 2079.33 342.133 2079.33 353.6C2079.33 365.067 2081.46 374.667 2085.73 382.4C2090.26 390.133 2095.46 396 2101.33 400C2107.46 403.733 2112.93 405.6 2117.73 405.6ZM2555.63 413.2C2555.89 416.4 2556.69 420.4 2558.03 425.2C2559.63 429.733 2561.09 433.867 2562.43 437.6C2564.03 441.333 2564.83 443.2 2564.83 443.2C2563.49 444.8 2560.69 447.733 2556.43 452C2552.16 456.267 2546.69 460.133 2540.03 463.6C2533.63 466.8 2526.29 467.733 2518.03 466.4C2503.36 463.733 2493.36 457.6 2488.03 448C2482.96 438.4 2480.29 427.467 2480.03 415.2C2480.03 413.067 2480.16 408.933 2480.43 402.8C2480.69 396.667 2480.83 389.867 2480.83 382.4C2481.09 374.667 2481.09 367.467 2480.83 360.8C2480.83 353.867 2480.29 348.8 2479.23 345.6C2477.63 339.467 2475.23 335.733 2472.03 334.4C2468.83 333.067 2465.49 333.333 2462.03 335.2C2458.56 336.8 2455.63 339.467 2453.23 343.2C2450.83 346.933 2449.63 350.933 2449.63 355.2C2449.36 361.867 2449.23 367.6 2449.23 372.4C2449.23 377.2 2449.36 383.467 2449.63 391.2C2449.63 393.067 2449.89 396.533 2450.43 401.6C2450.96 406.667 2451.63 412.4 2452.43 418.8C2453.23 425.2 2454.03 431.467 2454.83 437.6C2455.89 443.467 2456.96 448.267 2458.03 452C2451.36 456.8 2443.49 460.8 2434.43 464C2425.63 467.2 2414.29 467.2 2400.43 464C2393.23 462.4 2387.89 459.067 2384.43 454C2380.96 448.933 2378.56 443.067 2377.23 436.4C2376.16 429.467 2375.63 422.4 2375.63 415.2C2375.63 408 2375.63 401.333 2375.63 395.2C2375.63 392.267 2375.76 387.6 2376.03 381.2C2376.56 374.8 2376.83 368.133 2376.83 361.2C2376.83 354 2376.16 348.267 2374.83 344C2373.76 340.533 2372.03 338.4 2369.63 337.6C2367.49 336.533 2365.63 336.133 2364.03 336.4C2359.76 336.667 2356.03 337.867 2352.83 340C2349.89 342.133 2347.89 346.533 2346.83 353.2C2346.29 356.4 2345.89 361.733 2345.63 369.2C2345.63 376.4 2345.63 384.133 2345.63 392.4C2345.63 400.4 2345.63 407.467 2345.63 413.6C2345.89 419.733 2346.16 423.333 2346.43 424.4C2347.23 428.133 2348.83 430.933 2351.23 432.8C2353.63 434.4 2354.83 435.2 2354.83 435.2C2354.83 435.2 2353.36 436.933 2350.43 440.4C2347.76 443.6 2344.03 447.333 2339.23 451.6C2334.43 455.867 2328.83 459.6 2322.43 462.8C2316.03 465.733 2309.09 466.8 2301.63 466C2294.43 465.467 2287.63 461.733 2281.23 454.8C2275.09 447.867 2271.89 438.267 2271.63 426L2270.43 272.4C2270.16 262.8 2269.09 254.933 2267.23 248.8C2265.63 242.667 2264.83 239.6 2264.83 239.6C2267.49 239.067 2272.29 238.667 2279.23 238.4C2286.16 238.133 2293.89 238.4 2302.43 239.2C2310.96 239.733 2318.69 241.6 2325.63 244.8C2329.89 246.667 2334.69 247.467 2340.03 247.2C2345.63 246.667 2350.43 245.2 2354.43 242.8C2358.96 240.4 2363.49 238.267 2368.03 236.4C2372.83 234.533 2377.63 233.333 2382.43 232.8C2388.03 232.267 2394.83 232.8 2402.83 234.4C2410.83 236 2419.09 238.933 2427.63 243.2C2432.96 245.867 2439.23 247.733 2446.43 248.8C2453.63 249.867 2458.56 249.467 2461.23 247.6C2466.56 243.867 2472.16 240.667 2478.03 238C2484.16 235.333 2490.29 233.6 2496.43 232.8C2500.96 232.267 2506.29 232.533 2512.43 233.6C2518.83 234.4 2524.96 236.4 2530.83 239.6C2536.96 242.8 2542.16 247.333 2546.43 253.2C2550.96 259.067 2553.76 266.533 2554.83 275.6C2555.63 283.333 2556.03 293.467 2556.03 306C2556.29 318.267 2556.29 331.333 2556.03 345.2C2555.76 358.8 2555.49 371.733 2555.23 384C2555.23 396 2555.36 405.733 2555.63 413.2Z"
        fill="#2B3232" />
</svg>
    