<svg width="459" height="457" viewBox="0 0 459 457" fill="none" xmlns="http://www.w3.org/2000/svg">
    <path fill-rule="evenodd" clip-rule="evenodd"
        d="M293.866 1.04056L28.8214 19.6773C7.43887 21.4374 0 34.739 0 50.6807V327.29C0 339.707 4.63193 350.332 15.807 364.532L78.1105 441.655C88.3468 454.072 97.6537 456.735 117.197 455.85L424.988 438.112C451.012 436.347 458.47 424.81 458.47 405.312V94.1238C458.47 84.0462 454.288 81.1415 441.978 72.5414L355.26 14.3375C334.792 0.169598 326.424 -1.62248 293.866 1.036V1.04056ZM124.157 89.0303C99.0237 90.64 93.3236 91.0048 79.0494 79.9559L42.7603 52.4774C39.072 48.9206 40.9258 44.4837 50.2184 43.599L305.013 25.8743C326.41 24.0959 337.551 31.1958 345.919 37.3974L389.619 67.539C391.487 68.4374 396.133 73.7406 390.543 73.7406L127.414 88.8206L124.157 89.0303ZM94.8564 402.653V138.479C94.8564 126.942 98.5782 121.621 109.72 120.727L411.94 103.882C422.191 103.002 426.823 109.204 426.823 120.722V383.137C426.823 394.673 424.954 404.432 408.223 405.312L119.017 421.272C102.286 422.152 94.8612 416.849 94.8612 402.653H94.8564ZM380.34 152.642C382.194 160.622 380.34 168.602 371.958 169.514L358.019 172.145V367.19C345.915 373.392 334.773 376.935 325.461 376.935C310.579 376.935 306.862 372.498 295.715 359.21L204.562 222.684V354.773L233.398 360.989C233.398 360.989 233.398 376.949 210.133 376.949L145.994 380.492C144.126 376.935 145.994 368.075 152.494 366.31L169.245 361.887V187.239L145.999 185.447C144.131 177.467 148.777 165.944 161.806 165.05L230.624 160.641L325.466 298.932V176.587L301.291 173.942C299.423 164.17 306.862 157.07 316.154 156.204L380.34 152.642Z"
        fill="#F7F6FA" />
</svg>
    