<svg width="3103" height="1059" viewBox="0 0 3103 1059" fill="none"
    xmlns="http://www.w3.org/2000/svg">
    <path
        d="M1160.12 236.624H988.428C976.679 236.624 966.687 248.545 964.855 264.743L895.415 879.6C894.034 891.731 900.762 902.67 909.574 902.67H991.541C1003.29 902.67 1013.28 890.75 1015.11 874.517L1033.84 708.68C1035.65 692.447 1045.67 680.526 1057.39 680.526H1111.74C1224.84 680.526 1290.11 604.094 1307.16 452.632C1314.84 386.368 1307.49 334.303 1285.27 297.84C1260.87 257.801 1217.58 236.624 1160.12 236.624ZM1179.93 461.187C1170.54 547.226 1123.47 547.226 1077.95 547.226H1052.04L1070.22 386.543C1071.3 376.831 1077.32 369.679 1084.35 369.679H1096.23C1127.23 369.679 1156.48 369.679 1171.59 394.362C1180.61 409.087 1183.37 430.965 1179.93 461.187Z"
        fill="#2B3232" />
    <path
        d="M1673.34 458.418H1591.12C1584.12 458.418 1578.07 465.57 1576.99 475.282L1573.35 507.397L1567.6 495.757C1549.8 459.68 1510.11 447.619 1470.49 447.619C1379.64 447.619 1302.04 543.72 1286.92 678.528C1279.07 745.775 1290.24 810.076 1317.55 854.918C1342.61 896.149 1378.46 913.329 1421.11 913.329C1494.32 913.329 1534.91 847.59 1534.91 847.59L1531.24 879.496C1529.86 891.697 1536.59 902.636 1545.35 902.636H1619.41C1631.19 902.636 1641.13 890.715 1642.99 874.482L1687.42 481.488C1688.83 469.392 1682.12 458.418 1673.34 458.418ZM1558.73 681.894C1550.8 747.492 1513.52 791.529 1465.97 791.529C1442.1 791.529 1423.02 780.835 1410.77 760.57C1398.62 740.445 1394 711.801 1397.86 679.896C1405.27 614.858 1443.18 569.385 1490 569.385C1513.34 569.385 1532.32 580.218 1544.83 600.659C1557.35 621.309 1562.32 650.129 1558.73 681.894Z"
        fill="#2B3232" />
    <path
        d="M2111.22 458.417H2028.6C2020.71 458.417 2013.31 463.886 2008.84 473.037L1894.89 707.452L1846.59 482.188C1843.55 468.094 1834.23 458.417 1823.69 458.417H1742.5C1732.63 458.417 1725.78 471.88 1728.92 484.853L1819.92 857.827L1734.37 1026.5C1727.64 1039.79 1734.42 1058.06 1746.04 1058.06H1828.56C1836.39 1058.06 1843.72 1052.73 1848.17 1043.75L2122.96 489.796C2129.54 476.543 2122.79 458.417 2111.22 458.417Z"
        fill="#2B3232" />
    <path
        d="M2384.76 236.624H2213.04C2201.32 236.624 2191.33 248.545 2189.49 264.743L2120.05 879.6C2118.67 891.731 2125.4 902.67 2134.16 902.67H2222.28C2230.46 902.67 2237.47 894.326 2238.75 882.966L2258.46 708.68C2260.26 692.447 2270.28 680.526 2282 680.526H2336.33C2449.45 680.526 2514.7 604.094 2531.77 452.632C2539.48 386.368 2532.07 334.303 2509.86 297.84C2485.48 257.801 2442.22 236.624 2384.76 236.624ZM2404.57 461.187C2395.2 547.226 2348.13 547.226 2302.59 547.226H2276.71L2294.91 386.543C2295.99 376.831 2301.96 369.679 2309.02 369.679H2320.89C2351.87 369.679 2381.14 369.679 2396.26 394.362C2405.27 409.087 2408.01 430.965 2404.57 461.187Z"
        fill="#C8CCDF" />
    <path
        d="M2897.95 458.418H2815.78C2808.73 458.418 2802.73 465.57 2801.67 475.282L2798.03 507.397L2792.26 495.757C2774.46 459.68 2734.8 447.619 2695.18 447.619C2604.33 447.619 2526.75 543.72 2511.64 678.528C2503.81 745.775 2514.93 810.076 2542.24 854.918C2567.35 896.149 2603.15 913.329 2645.8 913.329C2719 913.329 2759.6 847.59 2759.6 847.59L2755.93 879.496C2754.55 891.697 2761.28 902.636 2770.09 902.636H2844.13C2855.85 902.636 2865.84 890.715 2867.67 874.482L2912.14 481.488C2913.49 469.392 2906.76 458.418 2897.95 458.418ZM2783.35 681.894C2775.46 747.492 2738.13 791.529 2690.59 791.529C2666.76 791.529 2647.63 780.835 2635.38 760.57C2623.23 740.445 2618.66 711.801 2622.48 679.896C2629.93 614.858 2667.79 569.385 2714.61 569.385C2737.96 569.385 2756.94 580.218 2769.44 600.659C2782.02 621.309 2786.99 650.129 2783.35 681.894Z"
        fill="#C8CCDF" />
    <path
        d="M2994.88 253.488L2924.41 879.6C2923.03 891.731 2929.76 902.67 2938.52 902.67H3009.37C3021.14 902.67 3031.13 890.75 3032.94 874.517L3102.43 259.694C3103.81 247.563 3097.08 236.589 3088.32 236.589H3008.99C3001.99 236.624 2995.96 243.776 2994.88 253.488Z"
        fill="#C8CCDF" />
    <path
        d="M182.412 1022.16L195.542 905.686L166.295 904.739H26.6367L123.692 45.2986C123.993 42.7041 124.972 40.2849 126.403 38.5669C127.834 36.849 129.667 35.9023 131.575 35.9023H367.058C445.235 35.9023 499.185 58.6216 527.353 103.464C540.558 124.5 548.968 146.483 553.035 170.675C557.303 196.059 557.378 226.387 553.211 263.376L552.909 266.075V289.776L566.115 300.224C577.236 308.463 586.073 317.895 592.851 328.693C604.148 346.68 611.454 369.539 614.542 396.641C617.73 424.514 616.676 457.681 611.454 495.231C605.429 538.426 595.688 576.046 582.533 606.829C570.433 635.193 555.018 658.719 536.717 676.951C519.244 694.27 498.482 707.418 475.009 715.833C452.264 724.107 426.331 728.279 397.887 728.279H379.561C366.456 728.279 353.728 734.871 343.736 746.686C333.719 758.747 327.091 775.225 325.058 793.247L323.677 803.73L300.48 1009.01L299.426 1016.55C299.15 1018.93 298.673 1020.12 297.97 1020.93C297.342 1021.67 296.438 1022.16 295.56 1022.16H182.412Z"
        fill="#253B80" />
    <path
        d="M578.617 268.81C577.914 275.085 577.11 281.502 576.207 288.093C545.152 510.763 438.908 587.686 303.217 587.686H234.128C217.534 587.686 203.55 604.515 200.965 627.374L165.592 940.676L155.575 1029.48C153.893 1044.49 162.178 1058.02 173.023 1058.02H295.56C310.07 1058.02 322.397 1043.3 324.681 1023.31L325.886 1014.62L348.958 810.145L350.439 798.926C352.698 778.871 365.05 764.146 379.56 764.146H397.887C516.608 764.146 609.546 696.829 636.709 502.033C648.057 420.657 642.182 352.71 612.157 304.922C603.069 290.512 591.797 278.556 578.617 268.81Z"
        fill="#2B3232" />
    <path
        d="M546.131 250.718C541.386 248.79 536.491 247.037 531.47 245.459C526.424 243.917 521.252 242.549 515.93 241.357C497.302 237.15 476.892 235.151 455.026 235.151H270.455C265.911 235.151 261.593 236.589 257.727 239.183C249.216 244.898 242.89 256.153 241.359 269.931L202.095 617.242L200.965 627.374C203.551 604.515 217.534 587.686 234.128 587.686H303.217C438.909 587.686 545.152 510.728 576.207 288.093C577.136 281.501 577.914 275.085 578.617 268.81C570.759 262.989 562.249 258.011 553.085 253.769C550.826 252.717 548.491 251.7 546.131 250.718Z"
        fill="#C8CCDF" />
    <path
        d="M241.358 269.932C242.889 256.153 249.215 244.898 257.726 239.219C261.617 236.624 265.91 235.187 270.454 235.187H455.025C476.891 235.187 497.301 237.185 515.929 241.392C521.251 242.584 526.423 243.952 531.469 245.494C536.49 247.072 541.386 248.825 546.13 250.753C548.49 251.735 550.825 252.752 553.109 253.769C562.273 258.011 570.783 263.025 578.641 268.81C587.88 186.522 578.566 130.496 546.708 79.7629C511.586 23.9113 448.196 0 367.083 0H131.599C115.03 0 100.896 16.8291 98.3354 39.7237L0.250768 908C-1.6823 925.179 7.80732 940.676 20.2091 940.676H165.591L202.094 617.242L241.358 269.932Z"
        fill="#C8CCDF" />
</svg>
    