<svg width="755" height="845" viewBox="0 0 755 845" fill="none" xmlns="http://www.w3.org/2000/svg">
    <path d="M377.378 844.039C585.419 844.039 754.067 655.266 754.067 422.398C754.067 189.531 585.419 0.757812 377.378 0.757812C169.337 0.757812 0.689453 189.531 0.689453 422.398C0.689453 655.266 169.337 844.039 377.378 844.039Z" fill="#7E84A3"/>
    <path d="M105.291 422.38C105.291 512.939 170.877 586.351 251.781 586.351H272.708V525.447H251.781C201.003 525.447 159.702 479.217 159.702 422.38C159.702 365.552 201.003 319.312 251.781 319.312H302.065V637.885C302.065 654.038 307.797 669.529 318.001 680.95C328.205 692.372 342.045 698.789 356.475 698.789V258.408H251.781C170.877 258.408 105.291 331.83 105.291 422.38ZM502.991 258.436H482.063V319.34H502.991C553.752 319.34 595.07 365.58 595.07 422.408C595.07 479.236 553.752 525.476 502.991 525.476H452.682V206.903C452.682 190.75 446.949 175.259 436.745 163.837C426.541 152.416 412.702 145.999 398.271 145.999V586.379H502.991C583.887 586.379 649.481 512.967 649.481 422.408C649.481 331.849 583.887 258.436 502.991 258.436Z" fill="white"/>
    </svg>
    