<svg width="12" height="12" viewBox="0 0 12 12" fill="none" xmlns="http://www.w3.org/2000/svg">
<path d="M8.74999 4.99989C8.86149 4.99989 8.96849 5.01689 9.07499 5.03239C9.04049 4.91639 9.00499 4.79839 8.94799 4.69239C8.89099 4.53839 8.80199 4.40489 8.71349 4.27039C8.63949 4.12489 8.50899 4.02639 8.41299 3.90189C8.31249 3.78089 8.17549 3.70039 8.06699 3.59989C7.96049 3.49489 7.82099 3.44239 7.70999 3.36839C7.59399 3.30189 7.49299 3.22839 7.38499 3.19339L7.11549 3.08239L6.87849 2.98389L7.12099 2.01489L7.41949 2.08689C7.51499 2.11089 7.63149 2.13889 7.76399 2.17239C7.89949 2.19739 8.04399 2.26589 8.20499 2.32839C8.36399 2.39939 8.54799 2.44739 8.71899 2.56139C8.89099 2.67039 9.08949 2.76139 9.26449 2.90739C9.43399 3.05789 9.63849 3.18839 9.78949 3.37989C9.95449 3.55889 10.1175 3.74689 10.244 3.96089C10.3905 4.16489 10.49 4.38889 10.595 4.61039C10.69 4.83189 10.7665 5.05839 10.829 5.27839C10.9475 5.71939 11.0005 6.13839 11.021 6.49689C11.038 6.85589 11.028 7.15439 11.007 7.37039C10.9995 7.47239 10.9855 7.57139 10.9755 7.63989L10.963 7.72389L10.95 7.72089C10.8611 8.13631 10.6563 8.51806 10.3595 8.82198C10.0627 9.12591 9.68587 9.33959 9.27267 9.4383C8.85947 9.53702 8.42677 9.51674 8.02461 9.37981C7.62246 9.24288 7.26729 8.99489 7.00018 8.66453C6.73308 8.33418 6.56497 7.93495 6.51528 7.51304C6.46559 7.09113 6.53637 6.66377 6.71942 6.2804C6.90247 5.89704 7.19032 5.57332 7.54966 5.34672C7.90901 5.12011 8.32516 4.99986 8.74999 4.99989ZM3.24999 4.99989C3.36149 4.99989 3.46849 5.01689 3.57499 5.03239C3.54049 4.91639 3.50499 4.79839 3.44799 4.69239C3.39099 4.53839 3.30199 4.40489 3.21349 4.27039C3.13949 4.12489 3.00899 4.02639 2.91299 3.90189C2.81249 3.78089 2.67549 3.70039 2.56699 3.59989C2.46049 3.49489 2.32099 3.44239 2.20999 3.36839C2.09399 3.30189 1.99299 3.22839 1.88499 3.19339L1.61549 3.08239L1.37849 2.98389L1.62099 2.01489L1.91949 2.08689C2.01499 2.11089 2.13149 2.13889 2.26399 2.17239C2.39949 2.19739 2.54399 2.26589 2.70499 2.32839C2.86349 2.39989 3.04799 2.44739 3.21899 2.56189C3.39099 2.67089 3.58949 2.76189 3.76449 2.90789C3.93399 3.05839 4.13849 3.18889 4.28949 3.37989C4.45449 3.55889 4.61749 3.74689 4.74399 3.96089C4.89049 4.16489 4.98999 4.38889 5.09499 4.61039C5.18999 4.83189 5.26649 5.05839 5.32899 5.27839C5.44749 5.71939 5.50049 6.13839 5.52099 6.49689C5.53799 6.85589 5.52799 7.15439 5.50699 7.37039C5.49949 7.47239 5.48549 7.57139 5.47549 7.63989L5.46299 7.72389L5.44999 7.72089C5.36106 8.13631 5.15634 8.51806 4.85951 8.82198C4.56268 9.12591 4.18587 9.33959 3.77267 9.4383C3.35947 9.53702 2.92677 9.51674 2.52461 9.37981C2.12246 9.24288 1.76729 8.99489 1.50019 8.66453C1.23308 8.33418 1.06497 7.93495 1.01528 7.51304C0.965594 7.09113 1.03637 6.66377 1.21942 6.2804C1.40247 5.89704 1.69032 5.57332 2.04966 5.34672C2.40901 5.12011 2.82516 4.99986 3.24999 4.99989Z" fill="url(#paint0_linear_45_4)"/>
<defs>
<linearGradient id="paint0_linear_45_4" x1="1" y1="9.5" x2="11" y2="9.5" gradientUnits="userSpaceOnUse">
<stop stop-color="#FFE91F"/>
<stop offset="1" stop-color="#FC9908"/>
</linearGradient>
</defs>
</svg>
