<svg width="1027" height="643" viewBox="0 0 1027 643" fill="none" xmlns="http://www.w3.org/2000/svg">
<g clip-path="url(#clip0_19_6)">
<g clip-path="url(#clip1_19_6)">
<g clip-path="url(#clip2_19_6)">
<path d="M513.215 196.388C562.755 196.388 602.915 156.054 602.915 106.301C602.915 56.5469 562.755 16.2135 513.215 16.2135C463.676 16.2135 423.516 56.5469 423.516 106.301C423.516 156.054 463.676 196.388 513.215 196.388Z" fill="white"/>
<path d="M476.142 578.288H421.722C410.11 578.288 399.642 574.102 392.239 567.401C389.437 565.176 385.767 561.33 383.531 555.378C381.937 551.636 381.068 547.589 381.068 543.375C381.068 539.772 381.702 536.307 382.882 533.043C383.358 531.02 383.959 528.906 384.725 526.688L386.07 526.591C392.984 515.788 406.356 508.463 421.722 508.463H443.857L451.661 490.716H421.722C399.27 490.716 381.061 475.082 381.061 455.804C381.061 436.525 399.263 420.892 421.722 420.892H482.387L515.258 346.175L459.962 225.299C459.962 225.299 339.185 248.832 318.037 347.623L298.517 557.554C298.517 557.554 290.382 615.182 316.408 627.537C342.435 639.886 467.669 639.886 467.669 639.886C467.669 639.886 506.412 606.069 476.142 578.288Z" fill="white"/>
<path d="M727.907 557.554L708.387 347.616C687.239 248.825 567.304 222.021 567.304 222.021L525.014 346.168L493.281 420.885H604.695C627.154 420.885 645.363 436.518 645.363 455.797C645.363 475.076 627.154 490.709 604.695 490.709H463.632L456.098 508.456H604.702C620.103 508.456 633.509 515.816 640.409 526.654L641.706 526.682C642.472 528.906 643.072 531.02 643.555 533.043C644.728 536.307 645.37 539.779 645.37 543.369C645.37 547.554 644.508 551.573 642.928 555.288C640.699 561.296 637.007 565.17 634.185 567.401C626.775 574.102 616.308 578.288 604.702 578.288H550.282C520.012 606.069 558.755 639.886 558.755 639.886C558.755 639.886 683.989 639.886 710.016 627.538C736.042 615.189 727.907 557.554 727.907 557.554Z" fill="white"/>
</g>
</g>
</g>
<defs>
<clipPath id="clip0_19_6">
<rect width="1026.42" height="642.227" fill="white"/>
</clipPath>
<clipPath id="clip1_19_6">
<rect width="1023.97" height="642.746" fill="white" transform="translate(1.22803 -0.26001)"/>
</clipPath>
<clipPath id="clip2_19_6">
<rect width="431.798" height="637.546" fill="white" transform="translate(297.313 2.34009)"/>
</clipPath>
</defs>
</svg>
