<svg width="1740" height="934" viewBox="0 0 1740 934" fill="none" xmlns="http://www.w3.org/2000/svg">
    <mask id="mask0_38_15" style="mask-type:luminance" maskUnits="userSpaceOnUse" x="0" y="0"
        width="1740" height="934">
        <path d="M1740 0H0V934H1740V0Z" fill="white" />
    </mask>
    <g mask="url(#mask0_38_15)">
        <path
            d="M326.965 360.005L368.959 354.071C370.323 371.257 375.764 387.215 384.346 399.205C393.223 409.375 404.345 414.5 415.633 413.621C426.817 414.806 437.933 410.271 447.057 400.799C450.281 397.311 452.911 392.794 454.744 387.596C456.576 382.397 457.563 376.657 457.627 370.817C457.75 363.99 456.171 357.329 453.18 352.061C448.886 345.705 443.534 341.071 437.643 338.608C432.588 336.092 421.068 331.573 403.083 325.051C379.948 316.717 363.717 306.475 354.389 294.323C348.148 286.647 343.147 277.065 339.745 266.26C336.342 255.455 334.621 243.693 334.704 231.811C334.7 216.01 337.922 200.562 343.962 187.423C350.464 173.257 359.768 162.287 370.647 155.959C384.028 148.283 398.337 144.609 412.718 145.157C439.554 145.157 459.75 153.704 473.307 170.799C480.034 179.318 485.423 189.839 489.108 201.648C492.793 213.457 494.689 226.279 494.667 239.246L451.505 242C450.64 228.77 446.402 216.487 439.623 207.565C431.568 199.741 421.946 196.049 412.283 197.074C401.895 196.21 391.585 200.139 382.827 208.301C380.664 210.424 378.903 213.302 377.705 216.671C376.507 220.041 375.911 223.793 375.971 227.585C375.976 231.233 376.557 234.831 377.669 238.102C378.781 241.373 380.394 244.23 382.385 246.453C387.83 253.095 401.051 260.014 422.048 267.209C438.128 271.982 453.765 279.487 468.639 289.568C478.331 296.782 486.492 307.691 492.245 321.126C498.229 336.127 501.186 353.272 500.777 370.6C500.784 388.353 497.238 405.726 490.57 420.602C483.684 436.247 473.599 448.365 461.73 455.254C446.885 463.423 431.079 467.269 415.211 466.575C388.185 466.575 367.431 457.5 352.948 439.348C338.465 421.196 329.804 394.749 326.965 360.005ZM535.778 461.085V150.478H578.94V461.085H535.778ZM619.48 461.085V150.478H684.08L722.867 362.373L761.225 150.478H825.962V461.085H785.864V216.518L743.429 461.085H701.876L659.584 216.518V461.085H619.48ZM868.839 461.085V150.478H938.107C955.282 149.475 972.482 151.037 989.437 155.138C1001.78 159.887 1012.63 170.614 1020.21 185.545C1028.89 203.118 1033.26 224.424 1032.6 246.038C1032.98 262.686 1030.52 279.211 1025.46 294.153C1021.18 306.331 1014.94 316.831 1007.28 324.768C1000.56 331.779 992.951 336.785 984.893 339.495C970.084 342.957 955.089 344.448 940.094 343.948H912.001V461.085H868.839ZM912.001 202.999V291.144H935.627C947.107 292.082 958.618 290.436 969.752 286.266C975.223 283.32 979.934 277.993 983.244 271.011C986.542 263.882 988.247 255.448 988.126 246.859C988.386 236.604 985.933 226.593 981.27 218.886C976.729 211.564 970.609 206.707 963.915 205.112C953.613 203.276 943.23 202.567 932.855 202.989L912.001 202.999ZM1069.2 461.085V152.987H1112.36V408.743H1219.69V461.085H1069.2ZM1250.46 461.085V150.478H1408.99V203.027H1293.62V271.898H1400.95V324.24H1293.62V408.743H1413.05V461.085H1250.46ZM348.728 803.683V566.617H370.316V803.683H348.728ZM408.154 803.683V566.617H430.3L516.002 752.747V566.617H536.7V803.683H514.554L428.852 617.393V803.683H408.154ZM619.597 803.683L556.385 566.617H579.758L622.161 738.841C625.572 752.641 628.429 765.578 630.731 777.654C633.255 764.716 636.185 751.779 639.522 738.841L683.593 566.617H705.629L641.749 803.683H619.597ZM718.419 688.235C718.419 648.888 725.691 618.069 740.234 595.779C747.462 584.745 756.218 576.063 765.925 570.306C775.631 564.549 786.067 561.848 796.544 562.381C810.853 562.092 824.941 567.519 837.272 578.071C849.261 588.373 858.88 603.606 864.917 621.846C871.438 641.701 874.696 663.484 874.435 685.481C874.699 707.843 871.263 729.97 864.417 750.002C858.218 768.252 848.312 783.295 836.038 793.098C823.913 802.809 810.279 807.847 796.434 807.731C781.935 808.071 767.665 802.467 755.258 791.56C743.332 781.05 733.778 765.708 727.769 747.417C721.572 728.992 718.373 708.743 718.419 688.235ZM740.676 688.717C739.725 713.361 745.414 737.575 756.537 756.229C761.569 764.233 767.724 770.575 774.586 774.827C781.448 779.08 788.859 781.144 796.317 780.881C803.845 781.191 811.331 779.125 818.257 774.825C825.183 770.525 831.384 764.094 836.434 755.974C846.931 739.37 852.179 715.815 852.179 685.311C852.443 667.961 850.144 650.731 845.439 634.78C841.32 621.015 834.46 609.357 825.741 601.307C817.032 593.355 806.927 589.227 796.642 589.42C789.352 589.258 782.113 591.197 775.342 595.124C768.571 599.05 762.402 604.888 757.193 612.298C746.181 627.557 740.676 653.036 740.676 688.717ZM905.93 803.683V566.617H927.518V803.683H905.93ZM1081.98 720.567L1103.57 728.492C1100.19 751.546 1091.6 772.296 1079.17 787.438C1066.84 801.243 1051.6 808.415 1036.05 807.731C1021.01 808.695 1006.1 803.273 993.145 792.126C981.791 781.129 973.017 765.361 967.993 746.926C962.19 726.809 959.257 705.189 959.37 683.377C959.011 661.019 962.351 638.863 969.109 618.77C975.18 601.034 984.843 586.425 996.8 576.91C1008.93 567.315 1022.55 562.388 1036.36 562.598C1051.08 561.881 1065.56 568.249 1077.53 580.712C1088.97 593.457 1097.16 611.386 1100.79 631.658L1079.53 638.932C1076.87 624.187 1071.12 611.016 1063.06 601.251C1055.16 593.062 1045.61 588.911 1035.91 589.448C1024.76 588.865 1013.76 593.44 1004.51 602.515C996.134 611.15 989.908 623.488 986.756 637.686C983.35 652.351 981.622 667.729 981.64 683.207C981.38 701.213 983.437 719.131 987.704 736.039C991.175 750.064 997.826 761.955 1006.56 769.758C1014.91 777.103 1024.49 780.952 1034.24 780.881C1045.41 781.347 1056.31 775.951 1064.96 765.682C1073.99 753.886 1079.99 737.977 1081.98 720.567ZM1130.61 803.683V566.617H1248.58V594.59H1152.21V667.235H1242.45V695.047H1152.21V775.739H1252.37V803.712L1130.61 803.683ZM1274.84 727.52L1295.2 724.935C1295.82 735.305 1298.12 745.313 1301.94 754.125C1306.08 762.432 1311.77 768.832 1318.35 772.56C1326.27 777.395 1334.8 779.792 1343.39 779.598C1350.83 779.798 1358.22 777.987 1365.21 774.258C1370.78 771.476 1375.67 766.39 1379.28 759.625C1382.28 753.759 1383.9 746.642 1383.9 739.332C1383.99 732.289 1382.42 725.415 1379.44 719.85C1375.51 713.342 1370.43 708.506 1364.75 705.859C1355.21 701.267 1345.52 697.407 1335.7 694.292C1324.86 691.083 1314.29 686.121 1304.21 679.499C1297.16 674.517 1291.15 666.898 1286.8 657.423C1282.97 648.595 1280.97 638.347 1281.06 627.912C1281.06 615.963 1283.5 604.282 1288.07 594.354C1293.06 583.585 1300.21 575.312 1308.55 570.665C1318.07 565.126 1328.24 562.378 1338.49 562.579C1349.44 562.269 1360.32 565.157 1370.48 571.07C1379.16 576.073 1386.59 584.784 1391.79 596.052C1396.79 607.184 1399.57 620.115 1399.8 633.403L1379.11 635.667C1378.88 629.197 1377.76 622.858 1375.82 617.025C1373.88 611.192 1371.16 605.982 1367.81 601.704C1359.53 593.232 1349.48 589.176 1339.38 590.222C1329.32 589.015 1319.28 592.685 1310.81 600.656C1308.06 603.528 1305.82 607.302 1304.26 611.671C1302.71 616.039 1301.88 620.88 1301.85 625.799C1301.78 629.765 1302.31 633.705 1303.41 637.339C1304.5 640.972 1306.14 644.209 1308.2 646.819C1312.35 652.316 1323.2 657.948 1340.75 663.716C1353.07 667.208 1365.15 672.259 1376.86 678.81C1385.27 683.901 1392.55 692.269 1397.9 702.991C1402.47 712.965 1404.84 724.727 1404.69 736.709C1404.67 749.4 1402.08 761.802 1397.23 772.361C1391.98 783.872 1384.53 792.918 1375.81 798.4C1365.92 804.774 1355.19 807.948 1344.37 807.703C1331.69 808.252 1319.07 805.062 1307.26 798.325C1297.67 792.539 1289.49 782.711 1283.78 770.107C1278.09 757.425 1274.98 742.658 1274.84 727.52Z"
            fill="#2B3232" />
    </g>
</svg>
    