<svg width="1362" height="710" viewBox="0 0 1362 710" fill="none" xmlns="http://www.w3.org/2000/svg">
    <path d="M144 143.6C159.733 143.6 174.8 146.4 189.2 152C203.867 157.333 216.133 164.533 226 173.6C236.133 182.667 242.133 192.4 244 202.8C245.333 209.733 244.4 217.467 241.2 226C238 234.267 232.933 241.6 226 248C219.067 254.133 210.667 257.467 200.8 258C197.333 258 192.933 257.6 187.6 256.8C182.267 256 177.067 254.4 172 252C167.2 249.6 163.333 246.133 160.4 241.6C164.4 239.467 167.067 237.2 168.4 234.8C169.733 232.4 170.133 230 169.6 227.6C168.533 222.267 165.333 217.867 160 214.4C154.933 210.933 148.667 208.8 141.2 208C136.933 207.467 132 207.6 126.4 208.4C120.8 208.933 115.6 210.8 110.8 214C106.267 216.933 103.067 221.867 101.2 228.8C100.133 232.8 100.267 237.2 101.6 242C103.2 246.533 106.933 250.933 112.8 255.2C118.667 259.2 127.6 262.667 139.6 265.6C158 269.867 175.067 274.533 190.8 279.6C206.8 284.667 220.8 290.933 232.8 298.4C244.8 305.867 254 315.2 260.4 326.4C267.067 337.333 270.133 351.067 269.6 367.6C269.333 378.533 266.4 390 260.8 402C255.2 414 247.067 425.2 236.4 435.6C225.733 445.733 212.667 454 197.2 460.4C181.733 466.8 164.133 470 144.4 470C131.867 470 118.933 468.933 105.6 466.8C92.2667 464.667 79.6 461.333 67.6 456.8C55.8667 452.267 45.4667 446.267 36.4 438.8C28.4 431.867 22.6667 423.2 19.2 412.8C16 402.4 15.3333 392 17.2 381.6C19.0667 370.933 23.7333 361.867 31.2 354.4C38.9333 346.933 49.6 342.8 63.2 342C60.5333 350 62 357.867 67.6 365.6C73.4667 373.067 82.1333 379.467 93.6 384.8C105.067 389.867 117.6 392.933 131.2 394C145.333 395.067 157.6 394.533 168 392.4C178.667 390.267 184.533 385.867 185.6 379.2C186.933 371.2 185.333 364.8 180.8 360C176.267 355.2 170 351.6 162 349.2C154 346.533 145.333 344.4 136 342.8C126.667 340.933 118 339.067 110 337.2C99.3333 334.267 88.5333 330.533 77.6 326C66.9333 321.2 57.0667 315.2 48 308C39.2 300.8 32 292 26.4 281.6C20.8 271.2 17.8667 259.067 17.6 245.2C17.3333 228.933 20.6667 214.533 27.6 202C34.5333 189.2 44 178.533 56 170C68 161.2 81.6 154.667 96.8 150.4C112.267 145.867 128 143.6 144 143.6ZM459.438 242C462.104 244.667 464.104 249.6 465.438 256.8C467.038 263.733 467.438 271.467 466.638 280C466.104 288.267 464.104 295.867 460.638 302.8C457.438 309.467 452.504 314 445.838 316.4C435.438 320.133 427.838 326.8 423.038 336.4C418.238 346 415.438 358.133 414.638 372.8V406.8C415.171 411.067 416.904 414.533 419.838 417.2C423.038 419.867 426.104 421.733 429.038 422.8C432.238 423.867 433.838 424.4 433.838 424.4C433.838 424.4 433.304 426.267 432.238 430C431.438 433.733 429.838 438.133 427.438 443.2C425.038 448.267 421.571 453.2 417.038 458C412.504 462.533 406.638 465.733 399.438 467.6C395.704 468.4 390.638 468.533 384.238 468C378.104 467.733 371.838 466.533 365.438 464.4C359.038 462.267 353.704 459.333 349.438 455.6C347.038 453.467 345.038 451.2 343.438 448.8C341.838 446.4 340.638 442.8 339.838 438C339.304 433.2 339.038 426.4 339.038 417.6V374.8C338.771 359.333 335.438 346.533 329.038 336.4C322.638 326 314.238 317.067 303.838 309.6C299.038 306.133 295.571 300.533 293.438 292.8C291.571 284.8 290.371 276.4 289.838 267.6C289.304 258.8 289.171 251.333 289.438 245.2C290.771 245.467 294.371 246 300.238 246.8C306.104 247.6 311.171 248 315.438 248C323.971 247.733 329.838 244.4 333.038 238C336.238 231.6 337.838 223.6 337.838 214L337.438 178.4C339.838 178.133 343.838 177.867 349.438 177.6C355.304 177.067 361.704 177.067 368.638 177.6C375.571 178.133 382.238 179.467 388.638 181.6C395.304 183.467 400.904 186.533 405.438 190.8C410.238 195.067 413.038 200.8 413.838 208C413.838 208.8 413.838 209.867 413.838 211.2C414.104 212.267 414.238 213.6 414.238 215.2H414.638C414.638 218.667 415.038 222.8 415.838 227.6C416.904 232.4 418.371 236.4 420.238 239.6C422.104 242.267 425.038 244.267 429.038 245.6C433.038 246.667 436.904 247.333 440.638 247.6C444.638 247.6 447.571 247.333 449.438 246.8C452.371 246 454.504 245.333 455.838 244.8C457.171 244 458.371 243.067 459.438 242ZM627.603 232.4C632.936 231.067 637.87 232.4 642.403 236.4C646.936 240.4 650.936 245.867 654.403 252.8C658.136 259.467 661.203 266.4 663.603 273.6C666.003 280.533 667.87 286.4 669.203 291.2C670.536 296 671.203 298.4 671.203 298.4C671.203 298.4 668.003 299.067 661.603 300.4C655.47 301.467 647.736 303.733 638.403 307.2C629.336 310.4 620.27 315.333 611.203 322C605.87 326 600.803 330.8 596.003 336.4C591.203 342 587.07 349.2 583.603 358C580.136 366.533 577.603 377.867 576.003 392C575.203 399.2 575.07 406.667 575.603 414.4C576.136 422.133 576.403 428.667 576.403 434C576.67 438.8 577.336 442.267 578.403 444.4C579.736 446.267 580.803 447.867 581.603 449.2C578.136 452.4 571.736 456 562.403 460C553.336 463.733 543.336 465.6 532.403 465.6C521.736 465.6 513.87 462.133 508.803 455.2C503.736 448.267 501.203 438.667 501.203 426.4C501.203 423.467 501.07 417.067 500.803 407.2C500.803 397.067 500.67 384.933 500.403 370.8C500.403 356.667 500.27 342 500.003 326.8C500.003 311.6 499.87 297.467 499.603 284.4C499.603 271.067 499.47 260.267 499.203 252C499.203 243.733 499.203 239.6 499.203 239.6C501.87 239.067 506.403 238.667 512.803 238.4C519.47 238.133 526.67 238.4 534.403 239.2C542.136 240 549.336 241.867 556.003 244.8C559.203 246.133 563.47 247.467 568.803 248.8C574.403 249.867 579.736 250.4 584.803 250.4C590.136 250.4 594.003 249.6 596.403 248C601.47 244.267 606.536 241.067 611.603 238.4C616.936 235.733 622.27 233.733 627.603 232.4ZM744.003 226C734.936 226.267 726.803 223.733 719.603 218.4C712.67 213.067 707.336 206.533 703.603 198.8C700.136 190.8 698.803 183.2 699.603 176C700.936 165.067 705.87 157.333 714.403 152.8C722.936 148.267 731.87 145.867 741.203 145.6C754.536 145.067 764.936 148.533 772.403 156C779.87 163.467 783.603 172 783.603 181.6C783.603 188 782.136 194.533 779.203 201.2C776.536 207.867 772.27 213.6 766.403 218.4C760.536 222.933 753.07 225.467 744.003 226ZM786.403 423.6C786.67 428.4 788.136 432.533 790.803 436C793.736 439.2 797.203 442.267 801.203 445.2C799.336 447.6 796.936 450.133 794.003 452.8C791.07 455.467 786.67 458 780.803 460.4C775.203 462.533 767.07 464.267 756.403 465.6C752.936 465.867 748.536 465.467 743.203 464.4C737.87 463.6 732.536 461.067 727.203 456.8C722.136 452.267 718.003 445.2 714.803 435.6C711.603 425.733 710.27 412.267 710.803 395.2C711.07 392.267 711.07 386.533 710.803 378C710.803 369.467 710.67 359.333 710.403 347.6C710.403 335.867 710.27 323.733 710.003 311.2C710.003 298.667 709.87 287.067 709.603 276.4C709.603 265.467 709.47 256.667 709.203 250C709.203 243.067 709.203 239.6 709.203 239.6C711.603 239.333 715.603 239.067 721.203 238.8C727.07 238.267 733.47 238.267 740.403 238.8C747.336 239.333 754.003 240.667 760.403 242.8C767.07 244.667 772.67 247.733 777.203 252C782.003 256.267 784.803 262 785.603 269.2C786.936 279.333 787.47 292.933 787.203 310C786.936 326.8 786.536 345.2 786.003 365.2C785.47 384.933 785.603 404.4 786.403 423.6ZM941.988 232.8C965.721 230.933 985.721 234.933 1001.99 244.8C1018.25 254.4 1030.65 267.867 1039.19 285.2C1047.72 302.267 1052.12 321.2 1052.39 342C1052.92 361.2 1050.12 378.267 1043.99 393.2C1037.85 407.867 1029.45 420.4 1018.79 430.8C1008.12 440.933 996.121 448.667 982.788 454C969.721 459.333 956.254 462 942.388 462C939.454 462 935.588 462.4 930.788 463.2C926.254 463.733 922.521 465.2 919.588 467.6C917.721 469.467 916.388 471.467 915.588 473.6C915.054 475.733 914.921 478.267 915.188 481.2C915.721 486 916.788 489.333 918.388 491.2C920.254 493.333 921.854 495.6 923.188 498C920.254 501.2 916.121 504.667 910.788 508.4C905.454 512.133 898.921 515.067 891.188 517.2C883.721 519.333 874.788 519.6 864.388 518C857.988 516.933 852.388 512.8 847.588 505.6C842.788 498.4 840.254 488.667 839.988 476.4L838.788 290.4C838.788 275.467 837.854 263.333 835.988 254C834.121 244.4 833.188 239.6 833.188 239.6C836.654 238.533 842.121 237.6 849.588 236.8C857.321 236 865.321 236.533 873.588 238.4C876.788 239.2 880.788 240.133 885.588 241.2C890.654 242 896.121 242 901.988 241.2C909.721 240.4 917.454 238.933 925.188 236.8C932.921 234.4 938.521 233.067 941.988 232.8ZM949.588 399.2C958.121 399.2 966.121 394.8 973.588 386C981.054 376.933 984.788 364.267 984.788 348C984.788 337.067 982.921 327.867 979.188 320.4C975.721 312.667 971.321 306.933 965.988 303.2C960.654 299.2 955.454 297.2 950.388 297.2C945.321 297.2 940.121 297.6 934.787 298.4C929.721 299.2 925.188 302.267 921.188 307.6C917.454 312.933 915.054 322.4 913.988 336C912.654 353.6 913.721 366.933 917.188 376C920.921 385.067 925.854 391.2 931.988 394.4C938.121 397.6 943.988 399.2 949.588 399.2ZM1285.96 363.6C1292.63 368.133 1296.89 374.667 1298.76 383.2C1300.89 391.467 1300.63 400.533 1297.96 410.4C1295.56 420.267 1290.63 429.733 1283.16 438.8C1275.69 447.6 1265.56 454.933 1252.76 460.8C1240.23 466.667 1225.03 469.733 1207.16 470C1192.23 470.267 1177.56 468.4 1163.16 464.4C1149.03 460.4 1136.09 454.267 1124.36 446C1112.89 437.733 1103.56 427.067 1096.36 414C1089.16 400.933 1085.16 385.333 1084.36 367.2C1084.09 363.467 1084.09 359.6 1084.36 355.6C1084.63 351.6 1084.89 347.467 1085.16 343.2C1085.16 342.133 1085.16 341.067 1085.16 340C1085.43 338.933 1085.69 337.867 1085.96 336.8C1088.63 320.8 1094.09 306.133 1102.36 292.8C1110.89 279.467 1121.29 268.133 1133.56 258.8C1145.83 249.467 1158.89 242.667 1172.76 238.4C1186.89 233.867 1200.76 232.267 1214.36 233.6C1235.43 235.733 1251.69 241.333 1263.16 250.4C1274.89 259.467 1282.49 270.667 1285.96 284C1289.69 297.067 1289.83 311.2 1286.36 326.4C1284.49 333.867 1280.23 341.333 1273.56 348.8C1267.16 356 1259.16 362.533 1249.56 368.4C1239.96 374 1229.69 378.4 1218.76 381.6C1208.09 384.533 1197.69 385.733 1187.56 385.2C1182.49 384.933 1179.83 386.533 1179.56 390C1179.29 393.2 1180.76 396.8 1183.96 400.8C1187.16 404.533 1191.43 407.067 1196.76 408.4C1209.29 411.067 1221.03 411.2 1231.96 408.8C1243.16 406.133 1251.69 402.533 1257.56 398C1262.36 394.267 1267.43 389.333 1272.76 383.2C1278.09 376.8 1282.49 370.267 1285.96 363.6ZM1198.36 323.2C1204.49 322.667 1209.83 320.8 1214.36 317.6C1219.16 314.133 1221.56 310.533 1221.56 306.8C1221.83 301.467 1220.49 297.2 1217.56 294C1214.89 290.533 1210.23 288.933 1203.56 289.2C1196.09 289.467 1188.89 290.533 1181.96 292.4C1175.03 294.267 1170.89 298.133 1169.56 304C1168.76 308 1169.96 311.467 1173.16 314.4C1176.36 317.333 1180.36 319.6 1185.16 321.2C1189.96 322.533 1194.36 323.2 1198.36 323.2Z" fill="#7E84A3"/>
    </svg>
    