<svg width="569" height="542" viewBox="0 0 569 542" fill="none" xmlns="http://www.w3.org/2000/svg">
    <path d="M66.3005 88.8141C63.2052 88.8141 60.1794 87.7081 57.6058 85.6359C55.0321 83.5636 53.0262 80.6183 51.8417 77.1723C50.6572 73.7263 50.3472 69.9345 50.9511 66.2763C51.555 62.618 53.0455 59.2577 55.2342 56.6203C57.4229 53.9828 60.2115 52.1867 63.2473 51.4591C66.2831 50.7314 69.4298 51.1048 72.2895 52.5322C75.1492 53.9596 77.5934 56.3768 79.3131 59.4781C81.0327 62.5794 81.9506 66.2255 81.9506 69.9554C81.9506 74.9571 80.3017 79.7538 77.3668 83.2905C74.4318 86.8272 70.4511 88.8141 66.3005 88.8141ZM66.3005 51.7475C63.3119 51.7475 60.3904 52.8155 57.9055 54.8162C55.4206 56.817 53.4838 59.6608 52.3401 62.988C51.1965 66.3152 50.8972 69.9763 51.4802 73.5085C52.0633 77.0406 53.5024 80.285 55.6157 82.8316C57.7289 85.3781 60.4214 87.1123 63.3526 87.8149C66.2837 88.5174 69.322 88.1569 72.083 86.7787C74.8441 85.4005 77.2041 83.0667 78.8645 80.0723C80.5248 77.0779 81.4111 73.5575 81.4111 69.9561C81.4111 67.565 81.0202 65.1972 80.2609 62.988C79.5015 60.7788 78.3884 58.7715 76.9853 57.0807C75.5821 55.3899 73.9164 54.0486 72.0831 53.1336C70.2498 52.2185 68.2848 51.7475 66.3005 51.7475Z" fill="#3F3D56"/>
    <path d="M282.245 45.0427H9.61554C4.30822 45.0537 0.00726616 51.4564 0 59.3586V215.985C0.00726616 223.886 4.30822 230.286 9.61554 230.301H282.245C287.552 230.29 291.853 223.887 291.86 215.985V59.3579C291.853 51.4564 287.552 45.0566 282.245 45.042V45.0427ZM290.73 215.985C290.724 222.957 286.93 228.608 282.246 228.616H9.61554C4.9319 228.607 1.13836 222.957 1.1311 215.985V59.3579C1.13655 52.3853 4.9319 46.7348 9.61554 46.7268H282.245C286.928 46.7355 290.722 52.3853 290.729 59.3579L290.73 215.985Z" fill="#3F3D56"/>
    <path d="M68.4235 108.039H19.9824V148.9H68.4235V108.039Z" fill="#F2F2F2"/>
    <path d="M136.24 108.039H87.7988V148.9H136.24V108.039Z" fill="#F2F2F2"/>
    <path d="M66.5074 0H65.6797V70.0398H66.5074V0Z" fill="#2F2E41"/>
    <path d="M36.7242 148.662L25.2891 129.632L28.4038 126.914L37.1571 141.481L70.6523 100.013L73.4074 103.245L36.7242 148.662Z" fill="#07796A"/>
    <path d="M68.4235 167.871H19.9824V208.732H68.4235V167.871Z" fill="#F2F2F2"/>
    <path d="M136.24 167.871H87.7988V208.732H136.24V167.871Z" fill="#F2F2F2"/>
    <path d="M103.935 208.494L92.5 189.464L95.6147 186.746L104.368 201.313L137.863 159.845L140.618 163.077L103.935 208.494Z" fill="#07796A"/>
    <path d="M172.359 148.662L160.924 129.632L164.039 126.914L172.792 141.481L206.287 100.013L209.042 103.245L172.359 148.662Z" fill="#07796A"/>
    <path d="M225.757 0H224.93V70.0398H225.757V0Z" fill="#2F2E41"/>
    <path d="M204.058 108.039H155.617V148.9H204.058V108.039Z" fill="#F2F2F2"/>
    <path d="M271.875 108.039H223.434V148.9H271.875V108.039Z" fill="#F2F2F2"/>
    <path d="M204.058 167.871H155.617V208.732H204.058V167.871Z" fill="#F2F2F2"/>
    <path d="M271.875 167.871H223.434V208.732H271.875V167.871Z" fill="#F2F2F2"/>
    <path d="M224.945 88.8141C221.85 88.8141 218.824 87.7081 216.25 85.6359C213.677 83.5636 211.671 80.6183 210.486 77.1723C209.302 73.7263 208.992 69.9345 209.596 66.2763C210.2 62.618 211.69 59.2577 213.879 56.6203C216.067 53.9828 218.856 52.1867 221.892 51.4591C224.928 50.7314 228.074 51.1048 230.934 52.5322C233.794 53.9596 236.238 56.3768 237.958 59.4781C239.677 62.5794 240.595 66.2255 240.595 69.9554C240.595 74.9571 238.946 79.7538 236.011 83.2905C233.076 86.8272 229.096 88.8141 224.945 88.8141ZM224.945 51.7475C221.956 51.7475 219.035 52.8155 216.55 54.8162C214.065 56.817 212.128 59.6608 210.985 62.988C209.841 66.3152 209.542 69.9763 210.125 73.5085C210.708 77.0406 212.147 80.285 214.26 82.8316C216.373 85.3781 219.066 87.1123 221.997 87.8149C224.928 88.5174 227.966 88.1569 230.728 86.7787C233.489 85.4005 235.849 83.0667 237.509 80.0723C239.169 77.0779 240.056 73.5575 240.056 69.9561C240.056 67.565 239.665 65.1972 238.905 62.988C238.146 60.7788 237.033 58.7715 235.63 57.0807C234.227 55.3899 232.561 54.0486 230.728 53.1336C228.894 52.2185 226.929 51.7475 224.945 51.7475Z" fill="#3F3D56"/>
    <path d="M362.435 221.283C362.163 218.006 361.277 214.845 359.845 212.04C358.413 209.234 356.471 206.857 354.166 205.086C351.861 203.315 349.253 202.197 346.537 201.816C343.822 201.435 341.07 201.801 338.489 202.886L339.8 203.047C333.922 204.464 328.698 208.484 325.16 214.315C323.432 217.229 322.245 220.557 321.678 224.073C321.111 227.589 321.178 231.211 321.874 234.693C323.36 241.608 327.744 247.607 333.357 249.909C336.478 251.189 339.828 251.345 343.124 251.48C345.263 251.568 347.441 251.646 349.503 250.956C352.155 249.966 354.487 248.007 356.176 245.351C357.848 242.705 359.179 239.77 360.123 236.644C361.721 231.755 362.869 226.511 362.435 221.283Z" fill="#2F2E41"/>
    <path d="M409.038 539.884C404.378 518.769 414.727 498.188 426.819 483.94C433.264 476.347 440.441 469.747 447.439 462.929C454.155 456.458 460.55 449.519 466.593 442.147C478.26 427.76 488.438 411.318 495.178 392.836C501.587 375.26 504.616 356.114 503.116 336.937C501.692 318.75 496.281 300.859 486.327 286.905C485.087 285.166 483.782 283.499 482.413 281.905C481.679 281.046 480.553 282.398 481.289 283.259C492.404 296.262 498.874 313.884 501.064 332.216C503.322 351.122 500.995 370.396 495.127 388.072C488.876 406.901 478.936 423.702 467.408 438.364C461.603 445.701 455.427 452.6 448.916 459.02C441.963 465.92 434.738 472.44 428.117 479.815C415.914 493.406 404.947 512.101 406.454 533.146C406.629 535.594 406.981 538.019 407.506 540.394C407.567 540.631 407.703 540.83 407.884 540.948C408.065 541.067 408.277 541.097 408.476 541.031C408.675 540.965 408.845 540.808 408.949 540.595C409.054 540.381 409.086 540.126 409.038 539.884Z" fill="#F0F0F0"/>
    <path d="M457.838 419.676C450.495 404.509 444.879 388.219 441.141 371.247C437.391 354.28 435.516 336.79 435.563 319.231C435.616 301.673 437.386 283.675 441.904 266.932C446.192 251.041 453.875 235.886 466.072 227.214C472.292 222.818 479.393 220.559 486.604 220.682C494.221 220.769 501.732 223.184 508.594 227.095C515.315 230.925 521.461 236.087 527.138 241.841C532.551 247.318 537.602 253.294 542.246 259.714C551.447 272.461 558.964 287.221 563.162 303.404C567.538 320.269 568.304 338.717 564.244 355.786C560.343 372.181 551.799 386.155 541.309 397.38C529.973 409.511 516.545 418.326 503.004 426.327C499.615 428.33 496.208 430.287 492.8 432.243C491.877 432.773 492.683 434.425 493.602 433.897C507.88 425.699 522.3 417.429 535.027 405.983C546.258 395.883 556.268 383.205 562.224 367.761C568.521 351.43 569.812 332.86 567.202 315.24C564.651 298.019 558.251 281.902 549.686 267.865C545.429 260.921 540.699 254.417 535.544 248.421C530.256 242.129 524.481 236.459 518.299 231.487C505.626 221.508 489.779 215.482 474.761 220.622C461.409 225.192 451.133 238.08 445.019 252.687C441.597 260.862 439.29 269.654 437.649 278.575C436.048 287.367 434.972 296.285 434.428 305.262C432.246 341.084 438.073 376.955 451.304 409.141C452.916 413.045 454.636 416.879 456.466 420.643C456.576 420.853 456.749 421.003 456.95 421.062C457.15 421.121 457.362 421.084 457.54 420.958C457.718 420.833 457.848 420.629 457.904 420.39C457.96 420.151 457.936 419.895 457.838 419.676Z" fill="#F0F0F0"/>
    <path d="M447.774 401.165C440.43 385.997 434.814 369.708 431.076 352.736C427.327 335.768 425.451 318.278 425.499 300.719C425.552 283.161 427.321 265.164 431.839 248.42C436.127 232.529 443.81 217.374 456.007 208.703C462.228 204.307 469.329 202.047 476.54 202.17C484.156 202.257 491.667 204.672 498.53 208.583C505.251 212.413 511.396 217.575 517.074 223.329C522.486 228.806 527.538 234.782 532.181 241.203C541.382 253.95 548.899 268.709 553.098 284.892C557.473 301.758 558.24 320.205 554.179 337.275C550.279 353.669 541.735 367.643 531.245 378.868C519.909 390.999 506.48 399.815 492.94 407.816C489.551 409.818 486.143 411.775 482.736 413.732C481.813 414.262 482.618 415.913 483.538 415.385C497.816 407.187 512.235 398.917 524.963 387.471C536.193 377.371 546.204 364.693 552.159 349.249C558.457 332.918 559.748 314.348 557.137 296.728C554.586 279.508 548.186 263.39 539.621 249.354C535.365 242.409 530.635 235.905 525.48 229.91C520.191 223.618 514.416 217.947 508.234 212.976C495.562 202.997 479.714 196.97 464.696 202.111C451.345 206.68 441.069 219.569 434.955 234.175C431.532 242.35 429.226 251.142 427.585 260.063C425.984 268.855 424.907 277.774 424.363 286.751C422.181 322.572 428.009 358.443 441.24 390.63C442.851 394.533 444.572 398.367 446.401 402.131C446.511 402.341 446.685 402.491 446.885 402.55C447.086 402.609 447.297 402.572 447.475 402.447C447.653 402.321 447.784 402.118 447.84 401.878C447.895 401.639 447.872 401.383 447.774 401.165Z" fill="#F0F0F0"/>
    <path d="M303.077 365.279C302.516 364.326 302.136 363.237 301.963 362.088C301.789 360.939 301.827 359.758 302.073 358.629C302.319 357.499 302.768 356.449 303.388 355.551C304.008 354.653 304.783 353.93 305.66 353.432L324.032 284.128L336.827 292.136L314.745 357.741C315.341 359.572 315.359 361.602 314.796 363.447C314.233 365.292 313.128 366.825 311.69 367.754C310.251 368.683 308.58 368.944 306.993 368.488C305.406 368.032 304.012 366.89 303.077 365.279Z" fill="#FFB6B6"/>
    <path d="M318.088 293.712C317.912 293.243 317.822 292.734 317.824 292.219C317.827 291.705 317.921 291.197 318.101 290.73L324.394 274.431C325.015 271.906 326.441 269.781 328.36 268.522C330.28 267.262 332.535 266.971 334.632 267.711C336.73 268.452 338.498 270.164 339.549 272.472C340.6 274.781 340.848 277.497 340.24 280.026L338.137 297.882C338.077 298.391 337.926 298.879 337.695 299.312C337.465 299.746 337.159 300.114 336.8 300.392C336.44 300.67 336.035 300.851 335.612 300.924C335.189 300.997 334.758 300.958 334.349 300.812L319.953 295.674C319.543 295.528 319.164 295.277 318.842 294.938C318.521 294.6 318.263 294.182 318.088 293.712Z" fill="#2F2E41"/>
    <path d="M371.164 296.463C366.792 310.256 367.909 324.724 373.294 339.716H335.147C336.68 329.049 336.059 319.136 330.379 310.992L371.164 296.463Z" fill="#FFB6B6"/>
    <path d="M326.517 271.114L337.807 261.222L356.281 255.04L371.676 258.75L372.581 268.999C373.682 281.465 373.204 294.061 371.163 306.354L331.136 317.483L327.031 308.827C327.031 308.827 317.794 297.699 324.978 285.334L326.517 271.114Z" fill="#2F2E41"/>
    <path d="M424.573 201.925C424.825 203.053 424.868 204.233 424.701 205.383C424.533 206.534 424.158 207.626 423.602 208.582C423.046 209.539 422.323 210.337 421.484 210.921C420.644 211.504 419.708 211.859 418.743 211.96L381.579 269.303L371.879 256.451L411.46 204.125C411.427 202.16 411.994 200.248 413.052 198.752C414.111 197.256 415.589 196.28 417.205 196.008C418.821 195.737 420.464 196.19 421.822 197.28C423.18 198.371 424.159 200.023 424.573 201.925Z" fill="#FFB6B6"/>
    <path d="M389.915 262.794C389.945 263.308 389.883 263.823 389.732 264.305C389.582 264.786 389.347 265.223 389.044 265.586L378.454 278.249C377.146 280.359 375.197 281.757 373.034 282.138C370.871 282.519 368.671 281.851 366.917 280.28C365.162 278.71 363.996 276.366 363.674 273.761C363.352 271.157 363.9 268.504 365.199 266.386L372.306 250.515C372.509 250.062 372.791 249.667 373.132 249.357C373.473 249.047 373.865 248.829 374.282 248.718C374.7 248.607 375.132 248.606 375.549 248.714C375.967 248.823 376.36 249.038 376.702 249.346L388.729 260.176C389.071 260.484 389.355 260.877 389.559 261.329C389.764 261.781 389.885 262.281 389.915 262.794Z" fill="#2F2E41"/>
    <path d="M326.569 527.333H332.415L335.196 500.169H326.568L326.569 527.333Z" fill="#FFB6B6"/>
    <path d="M324.589 523.859L333.83 523.194V527.964L342.615 535.274C343.049 535.635 343.376 536.154 343.548 536.754C343.72 537.355 343.728 538.006 343.571 538.613C343.414 539.219 343.1 539.749 342.676 540.126C342.251 540.502 341.737 540.705 341.21 540.705H330.208L328.312 535.987L327.572 540.705H323.424L324.589 523.859Z" fill="#2F2E41"/>
    <path d="M367.896 527.333H373.741L376.522 500.169H367.895L367.896 527.333Z" fill="#FFB6B6"/>
    <path d="M365.913 523.859L375.154 523.194V527.964L383.939 535.274C384.373 535.635 384.7 536.154 384.872 536.754C385.044 537.355 385.052 538.006 384.895 538.613C384.738 539.219 384.425 539.749 384 540.126C383.575 540.502 383.061 540.705 382.534 540.705H371.533L369.636 535.987L368.896 540.705H364.748L365.913 523.859Z" fill="#2F2E41"/>
    <path d="M383.425 375.136V388.987L382.301 405.908C382.301 405.908 381.947 420.685 381.517 432.341C381.258 439.426 380.966 445.356 380.712 446.122C380.4 447.06 380.473 449.62 380.654 452.307C380.866 455.415 381.215 458.696 381.274 459.794C381.385 461.843 380.484 470.645 380.484 470.645C380.484 470.645 379.478 492.718 378.015 494.48C376.553 496.241 378.015 501.252 378.015 501.252C371.16 507.342 362.502 499.899 362.502 499.899C364.415 496.229 361.379 471.175 361.379 471.175C361.379 471.175 360.934 462.622 360.033 460.324C359.133 458.026 358.905 443.671 358.905 443.671V422.409C358.905 422.409 356.542 418.055 356.208 416.026C355.874 413.996 356.208 406.821 356.208 406.821L353.739 396.8L352.049 404.651C352.049 404.651 347.673 426.59 346.883 429.296C346.094 432.002 347.328 434.715 347.328 434.715C347.328 434.715 348.457 438.89 347.328 440.805C346.627 442.004 346.091 443.332 345.739 444.737C345.739 444.737 345.161 452.728 344.15 455.588C343.138 458.447 342.242 461.971 342.242 461.971C342.242 461.971 342.48 467.371 341.469 468.59C340.457 469.809 340.123 475.905 340.123 475.905C340.123 475.905 340.345 482.805 338.994 485.243C337.643 487.682 337.643 501.495 337.643 501.495C335.3 503.306 332.6 504.336 329.819 504.478C327.037 504.62 324.275 503.871 321.812 502.305C321.812 502.305 323.148 500.799 322.136 493.778C321.124 486.756 322.862 467.639 322.862 467.639C322.862 467.639 322.639 462.788 323.762 460.618C324.885 458.447 323.195 454.254 323.646 452.358C324.096 450.462 325.447 440.166 325.447 440.166C325.447 440.166 324.885 414.845 324.885 413.491C324.752 411.083 324.211 408.732 323.296 406.585C322.284 404.421 323.296 388.712 323.296 388.712C323.296 388.712 325.68 380.593 324.885 378.831C324.091 377.07 325.415 373.955 325.415 373.955C325.415 373.955 324.181 370.297 325.415 369.621C326.65 368.944 326.878 366.238 326.878 366.238L327.736 353.101C327.736 353.101 328.059 347.14 329.087 346.872C330.115 346.603 329.664 344.306 330.676 342.678C331.169 341.578 331.509 340.387 331.683 339.154C331.826 338.401 331.958 337.616 332.07 336.863C332.388 334.82 332.584 333.059 332.584 333.059C339.217 339.697 374.094 335.044 374.132 335.044C376.346 335.625 378.98 344.886 380.881 352.961C382.572 360.176 383.428 367.638 383.425 375.136Z" fill="#2F2E41"/>
    <path d="M358.056 237.61C360.598 227.535 355.879 216.884 347.516 213.822C339.154 210.759 330.313 216.444 327.771 226.519C325.229 236.594 329.947 247.245 338.31 250.307C346.673 253.37 355.513 247.686 358.056 237.61Z" fill="#FFB6B6"/>
    <path d="M325.023 235.389L331.152 233.852L332.28 224.054L334.396 233.039L337.325 232.305L337.983 226.589L339.218 231.83L360.982 226.374C360.534 223.779 359.666 221.316 358.428 219.125C357.189 216.934 355.605 215.059 353.765 213.605C351.925 212.152 349.865 211.15 347.704 210.656C345.542 210.161 343.321 210.185 341.167 210.725L338.013 211.516C333.662 212.606 329.85 215.734 327.414 220.211C324.978 224.688 324.118 230.148 325.023 235.389Z" fill="#2F2E41"/>
    <path d="M387.719 92.0166L387.679 92.1097C379.686 87.6734 370.583 87.1114 362.256 90.54C353.929 93.9687 347.016 101.125 342.948 110.527C338.881 119.929 337.972 130.856 340.409 141.043C342.845 151.231 348.442 159.898 356.038 165.251L355.998 165.344L416.862 203.561L448.583 130.234C450.671 125.418 451.951 120.154 452.35 114.743C452.748 109.331 452.258 103.878 450.906 98.6953C449.554 93.5123 447.367 88.7012 444.471 84.5369C441.575 80.3726 438.026 76.9368 434.028 74.4259C430.029 71.9149 425.658 70.3781 421.166 69.9033C416.674 69.4285 412.148 70.025 407.847 71.6587C403.547 73.2923 399.555 75.9312 396.102 79.4243C392.648 82.9175 389.8 87.1964 387.719 92.0166Z" fill="#07796A"/>
    <path d="M441.945 512.79L441.935 512.814C439.915 511.692 437.614 511.55 435.509 512.417C433.404 513.283 431.657 515.092 430.629 517.469C429.601 519.845 429.371 522.607 429.987 525.181C430.603 527.756 432.018 529.947 433.938 531.3L433.928 531.323L449.311 540.983L457.328 522.449C457.856 521.232 458.18 519.902 458.281 518.534C458.381 517.166 458.257 515.788 457.916 514.478C457.574 513.168 457.022 511.952 456.29 510.899C455.558 509.846 454.661 508.978 453.65 508.343C452.639 507.709 451.534 507.32 450.399 507.2C449.263 507.08 448.119 507.231 447.032 507.644C445.945 508.057 444.936 508.724 444.064 509.607C443.191 510.49 442.471 511.572 441.945 512.79Z" fill="#FF6584"/>
    <path d="M237.879 277.794V277.899C229.089 278.416 220.801 282.986 214.732 290.663C208.663 298.341 205.277 308.536 205.277 319.139C205.277 329.741 208.663 339.937 214.732 347.614C220.801 355.291 229.089 359.861 237.879 360.378V360.483L306.513 360.483L306.513 277.794C306.517 272.362 305.633 266.981 303.91 261.96C302.187 256.94 299.66 252.377 296.473 248.534C293.286 244.69 289.502 241.641 285.336 239.561C281.17 237.481 276.705 236.41 272.196 236.41C267.686 236.41 263.221 237.481 259.055 239.561C254.89 241.641 251.105 244.69 247.918 248.534C244.731 252.377 242.204 256.94 240.481 261.96C238.759 266.981 237.874 272.362 237.879 277.794Z" fill="#07796A"/>
    <path d="M557.741 542H214.795C214.628 542 214.467 541.919 214.349 541.777C214.231 541.634 214.164 541.441 214.164 541.24C214.164 541.038 214.231 540.845 214.349 540.702C214.467 540.56 214.628 540.479 214.795 540.479H557.741C557.908 540.479 558.069 540.56 558.187 540.702C558.305 540.845 558.372 541.038 558.372 541.24C558.372 541.441 558.305 541.634 558.187 541.777C558.069 541.919 557.908 542 557.741 542Z" fill="#CACACA"/>
    <path d="M503.139 355.913C510.149 355.86 516.927 352.879 522.317 347.479C527.804 341.919 531.416 334.135 532.471 325.592C533.091 320.762 532.891 315.831 531.884 311.096C531.822 310.859 531.687 310.661 531.506 310.542C531.325 310.423 531.113 310.393 530.914 310.459C530.715 310.525 530.545 310.682 530.44 310.896C530.336 311.109 530.304 311.364 530.351 311.605C532.05 319.644 531.284 328.151 528.193 335.563C525.818 341.105 522.226 345.755 517.808 349.006C513.39 352.257 508.316 353.984 503.139 353.998C502.933 354.007 502.738 354.111 502.594 354.29C502.451 354.468 502.371 354.707 502.371 354.955C502.371 355.204 502.451 355.442 502.594 355.621C502.738 355.8 502.933 355.904 503.139 355.913Z" fill="#F0F0F0"/>
    <path d="M380.407 107.191C375.885 102.019 368.744 102.033 363.521 105.633C357.66 109.673 355.003 118.022 355.138 125.861C355.289 134.684 358.869 142.673 363.493 149.289C368.42 156.164 374.154 162.135 380.513 167.014C386.855 171.99 393.717 175.93 400.919 178.73C401.806 179.074 402.697 179.401 403.592 179.709C403.793 179.767 404.004 179.728 404.182 179.602C404.359 179.476 404.489 179.271 404.544 179.032C404.599 178.792 404.574 178.536 404.475 178.318C404.377 178.1 404.212 177.937 404.015 177.863C390.184 173.101 377.609 164.112 367.511 151.769C362.704 145.837 358.432 138.709 357.119 130.411C355.958 123.084 357.241 114.576 361.955 109.356C366.537 104.283 374.557 103.14 379.283 108.545C380.025 109.393 381.151 108.041 380.407 107.191Z" fill="white"/>
    <path d="M236.704 297.937C230.595 297.022 224.858 302.198 222.479 308.737C219.811 316.069 221.61 324.52 225.48 330.717C229.742 337.541 236.198 341.519 242.947 343.631C250.191 345.898 257.881 346.51 265.338 346.091C274.153 345.599 282.853 343.469 291.128 339.776C292.078 339.35 291.667 337.499 290.705 337.929C276.93 344.091 261.594 346.035 247.108 342.782C240.633 341.328 234.038 338.553 229.213 332.941C224.841 327.855 221.748 320.153 223.064 312.715C224.371 305.324 230.204 298.878 236.704 299.852C237.716 300.004 237.707 298.088 236.704 297.937Z" fill="white"/>
    <path d="M443.453 464.751L438.337 453.902C438.227 453.692 438.053 453.541 437.853 453.482C437.653 453.423 437.441 453.461 437.263 453.586C437.085 453.711 436.954 453.915 436.899 454.154C436.843 454.394 436.867 454.65 436.965 454.868L442.081 465.718C442.191 465.928 442.364 466.078 442.565 466.137C442.765 466.196 442.976 466.159 443.155 466.033C443.333 465.908 443.463 465.704 443.519 465.465C443.575 465.226 443.551 464.97 443.453 464.751Z" fill="#F0F0F0"/>
    <path d="M337.957 205.342C339.645 197.208 336.375 188.483 331.311 182.733C326.247 176.983 319.638 173.678 313.098 170.817C307.882 168.535 301.773 166.55 297.053 170.065C293.26 172.889 291.614 178.374 289.446 183.069C285.314 192.015 278.647 198.869 270.666 202.379C262.684 205.889 253.921 205.819 245.979 202.182C248.778 211.975 258.421 216.765 266.999 216.1C275.576 215.435 283.499 210.675 291.489 206.858C299.48 203.041 308.369 200.091 316.581 203.148C320.048 204.439 323.2 206.741 326.632 208.158C330.064 209.575 334.08 209.997 337.139 207.646" fill="#2F2E41"/>
    </svg>
    