<svg width="794" height="521" viewBox="0 0 794 521" fill="none" xmlns="http://www.w3.org/2000/svg">
<g clip-path="url(#clip0_267_2)">
<mask id="mask0_267_2" style="mask-type:luminance" maskUnits="userSpaceOnUse" x="0" y="0" width="794" height="521">
<path d="M794 0H0V521H794V0Z" fill="white"/>
</mask>
<g mask="url(#mask0_267_2)">
<mask id="mask1_267_2" style="mask-type:luminance" maskUnits="userSpaceOnUse" x="0" y="0" width="794" height="521">
<path d="M794 0H0V521H794V0Z" fill="white"/>
</mask>
<g mask="url(#mask1_267_2)">
<path d="M726.178 452.833C720.03 463.3 709.93 466.091 700.895 469.742C679.311 478.457 657.295 485.634 635.428 493.321C632.89 494.386 630.136 494.46 627.56 493.533C624.985 492.606 622.721 490.726 621.093 488.162C619.234 485.665 618.045 482.554 617.684 479.236C617.322 475.917 617.803 472.545 619.064 469.559C619.649 468.471 619.972 467.21 619.998 465.916C617.936 452.986 615.739 440.088 613.424 426.378C601.937 429.082 589.869 432.736 577.612 434.66C536.917 441.05 496.262 448.249 455.4 452.512C373.341 461.081 291.124 456.731 208.962 453.747C173.42 452.458 138.043 448.515 104.236 433.392C49.036 408.694 20.7379 359.749 17.1969 290.78C13.0474 209.897 51.9686 147.301 111.473 119.025C129.054 110.671 146.969 109.301 164.032 121.75C167.026 123.83 169.76 126.405 172.152 129.401C172.989 130.411 173.639 131.622 174.058 132.953C174.478 134.285 174.657 135.708 174.586 137.129C174.037 138.389 173.25 139.479 172.289 140.312C171.327 141.146 170.217 141.7 169.046 141.931C160.156 143.565 151.178 144.418 142.184 144.481C111.035 143.494 87.8294 161.24 68.8951 188.566C37.2963 234.155 33.302 309.161 59.4218 357.253C71.6361 379.751 89.4204 393.424 109.782 403.159C139.408 417.42 170.948 425.126 202.871 425.905C253.614 427.082 304.415 426.794 355.158 425.417C396.446 424.298 437.816 422.305 478.916 417.722C522.513 412.858 565.833 404.449 609.284 397.683C613.388 397.042 615.216 394.973 615.107 389.719C614.939 381.704 615.338 373.688 615.557 365.673C615.758 358.259 617.799 351.934 623.962 349.023C626.659 347.696 629.637 347.423 632.472 348.242C635.306 349.061 637.853 350.931 639.748 353.584C663.587 381.772 689.803 406.925 717.974 428.637C721.503 431.373 723.486 436.977 726.188 441.254L726.178 452.833ZM685.83 441.495L639.861 397.807V458.651L685.83 441.495Z" fill="#F7F6FA"/>
<path d="M299.24 52.92C295.4 52.92 292.56 52.56 290.72 51.84C288.96 51.04 287.8 50.12 287.24 49.08C286.76 47.96 286.52 46.96 286.52 46.08C286.52 44.96 287.16 43.68 288.44 42.24C289.72 40.72 292.2 39.6 295.88 38.88C299.56 38.08 303.92 37.36 308.96 36.72C314 36 319.36 35.4 325.04 34.92C330.72 34.36 336.48 33.88 342.32 33.48C348.16 33.08 353.72 32.8 359 32.64C364.28 32.4 368.96 32.28 373.04 32.28C377.28 32.28 380.56 32.52 382.88 33C385.2 33.48 386.84 34.08 387.8 34.8C388.84 35.52 389.44 36.28 389.6 37.08C389.84 37.88 389.96 38.64 389.96 39.36C389.96 39.52 389.96 39.64 389.96 39.72C389.96 40.68 389.72 41.72 389.24 42.84C388.84 43.96 387.92 44.92 386.48 45.72C385.04 46.44 382.88 46.8 380 46.8C378.96 46.8 376.64 46.96 373.04 47.28C369.44 47.6 365.04 48 359.84 48.48C354.64 48.96 349.12 49.44 343.28 49.92C342.4 53.52 341.4 57.72 340.28 62.52C339.24 67.32 338.16 72.36 337.04 77.64C336 82.92 335 88.12 334.04 93.24C333.08 98.28 332.28 102.96 331.64 107.28C331 111.52 330.56 115 330.32 117.72C330 121.4 328.92 124 327.08 125.52C325.32 126.96 323.56 127.68 321.8 127.68C320.52 127.68 319.24 127.4 317.96 126.84C316.68 126.36 315.64 125.28 314.84 123.6C314.04 121.84 313.64 119.24 313.64 115.8C313.64 112.28 313.96 107.96 314.6 102.84C315.24 97.64 316.08 92.08 317.12 86.16C318.24 80.24 319.48 74.28 320.84 68.28C322.28 62.28 323.76 56.68 325.28 51.48C319.92 51.88 314.96 52.24 310.4 52.56C305.84 52.8 302.12 52.92 299.24 52.92ZM370.985 131.28C368.985 131.28 367.265 130.56 365.825 129.12C364.465 127.68 363.785 125.6 363.785 122.88C363.785 121.68 363.945 119.72 364.265 117C364.665 114.2 365.145 111 365.705 107.4C366.345 103.8 366.945 100.04 367.505 96.12C368.145 92.2 368.665 88.48 369.065 84.96C369.545 81.44 369.865 78.44 370.025 75.96C370.185 72.92 370.985 70.76 372.425 69.48C373.865 68.12 375.585 67.44 377.585 67.44C379.185 67.44 380.625 67.84 381.905 68.64C383.265 69.36 384.105 70.92 384.425 73.32C384.825 75.64 384.865 79 384.545 83.4C388.065 77 391.625 71.28 395.225 66.24C398.905 61.2 402.745 57.2 406.745 54.24C413.385 49.2 419.385 46.68 424.745 46.68C427.785 46.68 429.785 47.36 430.745 48.72C431.705 50.08 432.185 51.48 432.185 52.92C432.185 53.88 431.945 54.76 431.465 55.56C431.065 56.36 430.185 57.2 428.825 58.08C427.465 58.96 425.385 60.12 422.585 61.56C418.825 63.48 415.105 66 411.425 69.12C407.825 72.24 404.225 76.24 400.625 81.12C397.025 86 393.385 92 389.705 99.12C386.025 106.24 382.225 114.72 378.305 124.56C377.585 127.28 376.545 129.08 375.185 129.96C373.905 130.84 372.505 131.28 370.985 131.28ZM471.858 131.4C470.018 131.4 468.338 130.64 466.818 129.12C465.378 127.68 464.658 125.24 464.658 121.8C464.658 119.24 464.858 115.68 465.258 111.12C465.738 106.48 466.618 100.52 467.898 93.24C465.098 99 462.178 104.12 459.138 108.6C456.098 113.08 453.098 116.6 450.138 119.16C447.258 121.64 444.498 122.88 441.858 122.88C437.618 122.88 434.258 121.6 431.778 119.04C429.298 116.4 428.058 111.48 428.058 104.28C428.058 100.84 428.338 96.96 428.898 92.64C429.538 88.32 430.338 84 431.298 79.68C432.258 75.36 433.218 71.52 434.178 68.16C435.218 64.72 436.138 62.16 436.938 60.48C437.578 59.04 438.378 57.92 439.338 57.12C440.378 56.32 441.698 55.92 443.298 55.92C445.858 55.92 447.818 56.76 449.178 58.44C450.538 60.12 451.218 61.84 451.218 63.6C451.218 64.96 450.898 66.92 450.258 69.48C449.698 72.04 448.978 74.88 448.098 78C447.298 81.12 446.458 84.32 445.578 87.6C444.698 90.88 443.938 93.96 443.298 96.84C442.738 99.72 442.458 102.16 442.458 104.16C442.458 106.64 443.418 107.88 445.338 107.88C446.458 107.88 447.898 106.8 449.658 104.64C451.498 102.48 453.418 99.6 455.418 96C457.498 92.32 459.578 88.32 461.658 84C463.818 79.6 465.778 75.16 467.538 70.68C469.378 66.12 470.938 61.92 472.218 58.08C473.018 55.68 474.098 54 475.458 53.04C476.818 52.08 478.378 51.6 480.138 51.6C482.858 51.6 484.938 52.36 486.378 53.88C487.898 55.4 488.658 57.56 488.658 60.36C488.658 61.64 488.458 63.8 488.058 66.84C487.658 69.88 487.138 73.44 486.498 77.52C485.938 81.6 485.258 85.92 484.458 90.48C483.658 95.04 482.858 99.52 482.058 103.92C481.338 108.32 480.618 112.36 479.898 116.04C479.178 119.64 478.578 122.52 478.098 124.68C477.298 127.88 476.338 129.8 475.218 130.44C474.098 131.08 472.978 131.4 471.858 131.4ZM518.197 132.12C514.757 132.12 512.317 131.64 510.877 130.68C509.517 129.72 508.837 128.32 508.837 126.48C508.837 124.88 509.397 123.52 510.517 122.4C511.637 121.2 514.117 120 517.957 118.8C522.437 117.44 526.677 115.88 530.677 114.12C534.757 112.28 538.077 110.28 540.637 108.12C543.277 105.96 544.597 103.68 544.597 101.28C544.597 99.68 544.037 98.52 542.917 97.8C541.877 97.08 540.637 96.72 539.197 96.72C537.997 96.72 536.237 96.92 533.917 97.32C531.677 97.64 529.197 98.08 526.477 98.64C523.757 99.12 521.117 99.56 518.557 99.96C516.077 100.28 513.957 100.44 512.197 100.44C508.037 100.44 504.957 99.52 502.957 97.68C500.957 95.76 499.957 93.32 499.957 90.36C499.957 88.76 500.797 86.56 502.477 83.76C504.157 80.96 506.397 77.88 509.197 74.52C511.997 71.16 515.117 67.8 518.557 64.44C521.997 61.08 525.477 58 528.997 55.2C532.597 52.32 535.997 50.04 539.197 48.36C542.397 46.6 545.117 45.72 547.357 45.72C549.917 45.72 551.957 46.52 553.477 48.12C555.077 49.72 555.877 51.88 555.877 54.6C555.877 55.88 555.757 57.28 555.517 58.8C555.277 60.24 554.677 61.56 553.717 62.76C552.757 63.88 551.277 64.68 549.277 65.16C547.277 65.64 544.557 65.56 541.117 64.92C538.397 66.92 535.557 69.12 532.597 71.52C529.717 73.84 526.997 76.28 524.437 78.84C521.877 81.32 519.757 83.76 518.077 86.16C521.037 85.2 524.397 84.44 528.157 83.88C531.917 83.24 535.717 82.92 539.557 82.92C544.197 82.92 547.957 83.76 550.837 85.44C553.797 87.04 555.957 89.2 557.317 91.92C558.757 94.64 559.477 97.64 559.477 100.92C559.477 104.6 558.277 108.28 555.877 111.96C553.477 115.64 550.277 119 546.277 122.04C542.277 125.08 537.837 127.52 532.957 129.36C528.077 131.2 523.157 132.12 518.197 132.12ZM656.658 65.52C656.658 66.48 656.338 67.32 655.698 68.04C655.058 68.76 654.258 69.32 653.298 69.72C651.938 70.28 649.578 71 646.218 71.88C642.858 72.76 638.778 73.76 633.978 74.88C629.258 76 624.178 77.16 618.738 78.36C613.298 79.48 607.858 80.56 602.418 81.6C600.338 89.28 598.218 97.2 596.058 105.36C593.898 113.44 591.738 121.4 589.578 129.24C588.778 132.04 587.818 134.16 586.698 135.6C585.578 137.12 583.658 137.88 580.938 137.88C577.978 137.88 575.978 136.92 574.938 135C573.978 133.16 573.858 130.64 574.578 127.44C576.658 118.72 578.578 110.6 580.338 103.08C582.178 95.56 583.658 89.48 584.778 84.84C579.978 85.64 575.778 86.28 572.178 86.76C568.578 87.16 566.018 87.32 564.498 87.24C562.818 87.08 561.418 86.4 560.298 85.2C559.178 84 558.658 82.52 558.738 80.76C558.898 79.16 559.618 77.8 560.898 76.68C562.178 75.48 563.698 74.76 565.458 74.52C567.938 74.28 571.138 73.92 575.058 73.44C578.978 72.96 583.298 72.4 588.018 71.76C589.058 67.68 590.258 63.48 591.618 59.16C592.978 54.76 594.378 50.56 595.818 46.56C597.338 42.48 598.778 38.92 600.138 35.88C601.498 32.84 602.738 30.64 603.858 29.28C604.738 28.24 605.818 27.44 607.098 26.88C608.458 26.32 609.778 26.04 611.058 26.04C612.738 26.04 614.098 26.64 615.138 27.84C616.178 29.04 616.698 30.44 616.698 32.04C616.698 32.68 616.658 33.36 616.578 34.08C616.498 34.72 616.338 35.36 616.098 36C614.578 40 612.938 44.84 611.178 50.52C609.498 56.2 607.738 62.44 605.898 69.24C611.898 68.36 617.778 67.48 623.538 66.6C629.378 65.64 634.658 64.76 639.378 63.96C644.178 63.08 648.018 62.32 650.898 61.68C652.498 61.12 653.858 61.24 654.978 62.04C656.098 62.76 656.658 63.92 656.658 65.52ZM659.289 130.08C654.329 130.08 650.329 128.36 647.289 124.92C644.249 121.4 642.729 115.76 642.729 108C642.729 103.04 643.289 98.08 644.409 93.12C645.609 88.08 647.249 83.32 649.329 78.84C651.489 74.28 653.969 70.24 656.769 66.72C659.649 63.2 662.809 60.44 666.249 58.44C669.689 56.36 673.249 55.32 676.929 55.32C683.169 55.32 688.049 57 691.569 60.36C695.089 63.72 696.849 68 696.849 73.2C696.849 77.2 695.729 80.84 693.489 84.12C691.329 87.32 688.369 90.2 684.609 92.76C680.849 95.32 676.649 97.64 672.009 99.72C667.369 101.8 662.609 103.68 657.729 105.36C657.329 108.24 657.129 110.8 657.129 113.04C657.129 114.4 657.889 115.08 659.409 115.08C663.009 115.08 666.849 114.52 670.929 113.4C675.089 112.2 679.289 110.68 683.529 108.84C687.769 106.92 691.849 104.96 695.769 102.96C699.689 100.88 703.249 98.92 706.449 97.08C709.729 95.16 712.409 93.64 714.489 92.52C716.649 91.32 718.049 90.72 718.689 90.72C720.449 90.72 721.729 91.24 722.529 92.28C723.329 93.32 723.729 94.44 723.729 95.64C723.729 96.2 722.649 97.44 720.489 99.36C718.409 101.28 715.529 103.56 711.849 106.2C708.249 108.76 704.169 111.44 699.609 114.24C695.129 116.96 690.449 119.56 685.569 122.04C680.769 124.44 676.089 126.36 671.529 127.8C667.049 129.32 662.969 130.08 659.289 130.08ZM659.769 94.68C663.049 92.76 666.289 90.76 669.489 88.68C672.769 86.52 675.489 84.12 677.649 81.48C679.809 78.76 680.889 75.6 680.889 72C680.889 70.96 680.609 70.28 680.049 69.96C679.489 69.56 678.689 69.36 677.649 69.36C674.849 69.36 672.289 70.6 669.969 73.08C667.729 75.56 665.729 78.76 663.969 82.68C662.289 86.52 660.889 90.52 659.769 94.68ZM766.806 61.8C771.206 51.32 775.086 40.52 778.446 29.4C779.086 27.16 780.006 25.44 781.206 24.24C782.486 23.04 784.246 22.44 786.486 22.44C788.326 22.44 789.726 23 790.686 24.12C791.646 25.16 792.126 26.6 792.126 28.44C792.126 29.96 791.486 32.68 790.206 36.6C788.926 40.44 787.366 45.32 785.526 51.24C783.686 57.16 781.846 64 780.006 71.76C778.166 79.52 776.606 88.04 775.326 97.32C774.046 106.6 773.406 116.52 773.406 127.08C773.406 129.96 772.846 132.32 771.726 134.16C770.686 136.08 768.846 137.04 766.206 137.04C763.326 137.04 761.206 136.04 759.846 134.04C758.566 132.04 757.926 129.48 757.926 126.36C757.926 120.2 758.126 115.08 758.526 111C759.006 106.84 759.486 103.28 759.966 100.32C756.046 107.04 751.886 112.84 747.486 117.72C743.166 122.52 739.006 126.2 735.006 128.76C731.006 131.4 727.566 132.72 724.686 132.72C719.966 132.72 716.126 131.4 713.166 128.76C710.206 126.12 708.726 122.12 708.726 116.76C708.726 112.6 709.726 108.32 711.726 103.92C713.726 99.44 716.366 95.04 719.646 90.72C722.926 86.4 726.526 82.36 730.446 78.6C734.446 74.76 738.446 71.4 742.446 68.52C746.446 65.56 750.166 63.24 753.606 61.56C757.046 59.88 759.846 59.04 762.006 59.04C764.406 59.04 766.006 59.96 766.806 61.8ZM764.046 68.28C763.566 68.6 763.046 68.92 762.486 69.24C762.006 69.48 761.526 69.76 761.046 70.08C758.006 72 754.766 74.32 751.326 77.04C747.886 79.68 744.486 82.64 741.126 85.92C737.766 89.12 734.686 92.48 731.886 96C729.166 99.44 726.966 102.88 725.286 106.32C723.686 109.68 722.886 112.92 722.886 116.04C722.886 116.6 723.126 117 723.606 117.24C724.086 117.48 724.526 117.6 724.926 117.6C727.726 117.6 730.726 116.36 733.926 113.88C737.206 111.4 740.526 107.96 743.886 103.56C747.326 99.08 750.726 93.84 754.086 87.84C757.526 81.84 760.846 75.32 764.046 68.28ZM312.08 295.32C308.8 295.32 306.32 294.8 304.64 293.76C303.04 292.8 301.96 291.68 301.4 290.4C300.92 289.12 300.68 288.12 300.68 287.4C300.68 285.08 301.72 283.16 303.8 281.64C305.96 280.04 308.36 279.24 311 279.24C313.56 279.24 316.72 278.88 320.48 278.16C324.32 277.36 328.36 276.24 332.6 274.8C336.92 273.36 341.04 271.56 344.96 269.4C348.96 267.24 352.44 264.76 355.4 261.96C358.36 259.16 360.4 256.08 361.52 252.72C359.76 252.4 358 252.16 356.24 252C354.48 251.76 352.72 251.64 350.96 251.64C345.04 251.64 338.92 252.28 332.6 253.56C326.28 254.84 320 256.08 313.76 257.28C312.24 257.6 310.88 257.32 309.68 256.44C309.52 258.12 309.36 259.68 309.2 261.12C309.12 262.48 309.04 263.96 308.96 265.56C308.8 269.48 308.44 272.52 307.88 274.68C307.4 276.76 306.84 278.24 306.2 279.12C305.56 280 304.88 280.52 304.16 280.68C303.44 280.84 302.76 280.92 302.12 280.92C301.88 280.92 301.72 280.92 301.64 280.92C300.2 280.92 298.84 280.56 297.56 279.84C296.28 279.12 295.24 277.64 294.44 275.4C293.64 273.08 293.24 269.6 293.24 264.96C293.24 250.24 294.84 237.76 298.04 227.52C301.32 217.2 306 209.36 312.08 204C318.24 198.56 325.6 195.84 334.16 195.84C340.88 195.84 346.12 197.68 349.88 201.36C353.64 204.96 355.52 210.16 355.52 216.96C355.52 220.4 354.84 223.84 353.48 227.28C352.12 230.72 350.2 234.12 347.72 237.48C349.24 237.16 350.72 236.92 352.16 236.76C353.6 236.52 354.96 236.4 356.24 236.4C363.76 236.4 369.32 237.76 372.92 240.48C376.52 243.12 378.32 246.68 378.32 251.16C378.32 255.64 377.04 259.84 374.48 263.76C372 267.68 368.68 271.28 364.52 274.56C360.44 277.76 355.92 280.68 350.96 283.32C346 285.88 341.04 288.08 336.08 289.92C331.12 291.68 326.52 293 322.28 293.88C318.04 294.84 314.64 295.32 312.08 295.32ZM311.12 244.08C311.6 243.84 312.12 243.68 312.68 243.6C319.88 242.4 325.4 240.76 329.24 238.68C333.08 236.6 335.72 234 337.16 230.88C338.6 227.76 339.32 224.04 339.32 219.72C339.32 218.6 339.16 217.4 338.84 216.12C338.52 214.84 337.88 213.76 336.92 212.88C336.04 211.92 334.68 211.44 332.84 211.44C326.76 211.44 322 214.2 318.56 219.72C315.2 225.16 312.72 233.28 311.12 244.08ZM412.961 324C408.481 324 404.401 323.72 400.721 323.16C397.041 322.68 393.441 321.88 389.921 320.76C386.401 319.64 382.601 318.16 378.521 316.32C376.841 315.52 375.441 314.68 374.321 313.8C373.201 312.92 372.641 311.6 372.641 309.84C372.641 307.28 373.441 305.32 375.041 303.96C376.561 302.68 378.681 302.04 381.401 302.04C382.841 302.04 384.681 302.52 386.921 303.48C389.161 304.52 391.721 305.68 394.601 306.96C397.561 308.32 400.841 309.48 404.441 310.44C408.041 311.48 411.921 312 416.081 312C420.321 312 424.281 310.24 427.961 306.72C431.641 303.2 434.601 298.24 436.841 291.84C439.161 285.52 440.321 278.04 440.321 269.4C440.321 267.4 440.281 265.24 440.201 262.92C440.121 260.52 440.041 258 439.961 255.36C437.081 260.8 433.961 265.88 430.601 270.6C427.241 275.32 423.761 279.16 420.161 282.12C416.641 285 413.081 286.44 409.481 286.44C405.081 286.44 401.881 285.4 399.881 283.32C397.961 281.16 397.001 277.76 397.001 273.12C397.001 269.2 397.281 264.92 397.841 260.28C398.481 255.56 399.321 250.8 400.361 246C401.401 241.2 402.601 236.64 403.961 232.32C405.401 227.92 406.921 224.12 408.521 220.92C409.721 218.6 411.561 217.44 414.041 217.44C415.641 217.44 417.241 218.2 418.841 219.72C420.521 221.24 421.361 223.28 421.361 225.84C421.361 227.28 421.001 229.36 420.281 232.08C419.561 234.8 418.681 237.88 417.641 241.32C416.681 244.68 415.681 248.24 414.641 252C413.601 255.68 412.721 259.32 412.001 262.92C411.281 266.44 410.921 269.64 410.921 272.52C410.921 272.84 411.161 273 411.641 273C412.601 273 413.881 272.2 415.481 270.6C417.161 268.92 419.001 266.76 421.001 264.12C423.081 261.4 425.161 258.44 427.241 255.24C429.401 251.96 431.481 248.72 433.481 245.52C435.481 242.32 437.281 239.4 438.881 236.76C438.641 235.48 438.481 234.36 438.401 233.4C438.401 232.36 438.401 231.48 438.401 230.76C438.401 227.48 438.961 224.76 440.081 222.6C441.281 220.44 443.601 219.36 447.041 219.36C449.281 219.36 451.001 220.2 452.201 221.88C453.401 223.48 454.001 225.76 454.001 228.72C454.001 230 453.801 231.48 453.401 233.16C453.001 234.76 452.201 237.32 451.001 240.84L452.321 237.12C453.041 244.32 453.641 250.72 454.121 256.32C454.681 261.92 454.961 267.48 454.961 273C454.961 283.4 453.201 292.4 449.681 300C446.241 307.68 441.361 313.6 435.041 317.76C428.801 321.92 421.441 324 412.961 324Z" fill="white"/>
</g>
</g>
</g>
<defs>
<clipPath id="clip0_267_2">
<rect width="794" height="521" fill="white"/>
</clipPath>
</defs>
</svg>
