<svg width="4026" height="3901" viewBox="0 0 4026 3901" fill="none"
    xmlns="http://www.w3.org/2000/svg">
    <ellipse cx="2012.94" cy="1950" rx="1301.54" ry="1261" stroke="#FFB34B" stroke-width="16"
        stroke-linecap="round" stroke-dasharray="3.72 7.43" />
    <ellipse cx="2012.94" cy="1950.5" rx="2002.87" ry="1940.5" stroke="#FFB34B" stroke-width="20"
        stroke-linecap="round" stroke-dasharray="3.72 7.43" />
    <ellipse cx="1998.92" cy="753.565" rx="282.33" ry="273.544" fill="white" />
    <ellipse cx="1998.92" cy="753.565" rx="282.33" ry="273.544" fill="white" />
    <ellipse cx="1998.88" cy="753.614" rx="329.881" ry="319.614" fill="white" fill-opacity="0.3" />
    <ellipse cx="710.916" cy="1949.57" rx="282.33" ry="273.544" fill="white" />
    <ellipse cx="710.916" cy="1949.57" rx="282.33" ry="273.544" fill="white" />
    <ellipse cx="710.881" cy="1949.61" rx="329.881" ry="319.614" fill="white" fill-opacity="0.3" />
    <ellipse cx="1998.92" cy="3142.57" rx="282.33" ry="273.544" fill="white" />
    <ellipse cx="1998.92" cy="3142.57" rx="282.33" ry="273.544" fill="white" />
    <ellipse cx="1998.88" cy="3142.61" rx="329.881" ry="319.614" fill="white" fill-opacity="0.3" />
    <ellipse cx="3313.94" cy="1949.65" rx="282.33" ry="273.544" fill="white" />
    <ellipse cx="3313.94" cy="1949.65" rx="282.33" ry="273.544" fill="white" />
    <ellipse cx="3313.88" cy="1949.61" rx="329.881" ry="319.614" fill="white" fill-opacity="0.3" />
    <ellipse cx="338.94" cy="799.251" rx="282.33" ry="273.544" fill="white" />
    <ellipse cx="338.94" cy="799.251" rx="282.33" ry="273.544" fill="white" />
    <ellipse cx="338.881" cy="799.22" rx="329.881" ry="319.614" fill="white" fill-opacity="0.3" />
    <ellipse cx="338.94" cy="3282.65" rx="282.33" ry="273.544" fill="white" />
    <ellipse cx="338.94" cy="3282.65" rx="282.33" ry="273.544" fill="white" />
    <ellipse cx="338.881" cy="3282.61" rx="329.881" ry="319.614" fill="white" fill-opacity="0.3" />
    <ellipse cx="3595.74" cy="688.645" rx="262.474" ry="273.544" fill="white" />
    <ellipse cx="3595.74" cy="688.645" rx="262.474" ry="273.544" fill="white" />
    <ellipse cx="3595.68" cy="688.614" rx="306.68" ry="319.614" fill="white" fill-opacity="0.3" />
    <ellipse cx="3595.74" cy="3282.65" rx="262.474" ry="273.544" fill="white" />
    <ellipse cx="3595.74" cy="3282.65" rx="262.474" ry="273.544" fill="white" />
    <ellipse cx="3595.68" cy="3282.61" rx="306.68" ry="319.614" fill="white" fill-opacity="0.3" />
    <g clip-path="url(#clip0_228_2)">
        <path d="M2347 1592H1677V2303H2347V1592Z" fill="#4D7E3E" />
        <g clip-path="url(#clip1_228_2)">
            <g clip-path="url(#clip2_228_2)">
                <g clip-path="url(#clip3_228_2)">
                    <path
                        d="M2012.14 1858.9C2045.33 1858.9 2072.24 1830.22 2072.24 1794.85C2072.24 1759.47 2045.33 1730.8 2012.14 1730.8C1978.95 1730.8 1952.04 1759.47 1952.04 1794.85C1952.04 1830.22 1978.95 1858.9 2012.14 1858.9Z"
                        fill="white" />
                    <path
                        d="M1987.3 2130.43H1950.84C1943.06 2130.43 1936.05 2127.46 1931.09 2122.69C1929.21 2121.11 1926.75 2118.38 1925.25 2114.14C1924.19 2111.48 1923.6 2108.61 1923.6 2105.61C1923.6 2103.05 1924.03 2100.58 1924.82 2098.26C1925.14 2096.82 1925.54 2095.32 1926.05 2093.75L1926.96 2093.68C1931.59 2085.99 1940.55 2080.79 1950.84 2080.79H1965.67L1970.9 2068.17H1950.84C1935.8 2068.17 1923.6 2057.05 1923.6 2043.35C1923.6 2029.64 1935.79 2018.52 1950.84 2018.52H1991.49L2013.51 1965.4L1976.46 1879.46C1976.46 1879.46 1895.54 1896.19 1881.37 1966.43L1868.29 2115.69C1868.29 2115.69 1862.84 2156.66 1880.28 2165.45C1897.72 2174.23 1981.63 2174.23 1981.63 2174.23C1981.63 2174.23 2007.58 2150.18 1987.3 2130.43Z"
                        fill="white" />
                    <path
                        d="M2155.99 2115.69L2142.91 1966.43C2128.74 1896.18 2048.38 1877.13 2048.38 1877.13L2020.05 1965.4L1998.79 2018.52H2073.44C2088.48 2018.52 2100.68 2029.63 2100.68 2043.34C2100.68 2057.05 2088.48 2068.16 2073.44 2068.16H1978.92L1973.88 2080.78H2073.44C2083.76 2080.78 2092.74 2086.02 2097.36 2093.72L2098.23 2093.74C2098.75 2095.32 2099.15 2096.83 2099.47 2098.26C2100.26 2100.58 2100.69 2103.05 2100.69 2105.61C2100.69 2108.58 2100.11 2111.44 2099.05 2114.08C2097.56 2118.35 2095.08 2121.11 2093.19 2122.69C2088.23 2127.46 2081.22 2130.43 2073.44 2130.43H2036.98C2016.7 2150.19 2042.66 2174.23 2042.66 2174.23C2042.66 2174.23 2126.56 2174.23 2144 2165.45C2161.44 2156.67 2155.99 2115.69 2155.99 2115.69Z"
                        fill="white" />
                </g>
                <path d="M2314.01 1862.85H1710.28V2032.31H2314.01V1862.85Z" fill="#4D7E3E" />
                <g clip-path="url(#clip4_228_2)">
                    <g clip-path="url(#clip5_228_2)">
                        <g clip-path="url(#clip6_228_2)">
                            <g clip-path="url(#clip7_228_2)">
                                <g clip-path="url(#clip8_228_2)">
                                    <g clip-path="url(#clip9_228_2)">
                                        <path
                                            d="M1772.61 1969.09C1766.59 1969.09 1760.97 1968.38 1755.75 1966.96C1750.53 1965.55 1746.85 1964.12 1744.72 1962.71C1742.57 1961.29 1741.15 1960.28 1740.45 1959.68C1738.63 1958.11 1737.72 1955.95 1737.72 1953.19C1737.72 1951.02 1737.96 1948.97 1738.45 1947.02C1739.36 1943.37 1741.01 1941.54 1743.39 1941.54C1744.17 1941.61 1746.64 1942.47 1750.81 1944.11C1754.98 1945.75 1758.25 1946.58 1760.63 1946.58C1764.2 1946.58 1765.99 1945.08 1765.99 1942.1C1765.99 1940.3 1765.11 1938.64 1763.36 1937.1C1761.61 1935.58 1759.5 1934.1 1757.02 1932.69C1754.52 1931.27 1752.01 1929.64 1749.49 1927.8C1746.97 1925.98 1744.83 1923.44 1743.08 1920.19C1741.33 1916.94 1740.45 1913.16 1740.45 1908.83C1740.45 1901.66 1743.75 1896.03 1750.33 1891.96C1756.92 1887.9 1765.43 1885.86 1775.87 1885.86C1786.31 1885.86 1794.6 1887 1800.74 1889.27C1806.86 1891.55 1809.92 1894.71 1809.92 1898.75C1809.92 1901.66 1809.29 1904.21 1808.03 1906.41C1806.77 1908.62 1805.44 1909.72 1804.04 1909.72C1803.55 1909.72 1801.92 1909.14 1799.16 1907.98C1796.39 1906.83 1793.88 1906.25 1791.64 1906.25C1787.22 1906.25 1785.02 1908.08 1785.02 1911.74C1785.02 1913.53 1786.07 1915.17 1788.17 1916.67C1790.27 1918.16 1792.81 1919.6 1795.8 1920.97C1798.77 1922.36 1801.76 1923.91 1804.77 1925.63C1807.79 1927.35 1810.34 1929.7 1812.45 1932.69C1814.55 1935.67 1815.6 1939.3 1815.6 1943.55C1815.6 1947.81 1814.32 1951.69 1811.77 1955.2C1809.21 1958.71 1805.83 1961.44 1801.62 1963.38C1793.28 1967.19 1783.61 1969.09 1772.61 1969.09V1969.09ZM1832.84 1966.85C1830.88 1966.85 1829.21 1966.16 1827.85 1964.77C1826.48 1963.39 1825.61 1961.12 1825.23 1957.93C1824.83 1954.77 1824.64 1945.25 1824.64 1929.37C1824.64 1913.51 1824.88 1903.15 1825.37 1898.3C1825.94 1892.02 1828.42 1888.81 1832.84 1888.66C1837.88 1888.51 1858.8 1888.44 1895.58 1888.44C1899.72 1888.44 1901.78 1891.24 1901.78 1896.84C1901.78 1901.25 1899.96 1903.45 1896.32 1903.45H1873.2C1871.72 1903.45 1870.55 1903.97 1869.69 1905.02C1868.8 1906.06 1868.36 1907.41 1868.36 1909.05V1917.12C1868.36 1919.36 1869.31 1920.48 1871.2 1920.48H1890.33C1891.45 1920.48 1892.3 1920.59 1892.89 1920.81C1893.5 1921.04 1894.04 1921.69 1894.53 1922.76C1895.02 1923.85 1895.27 1925.63 1895.27 1928.09C1895.27 1930.56 1894.87 1932.2 1894.07 1933.02C1893.26 1933.84 1891.94 1934.25 1890.12 1934.25H1872.99C1871.24 1934.25 1870.03 1934.72 1869.37 1935.64C1868.7 1936.58 1868.36 1938.02 1868.36 1939.97V1945.46C1868.36 1948.67 1869.8 1950.27 1872.67 1950.27H1898.84C1900.1 1950.27 1901.22 1950.66 1902.2 1951.44C1903.19 1952.23 1903.68 1953.95 1903.68 1956.59C1903.68 1959.25 1903.08 1961.62 1901.89 1963.71C1900.7 1965.81 1899.3 1966.85 1897.69 1966.85H1832.84ZM1957.07 1911.85L1957.28 1932.57C1957.28 1933.99 1958.01 1934.7 1959.49 1934.7C1963.83 1934.7 1967.25 1933.42 1969.74 1930.85C1972.22 1928.27 1973.46 1925.22 1973.46 1921.71C1973.46 1918.2 1972.29 1915.17 1969.95 1912.64C1967.6 1910.1 1964.15 1908.83 1959.59 1908.83C1957.91 1908.83 1957.07 1909.83 1957.07 1911.85V1911.85ZM1984.61 1945.34C1985.94 1946.84 1990.67 1952.48 1998.79 1962.26C1999.28 1962.93 1999.53 1963.53 1999.53 1964.05C1999.53 1965.99 1998.72 1966.96 1997.11 1966.96C1993.4 1967.04 1989.67 1967.08 1985.93 1967.08C1982.17 1967.08 1978.44 1967.04 1974.73 1966.96C1972.69 1966.96 1970.84 1966.11 1969.16 1964.39L1960.12 1949.82C1959.77 1949.38 1959.34 1949.08 1958.86 1948.93C1957.73 1948.48 1957.17 1948.97 1957.17 1950.38V1961.81C1957.17 1965.02 1955.2 1966.74 1951.25 1966.96C1947.28 1967.19 1942.95 1967.3 1938.25 1967.3C1933.56 1967.3 1927.89 1967.11 1921.23 1966.74C1919.2 1966.59 1917.57 1965.84 1916.35 1964.5C1915.12 1963.15 1914.4 1961.62 1914.19 1959.91C1913.63 1953.34 1913.35 1943.01 1913.35 1928.92C1913.35 1914.85 1913.56 1904.61 1913.98 1898.19C1914.4 1891.76 1917.44 1888.51 1923.12 1888.44C1928.44 1888.37 1935.7 1888.33 1944.88 1888.33C1954.06 1888.33 1961.66 1888.4 1967.68 1888.55C1976.37 1888.7 1983.48 1892.14 1989.02 1898.86C1994.55 1905.58 1997.32 1913.16 1997.32 1921.6C1997.32 1926.53 1996.26 1931.08 1994.13 1935.26C1991.98 1939.45 1988.81 1942.81 1984.61 1945.34V1945.34ZM2070.89 1961.03C2069.63 1963.56 2067.45 1965.55 2064.34 1966.96C2061.21 1968.38 2057.83 1969.09 2054.18 1969.09C2050.54 1969.09 2047.21 1968.42 2044.2 1967.08C2041.19 1965.73 2039.01 1963.79 2037.68 1961.25C2027.17 1940.57 2017.4 1920.25 2008.36 1900.31C2007.31 1897.92 2006.78 1896.09 2006.78 1894.82C2006.78 1890.79 2008.5 1888.78 2011.93 1888.78L2042.31 1888.55C2044.9 1888.55 2046.88 1889.04 2048.26 1890.01C2049.62 1890.98 2050.82 1892.92 2051.87 1895.83L2062.07 1923.61C2062.49 1924.81 2063.26 1925.41 2064.38 1925.41C2065.5 1925.41 2066.34 1924.81 2066.9 1923.61L2080.67 1891.8C2081.58 1889.78 2082.56 1888.66 2083.61 1888.44C2084.03 1888.37 2084.77 1888.33 2085.82 1888.33L2097.91 1888.55C2099.24 1888.55 2100.18 1889.22 2100.74 1890.57C2100.95 1891.09 2101.06 1891.73 2101.06 1892.47C2101.06 1893.22 2100.28 1895.27 2098.7 1898.63C2097.12 1901.99 2093.02 1911.33 2086.41 1926.64C2079.78 1941.95 2074.61 1953.41 2070.89 1961.03V1961.03ZM2148.25 1969.09C2135.64 1969.09 2125.67 1965.67 2118.36 1958.83C2111.03 1952 2107.37 1942.36 2107.37 1929.89C2107.37 1922.27 2108.54 1915.59 2110.9 1909.83C2113.24 1904.08 2116.54 1899.49 2120.82 1896.06C2129.3 1889.26 2140.47 1885.86 2154.35 1885.86C2163.32 1885.86 2172.28 1887.17 2181.25 1889.78C2184.69 1890.98 2186.4 1893.93 2186.4 1898.63C2186.4 1905.06 2184.51 1908.27 2180.73 1908.27C2180.1 1908.27 2178.03 1907.97 2174.53 1907.37C2171.02 1906.77 2168.57 1906.47 2167.17 1906.47C2162.19 1906.47 2158.36 1908.32 2155.67 1912.01C2152.97 1915.71 2151.61 1920.12 2151.61 1925.25C2151.61 1930.36 2152.87 1934.85 2155.4 1938.74C2157.92 1942.62 2161.35 1944.63 2165.7 1944.78C2168.64 1944.93 2173.86 1945.01 2181.36 1945.01C2185 1945.01 2187 1946.84 2187.35 1950.5C2187.56 1951.84 2187.66 1953.2 2187.66 1954.57C2187.66 1955.96 2187.56 1957.37 2187.35 1958.79C2186.93 1961.47 2184.97 1963.43 2181.46 1964.66C2177.96 1965.89 2172.91 1966.95 2166.33 1967.81C2159.74 1968.67 2153.72 1969.09 2148.25 1969.09V1969.09ZM2270.8 1888.44H2284.46C2285.87 1888.44 2286.57 1889.19 2286.57 1890.68C2286.57 1891.65 2286.18 1892.7 2285.41 1893.82L2261.87 1933.58C2261.87 1939.63 2261.69 1948.44 2261.34 1960.02C2261.27 1961.66 2260.61 1963.17 2259.34 1964.54C2258.08 1965.93 2256.4 1966.7 2254.3 1966.85C2250.31 1967.15 2245.51 1967.3 2239.9 1967.3C2234.29 1967.3 2229.14 1967.15 2224.45 1966.85C2222.35 1966.7 2220.67 1965.93 2219.4 1964.54C2218.14 1963.17 2217.48 1961.66 2217.41 1960.02C2217.27 1952.48 2217.2 1944.63 2217.2 1936.49L2195.97 1898.52C2194.92 1896.8 2194.39 1895.38 2194.39 1894.26C2194.39 1890.53 2196.11 1888.66 2199.54 1888.66L2235.49 1888.44C2237.52 1888.44 2239.04 1888.78 2240.07 1889.45C2241.08 1890.12 2242.28 1891.5 2243.68 1893.59L2250.09 1908.27C2251.22 1909.91 2252.15 1910.73 2252.89 1910.73C2253.62 1910.73 2254.51 1910.06 2255.56 1908.71L2266.28 1890.79C2267.47 1889.22 2268.98 1888.44 2270.8 1888.44V1888.44Z"
                                            fill="white" />
                                    </g>
                                </g>
                                <g clip-path="url(#clip10_228_2)">
                                    <g clip-path="url(#clip11_228_2)">
                                        <path
                                            d="M1844.3 2002.23L1843.89 2008.31H1842.57L1843.57 1992.96H1845.39L1847.27 1998.59L1849.81 2006.4C1850.79 2003.51 1851.69 2000.91 1852.5 1998.59L1854.47 1992.96H1856.28L1857.5 2008.31H1856.17L1855.68 2002.23L1855.11 1994.81C1854.25 1997.34 1853.4 1999.82 1852.56 2002.23L1850.58 2007.92H1849.02L1847.14 2002.23L1844.75 1994.97C1844.62 1997.26 1844.47 1999.68 1844.3 2002.23ZM1863.84 2007.15C1864.7 2007.15 1865.38 2006.9 1865.9 2006.4C1866.41 2005.9 1866.66 2005.26 1866.66 2004.49V2002.82H1864.55C1863.54 2002.82 1862.78 2003.03 1862.28 2003.45C1861.79 2003.87 1861.54 2004.39 1861.54 2005.01C1861.54 2005.65 1861.73 2006.16 1862.12 2006.56C1862.52 2006.95 1863.09 2007.15 1863.84 2007.15ZM1866.66 2008.31V2006.97C1866.07 2007.94 1865.03 2008.42 1863.55 2008.42C1862.55 2008.42 1861.73 2008.11 1861.1 2007.48C1860.46 2006.85 1860.15 2006.04 1860.15 2005.06C1860.15 2003.95 1860.55 2003.08 1861.35 2002.47C1862.16 2001.86 1863.22 2001.55 1864.55 2001.55H1866.66V2001.02C1866.66 1999.99 1866.46 1999.21 1866.04 1998.69C1865.63 1998.17 1864.94 1997.91 1863.97 1997.91C1862.85 1997.91 1861.84 1998.23 1860.94 1998.88V1997.38C1861.77 1996.85 1862.78 1996.59 1863.99 1996.59C1866.64 1996.59 1867.97 1998.07 1867.97 2001.02V2008.31H1866.66ZM1872.39 1992.21V2008.31H1871.09V1992.21H1872.39ZM1878.71 1996.77L1874.29 2002.25L1878.86 2008.31H1877.24L1872.71 2002.25L1877.11 1996.77H1878.71ZM1882.34 1996.77V2008.31H1881.04V1996.77H1882.34ZM1882.33 1992.38C1882.51 1992.57 1882.6 1992.81 1882.6 1993.08C1882.6 1993.35 1882.51 1993.58 1882.33 1993.76C1882.15 1993.94 1881.93 1994.03 1881.68 1994.03C1881.42 1994.03 1881.21 1993.94 1881.04 1993.76C1880.87 1993.58 1880.78 1993.35 1880.78 1993.08C1880.78 1992.81 1880.87 1992.57 1881.04 1992.38C1881.21 1992.19 1881.42 1992.1 1881.68 1992.1C1881.93 1992.1 1882.15 1992.19 1882.33 1992.38ZM1893.86 2000.25V2008.31H1892.55V2000.68C1892.55 1999.79 1892.34 1999.1 1891.91 1998.63C1891.48 1998.16 1890.92 1997.93 1890.22 1997.93C1889.34 1997.93 1888.58 1998.29 1887.94 1999.01C1887.3 1999.73 1886.98 2000.71 1886.98 2001.94V2008.31H1885.67V1996.77H1886.98V1998.75C1887.65 1997.31 1888.79 1996.59 1890.42 1996.59C1891.46 1996.59 1892.29 1996.93 1892.92 1997.61C1893.54 1998.29 1893.86 1999.17 1893.86 2000.25ZM1905.37 1996.77V2007.42C1905.37 2009.17 1904.93 2010.48 1904.05 2011.35C1903.16 2012.22 1902.02 2012.66 1900.63 2012.66C1899.39 2012.66 1898.33 2012.44 1897.47 2012V2010.63C1898.35 2011.1 1899.37 2011.34 1900.52 2011.34C1901.6 2011.34 1902.47 2011.03 1903.11 2010.4C1903.75 2009.77 1904.07 2008.77 1904.07 2007.42V2005.92C1903.34 2007.33 1902.26 2008.04 1900.82 2008.04C1899.57 2008.04 1898.5 2007.54 1897.62 2006.56C1896.75 2005.57 1896.31 2004.24 1896.31 2002.55C1896.31 2000.82 1896.71 1999.39 1897.52 1998.27C1898.32 1997.15 1899.38 1996.59 1900.69 1996.59C1902.24 1996.59 1903.37 1997.32 1904.07 1998.79V1996.77H1905.37ZM1897.68 2002.48C1897.68 2003.86 1898.01 2004.91 1898.66 2005.63C1899.32 2006.36 1900.04 2006.72 1900.84 2006.72C1901.65 2006.72 1902.39 2006.38 1903.06 2005.7C1903.73 2005.03 1904.07 2003.99 1904.07 2002.6C1904.07 2001 1903.75 1999.82 1903.11 1999.05C1902.47 1998.29 1901.75 1997.91 1900.95 1997.91C1899.94 1997.91 1899.14 1998.33 1898.56 1999.18C1897.97 2000.03 1897.68 2001.13 1897.68 2002.48ZM1915.04 1992.21V2008.31H1913.74V1992.21H1915.04ZM1919.77 1996.77V2008.31H1918.46V1996.77H1919.77ZM1919.76 1992.38C1919.93 1992.57 1920.02 1992.81 1920.02 1993.08C1920.02 1993.35 1919.93 1993.58 1919.76 1993.76C1919.58 1993.94 1919.36 1994.03 1919.1 1994.03C1918.85 1994.03 1918.63 1993.94 1918.46 1993.76C1918.29 1993.58 1918.21 1993.35 1918.21 1993.08C1918.21 1992.81 1918.29 1992.57 1918.46 1992.38C1918.63 1992.19 1918.85 1992.1 1919.1 1992.1C1919.36 1992.1 1919.58 1992.19 1919.76 1992.38ZM1927.88 1996.77V1997.95H1925.41V2008.31H1924.1V1997.95H1922.12V1996.77H1924.1V1995.54C1924.1 1994.49 1924.36 1993.66 1924.87 1993.03C1925.38 1992.41 1926.1 1992.1 1927.03 1992.1C1927.3 1992.1 1927.59 1992.15 1927.9 1992.24V1993.6C1927.61 1993.48 1927.29 1993.42 1926.96 1993.42C1926.54 1993.42 1926.17 1993.6 1925.86 1993.95C1925.56 1994.31 1925.41 1994.85 1925.41 1995.56V1996.77H1927.88ZM1937.8 2006.33V2007.74C1936.94 2008.2 1935.94 2008.42 1934.81 2008.42C1933.2 2008.42 1931.89 2007.89 1930.88 2006.82C1929.88 2005.75 1929.38 2004.34 1929.38 2002.6C1929.38 2000.74 1929.82 1999.29 1930.7 1998.22C1931.59 1997.16 1932.73 1996.63 1934.14 1996.63C1935.47 1996.63 1936.52 1997.09 1937.3 1998.02C1938.09 1998.95 1938.48 2000.25 1938.48 2001.94C1938.48 2002.45 1938.45 2002.86 1938.39 2003.17H1930.75C1930.85 2004.44 1931.26 2005.41 1931.99 2006.09C1932.71 2006.77 1933.67 2007.1 1934.87 2007.1C1936.09 2007.1 1937.07 2006.85 1937.8 2006.33ZM1934.1 1997.93C1933.19 1997.93 1932.43 1998.27 1931.81 1998.95C1931.2 1999.64 1930.85 2000.62 1930.75 2001.89H1937.13V2001.37C1937.13 2000.32 1936.86 1999.48 1936.31 1998.86C1935.76 1998.24 1935.03 1997.93 1934.1 1997.93ZM1954.05 2006.33V2007.74C1953.19 2008.2 1952.2 2008.42 1951.06 2008.42C1949.45 2008.42 1948.14 2007.89 1947.14 2006.82C1946.13 2005.75 1945.63 2004.34 1945.63 2002.6C1945.63 2000.74 1946.07 1999.29 1946.96 1998.22C1947.84 1997.16 1948.99 1996.63 1950.4 1996.63C1951.72 1996.63 1952.77 1997.09 1953.56 1998.02C1954.34 1998.95 1954.73 2000.25 1954.73 2001.94C1954.73 2002.45 1954.7 2002.86 1954.65 2003.17H1947C1947.1 2004.44 1947.51 2005.41 1948.24 2006.09C1948.96 2006.77 1949.93 2007.1 1951.12 2007.1C1952.35 2007.1 1953.32 2006.85 1954.05 2006.33ZM1950.35 1997.93C1949.44 1997.93 1948.68 1998.27 1948.07 1998.95C1947.46 1999.64 1947.1 2000.62 1947 2001.89H1953.39V2001.37C1953.39 2000.32 1953.11 1999.48 1952.57 1998.86C1952.02 1998.24 1951.28 1997.93 1950.35 1997.93ZM1960.52 2007.15C1961.38 2007.15 1962.06 2006.9 1962.57 2006.4C1963.09 2005.9 1963.34 2005.26 1963.34 2004.49V2002.82H1961.23C1960.22 2002.82 1959.46 2003.03 1958.96 2003.45C1958.46 2003.87 1958.22 2004.39 1958.22 2005.01C1958.22 2005.65 1958.41 2006.16 1958.8 2006.56C1959.19 2006.95 1959.77 2007.15 1960.52 2007.15ZM1963.34 2008.31V2006.97C1962.74 2007.94 1961.7 2008.42 1960.22 2008.42C1959.23 2008.42 1958.41 2008.11 1957.78 2007.48C1957.14 2006.85 1956.83 2006.04 1956.83 2005.06C1956.83 2003.95 1957.23 2003.08 1958.03 2002.47C1958.84 2001.86 1959.9 2001.55 1961.23 2001.55H1963.34V2001.02C1963.34 1999.99 1963.14 1999.21 1962.72 1998.69C1962.31 1998.17 1961.62 1997.91 1960.65 1997.91C1959.53 1997.91 1958.51 1998.23 1957.62 1998.88V1997.38C1958.44 1996.85 1959.46 1996.59 1960.67 1996.59C1963.32 1996.59 1964.65 1998.07 1964.65 2001.02V2008.31H1963.34ZM1974.07 2005.35C1974.07 2006.31 1973.76 2007.06 1973.14 2007.61C1972.52 2008.17 1971.67 2008.45 1970.58 2008.45C1969.27 2008.45 1968.22 2008.22 1967.42 2007.76V2006.33C1968.38 2006.91 1969.4 2007.2 1970.5 2007.2C1971.23 2007.2 1971.78 2007.04 1972.15 2006.72C1972.53 2006.4 1972.72 2005.98 1972.72 2005.46C1972.72 2004.86 1972.52 2004.39 1972.13 2004.05C1971.74 2003.72 1971.1 2003.36 1970.2 2002.98C1969.33 2002.62 1968.64 2002.19 1968.13 2001.71C1967.62 2001.22 1967.36 2000.55 1967.36 1999.7C1967.36 1998.78 1967.68 1998.04 1968.32 1997.48C1968.96 1996.93 1969.77 1996.65 1970.73 1996.65C1971.9 1996.65 1972.8 1996.83 1973.43 1997.18V1998.57C1972.76 1998.16 1971.85 1997.95 1970.71 1997.95C1970.09 1997.95 1969.59 1998.11 1969.23 1998.42C1968.86 1998.73 1968.68 1999.14 1968.68 1999.64C1968.68 1999.94 1968.74 2000.21 1968.84 2000.43C1968.95 2000.66 1969.13 2000.87 1969.4 2001.06C1969.66 2001.25 1969.89 2001.39 1970.07 2001.48C1970.26 2001.57 1970.56 2001.71 1970.97 2001.89C1971.97 2002.32 1972.73 2002.78 1973.26 2003.29C1973.8 2003.8 1974.07 2004.49 1974.07 2005.35ZM1977.82 1996.77V2008.31H1976.52V1996.77H1977.82ZM1977.81 1992.38C1977.99 1992.57 1978.08 1992.81 1978.08 1993.08C1978.08 1993.35 1977.99 1993.58 1977.81 1993.76C1977.63 1993.94 1977.42 1994.03 1977.16 1994.03C1976.9 1994.03 1976.69 1993.94 1976.52 1993.76C1976.35 1993.58 1976.26 1993.35 1976.26 1993.08C1976.26 1992.81 1976.35 1992.57 1976.52 1992.38C1976.69 1992.19 1976.9 1992.1 1977.16 1992.1C1977.42 1992.1 1977.63 1992.19 1977.81 1992.38ZM1988.91 2006.33V2007.74C1988.06 2008.2 1987.06 2008.42 1985.92 2008.42C1984.31 2008.42 1983 2007.89 1982 2006.82C1981 2005.75 1980.49 2004.34 1980.49 2002.6C1980.49 2000.74 1980.93 1999.29 1981.82 1998.22C1982.7 1997.16 1983.85 1996.63 1985.26 1996.63C1986.58 1996.63 1987.64 1997.09 1988.42 1998.02C1989.2 1998.95 1989.59 2000.25 1989.59 2001.94C1989.59 2002.45 1989.57 2002.86 1989.51 2003.17H1981.86C1981.96 2004.44 1982.37 2005.41 1983.1 2006.09C1983.83 2006.77 1984.79 2007.1 1985.98 2007.1C1987.21 2007.1 1988.18 2006.85 1988.91 2006.33ZM1985.21 1997.93C1984.3 1997.93 1983.54 1998.27 1982.93 1998.95C1982.32 1999.64 1981.96 2000.62 1981.86 2001.89H1988.25V2001.37C1988.25 2000.32 1987.97 1999.48 1987.43 1998.86C1986.88 1998.24 1986.14 1997.93 1985.21 1997.93ZM1993.55 2001.87V2008.31H1992.24V1996.77H1993.55V1998.73C1994.14 1997.33 1995.16 1996.63 1996.58 1996.63C1996.68 1996.63 1996.86 1996.65 1997.11 1996.68V1998.09C1996.83 1998 1996.54 1997.95 1996.26 1997.95C1995.49 1997.95 1994.84 1998.36 1994.32 1999.17C1993.81 1999.98 1993.55 2000.88 1993.55 2001.87ZM2008.9 1996.77V1997.95H2006.42V2008.31H2005.12V1997.95H2003.13V1996.77H2005.12V1995.54C2005.12 1994.49 2005.38 1993.66 2005.89 1993.03C2006.4 1992.41 2007.12 1992.1 2008.05 1992.1C2008.32 1992.1 2008.61 1992.15 2008.92 1992.24V1993.6C2008.62 1993.48 2008.31 1993.42 2007.98 1993.42C2007.56 1993.42 2007.19 1993.6 2006.89 1993.95C2006.58 1994.31 2006.42 1994.85 2006.42 1995.56V1996.77H2008.9ZM2020.46 2002.6C2020.46 2004.31 2020.01 2005.73 2019.11 2006.84C2018.2 2007.96 2016.96 2008.52 2015.38 2008.52C2013.85 2008.52 2012.64 2007.95 2011.74 2006.83C2010.85 2005.71 2010.4 2004.3 2010.4 2002.6C2010.4 2000.91 2010.86 1999.49 2011.79 1998.34C2012.71 1997.18 2013.91 1996.61 2015.38 1996.61C2016.98 1996.61 2018.24 1997.17 2019.13 1998.3C2020.02 1999.43 2020.46 2000.87 2020.46 2002.6ZM2011.76 2002.6C2011.76 2003.86 2012.1 2004.94 2012.76 2005.84C2013.42 2006.74 2014.29 2007.2 2015.38 2007.2C2016.56 2007.2 2017.47 2006.75 2018.12 2005.86C2018.77 2004.97 2019.09 2003.89 2019.09 2002.6C2019.09 2001.26 2018.79 2000.15 2018.17 1999.26C2017.56 1998.37 2016.63 1997.93 2015.38 1997.93C2014.25 1997.93 2013.37 1998.38 2012.73 1999.29C2012.09 2000.21 2011.76 2001.31 2011.76 2002.6ZM2024.35 2001.87V2008.31H2023.04V1996.77H2024.35V1998.73C2024.95 1997.33 2025.96 1996.63 2027.38 1996.63C2027.48 1996.63 2027.66 1996.65 2027.92 1996.68V1998.09C2027.63 1998 2027.35 1997.95 2027.06 1997.95C2026.29 1997.95 2025.65 1998.36 2025.13 1999.17C2024.61 1999.98 2024.35 2000.88 2024.35 2001.87ZM2040.11 2006.58V2007.99C2039.7 2008.28 2039.22 2008.42 2038.68 2008.42C2036.63 2008.42 2035.6 2007.3 2035.6 2005.06V1997.95H2033.83V1996.77H2035.6V1993.88H2036.93V1996.77H2040.02V1997.95H2036.93V2005.12C2036.93 2006.44 2037.5 2007.1 2038.66 2007.1C2039.23 2007.1 2039.71 2006.93 2040.11 2006.58ZM2050.88 2000.25V2008.31H2049.57V2000.68C2049.57 1999.79 2049.36 1999.1 2048.93 1998.63C2048.51 1998.16 2047.94 1997.93 2047.25 1997.93C2046.36 1997.93 2045.6 1998.29 2044.96 1999.01C2044.32 1999.73 2044 2000.71 2044 2001.94V2008.31H2042.69V1992.21H2044V1998.75C2044.65 1997.31 2045.8 1996.59 2047.44 1996.59C2048.48 1996.59 2049.31 1996.93 2049.94 1997.61C2050.56 1998.29 2050.88 1999.17 2050.88 2000.25ZM2063.4 2002.6C2063.4 2004.31 2062.94 2005.73 2062.04 2006.84C2061.13 2007.96 2059.89 2008.52 2058.31 2008.52C2056.79 2008.52 2055.58 2007.95 2054.68 2006.83C2053.78 2005.71 2053.33 2004.3 2053.33 2002.6C2053.33 2000.91 2053.8 1999.49 2054.72 1998.34C2055.65 1997.18 2056.84 1996.61 2058.31 1996.61C2059.92 1996.61 2061.17 1997.17 2062.06 1998.3C2062.95 1999.43 2063.4 2000.87 2063.4 2002.6ZM2054.7 2002.6C2054.7 2003.86 2055.03 2004.94 2055.69 2005.84C2056.36 2006.74 2057.23 2007.2 2058.31 2007.2C2059.49 2007.2 2060.41 2006.75 2061.05 2005.86C2061.7 2004.97 2062.03 2003.89 2062.03 2002.6C2062.03 2001.26 2061.72 2000.15 2061.11 1999.26C2060.5 1998.37 2059.56 1997.93 2058.31 1997.93C2057.19 1997.93 2056.3 1998.38 2055.66 1999.29C2055.02 2000.21 2054.7 2001.31 2054.7 2002.6ZM2072.28 2005.35C2072.28 2006.31 2071.97 2007.06 2071.35 2007.61C2070.73 2008.17 2069.88 2008.45 2068.8 2008.45C2067.49 2008.45 2066.43 2008.22 2065.64 2007.76V2006.33C2066.59 2006.91 2067.62 2007.2 2068.72 2007.2C2069.44 2007.2 2069.99 2007.04 2070.37 2006.72C2070.75 2006.4 2070.94 2005.98 2070.94 2005.46C2070.94 2004.86 2070.74 2004.39 2070.35 2004.05C2069.96 2003.72 2069.31 2003.36 2068.42 2002.98C2067.55 2002.62 2066.86 2002.19 2066.34 2001.71C2065.83 2001.22 2065.58 2000.55 2065.58 1999.7C2065.58 1998.78 2065.9 1998.04 2066.54 1997.48C2067.18 1996.93 2067.98 1996.65 2068.95 1996.65C2070.12 1996.65 2071.01 1996.83 2071.64 1997.18V1998.57C2070.97 1998.16 2070.07 1997.95 2068.93 1997.95C2068.3 1997.95 2067.81 1998.11 2067.44 1998.42C2067.08 1998.73 2066.9 1999.14 2066.9 1999.64C2066.9 1999.94 2066.95 2000.21 2067.06 2000.43C2067.17 2000.66 2067.35 2000.87 2067.61 2001.06C2067.88 2001.25 2068.1 2001.39 2068.29 2001.48C2068.47 2001.57 2068.77 2001.71 2069.18 2001.89C2070.18 2002.32 2070.94 2002.78 2071.48 2003.29C2072.01 2003.8 2072.28 2004.49 2072.28 2005.35ZM2082.41 2006.33V2007.74C2081.55 2008.2 2080.55 2008.42 2079.41 2008.42C2077.8 2008.42 2076.5 2007.89 2075.5 2006.82C2074.49 2005.75 2073.99 2004.34 2073.99 2002.6C2073.99 2000.74 2074.43 1999.29 2075.31 1998.22C2076.2 1997.16 2077.34 1996.63 2078.75 1996.63C2080.08 1996.63 2081.13 1997.09 2081.91 1998.02C2082.7 1998.95 2083.09 2000.25 2083.09 2001.94C2083.09 2002.45 2083.06 2002.86 2083 2003.17H2075.36C2075.45 2004.44 2075.87 2005.41 2076.59 2006.09C2077.32 2006.77 2078.28 2007.1 2079.48 2007.1C2080.7 2007.1 2081.68 2006.85 2082.41 2006.33ZM2078.71 1997.93C2077.8 1997.93 2077.04 1998.27 2076.42 1998.95C2075.81 1999.64 2075.45 2000.62 2075.36 2001.89H2081.74V2001.37C2081.74 2000.32 2081.47 1999.48 2080.92 1998.86C2080.37 1998.24 2079.64 1997.93 2078.71 1997.93ZM2095.99 2004.53L2094.99 2008.31H2093.24L2089.93 1996.77H2091.36L2092.42 2000.59C2092.82 2002.02 2093.16 2003.26 2093.44 2004.31C2093.72 2005.37 2093.9 2006.06 2093.98 2006.4L2094.09 2006.92C2094.35 2005.94 2094.92 2003.82 2095.8 2000.57L2096.83 1996.77H2098.36L2099.43 2000.57L2101.18 2006.97C2101.41 2006.07 2102.02 2003.94 2103 2000.57L2104.11 1996.77H2105.48L2102.06 2008.31H2100.31L2099.26 2004.53L2097.59 1998.38C2097.35 1999.34 2096.82 2001.39 2095.99 2004.53ZM2115.92 2000.25V2008.31H2114.62V2000.68C2114.62 1999.79 2114.4 1999.1 2113.98 1998.63C2113.55 1998.16 2112.99 1997.93 2112.29 1997.93C2111.41 1997.93 2110.64 1998.29 2110 1999.01C2109.36 1999.73 2109.04 2000.71 2109.04 2001.94V2008.31H2107.74V1992.21H2109.04V1998.75C2109.7 1997.31 2110.84 1996.59 2112.48 1996.59C2113.52 1996.59 2114.35 1996.93 2114.98 1997.61C2115.61 1998.29 2115.92 1999.17 2115.92 2000.25ZM2128.44 2002.6C2128.44 2004.31 2127.99 2005.73 2127.08 2006.84C2126.18 2007.96 2124.94 2008.52 2123.35 2008.52C2121.83 2008.52 2120.62 2007.95 2119.72 2006.83C2118.83 2005.71 2118.38 2004.3 2118.38 2002.6C2118.38 2000.91 2118.84 1999.49 2119.77 1998.34C2120.69 1997.18 2121.89 1996.61 2123.35 1996.61C2124.96 1996.61 2126.21 1997.17 2127.11 1998.3C2127.99 1999.43 2128.44 2000.87 2128.44 2002.6ZM2119.74 2002.6C2119.74 2003.86 2120.08 2004.94 2120.74 2005.84C2121.4 2006.74 2122.27 2007.2 2123.35 2007.2C2124.54 2007.2 2125.45 2006.75 2126.1 2005.86C2126.75 2004.97 2127.07 2003.89 2127.07 2002.6C2127.07 2001.26 2126.77 2000.15 2126.15 1999.26C2125.54 1998.37 2124.61 1997.93 2123.35 1997.93C2122.23 1997.93 2121.35 1998.38 2120.71 1999.29C2120.06 2000.21 2119.74 2001.31 2119.74 2002.6ZM2142.5 2005.35C2142.5 2006.31 2142.19 2007.06 2141.56 2007.61C2140.95 2008.17 2140.1 2008.45 2139.01 2008.45C2137.7 2008.45 2136.65 2008.22 2135.85 2007.76V2006.33C2136.81 2006.91 2137.83 2007.2 2138.93 2007.2C2139.65 2007.2 2140.21 2007.04 2140.58 2006.72C2140.96 2006.4 2141.15 2005.98 2141.15 2005.46C2141.15 2004.86 2140.95 2004.39 2140.56 2004.05C2140.17 2003.72 2139.53 2003.36 2138.63 2002.98C2137.76 2002.62 2137.07 2002.19 2136.56 2001.71C2136.04 2001.22 2135.79 2000.55 2135.79 1999.7C2135.79 1998.78 2136.11 1998.04 2136.75 1997.48C2137.39 1996.93 2138.2 1996.65 2139.16 1996.65C2140.33 1996.65 2141.23 1996.83 2141.86 1997.18V1998.57C2141.19 1998.16 2140.28 1997.95 2139.14 1997.95C2138.52 1997.95 2138.02 1998.11 2137.66 1998.42C2137.29 1998.73 2137.11 1999.14 2137.11 1999.64C2137.11 1999.94 2137.17 2000.21 2137.27 2000.43C2137.38 2000.66 2137.56 2000.87 2137.83 2001.06C2138.09 2001.25 2138.32 2001.39 2138.5 2001.48C2138.69 2001.57 2138.99 2001.71 2139.4 2001.89C2140.4 2002.32 2141.16 2002.78 2141.69 2003.29C2142.23 2003.8 2142.5 2004.49 2142.5 2005.35ZM2152.62 2006.33V2007.74C2151.76 2008.2 2150.77 2008.42 2149.63 2008.42C2148.02 2008.42 2146.71 2007.89 2145.71 2006.82C2144.7 2005.75 2144.2 2004.34 2144.2 2002.6C2144.2 2000.74 2144.64 1999.29 2145.53 1998.22C2146.41 1997.16 2147.56 1996.63 2148.97 1996.63C2150.29 1996.63 2151.34 1997.09 2152.13 1998.02C2152.91 1998.95 2153.3 2000.25 2153.3 2001.94C2153.3 2002.45 2153.27 2002.86 2153.22 2003.17H2145.57C2145.67 2004.44 2146.08 2005.41 2146.81 2006.09C2147.53 2006.77 2148.5 2007.1 2149.69 2007.1C2150.92 2007.1 2151.89 2006.85 2152.62 2006.33ZM2148.92 1997.93C2148.01 1997.93 2147.25 1998.27 2146.64 1998.95C2146.02 1999.64 2145.67 2000.62 2145.57 2001.89H2151.96V2001.37C2151.96 2000.32 2151.68 1999.48 2151.14 1998.86C2150.59 1998.24 2149.85 1997.93 2148.92 1997.93ZM2157.25 2001.87V2008.31H2155.95V1996.77H2157.25V1998.73C2157.85 1997.33 2158.86 1996.63 2160.29 1996.63C2160.39 1996.63 2160.57 1996.65 2160.82 1996.68V1998.09C2160.54 1998 2160.25 1997.95 2159.97 1997.95C2159.2 1997.95 2158.55 1998.36 2158.04 1999.17C2157.51 1999.98 2157.25 2000.88 2157.25 2001.87ZM2171.01 1996.77L2167.17 2008.31H2165.41L2161.68 1996.77H2163.04L2164.56 2001.62L2166.29 2007.2C2166.43 2006.63 2167.02 2004.77 2168.06 2001.62L2169.64 1996.77H2171.01ZM2181.03 2006.33V2007.74C2180.18 2008.2 2179.18 2008.42 2178.04 2008.42C2176.43 2008.42 2175.12 2007.89 2174.12 2006.82C2173.12 2005.75 2172.61 2004.34 2172.61 2002.6C2172.61 2000.74 2173.06 1999.29 2173.94 1998.22C2174.82 1997.16 2175.97 1996.63 2177.38 1996.63C2178.7 1996.63 2179.76 1997.09 2180.54 1998.02C2181.32 1998.95 2181.72 2000.25 2181.72 2001.94C2181.72 2002.45 2181.69 2002.86 2181.63 2003.17H2173.98C2174.08 2004.44 2174.49 2005.41 2175.22 2006.09C2175.95 2006.77 2176.91 2007.1 2178.1 2007.1C2179.33 2007.1 2180.31 2006.85 2181.03 2006.33ZM2177.34 1997.93C2176.42 1997.93 2175.66 1998.27 2175.05 1998.95C2174.44 1999.64 2174.08 2000.62 2173.98 2001.89H2180.37V2001.37C2180.37 2000.32 2180.09 1999.48 2179.54 1998.86C2179 1998.24 2178.26 1997.93 2177.34 1997.93Z"
                                            fill="white" />
                                    </g>
                                </g>
                            </g>
                        </g>
                    </g>
                </g>
            </g>
        </g>
    </g>
    <g clip-path="url(#clip12_228_2)">
        <path
            d="M261.266 1001C304.451 1001 339.5 970.835 339.5 933.667V866.334H261.266C218.08 866.334 183.031 896.499 183.031 933.667C183.031 970.835 218.08 1001 261.266 1001Z"
            fill="#0ACF83" />
        <path
            d="M183.031 798.999C183.031 761.831 218.08 731.666 261.266 731.666H339.5V866.333H261.266C218.08 866.333 183.031 836.167 183.031 798.999Z"
            fill="#A259FF" />
        <path
            d="M183.031 664.333C183.031 627.165 218.08 597 261.266 597H339.5V731.667H261.266C218.08 731.667 183.031 701.501 183.031 664.333Z"
            fill="#F24E1E" />
        <path
            d="M339.5 597H417.734C460.92 597 495.969 627.165 495.969 664.333C495.969 701.501 460.92 731.667 417.734 731.667H339.5V597Z"
            fill="#FF7262" />
        <path
            d="M495.969 798.999C495.969 836.167 460.92 866.333 417.734 866.333C374.549 866.333 339.5 836.167 339.5 798.999C339.5 761.831 374.549 731.666 417.734 731.666C460.92 731.666 495.969 761.831 495.969 798.999Z"
            fill="#1ABCFE" />
    </g>
    <g clip-path="url(#clip13_228_2)">
        <path fill-rule="evenodd" clip-rule="evenodd"
            d="M1998.97 568C1900.56 568 1821 653.021 1821 758.203C1821 842.281 1871.97 913.451 1942.69 938.641C1951.53 940.534 1954.77 934.548 1954.77 929.512C1954.77 925.103 1954.48 909.989 1954.48 894.24C1904.97 905.579 1894.66 871.567 1894.66 871.567C1886.71 849.523 1874.92 843.858 1874.92 843.858C1858.71 832.206 1876.1 832.206 1876.1 832.206C1894.07 833.466 1903.5 851.73 1903.5 851.73C1919.41 880.699 1945.05 872.514 1955.36 867.474C1956.83 855.193 1961.55 846.691 1966.56 841.968C1927.07 837.559 1885.53 821.184 1885.53 748.124C1885.53 727.341 1892.6 710.336 1903.79 697.112C1902.03 692.389 1895.84 672.862 1905.57 646.725C1905.57 646.725 1920.59 641.686 1954.47 666.249C1968.98 662.086 1983.94 659.968 1998.97 659.95C2013.99 659.95 2029.31 662.157 2043.46 666.249C2077.34 641.686 2092.37 646.725 2092.37 646.725C2102.1 672.862 2095.9 692.389 2094.14 697.112C2105.63 710.336 2112.41 727.341 2112.41 748.124C2112.41 821.184 2070.86 837.242 2031.08 841.968C2037.57 847.95 2043.16 859.285 2043.16 877.236C2043.16 902.742 2042.87 923.213 2042.87 929.509C2042.87 934.548 2046.11 940.534 2054.95 938.644C2125.67 913.447 2176.64 842.281 2176.64 758.203C2176.93 653.021 2097.08 568 1998.97 568Z"
            fill="#24292F" />
    </g>
    <g clip-path="url(#clip14_228_2)">
        <path
            d="M3444 826.999H3500V684.302L3420 621.348V801.817C3420 815.751 3430.76 826.999 3444 826.999Z"
            fill="#4285F4" />
        <path d="M3692 826.999H3748C3761.28 826.999 3772 815.709 3772 801.817V621.348L3692 684.302"
            fill="#34A853" />
        <path
            d="M3692 575.181V684.302L3772 621.348V587.772C3772 556.63 3738.12 538.877 3714.4 557.554"
            fill="#FBBC04" />
        <path d="M3500 684.303V575.182L3596 650.727L3692 575.182V684.303L3596 759.848"
            fill="#EA4335" />
        <path
            d="M3420 587.772V621.348L3500 684.302V575.181L3477.6 557.554C3453.84 538.877 3420 556.63 3420 587.772Z"
            fill="#C5221F" />
    </g>
    <g clip-path="url(#clip15_228_2)">
        <path
            d="M572.014 1791.97L746.866 1777.78C768.345 1775.76 773.862 1777.13 787.368 1787.91L843.183 1831.08C852.388 1838.51 855.453 1840.53 855.453 1848.62V2085.42C855.453 2100.26 850.546 2109.04 833.365 2110.38L630.316 2123.89C617.423 2124.56 611.283 2122.53 604.53 2113.08L563.428 2054.39C556.056 2043.59 553 2035.5 553 2026.05V1815.56C553 1803.43 557.907 1793.31 572.014 1791.97Z"
            fill="white" />
        <path fill-rule="evenodd" clip-rule="evenodd"
            d="M746.866 1777.79L572.014 1791.97C557.907 1793.31 553 1803.43 553 1815.56V2026.05C553 2035.5 556.056 2043.59 563.428 2054.39L604.53 2113.08C611.283 2122.53 617.423 2124.56 630.316 2123.88L833.368 2110.38C850.536 2109.04 855.456 2100.26 855.456 2085.42V1848.62C855.456 1840.95 852.698 1838.74 844.576 1832.2L787.368 1787.91C773.865 1777.13 768.345 1775.76 746.866 1777.78V1777.79ZM634.907 1844.75C618.327 1845.97 614.566 1846.25 605.149 1837.84L581.209 1816.93C578.776 1814.22 579.999 1810.85 586.129 1810.17L754.219 1796.69C768.335 1795.33 775.685 1800.74 781.206 1805.45L810.034 1828.39C811.267 1829.07 814.332 1833.11 810.644 1833.11L637.056 1844.59L634.907 1844.75ZM615.577 2083.4V1882.37C615.577 1873.59 618.033 1869.55 625.383 1868.87L824.76 1856.05C831.522 1855.38 834.578 1860.1 834.578 1868.86V2068.55C834.578 2077.33 833.346 2084.75 822.308 2085.42L631.517 2097.57C620.479 2098.24 615.581 2094.2 615.581 2083.4H615.577ZM803.913 1893.15C805.136 1899.22 803.913 1905.3 798.383 1905.99L789.188 1907.99V2056.42C781.203 2061.13 773.852 2063.83 767.709 2063.83C757.891 2063.83 755.439 2060.45 748.086 2050.34L687.951 1946.45V2046.97L706.974 2051.7C706.974 2051.7 706.974 2063.84 691.626 2063.84L649.314 2066.54C648.081 2063.83 649.314 2057.09 653.602 2055.75L664.652 2052.38V1919.48L649.317 1918.11C648.084 1912.04 651.15 1903.27 659.745 1902.59L705.145 1899.24L767.713 2004.47V1911.37L751.764 1909.36C750.532 1901.92 755.439 1896.52 761.569 1895.86L803.913 1893.15Z"
            fill="black" />
    </g>
    <g clip-path="url(#clip16_228_2)">
        <path
            d="M529 3290.85C529.021 3288.21 527.486 3285.75 524.953 3284.37H524.909L524.75 3284.3L393.075 3215.06C392.507 3214.72 391.917 3214.41 391.308 3214.12C386.224 3211.79 380.185 3211.79 375.1 3214.12C374.491 3214.41 373.901 3214.72 373.333 3215.06L241.659 3284.3L241.5 3284.37C237.476 3286.6 236.242 3291.3 238.744 3294.87C239.482 3295.93 240.497 3296.8 241.703 3297.43L373.377 3366.67C373.948 3367 374.538 3367.32 375.145 3367.6C380.229 3369.93 386.268 3369.93 391.352 3367.6C391.959 3367.32 392.549 3367 393.12 3366.67L524.794 3297.43C527.425 3296.07 529.031 3293.56 529 3290.85Z"
            fill="#0A2767" />
        <path
            d="M257.009 3244.62H343.419V3314.98H257.009V3244.62ZM511.326 3173.1V3140.91C511.534 3132.87 504.363 3126.19 495.305 3126H271.069C262.01 3126.19 254.84 3132.87 255.047 3140.91V3173.1L387.605 3204.5L511.326 3173.1Z"
            fill="#0364B8" />
        <path d="M255.047 3173.1H343.419V3243.75H255.047V3173.1Z" fill="#0078D4" />
        <path d="M431.79 3173.1H343.418V3243.75L431.79 3314.4H511.325V3243.75L431.79 3173.1Z"
            fill="#28A8EA" />
        <path d="M343.418 3243.75H431.79V3314.4H343.418V3243.75Z" fill="#0078D4" />
        <path d="M343.418 3314.4H431.79V3385.05H343.418V3314.4Z" fill="#0364B8" />
        <path d="M257.008 3314.98H343.418V3378.94H257.008V3314.98Z" fill="#14447D" />
        <path d="M431.789 3314.4H511.324V3385.05H431.789V3314.4Z" fill="#0078D4" />
        <path
            d="M524.951 3297L524.783 3297.07L393.109 3362.86C392.535 3363.17 391.951 3363.47 391.342 3363.74C389.105 3364.68 386.676 3365.22 384.201 3365.31L377.008 3361.57C376.4 3361.3 375.81 3361 375.24 3360.67L241.798 3293.02H241.737L237.371 3290.85V3424.02C237.439 3432.9 245.6 3440.06 255.602 3440H511.05C511.201 3440 511.333 3439.94 511.492 3439.94C513.605 3439.82 515.688 3439.43 517.678 3438.79C518.538 3438.47 519.369 3438.08 520.161 3437.64C520.753 3437.35 521.77 3436.69 521.77 3436.69C526.297 3433.72 528.976 3429.02 528.999 3424.02V3290.85C528.996 3293.4 527.449 3295.75 524.951 3297Z"
            fill="url(#paint0_linear_228_2)" />
        <path opacity="0.5"
            d="M521.93 3290.32V3298.49L384.247 3382.7L241.703 3293.07C241.703 3293.03 241.663 3292.99 241.614 3292.99L228.535 3286.01V3280.12L233.926 3280.04L245.326 3285.85L245.591 3285.93L246.563 3286.48C246.563 3286.48 380.535 3354.38 380.888 3354.54L386.014 3357.21C386.456 3357.05 386.898 3356.89 387.428 3356.74C387.693 3356.58 520.428 3290.25 520.428 3290.25L521.93 3290.32Z"
            fill="#0A2767" />
        <path
            d="M524.951 3297L524.783 3297.08L393.109 3362.87C392.534 3363.18 391.951 3363.48 391.341 3363.74C386.228 3365.96 380.248 3365.96 375.134 3363.74C374.528 3363.48 373.939 3363.18 373.366 3362.87L241.692 3297.08L241.533 3297C238.991 3295.77 237.397 3293.42 237.371 3290.85V3424.02C237.434 3432.9 245.592 3440.06 255.593 3440C255.593 3440 255.593 3440 255.593 3440H510.776C520.777 3440.06 528.935 3432.9 528.999 3424.02C528.999 3424.02 528.999 3424.02 528.999 3424.02V3290.85C528.995 3293.4 527.449 3295.75 524.951 3297Z"
            fill="#1490DF" />
        <path opacity="0.1"
            d="M395.028 3361.89L393.057 3362.87C392.486 3363.2 391.896 3363.49 391.29 3363.76C389.119 3364.71 386.758 3365.26 384.344 3365.39L434.442 3418.02L521.833 3436.73C524.228 3435.12 526.132 3433.01 527.374 3430.58L395.028 3361.89Z"
            fill="black" />
        <path opacity="0.05"
            d="M403.953 3357.43L393.057 3362.87C392.486 3363.2 391.896 3363.49 391.29 3363.76C389.119 3364.71 386.758 3365.26 384.344 3365.39L407.815 3422.88L521.859 3436.7C526.352 3433.71 528.997 3429.01 529 3424.02V3422.3L403.953 3357.43Z"
            fill="black" />
        <path
            d="M255.841 3440H510.75C514.672 3440.02 518.498 3438.92 521.664 3436.86L376.999 3361.59C376.391 3361.32 375.801 3361.01 375.231 3360.68L241.79 3293.03H241.728L237.371 3290.85V3423.56C237.361 3432.63 245.63 3439.99 255.841 3440V3440Z"
            fill="#28A8EA" />
        <path opacity="0.1"
            d="M361.092 3203.19V3370.63C361.076 3376.5 357.058 3381.78 350.929 3383.98C349.031 3384.7 346.986 3385.07 344.92 3385.07H237.371V3196.65H255.046V3188.8H344.92C353.848 3188.83 361.073 3195.26 361.092 3203.19Z"
            fill="black" />
        <path opacity="0.2"
            d="M352.255 3211.04V3378.48C352.277 3380.37 351.824 3382.25 350.929 3383.97C348.475 3389.35 342.611 3392.87 336.083 3392.9H237.371V3196.65H336.083C338.647 3196.63 341.174 3197.19 343.418 3198.3C348.835 3200.72 352.253 3205.65 352.255 3211.04Z"
            fill="black" />
        <path opacity="0.2"
            d="M352.255 3211.04V3362.78C352.212 3370.71 345.006 3377.13 336.083 3377.2H237.371V3196.65H336.083C338.647 3196.63 341.174 3197.19 343.418 3198.3C348.835 3200.72 352.253 3205.65 352.255 3211.04Z"
            fill="black" />
        <path opacity="0.2"
            d="M343.418 3211.04V3362.78C343.408 3370.72 336.183 3377.16 327.246 3377.2H237.371V3196.65H327.245C336.182 3196.65 343.422 3203.09 343.417 3211.03C343.418 3211.03 343.418 3211.04 343.418 3211.04Z"
            fill="black" />
        <path
            d="M165.199 3196.65H327.22C336.166 3196.65 343.418 3203.09 343.418 3211.04V3354.96C343.418 3362.91 336.166 3369.35 327.22 3369.35H165.199C156.252 3369.35 149 3362.91 149 3354.96V3211.04C149 3203.09 156.252 3196.65 165.199 3196.65Z"
            fill="url(#paint1_linear_228_2)" />
        <path
            d="M199.63 3257C203.622 3249.44 210.066 3243.12 218.135 3238.84C227.07 3234.3 237.244 3232.03 247.536 3232.3C257.075 3232.11 266.488 3234.26 274.746 3238.51C282.51 3242.62 288.764 3248.64 292.747 3255.85C297.086 3263.8 299.248 3272.54 299.057 3281.37C299.267 3290.59 297.043 3299.73 292.562 3308.06C288.484 3315.52 282.032 3321.76 274.004 3326.01C265.427 3330.38 255.665 3332.59 245.778 3332.38C236.035 3332.59 226.415 3330.42 217.967 3326.1C210.135 3321.98 203.803 3315.95 199.727 3308.72C195.363 3300.89 193.175 3292.25 193.347 3283.52C193.165 3274.37 195.313 3265.31 199.63 3257ZM219.354 3299.63C221.483 3304.4 225.093 3308.54 229.765 3311.57C234.523 3314.53 240.221 3316.05 246.025 3315.92C252.206 3316.14 258.298 3314.56 263.381 3311.43C267.994 3308.41 271.509 3304.26 273.491 3299.48C275.707 3294.15 276.8 3288.5 276.717 3282.82C276.785 3277.08 275.757 3271.37 273.676 3265.94C271.839 3261.04 268.437 3256.71 263.885 3253.49C258.929 3250.21 252.853 3248.55 246.679 3248.78C240.749 3248.64 234.924 3250.18 230.038 3253.17C225.288 3256.21 221.609 3260.39 219.434 3265.22C214.608 3276.29 214.583 3288.56 219.363 3299.64L219.354 3299.63Z"
            fill="white" />
        <path d="M431.789 3173.1H511.324V3243.75H431.789V3173.1Z" fill="#50D9FF" />
    </g>
    <g clip-path="url(#clip17_228_2)">
        <path fill-rule="evenodd" clip-rule="evenodd"
            d="M1934.02 2924C1906.88 2924.02 1884.91 2943.58 1884.93 2967.69C1884.91 2991.8 1906.9 3011.36 1934.04 3011.38H1983.15V2967.71C1983.17 2943.6 1961.18 2924.04 1934.02 2924C1934.04 2924 1934.04 2924 1934.02 2924ZM1934.02 3040.53H1803.11C1775.97 3040.55 1753.98 3060.12 1754 3084.22C1753.96 3108.33 1775.95 3127.9 1803.09 3127.93H1934.02C1961.16 3127.92 1983.15 3108.35 1983.13 3084.24C1983.15 3060.12 1961.16 3040.55 1934.02 3040.53Z"
            fill="#36C5F0" />
        <path fill-rule="evenodd" clip-rule="evenodd"
            d="M2245 3084.22C2245.02 3060.12 2223.04 3040.55 2195.89 3040.53C2168.75 3040.55 2146.77 3060.12 2146.79 3084.22V3127.93H2195.89C2223.04 3127.92 2245.02 3108.35 2245 3084.22ZM2114.07 3084.22V2967.69C2114.09 2943.6 2092.12 2924.04 2064.98 2924C2037.84 2924.02 2015.85 2943.58 2015.87 2967.69V3084.22C2015.83 3108.33 2037.82 3127.9 2064.96 3127.93C2092.1 3127.92 2114.09 3108.35 2114.07 3084.22Z"
            fill="#2EB67D" />
        <path fill-rule="evenodd" clip-rule="evenodd"
            d="M2064.96 3361C2092.1 3360.98 2114.08 3341.42 2114.06 3317.31C2114.08 3293.2 2092.1 3273.64 2064.96 3273.62H2015.85V3317.31C2015.83 3341.4 2037.81 3360.96 2064.96 3361ZM2064.96 3244.45H2195.89C2223.03 3244.43 2245.02 3224.87 2245 3200.76C2245.04 3176.65 2223.05 3157.08 2195.91 3157.05H2064.98C2037.83 3157.07 2015.85 3176.63 2015.87 3200.74C2015.85 3224.87 2037.81 3244.43 2064.96 3244.45Z"
            fill="#ECB22E" />
        <path fill-rule="evenodd" clip-rule="evenodd"
            d="M1754 3200.76C1753.98 3224.87 1775.97 3244.43 1803.11 3244.45C1830.25 3244.43 1852.24 3224.87 1852.22 3200.76V3157.07H1803.11C1775.97 3157.08 1753.98 3176.65 1754 3200.76ZM1884.93 3200.76V3317.29C1884.89 3341.4 1906.88 3360.96 1934.02 3361C1961.16 3360.98 1983.15 3341.42 1983.13 3317.31V3200.79C1983.17 3176.68 1961.18 3157.12 1934.04 3157.08C1906.88 3157.08 1884.91 3176.65 1884.93 3200.76Z"
            fill="#E01E5A" />
    </g>
    <path fill-rule="evenodd" clip-rule="evenodd"
        d="M3721.36 3116.39H3471.39C3449.88 3116.39 3432.44 3134.12 3432.41 3156V3409.99C3432.37 3420.54 3436.46 3430.67 3443.77 3438.14C3451.08 3445.61 3461.02 3449.82 3471.39 3449.82H3721.36C3731.71 3449.8 3741.64 3445.59 3748.94 3438.12C3756.24 3430.65 3760.32 3420.53 3760.28 3409.99V3156C3760.25 3134.14 3742.84 3116.42 3721.36 3116.39ZM3573.81 3356.55C3573.8 3360.07 3572.4 3363.44 3569.94 3365.92C3567.48 3368.4 3564.14 3369.78 3560.68 3369.75H3506.05C3498.91 3369.72 3493.13 3363.81 3493.13 3356.55V3191.12C3493.13 3183.85 3498.91 3177.94 3506.05 3177.92H3560.68C3567.83 3177.94 3573.62 3183.84 3573.65 3191.12L3573.81 3356.55ZM3699.87 3280.59C3699.87 3284.12 3698.49 3287.51 3696.02 3289.99C3693.55 3292.47 3690.21 3293.84 3686.74 3293.8H3632.12C3624.96 3293.77 3619.17 3287.87 3619.14 3280.59V3191.12C3619.17 3183.84 3624.96 3177.94 3632.12 3177.92H3686.74C3693.89 3177.94 3699.66 3183.85 3699.66 3191.12L3699.87 3280.59Z"
        fill="url(#paint2_linear_228_2)" />
    <g clip-path="url(#clip18_228_2)">
        <path
            d="M3195.46 1743.17C3157.09 1743.17 3126 1777.53 3126 1819.93V2081.07C3126 2123.47 3157.1 2157.83 3195.47 2157.83H3433.53C3471.9 2157.83 3503 2123.47 3503 2081.07V1819.93C3503 1777.53 3471.9 1743.17 3433.53 1743.17H3195.46Z"
            fill="#14A800" />
        <path
            d="M3397.18 1995.05C3373.73 1995.05 3358.21 1975.14 3353.87 1967.39C3359.41 1918.45 3375.68 1903.03 3397.18 1903.03C3418.43 1903.03 3434.98 1921.71 3434.98 1949.04C3434.98 1976.37 3418.43 1995.05 3397.18 1995.05ZM3397.18 1872.99C3358.95 1872.99 3337.52 1900.42 3331.4 1928.66C3324.43 1914.27 3319.3 1895.03 3315.26 1877.15H3262.41V1949.5C3262.41 1975.79 3251.57 1995.18 3230.3 1995.18C3209.03 1995.18 3196.84 1975.79 3196.84 1949.51L3197.07 1877.15H3166.61V1949.5C3166.61 1970.63 3172.84 1989.78 3184.15 2003.44C3195.82 2017.53 3211.77 2024.97 3230.28 2024.97C3267.06 2024.97 3292.72 1993.94 3292.72 1949.53V1900.91C3296.6 1916.91 3305.69 1947.68 3323.19 1974.66L3306.85 2077.03H3337.82L3348.61 2004.45C3352.15 2007.67 3355.91 2010.59 3359.84 2013.2C3370.17 2020.42 3382.07 2024.45 3394.29 2024.88H3394.36C3395.27 2024.88 3396.19 2024.94 3397.14 2024.94C3435.06 2024.94 3465.25 1992.65 3465.25 1949.11C3465.26 1905.56 3435.09 1872.99 3397.18 1872.99Z"
            fill="white" />
    </g>
    <defs>
        <linearGradient id="paint0_linear_228_2" x1="383.185" y1="3290.85" x2="383.185" y2="3440"
            gradientUnits="userSpaceOnUse">
            <stop stop-color="#35B8F1" />
            <stop offset="1" stop-color="#28A8EA" />
        </linearGradient>
        <linearGradient id="paint1_linear_228_2" x1="182.774" y1="3185.41" x2="288.455" y2="3391.46"
            gradientUnits="userSpaceOnUse">
            <stop stop-color="#1784D9" />
            <stop offset="0.5" stop-color="#107AD5" />
            <stop offset="1" stop-color="#0A63C9" />
        </linearGradient>
        <linearGradient id="paint2_linear_228_2" x1="54629.2" y1="24455.4" x2="54629.2" y2="3116.39"
            gradientUnits="userSpaceOnUse">
            <stop stop-color="#0052CC" />
            <stop offset="1" stop-color="#2684FF" />
        </linearGradient>
        <clipPath id="clip0_228_2">
            <rect x="1677" y="1592" width="670" height="711" rx="335" fill="white" />
        </clipPath>
        <clipPath id="clip1_228_2">
            <rect width="687.704" height="456.623" fill="white"
                transform="translate(1668.29 1719.27)" />
        </clipPath>
        <clipPath id="clip2_228_2">
            <rect width="686.059" height="456.993" fill="white"
                transform="translate(1669.11 1719.08)" />
        </clipPath>
        <clipPath id="clip3_228_2">
            <rect width="289.305" height="453.295" fill="white"
                transform="translate(1867.49 1720.93)" />
        </clipPath>
        <clipPath id="clip4_228_2">
            <rect width="548.847" height="130.158" fill="white"
                transform="translate(1737.72 1882.5)" />
        </clipPath>
        <clipPath id="clip5_228_2">
            <rect width="548.847" height="130.158" fill="white"
                transform="translate(1737.72 1882.5)" />
        </clipPath>
        <clipPath id="clip6_228_2">
            <rect width="548.847" height="130.158" fill="white"
                transform="translate(1737.72 1882.5)" />
        </clipPath>
        <clipPath id="clip7_228_2">
            <rect width="548.847" height="130.158" fill="white"
                transform="translate(1737.72 1882.5)" />
        </clipPath>
        <clipPath id="clip8_228_2">
            <rect width="548.847" height="89.9493" fill="white"
                transform="translate(1737.72 1882.5)" />
        </clipPath>
        <clipPath id="clip9_228_2">
            <rect width="548.847" height="89.9493" fill="white"
                transform="translate(1737.72 1882.5)" />
        </clipPath>
        <clipPath id="clip10_228_2">
            <rect width="339.187" height="20.5602" fill="white"
                transform="translate(1842.55 1992.1)" />
        </clipPath>
        <clipPath id="clip11_228_2">
            <rect width="339.187" height="20.5602" fill="white"
                transform="translate(1842.55 1992.1)" />
        </clipPath>
        <clipPath id="clip12_228_2">
            <rect width="313" height="404" fill="white" transform="translate(183 597)" />
        </clipPath>
        <clipPath id="clip13_228_2">
            <rect width="357" height="371" fill="white" transform="translate(1821 568)" />
        </clipPath>
        <clipPath id="clip14_228_2">
            <rect width="352" height="277" fill="white" transform="translate(3420 550)" />
        </clipPath>
        <clipPath id="clip15_228_2">
            <rect width="316" height="347" fill="white" transform="translate(553 1777)" />
        </clipPath>
        <clipPath id="clip16_228_2">
            <rect width="380" height="314" fill="white" transform="translate(149 3126)" />
        </clipPath>
        <clipPath id="clip17_228_2">
            <rect width="491" height="437" fill="white" transform="translate(1754 2924)" />
        </clipPath>
        <clipPath id="clip18_228_2">
            <rect width="377" height="415" fill="white" transform="translate(3126 1743)" />
        </clipPath>
    </defs>
</svg>
    