<svg width="1440" height="320" viewBox="0 0 1440 320" fill="none" xmlns="http://www.w3.org/2000/svg">
    <path
        d="M0 160L18.5 138.7C36.9 117 57 212.2 94 222.5C130.7 233.2 214 157.5 251 189.5C287.5 221.5 324 238.5 361 222.5C398.2 206.5 443 192 480 160C517 128 550.5 206.5 587.5 222.5C624.3 238.5 628 197.3 665 208C701.5 218.3 731 189.5 775 189.5C819 189.5 813 233.5 850 222.5C891.5 222.5 930.5 195.2 967.5 189.5C1004.3 184.2 1034 234.5 1071 234.5C1107.6 234.5 1140 196 1196.5 208C1264.5 231 1384.5 251.3 1421.5 246C1458.7 240.3 1403 75 1422 37.3L1440 0H1421.5C1403.1 0 1366 0 1329 0C1292.3 0 1255 0 1218 0C1181.5 0 1145 0 1108 0C1070.8 0 1034 0 997 0C960 0 923 0 886 0C849.2 0 812 0 775 0C738.5 0 702 0 665 0C627.7 0 591 0 554 0C516.9 0 480 0 443 0C406.2 0 369 0 332 0C295.4 0 258 0 222 0C184.6 0 148 0 111 0C73.8 0 37 0 18 0H0V160Z"
        fill="url(#paint0_linear_222_4)" />
    <defs>
        <linearGradient id="paint0_linear_222_4" x1="-15" y1="84.4987" x2="1425" y2="84.4987"
            gradientUnits="userSpaceOnUse">
            <stop stop-color="#2B3232" />
            <stop offset="0.28" stop-color="#032123" />
            <stop offset="1" stop-color="#D1BFAE" stop-opacity="0" />
        </linearGradient>
    </defs>
</svg>
    