<svg xmlns="http://www.w3.org/2000/svg" viewBox="0 0 1440 320">
    <path fill="#26542f" fill-opacity="1"
        d="M0,160L18.5,138.7C36.9,117,74,75,111,85.3C147.7,96,185,160,222,192C258.5,224,295,224,332,208C369.2,192,406,160,443,128C480,96,517,64,554,80C590.8,96,628,160,665,170.7C701.5,181,738,139,775,112C812.3,85,849,75,886,64C923.1,53,960,43,997,37.3C1033.8,32,1071,32,1108,32C1144.6,32,1182,32,1218,64C1255.4,96,1292,160,1329,154.7C1366.2,149,1403,75,1422,37.3L1440,0L1440,0L1421.5,0C1403.1,0,1366,0,1329,0C1292.3,0,1255,0,1218,0C1181.5,0,1145,0,1108,0C1070.8,0,1034,0,997,0C960,0,923,0,886,0C849.2,0,812,0,775,0C738.5,0,702,0,665,0C627.7,0,591,0,554,0C516.9,0,480,0,443,0C406.2,0,369,0,332,0C295.4,0,258,0,222,0C184.6,0,148,0,111,0C73.8,0,37,0,18,0L0,0Z"></path>
</svg>