<svg width="500" height="229" viewBox="0 0 500 229" fill="none" xmlns="http://www.w3.org/2000/svg">
    <g clip-path="url(#clip0_37_26)">
        <path
            d="M300.033 99.59H287.57C287.314 98.57 287.123 97.387 286.996 96.044C286.742 93.4302 286.742 90.7979 286.996 88.184C287.123 86.844 287.314 85.662 287.57 84.636H318.63V182.989C317.075 183.259 315.507 183.45 313.933 183.561C312.369 183.681 310.801 183.744 309.233 183.751C307.731 183.741 306.229 183.678 304.731 183.561C303.157 183.45 301.59 183.258 300.036 182.986V99.586V99.588L300.033 99.59ZM408.16 124.324C408.16 120.744 407.68 117.326 406.724 114.064C405.764 110.807 404.354 107.964 402.506 105.534C400.649 103.108 398.286 101.157 395.41 99.688C392.535 98.218 389.115 97.482 385.153 97.482C377.357 97.482 371.381 99.85 367.228 104.577C363.074 109.305 360.551 115.887 359.655 124.324H408.161H408.16ZM359.464 138.51C359.72 149.246 362.5 157.108 367.804 162.09C373.106 167.074 380.936 169.57 391.289 169.57C400.361 169.57 408.989 167.97 417.169 164.775C418.189 166.692 419.019 169.025 419.659 171.773C420.287 174.449 420.672 177.175 420.809 179.92C416.594 181.714 411.957 183.05 406.912 183.947C401.86 184.839 396.269 185.289 390.138 185.289C381.188 185.289 373.518 184.039 367.131 181.549C360.739 179.054 355.467 175.539 351.313 171.004C347.16 166.468 344.123 161.099 342.206 154.899C340.29 148.702 339.329 141.895 339.329 134.482C339.329 127.197 340.255 120.39 342.109 114.062C343.959 107.739 346.809 102.242 350.639 97.577C354.475 92.91 359.299 89.205 365.115 86.457C370.928 83.709 377.797 82.333 385.725 82.333C392.498 82.333 398.441 83.485 403.555 85.785C408.665 88.085 412.948 91.249 416.4 95.275C419.85 99.302 422.47 104.095 424.26 109.652C426.048 115.214 426.946 121.252 426.946 127.772C426.946 129.562 426.878 131.446 426.751 133.426C426.646 135.121 426.519 136.814 426.369 138.506H359.46L359.462 138.509L359.464 138.51ZM447.854 84.636C449.188 84.3938 450.531 84.2023 451.88 84.062C453.155 83.937 454.5 83.872 455.906 83.872C457.312 83.872 458.716 83.937 460.124 84.062C461.529 84.192 462.808 84.384 463.959 84.636C464.339 86.554 464.723 89.081 465.105 92.209C465.488 95.341 465.683 97.991 465.683 100.165C468.366 95.821 471.913 92.048 476.321 88.852C480.731 85.659 486.386 84.059 493.287 84.059C494.309 84.059 495.363 84.093 496.45 84.157C497.38 84.207 498.31 84.301 499.23 84.442C499.484 85.594 499.68 86.81 499.806 88.086C499.932 89.363 499.996 90.706 499.996 92.111C499.996 93.646 499.901 95.245 499.71 96.903C499.526 98.5056 499.302 100.103 499.04 101.695C498.004 101.44 496.942 101.311 495.875 101.312H493.285C489.835 101.312 486.543 101.792 483.412 102.749C480.278 103.709 477.468 105.403 474.976 107.829C472.486 110.259 470.503 113.583 469.036 117.801C467.563 122.019 466.83 127.451 466.83 134.096V182.986C465.275 183.256 463.707 183.449 462.132 183.56C460.409 183.688 458.842 183.75 457.437 183.75C455.869 183.744 454.302 183.68 452.739 183.56C451.101 183.441 449.47 183.25 447.849 182.987V84.637L447.854 84.636ZM313.3 32.12C313.3 34.4147 312.886 36.6906 312.077 38.838C309.929 39.6469 307.652 40.0616 305.357 40.062H305.329C303.034 40.0623 300.757 39.648 298.609 38.839C297.799 36.6912 297.384 34.4146 297.384 32.119V32.089C297.384 29.724 297.818 27.459 298.604 25.369C300.752 24.5589 303.03 24.1446 305.326 24.146H305.352C307.718 24.146 309.982 24.58 312.072 25.369C312.882 27.5169 313.296 29.7936 313.295 32.089V32.119H313.298L313.3 32.12ZM336.726 26.8H318.15L331.284 13.665C329.219 10.7645 326.683 8.22959 323.782 6.16503L310.646 19.3V0.723029C308.899 0.429215 307.131 0.281039 305.36 0.280029H305.326C303.524 0.280029 301.759 0.434029 300.039 0.723029V19.3L286.9 6.16403C285.453 7.1939 284.095 8.34326 282.84 9.60003L282.834 9.60603C281.579 10.8619 280.431 12.2199 279.401 13.666L292.54 26.8H273.96C273.96 26.8 273.518 30.29 273.518 32.094V32.116C273.518 33.92 273.671 35.688 273.961 37.409H292.541L279.4 50.542C281.467 53.4422 284.003 55.9776 286.903 58.044L300.04 44.91V63.488C301.758 63.776 303.52 63.928 305.32 63.93H305.365C307.134 63.9284 308.9 63.7806 310.645 63.488V44.91L323.783 58.047C325.23 57.0162 326.589 55.8669 327.846 54.611H327.849C329.103 53.3539 330.251 51.9949 331.281 50.548L318.147 37.41H336.727C337.015 35.69 337.167 33.928 337.167 32.128V32.082C337.167 30.312 337.019 28.547 336.727 26.802L336.726 26.8ZM0 180.306L51.764 99.782H6.134C5.752 97.482 5.561 94.928 5.561 92.115C5.561 89.432 5.755 86.937 6.138 84.635H79.948L80.908 87.132L28.761 167.844H77.647C78.03 170.401 78.223 173.019 78.223 175.702C78.223 178.262 78.031 180.689 77.648 182.989H0.96L0 180.303V180.306ZM149.346 136.783C147.429 136.53 145 136.277 142.061 136.018C139.121 135.765 136.629 135.635 134.587 135.635C126.661 135.635 120.622 137.105 116.471 140.045C112.314 142.987 110.241 147.458 110.241 153.465C110.241 157.299 110.941 160.303 112.348 162.475C113.752 164.651 115.511 166.309 117.62 167.46C119.73 168.61 122.06 169.314 124.615 169.57C127.17 169.825 129.6 169.952 131.9 169.952C134.84 169.952 137.875 169.792 141.007 169.472C144.137 169.155 146.917 168.674 149.347 168.035V136.783H149.346ZM149.346 118.189C149.346 110.645 147.429 105.405 143.596 102.465C139.76 99.525 134.201 98.055 126.916 98.055C122.439 98.055 118.256 98.409 114.359 99.111C110.503 99.8032 106.692 100.731 102.949 101.888C100.519 97.67 99.309 92.625 99.309 86.742C103.649 85.338 108.441 84.252 113.684 83.485C118.924 82.717 123.972 82.333 128.831 82.333C141.611 82.333 151.324 85.243 157.971 91.058C164.615 96.878 167.941 106.175 167.941 118.954V180.496C163.465 181.518 158.035 182.572 151.645 183.659C145.184 184.75 138.643 185.295 132.09 185.289C125.828 185.289 120.17 184.716 115.124 183.565C110.074 182.412 105.792 180.563 102.278 178.003C98.76 175.449 96.048 172.189 94.128 168.228C92.212 164.265 91.253 159.473 91.253 153.848C91.253 148.354 92.371 143.528 94.608 139.372C96.8061 135.266 99.9232 131.723 103.716 129.02C107.55 126.276 111.959 124.228 116.944 122.888C121.93 121.545 127.168 120.873 132.664 120.873C136.754 120.873 140.109 120.971 142.73 121.163C145.348 121.353 147.554 121.577 149.344 121.833V118.19L149.346 118.189ZM207.626 166.881C210.046 167.775 212.552 168.418 215.104 168.799C217.66 169.184 220.98 169.375 225.074 169.375C229.674 169.375 233.89 168.642 237.724 167.172C241.56 165.705 244.85 163.434 247.598 160.365C250.346 157.299 252.518 153.435 254.116 148.765C255.713 144.103 256.514 138.577 256.514 132.183C256.514 121.959 254.626 113.843 250.858 107.835C247.085 101.829 240.918 98.825 232.358 98.825C229.163 98.825 226.093 99.399 223.158 100.551C220.214 101.701 217.596 103.427 215.295 105.727C212.995 108.027 211.142 110.937 209.737 114.451C208.327 117.969 207.627 122.151 207.627 127.009V166.884V166.882L207.626 166.881ZM188.646 84.634C189.946 84.378 191.256 84.187 192.576 84.06C193.947 83.9332 195.322 83.8698 196.699 83.87C197.973 83.87 199.314 83.936 200.723 84.06C202.127 84.19 203.469 84.383 204.749 84.635C204.875 84.895 205.037 85.69 205.229 87.033C205.419 88.376 205.611 89.813 205.804 91.345C205.996 92.88 206.187 94.353 206.379 95.755C206.571 97.163 206.667 98.058 206.667 98.441C207.942 96.398 209.477 94.415 211.267 92.498C213.057 90.58 215.2 88.855 217.692 87.323C220.184 85.788 222.994 84.575 226.127 83.679C229.257 82.785 232.74 82.334 236.575 82.334C242.325 82.334 247.662 83.294 252.585 85.212C257.503 87.132 261.718 90.099 265.235 94.126C268.748 98.153 271.495 103.266 273.478 109.463C275.458 115.667 276.448 122.983 276.448 131.417C276.448 148.287 271.878 161.487 262.738 171.007C253.598 180.53 240.661 185.289 223.918 185.289C221.105 185.289 218.231 185.097 215.291 184.714C212.349 184.329 209.795 183.817 207.621 183.181V228.235C206.002 228.499 204.371 228.69 202.735 228.81C201.008 228.935 199.441 229 198.035 229C196.468 228.993 194.902 228.93 193.339 228.81C191.765 228.698 190.198 228.507 188.643 228.235V84.635L188.646 84.634Z"
            fill="#2B3232" />
    </g>
    <defs>
        <clipPath id="clip0_37_26">
            <rect width="500" height="229" fill="white" />
        </clipPath>
    </defs>
</svg>